<svg width="11" height="7" viewBox="0 0 11 7" fill="none" xmlns="http://www.w3.org/2000/svg">
<path d="M10.8901 0.953765L10.339 0.402739C10.2656 0.329156 10.181 0.29248 10.0854 0.29248C9.98999 0.29248 9.90544 0.329156 9.83201 0.402739L5.50006 4.73446L1.1683 0.402855C1.09483 0.329272 1.01028 0.292596 0.914772 0.292596C0.819222 0.292596 0.734674 0.329272 0.661245 0.402855L0.110259 0.953919C0.0366758 1.02735 0 1.1119 0 1.20745C0 1.30292 0.0367916 1.38747 0.110259 1.46089L5.24653 6.59728C5.31996 6.67075 5.40455 6.70746 5.50006 6.70746C5.59557 6.70746 5.68 6.67075 5.75339 6.59728L10.8901 1.46089C10.9635 1.38743 11 1.30288 11 1.20745C11 1.1119 10.9635 1.02735 10.8901 0.953765Z" fill="#AEAEB1"/>
</svg>
