<svg width="32" height="32" viewBox="0 0 32 32" fill="none" xmlns="http://www.w3.org/2000/svg">
<path d="M15.58 0C6.97598 0 0.000976562 6.976 0.000976562 15.58C0.000976562 24.184 6.97598 31.16 15.58 31.16C24.184 31.16 31.159 24.183 31.159 15.58C31.159 6.976 24.185 0 15.58 0ZM15.58 28.16C8.64298 28.16 3.00098 22.517 3.00098 15.58C3.00098 8.643 8.64298 3 15.58 3C22.517 3 28.159 8.643 28.159 15.58C28.159 22.518 22.517 28.16 15.58 28.16Z" fill="#FF802A"/>
<path d="M22.1509 14.5797H17.7089C17.4759 14.0827 17.0759 13.6837 16.5799 13.4507V6.1377C16.5799 5.5857 16.1339 5.1377 15.5799 5.1377C15.0269 5.1377 14.5799 5.5857 14.5799 6.1377V13.4507C13.7789 13.8277 13.2219 14.6357 13.2219 15.5797C13.2219 16.8827 14.2779 17.9387 15.5799 17.9387C16.5239 17.9387 17.3319 17.3797 17.7089 16.5797H22.1509C22.7039 16.5797 23.1509 16.1317 23.1509 15.5797C23.1509 15.0277 22.7039 14.5797 22.1509 14.5797Z" fill="#FF802A"/>
</svg>
