<svg width="21" height="24" viewBox="0 0 21 24" fill="none" xmlns="http://www.w3.org/2000/svg">
<path d="M19.5921 6.27205C18.6531 4.49005 17.3795 3.07912 15.7708 2.039C14.1619 0.998931 12.4055 0.479004 10.5003 0.479004C8.59531 0.479004 6.83839 0.998931 5.22973 2.039C3.62097 3.07896 2.34732 4.48989 1.40835 6.27205C0.46934 8.05432 0 10.0006 0 12.1108C0 14.221 0.469483 16.167 1.40821 17.9494C2.34713 19.7314 3.62078 21.1423 5.22954 22.1825C6.83839 23.2226 8.59517 23.7425 10.5001 23.7425C12.4051 23.7425 14.162 23.2226 15.7708 22.1825C17.3794 21.1427 18.653 19.7314 19.5919 17.9494C20.5306 16.1672 20.9999 14.2209 20.9999 12.1108C21 10.0004 20.5306 8.05405 19.5921 6.27205ZM15.4493 14.8519C15.6225 15.0435 15.7093 15.2712 15.7093 15.5338C15.7093 15.8061 15.6225 16.0385 15.4493 16.2301L14.219 17.5935C14.0459 17.7852 13.8362 17.8811 13.59 17.8811C13.353 17.8811 13.1477 17.7852 12.9748 17.5935L10.5002 14.8519L8.02546 17.5935C7.8523 17.7852 7.64725 17.8811 7.41026 17.8811C7.16412 17.8811 6.95452 17.7852 6.78131 17.5935L5.55076 16.2301C5.3776 16.0385 5.29102 15.8061 5.29102 15.5338C5.29102 15.2713 5.37765 15.0436 5.55076 14.8519L8.02546 12.1107L5.55076 9.36928C5.3776 9.17767 5.29102 8.9503 5.29102 8.68777C5.29102 8.4151 5.37765 8.1829 5.55076 7.99103L6.78131 6.62806C6.95452 6.43623 7.16412 6.34032 7.41026 6.34032C7.64725 6.34032 7.8523 6.43629 8.02546 6.62806L10.5002 9.36928L12.9748 6.62806C13.1476 6.43623 13.353 6.34032 13.59 6.34032C13.8362 6.34032 14.0459 6.43629 14.219 6.62806L15.4493 7.99103C15.6225 8.1829 15.7093 8.4151 15.7093 8.68777C15.7093 8.95025 15.6225 9.17767 15.4493 9.36928L12.9748 12.1107L15.4493 14.8519Z" fill="#AEAEB1"/>
</svg>
