<svg width="19" height="19" viewBox="0 0 19 19" fill="none" xmlns="http://www.w3.org/2000/svg">
<path d="M9.49995 0C4.26171 0 0 4.26161 0 9.49995C0 14.7383 4.26171 19 9.49995 19C14.7382 19 18.9999 14.7383 18.9999 9.49995C18.9999 4.26161 14.7383 0 9.49995 0ZM14.955 7.89533L8.98665 13.8637C8.73288 14.1174 8.39554 14.2571 8.03669 14.2571C7.67784 14.2571 7.3405 14.1174 7.08672 13.8637L4.04491 10.8219C3.79114 10.5681 3.65136 10.2307 3.65136 9.87189C3.65136 9.51294 3.79114 9.1756 4.04491 8.92182C4.29859 8.66805 4.63593 8.52828 4.99488 8.52828C5.35373 8.52828 5.69117 8.66805 5.94484 8.92192L8.03659 11.0136L13.0549 5.9953C13.3086 5.74153 13.646 5.60185 14.0048 5.60185C14.3637 5.60185 14.701 5.74153 14.9548 5.9953C15.4788 6.5193 15.4788 7.37152 14.955 7.89533Z" fill="#F44336"/>
</svg>
