<svg width="16" height="14" viewBox="0 0 16 14" fill="none" xmlns="http://www.w3.org/2000/svg">
<path d="M15.8908 6.66385C14.9196 5.39147 13.7532 4.28078 12.4348 3.37302L14.6896 1.11819C14.9166 0.898947 14.9229 0.53721 14.7037 0.310203C14.4845 0.0831958 14.1227 0.0769012 13.8957 0.29614C13.891 0.300727 13.8863 0.305415 13.8817 0.310203L11.4183 2.77132C10.3697 2.19423 9.19665 1.88047 8.00001 1.85703C3.65718 1.85703 0.252076 6.46728 0.109209 6.66382C-0.0364031 6.86414 -0.0364031 7.13547 0.109209 7.3358C1.08038 8.60817 2.24679 9.71887 3.56517 10.6266L1.31034 12.8815C1.08333 13.1007 1.07704 13.4624 1.29627 13.6894C1.51551 13.9165 1.87725 13.9227 2.10426 13.7035C2.10901 13.6989 2.1137 13.6942 2.11832 13.6894L4.58171 11.2283C5.63026 11.8054 6.80333 12.1192 7.99997 12.1426C12.3428 12.1426 15.7479 7.53237 15.8908 7.3358C16.0364 7.13551 16.0364 6.86417 15.8908 6.66385ZM4.39602 9.79751C3.23196 9.02221 2.18853 8.07953 1.29949 6.99984C2.14062 5.98099 4.86858 2.99987 8.00001 2.99987C8.89092 3.01788 9.76684 3.23253 10.5651 3.62842L9.57312 4.62042C8.26063 3.74905 6.49024 4.10664 5.61888 5.41913C4.98413 6.3752 4.98413 7.61858 5.61888 8.57466L4.39602 9.79751ZM9.54285 6.26555C9.65468 6.49423 9.7133 6.74528 9.71428 6.99984C9.71428 7.94661 8.94677 8.71411 8.00001 8.71411C7.74544 8.71314 7.4944 8.65451 7.26572 8.54268L9.54285 6.26555ZM6.45716 7.7341C6.34533 7.50542 6.28671 7.25437 6.28574 6.99981C6.28574 6.05304 7.05324 5.28554 8.00001 5.28554C8.25457 5.28651 8.50562 5.34513 8.7343 5.45696L6.45716 7.7341ZM8.00001 10.9998C7.10909 10.9818 6.2332 10.7671 5.4349 10.3712L6.4269 9.37923C7.73938 10.2506 9.50977 9.89301 10.3811 8.58052C11.0159 7.62444 11.0159 6.38106 10.3811 5.42499L11.604 4.20213C12.7681 4.97744 13.8115 5.92015 14.7005 6.99981C13.8594 8.01869 11.1314 10.9998 8.00001 10.9998Z" fill="black" fill-opacity="0.3"/>
</svg>
