<svg width="11" height="11" viewBox="0 0 11 11" fill="none" xmlns="http://www.w3.org/2000/svg">
<g clip-path="url(#clip0)">
<path d="M0.031805 0.621606C0.0868359 0.504876 0.204321 0.43042 0.333364 0.43042H10.6666C10.7956 0.43042 10.9131 0.504876 10.9682 0.621606C11.0232 0.738336 11.0059 0.876314 10.9238 0.975886L6.95159 5.79373V10.2362C6.95159 10.3516 6.89198 10.4587 6.79401 10.5195C6.74031 10.5528 6.67937 10.5696 6.6182 10.5696C6.56766 10.5696 6.51694 10.5581 6.47018 10.5349L4.23835 9.42876C4.12496 9.37257 4.05321 9.25704 4.05303 9.13049L4.04868 5.79386L0.0762119 0.975841C-0.00593472 0.876314 -0.0232267 0.738292 0.031805 0.621606ZM4.63908 5.4619C4.6882 5.52146 4.71514 5.59628 4.71523 5.67353L4.7195 8.92308L6.28477 9.69889V5.67398C6.28477 5.59659 6.31167 5.5216 6.36092 5.4619L9.95963 1.09715H1.04037L4.63908 5.4619Z" fill="#AEAEB1"/>
</g>
<defs>
<clipPath id="clip0">
<rect width="11" height="11" fill="white" transform="matrix(-1 0 0 1 11 0)"/>
</clipPath>
</defs>
</svg>
