<svg width="10" height="8" viewBox="0 0 10 8" fill="none" xmlns="http://www.w3.org/2000/svg">
<path d="M8.65563 0.671097C8.22456 0.25017 7.62899 0.0397949 6.86866 0.0397949C6.65825 0.0397949 6.44351 0.076278 6.22465 0.149208C6.00569 0.222192 5.80201 0.320657 5.61381 0.444532C5.42537 0.568371 5.26343 0.684667 5.12757 0.793242C4.99187 0.901853 4.86286 1.01728 4.7407 1.13942C4.61848 1.01728 4.48951 0.901853 4.35379 0.793242C4.21799 0.684667 4.05597 0.568442 3.86757 0.444532C3.6792 0.320604 3.47554 0.22221 3.25665 0.149208C3.03777 0.0762958 2.82306 0.0397949 2.61265 0.0397949C1.85237 0.0397949 1.25677 0.250223 0.825747 0.671097C0.394727 1.09194 0.179199 1.67566 0.179199 2.42234C0.179199 2.64974 0.219142 2.88401 0.298866 3.12486C0.37859 3.36583 0.469441 3.57119 0.57124 3.74086C0.673022 3.91051 0.788444 4.07595 0.917419 4.23718C1.04639 4.39839 1.14065 4.5095 1.19997 4.57059C1.25935 4.63168 1.30604 4.67585 1.33997 4.70302L4.51668 7.76779C4.57779 7.82888 4.65245 7.85952 4.74068 7.85952C4.82891 7.85952 4.90362 7.82888 4.9647 7.76779L8.13637 4.7131C8.9136 3.93601 9.30218 3.17236 9.30218 2.42226C9.3022 1.67554 9.08669 1.09186 8.65563 0.671097ZM7.69343 4.23463L4.7407 7.08045L1.78292 4.22949C1.14823 3.59496 0.830936 2.99246 0.830936 2.42226C0.830936 2.14739 0.867419 1.90469 0.94035 1.69432C1.01333 1.48391 1.10666 1.3167 1.22036 1.19283C1.33407 1.06892 1.47235 0.968025 1.63526 0.889906C1.79825 0.811858 1.95776 0.759238 2.11385 0.732098C2.26995 0.704995 2.43622 0.691425 2.61274 0.691425C2.7892 0.691425 2.9793 0.734648 3.18293 0.82122C3.38653 0.907755 3.57405 1.01637 3.74542 1.14702C3.91684 1.27776 4.06362 1.39992 4.18586 1.51358C4.30802 1.62734 4.4098 1.73164 4.49127 1.82668C4.55233 1.90137 4.63555 1.93871 4.74072 1.93871C4.84592 1.93871 4.92905 1.90137 4.99018 1.82668C5.07163 1.73164 5.17348 1.62729 5.29565 1.51358C5.41783 1.39992 5.56463 1.27781 5.73598 1.14702C5.90739 1.01637 6.0949 0.907755 6.29861 0.82122C6.50217 0.734666 6.69233 0.691425 6.8688 0.691425C7.04528 0.691425 7.2115 0.704995 7.36767 0.732098C7.52382 0.75922 7.68332 0.811858 7.84627 0.889906C8.00919 0.968008 8.14747 1.06897 8.26115 1.19283C8.37484 1.3167 8.46821 1.48391 8.54119 1.69432C8.61405 1.90469 8.65053 2.14739 8.65053 2.42226C8.6505 2.99246 8.33153 3.59664 7.69343 4.23463Z" fill="white"/>
</svg>
