<svg width="9" height="8" viewBox="0 0 9 8" fill="none" xmlns="http://www.w3.org/2000/svg">
<path d="M8.37399 0.611253C7.9566 0.203694 7.37995 0 6.64376 0C6.44004 0 6.23211 0.0353244 6.0202 0.105939C5.8082 0.176605 5.61098 0.271942 5.42877 0.391883C5.24631 0.511789 5.08951 0.624392 4.95797 0.729519C4.82658 0.834681 4.70167 0.946438 4.58338 1.0647C4.46505 0.946438 4.34017 0.834681 4.20877 0.729519C4.07727 0.624392 3.9204 0.511858 3.73798 0.391883C3.55559 0.271891 3.35841 0.176622 3.14646 0.105939C2.93453 0.0353417 2.72664 0 2.52291 0C1.78678 0 1.21009 0.203745 0.792763 0.611253C0.375431 1.01873 0.166748 1.58392 0.166748 2.30688C0.166748 2.52706 0.205422 2.75389 0.282614 2.98709C0.359806 3.22041 0.447772 3.41925 0.546338 3.58353C0.644887 3.74779 0.756644 3.90797 0.881523 4.06408C1.0064 4.22017 1.09766 4.32775 1.15511 4.3869C1.2126 4.44605 1.2578 4.48882 1.29065 4.51513L4.36648 7.48257C4.42565 7.54172 4.49794 7.57138 4.58337 7.57138C4.66879 7.57138 4.74113 7.54172 4.80027 7.48257L7.87121 4.52489C8.62376 3.77247 9 3.03308 9 2.30681C9.00002 1.5838 8.79135 1.01866 8.37399 0.611253ZM7.44234 4.06161L4.58338 6.81705L1.71954 4.05664C1.105 3.44226 0.797787 2.85889 0.797787 2.30681C0.797787 2.04066 0.833112 1.80567 0.903726 1.60198C0.974392 1.39825 1.06476 1.23635 1.17484 1.11641C1.28494 0.996437 1.41883 0.898752 1.57656 0.823113C1.73438 0.747544 1.88882 0.696595 2.03996 0.670317C2.1911 0.644074 2.35209 0.630935 2.523 0.630935C2.69386 0.630935 2.87792 0.672786 3.07509 0.756608C3.27222 0.840396 3.45378 0.945557 3.61971 1.07206C3.78568 1.19865 3.92781 1.31693 4.04616 1.42698C4.16445 1.53713 4.26299 1.63811 4.34188 1.73013C4.40099 1.80246 4.48157 1.83861 4.5834 1.83861C4.68526 1.83861 4.76575 1.80246 4.82494 1.73013C4.90381 1.63811 5.00242 1.53708 5.12071 1.42698C5.23901 1.31693 5.38115 1.1987 5.54705 1.07206C5.71302 0.945557 5.89458 0.840396 6.09182 0.756608C6.28891 0.672803 6.47303 0.630935 6.6439 0.630935C6.81477 0.630935 6.97572 0.644074 7.12693 0.670317C7.27812 0.696577 7.43255 0.747544 7.59032 0.823113C7.74807 0.898734 7.88196 0.996489 7.99203 1.11641C8.10211 1.23635 8.19251 1.39825 8.26318 1.60198C8.33372 1.80567 8.36905 2.04066 8.36905 2.30681C8.36901 2.85889 8.06017 3.44389 7.44234 4.06161Z" fill="#FF802A"/>
</svg>
