<svg width="24" height="17" viewBox="0 0 24 17" fill="none" xmlns="http://www.w3.org/2000/svg">
<path d="M22.1733 9.48382C21.5011 8.64268 20.642 8.09749 19.5954 7.8479C19.9257 7.34889 20.0904 6.79346 20.0904 6.18175C20.0904 5.32848 19.7885 4.60009 19.185 3.99633C18.5814 3.39278 17.853 3.09087 16.9997 3.09087C16.235 3.09087 15.567 3.34042 14.9956 3.83952C14.5209 2.68037 13.762 1.75073 12.7197 1.05055C11.6775 0.350154 10.5284 0 9.27258 0C7.56626 0 6.10927 0.603847 4.90187 1.81125C3.69438 3.01835 3.09083 4.47542 3.09083 6.18188C3.09083 6.2865 3.09891 6.45959 3.11498 6.70098C2.16521 7.1437 1.40865 7.80773 0.845065 8.69305C0.281688 9.57863 0 10.5443 0 11.591C0 13.0801 0.529334 14.3537 1.58771 15.4121C2.64612 16.4709 3.91995 17 5.40904 17H18.5456C19.8252 17 20.9178 16.547 21.8235 15.6417C22.729 14.7363 23.1819 13.6437 23.1819 12.3636C23.1817 11.285 22.8456 10.3252 22.1733 9.48382ZM15.3395 9.15802C15.2628 9.23431 15.1725 9.2725 15.068 9.2725H12.3635V13.5226C12.3635 13.6271 12.3253 13.7177 12.2489 13.7941C12.1722 13.8708 12.0819 13.9088 11.9774 13.9088H9.65881C9.55418 13.9088 9.46364 13.8709 9.38719 13.7941C9.3109 13.7177 9.2725 13.6271 9.2725 13.5226V9.2725H6.56793C6.45536 9.2725 6.3627 9.23634 6.29039 9.16411C6.21795 9.09163 6.18179 8.99901 6.18179 8.88644C6.18179 8.78977 6.22197 8.69309 6.3024 8.59655L10.5403 4.35875C10.6128 4.28626 10.7054 4.25006 10.818 4.25006C10.9308 4.25006 11.0234 4.28626 11.0958 4.35875L15.3458 8.6086C15.4183 8.681 15.4541 8.77357 15.4541 8.88648C15.4541 8.99089 15.4159 9.08177 15.3395 9.15802Z" fill="#FF802A"/>
</svg>
