<svg width="23" height="31" viewBox="0 0 23 31" fill="none" xmlns="http://www.w3.org/2000/svg">
<path d="M11.0465 23.3398C10.6743 23.3398 10.4339 23.3728 10.2915 23.4054V28.2299C10.4342 28.2629 10.6639 28.2629 10.8715 28.2629C12.3808 28.2735 13.3656 27.4425 13.3656 25.681C13.3763 24.1492 12.4794 23.3398 11.0465 23.3398Z" fill="#20436B"/>
<path d="M4.60192 23.3184C4.26299 23.3184 4.03325 23.351 3.91258 23.3836V25.561C4.05503 25.5936 4.23018 25.6049 4.46994 25.6049C5.35676 25.6049 5.90348 25.1561 5.90348 24.4013C5.90354 23.7232 5.43286 23.3184 4.60192 23.3184Z" fill="#20436B"/>
<path d="M22.7391 7.42873C22.7373 7.28656 22.6923 7.14614 22.5946 7.03515L16.6173 0.207904C16.6161 0.205991 16.6138 0.205372 16.6126 0.203627C16.577 0.163836 16.5361 0.131024 16.4921 0.102095C16.479 0.0936527 16.4654 0.0860547 16.4517 0.0783441C16.4137 0.057745 16.3739 0.0406354 16.3318 0.0281408C16.3211 0.0248765 16.3104 0.0202614 16.2992 0.0173348C16.2541 0.00641611 16.2072 0 16.1603 0H1.47057C0.800372 0 0.25489 0.545538 0.25489 1.21574V29.7843C0.25489 30.4548 0.800372 31.0001 1.47057 31.0001H21.5294C22.1996 31.0001 22.7451 30.4548 22.7451 29.7843V7.49683C22.745 7.47398 22.7415 7.45158 22.7391 7.42873ZM6.87705 26.1075C6.30838 26.6435 5.46595 26.8846 4.48119 26.8846C4.26271 26.8846 4.06522 26.8733 3.91264 26.8519V29.4881H2.26077V22.213C2.77468 22.1257 3.49711 22.0598 4.51468 22.0598C5.54278 22.0598 6.27585 22.2569 6.76797 22.6504C7.23866 23.0226 7.55507 23.6352 7.55507 24.357C7.55507 25.0794 7.31498 25.692 6.87705 26.1075ZM13.9118 28.6131C13.1359 29.2584 11.9544 29.5646 10.5108 29.5646C9.64633 29.5646 9.03404 29.5101 8.61762 29.4555V22.213C9.23035 22.115 10.0293 22.0598 10.8715 22.0598C12.271 22.0598 13.1792 22.3115 13.8907 22.8475C14.6567 23.4164 15.1381 24.3244 15.1381 25.6261C15.1375 27.0377 14.6234 28.0112 13.9118 28.6131ZM20.7398 23.4821H17.906V25.1667H20.5534V26.5237H17.906V29.4881H16.2327V22.115H20.7398V23.4821ZM1.47057 20.6414V1.21574H15.5524V7.43571C15.5524 7.7712 15.8243 8.04355 16.1603 8.04355H21.5294L21.53 20.6414H1.47057Z" fill="#20436B"/>
<path d="M17.7363 13.065C17.7006 13.0617 16.8441 12.9835 15.5293 12.9835C15.1174 12.9835 14.7025 12.9916 14.2928 13.007C11.6964 11.0585 9.56973 9.10855 8.43121 8.01572C8.45198 7.89539 8.46627 7.80028 8.47291 7.72723C8.62307 6.14205 8.45614 5.07191 7.97842 4.54647C7.66561 4.20309 7.20618 4.08884 6.72711 4.21969C6.42961 4.29764 5.87889 4.58626 5.70256 5.17378C5.50788 5.82305 5.82081 6.61105 6.64292 7.52484C6.65597 7.53868 6.93496 7.83101 7.44189 8.32634C7.11242 9.89733 6.24996 13.2875 5.8315 14.9154C4.84866 15.4406 4.02976 16.0732 3.3958 16.7989L3.35427 16.8464L3.32742 16.9034C3.26213 17.0405 2.95005 17.7525 3.18435 18.3244C3.29134 18.5845 3.49182 18.7744 3.76416 18.8741L3.83716 18.8938C3.83716 18.8938 3.90301 18.908 4.01878 18.908C4.52588 18.908 5.77759 18.6415 6.44897 16.1674L6.61162 15.5405C8.95514 14.4014 11.8845 14.034 14.0079 13.9316C15.1001 14.7416 16.1869 15.4856 17.24 16.1445L17.2744 16.1644C17.3255 16.1905 17.7872 16.4185 18.3281 16.419C19.1009 16.419 19.6654 15.9447 19.8756 15.1182L19.8862 15.0617C19.945 14.5893 19.8263 14.1635 19.5431 13.8307C18.9466 13.1295 17.836 13.0684 17.7363 13.065ZM4.03769 17.9958C4.03297 17.9902 4.03071 17.9849 4.02835 17.9789C3.97792 17.8575 4.03843 17.5631 4.12746 17.3473C4.50973 16.9199 4.96859 16.5276 5.49809 16.1744C4.98244 17.8436 4.23254 17.9879 4.03769 17.9958ZM7.31171 6.90557C6.51983 6.02409 6.5317 5.58706 6.57431 5.43994C6.64421 5.19404 6.95973 5.10112 6.96243 5.10028C7.12137 5.05705 7.21783 5.06555 7.30372 5.15982C7.49795 5.37319 7.66477 6.01711 7.59886 7.19823C7.41189 7.01037 7.31171 6.90557 7.31171 6.90557ZM6.90254 14.412L6.91622 14.3598L6.91442 14.3604C7.31092 12.8074 7.88274 10.5335 8.21154 9.07281L8.22342 9.08412L8.2246 9.07714C9.28832 10.0788 10.9194 11.544 12.8723 13.0679L12.8503 13.0688L12.8826 13.0932C11.0429 13.2486 8.84556 13.6112 6.90254 14.412ZM18.9846 14.9215C18.8446 15.4362 18.5751 15.5066 18.3281 15.5066C18.0414 15.5066 17.7654 15.3873 17.7025 15.3585C16.9854 14.909 16.2518 14.4192 15.5115 13.8952C15.5174 13.8952 15.5228 13.8952 15.5293 13.8952C16.7984 13.8952 17.6437 13.9723 17.6769 13.9747C17.8888 13.9825 18.5596 14.0816 18.8487 14.4214C18.962 14.5546 19.0054 14.7139 18.9846 14.9215Z" fill="#20436B"/>
</svg>
