<svg width="23" height="29" viewBox="0 0 23 29" fill="none" xmlns="http://www.w3.org/2000/svg">
<path d="M0 0V28.4444H17.1785L23 22.6229V0L0 0ZM1.66667 1.66667H21.3333V21.0926H15.6481V26.7778H1.66667V1.66667ZM20.5067 22.7593L17.3148 25.9511V22.7593H20.5067Z" fill="#7F4014"/>
<path d="M4.68518 17.5371H6.43513V19.2038H4.68518V17.5371Z" fill="#7F4014"/>
<path d="M8.10181 17.5371H18.3148V19.2038H8.10181V17.5371Z" fill="#7F4014"/>
<path d="M4.68518 21.0928H6.43513V22.7594H4.68518V21.0928Z" fill="#7F4014"/>
<path d="M8.10181 21.0928H11.5V22.7594H8.10181V21.0928Z" fill="#7F4014"/>
<path d="M7.5544 13.018L8.51757 12.4619C9.07524 13.081 9.82235 13.5259 10.6666 13.7049V14.8149H12.3333V13.7049C13.1776 13.5259 13.9247 13.081 14.4823 12.4619L15.4455 13.018L16.2788 11.5747L15.3171 11.0194C15.4447 10.6282 15.5146 10.2111 15.5146 9.77783C15.5146 9.34456 15.4447 8.9275 15.3171 8.53622L16.2788 7.981L15.4455 6.53761L14.4823 7.09367C13.9246 6.47461 13.1776 6.02972 12.3333 5.85078V4.74072H10.6666V5.85067C9.82229 6.02967 9.07524 6.47456 8.51757 7.09361L7.5544 6.53756L6.72107 7.98094L7.68279 8.53617C7.55524 8.92739 7.48535 9.3445 7.48535 9.77772C7.48535 10.211 7.55524 10.6281 7.68279 11.0193L6.72107 11.5746L7.5544 13.018ZM9.15201 9.77778C9.15201 8.48311 10.2053 7.42983 11.5 7.42983C12.7946 7.42983 13.8479 8.48311 13.8479 9.77778C13.8479 11.0724 12.7946 12.1257 11.5 12.1257C10.2053 12.1257 9.15201 11.0724 9.15201 9.77778Z" fill="#7F4014"/>
</svg>
