<svg width="20" height="20" viewBox="0 0 20 20" fill="none" xmlns="http://www.w3.org/2000/svg">
<g clip-path="url(#clip0)">
<path d="M19.802 12.2912C19.7814 12.2415 19.7512 12.1963 19.7131 12.1583L14.8184 7.26364C14.6564 7.10713 14.3982 7.11164 14.2416 7.27366C14.089 7.43174 14.089 7.68232 14.2416 7.8404L18.4405 12.0392H10.4516C5.27278 12.0333 1.07601 7.83654 1.07016 2.65778C1.07016 2.43251 0.887525 2.24988 0.662256 2.24988C0.436988 2.24988 0.254395 2.43251 0.254395 2.65778C0.260704 8.28693 4.82244 12.8487 10.4516 12.855H18.4405L14.2425 17.0529C14.0805 17.2094 14.076 17.4677 14.2325 17.6297C14.389 17.7917 14.6473 17.7962 14.8093 17.6397C14.8127 17.6364 14.816 17.6331 14.8193 17.6297L19.7139 12.7351C19.8308 12.6185 19.8659 12.443 19.8028 12.2904L19.802 12.2912Z" fill="#2196F3"/>
<path d="M14.5305 17.7496C14.3052 17.75 14.1222 17.5677 14.1218 17.3424C14.1216 17.2338 14.1648 17.1296 14.2417 17.0529L18.8484 12.447L14.2417 7.84118C14.0852 7.67916 14.0897 7.42093 14.2517 7.26442C14.4098 7.11173 14.6604 7.11173 14.8184 7.26442L19.7131 12.1591C19.8723 12.3183 19.8723 12.5765 19.7131 12.7358L14.8184 17.6305C14.742 17.7067 14.6384 17.7496 14.5305 17.7496Z" fill="white"/>
<path d="M19.4251 12.855H10.4516C4.82244 12.8487 0.260704 8.28693 0.254395 2.65778C0.254395 2.43251 0.437026 2.24988 0.662294 2.24988C0.887563 2.24988 1.07019 2.43251 1.07019 2.65778C1.07604 7.83654 5.27282 12.0334 10.4516 12.0392H19.4251C19.6504 12.0392 19.833 12.2218 19.833 12.4471C19.833 12.6723 19.6503 12.855 19.4251 12.855Z" fill="white"/>
</g>
<defs>
<clipPath id="clip0">
<rect width="19.5793" height="19.5793" fill="white" transform="translate(0.254395 0.212402)"/>
</clipPath>
</defs>
</svg>
