<svg width="18" height="16" viewBox="0 0 18 16" fill="none" xmlns="http://www.w3.org/2000/svg">
<path d="M17.8901 14.9597L12.6613 10.3118C13.653 9.22342 14.25 7.8398 14.25 6.33336C14.25 2.84116 11.0537 0 7.12499 0C3.19627 0 0 2.84116 0 6.33336C0 9.82555 3.19631 12.6667 7.12503 12.6667C8.81977 12.6667 10.3764 12.136 11.6007 11.2545L16.8296 15.9024C16.9761 16.0325 17.2135 16.0325 17.36 15.9024L17.8902 15.4311C18.0366 15.3009 18.0366 15.0898 17.8901 14.9597ZM7.12503 11.3334C4.02322 11.3334 1.50001 9.09052 1.50001 6.33336C1.50001 3.5762 4.02322 1.33335 7.12503 1.33335C10.2268 1.33335 12.75 3.5762 12.75 6.33336C12.75 9.09052 10.2268 11.3334 7.12503 11.3334Z" fill="#FF802A"/>
</svg>
