<svg width="11" height="11" viewBox="0 0 11 11" fill="none" xmlns="http://www.w3.org/2000/svg">
<path d="M10.9329 10.2848L7.73744 7.08934C8.34352 6.3411 8.70834 5.38986 8.70834 4.35418C8.70834 1.9533 6.75504 0 4.35416 0C1.95328 0 0 1.9533 0 4.35418C0 6.75507 1.9533 8.70836 4.35418 8.70836C5.38986 8.70836 6.3411 8.34352 7.08934 7.73746L10.2848 10.9329C10.3743 11.0224 10.5194 11.0224 10.6089 10.9329L10.9329 10.6089C11.0224 10.5194 11.0224 10.3742 10.9329 10.2848ZM4.35418 7.79169C2.45863 7.79169 0.916676 6.24973 0.916676 4.35418C0.916676 2.45863 2.45863 0.916676 4.35418 0.916676C6.24973 0.916676 7.79169 2.45863 7.79169 4.35418C7.79169 6.24973 6.24973 7.79169 4.35418 7.79169Z" fill="#AEAEB1"/>
</svg>
