<svg width="40" height="40" viewBox="0 0 40 40" fill="none" xmlns="http://www.w3.org/2000/svg">
<path d="M21.9686 23.4887C20.9536 24.5037 13.8958 31.5707 9.68925 35.7812C8.16765 37.3043 7.01866 38.4542 6.66404 38.8085C6.39915 39.0734 5.75157 38.6779 5.66276 38.1967L5.00847 34.649C4.94468 34.3032 4.59037 33.9489 4.24553 33.8851L0.696942 33.2308C0.215679 33.142 -0.179828 32.4944 0.0850642 32.2296C1.41105 30.9036 13.8271 18.4713 15.3887 16.9094L16.9247 18.4448L21.9686 23.4887Z" fill="#6990D7"/>
<path d="M21.9688 23.4888C20.9537 24.5038 13.8959 31.5707 9.6894 35.7813L9.26215 33.4644C9.19837 33.1186 8.84376 32.7649 8.49799 32.7011L4.95063 32.0462C4.46936 31.9574 4.07355 31.3098 4.33844 31.0449C5.34461 30.0388 12.7354 22.6382 16.9248 18.4448L21.9688 23.4888Z" fill="#91AEE2"/>
<path d="M39.3029 33.2308L35.7543 33.8851C35.4095 33.9489 35.0552 34.3032 34.9914 34.649L34.3371 38.1967C34.2483 38.6779 33.6007 39.0734 33.3358 38.8085C32.0001 37.4737 19.4137 24.8712 18.0312 23.4887L19.7262 21.7935L24.6111 16.9094C25.8053 18.1039 33.3511 25.6594 37.4261 29.739C38.6785 30.9924 39.6032 31.918 39.9148 32.2296C40.1797 32.4944 39.7842 33.142 39.3029 33.2308Z" fill="#6990D7"/>
<path d="M37.426 29.739L35.3779 30.1171C35.0325 30.1809 34.6779 30.5346 34.6141 30.8801L33.9598 34.4283C33.871 34.909 33.2234 35.3048 32.9585 35.0399C31.8974 33.9788 23.7275 25.7989 19.7261 21.7935L24.611 16.9094C25.8052 18.1039 33.351 25.6594 37.426 29.739Z" fill="#91AEE2"/>
<path d="M29.1233 18.5586C28.6744 18.9962 28.4693 19.627 28.5752 20.2456L29.7373 27.0208C29.7816 27.2802 29.7736 27.5289 29.7227 27.7596C29.4676 28.9193 28.1376 29.6429 26.9712 29.0301L22.584 26.7236L20.8863 25.8312C20.3318 25.5389 19.6677 25.5389 19.1129 25.8312L15.4453 27.7596L13.0283 29.0301C11.6294 29.7656 9.9952 28.5778 10.2622 27.0208L11.4243 20.2456C11.5302 19.627 11.3252 18.9962 10.8759 18.5586L5.95315 13.76C4.82186 12.6571 5.44625 10.7357 7.00966 10.509L13.8133 9.51958C14.4343 9.42986 14.9705 9.03984 15.2482 8.4771L18.2902 2.31224C18.9896 0.89592 21.0099 0.89592 21.7094 2.31224L22.584 4.0847L24.7514 8.4771C25.0291 9.03984 25.5653 9.42986 26.1863 9.51958L32.9899 10.509C34.5533 10.7357 35.1777 12.6571 34.0464 13.76L29.1233 18.5586Z" fill="#F76937"/>
<path d="M29.1234 18.5587C28.6745 18.9963 28.4694 19.6271 28.5753 20.2457L29.7374 27.0209C29.7817 27.2803 29.7737 27.5291 29.7228 27.7598C29.4676 28.9194 28.1377 29.643 26.9713 29.0302L22.5841 26.7237L20.8864 25.8314C20.3319 25.539 19.6678 25.539 19.113 25.8314L15.4454 27.7598C15.3945 27.5291 15.3862 27.2803 15.4308 27.0209L16.5929 20.2457C16.6985 19.6271 16.4934 18.9963 16.0445 18.5587L11.1217 13.7601C9.9904 12.6572 10.6145 10.7358 12.1779 10.5091L18.9815 9.51971C19.6025 9.42999 20.1387 9.03998 20.4164 8.47723L22.5841 4.08484L24.7515 8.47723C25.0292 9.03998 25.5654 9.42999 26.1864 9.51971L32.99 10.5091C34.5534 10.7358 35.1778 12.6572 34.0465 13.7601L29.1234 18.5587Z" fill="#FF7C48"/>
</svg>
