<svg width="17" height="17" viewBox="0 0 17 17" fill="none" xmlns="http://www.w3.org/2000/svg">
<path d="M6.37496 7.44852C4.42207 7.44852 2.83325 5.85983 2.83325 3.90694C2.83325 1.95406 4.42207 0.365234 6.37496 0.365234C8.32785 0.365234 9.91667 1.95406 9.91667 3.90694C9.91667 5.85983 8.32785 7.44852 6.37496 7.44852ZM6.37496 1.42773C5.00793 1.42773 3.89575 2.53978 3.89575 3.90694C3.89575 5.27398 5.00793 6.38602 6.37496 6.38602C7.742 6.38602 8.85417 5.27398 8.85417 3.90694C8.85417 2.53978 7.742 1.42773 6.37496 1.42773Z" fill="white"/>
<path d="M15.7605 16.6569H11.8645C11.181 16.6569 10.625 16.1009 10.625 15.4172V12.9382C10.625 12.2545 11.181 11.6985 11.8645 11.6985H15.7605C16.444 11.6985 17 12.2545 17 12.9382V15.4172C17 16.1009 16.444 16.6569 15.7605 16.6569ZM11.8645 12.761C11.7669 12.761 11.6875 12.8404 11.6875 12.9382V15.4172C11.6875 15.515 11.7669 15.5944 11.8645 15.5944H15.7605C15.8581 15.5944 15.9375 15.515 15.9375 15.4172V12.9382C15.9375 12.8404 15.8581 12.761 15.7605 12.761H11.8645Z" fill="white"/>
<path d="M15.0521 12.761H12.573C12.2797 12.761 12.0417 12.523 12.0417 12.2298V10.636C12.0417 9.66003 12.8364 8.86523 13.8125 8.86523C14.7887 8.86523 15.5833 9.66003 15.5833 10.636V12.2298C15.5833 12.523 15.3453 12.761 15.0521 12.761ZM13.1042 11.6985H14.5208V10.636C14.5208 10.2458 14.2028 9.92773 13.8125 9.92773C13.4223 9.92773 13.1042 10.2458 13.1042 10.636V11.6985Z" fill="white"/>
<path d="M8.85421 15.2402H0.53125C0.237999 15.2402 0 15.0022 0 14.709V12.2298C0 10.3747 1.50945 8.86523 3.36454 8.86523H9.5625C10.1547 8.86523 10.7376 9.02178 11.2477 9.31853C11.5013 9.46587 11.5869 9.79103 11.4396 10.0446C11.2923 10.2989 10.9671 10.3839 10.7128 10.2365C10.3651 10.0347 9.9669 9.92773 9.5625 9.92773H3.36454C2.0953 9.92773 1.0625 10.9605 1.0625 12.2298V14.1777H8.85421C9.14746 14.1777 9.38546 14.4157 9.38546 14.709C9.38546 15.0022 9.14746 15.2402 8.85421 15.2402Z" fill="white"/>
</svg>
