<svg width="269" height="141" viewBox="0 0 269 141" fill="none" xmlns="http://www.w3.org/2000/svg">
<path d="M21.9667 56.8643C34.6723 65.8297 51.8677 43.1618 56.4178 34.3998C36.2567 41.8176 15.3346 32.4652 7.39362 26.8619C8.59701 30.6653 9.26123 47.8989 21.9667 56.8643Z" fill="#C5FF71"/>
<rect x="26.7089" y="26.2092" width="239.845" height="91.3264" rx="45.6632" fill="#6932FF" stroke="#C5FF71" stroke-width="3"/>
<path d="M59.0116 55.9309H54.8836C54.5476 55.9309 54.3156 55.8749 54.1876 55.7629C54.0756 55.6509 54.0836 55.4509 54.2116 55.1629L54.4516 54.6349C54.5796 54.3309 54.7156 54.1229 54.8596 54.0109C55.0196 53.8989 55.2596 53.8429 55.5796 53.8429H59.7076C60.0436 53.8429 60.2676 53.8989 60.3796 54.0109C60.5076 54.1229 60.5076 54.3229 60.3796 54.6109L60.1396 55.1389C60.0116 55.4429 59.8676 55.6509 59.7076 55.7629C59.5636 55.8749 59.3316 55.9309 59.0116 55.9309ZM73.8322 61.8589H68.8162C68.2722 61.8589 67.8962 61.7949 67.6882 61.6669C67.4962 61.5389 67.4242 61.3149 67.4722 60.9949C67.5202 60.6429 67.6802 60.3629 67.9522 60.1549C68.2242 59.9469 68.5122 59.7069 68.8162 59.4349C69.1362 59.1469 69.3602 58.7549 69.4882 58.2589C69.6162 57.8109 69.6962 57.4749 69.7282 57.2509L70.7602 49.6669C70.8082 49.3149 70.8322 48.9789 70.8322 48.6589C70.8482 48.2269 70.7842 47.8749 70.6402 47.6029C70.4962 47.3309 70.3362 47.1549 70.1602 47.0749C70.0002 46.9949 69.8562 46.8589 69.7282 46.6669C69.6162 46.4749 69.5842 46.2269 69.6322 45.9229C69.6802 45.6029 69.8162 45.3789 70.0402 45.2509C70.2642 45.1229 70.6562 45.0589 71.2162 45.0589H76.2322C76.7762 45.0589 77.1442 45.1229 77.3362 45.2509C77.5442 45.3789 77.6242 45.6029 77.5762 45.9229C77.5282 46.2749 77.3682 46.5549 77.0962 46.7629C76.8242 46.9709 76.5282 47.2189 76.2082 47.5069C75.9042 47.7789 75.6882 48.1629 75.5602 48.6589C75.4642 49.0109 75.3922 49.3469 75.3442 49.6669L75.1762 50.7949C75.0962 51.3229 75.1282 51.6349 75.2722 51.7309C75.4642 51.8909 76.2802 51.9709 77.7202 51.9709H78.2002C79.8962 51.9709 80.8802 51.9069 81.1522 51.7789C81.3602 51.6669 81.4962 51.3869 81.5602 50.9389C81.5602 50.9069 81.5682 50.8589 81.5842 50.7949L81.7522 49.6669C81.8002 49.2989 81.8242 48.9629 81.8242 48.6589C81.8242 48.2269 81.7522 47.8749 81.6082 47.6029C81.4802 47.3309 81.3282 47.1549 81.1522 47.0749C80.9922 46.9949 80.8482 46.8589 80.7202 46.6669C80.6082 46.4749 80.5682 46.2269 80.6002 45.9229C80.6482 45.6029 80.7842 45.3789 81.0082 45.2509C81.2322 45.1229 81.6322 45.0589 82.2082 45.0589H87.2002C87.7602 45.0589 88.1362 45.1229 88.3282 45.2509C88.5362 45.3789 88.6082 45.6029 88.5442 45.9229C88.4962 46.2749 88.3362 46.5549 88.0642 46.7629C87.8082 46.9709 87.5202 47.2189 87.2002 47.5069C86.8962 47.7789 86.6722 48.1629 86.5282 48.6589C86.4322 49.0109 86.3602 49.3469 86.3122 49.6669L85.2562 57.2509C85.2082 57.5869 85.1842 57.9229 85.1842 58.2589C85.1842 58.6909 85.2482 59.0429 85.3762 59.3149C85.5202 59.5709 85.6722 59.7469 85.8322 59.8429C86.0082 59.9229 86.1522 60.0589 86.2642 60.2509C86.3922 60.4429 86.4402 60.6909 86.4082 60.9949C86.3602 61.3149 86.2162 61.5389 85.9762 61.6669C85.7522 61.7949 85.3602 61.8589 84.8002 61.8589H79.8082C79.2642 61.8589 78.8882 61.7949 78.6802 61.6669C78.4722 61.5389 78.4002 61.3149 78.4642 60.9949C78.5122 60.6429 78.6642 60.3629 78.9202 60.1549C79.1922 59.9469 79.4802 59.7069 79.7842 59.4349C80.1042 59.1469 80.3362 58.7549 80.4802 58.2589C80.5762 57.9229 80.6482 57.5869 80.6962 57.2509L81.0082 55.1149C81.0722 54.6029 81.0322 54.2909 80.8882 54.1789C80.6962 54.0189 79.8722 53.9389 78.4162 53.9389C78.3042 53.9389 78.1282 53.9389 77.8882 53.9389C76.2242 53.9389 75.2642 54.0029 75.0082 54.1309C74.7842 54.2269 74.6482 54.5069 74.6002 54.9709L74.5762 55.1149L74.2882 57.2509C74.2402 57.5869 74.2162 57.9229 74.2162 58.2589C74.2002 58.6909 74.2642 59.0429 74.4082 59.3149C74.5522 59.5709 74.7042 59.7469 74.8642 59.8429C75.0402 59.9229 75.1842 60.0589 75.2962 60.2509C75.4242 60.4429 75.4722 60.6909 75.4402 60.9949C75.3762 61.3149 75.2322 61.5389 75.0082 61.6669C74.7842 61.7949 74.3922 61.8589 73.8322 61.8589ZM103.452 59.1229C103.468 59.7789 103.116 60.4429 102.396 61.1149C101.692 61.7709 100.756 62.0989 99.5875 62.0989C98.9955 62.0989 98.4755 61.9469 98.0275 61.6429C97.5955 61.3229 97.3155 60.8429 97.1875 60.2029C96.1315 61.4669 94.8755 62.0989 93.4195 62.0989C92.2195 62.0989 91.2435 61.6909 90.4915 60.8749C89.7395 60.0589 89.3635 59.0109 89.3635 57.7309C89.3635 55.6189 90.1075 53.8189 91.5955 52.3309C93.0835 50.8429 94.7155 50.0989 96.4915 50.0989C97.0675 50.0989 97.6195 50.1869 98.1475 50.3629C98.6915 50.5229 99.0115 50.6029 99.1075 50.6029C99.2835 50.6029 99.6595 50.5069 100.236 50.3149C100.828 50.1229 101.244 50.0269 101.484 50.0269C101.804 50.0269 102.044 50.1309 102.204 50.3389C102.364 50.5469 102.428 50.7789 102.396 51.0349L101.388 57.9469C101.276 58.7629 101.428 59.1709 101.844 59.1709C102.004 59.1709 102.196 59.0589 102.42 58.8349C102.66 58.6109 102.844 58.4989 102.972 58.4989C103.292 58.4989 103.452 58.7069 103.452 59.1229ZM94.9315 59.4349C95.5875 59.4349 96.1315 59.0189 96.5635 58.1869C96.9955 57.3549 97.3075 56.3149 97.4995 55.0669C97.8195 52.9389 97.4275 51.8749 96.3235 51.8749C95.5235 51.8749 94.8915 52.3949 94.4275 53.4349C93.9795 54.4589 93.7395 55.6989 93.7075 57.1549C93.6915 57.8109 93.7875 58.3549 93.9955 58.7869C94.2035 59.2189 94.5155 59.4349 94.9315 59.4349ZM125.726 58.4749C126.046 58.4749 126.206 58.6749 126.206 59.0749C126.206 59.7629 125.846 60.4429 125.126 61.1149C124.422 61.7709 123.47 62.0989 122.27 62.0989C121.47 62.0989 120.854 61.8189 120.422 61.2589C120.006 60.6989 119.894 59.8429 120.086 58.6909L120.542 56.1469C120.798 54.8669 120.918 53.9949 120.902 53.5309C120.902 53.0509 120.71 52.8109 120.326 52.8109C120.182 52.8109 120.022 52.8509 119.846 52.9309C119.686 53.0109 119.478 53.1949 119.222 53.4829C118.982 53.7549 118.742 54.1229 118.502 54.5869C118.262 55.0349 118.006 55.6829 117.734 56.5309C117.478 57.3789 117.238 58.3549 117.014 59.4589L116.798 60.6349C116.686 61.0829 116.414 61.3549 115.982 61.4509L113.198 62.0989C112.958 62.1469 112.774 62.0909 112.646 61.9309C112.518 61.7709 112.478 61.5549 112.526 61.2829L113.534 56.1469C113.694 55.2989 113.782 54.6349 113.798 54.1549C113.83 53.6589 113.798 53.3149 113.702 53.1229C113.606 52.9149 113.438 52.8109 113.198 52.8109C113.054 52.8109 112.902 52.8509 112.742 52.9309C112.582 53.0109 112.382 53.1949 112.142 53.4829C111.902 53.7549 111.67 54.1229 111.446 54.5869C111.238 55.0349 111.006 55.6829 110.75 56.5309C110.494 57.3629 110.254 58.3389 110.03 59.4589L109.79 60.6349C109.694 61.0829 109.422 61.3549 108.974 61.4509L106.214 62.0989C105.974 62.1469 105.782 62.0909 105.638 61.9309C105.51 61.7709 105.47 61.5549 105.518 61.2829L106.67 54.3229C106.734 53.9709 106.718 53.6909 106.622 53.4829C106.542 53.2589 106.422 53.1229 106.262 53.0749C106.118 53.0109 105.982 52.9149 105.854 52.7869C105.726 52.6589 105.662 52.4989 105.662 52.3069C105.662 52.0669 105.806 51.8269 106.094 51.5869C106.382 51.3469 106.99 51.0349 107.918 50.6509C108.942 50.2669 109.662 50.0749 110.078 50.0749C110.686 50.0749 110.958 50.3789 110.894 50.9869L110.702 52.4989C111.294 51.6669 111.958 51.0589 112.694 50.6749C113.446 50.2749 114.166 50.0749 114.854 50.0749C115.622 50.0749 116.27 50.2829 116.798 50.6989C117.326 51.0989 117.694 51.6509 117.902 52.3549C118.414 51.6189 119.046 51.0589 119.798 50.6749C120.55 50.2749 121.326 50.0749 122.126 50.0749C123.198 50.0749 124.014 50.5549 124.574 51.5149C125.15 52.4589 125.294 53.6349 125.006 55.0429L124.382 57.9469C124.286 58.4269 124.254 58.7549 124.286 58.9309C124.318 59.1069 124.422 59.1949 124.598 59.1949C124.758 59.1949 124.95 59.0749 125.174 58.8349C125.414 58.5949 125.598 58.4749 125.726 58.4749ZM142.451 59.1229C142.467 59.7789 142.115 60.4429 141.395 61.1149C140.691 61.7709 139.755 62.0989 138.587 62.0989C137.995 62.0989 137.475 61.9469 137.027 61.6429C136.595 61.3229 136.315 60.8429 136.187 60.2029C135.131 61.4669 133.875 62.0989 132.419 62.0989C131.219 62.0989 130.243 61.6909 129.491 60.8749C128.739 60.0589 128.363 59.0109 128.363 57.7309C128.363 55.6189 129.107 53.8189 130.595 52.3309C132.083 50.8429 133.715 50.0989 135.491 50.0989C136.067 50.0989 136.619 50.1869 137.147 50.3629C137.691 50.5229 138.011 50.6029 138.107 50.6029C138.283 50.6029 138.659 50.5069 139.235 50.3149C139.827 50.1229 140.243 50.0269 140.483 50.0269C140.803 50.0269 141.043 50.1309 141.203 50.3389C141.363 50.5469 141.427 50.7789 141.395 51.0349L140.387 57.9469C140.275 58.7629 140.427 59.1709 140.843 59.1709C141.003 59.1709 141.195 59.0589 141.419 58.8349C141.659 58.6109 141.843 58.4989 141.971 58.4989C142.291 58.4989 142.451 58.7069 142.451 59.1229ZM133.931 59.4349C134.587 59.4349 135.131 59.0189 135.563 58.1869C135.995 57.3549 136.307 56.3149 136.499 55.0669C136.819 52.9389 136.427 51.8749 135.323 51.8749C134.523 51.8749 133.891 52.3949 133.427 53.4349C132.979 54.4589 132.739 55.6989 132.707 57.1549C132.691 57.8109 132.787 58.3549 132.995 58.7869C133.203 59.2189 133.515 59.4349 133.931 59.4349ZM165.037 58.4989C165.373 58.4989 165.541 58.7069 165.541 59.1229C165.541 59.7789 165.173 60.4429 164.437 61.1149C163.717 61.7709 162.757 62.0989 161.557 62.0989C160.965 62.0989 160.445 61.9549 159.997 61.6669C159.549 61.3629 159.269 60.9229 159.157 60.3469C158.197 61.5149 157.037 62.0989 155.677 62.0989C154.893 62.0989 154.221 61.9069 153.661 61.5229C153.101 61.1389 152.701 60.6029 152.461 59.9149C151.581 61.3709 150.333 62.0989 148.717 62.0989C147.277 62.0989 146.261 61.6669 145.669 60.8029C145.077 59.9229 144.909 58.7469 145.165 57.2749L145.669 54.2749C145.797 53.6349 145.653 53.2189 145.237 53.0269C144.853 52.8029 144.661 52.5629 144.661 52.3069C144.661 52.1469 144.701 52.0029 144.781 51.8749C144.861 51.7309 145.077 51.5469 145.429 51.3229C145.781 51.0989 146.277 50.8749 146.917 50.6509C148.021 50.2669 148.925 50.0749 149.629 50.0749C150.221 50.0749 150.461 50.3789 150.349 50.9869L149.293 57.1309C149.005 58.6989 149.197 59.4829 149.869 59.4829C150.461 59.4829 151.021 58.9389 151.549 57.8509C152.093 56.7629 152.541 55.1629 152.893 53.0509L153.133 51.5869C153.197 51.1229 153.453 50.8429 153.901 50.7469L156.709 50.0989C156.933 50.0509 157.109 50.1069 157.237 50.2669C157.381 50.4269 157.429 50.6429 157.381 50.9149L156.517 57.0829C156.373 58.0269 156.341 58.6989 156.421 59.0989C156.517 59.4829 156.765 59.6749 157.165 59.6749C157.277 59.6749 157.397 59.6429 157.525 59.5789C157.669 59.4989 157.853 59.3229 158.077 59.0509C158.301 58.7789 158.517 58.4189 158.725 57.9709C158.949 57.5229 159.181 56.8749 159.421 56.0269C159.661 55.1629 159.869 54.1709 160.045 53.0509L160.309 51.5869C160.373 51.1229 160.629 50.8429 161.077 50.7469L163.861 50.0989C164.101 50.0509 164.285 50.1069 164.413 50.2669C164.541 50.4269 164.589 50.6429 164.557 50.9149L163.549 57.8989C163.421 58.7469 163.549 59.1709 163.933 59.1709C164.093 59.1709 164.285 59.0589 164.509 58.8349C164.733 58.6109 164.909 58.4989 165.037 58.4989ZM168.054 65.6749C167.894 65.6749 167.758 65.6269 167.646 65.5309C167.55 65.4509 167.502 65.3469 167.502 65.2189C167.502 65.0589 167.598 64.8749 167.79 64.6669C167.998 64.4749 168.206 64.2429 168.414 63.9709C168.622 63.7149 168.726 63.4269 168.726 63.1069C168.726 62.7869 168.518 62.3549 168.102 61.8109C167.702 61.2669 167.502 60.6989 167.502 60.1069C167.502 59.3389 167.766 58.7309 168.294 58.2829C168.822 57.8189 169.422 57.5869 170.094 57.5869C170.766 57.5869 171.31 57.8189 171.726 58.2829C172.158 58.7309 172.374 59.3709 172.374 60.2029C172.374 61.5469 171.87 62.7949 170.862 63.9469C169.87 65.0989 168.934 65.6749 168.054 65.6749ZM190.802 62.0989C189.97 62.0989 189.314 61.8109 188.834 61.2349C188.354 60.6589 188.21 59.7949 188.402 58.6429L188.786 56.4109C187.842 57.5789 186.69 58.1629 185.33 58.1629C184.178 58.1629 183.266 57.9069 182.594 57.3949C181.938 56.8669 181.61 56.1709 181.61 55.3069C181.61 54.9709 181.626 54.6269 181.658 54.2749C181.754 53.6189 181.61 53.2029 181.226 53.0269C180.842 52.8029 180.65 52.5629 180.65 52.3069C180.65 52.1469 180.69 52.0029 180.77 51.8749C180.85 51.7309 181.066 51.5549 181.418 51.3469C181.77 51.1229 182.266 50.8989 182.906 50.6749C183.994 50.2749 184.898 50.0749 185.618 50.0749C186.178 50.0749 186.426 50.3789 186.362 50.9869L186.002 53.9149C185.986 54.2349 185.97 54.5709 185.954 54.9229C185.938 55.2749 186.01 55.5789 186.17 55.8349C186.33 56.0909 186.578 56.2189 186.914 56.2189C187.474 56.2189 187.962 55.9149 188.378 55.3069C188.794 54.6989 189.05 54.0349 189.146 53.3149L189.362 51.5869C189.41 51.1549 189.666 50.8829 190.13 50.7709L193.058 50.1229C193.298 50.0749 193.482 50.1309 193.61 50.2909C193.738 50.4509 193.786 50.6589 193.754 50.9149L192.794 57.9469C192.698 58.7629 192.826 59.1709 193.178 59.1709C193.338 59.1709 193.53 59.0589 193.754 58.8349C193.994 58.6109 194.178 58.4989 194.306 58.4989C194.626 58.4989 194.786 58.7069 194.786 59.1229C194.786 59.7789 194.418 60.4429 193.682 61.1149C192.962 61.7709 192.002 62.0989 190.802 62.0989ZM216.755 58.4749C217.075 58.4749 217.235 58.6749 217.235 59.0749C217.235 59.7629 216.875 60.4429 216.155 61.1149C215.451 61.7709 214.499 62.0989 213.299 62.0989C212.499 62.0989 211.883 61.8189 211.451 61.2589C211.035 60.6989 210.923 59.8429 211.115 58.6909L211.571 56.1469C211.827 54.8669 211.947 53.9949 211.931 53.5309C211.931 53.0509 211.739 52.8109 211.355 52.8109C211.211 52.8109 211.051 52.8509 210.875 52.9309C210.715 53.0109 210.507 53.1949 210.251 53.4829C210.011 53.7549 209.771 54.1229 209.531 54.5869C209.291 55.0349 209.035 55.6829 208.763 56.5309C208.507 57.3789 208.267 58.3549 208.043 59.4589L207.827 60.6349C207.715 61.0829 207.443 61.3549 207.011 61.4509L204.227 62.0989C203.987 62.1469 203.803 62.0909 203.675 61.9309C203.547 61.7709 203.507 61.5549 203.555 61.2829L204.563 56.1469C204.723 55.2989 204.811 54.6349 204.827 54.1549C204.859 53.6589 204.827 53.3149 204.731 53.1229C204.635 52.9149 204.467 52.8109 204.227 52.8109C204.083 52.8109 203.931 52.8509 203.771 52.9309C203.611 53.0109 203.411 53.1949 203.171 53.4829C202.931 53.7549 202.699 54.1229 202.475 54.5869C202.267 55.0349 202.035 55.6829 201.779 56.5309C201.523 57.3629 201.283 58.3389 201.059 59.4589L200.819 60.6349C200.723 61.0829 200.451 61.3549 200.003 61.4509L197.243 62.0989C197.003 62.1469 196.811 62.0909 196.667 61.9309C196.539 61.7709 196.499 61.5549 196.547 61.2829L197.699 54.3229C197.763 53.9709 197.747 53.6909 197.651 53.4829C197.571 53.2589 197.451 53.1229 197.291 53.0749C197.147 53.0109 197.011 52.9149 196.883 52.7869C196.755 52.6589 196.691 52.4989 196.691 52.3069C196.691 52.0669 196.835 51.8269 197.123 51.5869C197.411 51.3469 198.019 51.0349 198.947 50.6509C199.971 50.2669 200.691 50.0749 201.107 50.0749C201.715 50.0749 201.987 50.3789 201.923 50.9869L201.731 52.4989C202.323 51.6669 202.987 51.0589 203.723 50.6749C204.475 50.2749 205.195 50.0749 205.883 50.0749C206.651 50.0749 207.299 50.2829 207.827 50.6989C208.355 51.0989 208.723 51.6509 208.931 52.3549C209.443 51.6189 210.075 51.0589 210.827 50.6749C211.579 50.2749 212.355 50.0749 213.155 50.0749C214.227 50.0749 215.043 50.5549 215.603 51.5149C216.179 52.4589 216.323 53.6349 216.035 55.0429L215.411 57.9469C215.315 58.4269 215.283 58.7549 215.315 58.9309C215.347 59.1069 215.451 59.1949 215.627 59.1949C215.787 59.1949 215.979 59.0749 216.203 58.8349C216.443 58.5949 216.627 58.4749 216.755 58.4749ZM225.103 62.1229C223.327 62.1229 221.943 61.6669 220.951 60.7549C219.959 59.8269 219.463 58.5549 219.463 56.9389C219.463 55.0349 220.191 53.4189 221.647 52.0909C223.103 50.7469 224.831 50.0749 226.831 50.0749C228.543 50.0749 229.895 50.5469 230.887 51.4909C231.879 52.4349 232.375 53.6589 232.375 55.1629C232.375 57.2109 231.679 58.8829 230.287 60.1789C228.895 61.4749 227.167 62.1229 225.103 62.1229ZM225.247 60.2269C225.983 60.2269 226.583 59.6269 227.047 58.4269C227.511 57.2109 227.743 55.9549 227.743 54.6589C227.743 52.8509 227.295 51.9469 226.399 51.9469C225.631 51.9469 225.015 52.5229 224.551 53.6749C224.103 54.8109 223.863 56.0669 223.831 57.4429C223.879 59.2989 224.351 60.2269 225.247 60.2269ZM81.4905 93.0989C79.8265 93.0989 78.5385 92.6349 77.6265 91.7069C76.7145 90.7629 76.2585 89.5549 76.2585 88.0829C76.2585 86.1629 76.9545 84.5229 78.3465 83.1629C79.7385 81.7869 81.3625 81.0989 83.2185 81.0989C84.4985 81.0989 85.5785 81.4349 86.4585 82.1069C87.3385 82.7629 87.7865 83.6029 87.8025 84.6269C87.8185 85.4109 87.6025 86.0589 87.1545 86.5709C86.7065 87.0829 86.1465 87.3069 85.4745 87.2429C84.5145 87.1149 84.0345 86.5229 84.0345 85.4669C84.0185 83.8509 83.5785 83.0429 82.7145 83.0429C82.1385 83.0429 81.6425 83.4109 81.2265 84.1469C80.8265 84.8829 80.6265 85.7469 80.6265 86.7389C80.6265 87.7949 80.8985 88.6189 81.4425 89.2109C82.0025 89.7869 82.8185 90.0749 83.8905 90.0749C84.7865 90.0749 85.6745 89.7629 86.5545 89.1389C86.8745 88.8989 87.1225 88.8749 87.2985 89.0669C87.4745 89.2429 87.4665 89.5309 87.2745 89.9309C86.9065 90.7629 86.2105 91.4989 85.1865 92.1389C84.1625 92.7789 82.9305 93.0989 81.4905 93.0989ZM100.286 93.0989C98.6224 93.0989 97.3344 92.6349 96.4224 91.7069C95.5104 90.7629 95.0544 89.5549 95.0544 88.0829C95.0544 86.1629 95.7504 84.5229 97.1424 83.1629C98.5344 81.7869 100.158 81.0989 102.014 81.0989C103.294 81.0989 104.374 81.4349 105.254 82.1069C106.134 82.7629 106.582 83.6029 106.598 84.6269C106.614 85.4109 106.398 86.0589 105.95 86.5709C105.502 87.0829 104.942 87.3069 104.27 87.2429C103.31 87.1149 102.83 86.5229 102.83 85.4669C102.814 83.8509 102.374 83.0429 101.51 83.0429C100.934 83.0429 100.438 83.4109 100.022 84.1469C99.6224 84.8829 99.4224 85.7469 99.4224 86.7389C99.4224 87.7949 99.6944 88.6189 100.238 89.2109C100.798 89.7869 101.614 90.0749 102.686 90.0749C103.582 90.0749 104.47 89.7629 105.35 89.1389C105.67 88.8989 105.918 88.8749 106.094 89.0669C106.27 89.2429 106.262 89.5309 106.07 89.9309C105.702 90.7629 105.006 91.4989 103.982 92.1389C102.958 92.7789 101.726 93.0989 100.286 93.0989ZM122.582 90.1229C122.598 90.7789 122.246 91.4429 121.526 92.1149C120.822 92.7709 119.886 93.0989 118.718 93.0989C118.126 93.0989 117.606 92.9469 117.158 92.6429C116.726 92.3229 116.446 91.8429 116.318 91.2029C115.262 92.4669 114.006 93.0989 112.55 93.0989C111.35 93.0989 110.374 92.6909 109.622 91.8749C108.87 91.0589 108.494 90.0109 108.494 88.7309C108.494 86.6189 109.238 84.8189 110.726 83.3309C112.214 81.8429 113.846 81.0989 115.622 81.0989C116.198 81.0989 116.75 81.1869 117.278 81.3629C117.822 81.5229 118.142 81.6029 118.238 81.6029C118.414 81.6029 118.79 81.5069 119.366 81.3149C119.958 81.1229 120.374 81.0269 120.614 81.0269C120.934 81.0269 121.174 81.1309 121.334 81.3389C121.494 81.5469 121.558 81.7789 121.526 82.0349L120.518 88.9469C120.406 89.7629 120.558 90.1709 120.974 90.1709C121.134 90.1709 121.326 90.0589 121.55 89.8349C121.79 89.6109 121.974 89.4989 122.102 89.4989C122.422 89.4989 122.582 89.7069 122.582 90.1229ZM114.062 90.4349C114.718 90.4349 115.262 90.0189 115.694 89.1869C116.126 88.3549 116.438 87.3149 116.63 86.0669C116.95 83.9389 116.558 82.8749 115.454 82.8749C114.654 82.8749 114.022 83.3949 113.558 84.4349C113.11 85.4589 112.87 86.6989 112.838 88.1549C112.822 88.8109 112.918 89.3549 113.126 89.7869C113.334 90.2189 113.646 90.4349 114.062 90.4349ZM132.712 80.1869C131.384 80.1869 130.32 79.9469 129.52 79.4669C128.72 78.9869 128.384 78.3069 128.512 77.4269C128.56 77.0749 128.72 76.7949 128.992 76.5869C129.28 76.3789 129.584 76.2749 129.904 76.2749C130.224 76.2749 130.512 76.4029 130.768 76.6589C131.024 76.9149 131.224 77.2029 131.368 77.5229C131.512 77.8269 131.712 78.1069 131.968 78.3629C132.24 78.6189 132.544 78.7469 132.88 78.7469C133.216 78.7469 133.552 78.6189 133.888 78.3629C134.224 78.1069 134.504 77.8269 134.728 77.5229C134.968 77.2029 135.248 76.9149 135.568 76.6589C135.904 76.4029 136.24 76.2749 136.576 76.2749C136.896 76.2749 137.168 76.3869 137.392 76.6109C137.616 76.8189 137.704 77.0909 137.656 77.4269C137.528 78.3069 136.968 78.9869 135.976 79.4669C134.984 79.9469 133.896 80.1869 132.712 80.1869ZM139.048 90.1229C139.064 90.7789 138.704 91.4429 137.968 92.1149C137.248 92.7709 136.288 93.0989 135.088 93.0989C134.48 93.0989 133.952 92.9469 133.504 92.6429C133.056 92.3389 132.784 91.8989 132.688 91.3229C131.616 92.5069 130.376 93.0989 128.968 93.0989C126.024 93.0989 124.808 91.4909 125.32 88.2749L125.824 85.3469C125.872 84.9949 125.848 84.7149 125.752 84.5069C125.656 84.2989 125.536 84.1629 125.392 84.0989C125.264 84.0349 125.136 83.9389 125.008 83.8109C124.88 83.6829 124.816 83.5229 124.816 83.3309C124.816 82.7869 125.464 82.2829 126.76 81.8189C128.088 81.3549 129.104 81.1229 129.808 81.1229C130.368 81.1229 130.608 81.4109 130.528 81.9869L129.64 87.1469C129.384 88.5869 129.304 89.5389 129.4 90.0029C129.496 90.4669 129.808 90.6989 130.336 90.6989C131.824 90.6989 132.92 88.5069 133.624 84.1229L133.864 82.5869C133.928 82.1229 134.184 81.8429 134.632 81.7469L137.44 81.0989C137.664 81.0509 137.84 81.1069 137.968 81.2669C138.112 81.4269 138.16 81.6429 138.112 81.9149L137.08 88.8989C136.952 89.7469 137.08 90.1709 137.464 90.1709C137.624 90.1709 137.816 90.0589 138.04 89.8349C138.264 89.6109 138.44 89.4989 138.568 89.4989C138.888 89.4989 139.048 89.7069 139.048 90.1229ZM161.204 89.4749C161.524 89.4749 161.684 89.6749 161.684 90.0749C161.684 90.7629 161.324 91.4429 160.604 92.1149C159.9 92.7709 158.948 93.0989 157.748 93.0989C156.948 93.0989 156.332 92.8189 155.9 92.2589C155.484 91.6989 155.372 90.8429 155.564 89.6909L156.02 87.1469C156.276 85.8669 156.396 84.9949 156.38 84.5309C156.38 84.0509 156.188 83.8109 155.804 83.8109C155.66 83.8109 155.5 83.8509 155.324 83.9309C155.164 84.0109 154.956 84.1949 154.7 84.4829C154.46 84.7549 154.22 85.1229 153.98 85.5869C153.74 86.0349 153.484 86.6829 153.212 87.5309C152.956 88.3789 152.716 89.3549 152.492 90.4589L152.276 91.6349C152.164 92.0829 151.892 92.3549 151.46 92.4509L148.676 93.0989C148.436 93.1469 148.252 93.0909 148.124 92.9309C147.996 92.7709 147.956 92.5549 148.004 92.2829L149.012 87.1469C149.172 86.2989 149.26 85.6349 149.276 85.1549C149.308 84.6589 149.276 84.3149 149.18 84.1229C149.084 83.9149 148.916 83.8109 148.676 83.8109C148.532 83.8109 148.38 83.8509 148.22 83.9309C148.06 84.0109 147.86 84.1949 147.62 84.4829C147.38 84.7549 147.148 85.1229 146.924 85.5869C146.716 86.0349 146.484 86.6829 146.228 87.5309C145.972 88.3629 145.732 89.3389 145.508 90.4589L145.268 91.6349C145.172 92.0829 144.9 92.3549 144.452 92.4509L141.692 93.0989C141.452 93.1469 141.26 93.0909 141.116 92.9309C140.988 92.7709 140.948 92.5549 140.996 92.2829L142.148 85.3229C142.212 84.9709 142.196 84.6909 142.1 84.4829C142.02 84.2589 141.9 84.1229 141.74 84.0749C141.596 84.0109 141.46 83.9149 141.332 83.7869C141.204 83.6589 141.14 83.4989 141.14 83.3069C141.14 83.0669 141.284 82.8269 141.572 82.5869C141.86 82.3469 142.468 82.0349 143.396 81.6509C144.42 81.2669 145.14 81.0749 145.556 81.0749C146.164 81.0749 146.436 81.3789 146.372 81.9869L146.18 83.4989C146.772 82.6669 147.436 82.0589 148.172 81.6749C148.924 81.2749 149.644 81.0749 150.332 81.0749C151.1 81.0749 151.748 81.2829 152.276 81.6989C152.804 82.0989 153.172 82.6509 153.38 83.3549C153.892 82.6189 154.524 82.0589 155.276 81.6749C156.028 81.2749 156.804 81.0749 157.604 81.0749C158.676 81.0749 159.492 81.5549 160.052 82.5149C160.628 83.4589 160.772 84.6349 160.484 86.0429L159.86 88.9469C159.764 89.4269 159.732 89.7549 159.764 89.9309C159.796 90.1069 159.9 90.1949 160.076 90.1949C160.236 90.1949 160.428 90.0749 160.652 89.8349C160.892 89.5949 161.076 89.4749 161.204 89.4749ZM169.552 93.1229C167.776 93.1229 166.392 92.6669 165.4 91.7549C164.408 90.8269 163.912 89.5549 163.912 87.9389C163.912 86.0349 164.64 84.4189 166.096 83.0909C167.552 81.7469 169.28 81.0749 171.28 81.0749C172.992 81.0749 174.344 81.5469 175.336 82.4909C176.328 83.4349 176.824 84.6589 176.824 86.1629C176.824 88.2109 176.128 89.8829 174.736 91.1789C173.344 92.4749 171.616 93.1229 169.552 93.1229ZM169.696 91.2269C170.432 91.2269 171.032 90.6269 171.496 89.4269C171.96 88.2109 172.192 86.9549 172.192 85.6589C172.192 83.8509 171.744 82.9469 170.848 82.9469C170.08 82.9469 169.464 83.5229 169 84.6749C168.552 85.8109 168.312 87.0669 168.28 88.4429C168.328 90.2989 168.8 91.2269 169.696 91.2269ZM180.002 93.0989C179.41 93.0989 178.866 92.9309 178.37 92.5949C177.89 92.2589 177.698 91.7229 177.794 90.9869C177.874 90.5069 178.074 90.1069 178.394 89.7869C178.73 89.4669 179.082 89.3069 179.45 89.3069C179.754 89.3069 179.994 89.3789 180.17 89.5229C180.362 89.6669 180.482 89.8269 180.53 90.0029C180.594 90.1629 180.682 90.3149 180.794 90.4589C180.906 90.6029 181.05 90.6749 181.226 90.6749C181.594 90.6749 181.954 90.0349 182.306 88.7549C182.658 87.4749 182.914 86.3309 183.074 85.3229C183.186 84.6029 183.05 84.1629 182.666 84.0029C182.298 83.8109 182.106 83.5709 182.09 83.2829C182.09 83.1229 182.122 82.9789 182.186 82.8509C182.266 82.7229 182.482 82.5469 182.834 82.3229C183.202 82.0989 183.722 81.8669 184.394 81.6269C185.498 81.2589 186.482 81.0749 187.346 81.0749C187.81 81.0749 188.074 81.3869 188.138 82.0109C188.314 83.5949 188.65 85.3389 189.146 87.2429L191.498 82.8029C191.53 82.7229 191.578 82.6349 191.642 82.5389C191.722 82.4269 191.842 82.2989 192.002 82.1549C192.178 82.0109 192.37 81.8989 192.578 81.8189C193.618 81.3709 194.698 81.1309 195.818 81.0989C196.058 81.0829 196.242 81.1469 196.37 81.2909C196.498 81.4349 196.546 81.6349 196.514 81.8909L195.554 88.8989C195.49 89.3789 195.49 89.7149 195.554 89.9069C195.618 90.0829 195.746 90.1709 195.938 90.1709C196.098 90.1709 196.29 90.0589 196.514 89.8349C196.738 89.6109 196.914 89.4989 197.042 89.4989C197.362 89.4989 197.522 89.7069 197.522 90.1229C197.538 90.7789 197.178 91.4429 196.442 92.1149C195.722 92.7709 194.762 93.0989 193.562 93.0989C191.61 93.0989 190.81 91.9549 191.162 89.6669L191.786 85.6349L188.954 91.0349C188.698 91.4509 188.218 91.7629 187.514 91.9709C186.65 92.2109 186.114 92.0349 185.906 91.4429C185.346 89.6029 184.962 87.6989 184.754 85.7309C184.562 86.7549 184.162 88.3389 183.554 90.4829C182.834 92.2269 181.65 93.0989 180.002 93.0989ZM205.127 86.4029C205.031 86.8669 204.815 87.1709 204.479 87.3149C204.159 87.4429 203.863 87.3789 203.591 87.1229C203.335 86.8669 203.247 86.4749 203.327 85.9469C203.455 85.0349 203.767 84.1709 204.263 83.3549C204.775 82.5229 205.271 81.7469 205.751 81.0269C206.247 80.2909 206.543 79.5869 206.639 78.9149C206.735 78.1629 206.479 77.7869 205.871 77.7869C205.583 77.7869 205.335 77.8909 205.127 78.0989C204.935 78.3069 204.727 78.6189 204.503 79.0349C204.295 79.4349 204.135 79.7149 204.023 79.8749C204.007 79.8909 203.927 79.9949 203.783 80.1869C203.655 80.3629 203.567 80.4749 203.519 80.5229C203.487 80.5709 203.399 80.6669 203.255 80.8109C203.127 80.9389 203.007 81.0349 202.895 81.0989C202.799 81.1469 202.663 81.1949 202.487 81.2429C202.327 81.2909 202.151 81.3149 201.959 81.3149C201.255 81.3149 200.783 81.1309 200.543 80.7629C200.303 80.3789 200.215 79.9469 200.279 79.4669C200.423 78.4269 200.999 77.5629 202.007 76.8749C203.015 76.1709 204.407 75.8189 206.183 75.8189C207.863 75.8189 209.127 76.1389 209.975 76.7789C210.823 77.4189 211.175 78.2589 211.031 79.2989C210.951 79.8749 210.703 80.4429 210.287 81.0029C209.887 81.5629 209.455 82.0189 208.991 82.3709C208.543 82.7229 208.031 83.1149 207.455 83.5469C206.879 83.9629 206.479 84.2909 206.255 84.5309C206.143 84.6429 205.935 84.9389 205.631 85.4189C205.343 85.8829 205.175 86.2109 205.127 86.4029ZM203.735 93.1949C203.159 93.1949 202.687 93.0269 202.319 92.6909C201.951 92.3389 201.767 91.8429 201.767 91.2029C201.767 90.4509 202.023 89.8429 202.535 89.3789C203.063 88.9149 203.663 88.6829 204.335 88.6829C204.895 88.6829 205.359 88.8669 205.727 89.2349C206.111 89.5869 206.303 90.0829 206.303 90.7229C206.303 91.4749 206.047 92.0749 205.535 92.5229C205.039 92.9709 204.439 93.1949 203.735 93.1949Z" fill="#C5FF71"/>
</svg>
