<svg width="152" height="55" viewBox="0 0 152 55" fill="none" xmlns="http://www.w3.org/2000/svg">
<path d="M9.64331 20.7149C18.1015 26.613 29.6514 11.5331 32.7158 5.71125C19.2305 10.6952 5.28638 4.56863 0 0.882324C0.792394 3.3987 1.1851 14.8168 9.64331 20.7149Z" fill="#C5FF71"/>
<rect x="11.8842" y="0.884211" width="139.232" height="53.2316" rx="26.6158" fill="#6932FF" stroke="#C5FF71" stroke-width="1.76842"/>
<path d="M32.0079 19.542H29.5999C29.4039 19.542 29.2685 19.5093 29.1939 19.444C29.1285 19.3787 29.1332 19.262 29.2079 19.094L29.3479 18.786C29.4225 18.6087 29.5019 18.4873 29.5859 18.422C29.6792 18.3567 29.8192 18.324 30.0059 18.324H32.4139C32.6099 18.324 32.7405 18.3567 32.8059 18.422C32.8805 18.4873 32.8805 18.604 32.8059 18.772L32.6659 19.08C32.5912 19.2573 32.5072 19.3787 32.4139 19.444C32.3299 19.5093 32.1945 19.542 32.0079 19.542ZM40.6532 23H37.7272C37.4099 23 37.1905 22.9627 37.0692 22.888C36.9572 22.8133 36.9152 22.6827 36.9432 22.496C36.9712 22.2907 37.0645 22.1273 37.2232 22.006C37.3819 21.8847 37.5499 21.7447 37.7272 21.586C37.9139 21.418 38.0445 21.1893 38.1192 20.9C38.1939 20.6387 38.2405 20.4427 38.2592 20.312L38.8612 15.888C38.8892 15.6827 38.9032 15.4867 38.9032 15.3C38.9125 15.048 38.8752 14.8427 38.7912 14.684C38.7072 14.5253 38.6139 14.4227 38.5112 14.376C38.4179 14.3293 38.3339 14.25 38.2592 14.138C38.1939 14.026 38.1752 13.8813 38.2032 13.704C38.2312 13.5173 38.3105 13.3867 38.4412 13.312C38.5719 13.2373 38.8005 13.2 39.1272 13.2H42.0532C42.3705 13.2 42.5852 13.2373 42.6972 13.312C42.8185 13.3867 42.8652 13.5173 42.8372 13.704C42.8092 13.9093 42.7159 14.0727 42.5572 14.194C42.3985 14.3153 42.2259 14.46 42.0392 14.628C41.8619 14.7867 41.7359 15.0107 41.6612 15.3C41.6052 15.5053 41.5632 15.7013 41.5352 15.888L41.4372 16.546C41.3905 16.854 41.4092 17.036 41.4932 17.092C41.6052 17.1853 42.0812 17.232 42.9212 17.232H43.2012C44.1905 17.232 44.7645 17.1947 44.9232 17.12C45.0445 17.0547 45.1239 16.8913 45.1612 16.63C45.1612 16.6113 45.1659 16.5833 45.1752 16.546L45.2732 15.888C45.3012 15.6733 45.3152 15.4773 45.3152 15.3C45.3152 15.048 45.2732 14.8427 45.1892 14.684C45.1145 14.5253 45.0259 14.4227 44.9232 14.376C44.8299 14.3293 44.7459 14.25 44.6712 14.138C44.6059 14.026 44.5825 13.8813 44.6012 13.704C44.6292 13.5173 44.7085 13.3867 44.8392 13.312C44.9699 13.2373 45.2032 13.2 45.5392 13.2H48.4512C48.7779 13.2 48.9972 13.2373 49.1092 13.312C49.2305 13.3867 49.2725 13.5173 49.2352 13.704C49.2072 13.9093 49.1139 14.0727 48.9552 14.194C48.8059 14.3153 48.6379 14.46 48.4512 14.628C48.2739 14.7867 48.1432 15.0107 48.0592 15.3C48.0032 15.5053 47.9612 15.7013 47.9332 15.888L47.3172 20.312C47.2892 20.508 47.2752 20.704 47.2752 20.9C47.2752 21.152 47.3125 21.3573 47.3872 21.516C47.4712 21.6653 47.5599 21.768 47.6532 21.824C47.7559 21.8707 47.8399 21.95 47.9052 22.062C47.9799 22.174 48.0079 22.3187 47.9892 22.496C47.9612 22.6827 47.8772 22.8133 47.7372 22.888C47.6065 22.9627 47.3779 23 47.0512 23H44.1392C43.8219 23 43.6025 22.9627 43.4812 22.888C43.3599 22.8133 43.3179 22.6827 43.3552 22.496C43.3832 22.2907 43.4719 22.1273 43.6212 22.006C43.7799 21.8847 43.9479 21.7447 44.1252 21.586C44.3119 21.418 44.4472 21.1893 44.5312 20.9C44.5872 20.704 44.6292 20.508 44.6572 20.312L44.8392 19.066C44.8765 18.7673 44.8532 18.5853 44.7692 18.52C44.6572 18.4267 44.1765 18.38 43.3272 18.38C43.2619 18.38 43.1592 18.38 43.0192 18.38C42.0485 18.38 41.4885 18.4173 41.3392 18.492C41.2085 18.548 41.1292 18.7113 41.1012 18.982L41.0872 19.066L40.9192 20.312C40.8912 20.508 40.8772 20.704 40.8772 20.9C40.8679 21.152 40.9052 21.3573 40.9892 21.516C41.0732 21.6653 41.1619 21.768 41.2552 21.824C41.3579 21.8707 41.4419 21.95 41.5072 22.062C41.5819 22.174 41.6099 22.3187 41.5912 22.496C41.5539 22.6827 41.4699 22.8133 41.3392 22.888C41.2085 22.9627 40.9799 23 40.6532 23ZM57.9312 21.404C57.9405 21.7867 57.7352 22.174 57.3152 22.566C56.9045 22.9487 56.3585 23.14 55.6772 23.14C55.3318 23.14 55.0285 23.0513 54.7672 22.874C54.5152 22.6873 54.3518 22.4073 54.2772 22.034C53.6612 22.7713 52.9285 23.14 52.0792 23.14C51.3792 23.14 50.8098 22.902 50.3712 22.426C49.9325 21.95 49.7132 21.3387 49.7132 20.592C49.7132 19.36 50.1472 18.31 51.0152 17.442C51.8832 16.574 52.8352 16.14 53.8712 16.14C54.2072 16.14 54.5292 16.1913 54.8372 16.294C55.1545 16.3873 55.3412 16.434 55.3972 16.434C55.4998 16.434 55.7192 16.378 56.0552 16.266C56.4005 16.154 56.6432 16.098 56.7832 16.098C56.9698 16.098 57.1098 16.1587 57.2032 16.28C57.2965 16.4013 57.3338 16.5367 57.3152 16.686L56.7272 20.718C56.6618 21.194 56.7505 21.432 56.9932 21.432C57.0865 21.432 57.1985 21.3667 57.3292 21.236C57.4692 21.1053 57.5765 21.04 57.6512 21.04C57.8378 21.04 57.9312 21.1613 57.9312 21.404ZM52.9612 21.586C53.3438 21.586 53.6612 21.3433 53.9132 20.858C54.1652 20.3727 54.3472 19.766 54.4592 19.038C54.6458 17.7967 54.4172 17.176 53.7732 17.176C53.3065 17.176 52.9378 17.4793 52.6672 18.086C52.4058 18.6833 52.2658 19.4067 52.2472 20.256C52.2378 20.6387 52.2938 20.956 52.4152 21.208C52.5365 21.46 52.7185 21.586 52.9612 21.586ZM70.9247 21.026C71.1114 21.026 71.2047 21.1427 71.2047 21.376C71.2047 21.7773 70.9947 22.174 70.5747 22.566C70.164 22.9487 69.6087 23.14 68.9087 23.14C68.442 23.14 68.0827 22.9767 67.8307 22.65C67.588 22.3233 67.5227 21.824 67.6347 21.152L67.9007 19.668C68.05 18.9213 68.12 18.4127 68.1107 18.142C68.1107 17.862 67.9987 17.722 67.7747 17.722C67.6907 17.722 67.5974 17.7453 67.4947 17.792C67.4014 17.8387 67.28 17.946 67.1307 18.114C66.9907 18.2727 66.8507 18.4873 66.7107 18.758C66.5707 19.0193 66.4214 19.3973 66.2627 19.892C66.1134 20.3867 65.9734 20.956 65.8427 21.6L65.7167 22.286C65.6514 22.5473 65.4927 22.706 65.2407 22.762L63.6167 23.14C63.4767 23.168 63.3694 23.1353 63.2947 23.042C63.22 22.9487 63.1967 22.8227 63.2247 22.664L63.8127 19.668C63.906 19.1733 63.9574 18.786 63.9667 18.506C63.9854 18.2167 63.9667 18.016 63.9107 17.904C63.8547 17.7827 63.7567 17.722 63.6167 17.722C63.5327 17.722 63.444 17.7453 63.3507 17.792C63.2574 17.8387 63.1407 17.946 63.0007 18.114C62.8607 18.2727 62.7254 18.4873 62.5947 18.758C62.4734 19.0193 62.338 19.3973 62.1887 19.892C62.0394 20.3773 61.8994 20.9467 61.7687 21.6L61.6287 22.286C61.5727 22.5473 61.414 22.706 61.1527 22.762L59.5427 23.14C59.4027 23.168 59.2907 23.1353 59.2067 23.042C59.132 22.9487 59.1087 22.8227 59.1367 22.664L59.8087 18.604C59.846 18.3987 59.8367 18.2353 59.7807 18.114C59.734 17.9833 59.664 17.904 59.5707 17.876C59.4867 17.8387 59.4074 17.7827 59.3327 17.708C59.258 17.6333 59.2207 17.54 59.2207 17.428C59.2207 17.288 59.3047 17.148 59.4727 17.008C59.6407 16.868 59.9954 16.686 60.5367 16.462C61.134 16.238 61.554 16.126 61.7967 16.126C62.1514 16.126 62.31 16.3033 62.2727 16.658L62.1607 17.54C62.506 17.0547 62.8934 16.7 63.3227 16.476C63.7614 16.2427 64.1814 16.126 64.5827 16.126C65.0307 16.126 65.4087 16.2473 65.7167 16.49C66.0247 16.7233 66.2394 17.0453 66.3607 17.456C66.6594 17.0267 67.028 16.7 67.4667 16.476C67.9054 16.2427 68.358 16.126 68.8247 16.126C69.45 16.126 69.926 16.406 70.2527 16.966C70.5887 17.5167 70.6727 18.2027 70.5047 19.024L70.1407 20.718C70.0847 20.998 70.066 21.1893 70.0847 21.292C70.1034 21.3947 70.164 21.446 70.2667 21.446C70.36 21.446 70.472 21.376 70.6027 21.236C70.7427 21.096 70.85 21.026 70.9247 21.026ZM80.6806 21.404C80.69 21.7867 80.4846 22.174 80.0646 22.566C79.654 22.9487 79.108 23.14 78.4266 23.14C78.0813 23.14 77.778 23.0513 77.5166 22.874C77.2646 22.6873 77.1013 22.4073 77.0266 22.034C76.4106 22.7713 75.678 23.14 74.8286 23.14C74.1286 23.14 73.5593 22.902 73.1206 22.426C72.682 21.95 72.4626 21.3387 72.4626 20.592C72.4626 19.36 72.8966 18.31 73.7646 17.442C74.6326 16.574 75.5846 16.14 76.6206 16.14C76.9566 16.14 77.2786 16.1913 77.5866 16.294C77.904 16.3873 78.0906 16.434 78.1466 16.434C78.2493 16.434 78.4686 16.378 78.8046 16.266C79.15 16.154 79.3926 16.098 79.5326 16.098C79.7193 16.098 79.8593 16.1587 79.9526 16.28C80.046 16.4013 80.0833 16.5367 80.0646 16.686L79.4766 20.718C79.4113 21.194 79.5 21.432 79.7426 21.432C79.836 21.432 79.948 21.3667 80.0786 21.236C80.2186 21.1053 80.326 21.04 80.4006 21.04C80.5873 21.04 80.6806 21.1613 80.6806 21.404ZM75.7106 21.586C76.0933 21.586 76.4106 21.3433 76.6626 20.858C76.9146 20.3727 77.0966 19.766 77.2086 19.038C77.3953 17.7967 77.1666 17.176 76.5226 17.176C76.056 17.176 75.6873 17.4793 75.4166 18.086C75.1553 18.6833 75.0153 19.4067 74.9966 20.256C74.9873 20.6387 75.0433 20.956 75.1646 21.208C75.286 21.46 75.468 21.586 75.7106 21.586ZM93.8562 21.04C94.0522 21.04 94.1502 21.1613 94.1502 21.404C94.1502 21.7867 93.9355 22.174 93.5062 22.566C93.0862 22.9487 92.5262 23.14 91.8262 23.14C91.4808 23.14 91.1775 23.056 90.9162 22.888C90.6548 22.7107 90.4915 22.454 90.4262 22.118C89.8662 22.7993 89.1895 23.14 88.3962 23.14C87.9388 23.14 87.5468 23.028 87.2202 22.804C86.8935 22.58 86.6602 22.2673 86.5202 21.866C86.0068 22.7153 85.2788 23.14 84.3362 23.14C83.4962 23.14 82.9035 22.888 82.5582 22.384C82.2128 21.8707 82.1148 21.1847 82.2642 20.326L82.5582 18.576C82.6328 18.2027 82.5488 17.96 82.3062 17.848C82.0822 17.7173 81.9702 17.5773 81.9702 17.428C81.9702 17.3347 81.9935 17.2507 82.0402 17.176C82.0868 17.092 82.2128 16.9847 82.4182 16.854C82.6235 16.7233 82.9128 16.5927 83.2862 16.462C83.9302 16.238 84.4575 16.126 84.8682 16.126C85.2135 16.126 85.3535 16.3033 85.2882 16.658L84.6722 20.242C84.5042 21.1567 84.6162 21.614 85.0082 21.614C85.3535 21.614 85.6802 21.2967 85.9882 20.662C86.3055 20.0273 86.5668 19.094 86.7722 17.862L86.9122 17.008C86.9495 16.7373 87.0988 16.574 87.3602 16.518L88.9982 16.14C89.1288 16.112 89.2315 16.1447 89.3062 16.238C89.3902 16.3313 89.4182 16.4573 89.3902 16.616L88.8862 20.214C88.8022 20.7647 88.7835 21.1567 88.8302 21.39C88.8862 21.614 89.0308 21.726 89.2642 21.726C89.3295 21.726 89.3995 21.7073 89.4742 21.67C89.5582 21.6233 89.6655 21.5207 89.7962 21.362C89.9268 21.2033 90.0528 20.9933 90.1742 20.732C90.3048 20.4707 90.4402 20.0927 90.5802 19.598C90.7202 19.094 90.8415 18.5153 90.9442 17.862L91.0982 17.008C91.1355 16.7373 91.2848 16.574 91.5462 16.518L93.1702 16.14C93.3102 16.112 93.4175 16.1447 93.4922 16.238C93.5668 16.3313 93.5948 16.4573 93.5762 16.616L92.9882 20.69C92.9135 21.1847 92.9882 21.432 93.2122 21.432C93.3055 21.432 93.4175 21.3667 93.5482 21.236C93.6788 21.1053 93.7815 21.04 93.8562 21.04ZM95.6161 25.226C95.5228 25.226 95.4434 25.198 95.3781 25.142C95.3221 25.0953 95.2941 25.0347 95.2941 24.96C95.2941 24.8667 95.3501 24.7593 95.4621 24.638C95.5834 24.526 95.7048 24.3907 95.8261 24.232C95.9474 24.0827 96.0081 23.9147 96.0081 23.728C96.0081 23.5413 95.8868 23.2893 95.6441 22.972C95.4108 22.6547 95.2941 22.3233 95.2941 21.978C95.2941 21.53 95.4481 21.1753 95.7561 20.914C96.0641 20.6433 96.4141 20.508 96.8061 20.508C97.1981 20.508 97.5154 20.6433 97.7581 20.914C98.0101 21.1753 98.1361 21.5487 98.1361 22.034C98.1361 22.818 97.8421 23.546 97.2541 24.218C96.6754 24.89 96.1294 25.226 95.6161 25.226ZM108.885 23.14C108.4 23.14 108.017 22.972 107.737 22.636C107.457 22.3 107.373 21.796 107.485 21.124L107.709 19.822C107.159 20.5033 106.487 20.844 105.693 20.844C105.021 20.844 104.489 20.6947 104.097 20.396C103.715 20.088 103.523 19.682 103.523 19.178C103.523 18.982 103.533 18.7813 103.551 18.576C103.607 18.1933 103.523 17.9507 103.299 17.848C103.075 17.7173 102.963 17.5773 102.963 17.428C102.963 17.3347 102.987 17.2507 103.033 17.176C103.08 17.092 103.206 16.9893 103.411 16.868C103.617 16.7373 103.906 16.6067 104.279 16.476C104.914 16.2427 105.441 16.126 105.861 16.126C106.188 16.126 106.333 16.3033 106.295 16.658L106.085 18.366C106.076 18.5527 106.067 18.7487 106.057 18.954C106.048 19.1593 106.09 19.3367 106.183 19.486C106.277 19.6353 106.421 19.71 106.617 19.71C106.944 19.71 107.229 19.5327 107.471 19.178C107.714 18.8233 107.863 18.436 107.919 18.016L108.045 17.008C108.073 16.756 108.223 16.5973 108.493 16.532L110.201 16.154C110.341 16.126 110.449 16.1587 110.523 16.252C110.598 16.3453 110.626 16.4667 110.607 16.616L110.047 20.718C109.991 21.194 110.066 21.432 110.271 21.432C110.365 21.432 110.477 21.3667 110.607 21.236C110.747 21.1053 110.855 21.04 110.929 21.04C111.116 21.04 111.209 21.1613 111.209 21.404C111.209 21.7867 110.995 22.174 110.565 22.566C110.145 22.9487 109.585 23.14 108.885 23.14ZM124.025 21.026C124.211 21.026 124.305 21.1427 124.305 21.376C124.305 21.7773 124.095 22.174 123.675 22.566C123.264 22.9487 122.709 23.14 122.009 23.14C121.542 23.14 121.183 22.9767 120.931 22.65C120.688 22.3233 120.623 21.824 120.735 21.152L121.001 19.668C121.15 18.9213 121.22 18.4127 121.211 18.142C121.211 17.862 121.099 17.722 120.875 17.722C120.791 17.722 120.697 17.7453 120.595 17.792C120.501 17.8387 120.38 17.946 120.231 18.114C120.091 18.2727 119.951 18.4873 119.811 18.758C119.671 19.0193 119.521 19.3973 119.363 19.892C119.213 20.3867 119.073 20.956 118.943 21.6L118.817 22.286C118.751 22.5473 118.593 22.706 118.341 22.762L116.717 23.14C116.577 23.168 116.469 23.1353 116.395 23.042C116.32 22.9487 116.297 22.8227 116.325 22.664L116.913 19.668C117.006 19.1733 117.057 18.786 117.067 18.506C117.085 18.2167 117.067 18.016 117.011 17.904C116.955 17.7827 116.857 17.722 116.717 17.722C116.633 17.722 116.544 17.7453 116.451 17.792C116.357 17.8387 116.241 17.946 116.101 18.114C115.961 18.2727 115.825 18.4873 115.695 18.758C115.573 19.0193 115.438 19.3973 115.289 19.892C115.139 20.3773 114.999 20.9467 114.869 21.6L114.729 22.286C114.673 22.5473 114.514 22.706 114.253 22.762L112.643 23.14C112.503 23.168 112.391 23.1353 112.307 23.042C112.232 22.9487 112.209 22.8227 112.237 22.664L112.909 18.604C112.946 18.3987 112.937 18.2353 112.881 18.114C112.834 17.9833 112.764 17.904 112.671 17.876C112.587 17.8387 112.507 17.7827 112.433 17.708C112.358 17.6333 112.321 17.54 112.321 17.428C112.321 17.288 112.405 17.148 112.573 17.008C112.741 16.868 113.095 16.686 113.637 16.462C114.234 16.238 114.654 16.126 114.897 16.126C115.251 16.126 115.41 16.3033 115.373 16.658L115.261 17.54C115.606 17.0547 115.993 16.7 116.423 16.476C116.861 16.2427 117.281 16.126 117.683 16.126C118.131 16.126 118.509 16.2473 118.817 16.49C119.125 16.7233 119.339 17.0453 119.461 17.456C119.759 17.0267 120.128 16.7 120.567 16.476C121.005 16.2427 121.458 16.126 121.925 16.126C122.55 16.126 123.026 16.406 123.353 16.966C123.689 17.5167 123.773 18.2027 123.605 19.024L123.241 20.718C123.185 20.998 123.166 21.1893 123.185 21.292C123.203 21.3947 123.264 21.446 123.367 21.446C123.46 21.446 123.572 21.376 123.703 21.236C123.843 21.096 123.95 21.026 124.025 21.026ZM128.895 23.154C127.859 23.154 127.051 22.888 126.473 22.356C125.894 21.8147 125.605 21.0727 125.605 20.13C125.605 19.0193 126.029 18.0767 126.879 17.302C127.728 16.518 128.736 16.126 129.903 16.126C130.901 16.126 131.69 16.4013 132.269 16.952C132.847 17.5027 133.137 18.2167 133.137 19.094C133.137 20.2887 132.731 21.264 131.919 22.02C131.107 22.776 130.099 23.154 128.895 23.154ZM128.979 22.048C129.408 22.048 129.758 21.698 130.029 20.998C130.299 20.2887 130.435 19.556 130.435 18.8C130.435 17.7453 130.173 17.218 129.651 17.218C129.203 17.218 128.843 17.554 128.573 18.226C128.311 18.8887 128.171 19.6213 128.153 20.424C128.181 21.5067 128.456 22.048 128.979 22.048ZM45.1206 41.14C44.1499 41.14 43.3986 40.8693 42.8666 40.328C42.3346 39.7773 42.0686 39.0727 42.0686 38.214C42.0686 37.094 42.4746 36.1373 43.2866 35.344C44.0986 34.5413 45.0459 34.14 46.1286 34.14C46.8752 34.14 47.5052 34.336 48.0186 34.728C48.5319 35.1107 48.7932 35.6007 48.8026 36.198C48.8119 36.6553 48.6859 37.0333 48.4246 37.332C48.1632 37.6307 47.8366 37.7613 47.4446 37.724C46.8846 37.6493 46.6046 37.304 46.6046 36.688C46.5952 35.7453 46.3386 35.274 45.8346 35.274C45.4986 35.274 45.2092 35.4887 44.9666 35.918C44.7332 36.3473 44.6166 36.8513 44.6166 37.43C44.6166 38.046 44.7752 38.5267 45.0926 38.872C45.4192 39.208 45.8952 39.376 46.5206 39.376C47.0432 39.376 47.5612 39.194 48.0746 38.83C48.2612 38.69 48.4059 38.676 48.5086 38.788C48.6112 38.8907 48.6066 39.0587 48.4946 39.292C48.2799 39.7773 47.8739 40.2067 47.2766 40.58C46.6792 40.9533 45.9606 41.14 45.1206 41.14ZM56.0849 41.14C55.1142 41.14 54.3629 40.8693 53.8309 40.328C53.2989 39.7773 53.0329 39.0727 53.0329 38.214C53.0329 37.094 53.4389 36.1373 54.2509 35.344C55.0629 34.5413 56.0102 34.14 57.0929 34.14C57.8395 34.14 58.4695 34.336 58.9829 34.728C59.4962 35.1107 59.7575 35.6007 59.7669 36.198C59.7762 36.6553 59.6502 37.0333 59.3889 37.332C59.1275 37.6307 58.8009 37.7613 58.4089 37.724C57.8489 37.6493 57.5689 37.304 57.5689 36.688C57.5595 35.7453 57.3029 35.274 56.7989 35.274C56.4629 35.274 56.1735 35.4887 55.9309 35.918C55.6975 36.3473 55.5809 36.8513 55.5809 37.43C55.5809 38.046 55.7395 38.5267 56.0569 38.872C56.3835 39.208 56.8595 39.376 57.4849 39.376C58.0075 39.376 58.5255 39.194 59.0389 38.83C59.2255 38.69 59.3702 38.676 59.4729 38.788C59.5755 38.8907 59.5709 39.0587 59.4589 39.292C59.2442 39.7773 58.8382 40.2067 58.2409 40.58C57.6435 40.9533 56.9249 41.14 56.0849 41.14ZM69.0904 39.404C69.0998 39.7867 68.8944 40.174 68.4744 40.566C68.0638 40.9487 67.5178 41.14 66.8364 41.14C66.4911 41.14 66.1878 41.0513 65.9264 40.874C65.6744 40.6873 65.5111 40.4073 65.4364 40.034C64.8204 40.7713 64.0878 41.14 63.2384 41.14C62.5384 41.14 61.9691 40.902 61.5304 40.426C61.0918 39.95 60.8724 39.3387 60.8724 38.592C60.8724 37.36 61.3064 36.31 62.1744 35.442C63.0424 34.574 63.9944 34.14 65.0304 34.14C65.3664 34.14 65.6884 34.1913 65.9964 34.294C66.3138 34.3873 66.5004 34.434 66.5564 34.434C66.6591 34.434 66.8784 34.378 67.2144 34.266C67.5598 34.154 67.8024 34.098 67.9424 34.098C68.1291 34.098 68.2691 34.1587 68.3624 34.28C68.4558 34.4013 68.4931 34.5367 68.4744 34.686L67.8864 38.718C67.8211 39.194 67.9098 39.432 68.1524 39.432C68.2458 39.432 68.3578 39.3667 68.4884 39.236C68.6284 39.1053 68.7358 39.04 68.8104 39.04C68.9971 39.04 69.0904 39.1613 69.0904 39.404ZM64.1204 39.586C64.5031 39.586 64.8204 39.3433 65.0724 38.858C65.3244 38.3727 65.5064 37.766 65.6184 37.038C65.8051 35.7967 65.5764 35.176 64.9324 35.176C64.4658 35.176 64.0971 35.4793 63.8264 36.086C63.5651 36.6833 63.4251 37.4067 63.4064 38.256C63.3971 38.6387 63.4531 38.956 63.5744 39.208C63.6958 39.46 63.8778 39.586 64.1204 39.586ZM75 33.608C74.2253 33.608 73.6046 33.468 73.138 33.188C72.6713 32.908 72.4753 32.5113 72.55 31.998C72.578 31.7927 72.6713 31.6293 72.83 31.508C72.998 31.3867 73.1753 31.326 73.362 31.326C73.5486 31.326 73.7166 31.4007 73.866 31.55C74.0153 31.6993 74.132 31.8673 74.216 32.054C74.3 32.2313 74.4166 32.3947 74.566 32.544C74.7246 32.6933 74.902 32.768 75.098 32.768C75.294 32.768 75.49 32.6933 75.686 32.544C75.882 32.3947 76.0453 32.2313 76.176 32.054C76.316 31.8673 76.4793 31.6993 76.666 31.55C76.862 31.4007 77.058 31.326 77.254 31.326C77.4406 31.326 77.5993 31.3913 77.73 31.522C77.8606 31.6433 77.912 31.802 77.884 31.998C77.8093 32.5113 77.4826 32.908 76.904 33.188C76.3253 33.468 75.6906 33.608 75 33.608ZM78.696 39.404C78.7053 39.7867 78.4953 40.174 78.066 40.566C77.646 40.9487 77.086 41.14 76.386 41.14C76.0313 41.14 75.7233 41.0513 75.462 40.874C75.2006 40.6967 75.042 40.44 74.986 40.104C74.3606 40.7947 73.6373 41.14 72.816 41.14C71.0986 41.14 70.3893 40.202 70.688 38.326L70.982 36.618C71.01 36.4127 70.996 36.2493 70.94 36.128C70.884 36.0067 70.814 35.9273 70.73 35.89C70.6553 35.8527 70.5806 35.7967 70.506 35.722C70.4313 35.6473 70.394 35.554 70.394 35.442C70.394 35.1247 70.772 34.8307 71.528 34.56C72.3026 34.2893 72.8953 34.154 73.306 34.154C73.6326 34.154 73.7726 34.322 73.726 34.658L73.208 37.668C73.0586 38.508 73.012 39.0633 73.068 39.334C73.124 39.6047 73.306 39.74 73.614 39.74C74.482 39.74 75.1213 38.4613 75.532 35.904L75.672 35.008C75.7093 34.7373 75.8586 34.574 76.12 34.518L77.758 34.14C77.8886 34.112 77.9913 34.1447 78.066 34.238C78.15 34.3313 78.178 34.4573 78.15 34.616L77.548 38.69C77.4733 39.1847 77.548 39.432 77.772 39.432C77.8653 39.432 77.9773 39.3667 78.108 39.236C78.2386 39.1053 78.3413 39.04 78.416 39.04C78.6026 39.04 78.696 39.1613 78.696 39.404ZM91.6198 39.026C91.8065 39.026 91.8998 39.1427 91.8998 39.376C91.8998 39.7773 91.6898 40.174 91.2698 40.566C90.8592 40.9487 90.3038 41.14 89.6038 41.14C89.1372 41.14 88.7778 40.9767 88.5258 40.65C88.2832 40.3233 88.2178 39.824 88.3298 39.152L88.5958 37.668C88.7452 36.9213 88.8152 36.4127 88.8058 36.142C88.8058 35.862 88.6938 35.722 88.4698 35.722C88.3858 35.722 88.2925 35.7453 88.1898 35.792C88.0965 35.8387 87.9752 35.946 87.8258 36.114C87.6858 36.2727 87.5458 36.4873 87.4058 36.758C87.2658 37.0193 87.1165 37.3973 86.9578 37.892C86.8085 38.3867 86.6685 38.956 86.5378 39.6L86.4118 40.286C86.3465 40.5473 86.1878 40.706 85.9358 40.762L84.3118 41.14C84.1718 41.168 84.0645 41.1353 83.9898 41.042C83.9152 40.9487 83.8918 40.8227 83.9198 40.664L84.5078 37.668C84.6012 37.1733 84.6525 36.786 84.6618 36.506C84.6805 36.2167 84.6618 36.016 84.6058 35.904C84.5498 35.7827 84.4518 35.722 84.3118 35.722C84.2278 35.722 84.1392 35.7453 84.0458 35.792C83.9525 35.8387 83.8358 35.946 83.6958 36.114C83.5558 36.2727 83.4205 36.4873 83.2898 36.758C83.1685 37.0193 83.0332 37.3973 82.8838 37.892C82.7345 38.3773 82.5945 38.9467 82.4638 39.6L82.3238 40.286C82.2678 40.5473 82.1092 40.706 81.8478 40.762L80.2378 41.14C80.0978 41.168 79.9858 41.1353 79.9018 41.042C79.8272 40.9487 79.8038 40.8227 79.8318 40.664L80.5038 36.604C80.5412 36.3987 80.5318 36.2353 80.4758 36.114C80.4292 35.9833 80.3592 35.904 80.2658 35.876C80.1818 35.8387 80.1025 35.7827 80.0278 35.708C79.9532 35.6333 79.9158 35.54 79.9158 35.428C79.9158 35.288 79.9998 35.148 80.1678 35.008C80.3358 34.868 80.6905 34.686 81.2318 34.462C81.8292 34.238 82.2492 34.126 82.4918 34.126C82.8465 34.126 83.0052 34.3033 82.9678 34.658L82.8558 35.54C83.2012 35.0547 83.5885 34.7 84.0178 34.476C84.4565 34.2427 84.8765 34.126 85.2778 34.126C85.7258 34.126 86.1038 34.2473 86.4118 34.49C86.7198 34.7233 86.9345 35.0453 87.0558 35.456C87.3545 35.0267 87.7232 34.7 88.1618 34.476C88.6005 34.2427 89.0532 34.126 89.5198 34.126C90.1452 34.126 90.6212 34.406 90.9478 34.966C91.2838 35.5167 91.3678 36.2027 91.1998 37.024L90.8358 38.718C90.7798 38.998 90.7612 39.1893 90.7798 39.292C90.7985 39.3947 90.8592 39.446 90.9618 39.446C91.0552 39.446 91.1672 39.376 91.2978 39.236C91.4378 39.096 91.5452 39.026 91.6198 39.026ZM96.4897 41.154C95.4537 41.154 94.6464 40.888 94.0677 40.356C93.4891 39.8147 93.1997 39.0727 93.1997 38.13C93.1997 37.0193 93.6244 36.0767 94.4737 35.302C95.3231 34.518 96.3311 34.126 97.4977 34.126C98.4964 34.126 99.2851 34.4013 99.8637 34.952C100.442 35.5027 100.732 36.2167 100.732 37.094C100.732 38.2887 100.326 39.264 99.5137 40.02C98.7017 40.776 97.6937 41.154 96.4897 41.154ZM96.5737 40.048C97.0031 40.048 97.3531 39.698 97.6237 38.998C97.8944 38.2887 98.0297 37.556 98.0297 36.8C98.0297 35.7453 97.7684 35.218 97.2457 35.218C96.7977 35.218 96.4384 35.554 96.1677 36.226C95.9064 36.8887 95.7664 37.6213 95.7477 38.424C95.7757 39.5067 96.0511 40.048 96.5737 40.048ZM102.585 41.14C102.24 41.14 101.923 41.042 101.633 40.846C101.353 40.65 101.241 40.3373 101.297 39.908C101.344 39.628 101.461 39.3947 101.647 39.208C101.843 39.0213 102.049 38.928 102.263 38.928C102.441 38.928 102.581 38.97 102.683 39.054C102.795 39.138 102.865 39.2313 102.893 39.334C102.931 39.4273 102.982 39.516 103.047 39.6C103.113 39.684 103.197 39.726 103.299 39.726C103.514 39.726 103.724 39.3527 103.929 38.606C104.135 37.8593 104.284 37.192 104.377 36.604C104.443 36.184 104.363 35.9273 104.139 35.834C103.925 35.722 103.813 35.582 103.803 35.414C103.803 35.3207 103.822 35.2367 103.859 35.162C103.906 35.0873 104.032 34.9847 104.237 34.854C104.452 34.7233 104.755 34.588 105.147 34.448C105.791 34.2333 106.365 34.126 106.869 34.126C107.14 34.126 107.294 34.308 107.331 34.672C107.434 35.596 107.63 36.6133 107.919 37.724L109.291 35.134C109.31 35.0873 109.338 35.036 109.375 34.98C109.422 34.9147 109.492 34.84 109.585 34.756C109.688 34.672 109.8 34.6067 109.921 34.56C110.528 34.2987 111.158 34.1587 111.811 34.14C111.951 34.1307 112.059 34.168 112.133 34.252C112.208 34.336 112.236 34.4527 112.217 34.602L111.657 38.69C111.62 38.97 111.62 39.166 111.657 39.278C111.695 39.3807 111.769 39.432 111.881 39.432C111.975 39.432 112.087 39.3667 112.217 39.236C112.348 39.1053 112.451 39.04 112.525 39.04C112.712 39.04 112.805 39.1613 112.805 39.404C112.815 39.7867 112.605 40.174 112.175 40.566C111.755 40.9487 111.195 41.14 110.495 41.14C109.357 41.14 108.89 40.4727 109.095 39.138L109.459 36.786L107.807 39.936C107.658 40.1787 107.378 40.3607 106.967 40.482C106.463 40.622 106.151 40.5193 106.029 40.174C105.703 39.1007 105.479 37.99 105.357 36.842C105.245 37.4393 105.012 38.3633 104.657 39.614C104.237 40.6313 103.547 41.14 102.585 41.14ZM117.242 37.234C117.186 37.5047 117.06 37.682 116.864 37.766C116.677 37.8407 116.504 37.8033 116.346 37.654C116.196 37.5047 116.145 37.276 116.192 36.968C116.266 36.436 116.448 35.932 116.738 35.456C117.036 34.9707 117.326 34.518 117.606 34.098C117.895 33.6687 118.068 33.258 118.124 32.866C118.18 32.4273 118.03 32.208 117.676 32.208C117.508 32.208 117.363 32.2687 117.242 32.39C117.13 32.5113 117.008 32.6933 116.878 32.936C116.756 33.1693 116.663 33.3327 116.598 33.426C116.588 33.4353 116.542 33.496 116.458 33.608C116.383 33.7107 116.332 33.776 116.304 33.804C116.285 33.832 116.234 33.888 116.15 33.972C116.075 34.0467 116.005 34.1027 115.94 34.14C115.884 34.168 115.804 34.196 115.702 34.224C115.608 34.252 115.506 34.266 115.394 34.266C114.983 34.266 114.708 34.1587 114.568 33.944C114.428 33.72 114.376 33.468 114.414 33.188C114.498 32.5813 114.834 32.0773 115.422 31.676C116.01 31.2653 116.822 31.06 117.858 31.06C118.838 31.06 119.575 31.2467 120.07 31.62C120.564 31.9933 120.77 32.4833 120.686 33.09C120.639 33.426 120.494 33.7573 120.252 34.084C120.018 34.4107 119.766 34.6767 119.496 34.882C119.234 35.0873 118.936 35.316 118.6 35.568C118.264 35.8107 118.03 36.002 117.9 36.142C117.834 36.2073 117.713 36.38 117.536 36.66C117.368 36.9307 117.27 37.122 117.242 37.234ZM116.43 41.196C116.094 41.196 115.818 41.098 115.604 40.902C115.389 40.6967 115.282 40.4073 115.282 40.034C115.282 39.5953 115.431 39.2407 115.73 38.97C116.038 38.6993 116.388 38.564 116.78 38.564C117.106 38.564 117.377 38.6713 117.592 38.886C117.816 39.0913 117.928 39.3807 117.928 39.754C117.928 40.1927 117.778 40.5427 117.48 40.804C117.19 41.0653 116.84 41.196 116.43 41.196Z" fill="#C5FF71"/>
</svg>
