<svg width="254" height="107" viewBox="0 0 254 107" fill="none" xmlns="http://www.w3.org/2000/svg">
<path d="M49.1019 88.4491C41.94 101.167 6.59578 80.7508 1.57982 73.8533C28.0801 76.3535 48.8032 62.9489 53.2794 55.0003C53.2059 59.0306 56.2637 75.7313 49.1019 88.4491Z" fill="#C5FF71"/>
<rect x="29.5" y="1.5" width="223" height="104" rx="52" fill="#6932FF" stroke="#C5FF71" stroke-width="3"/>
<path d="M71.9392 35.126C70.2592 35.138 68.8732 34.628 67.7812 33.596C66.7012 32.552 66.1612 31.214 66.1612 29.582C66.1612 27.602 66.8752 25.886 68.3032 24.434C69.7432 22.982 71.4892 22.256 73.5412 22.256C75.2572 22.256 76.6192 22.778 77.6272 23.822C78.6472 24.866 79.1572 26.216 79.1572 27.872C79.1572 29.888 78.4612 31.598 77.0692 33.002C75.6772 34.406 73.9672 35.114 71.9392 35.126ZM72.4792 33.29C72.9832 33.29 73.4332 33.128 73.8292 32.804C74.2252 32.48 74.5372 32.06 74.7652 31.544C74.9932 31.016 75.1672 30.446 75.2872 29.834C75.4072 29.222 75.4672 28.592 75.4672 27.944C75.4672 26.744 75.2572 25.772 74.8372 25.028C74.4292 24.284 73.8052 23.912 72.9652 23.912C72.0052 23.912 71.2312 24.488 70.6432 25.64C70.0672 26.792 69.7792 28.052 69.7792 29.42C69.7792 30.56 70.0192 31.49 70.4992 32.21C70.9912 32.93 71.6512 33.29 72.4792 33.29ZM90.5222 32.48C90.7622 32.48 90.8822 32.636 90.8822 32.948C90.8822 33.44 90.6062 33.938 90.0542 34.442C89.5142 34.934 88.7942 35.18 87.8942 35.18C87.2822 35.18 86.8022 34.976 86.4542 34.568C86.1182 34.148 86.0162 33.512 86.1482 32.66L86.3642 31.166H83.8082L83.4302 34.064C83.3822 34.412 83.1842 34.622 82.8362 34.694L80.7482 35.18C80.5802 35.216 80.4422 35.174 80.3342 35.054C80.2382 34.934 80.2082 34.772 80.2442 34.568L80.9462 29.366C80.9822 29.102 80.9642 28.892 80.8922 28.736C80.8322 28.568 80.7482 28.466 80.6402 28.43C80.5322 28.382 80.4302 28.31 80.3342 28.214C80.2382 28.118 80.1902 27.998 80.1902 27.854C80.1902 27.662 80.2862 27.482 80.4782 27.314C80.6822 27.134 81.0782 26.936 81.6662 26.72C82.6262 26.372 83.3522 26.198 83.8442 26.198C84.2642 26.198 84.4442 26.414 84.3842 26.846L83.9882 29.834H86.5622L86.9222 27.332C86.9702 26.972 87.1682 26.756 87.5162 26.684L89.5682 26.198C89.7482 26.162 89.8862 26.204 89.9822 26.324C90.0782 26.444 90.1142 26.6 90.0902 26.792L89.3522 32.066C89.2442 32.678 89.3522 32.984 89.6762 32.984C89.7962 32.984 89.9402 32.9 90.1082 32.732C90.2882 32.564 90.4262 32.48 90.5222 32.48ZM100.306 35.18C99.0575 35.18 98.0915 34.832 97.4075 34.136C96.7235 33.428 96.3815 32.522 96.3815 31.418C96.3815 29.978 96.9035 28.748 97.9475 27.728C98.9915 26.696 100.21 26.18 101.602 26.18C102.562 26.18 103.372 26.432 104.032 26.936C104.692 27.428 105.028 28.058 105.04 28.826C105.052 29.414 104.89 29.9 104.554 30.284C104.218 30.668 103.798 30.836 103.294 30.788C102.574 30.692 102.214 30.248 102.214 29.456C102.202 28.244 101.872 27.638 101.224 27.638C100.792 27.638 100.42 27.914 100.108 28.466C99.8075 29.018 99.6575 29.666 99.6575 30.41C99.6575 31.202 99.8615 31.82 100.27 32.264C100.69 32.696 101.302 32.912 102.106 32.912C102.778 32.912 103.444 32.678 104.104 32.21C104.344 32.03 104.53 32.012 104.662 32.156C104.794 32.288 104.788 32.504 104.644 32.804C104.368 33.428 103.846 33.98 103.078 34.46C102.31 34.94 101.386 35.18 100.306 35.18ZM119.964 25.37C119.856 26.186 119.358 27.14 118.47 28.232C117.594 29.312 116.382 30.338 114.834 31.31C115.11 31.37 115.548 31.502 116.148 31.706C116.748 31.898 117.198 31.994 117.498 31.994C117.822 31.994 118.104 31.934 118.344 31.814C118.596 31.682 118.776 31.544 118.884 31.4C118.992 31.256 119.1 31.124 119.208 31.004C119.328 30.872 119.436 30.806 119.532 30.806C119.772 30.806 119.88 31.028 119.856 31.472C119.808 32.552 119.49 33.428 118.902 34.1C118.326 34.772 117.594 35.108 116.706 35.108C116.094 35.108 115.386 34.934 114.582 34.586C113.79 34.238 113.154 34.064 112.674 34.064C112.242 34.064 111.816 34.244 111.396 34.604C110.976 34.952 110.664 35.126 110.46 35.126C110.052 35.126 109.848 34.934 109.848 34.55C109.848 34.178 110.028 33.836 110.388 33.524C112.596 31.532 114.108 30.002 114.924 28.934C115.752 27.854 116.226 26.864 116.346 25.964C116.406 25.532 116.31 25.184 116.058 24.92C115.806 24.644 115.446 24.506 114.978 24.506C114.09 24.506 113.178 24.908 112.242 25.712C112.014 25.928 111.834 25.964 111.702 25.82C111.57 25.676 111.57 25.448 111.702 25.136C111.99 24.476 112.578 23.828 113.466 23.192C114.366 22.544 115.38 22.22 116.508 22.22C117.588 22.22 118.47 22.502 119.154 23.066C119.838 23.63 120.108 24.398 119.964 25.37ZM131.28 23.516C130.248 24.68 128.916 26.006 127.284 27.494C128.424 27.662 129.324 28.064 129.984 28.7C130.644 29.324 130.89 30.218 130.722 31.382C130.566 32.51 130.02 33.458 129.084 34.226C128.16 34.994 126.978 35.378 125.538 35.378C124.29 35.378 123.282 35.09 122.514 34.514C121.758 33.926 121.326 33.314 121.218 32.678C121.17 32.378 121.248 32.162 121.452 32.03C121.656 31.898 121.866 31.922 122.082 32.102C122.886 32.774 123.768 33.11 124.728 33.11C125.328 33.11 125.85 32.942 126.294 32.606C126.738 32.27 127.002 31.802 127.086 31.202C127.17 30.65 127.038 30.188 126.69 29.816C126.342 29.444 125.676 29.168 124.692 28.988C124.452 28.928 124.338 28.772 124.35 28.52C124.374 28.268 124.47 28.076 124.638 27.944C125.826 27.02 126.636 26.348 127.068 25.928C126.996 25.916 126.852 25.88 126.636 25.82C126.42 25.748 126.24 25.694 126.096 25.658C125.964 25.622 125.784 25.592 125.556 25.568C125.328 25.532 125.106 25.514 124.89 25.514C124.362 25.514 123.918 25.664 123.558 25.964C123.498 26.012 123.426 26.078 123.342 26.162C123.258 26.234 123.192 26.288 123.144 26.324C123.108 26.36 123.06 26.402 123 26.45C122.94 26.486 122.886 26.516 122.838 26.54C122.79 26.552 122.742 26.558 122.694 26.558C122.334 26.558 122.232 26.198 122.388 25.478C122.616 24.446 122.928 23.672 123.324 23.156C123.72 22.628 124.284 22.364 125.016 22.364C125.508 22.364 126.252 22.508 127.248 22.796C128.244 23.084 128.988 23.228 129.48 23.228C129.648 23.228 129.9 23.126 130.236 22.922C130.572 22.706 130.824 22.598 130.992 22.598C131.268 22.598 131.418 22.718 131.442 22.958C131.478 23.198 131.424 23.384 131.28 23.516ZM146.856 32.948C146.868 33.44 146.604 33.938 146.064 34.442C145.536 34.934 144.834 35.18 143.958 35.18C143.514 35.18 143.124 35.066 142.788 34.838C142.464 34.598 142.254 34.238 142.158 33.758C141.366 34.706 140.424 35.18 139.332 35.18C138.432 35.18 137.7 34.874 137.136 34.262C136.572 33.65 136.29 32.864 136.29 31.904C136.29 30.32 136.848 28.97 137.964 27.854C139.08 26.738 140.304 26.18 141.636 26.18C142.068 26.18 142.482 26.246 142.878 26.378C143.286 26.498 143.526 26.558 143.598 26.558C143.73 26.558 144.012 26.486 144.444 26.342C144.888 26.198 145.2 26.126 145.38 26.126C145.62 26.126 145.8 26.204 145.92 26.36C146.04 26.516 146.088 26.69 146.064 26.882L145.308 32.066C145.224 32.678 145.338 32.984 145.65 32.984C145.77 32.984 145.914 32.9 146.082 32.732C146.262 32.564 146.4 32.48 146.496 32.48C146.736 32.48 146.856 32.636 146.856 32.948ZM140.466 33.182C140.958 33.182 141.366 32.87 141.69 32.246C142.014 31.622 142.248 30.842 142.392 29.906C142.632 28.31 142.338 27.512 141.51 27.512C140.91 27.512 140.436 27.902 140.088 28.682C139.752 29.45 139.572 30.38 139.548 31.472C139.536 31.964 139.608 32.372 139.764 32.696C139.92 33.02 140.154 33.182 140.466 33.182ZM152.626 35.18C151.366 35.192 150.322 34.862 149.494 34.19C148.678 33.518 148.27 32.57 148.27 31.346C148.27 29.99 148.84 28.79 149.98 27.746C151.12 26.702 152.446 26.18 153.958 26.18C156.274 26.18 157.432 26.804 157.432 28.052C157.432 28.604 157.252 29.084 156.892 29.492C156.544 29.888 156.088 30.17 155.524 30.338C156.64 30.554 157.198 31.148 157.198 32.12C157.198 32.96 156.766 33.68 155.902 34.28C155.05 34.868 153.958 35.168 152.626 35.18ZM152.626 33.866C152.986 33.866 153.274 33.716 153.49 33.416C153.718 33.116 153.832 32.732 153.832 32.264C153.832 31.964 153.73 31.706 153.526 31.49C153.334 31.274 153.058 31.142 152.698 31.094C152.374 31.058 152.212 30.908 152.212 30.644C152.2 30.488 152.254 30.344 152.374 30.212C152.494 30.068 152.656 29.984 152.86 29.96C153.868 29.78 154.372 29.222 154.372 28.286C154.372 27.746 154.108 27.476 153.58 27.476C153.148 27.476 152.758 27.716 152.41 28.196C152.074 28.664 151.828 29.222 151.672 29.87C151.516 30.518 151.438 31.166 151.438 31.814C151.438 33.182 151.834 33.866 152.626 33.866ZM161.645 35.18C160.589 35.18 159.857 34.982 159.449 34.586C159.041 34.19 158.837 33.728 158.837 33.2C158.837 32.984 158.867 32.774 158.927 32.57C158.987 32.366 159.089 32.174 159.233 31.994C159.377 31.802 159.509 31.64 159.629 31.508C159.749 31.376 159.929 31.226 160.169 31.058C160.409 30.89 160.589 30.764 160.709 30.68C160.841 30.596 161.045 30.47 161.321 30.302C161.609 30.134 161.795 30.026 161.879 29.978C162.683 29.486 163.085 29.054 163.085 28.682C163.085 28.502 163.031 28.364 162.923 28.268C162.827 28.172 162.731 28.118 162.635 28.106C162.551 28.094 162.431 28.088 162.275 28.088C161.723 28.088 161.003 28.322 160.115 28.79C159.791 28.97 159.545 29 159.377 28.88C159.209 28.76 159.191 28.55 159.323 28.25C159.551 27.686 160.037 27.206 160.781 26.81C161.525 26.402 162.365 26.198 163.301 26.198C164.225 26.198 164.933 26.366 165.425 26.702C165.917 27.026 166.163 27.464 166.163 28.016C166.163 28.352 166.097 28.664 165.965 28.952C165.833 29.228 165.599 29.51 165.263 29.798C164.927 30.074 164.681 30.266 164.525 30.374C164.381 30.47 164.075 30.662 163.607 30.95C163.103 31.238 162.731 31.49 162.491 31.706C162.251 31.91 162.131 32.138 162.131 32.39C162.131 32.822 162.401 33.038 162.941 33.038C163.889 33.038 164.741 32.75 165.497 32.174C165.749 31.994 165.941 31.97 166.073 32.102C166.205 32.222 166.205 32.432 166.073 32.732C165.797 33.38 165.263 33.95 164.471 34.442C163.691 34.934 162.749 35.18 161.645 35.18ZM175.248 26.126C175.716 26.126 176.064 26.288 176.292 26.612C176.52 26.924 176.634 27.296 176.634 27.728C176.634 28.748 176.316 30.014 175.68 31.526C175.056 33.038 174.474 34.214 173.934 35.054C172.374 37.538 170.604 38.78 168.624 38.78C167.88 38.78 167.31 38.6 166.914 38.24C166.506 37.88 166.302 37.418 166.302 36.854C166.302 36.326 166.44 35.918 166.716 35.63C166.98 35.342 167.292 35.198 167.652 35.198C167.88 35.198 168.09 35.27 168.282 35.414C168.474 35.57 168.612 35.768 168.696 36.008C168.72 36.068 168.756 36.17 168.804 36.314C168.852 36.458 168.882 36.56 168.894 36.62C168.918 36.68 168.954 36.758 169.002 36.854C169.062 36.95 169.122 37.016 169.182 37.052C169.242 37.088 169.32 37.124 169.416 37.16C169.512 37.196 169.626 37.214 169.758 37.214C169.962 37.214 170.154 37.136 170.334 36.98C170.514 36.836 170.628 36.638 170.676 36.386C170.748 36.002 170.718 35.444 170.586 34.712C170.238 32.948 169.644 31.13 168.804 29.258C168.636 28.874 168.48 28.628 168.336 28.52C168.192 28.4 167.976 28.322 167.688 28.286C167.532 28.274 167.418 28.226 167.346 28.142C167.274 28.046 167.238 27.956 167.238 27.872C167.238 27.524 167.598 27.158 168.318 26.774C169.038 26.378 169.65 26.18 170.154 26.18C170.61 26.18 170.958 26.468 171.198 27.044C171.966 28.916 172.644 31.034 173.232 33.398C173.976 32.138 174.348 30.998 174.348 29.978C174.348 29.606 174.222 29.186 173.97 28.718C173.73 28.238 173.61 27.878 173.61 27.638C173.61 27.218 173.79 26.864 174.15 26.576C174.51 26.276 174.876 26.126 175.248 26.126ZM181.856 35.18C180.608 35.18 179.642 34.832 178.958 34.136C178.274 33.428 177.932 32.522 177.932 31.418C177.932 29.978 178.454 28.748 179.498 27.728C180.542 26.696 181.76 26.18 183.152 26.18C184.112 26.18 184.922 26.432 185.582 26.936C186.242 27.428 186.578 28.058 186.59 28.826C186.602 29.414 186.44 29.9 186.104 30.284C185.768 30.668 185.348 30.836 184.844 30.788C184.124 30.692 183.764 30.248 183.764 29.456C183.752 28.244 183.422 27.638 182.774 27.638C182.342 27.638 181.97 27.914 181.658 28.466C181.358 29.018 181.208 29.666 181.208 30.41C181.208 31.202 181.412 31.82 181.82 32.264C182.24 32.696 182.852 32.912 183.656 32.912C184.328 32.912 184.994 32.678 185.654 32.21C185.894 32.03 186.08 32.012 186.212 32.156C186.344 32.288 186.338 32.504 186.194 32.804C185.918 33.428 185.396 33.98 184.628 34.46C183.86 34.94 182.936 35.18 181.856 35.18ZM203.006 32.462C203.246 32.462 203.366 32.612 203.366 32.912C203.366 33.428 203.096 33.938 202.556 34.442C202.028 34.934 201.314 35.18 200.414 35.18C199.814 35.18 199.352 34.97 199.028 34.55C198.716 34.13 198.632 33.488 198.776 32.624L199.118 30.716C199.31 29.756 199.4 29.102 199.388 28.754C199.388 28.394 199.244 28.214 198.956 28.214C198.848 28.214 198.728 28.244 198.596 28.304C198.476 28.364 198.32 28.502 198.128 28.718C197.948 28.922 197.768 29.198 197.588 29.546C197.408 29.882 197.216 30.368 197.012 31.004C196.82 31.64 196.64 32.372 196.472 33.2L196.31 34.082C196.226 34.418 196.022 34.622 195.698 34.694L193.61 35.18C193.43 35.216 193.292 35.174 193.196 35.054C193.1 34.934 193.07 34.772 193.106 34.568L193.862 30.716C193.982 30.08 194.048 29.582 194.06 29.222C194.084 28.85 194.06 28.592 193.988 28.448C193.916 28.292 193.79 28.214 193.61 28.214C193.502 28.214 193.388 28.244 193.268 28.304C193.148 28.364 192.998 28.502 192.818 28.718C192.638 28.922 192.464 29.198 192.296 29.546C192.14 29.882 191.966 30.368 191.774 31.004C191.582 31.628 191.402 32.36 191.234 33.2L191.054 34.082C190.982 34.418 190.778 34.622 190.442 34.694L188.372 35.18C188.192 35.216 188.048 35.174 187.94 35.054C187.844 34.934 187.814 34.772 187.85 34.568L188.714 29.348C188.762 29.084 188.75 28.874 188.678 28.718C188.618 28.55 188.528 28.448 188.408 28.412C188.3 28.364 188.198 28.292 188.102 28.196C188.006 28.1 187.958 27.98 187.958 27.836C187.958 27.656 188.066 27.476 188.282 27.296C188.498 27.116 188.954 26.882 189.65 26.594C190.418 26.306 190.958 26.162 191.27 26.162C191.726 26.162 191.93 26.39 191.882 26.846L191.738 27.98C192.182 27.356 192.68 26.9 193.232 26.612C193.796 26.312 194.336 26.162 194.852 26.162C195.428 26.162 195.914 26.318 196.31 26.63C196.706 26.93 196.982 27.344 197.138 27.872C197.522 27.32 197.996 26.9 198.56 26.612C199.124 26.312 199.706 26.162 200.306 26.162C201.11 26.162 201.722 26.522 202.142 27.242C202.574 27.95 202.682 28.832 202.466 29.888L201.998 32.066C201.926 32.426 201.902 32.672 201.926 32.804C201.95 32.936 202.028 33.002 202.16 33.002C202.28 33.002 202.424 32.912 202.592 32.732C202.772 32.552 202.91 32.462 203.006 32.462ZM215.549 32.948C215.561 33.44 215.297 33.938 214.757 34.442C214.229 34.934 213.527 35.18 212.651 35.18C212.207 35.18 211.817 35.066 211.481 34.838C211.157 34.598 210.947 34.238 210.851 33.758C210.059 34.706 209.117 35.18 208.025 35.18C207.125 35.18 206.393 34.874 205.829 34.262C205.265 33.65 204.983 32.864 204.983 31.904C204.983 30.32 205.541 28.97 206.657 27.854C207.773 26.738 208.997 26.18 210.329 26.18C210.761 26.18 211.175 26.246 211.571 26.378C211.979 26.498 212.219 26.558 212.291 26.558C212.423 26.558 212.705 26.486 213.137 26.342C213.581 26.198 213.893 26.126 214.073 26.126C214.313 26.126 214.493 26.204 214.613 26.36C214.733 26.516 214.781 26.69 214.757 26.882L214.001 32.066C213.917 32.678 214.031 32.984 214.343 32.984C214.463 32.984 214.607 32.9 214.775 32.732C214.955 32.564 215.093 32.48 215.189 32.48C215.429 32.48 215.549 32.636 215.549 32.948ZM209.159 33.182C209.651 33.182 210.059 32.87 210.383 32.246C210.707 31.622 210.941 30.842 211.085 29.906C211.325 28.31 211.031 27.512 210.203 27.512C209.603 27.512 209.129 27.902 208.781 28.682C208.445 29.45 208.265 30.38 208.241 31.472C208.229 31.964 208.301 32.372 208.457 32.696C208.613 33.02 208.847 33.182 209.159 33.182ZM114.186 55.48C114.426 55.48 114.546 55.636 114.546 55.948C114.546 56.44 114.27 56.938 113.718 57.442C113.178 57.934 112.458 58.18 111.558 58.18C110.946 58.18 110.466 57.976 110.118 57.568C109.782 57.148 109.68 56.512 109.812 55.66L110.028 54.166H107.472L107.094 57.064C107.046 57.412 106.848 57.622 106.5 57.694L104.412 58.18C104.244 58.216 104.106 58.174 103.998 58.054C103.902 57.934 103.872 57.772 103.908 57.568L104.61 52.366C104.646 52.102 104.628 51.892 104.556 51.736C104.496 51.568 104.412 51.466 104.304 51.43C104.196 51.382 104.094 51.31 103.998 51.214C103.902 51.118 103.854 50.998 103.854 50.854C103.854 50.662 103.95 50.482 104.142 50.314C104.346 50.134 104.742 49.936 105.33 49.72C106.29 49.372 107.016 49.198 107.508 49.198C107.928 49.198 108.108 49.414 108.048 49.846L107.652 52.834H110.226L110.586 50.332C110.634 49.972 110.832 49.756 111.18 49.684L113.232 49.198C113.412 49.162 113.55 49.204 113.646 49.324C113.742 49.444 113.778 49.6 113.754 49.792L113.016 55.066C112.908 55.678 113.016 55.984 113.34 55.984C113.46 55.984 113.604 55.9 113.772 55.732C113.952 55.564 114.09 55.48 114.186 55.48ZM126.593 55.948C126.605 56.44 126.341 56.938 125.801 57.442C125.273 57.934 124.571 58.18 123.695 58.18C123.251 58.18 122.861 58.066 122.525 57.838C122.201 57.598 121.991 57.238 121.895 56.758C121.103 57.706 120.161 58.18 119.069 58.18C118.169 58.18 117.437 57.874 116.873 57.262C116.309 56.65 116.027 55.864 116.027 54.904C116.027 53.32 116.585 51.97 117.701 50.854C118.817 49.738 120.041 49.18 121.373 49.18C121.805 49.18 122.219 49.246 122.615 49.378C123.023 49.498 123.263 49.558 123.335 49.558C123.467 49.558 123.749 49.486 124.181 49.342C124.625 49.198 124.937 49.126 125.117 49.126C125.357 49.126 125.537 49.204 125.657 49.36C125.777 49.516 125.825 49.69 125.801 49.882L125.045 55.066C124.961 55.678 125.075 55.984 125.387 55.984C125.507 55.984 125.651 55.9 125.819 55.732C125.999 55.564 126.137 55.48 126.233 55.48C126.473 55.48 126.593 55.636 126.593 55.948ZM120.203 56.182C120.695 56.182 121.103 55.87 121.427 55.246C121.751 54.622 121.985 53.842 122.129 52.906C122.369 51.31 122.075 50.512 121.247 50.512C120.647 50.512 120.173 50.902 119.825 51.682C119.489 52.45 119.309 53.38 119.285 54.472C119.273 54.964 119.345 55.372 119.501 55.696C119.657 56.02 119.891 56.182 120.203 56.182ZM135.374 58.18C134.75 58.18 134.258 57.964 133.898 57.532C133.538 57.1 133.43 56.452 133.574 55.588L133.862 53.914C133.154 54.79 132.29 55.228 131.27 55.228C130.406 55.228 129.722 55.036 129.218 54.652C128.726 54.256 128.48 53.734 128.48 53.086C128.48 52.834 128.492 52.576 128.516 52.312C128.588 51.82 128.48 51.508 128.192 51.376C127.904 51.208 127.76 51.028 127.76 50.836C127.76 50.716 127.79 50.608 127.85 50.512C127.91 50.404 128.072 50.272 128.336 50.116C128.6 49.948 128.972 49.78 129.452 49.612C130.268 49.312 130.946 49.162 131.486 49.162C131.906 49.162 132.092 49.39 132.044 49.846L131.774 52.042C131.762 52.282 131.75 52.534 131.738 52.798C131.726 53.062 131.78 53.29 131.9 53.482C132.02 53.674 132.206 53.77 132.458 53.77C132.878 53.77 133.244 53.542 133.556 53.086C133.868 52.63 134.06 52.132 134.132 51.592L134.294 50.296C134.33 49.972 134.522 49.768 134.87 49.684L137.066 49.198C137.246 49.162 137.384 49.204 137.48 49.324C137.576 49.444 137.612 49.6 137.588 49.792L136.868 55.066C136.796 55.678 136.892 55.984 137.156 55.984C137.276 55.984 137.42 55.9 137.588 55.732C137.768 55.564 137.906 55.48 138.002 55.48C138.242 55.48 138.362 55.636 138.362 55.948C138.362 56.44 138.086 56.938 137.534 57.442C136.994 57.934 136.274 58.18 135.374 58.18ZM150.123 55.48C150.363 55.48 150.483 55.636 150.483 55.948C150.483 56.44 150.207 56.938 149.655 57.442C149.115 57.934 148.395 58.18 147.495 58.18C146.883 58.18 146.403 57.976 146.055 57.568C145.719 57.148 145.617 56.512 145.749 55.66L145.965 54.166H143.409L143.031 57.064C142.983 57.412 142.785 57.622 142.437 57.694L140.349 58.18C140.181 58.216 140.043 58.174 139.935 58.054C139.839 57.934 139.809 57.772 139.845 57.568L140.547 52.366C140.583 52.102 140.565 51.892 140.493 51.736C140.433 51.568 140.349 51.466 140.241 51.43C140.133 51.382 140.031 51.31 139.935 51.214C139.839 51.118 139.791 50.998 139.791 50.854C139.791 50.662 139.887 50.482 140.079 50.314C140.283 50.134 140.679 49.936 141.267 49.72C142.227 49.372 142.953 49.198 143.445 49.198C143.865 49.198 144.045 49.414 143.985 49.846L143.589 52.834H146.163L146.523 50.332C146.571 49.972 146.769 49.756 147.117 49.684L149.169 49.198C149.349 49.162 149.487 49.204 149.583 49.324C149.679 49.444 149.715 49.6 149.691 49.792L148.953 55.066C148.845 55.678 148.953 55.984 149.277 55.984C149.397 55.984 149.541 55.9 149.709 55.732C149.889 55.564 150.027 55.48 150.123 55.48ZM159.579 55.354C159.831 55.174 160.047 55.144 160.227 55.264C160.419 55.384 160.431 55.582 160.263 55.858C159.855 56.542 159.273 57.1 158.517 57.532C157.773 57.964 156.915 58.18 155.943 58.18C154.683 58.18 153.711 57.85 153.027 57.19C152.355 56.53 152.019 55.624 152.019 54.472C152.019 53.044 152.535 51.808 153.567 50.764C154.611 49.708 155.865 49.18 157.329 49.18C158.289 49.18 159.057 49.414 159.633 49.882C160.209 50.338 160.497 50.908 160.497 51.592C160.497 52.264 160.215 52.858 159.651 53.374C159.099 53.878 158.433 54.244 157.653 54.472C156.885 54.688 156.111 54.778 155.331 54.742C155.631 55.606 156.309 56.038 157.365 56.038C158.217 56.038 158.955 55.81 159.579 55.354ZM156.987 50.566C156.399 50.566 155.943 50.848 155.619 51.412C155.295 51.976 155.133 52.558 155.133 53.158C155.133 53.338 155.235 53.428 155.439 53.428C156.075 53.452 156.669 53.29 157.221 52.942C157.785 52.582 158.055 52.114 158.031 51.538C158.019 51.274 157.923 51.046 157.743 50.854C157.563 50.662 157.311 50.566 156.987 50.566ZM177.303 55.462C177.543 55.462 177.663 55.612 177.663 55.912C177.663 56.428 177.393 56.938 176.853 57.442C176.325 57.934 175.611 58.18 174.711 58.18C174.111 58.18 173.649 57.97 173.325 57.55C173.013 57.13 172.929 56.488 173.073 55.624L173.415 53.716C173.607 52.756 173.697 52.102 173.685 51.754C173.685 51.394 173.541 51.214 173.253 51.214C173.145 51.214 173.025 51.244 172.893 51.304C172.773 51.364 172.617 51.502 172.425 51.718C172.245 51.922 172.065 52.198 171.885 52.546C171.705 52.882 171.513 53.368 171.309 54.004C171.117 54.64 170.937 55.372 170.769 56.2L170.607 57.082C170.523 57.418 170.319 57.622 169.995 57.694L167.907 58.18C167.727 58.216 167.589 58.174 167.493 58.054C167.397 57.934 167.367 57.772 167.403 57.568L168.159 53.716C168.279 53.08 168.345 52.582 168.357 52.222C168.381 51.85 168.357 51.592 168.285 51.448C168.213 51.292 168.087 51.214 167.907 51.214C167.799 51.214 167.685 51.244 167.565 51.304C167.445 51.364 167.295 51.502 167.115 51.718C166.935 51.922 166.761 52.198 166.593 52.546C166.437 52.882 166.263 53.368 166.071 54.004C165.879 54.628 165.699 55.36 165.531 56.2L165.351 57.082C165.279 57.418 165.075 57.622 164.739 57.694L162.669 58.18C162.489 58.216 162.345 58.174 162.237 58.054C162.141 57.934 162.111 57.772 162.147 57.568L163.011 52.348C163.059 52.084 163.047 51.874 162.975 51.718C162.915 51.55 162.825 51.448 162.705 51.412C162.597 51.364 162.495 51.292 162.399 51.196C162.303 51.1 162.255 50.98 162.255 50.836C162.255 50.656 162.363 50.476 162.579 50.296C162.795 50.116 163.251 49.882 163.947 49.594C164.715 49.306 165.255 49.162 165.567 49.162C166.023 49.162 166.227 49.39 166.179 49.846L166.035 50.98C166.479 50.356 166.977 49.9 167.529 49.612C168.093 49.312 168.633 49.162 169.149 49.162C169.725 49.162 170.211 49.318 170.607 49.63C171.003 49.93 171.279 50.344 171.435 50.872C171.819 50.32 172.293 49.9 172.857 49.612C173.421 49.312 174.003 49.162 174.603 49.162C175.407 49.162 176.019 49.522 176.439 50.242C176.871 50.95 176.979 51.832 176.763 52.888L176.295 55.066C176.223 55.426 176.199 55.672 176.223 55.804C176.247 55.936 176.325 56.002 176.457 56.002C176.577 56.002 176.721 55.912 176.889 55.732C177.069 55.552 177.207 55.462 177.303 55.462ZM93.1331 78.462C93.3731 78.462 93.4931 78.612 93.4931 78.912C93.4931 79.428 93.2231 79.938 92.6831 80.442C92.1551 80.934 91.4411 81.18 90.5411 81.18C89.9411 81.18 89.4791 80.97 89.1551 80.55C88.8431 80.13 88.7591 79.488 88.9031 78.624L89.2451 76.716C89.4371 75.756 89.5271 75.102 89.5151 74.754C89.5151 74.394 89.3711 74.214 89.0831 74.214C88.9751 74.214 88.8551 74.244 88.7231 74.304C88.6031 74.364 88.4471 74.502 88.2551 74.718C88.0751 74.922 87.8951 75.198 87.7151 75.546C87.5351 75.882 87.3431 76.368 87.1391 77.004C86.9471 77.64 86.7671 78.372 86.5991 79.2L86.4371 80.082C86.3531 80.418 86.1491 80.622 85.8251 80.694L83.7371 81.18C83.5571 81.216 83.4191 81.174 83.3231 81.054C83.2271 80.934 83.1971 80.772 83.2331 80.568L83.9891 76.716C84.1091 76.08 84.1751 75.582 84.1871 75.222C84.2111 74.85 84.1871 74.592 84.1151 74.448C84.0431 74.292 83.9171 74.214 83.7371 74.214C83.6291 74.214 83.5151 74.244 83.3951 74.304C83.2751 74.364 83.1251 74.502 82.9451 74.718C82.7651 74.922 82.5911 75.198 82.4231 75.546C82.2671 75.882 82.0931 76.368 81.9011 77.004C81.7091 77.628 81.5291 78.36 81.3611 79.2L81.1811 80.082C81.1091 80.418 80.9051 80.622 80.5691 80.694L78.4991 81.18C78.3191 81.216 78.1751 81.174 78.0671 81.054C77.9711 80.934 77.9411 80.772 77.9771 80.568L78.8411 75.348C78.8891 75.084 78.8771 74.874 78.8051 74.718C78.7451 74.55 78.6551 74.448 78.5351 74.412C78.4271 74.364 78.3251 74.292 78.2291 74.196C78.1331 74.1 78.0851 73.98 78.0851 73.836C78.0851 73.656 78.1931 73.476 78.4091 73.296C78.6251 73.116 79.0811 72.882 79.7771 72.594C80.5451 72.306 81.0851 72.162 81.3971 72.162C81.8531 72.162 82.0571 72.39 82.0091 72.846L81.8651 73.98C82.3091 73.356 82.8071 72.9 83.3591 72.612C83.9231 72.312 84.4631 72.162 84.9791 72.162C85.5551 72.162 86.0411 72.318 86.4371 72.63C86.8331 72.93 87.1091 73.344 87.2651 73.872C87.6491 73.32 88.1231 72.9 88.6871 72.612C89.2511 72.312 89.8331 72.162 90.4331 72.162C91.2371 72.162 91.8491 72.522 92.2691 73.242C92.7011 73.95 92.8091 74.832 92.5931 75.888L92.1251 78.066C92.0531 78.426 92.0291 78.672 92.0531 78.804C92.0771 78.936 92.1551 79.002 92.2871 79.002C92.4071 79.002 92.5511 78.912 92.7191 78.732C92.8991 78.552 93.0371 78.462 93.1331 78.462ZM101.284 74.484C101.98 74.484 102.562 74.7 103.03 75.132C103.498 75.552 103.732 76.098 103.732 76.77C103.732 77.658 103.462 78.45 102.922 79.146C102.394 79.842 101.752 80.358 100.996 80.694C100.252 81.018 99.4964 81.18 98.7284 81.18C97.4804 81.18 96.5684 80.892 95.9924 80.316C95.4164 79.728 95.2244 78.858 95.4164 77.706L95.8124 75.312C95.8964 74.808 95.7884 74.496 95.4884 74.376C95.2004 74.208 95.0564 74.028 95.0564 73.836C95.0564 73.716 95.0864 73.608 95.1464 73.512C95.2064 73.404 95.3684 73.266 95.6324 73.098C95.8964 72.93 96.2684 72.762 96.7484 72.594C97.5764 72.306 98.2544 72.162 98.7824 72.162C99.2264 72.162 99.4064 72.39 99.3224 72.846L98.9264 75.402C99.6344 74.79 100.42 74.484 101.284 74.484ZM108.916 78.948C108.928 79.44 108.658 79.938 108.106 80.442C107.566 80.934 106.846 81.18 105.946 81.18C105.334 81.18 104.854 80.976 104.506 80.568C104.158 80.148 104.05 79.512 104.182 78.66L104.956 73.332C105.004 72.984 105.208 72.768 105.568 72.684L107.62 72.198C107.788 72.162 107.92 72.204 108.016 72.324C108.124 72.444 108.166 72.6 108.142 72.792L107.386 78.066C107.302 78.678 107.416 78.984 107.728 78.984C107.848 78.984 107.992 78.9 108.16 78.732C108.328 78.564 108.46 78.48 108.556 78.48C108.796 78.48 108.916 78.636 108.916 78.948ZM100.582 77.274C100.606 76.614 100.396 76.284 99.9524 76.284C99.5684 76.284 99.2324 76.578 98.9444 77.166C98.6564 77.754 98.5184 78.312 98.5304 78.84C98.5424 79.116 98.6084 79.35 98.7284 79.542C98.8484 79.722 99.0224 79.806 99.2504 79.794C99.6104 79.794 99.9224 79.524 100.186 78.984C100.45 78.444 100.582 77.874 100.582 77.274ZM117.81 81.144C116.97 81.144 116.382 80.964 116.046 80.604C115.722 80.244 115.464 79.596 115.272 78.66C115.26 78.588 115.236 78.456 115.2 78.264C115.176 78.072 115.146 77.934 115.11 77.85C115.086 77.766 115.044 77.664 114.984 77.544C114.924 77.412 114.834 77.322 114.714 77.274C114.606 77.226 114.462 77.202 114.282 77.202C114.174 77.202 114.096 77.238 114.048 77.31C114.012 77.37 113.976 77.514 113.94 77.742L113.868 78.354C113.832 78.594 113.82 78.804 113.832 78.984C113.844 79.272 113.958 79.53 114.174 79.758C114.402 79.974 114.498 80.208 114.462 80.46C114.414 80.82 114.102 81 113.526 81H110.286C109.962 81 109.734 80.958 109.602 80.874C109.458 80.79 109.398 80.64 109.422 80.424C109.446 80.232 109.53 80.082 109.674 79.974C109.806 79.854 109.956 79.722 110.124 79.578C110.292 79.422 110.418 79.224 110.502 78.984C110.574 78.672 110.622 78.462 110.646 78.354L111.096 75.006C111.132 74.766 111.144 74.55 111.132 74.358C111.12 74.07 111 73.818 110.772 73.602C110.556 73.386 110.466 73.152 110.502 72.9C110.55 72.54 110.862 72.36 111.438 72.36H114.678C115.002 72.36 115.23 72.402 115.362 72.486C115.506 72.57 115.566 72.714 115.542 72.918C115.506 73.146 115.338 73.374 115.038 73.602C114.75 73.818 114.558 74.07 114.462 74.358C114.378 74.73 114.33 74.946 114.318 75.006L114.264 75.492C114.24 75.66 114.246 75.762 114.282 75.798C114.318 75.834 114.414 75.852 114.57 75.852H114.75C115.026 75.852 115.278 75.726 115.506 75.474C115.746 75.222 115.962 74.916 116.154 74.556C116.346 74.196 116.556 73.836 116.784 73.476C117.012 73.116 117.312 72.81 117.684 72.558C118.056 72.306 118.482 72.18 118.962 72.18C119.454 72.18 119.844 72.33 120.132 72.63C120.42 72.93 120.522 73.356 120.438 73.908C120.39 74.328 120.234 74.658 119.97 74.898C119.718 75.138 119.43 75.258 119.106 75.258C118.938 75.258 118.794 75.216 118.674 75.132C118.566 75.036 118.488 74.94 118.44 74.844C118.404 74.736 118.344 74.64 118.26 74.556C118.188 74.46 118.098 74.412 117.99 74.412C117.822 74.412 117.648 74.55 117.468 74.826C117.3 75.102 117.09 75.426 116.838 75.798C116.586 76.17 116.31 76.434 116.01 76.59C116.706 76.65 117.222 76.842 117.558 77.166C117.894 77.478 118.152 77.952 118.332 78.588C118.416 78.876 118.5 79.11 118.584 79.29C118.668 79.47 118.764 79.596 118.872 79.668C118.98 79.74 119.064 79.788 119.124 79.812C119.196 79.824 119.304 79.83 119.448 79.83C119.712 79.854 119.832 80.01 119.808 80.298C119.772 80.538 119.574 80.742 119.214 80.91C118.866 81.066 118.398 81.144 117.81 81.144ZM132.096 78.948C132.108 79.44 131.844 79.938 131.304 80.442C130.776 80.934 130.074 81.18 129.198 81.18C128.754 81.18 128.364 81.066 128.028 80.838C127.704 80.598 127.494 80.238 127.398 79.758C126.606 80.706 125.664 81.18 124.572 81.18C123.672 81.18 122.94 80.874 122.376 80.262C121.812 79.65 121.53 78.864 121.53 77.904C121.53 76.32 122.088 74.97 123.204 73.854C124.32 72.738 125.544 72.18 126.876 72.18C127.308 72.18 127.722 72.246 128.118 72.378C128.526 72.498 128.766 72.558 128.838 72.558C128.97 72.558 129.252 72.486 129.684 72.342C130.128 72.198 130.44 72.126 130.62 72.126C130.86 72.126 131.04 72.204 131.16 72.36C131.28 72.516 131.328 72.69 131.304 72.882L130.548 78.066C130.464 78.678 130.578 78.984 130.89 78.984C131.01 78.984 131.154 78.9 131.322 78.732C131.502 78.564 131.64 78.48 131.736 78.48C131.976 78.48 132.096 78.636 132.096 78.948ZM125.706 79.182C126.198 79.182 126.606 78.87 126.93 78.246C127.254 77.622 127.488 76.842 127.632 75.906C127.872 74.31 127.578 73.512 126.75 73.512C126.15 73.512 125.676 73.902 125.328 74.682C124.992 75.45 124.812 76.38 124.788 77.472C124.776 77.964 124.848 78.372 125.004 78.696C125.16 79.02 125.394 79.182 125.706 79.182ZM148.802 78.462C149.042 78.462 149.162 78.612 149.162 78.912C149.162 79.428 148.892 79.938 148.352 80.442C147.824 80.934 147.11 81.18 146.21 81.18C145.61 81.18 145.148 80.97 144.824 80.55C144.512 80.13 144.428 79.488 144.572 78.624L144.914 76.716C145.106 75.756 145.196 75.102 145.184 74.754C145.184 74.394 145.04 74.214 144.752 74.214C144.644 74.214 144.524 74.244 144.392 74.304C144.272 74.364 144.116 74.502 143.924 74.718C143.744 74.922 143.564 75.198 143.384 75.546C143.204 75.882 143.012 76.368 142.808 77.004C142.616 77.64 142.436 78.372 142.268 79.2L142.106 80.082C142.022 80.418 141.818 80.622 141.494 80.694L139.406 81.18C139.226 81.216 139.088 81.174 138.992 81.054C138.896 80.934 138.866 80.772 138.902 80.568L139.658 76.716C139.778 76.08 139.844 75.582 139.856 75.222C139.88 74.85 139.856 74.592 139.784 74.448C139.712 74.292 139.586 74.214 139.406 74.214C139.298 74.214 139.184 74.244 139.064 74.304C138.944 74.364 138.794 74.502 138.614 74.718C138.434 74.922 138.26 75.198 138.092 75.546C137.936 75.882 137.762 76.368 137.57 77.004C137.378 77.628 137.198 78.36 137.03 79.2L136.85 80.082C136.778 80.418 136.574 80.622 136.238 80.694L134.168 81.18C133.988 81.216 133.844 81.174 133.736 81.054C133.64 80.934 133.61 80.772 133.646 80.568L134.51 75.348C134.558 75.084 134.546 74.874 134.474 74.718C134.414 74.55 134.324 74.448 134.204 74.412C134.096 74.364 133.994 74.292 133.898 74.196C133.802 74.1 133.754 73.98 133.754 73.836C133.754 73.656 133.862 73.476 134.078 73.296C134.294 73.116 134.75 72.882 135.446 72.594C136.214 72.306 136.754 72.162 137.066 72.162C137.522 72.162 137.726 72.39 137.678 72.846L137.534 73.98C137.978 73.356 138.476 72.9 139.028 72.612C139.592 72.312 140.132 72.162 140.648 72.162C141.224 72.162 141.71 72.318 142.106 72.63C142.502 72.93 142.778 73.344 142.934 73.872C143.318 73.32 143.792 72.9 144.356 72.612C144.92 72.312 145.502 72.162 146.102 72.162C146.906 72.162 147.518 72.522 147.938 73.242C148.37 73.95 148.478 74.832 148.262 75.888L147.794 78.066C147.722 78.426 147.698 78.672 147.722 78.804C147.746 78.936 147.824 79.002 147.956 79.002C148.076 79.002 148.22 78.912 148.388 78.732C148.568 78.552 148.706 78.462 148.802 78.462ZM156.953 74.484C157.649 74.484 158.231 74.7 158.699 75.132C159.167 75.552 159.401 76.098 159.401 76.77C159.401 77.658 159.131 78.45 158.591 79.146C158.063 79.842 157.421 80.358 156.665 80.694C155.921 81.018 155.165 81.18 154.397 81.18C153.149 81.18 152.237 80.892 151.661 80.316C151.085 79.728 150.893 78.858 151.085 77.706L151.481 75.312C151.565 74.808 151.457 74.496 151.157 74.376C150.869 74.208 150.725 74.028 150.725 73.836C150.725 73.716 150.755 73.608 150.815 73.512C150.875 73.404 151.037 73.266 151.301 73.098C151.565 72.93 151.937 72.762 152.417 72.594C153.245 72.306 153.923 72.162 154.451 72.162C154.895 72.162 155.075 72.39 154.991 72.846L154.595 75.402C155.303 74.79 156.089 74.484 156.953 74.484ZM156.251 77.274C156.275 76.614 156.065 76.284 155.621 76.284C155.237 76.284 154.901 76.578 154.613 77.166C154.325 77.754 154.187 78.312 154.199 78.84C154.211 79.116 154.277 79.35 154.397 79.542C154.517 79.722 154.691 79.806 154.919 79.794C155.279 79.794 155.591 79.524 155.855 78.984C156.119 78.444 156.251 77.874 156.251 77.274ZM164.679 81.18C163.431 81.18 162.465 80.832 161.781 80.136C161.097 79.428 160.755 78.522 160.755 77.418C160.755 75.978 161.277 74.748 162.321 73.728C163.365 72.696 164.583 72.18 165.975 72.18C166.935 72.18 167.745 72.432 168.405 72.936C169.065 73.428 169.401 74.058 169.413 74.826C169.425 75.414 169.263 75.9 168.927 76.284C168.591 76.668 168.171 76.836 167.667 76.788C166.947 76.692 166.587 76.248 166.587 75.456C166.575 74.244 166.245 73.638 165.597 73.638C165.165 73.638 164.793 73.914 164.481 74.466C164.181 75.018 164.031 75.666 164.031 76.41C164.031 77.202 164.235 77.82 164.643 78.264C165.063 78.696 165.675 78.912 166.479 78.912C167.151 78.912 167.817 78.678 168.477 78.21C168.717 78.03 168.903 78.012 169.035 78.156C169.167 78.288 169.161 78.504 169.017 78.804C168.741 79.428 168.219 79.98 167.451 80.46C166.683 80.94 165.759 81.18 164.679 81.18ZM178.197 81.18C177.573 81.18 177.087 80.976 176.739 80.568C176.403 80.148 176.313 79.494 176.469 78.606L176.577 77.958C176.625 77.742 176.541 77.634 176.325 77.634C176.229 77.634 176.157 77.646 176.109 77.67C175.965 77.706 175.827 77.79 175.695 77.922C175.575 78.054 175.479 78.186 175.407 78.318C175.347 78.45 175.245 78.66 175.101 78.948C174.969 79.236 174.861 79.464 174.777 79.632C174.525 80.112 174.201 80.484 173.805 80.748C173.421 81.012 172.827 81.144 172.023 81.144C170.763 81.144 170.169 80.922 170.241 80.478C170.277 80.202 170.445 80.034 170.745 79.974C170.961 79.902 171.105 79.848 171.177 79.812C171.249 79.776 171.363 79.686 171.519 79.542C171.675 79.398 171.837 79.188 172.005 78.912C172.413 78.252 172.869 77.766 173.373 77.454C172.293 77.034 171.831 76.284 171.987 75.204C172.107 74.328 172.575 73.638 173.391 73.134C174.207 72.618 175.239 72.36 176.487 72.36H180.591C181.191 72.36 181.473 72.522 181.437 72.846C181.413 73.026 181.227 73.26 180.879 73.548C180.543 73.836 180.351 74.154 180.303 74.502L179.799 78.066C179.739 78.438 179.721 78.684 179.745 78.804C179.769 78.924 179.847 78.984 179.979 78.984C180.099 78.984 180.243 78.9 180.411 78.732C180.591 78.564 180.729 78.48 180.825 78.48C181.065 78.48 181.185 78.636 181.185 78.948C181.197 79.44 180.927 79.938 180.375 80.442C179.835 80.934 179.109 81.18 178.197 81.18ZM176.145 76.356C176.349 76.356 176.493 76.32 176.577 76.248C176.673 76.176 176.733 76.044 176.757 75.852L176.991 74.358C177.051 74.142 177.057 73.968 177.009 73.836C176.961 73.692 176.799 73.62 176.523 73.62C176.187 73.62 175.905 73.74 175.677 73.98C175.449 74.22 175.299 74.568 175.227 75.024C175.167 75.432 175.233 75.756 175.425 75.996C175.629 76.236 175.869 76.356 176.145 76.356ZM184.15 81.216C183.718 81.216 183.358 81.09 183.07 80.838C182.794 80.574 182.656 80.202 182.656 79.722C182.656 79.158 182.848 78.702 183.232 78.354C183.628 78.006 184.078 77.832 184.582 77.832C185.002 77.832 185.35 77.97 185.626 78.246C185.914 78.51 186.058 78.882 186.058 79.362C186.058 79.926 185.866 80.376 185.482 80.712C185.11 81.048 184.666 81.216 184.15 81.216ZM189.748 81.216C189.316 81.216 188.956 81.09 188.668 80.838C188.392 80.574 188.254 80.202 188.254 79.722C188.254 79.158 188.446 78.702 188.83 78.354C189.226 78.006 189.676 77.832 190.18 77.832C190.6 77.832 190.948 77.97 191.224 78.246C191.512 78.51 191.656 78.882 191.656 79.362C191.656 79.926 191.464 80.376 191.08 80.712C190.708 81.048 190.264 81.216 189.748 81.216ZM195.346 81.216C194.914 81.216 194.554 81.09 194.266 80.838C193.99 80.574 193.852 80.202 193.852 79.722C193.852 79.158 194.044 78.702 194.428 78.354C194.824 78.006 195.274 77.832 195.778 77.832C196.198 77.832 196.546 77.97 196.822 78.246C197.11 78.51 197.254 78.882 197.254 79.362C197.254 79.926 197.062 80.376 196.678 80.712C196.306 81.048 195.862 81.216 195.346 81.216ZM200.945 81.216C200.513 81.216 200.153 81.09 199.865 80.838C199.589 80.574 199.451 80.202 199.451 79.722C199.451 79.158 199.643 78.702 200.027 78.354C200.423 78.006 200.873 77.832 201.377 77.832C201.797 77.832 202.145 77.97 202.421 78.246C202.709 78.51 202.853 78.882 202.853 79.362C202.853 79.926 202.661 80.376 202.277 80.712C201.905 81.048 201.461 81.216 200.945 81.216Z" fill="#C5FF71"/>
</svg>
