<svg width="252" height="126" viewBox="0 0 252 126" fill="none" xmlns="http://www.w3.org/2000/svg">
<path d="M31.4987 57.6574C25.2465 70.7225 7.13944 56.1262 1.58214 49.7005C17.5018 49.0436 29.2969 32.5481 33.2045 24.3824C33.4312 28.36 37.7508 44.5924 31.4987 57.6574Z" fill="#C5FF71"/>
<rect x="26.0464" y="2.00812" width="223.491" height="103.519" rx="51.7593" fill="#6932FF" stroke="#C5FF71" stroke-width="3"/>
<path d="M72.2449 38.4778C70.5649 38.4898 69.1789 37.9798 68.0869 36.9478C67.0069 35.9038 66.4669 34.5658 66.4669 32.9338C66.4669 30.9538 67.1809 29.2378 68.6089 27.7858C70.0489 26.3338 71.7949 25.6078 73.8469 25.6078C75.5629 25.6078 76.9249 26.1298 77.9329 27.1738C78.9529 28.2178 79.4629 29.5678 79.4629 31.2238C79.4629 33.2398 78.7669 34.9498 77.3749 36.3538C75.9829 37.7578 74.2729 38.4658 72.2449 38.4778ZM72.7849 36.6418C73.2889 36.6418 73.7389 36.4798 74.1349 36.1558C74.5309 35.8318 74.8429 35.4118 75.0709 34.8958C75.2989 34.3678 75.4729 33.7978 75.5929 33.1858C75.7129 32.5738 75.7729 31.9438 75.7729 31.2958C75.7729 30.0958 75.5629 29.1238 75.1429 28.3798C74.7349 27.6358 74.1109 27.2638 73.2709 27.2638C72.3109 27.2638 71.5369 27.8398 70.9489 28.9918C70.3729 30.1438 70.0849 31.4038 70.0849 32.7718C70.0849 33.9118 70.3249 34.8418 70.8049 35.5618C71.2969 36.2818 71.9569 36.6418 72.7849 36.6418ZM90.8279 35.8318C91.0679 35.8318 91.1879 35.9878 91.1879 36.2998C91.1879 36.7918 90.9119 37.2898 90.3599 37.7938C89.8199 38.2858 89.0999 38.5318 88.1999 38.5318C87.5879 38.5318 87.1079 38.3278 86.7599 37.9198C86.4239 37.4998 86.3219 36.8638 86.4539 36.0118L86.6699 34.5178H84.1139L83.7359 37.4158C83.6879 37.7638 83.4899 37.9738 83.1419 38.0458L81.0539 38.5318C80.8859 38.5678 80.7479 38.5258 80.6399 38.4058C80.5439 38.2858 80.5139 38.1238 80.5499 37.9198L81.2519 32.7178C81.2879 32.4538 81.2699 32.2438 81.1979 32.0878C81.1379 31.9198 81.0539 31.8178 80.9459 31.7818C80.8379 31.7338 80.7359 31.6618 80.6399 31.5658C80.5439 31.4698 80.4959 31.3498 80.4959 31.2058C80.4959 31.0138 80.5919 30.8338 80.7839 30.6658C80.9879 30.4858 81.3839 30.2878 81.9719 30.0718C82.9319 29.7238 83.6579 29.5498 84.1499 29.5498C84.5699 29.5498 84.7499 29.7658 84.6899 30.1978L84.2939 33.1858H86.8679L87.2279 30.6838C87.2759 30.3238 87.4739 30.1078 87.8219 30.0358L89.8739 29.5498C90.0539 29.5138 90.1919 29.5558 90.2879 29.6758C90.3839 29.7958 90.4199 29.9518 90.3959 30.1438L89.6579 35.4178C89.5499 36.0298 89.6579 36.3358 89.9819 36.3358C90.1019 36.3358 90.2459 36.2518 90.4139 36.0838C90.5939 35.9158 90.7319 35.8318 90.8279 35.8318ZM100.611 38.5318C99.3632 38.5318 98.3972 38.1838 97.7132 37.4878C97.0292 36.7798 96.6872 35.8738 96.6872 34.7698C96.6872 33.3298 97.2092 32.0998 98.2532 31.0798C99.2972 30.0478 100.515 29.5318 101.907 29.5318C102.867 29.5318 103.677 29.7838 104.337 30.2878C104.997 30.7798 105.333 31.4098 105.345 32.1778C105.357 32.7658 105.195 33.2518 104.859 33.6358C104.523 34.0198 104.103 34.1878 103.599 34.1398C102.879 34.0438 102.519 33.5998 102.519 32.8078C102.507 31.5958 102.177 30.9898 101.529 30.9898C101.097 30.9898 100.725 31.2658 100.413 31.8178C100.113 32.3698 99.9632 33.0178 99.9632 33.7618C99.9632 34.5538 100.167 35.1718 100.575 35.6158C100.995 36.0478 101.607 36.2638 102.411 36.2638C103.083 36.2638 103.749 36.0298 104.409 35.5618C104.649 35.3818 104.835 35.3638 104.967 35.5078C105.099 35.6398 105.093 35.8558 104.949 36.1558C104.673 36.7798 104.151 37.3318 103.383 37.8118C102.615 38.2918 101.691 38.5318 100.611 38.5318ZM120.27 28.7218C120.162 29.5378 119.664 30.4918 118.776 31.5838C117.9 32.6638 116.688 33.6898 115.14 34.6618C115.416 34.7218 115.854 34.8538 116.454 35.0578C117.054 35.2498 117.504 35.3458 117.804 35.3458C118.128 35.3458 118.41 35.2858 118.65 35.1658C118.902 35.0338 119.082 34.8958 119.19 34.7518C119.298 34.6078 119.406 34.4758 119.514 34.3558C119.634 34.2238 119.742 34.1578 119.838 34.1578C120.078 34.1578 120.186 34.3798 120.162 34.8238C120.114 35.9038 119.796 36.7798 119.208 37.4518C118.632 38.1238 117.9 38.4598 117.012 38.4598C116.4 38.4598 115.692 38.2858 114.888 37.9378C114.096 37.5898 113.46 37.4158 112.98 37.4158C112.548 37.4158 112.122 37.5958 111.702 37.9558C111.282 38.3038 110.97 38.4778 110.766 38.4778C110.358 38.4778 110.154 38.2858 110.154 37.9018C110.154 37.5298 110.334 37.1878 110.694 36.8758C112.902 34.8838 114.414 33.3538 115.23 32.2858C116.058 31.2058 116.532 30.2158 116.652 29.3158C116.712 28.8838 116.616 28.5358 116.364 28.2718C116.112 27.9958 115.752 27.8578 115.284 27.8578C114.396 27.8578 113.484 28.2598 112.548 29.0638C112.32 29.2798 112.14 29.3158 112.008 29.1718C111.876 29.0278 111.876 28.7998 112.008 28.4878C112.296 27.8278 112.884 27.1798 113.772 26.5438C114.672 25.8958 115.686 25.5718 116.814 25.5718C117.894 25.5718 118.776 25.8538 119.46 26.4178C120.144 26.9818 120.414 27.7498 120.27 28.7218ZM131.586 26.8678C130.554 28.0318 129.222 29.3578 127.59 30.8458C128.73 31.0138 129.63 31.4158 130.29 32.0518C130.95 32.6758 131.196 33.5698 131.028 34.7338C130.872 35.8618 130.326 36.8098 129.39 37.5778C128.466 38.3458 127.284 38.7298 125.844 38.7298C124.596 38.7298 123.588 38.4418 122.82 37.8658C122.064 37.2778 121.632 36.6658 121.524 36.0298C121.476 35.7298 121.554 35.5138 121.758 35.3818C121.962 35.2498 122.172 35.2738 122.388 35.4538C123.192 36.1258 124.074 36.4618 125.034 36.4618C125.634 36.4618 126.156 36.2938 126.6 35.9578C127.044 35.6218 127.308 35.1538 127.392 34.5538C127.476 34.0018 127.344 33.5398 126.996 33.1678C126.648 32.7958 125.982 32.5198 124.998 32.3398C124.758 32.2798 124.644 32.1238 124.656 31.8718C124.68 31.6198 124.776 31.4278 124.944 31.2958C126.132 30.3718 126.942 29.6998 127.374 29.2798C127.302 29.2678 127.158 29.2318 126.942 29.1718C126.726 29.0998 126.546 29.0458 126.402 29.0098C126.27 28.9738 126.09 28.9438 125.862 28.9198C125.634 28.8838 125.412 28.8658 125.196 28.8658C124.668 28.8658 124.224 29.0158 123.864 29.3158C123.804 29.3638 123.732 29.4298 123.648 29.5138C123.564 29.5858 123.498 29.6398 123.45 29.6758C123.414 29.7118 123.366 29.7538 123.306 29.8018C123.246 29.8378 123.192 29.8678 123.144 29.8918C123.096 29.9038 123.048 29.9098 123 29.9098C122.64 29.9098 122.538 29.5498 122.694 28.8298C122.922 27.7978 123.234 27.0238 123.63 26.5078C124.026 25.9798 124.59 25.7158 125.322 25.7158C125.814 25.7158 126.558 25.8598 127.554 26.1478C128.55 26.4358 129.294 26.5798 129.786 26.5798C129.954 26.5798 130.206 26.4778 130.542 26.2738C130.878 26.0578 131.13 25.9498 131.298 25.9498C131.574 25.9498 131.724 26.0698 131.748 26.3098C131.784 26.5498 131.73 26.7358 131.586 26.8678ZM147.161 36.2998C147.173 36.7918 146.909 37.2898 146.369 37.7938C145.841 38.2858 145.139 38.5318 144.263 38.5318C143.819 38.5318 143.429 38.4178 143.093 38.1898C142.769 37.9498 142.559 37.5898 142.463 37.1098C141.671 38.0578 140.729 38.5318 139.637 38.5318C138.737 38.5318 138.005 38.2258 137.441 37.6138C136.877 37.0018 136.595 36.2158 136.595 35.2558C136.595 33.6718 137.153 32.3218 138.269 31.2058C139.385 30.0898 140.609 29.5318 141.941 29.5318C142.373 29.5318 142.787 29.5978 143.183 29.7298C143.591 29.8498 143.831 29.9098 143.903 29.9098C144.035 29.9098 144.317 29.8378 144.749 29.6938C145.193 29.5498 145.505 29.4778 145.685 29.4778C145.925 29.4778 146.105 29.5558 146.225 29.7118C146.345 29.8678 146.393 30.0418 146.369 30.2338L145.613 35.4178C145.529 36.0298 145.643 36.3358 145.955 36.3358C146.075 36.3358 146.219 36.2518 146.387 36.0838C146.567 35.9158 146.705 35.8318 146.801 35.8318C147.041 35.8318 147.161 35.9878 147.161 36.2998ZM140.771 36.5338C141.263 36.5338 141.671 36.2218 141.995 35.5978C142.319 34.9738 142.553 34.1938 142.697 33.2578C142.937 31.6618 142.643 30.8638 141.815 30.8638C141.215 30.8638 140.741 31.2538 140.393 32.0338C140.057 32.8018 139.877 33.7318 139.853 34.8238C139.841 35.3158 139.913 35.7238 140.069 36.0478C140.225 36.3718 140.459 36.5338 140.771 36.5338ZM152.932 38.5318C151.672 38.5438 150.628 38.2138 149.8 37.5418C148.984 36.8698 148.576 35.9218 148.576 34.6978C148.576 33.3418 149.146 32.1418 150.286 31.0978C151.426 30.0538 152.752 29.5318 154.264 29.5318C156.58 29.5318 157.738 30.1558 157.738 31.4038C157.738 31.9558 157.558 32.4358 157.198 32.8438C156.85 33.2398 156.394 33.5218 155.83 33.6898C156.946 33.9058 157.504 34.4998 157.504 35.4718C157.504 36.3118 157.072 37.0318 156.208 37.6318C155.356 38.2198 154.264 38.5198 152.932 38.5318ZM152.932 37.2178C153.292 37.2178 153.58 37.0678 153.796 36.7678C154.024 36.4678 154.138 36.0838 154.138 35.6158C154.138 35.3158 154.036 35.0578 153.832 34.8418C153.64 34.6258 153.364 34.4938 153.004 34.4458C152.68 34.4098 152.518 34.2598 152.518 33.9958C152.506 33.8398 152.56 33.6958 152.68 33.5638C152.8 33.4198 152.962 33.3358 153.166 33.3118C154.174 33.1318 154.678 32.5738 154.678 31.6378C154.678 31.0978 154.414 30.8278 153.886 30.8278C153.454 30.8278 153.064 31.0678 152.716 31.5478C152.38 32.0158 152.134 32.5738 151.978 33.2218C151.822 33.8698 151.744 34.5178 151.744 35.1658C151.744 36.5338 152.14 37.2178 152.932 37.2178ZM161.951 38.5318C160.895 38.5318 160.163 38.3338 159.755 37.9378C159.347 37.5418 159.143 37.0798 159.143 36.5518C159.143 36.3358 159.173 36.1258 159.233 35.9218C159.293 35.7178 159.395 35.5258 159.539 35.3458C159.683 35.1538 159.815 34.9918 159.935 34.8598C160.055 34.7278 160.235 34.5778 160.475 34.4098C160.715 34.2418 160.895 34.1158 161.015 34.0318C161.147 33.9478 161.351 33.8218 161.627 33.6538C161.915 33.4858 162.101 33.3778 162.185 33.3298C162.989 32.8378 163.391 32.4058 163.391 32.0338C163.391 31.8538 163.337 31.7158 163.229 31.6198C163.133 31.5238 163.037 31.4698 162.941 31.4578C162.857 31.4458 162.737 31.4398 162.581 31.4398C162.029 31.4398 161.309 31.6738 160.421 32.1418C160.097 32.3218 159.851 32.3518 159.683 32.2318C159.515 32.1118 159.497 31.9018 159.629 31.6018C159.857 31.0378 160.343 30.5578 161.087 30.1618C161.831 29.7538 162.671 29.5498 163.607 29.5498C164.531 29.5498 165.239 29.7178 165.731 30.0538C166.223 30.3778 166.469 30.8158 166.469 31.3678C166.469 31.7038 166.403 32.0158 166.271 32.3038C166.139 32.5798 165.905 32.8618 165.569 33.1498C165.233 33.4258 164.987 33.6178 164.831 33.7258C164.687 33.8218 164.381 34.0138 163.913 34.3018C163.409 34.5898 163.037 34.8418 162.797 35.0578C162.557 35.2618 162.437 35.4898 162.437 35.7418C162.437 36.1738 162.707 36.3898 163.247 36.3898C164.195 36.3898 165.047 36.1018 165.803 35.5258C166.055 35.3458 166.247 35.3218 166.379 35.4538C166.511 35.5738 166.511 35.7838 166.379 36.0838C166.103 36.7318 165.569 37.3018 164.777 37.7938C163.997 38.2858 163.055 38.5318 161.951 38.5318ZM175.554 29.4778C176.022 29.4778 176.37 29.6398 176.598 29.9638C176.826 30.2758 176.94 30.6478 176.94 31.0798C176.94 32.0998 176.622 33.3658 175.986 34.8778C175.362 36.3898 174.78 37.5658 174.24 38.4058C172.68 40.8898 170.91 42.1318 168.93 42.1318C168.186 42.1318 167.616 41.9518 167.22 41.5918C166.812 41.2318 166.608 40.7698 166.608 40.2058C166.608 39.6778 166.746 39.2698 167.022 38.9818C167.286 38.6938 167.598 38.5498 167.958 38.5498C168.186 38.5498 168.396 38.6218 168.588 38.7658C168.78 38.9218 168.918 39.1198 169.002 39.3598C169.026 39.4198 169.062 39.5218 169.11 39.6658C169.158 39.8098 169.188 39.9118 169.2 39.9718C169.224 40.0318 169.26 40.1098 169.308 40.2058C169.368 40.3018 169.428 40.3678 169.488 40.4038C169.548 40.4398 169.626 40.4758 169.722 40.5118C169.818 40.5478 169.932 40.5658 170.064 40.5658C170.268 40.5658 170.46 40.4878 170.64 40.3318C170.82 40.1878 170.934 39.9898 170.982 39.7378C171.054 39.3538 171.024 38.7958 170.892 38.0638C170.544 36.2998 169.95 34.4818 169.11 32.6098C168.942 32.2258 168.786 31.9798 168.642 31.8718C168.498 31.7518 168.282 31.6738 167.994 31.6378C167.838 31.6258 167.724 31.5778 167.652 31.4938C167.58 31.3978 167.544 31.3078 167.544 31.2238C167.544 30.8758 167.904 30.5098 168.624 30.1258C169.344 29.7298 169.956 29.5318 170.46 29.5318C170.916 29.5318 171.264 29.8198 171.504 30.3958C172.272 32.2678 172.95 34.3858 173.538 36.7498C174.282 35.4898 174.654 34.3498 174.654 33.3298C174.654 32.9578 174.528 32.5378 174.276 32.0698C174.036 31.5898 173.916 31.2298 173.916 30.9898C173.916 30.5698 174.096 30.2158 174.456 29.9278C174.816 29.6278 175.182 29.4778 175.554 29.4778ZM182.162 38.5318C180.914 38.5318 179.948 38.1838 179.264 37.4878C178.58 36.7798 178.238 35.8738 178.238 34.7698C178.238 33.3298 178.76 32.0998 179.804 31.0798C180.848 30.0478 182.066 29.5318 183.458 29.5318C184.418 29.5318 185.228 29.7838 185.888 30.2878C186.548 30.7798 186.884 31.4098 186.896 32.1778C186.908 32.7658 186.746 33.2518 186.41 33.6358C186.074 34.0198 185.654 34.1878 185.15 34.1398C184.43 34.0438 184.07 33.5998 184.07 32.8078C184.058 31.5958 183.728 30.9898 183.08 30.9898C182.648 30.9898 182.276 31.2658 181.964 31.8178C181.664 32.3698 181.514 33.0178 181.514 33.7618C181.514 34.5538 181.718 35.1718 182.126 35.6158C182.546 36.0478 183.158 36.2638 183.962 36.2638C184.634 36.2638 185.3 36.0298 185.96 35.5618C186.2 35.3818 186.386 35.3638 186.518 35.5078C186.65 35.6398 186.644 35.8558 186.5 36.1558C186.224 36.7798 185.702 37.3318 184.934 37.8118C184.166 38.2918 183.242 38.5318 182.162 38.5318ZM203.311 35.8138C203.551 35.8138 203.671 35.9638 203.671 36.2638C203.671 36.7798 203.401 37.2898 202.861 37.7938C202.333 38.2858 201.619 38.5318 200.719 38.5318C200.119 38.5318 199.657 38.3218 199.333 37.9018C199.021 37.4818 198.937 36.8398 199.081 35.9758L199.423 34.0678C199.615 33.1078 199.705 32.4538 199.693 32.1058C199.693 31.7458 199.549 31.5658 199.261 31.5658C199.153 31.5658 199.033 31.5958 198.901 31.6558C198.781 31.7158 198.625 31.8538 198.433 32.0698C198.253 32.2738 198.073 32.5498 197.893 32.8978C197.713 33.2338 197.521 33.7198 197.317 34.3558C197.125 34.9918 196.945 35.7238 196.777 36.5518L196.615 37.4338C196.531 37.7698 196.327 37.9738 196.003 38.0458L193.915 38.5318C193.735 38.5678 193.597 38.5258 193.501 38.4058C193.405 38.2858 193.375 38.1238 193.411 37.9198L194.167 34.0678C194.287 33.4318 194.353 32.9338 194.365 32.5738C194.389 32.2018 194.365 31.9438 194.293 31.7998C194.221 31.6438 194.095 31.5658 193.915 31.5658C193.807 31.5658 193.693 31.5958 193.573 31.6558C193.453 31.7158 193.303 31.8538 193.123 32.0698C192.943 32.2738 192.769 32.5498 192.601 32.8978C192.445 33.2338 192.271 33.7198 192.079 34.3558C191.887 34.9798 191.707 35.7118 191.539 36.5518L191.359 37.4338C191.287 37.7698 191.083 37.9738 190.747 38.0458L188.677 38.5318C188.497 38.5678 188.353 38.5258 188.245 38.4058C188.149 38.2858 188.119 38.1238 188.155 37.9198L189.019 32.6998C189.067 32.4358 189.055 32.2258 188.983 32.0698C188.923 31.9018 188.833 31.7998 188.713 31.7638C188.605 31.7158 188.503 31.6438 188.407 31.5478C188.311 31.4518 188.263 31.3318 188.263 31.1878C188.263 31.0078 188.371 30.8278 188.587 30.6478C188.803 30.4678 189.259 30.2338 189.955 29.9458C190.723 29.6578 191.263 29.5138 191.575 29.5138C192.031 29.5138 192.235 29.7418 192.187 30.1978L192.043 31.3318C192.487 30.7078 192.985 30.2518 193.537 29.9638C194.101 29.6638 194.641 29.5138 195.157 29.5138C195.733 29.5138 196.219 29.6698 196.615 29.9818C197.011 30.2818 197.287 30.6958 197.443 31.2238C197.827 30.6718 198.301 30.2518 198.865 29.9638C199.429 29.6638 200.011 29.5138 200.611 29.5138C201.415 29.5138 202.027 29.8738 202.447 30.5938C202.879 31.3018 202.987 32.1838 202.771 33.2398L202.303 35.4178C202.231 35.7778 202.207 36.0238 202.231 36.1558C202.255 36.2878 202.333 36.3538 202.465 36.3538C202.585 36.3538 202.729 36.2638 202.897 36.0838C203.077 35.9038 203.215 35.8138 203.311 35.8138ZM215.854 36.2998C215.866 36.7918 215.602 37.2898 215.062 37.7938C214.534 38.2858 213.832 38.5318 212.956 38.5318C212.512 38.5318 212.122 38.4178 211.786 38.1898C211.462 37.9498 211.252 37.5898 211.156 37.1098C210.364 38.0578 209.422 38.5318 208.33 38.5318C207.43 38.5318 206.698 38.2258 206.134 37.6138C205.57 37.0018 205.288 36.2158 205.288 35.2558C205.288 33.6718 205.846 32.3218 206.962 31.2058C208.078 30.0898 209.302 29.5318 210.634 29.5318C211.066 29.5318 211.48 29.5978 211.876 29.7298C212.284 29.8498 212.524 29.9098 212.596 29.9098C212.728 29.9098 213.01 29.8378 213.442 29.6938C213.886 29.5498 214.198 29.4778 214.378 29.4778C214.618 29.4778 214.798 29.5558 214.918 29.7118C215.038 29.8678 215.086 30.0418 215.062 30.2338L214.306 35.4178C214.222 36.0298 214.336 36.3358 214.648 36.3358C214.768 36.3358 214.912 36.2518 215.08 36.0838C215.26 35.9158 215.398 35.8318 215.494 35.8318C215.734 35.8318 215.854 35.9878 215.854 36.2998ZM209.464 36.5338C209.956 36.5338 210.364 36.2218 210.688 35.5978C211.012 34.9738 211.246 34.1938 211.39 33.2578C211.63 31.6618 211.336 30.8638 210.508 30.8638C209.908 30.8638 209.434 31.2538 209.086 32.0338C208.75 32.8018 208.57 33.7318 208.546 34.8238C208.534 35.3158 208.606 35.7238 208.762 36.0478C208.918 36.3718 209.152 36.5338 209.464 36.5338ZM114.491 58.8318C114.731 58.8318 114.851 58.9878 114.851 59.2998C114.851 59.7918 114.575 60.2898 114.023 60.7938C113.483 61.2858 112.763 61.5318 111.863 61.5318C111.251 61.5318 110.771 61.3278 110.423 60.9198C110.087 60.4998 109.985 59.8638 110.117 59.0118L110.333 57.5178H107.777L107.399 60.4158C107.351 60.7638 107.153 60.9738 106.805 61.0458L104.717 61.5318C104.549 61.5678 104.411 61.5258 104.303 61.4058C104.207 61.2858 104.177 61.1238 104.213 60.9198L104.915 55.7178C104.951 55.4538 104.933 55.2438 104.861 55.0878C104.801 54.9198 104.717 54.8178 104.609 54.7818C104.501 54.7338 104.399 54.6618 104.303 54.5658C104.207 54.4698 104.159 54.3498 104.159 54.2058C104.159 54.0138 104.255 53.8338 104.447 53.6658C104.651 53.4858 105.047 53.2878 105.635 53.0718C106.595 52.7238 107.321 52.5498 107.813 52.5498C108.233 52.5498 108.413 52.7658 108.353 53.1978L107.957 56.1858H110.531L110.891 53.6838C110.939 53.3238 111.137 53.1078 111.485 53.0358L113.537 52.5498C113.717 52.5138 113.855 52.5558 113.951 52.6758C114.047 52.7958 114.083 52.9518 114.059 53.1438L113.321 58.4178C113.213 59.0298 113.321 59.3358 113.645 59.3358C113.765 59.3358 113.909 59.2518 114.077 59.0838C114.257 58.9158 114.395 58.8318 114.491 58.8318ZM126.899 59.2998C126.911 59.7918 126.647 60.2898 126.107 60.7938C125.579 61.2858 124.877 61.5318 124.001 61.5318C123.557 61.5318 123.167 61.4178 122.831 61.1898C122.507 60.9498 122.297 60.5898 122.201 60.1098C121.409 61.0578 120.467 61.5318 119.375 61.5318C118.475 61.5318 117.743 61.2258 117.179 60.6138C116.615 60.0018 116.333 59.2158 116.333 58.2558C116.333 56.6718 116.891 55.3218 118.007 54.2058C119.123 53.0898 120.347 52.5318 121.679 52.5318C122.111 52.5318 122.525 52.5978 122.921 52.7298C123.329 52.8498 123.569 52.9098 123.641 52.9098C123.773 52.9098 124.055 52.8378 124.487 52.6938C124.931 52.5498 125.243 52.4778 125.423 52.4778C125.663 52.4778 125.843 52.5558 125.963 52.7118C126.083 52.8678 126.131 53.0418 126.107 53.2338L125.351 58.4178C125.267 59.0298 125.381 59.3358 125.693 59.3358C125.813 59.3358 125.957 59.2518 126.125 59.0838C126.305 58.9158 126.443 58.8318 126.539 58.8318C126.779 58.8318 126.899 58.9878 126.899 59.2998ZM120.509 59.5338C121.001 59.5338 121.409 59.2218 121.733 58.5978C122.057 57.9738 122.291 57.1938 122.435 56.2578C122.675 54.6618 122.381 53.8638 121.553 53.8638C120.953 53.8638 120.479 54.2538 120.131 55.0338C119.795 55.8018 119.615 56.7318 119.591 57.8238C119.579 58.3158 119.651 58.7238 119.807 59.0478C119.963 59.3718 120.197 59.5338 120.509 59.5338ZM135.68 61.5318C135.056 61.5318 134.564 61.3158 134.204 60.8838C133.844 60.4518 133.736 59.8038 133.88 58.9398L134.168 57.2658C133.46 58.1418 132.596 58.5798 131.576 58.5798C130.712 58.5798 130.028 58.3878 129.524 58.0038C129.032 57.6078 128.786 57.0858 128.786 56.4378C128.786 56.1858 128.798 55.9278 128.822 55.6638C128.894 55.1718 128.786 54.8598 128.498 54.7278C128.21 54.5598 128.066 54.3798 128.066 54.1878C128.066 54.0678 128.096 53.9598 128.156 53.8638C128.216 53.7558 128.378 53.6238 128.642 53.4678C128.906 53.2998 129.278 53.1318 129.758 52.9638C130.574 52.6638 131.252 52.5138 131.792 52.5138C132.212 52.5138 132.398 52.7418 132.35 53.1978L132.08 55.3938C132.068 55.6338 132.056 55.8858 132.044 56.1498C132.032 56.4138 132.086 56.6418 132.206 56.8338C132.326 57.0258 132.512 57.1218 132.764 57.1218C133.184 57.1218 133.55 56.8938 133.862 56.4378C134.174 55.9818 134.366 55.4838 134.438 54.9438L134.6 53.6478C134.636 53.3238 134.828 53.1198 135.176 53.0358L137.372 52.5498C137.552 52.5138 137.69 52.5558 137.786 52.6758C137.882 52.7958 137.918 52.9518 137.894 53.1438L137.174 58.4178C137.102 59.0298 137.198 59.3358 137.462 59.3358C137.582 59.3358 137.726 59.2518 137.894 59.0838C138.074 58.9158 138.212 58.8318 138.308 58.8318C138.548 58.8318 138.668 58.9878 138.668 59.2998C138.668 59.7918 138.392 60.2898 137.84 60.7938C137.3 61.2858 136.58 61.5318 135.68 61.5318ZM150.429 58.8318C150.669 58.8318 150.789 58.9878 150.789 59.2998C150.789 59.7918 150.513 60.2898 149.961 60.7938C149.421 61.2858 148.701 61.5318 147.801 61.5318C147.189 61.5318 146.709 61.3278 146.361 60.9198C146.025 60.4998 145.923 59.8638 146.055 59.0118L146.271 57.5178H143.715L143.337 60.4158C143.289 60.7638 143.091 60.9738 142.743 61.0458L140.655 61.5318C140.487 61.5678 140.349 61.5258 140.241 61.4058C140.145 61.2858 140.115 61.1238 140.151 60.9198L140.853 55.7178C140.889 55.4538 140.871 55.2438 140.799 55.0878C140.739 54.9198 140.655 54.8178 140.547 54.7818C140.439 54.7338 140.337 54.6618 140.241 54.5658C140.145 54.4698 140.097 54.3498 140.097 54.2058C140.097 54.0138 140.193 53.8338 140.385 53.6658C140.589 53.4858 140.985 53.2878 141.573 53.0718C142.533 52.7238 143.259 52.5498 143.751 52.5498C144.171 52.5498 144.351 52.7658 144.291 53.1978L143.895 56.1858H146.469L146.829 53.6838C146.877 53.3238 147.075 53.1078 147.423 53.0358L149.475 52.5498C149.655 52.5138 149.793 52.5558 149.889 52.6758C149.985 52.7958 150.021 52.9518 149.997 53.1438L149.259 58.4178C149.151 59.0298 149.259 59.3358 149.583 59.3358C149.703 59.3358 149.847 59.2518 150.015 59.0838C150.195 58.9158 150.333 58.8318 150.429 58.8318ZM159.884 58.7058C160.136 58.5258 160.352 58.4958 160.532 58.6158C160.724 58.7358 160.736 58.9338 160.568 59.2098C160.16 59.8938 159.578 60.4518 158.822 60.8838C158.078 61.3158 157.22 61.5318 156.248 61.5318C154.988 61.5318 154.016 61.2018 153.332 60.5418C152.66 59.8818 152.324 58.9758 152.324 57.8238C152.324 56.3958 152.84 55.1598 153.872 54.1158C154.916 53.0598 156.17 52.5318 157.634 52.5318C158.594 52.5318 159.362 52.7658 159.938 53.2338C160.514 53.6898 160.802 54.2598 160.802 54.9438C160.802 55.6158 160.52 56.2098 159.956 56.7258C159.404 57.2298 158.738 57.5958 157.958 57.8238C157.19 58.0398 156.416 58.1298 155.636 58.0938C155.936 58.9578 156.614 59.3898 157.67 59.3898C158.522 59.3898 159.26 59.1618 159.884 58.7058ZM157.292 53.9178C156.704 53.9178 156.248 54.1998 155.924 54.7638C155.6 55.3278 155.438 55.9098 155.438 56.5098C155.438 56.6898 155.54 56.7798 155.744 56.7798C156.38 56.8038 156.974 56.6418 157.526 56.2938C158.09 55.9338 158.36 55.4658 158.336 54.8898C158.324 54.6258 158.228 54.3978 158.048 54.2058C157.868 54.0138 157.616 53.9178 157.292 53.9178ZM177.609 58.8138C177.849 58.8138 177.969 58.9638 177.969 59.2638C177.969 59.7798 177.699 60.2898 177.159 60.7938C176.631 61.2858 175.917 61.5318 175.017 61.5318C174.417 61.5318 173.955 61.3218 173.631 60.9018C173.319 60.4818 173.235 59.8398 173.379 58.9758L173.721 57.0678C173.913 56.1078 174.003 55.4538 173.991 55.1058C173.991 54.7458 173.847 54.5658 173.559 54.5658C173.451 54.5658 173.331 54.5958 173.199 54.6558C173.079 54.7158 172.923 54.8538 172.731 55.0698C172.551 55.2738 172.371 55.5498 172.191 55.8978C172.011 56.2338 171.819 56.7198 171.615 57.3558C171.423 57.9918 171.243 58.7238 171.075 59.5518L170.913 60.4338C170.829 60.7698 170.625 60.9738 170.301 61.0458L168.213 61.5318C168.033 61.5678 167.895 61.5258 167.799 61.4058C167.703 61.2858 167.673 61.1238 167.709 60.9198L168.465 57.0678C168.585 56.4318 168.651 55.9338 168.663 55.5738C168.687 55.2018 168.663 54.9438 168.591 54.7998C168.519 54.6438 168.393 54.5658 168.213 54.5658C168.105 54.5658 167.991 54.5958 167.871 54.6558C167.751 54.7158 167.601 54.8538 167.421 55.0698C167.241 55.2738 167.067 55.5498 166.899 55.8978C166.743 56.2338 166.569 56.7198 166.377 57.3558C166.185 57.9798 166.005 58.7118 165.837 59.5518L165.657 60.4338C165.585 60.7698 165.381 60.9738 165.045 61.0458L162.975 61.5318C162.795 61.5678 162.651 61.5258 162.543 61.4058C162.447 61.2858 162.417 61.1238 162.453 60.9198L163.317 55.6998C163.365 55.4358 163.353 55.2258 163.281 55.0698C163.221 54.9018 163.131 54.7998 163.011 54.7638C162.903 54.7158 162.801 54.6438 162.705 54.5478C162.609 54.4518 162.561 54.3318 162.561 54.1878C162.561 54.0078 162.669 53.8278 162.885 53.6478C163.101 53.4678 163.557 53.2338 164.253 52.9458C165.021 52.6578 165.561 52.5138 165.873 52.5138C166.329 52.5138 166.533 52.7418 166.485 53.1978L166.341 54.3318C166.785 53.7078 167.283 53.2518 167.835 52.9638C168.399 52.6638 168.939 52.5138 169.455 52.5138C170.031 52.5138 170.517 52.6698 170.913 52.9818C171.309 53.2818 171.585 53.6958 171.741 54.2238C172.125 53.6718 172.599 53.2518 173.163 52.9638C173.727 52.6638 174.309 52.5138 174.909 52.5138C175.713 52.5138 176.325 52.8738 176.745 53.5938C177.177 54.3018 177.285 55.1838 177.069 56.2398L176.601 58.4178C176.529 58.7778 176.505 59.0238 176.529 59.1558C176.553 59.2878 176.631 59.3538 176.763 59.3538C176.883 59.3538 177.027 59.2638 177.195 59.0838C177.375 58.9038 177.513 58.8138 177.609 58.8138ZM91.637 81.8138C91.877 81.8138 91.997 81.9638 91.997 82.2638C91.997 82.7798 91.727 83.2898 91.187 83.7938C90.659 84.2858 89.945 84.5318 89.045 84.5318C88.445 84.5318 87.983 84.3218 87.659 83.9018C87.347 83.4818 87.263 82.8398 87.407 81.9758L87.749 80.0678C87.941 79.1078 88.031 78.4538 88.019 78.1058C88.019 77.7458 87.875 77.5658 87.587 77.5658C87.479 77.5658 87.359 77.5958 87.227 77.6558C87.107 77.7158 86.951 77.8538 86.759 78.0698C86.579 78.2738 86.399 78.5498 86.219 78.8978C86.039 79.2338 85.847 79.7198 85.643 80.3558C85.451 80.9918 85.271 81.7238 85.103 82.5518L84.941 83.4338C84.857 83.7698 84.653 83.9738 84.329 84.0458L82.241 84.5318C82.061 84.5678 81.923 84.5258 81.827 84.4058C81.731 84.2858 81.701 84.1238 81.737 83.9198L82.493 80.0678C82.613 79.4318 82.679 78.9338 82.691 78.5738C82.715 78.2018 82.691 77.9438 82.619 77.7998C82.547 77.6438 82.421 77.5658 82.241 77.5658C82.133 77.5658 82.019 77.5958 81.899 77.6558C81.779 77.7158 81.629 77.8538 81.449 78.0698C81.269 78.2738 81.095 78.5498 80.927 78.8978C80.771 79.2338 80.597 79.7198 80.405 80.3558C80.213 80.9798 80.033 81.7118 79.865 82.5518L79.685 83.4338C79.613 83.7698 79.409 83.9738 79.073 84.0458L77.003 84.5318C76.823 84.5678 76.679 84.5258 76.571 84.4058C76.475 84.2858 76.445 84.1238 76.481 83.9198L77.345 78.6998C77.393 78.4358 77.381 78.2258 77.309 78.0698C77.249 77.9018 77.159 77.7998 77.039 77.7638C76.931 77.7158 76.829 77.6438 76.733 77.5478C76.637 77.4518 76.589 77.3318 76.589 77.1878C76.589 77.0078 76.697 76.8278 76.913 76.6478C77.129 76.4678 77.585 76.2338 78.281 75.9458C79.049 75.6578 79.589 75.5138 79.901 75.5138C80.357 75.5138 80.561 75.7418 80.513 76.1978L80.369 77.3318C80.813 76.7078 81.311 76.2518 81.863 75.9638C82.427 75.6638 82.967 75.5138 83.483 75.5138C84.059 75.5138 84.545 75.6698 84.941 75.9818C85.337 76.2818 85.613 76.6958 85.769 77.2238C86.153 76.6718 86.627 76.2518 87.191 75.9638C87.755 75.6638 88.337 75.5138 88.937 75.5138C89.741 75.5138 90.353 75.8738 90.773 76.5938C91.205 77.3018 91.313 78.1838 91.097 79.2398L90.629 81.4178C90.557 81.7778 90.533 82.0238 90.557 82.1558C90.581 82.2878 90.659 82.3538 90.791 82.3538C90.911 82.3538 91.055 82.2638 91.223 82.0838C91.403 81.9038 91.541 81.8138 91.637 81.8138ZM99.7883 77.8358C100.484 77.8358 101.066 78.0518 101.534 78.4838C102.002 78.9038 102.236 79.4498 102.236 80.1218C102.236 81.0098 101.966 81.8018 101.426 82.4978C100.898 83.1938 100.256 83.7098 99.5003 84.0458C98.7563 84.3698 98.0003 84.5318 97.2323 84.5318C95.9843 84.5318 95.0723 84.2438 94.4963 83.6678C93.9203 83.0798 93.7283 82.2098 93.9203 81.0578L94.3163 78.6638C94.4003 78.1598 94.2923 77.8478 93.9923 77.7278C93.7043 77.5598 93.5603 77.3798 93.5603 77.1878C93.5603 77.0678 93.5903 76.9598 93.6503 76.8638C93.7103 76.7558 93.8723 76.6178 94.1363 76.4498C94.4003 76.2818 94.7723 76.1138 95.2523 75.9458C96.0803 75.6578 96.7583 75.5138 97.2863 75.5138C97.7303 75.5138 97.9103 75.7418 97.8263 76.1978L97.4303 78.7538C98.1383 78.1418 98.9243 77.8358 99.7883 77.8358ZM107.42 82.2998C107.432 82.7918 107.162 83.2898 106.61 83.7938C106.07 84.2858 105.35 84.5318 104.45 84.5318C103.838 84.5318 103.358 84.3278 103.01 83.9198C102.662 83.4998 102.554 82.8638 102.686 82.0118L103.46 76.6838C103.508 76.3358 103.712 76.1198 104.072 76.0358L106.124 75.5498C106.292 75.5138 106.424 75.5558 106.52 75.6758C106.628 75.7958 106.67 75.9518 106.646 76.1438L105.89 81.4178C105.806 82.0298 105.92 82.3358 106.232 82.3358C106.352 82.3358 106.496 82.2518 106.664 82.0838C106.832 81.9158 106.964 81.8318 107.06 81.8318C107.3 81.8318 107.42 81.9878 107.42 82.2998ZM99.0863 80.6258C99.1103 79.9658 98.9003 79.6358 98.4563 79.6358C98.0723 79.6358 97.7363 79.9298 97.4483 80.5178C97.1603 81.1058 97.0223 81.6638 97.0343 82.1918C97.0463 82.4678 97.1123 82.7018 97.2323 82.8938C97.3523 83.0738 97.5263 83.1578 97.7543 83.1458C98.1143 83.1458 98.4263 82.8758 98.6903 82.3358C98.9543 81.7958 99.0863 81.2258 99.0863 80.6258ZM116.314 84.4958C115.474 84.4958 114.886 84.3158 114.55 83.9558C114.226 83.5958 113.968 82.9478 113.776 82.0118C113.764 81.9398 113.74 81.8078 113.704 81.6158C113.68 81.4238 113.65 81.2858 113.614 81.2018C113.59 81.1178 113.548 81.0158 113.488 80.8958C113.428 80.7638 113.338 80.6738 113.218 80.6258C113.11 80.5778 112.966 80.5538 112.786 80.5538C112.678 80.5538 112.6 80.5898 112.552 80.6618C112.516 80.7218 112.48 80.8658 112.444 81.0938L112.372 81.7058C112.336 81.9458 112.324 82.1558 112.336 82.3358C112.348 82.6238 112.462 82.8818 112.678 83.1098C112.906 83.3258 113.002 83.5598 112.966 83.8118C112.918 84.1718 112.606 84.3518 112.03 84.3518H108.79C108.466 84.3518 108.238 84.3098 108.106 84.2258C107.962 84.1418 107.902 83.9918 107.926 83.7758C107.95 83.5838 108.034 83.4338 108.178 83.3258C108.31 83.2058 108.46 83.0738 108.628 82.9298C108.796 82.7738 108.922 82.5758 109.006 82.3358C109.078 82.0238 109.126 81.8138 109.15 81.7058L109.6 78.3578C109.636 78.1178 109.648 77.9018 109.636 77.7098C109.624 77.4218 109.504 77.1698 109.276 76.9538C109.06 76.7378 108.97 76.5038 109.006 76.2518C109.054 75.8918 109.366 75.7118 109.942 75.7118H113.182C113.506 75.7118 113.734 75.7538 113.866 75.8378C114.01 75.9218 114.07 76.0658 114.046 76.2698C114.01 76.4978 113.842 76.7258 113.542 76.9538C113.254 77.1698 113.062 77.4218 112.966 77.7098C112.882 78.0818 112.834 78.2978 112.822 78.3578L112.768 78.8438C112.744 79.0118 112.75 79.1138 112.786 79.1498C112.822 79.1858 112.918 79.2038 113.074 79.2038H113.254C113.53 79.2038 113.782 79.0778 114.01 78.8258C114.25 78.5738 114.466 78.2678 114.658 77.9078C114.85 77.5478 115.06 77.1878 115.288 76.8278C115.516 76.4678 115.816 76.1618 116.188 75.9098C116.56 75.6578 116.986 75.5318 117.466 75.5318C117.958 75.5318 118.348 75.6818 118.636 75.9818C118.924 76.2818 119.026 76.7078 118.942 77.2598C118.894 77.6798 118.738 78.0098 118.474 78.2498C118.222 78.4898 117.934 78.6098 117.61 78.6098C117.442 78.6098 117.298 78.5678 117.178 78.4838C117.07 78.3878 116.992 78.2918 116.944 78.1958C116.908 78.0878 116.848 77.9918 116.764 77.9078C116.692 77.8118 116.602 77.7638 116.494 77.7638C116.326 77.7638 116.152 77.9018 115.972 78.1778C115.804 78.4538 115.594 78.7778 115.342 79.1498C115.09 79.5218 114.814 79.7858 114.514 79.9418C115.21 80.0018 115.726 80.1938 116.062 80.5178C116.398 80.8298 116.656 81.3038 116.836 81.9398C116.92 82.2278 117.004 82.4618 117.088 82.6418C117.172 82.8218 117.268 82.9478 117.376 83.0198C117.484 83.0918 117.568 83.1398 117.628 83.1638C117.7 83.1758 117.808 83.1818 117.952 83.1818C118.216 83.2058 118.336 83.3618 118.312 83.6498C118.276 83.8898 118.078 84.0938 117.718 84.2618C117.37 84.4178 116.902 84.4958 116.314 84.4958ZM130.6 82.2998C130.612 82.7918 130.348 83.2898 129.808 83.7938C129.28 84.2858 128.578 84.5318 127.702 84.5318C127.258 84.5318 126.868 84.4178 126.532 84.1898C126.208 83.9498 125.998 83.5898 125.902 83.1098C125.11 84.0578 124.168 84.5318 123.076 84.5318C122.176 84.5318 121.444 84.2258 120.88 83.6138C120.316 83.0018 120.034 82.2158 120.034 81.2558C120.034 79.6718 120.592 78.3218 121.708 77.2058C122.824 76.0898 124.048 75.5318 125.38 75.5318C125.812 75.5318 126.226 75.5978 126.622 75.7298C127.03 75.8498 127.27 75.9098 127.342 75.9098C127.474 75.9098 127.756 75.8378 128.188 75.6938C128.632 75.5498 128.944 75.4778 129.124 75.4778C129.364 75.4778 129.544 75.5558 129.664 75.7118C129.784 75.8678 129.832 76.0418 129.808 76.2338L129.052 81.4178C128.968 82.0298 129.082 82.3358 129.394 82.3358C129.514 82.3358 129.658 82.2518 129.826 82.0838C130.006 81.9158 130.144 81.8318 130.24 81.8318C130.48 81.8318 130.6 81.9878 130.6 82.2998ZM124.21 82.5338C124.702 82.5338 125.11 82.2218 125.434 81.5978C125.758 80.9738 125.992 80.1938 126.136 79.2578C126.376 77.6618 126.082 76.8638 125.254 76.8638C124.654 76.8638 124.18 77.2538 123.832 78.0338C123.496 78.8018 123.316 79.7318 123.292 80.8238C123.28 81.3158 123.352 81.7238 123.508 82.0478C123.664 82.3718 123.898 82.5338 124.21 82.5338ZM147.305 81.8138C147.545 81.8138 147.665 81.9638 147.665 82.2638C147.665 82.7798 147.395 83.2898 146.855 83.7938C146.327 84.2858 145.613 84.5318 144.713 84.5318C144.113 84.5318 143.651 84.3218 143.327 83.9018C143.015 83.4818 142.931 82.8398 143.075 81.9758L143.417 80.0678C143.609 79.1078 143.699 78.4538 143.687 78.1058C143.687 77.7458 143.543 77.5658 143.255 77.5658C143.147 77.5658 143.027 77.5958 142.895 77.6558C142.775 77.7158 142.619 77.8538 142.427 78.0698C142.247 78.2738 142.067 78.5498 141.887 78.8978C141.707 79.2338 141.515 79.7198 141.311 80.3558C141.119 80.9918 140.939 81.7238 140.771 82.5518L140.609 83.4338C140.525 83.7698 140.321 83.9738 139.997 84.0458L137.909 84.5318C137.729 84.5678 137.591 84.5258 137.495 84.4058C137.399 84.2858 137.369 84.1238 137.405 83.9198L138.161 80.0678C138.281 79.4318 138.347 78.9338 138.359 78.5738C138.383 78.2018 138.359 77.9438 138.287 77.7998C138.215 77.6438 138.089 77.5658 137.909 77.5658C137.801 77.5658 137.687 77.5958 137.567 77.6558C137.447 77.7158 137.297 77.8538 137.117 78.0698C136.937 78.2738 136.763 78.5498 136.595 78.8978C136.439 79.2338 136.265 79.7198 136.073 80.3558C135.881 80.9798 135.701 81.7118 135.533 82.5518L135.353 83.4338C135.281 83.7698 135.077 83.9738 134.741 84.0458L132.671 84.5318C132.491 84.5678 132.347 84.5258 132.239 84.4058C132.143 84.2858 132.113 84.1238 132.149 83.9198L133.013 78.6998C133.061 78.4358 133.049 78.2258 132.977 78.0698C132.917 77.9018 132.827 77.7998 132.707 77.7638C132.599 77.7158 132.497 77.6438 132.401 77.5478C132.305 77.4518 132.257 77.3318 132.257 77.1878C132.257 77.0078 132.365 76.8278 132.581 76.6478C132.797 76.4678 133.253 76.2338 133.949 75.9458C134.717 75.6578 135.257 75.5138 135.569 75.5138C136.025 75.5138 136.229 75.7418 136.181 76.1978L136.037 77.3318C136.481 76.7078 136.979 76.2518 137.531 75.9638C138.095 75.6638 138.635 75.5138 139.151 75.5138C139.727 75.5138 140.213 75.6698 140.609 75.9818C141.005 76.2818 141.281 76.6958 141.437 77.2238C141.821 76.6718 142.295 76.2518 142.859 75.9638C143.423 75.6638 144.005 75.5138 144.605 75.5138C145.409 75.5138 146.021 75.8738 146.441 76.5938C146.873 77.3018 146.981 78.1838 146.765 79.2398L146.297 81.4178C146.225 81.7778 146.201 82.0238 146.225 82.1558C146.249 82.2878 146.327 82.3538 146.459 82.3538C146.579 82.3538 146.723 82.2638 146.891 82.0838C147.071 81.9038 147.209 81.8138 147.305 81.8138ZM155.457 77.8358C156.153 77.8358 156.735 78.0518 157.203 78.4838C157.671 78.9038 157.905 79.4498 157.905 80.1218C157.905 81.0098 157.635 81.8018 157.095 82.4978C156.567 83.1938 155.925 83.7098 155.169 84.0458C154.425 84.3698 153.669 84.5318 152.901 84.5318C151.653 84.5318 150.741 84.2438 150.165 83.6678C149.589 83.0798 149.397 82.2098 149.589 81.0578L149.985 78.6638C150.069 78.1598 149.961 77.8478 149.661 77.7278C149.373 77.5598 149.229 77.3798 149.229 77.1878C149.229 77.0678 149.259 76.9598 149.319 76.8638C149.379 76.7558 149.541 76.6178 149.805 76.4498C150.069 76.2818 150.441 76.1138 150.921 75.9458C151.749 75.6578 152.427 75.5138 152.955 75.5138C153.399 75.5138 153.579 75.7418 153.495 76.1978L153.099 78.7538C153.807 78.1418 154.593 77.8358 155.457 77.8358ZM154.755 80.6258C154.779 79.9658 154.569 79.6358 154.125 79.6358C153.741 79.6358 153.405 79.9298 153.117 80.5178C152.829 81.1058 152.691 81.6638 152.703 82.1918C152.715 82.4678 152.781 82.7018 152.901 82.8938C153.021 83.0738 153.195 83.1578 153.423 83.1458C153.783 83.1458 154.095 82.8758 154.359 82.3358C154.623 81.7958 154.755 81.2258 154.755 80.6258ZM163.183 84.5318C161.935 84.5318 160.969 84.1838 160.285 83.4878C159.601 82.7798 159.259 81.8738 159.259 80.7698C159.259 79.3298 159.781 78.0998 160.825 77.0798C161.869 76.0478 163.087 75.5318 164.479 75.5318C165.439 75.5318 166.249 75.7838 166.909 76.2878C167.569 76.7798 167.905 77.4098 167.917 78.1778C167.929 78.7658 167.767 79.2518 167.431 79.6358C167.095 80.0198 166.675 80.1878 166.171 80.1398C165.451 80.0438 165.091 79.5998 165.091 78.8078C165.079 77.5958 164.749 76.9898 164.101 76.9898C163.669 76.9898 163.297 77.2658 162.985 77.8178C162.685 78.3698 162.535 79.0178 162.535 79.7618C162.535 80.5538 162.739 81.1718 163.147 81.6158C163.567 82.0478 164.179 82.2638 164.983 82.2638C165.655 82.2638 166.321 82.0298 166.981 81.5618C167.221 81.3818 167.407 81.3638 167.539 81.5078C167.671 81.6398 167.665 81.8558 167.521 82.1558C167.245 82.7798 166.723 83.3318 165.955 83.8118C165.187 84.2918 164.263 84.5318 163.183 84.5318ZM176.701 84.5318C176.077 84.5318 175.591 84.3278 175.243 83.9198C174.907 83.4998 174.817 82.8458 174.973 81.9578L175.081 81.3098C175.129 81.0938 175.045 80.9858 174.829 80.9858C174.733 80.9858 174.661 80.9978 174.613 81.0218C174.469 81.0578 174.331 81.1418 174.199 81.2738C174.079 81.4058 173.983 81.5378 173.911 81.6698C173.851 81.8018 173.749 82.0118 173.605 82.2998C173.473 82.5878 173.365 82.8158 173.281 82.9838C173.029 83.4638 172.705 83.8358 172.309 84.0998C171.925 84.3638 171.331 84.4958 170.527 84.4958C169.267 84.4958 168.673 84.2738 168.745 83.8298C168.781 83.5538 168.949 83.3858 169.249 83.3258C169.465 83.2538 169.609 83.1998 169.681 83.1638C169.753 83.1278 169.867 83.0378 170.023 82.8938C170.179 82.7498 170.341 82.5398 170.509 82.2638C170.917 81.6038 171.373 81.1178 171.877 80.8058C170.797 80.3858 170.335 79.6358 170.491 78.5558C170.611 77.6798 171.079 76.9898 171.895 76.4858C172.711 75.9698 173.743 75.7118 174.991 75.7118H179.095C179.695 75.7118 179.977 75.8738 179.941 76.1978C179.917 76.3778 179.731 76.6118 179.383 76.8998C179.047 77.1878 178.855 77.5058 178.807 77.8538L178.303 81.4178C178.243 81.7898 178.225 82.0358 178.249 82.1558C178.273 82.2758 178.351 82.3358 178.483 82.3358C178.603 82.3358 178.747 82.2518 178.915 82.0838C179.095 81.9158 179.233 81.8318 179.329 81.8318C179.569 81.8318 179.689 81.9878 179.689 82.2998C179.701 82.7918 179.431 83.2898 178.879 83.7938C178.339 84.2858 177.613 84.5318 176.701 84.5318ZM174.649 79.7078C174.853 79.7078 174.997 79.6718 175.081 79.5998C175.177 79.5278 175.237 79.3958 175.261 79.2038L175.495 77.7098C175.555 77.4938 175.561 77.3198 175.513 77.1878C175.465 77.0438 175.303 76.9718 175.027 76.9718C174.691 76.9718 174.409 77.0918 174.181 77.3318C173.953 77.5718 173.803 77.9198 173.731 78.3758C173.671 78.7838 173.737 79.1078 173.929 79.3478C174.133 79.5878 174.373 79.7078 174.649 79.7078ZM182.654 84.5678C182.222 84.5678 181.862 84.4418 181.574 84.1898C181.298 83.9258 181.16 83.5538 181.16 83.0738C181.16 82.5098 181.352 82.0538 181.736 81.7058C182.132 81.3578 182.582 81.1838 183.086 81.1838C183.506 81.1838 183.854 81.3218 184.13 81.5978C184.418 81.8618 184.562 82.2338 184.562 82.7138C184.562 83.2778 184.37 83.7278 183.986 84.0638C183.614 84.3998 183.17 84.5678 182.654 84.5678ZM188.252 84.5678C187.82 84.5678 187.46 84.4418 187.172 84.1898C186.896 83.9258 186.758 83.5538 186.758 83.0738C186.758 82.5098 186.95 82.0538 187.334 81.7058C187.73 81.3578 188.18 81.1838 188.684 81.1838C189.104 81.1838 189.452 81.3218 189.728 81.5978C190.016 81.8618 190.16 82.2338 190.16 82.7138C190.16 83.2778 189.968 83.7278 189.584 84.0638C189.212 84.3998 188.768 84.5678 188.252 84.5678ZM193.85 84.5678C193.418 84.5678 193.058 84.4418 192.77 84.1898C192.494 83.9258 192.356 83.5538 192.356 83.0738C192.356 82.5098 192.548 82.0538 192.932 81.7058C193.328 81.3578 193.778 81.1838 194.282 81.1838C194.702 81.1838 195.05 81.3218 195.326 81.5978C195.614 81.8618 195.758 82.2338 195.758 82.7138C195.758 83.2778 195.566 83.7278 195.182 84.0638C194.81 84.3998 194.366 84.5678 193.85 84.5678Z" fill="#C5FF71"/>
<path d="M199.449 84.5678C199.017 84.5678 198.657 84.4418 198.369 84.1898C198.093 83.9258 197.955 83.5538 197.955 83.0738C197.955 82.5098 198.147 82.0538 198.531 81.7058C198.927 81.3578 199.377 81.1838 199.881 81.1838C200.301 81.1838 200.649 81.3218 200.925 81.5978C201.213 81.8618 201.357 82.2338 201.357 82.7138C201.357 83.2778 201.165 83.7278 200.781 84.0638C200.409 84.3998 199.965 84.5678 199.449 84.5678Z" fill="#FFC6F9"/>
</svg>
