<svg width="506" height="248" viewBox="0 0 506 248" fill="none" xmlns="http://www.w3.org/2000/svg">
<path d="M42.898 93.5462C66.1851 108.778 87.202 66.4887 91.9294 50.3032C61.5074 65.255 24.793 49.9538 10.2386 40.4342C13.3355 47.2166 19.6108 78.3149 42.898 93.5462Z" fill="#C5FF71"/>
<rect x="52.4184" y="17.0962" width="450.663" height="194.254" rx="97.127" fill="#6932FF" stroke="#C5FF71" stroke-width="5"/>
<path d="M140.49 77.2758C136.943 77.3012 134.017 76.2245 131.712 74.0458C129.432 71.8418 128.292 69.0172 128.292 65.5718C128.292 61.3918 129.799 57.7692 132.814 54.7038C135.854 51.6385 139.54 50.1058 143.872 50.1058C147.494 50.1058 150.37 51.2078 152.498 53.4118C154.651 55.6158 155.728 58.4658 155.728 61.9618C155.728 66.2178 154.258 69.8278 151.32 72.7918C148.381 75.7558 144.771 77.2505 140.49 77.2758ZM141.63 73.3998C142.694 73.3998 143.644 73.0578 144.48 72.3738C145.316 71.6898 145.974 70.8032 146.456 69.7138C146.937 68.5992 147.304 67.3958 147.558 66.1038C147.811 64.8118 147.938 63.4818 147.938 62.1138C147.938 59.5805 147.494 57.5285 146.608 55.9578C145.746 54.3872 144.429 53.6018 142.656 53.6018C140.629 53.6018 138.995 54.8178 137.754 57.2498C136.538 59.6818 135.93 62.3418 135.93 65.2298C135.93 67.6365 136.436 69.5998 137.45 71.1198C138.488 72.6398 139.882 73.3998 141.63 73.3998ZM179.72 71.6898C180.227 71.6898 180.48 72.0192 180.48 72.6778C180.48 73.7165 179.898 74.7678 178.732 75.8318C177.592 76.8705 176.072 77.3898 174.172 77.3898C172.88 77.3898 171.867 76.9592 171.132 76.0978C170.423 75.2112 170.208 73.8685 170.486 72.0698L170.942 68.9158H165.546L164.748 75.0338C164.647 75.7685 164.229 76.2118 163.494 76.3638L159.086 77.3898C158.732 77.4658 158.44 77.3772 158.212 77.1238C158.01 76.8705 157.946 76.5285 158.022 76.0978L159.504 65.1158C159.58 64.5585 159.542 64.1152 159.39 63.7858C159.264 63.4312 159.086 63.2158 158.858 63.1398C158.63 63.0385 158.415 62.8865 158.212 62.6838C158.01 62.4812 157.908 62.2278 157.908 61.9238C157.908 61.5185 158.111 61.1385 158.516 60.7838C158.947 60.4038 159.783 59.9858 161.024 59.5298C163.051 58.7952 164.584 58.4278 165.622 58.4278C166.509 58.4278 166.889 58.8838 166.762 59.7958L165.926 66.1038H171.36L172.12 60.8218C172.222 60.0618 172.64 59.6058 173.374 59.4538L177.706 58.4278C178.086 58.3518 178.378 58.4405 178.58 58.6938C178.783 58.9472 178.859 59.2765 178.808 59.6818L177.25 70.8158C177.022 72.1078 177.25 72.7538 177.934 72.7538C178.188 72.7538 178.492 72.5765 178.846 72.2218C179.226 71.8672 179.518 71.6898 179.72 71.6898ZM200.374 77.3898C197.739 77.3898 195.7 76.6552 194.256 75.1858C192.812 73.6912 192.09 71.7785 192.09 69.4478C192.09 66.4078 193.192 63.8112 195.396 61.6578C197.6 59.4792 200.171 58.3898 203.11 58.3898C205.137 58.3898 206.847 58.9218 208.24 59.9858C209.633 61.0245 210.343 62.3545 210.368 63.9758C210.393 65.2172 210.051 66.2432 209.342 67.0538C208.633 67.8645 207.746 68.2192 206.682 68.1178C205.162 67.9152 204.402 66.9778 204.402 65.3058C204.377 62.7472 203.68 61.4678 202.312 61.4678C201.4 61.4678 200.615 62.0505 199.956 63.2158C199.323 64.3812 199.006 65.7492 199.006 67.3198C199.006 68.9918 199.437 70.2965 200.298 71.2338C201.185 72.1458 202.477 72.6018 204.174 72.6018C205.593 72.6018 206.999 72.1078 208.392 71.1198C208.899 70.7398 209.291 70.7018 209.57 71.0058C209.849 71.2845 209.836 71.7405 209.532 72.3738C208.949 73.6912 207.847 74.8565 206.226 75.8698C204.605 76.8832 202.654 77.3898 200.374 77.3898ZM241.876 56.6798C241.648 58.4025 240.597 60.4165 238.722 62.7218C236.873 65.0018 234.314 67.1678 231.046 69.2198C231.629 69.3465 232.554 69.6252 233.82 70.0558C235.087 70.4612 236.037 70.6638 236.67 70.6638C237.354 70.6638 237.95 70.5372 238.456 70.2838C238.988 70.0052 239.368 69.7138 239.596 69.4098C239.824 69.1058 240.052 68.8272 240.28 68.5738C240.534 68.2952 240.762 68.1558 240.964 68.1558C241.471 68.1558 241.699 68.6245 241.648 69.5618C241.547 71.8418 240.876 73.6912 239.634 75.1098C238.418 76.5285 236.873 77.2378 234.998 77.2378C233.706 77.2378 232.212 76.8705 230.514 76.1358C228.842 75.4012 227.5 75.0338 226.486 75.0338C225.574 75.0338 224.675 75.4138 223.788 76.1738C222.902 76.9085 222.243 77.2758 221.812 77.2758C220.951 77.2758 220.52 76.8705 220.52 76.0598C220.52 75.2745 220.9 74.5525 221.66 73.8938C226.322 69.6885 229.514 66.4585 231.236 64.2038C232.984 61.9238 233.985 59.8338 234.238 57.9338C234.365 57.0218 234.162 56.2872 233.63 55.7298C233.098 55.1472 232.338 54.8558 231.35 54.8558C229.476 54.8558 227.55 55.7045 225.574 57.4018C225.093 57.8578 224.713 57.9338 224.434 57.6298C224.156 57.3258 224.156 56.8445 224.434 56.1858C225.042 54.7925 226.284 53.4245 228.158 52.0818C230.058 50.7138 232.199 50.0298 234.58 50.0298C236.86 50.0298 238.722 50.6252 240.166 51.8158C241.61 53.0065 242.18 54.6278 241.876 56.6798ZM265.765 52.7658C263.586 55.2232 260.774 58.0225 257.329 61.1638C259.736 61.5185 261.636 62.3672 263.029 63.7098C264.422 65.0272 264.942 66.9145 264.587 69.3718C264.258 71.7532 263.105 73.7545 261.129 75.3758C259.178 76.9972 256.683 77.8078 253.643 77.8078C251.008 77.8078 248.88 77.1998 247.259 75.9838C245.663 74.7425 244.751 73.4505 244.523 72.1078C244.422 71.4745 244.586 71.0185 245.017 70.7398C245.448 70.4612 245.891 70.5118 246.347 70.8918C248.044 72.3105 249.906 73.0198 251.933 73.0198C253.2 73.0198 254.302 72.6652 255.239 71.9558C256.176 71.2465 256.734 70.2585 256.911 68.9918C257.088 67.8265 256.81 66.8512 256.075 66.0658C255.34 65.2805 253.934 64.6978 251.857 64.3178C251.35 64.1912 251.11 63.8618 251.135 63.3298C251.186 62.7978 251.388 62.3925 251.743 62.1138C254.251 60.1632 255.961 58.7445 256.873 57.8578C256.721 57.8325 256.417 57.7565 255.961 57.6298C255.505 57.4778 255.125 57.3638 254.821 57.2878C254.542 57.2118 254.162 57.1485 253.681 57.0978C253.2 57.0218 252.731 56.9838 252.275 56.9838C251.16 56.9838 250.223 57.3005 249.463 57.9338C249.336 58.0352 249.184 58.1745 249.007 58.3518C248.83 58.5038 248.69 58.6178 248.589 58.6938C248.513 58.7698 248.412 58.8585 248.285 58.9598C248.158 59.0358 248.044 59.0992 247.943 59.1498C247.842 59.1752 247.74 59.1878 247.639 59.1878C246.879 59.1878 246.664 58.4278 246.993 56.9078C247.474 54.7292 248.133 53.0952 248.969 52.0058C249.805 50.8912 250.996 50.3338 252.541 50.3338C253.58 50.3338 255.15 50.6378 257.253 51.2458C259.356 51.8538 260.926 52.1578 261.965 52.1578C262.32 52.1578 262.852 51.9425 263.561 51.5118C264.27 51.0558 264.802 50.8278 265.157 50.8278C265.74 50.8278 266.056 51.0812 266.107 51.5878C266.183 52.0945 266.069 52.4872 265.765 52.7658ZM298.646 72.6778C298.672 73.7165 298.114 74.7678 296.974 75.8318C295.86 76.8705 294.378 77.3898 292.528 77.3898C291.591 77.3898 290.768 77.1492 290.058 76.6678C289.374 76.1612 288.931 75.4012 288.728 74.3878C287.056 76.3892 285.068 77.3898 282.762 77.3898C280.862 77.3898 279.317 76.7438 278.126 75.4518C276.936 74.1598 276.34 72.5005 276.34 70.4738C276.34 67.1298 277.518 64.2798 279.874 61.9238C282.23 59.5678 284.814 58.3898 287.626 58.3898C288.538 58.3898 289.412 58.5292 290.248 58.8078C291.11 59.0612 291.616 59.1878 291.768 59.1878C292.047 59.1878 292.642 59.0358 293.554 58.7318C294.492 58.4278 295.15 58.2758 295.53 58.2758C296.037 58.2758 296.417 58.4405 296.67 58.7698C296.924 59.0992 297.025 59.4665 296.974 59.8718L295.378 70.8158C295.201 72.1078 295.442 72.7538 296.1 72.7538C296.354 72.7538 296.658 72.5765 297.012 72.2218C297.392 71.8672 297.684 71.6898 297.886 71.6898C298.393 71.6898 298.646 72.0192 298.646 72.6778ZM285.156 73.1718C286.195 73.1718 287.056 72.5132 287.74 71.1958C288.424 69.8785 288.918 68.2318 289.222 66.2558C289.729 62.8865 289.108 61.2018 287.36 61.2018C286.094 61.2018 285.093 62.0252 284.358 63.6718C283.649 65.2932 283.269 67.2565 283.218 69.5618C283.193 70.6005 283.345 71.4618 283.674 72.1458C284.004 72.8298 284.498 73.1718 285.156 73.1718ZM310.828 77.3898C308.168 77.4152 305.964 76.7185 304.216 75.2998C302.494 73.8812 301.632 71.8798 301.632 69.2958C301.632 66.4332 302.836 63.8998 305.242 61.6958C307.649 59.4918 310.448 58.3898 313.64 58.3898C318.53 58.3898 320.974 59.7072 320.974 62.3418C320.974 63.5072 320.594 64.5205 319.834 65.3818C319.1 66.2178 318.137 66.8132 316.946 67.1678C319.302 67.6238 320.48 68.8778 320.48 70.9298C320.48 72.7032 319.568 74.2232 317.744 75.4898C315.946 76.7312 313.64 77.3645 310.828 77.3898ZM310.828 74.6158C311.588 74.6158 312.196 74.2992 312.652 73.6658C313.134 73.0325 313.374 72.2218 313.374 71.2338C313.374 70.6005 313.159 70.0558 312.728 69.5998C312.323 69.1438 311.74 68.8652 310.98 68.7638C310.296 68.6878 309.954 68.3712 309.954 67.8138C309.929 67.4845 310.043 67.1805 310.296 66.9018C310.55 66.5978 310.892 66.4205 311.322 66.3698C313.45 65.9898 314.514 64.8118 314.514 62.8358C314.514 61.6958 313.957 61.1258 312.842 61.1258C311.93 61.1258 311.107 61.6325 310.372 62.6458C309.663 63.6338 309.144 64.8118 308.814 66.1798C308.485 67.5478 308.32 68.9158 308.32 70.2838C308.32 73.1718 309.156 74.6158 310.828 74.6158ZM329.868 77.3898C327.639 77.3898 326.094 76.9718 325.232 76.1358C324.371 75.2998 323.94 74.3245 323.94 73.2098C323.94 72.7538 324.004 72.3105 324.13 71.8798C324.257 71.4492 324.472 71.0438 324.776 70.6638C325.08 70.2585 325.359 69.9165 325.612 69.6378C325.866 69.3592 326.246 69.0425 326.752 68.6878C327.259 68.3332 327.639 68.0672 327.892 67.8898C328.171 67.7125 328.602 67.4465 329.184 67.0918C329.792 66.7372 330.185 66.5092 330.362 66.4078C332.06 65.3692 332.908 64.4572 332.908 63.6718C332.908 63.2918 332.794 63.0005 332.566 62.7978C332.364 62.5952 332.161 62.4812 331.958 62.4558C331.781 62.4305 331.528 62.4178 331.198 62.4178C330.033 62.4178 328.513 62.9118 326.638 63.8998C325.954 64.2798 325.435 64.3432 325.08 64.0898C324.726 63.8365 324.688 63.3932 324.966 62.7598C325.448 61.5692 326.474 60.5558 328.044 59.7198C329.615 58.8585 331.388 58.4278 333.364 58.4278C335.315 58.4278 336.81 58.7825 337.848 59.4918C338.887 60.1758 339.406 61.1005 339.406 62.2658C339.406 62.9752 339.267 63.6338 338.988 64.2418C338.71 64.8245 338.216 65.4198 337.506 66.0278C336.797 66.6105 336.278 67.0158 335.948 67.2438C335.644 67.4465 334.998 67.8518 334.01 68.4598C332.946 69.0678 332.161 69.5998 331.654 70.0558C331.148 70.4865 330.894 70.9678 330.894 71.4998C330.894 72.4118 331.464 72.8678 332.604 72.8678C334.606 72.8678 336.404 72.2598 338 71.0438C338.532 70.6638 338.938 70.6132 339.216 70.8918C339.495 71.1452 339.495 71.5885 339.216 72.2218C338.634 73.5898 337.506 74.7932 335.834 75.8318C334.188 76.8705 332.199 77.3898 329.868 77.3898ZM358.586 58.2758C359.574 58.2758 360.309 58.6178 360.79 59.3018C361.271 59.9605 361.512 60.7458 361.512 61.6578C361.512 63.8112 360.841 66.4838 359.498 69.6758C358.181 72.8678 356.952 75.3505 355.812 77.1238C352.519 82.3678 348.782 84.9898 344.602 84.9898C343.031 84.9898 341.828 84.6098 340.992 83.8498C340.131 83.0898 339.7 82.1145 339.7 80.9238C339.7 79.8092 339.991 78.9478 340.574 78.3398C341.131 77.7318 341.79 77.4278 342.55 77.4278C343.031 77.4278 343.475 77.5798 343.88 77.8838C344.285 78.2132 344.577 78.6312 344.754 79.1378C344.805 79.2645 344.881 79.4798 344.982 79.7838C345.083 80.0878 345.147 80.3032 345.172 80.4298C345.223 80.5565 345.299 80.7212 345.4 80.9238C345.527 81.1265 345.653 81.2658 345.78 81.3418C345.907 81.4178 346.071 81.4938 346.274 81.5698C346.477 81.6458 346.717 81.6838 346.996 81.6838C347.427 81.6838 347.832 81.5192 348.212 81.1898C348.592 80.8858 348.833 80.4678 348.934 79.9358C349.086 79.1252 349.023 77.9472 348.744 76.4018C348.009 72.6778 346.755 68.8398 344.982 64.8878C344.627 64.0772 344.298 63.5578 343.994 63.3298C343.69 63.0765 343.234 62.9118 342.626 62.8358C342.297 62.8105 342.056 62.7092 341.904 62.5318C341.752 62.3292 341.676 62.1392 341.676 61.9618C341.676 61.2272 342.436 60.4545 343.956 59.6438C345.476 58.8078 346.768 58.3898 347.832 58.3898C348.795 58.3898 349.529 58.9978 350.036 60.2138C351.657 64.1658 353.089 68.6372 354.33 73.6278C355.901 70.9678 356.686 68.5612 356.686 66.4078C356.686 65.6225 356.42 64.7358 355.888 63.7478C355.381 62.7345 355.128 61.9745 355.128 61.4678C355.128 60.5812 355.508 59.8338 356.268 59.2258C357.028 58.5925 357.801 58.2758 358.586 58.2758ZM372.536 77.3898C369.902 77.3898 367.862 76.6552 366.418 75.1858C364.974 73.6912 364.252 71.7785 364.252 69.4478C364.252 66.4078 365.354 63.8112 367.558 61.6578C369.762 59.4792 372.334 58.3898 375.272 58.3898C377.299 58.3898 379.009 58.9218 380.402 59.9858C381.796 61.0245 382.505 62.3545 382.53 63.9758C382.556 65.2172 382.214 66.2432 381.504 67.0538C380.795 67.8645 379.908 68.2192 378.844 68.1178C377.324 67.9152 376.564 66.9778 376.564 65.3058C376.539 62.7472 375.842 61.4678 374.474 61.4678C373.562 61.4678 372.777 62.0505 372.118 63.2158C371.485 64.3812 371.168 65.7492 371.168 67.3198C371.168 68.9918 371.599 70.2965 372.46 71.2338C373.347 72.1458 374.639 72.6018 376.336 72.6018C377.755 72.6018 379.161 72.1078 380.554 71.1198C381.061 70.7398 381.454 70.7018 381.732 71.0058C382.011 71.2845 381.998 71.7405 381.694 72.3738C381.112 73.6912 380.01 74.8565 378.388 75.8698C376.767 76.8832 374.816 77.3898 372.536 77.3898ZM417.185 71.6518C417.692 71.6518 417.945 71.9685 417.945 72.6018C417.945 73.6912 417.375 74.7678 416.235 75.8318C415.12 76.8705 413.613 77.3898 411.713 77.3898C410.446 77.3898 409.471 76.9465 408.787 76.0598C408.128 75.1732 407.951 73.8178 408.255 71.9938L408.977 67.9658C409.382 65.9392 409.572 64.5585 409.547 63.8238C409.547 63.0638 409.243 62.6838 408.635 62.6838C408.407 62.6838 408.154 62.7472 407.875 62.8738C407.622 63.0005 407.292 63.2918 406.887 63.7478C406.507 64.1785 406.127 64.7612 405.747 65.4958C405.367 66.2052 404.962 67.2312 404.531 68.5738C404.126 69.9165 403.746 71.4618 403.391 73.2098L403.049 75.0718C402.872 75.7812 402.441 76.2118 401.757 76.3638L397.349 77.3898C396.969 77.4658 396.678 77.3772 396.475 77.1238C396.272 76.8705 396.209 76.5285 396.285 76.0978L397.881 67.9658C398.134 66.6232 398.274 65.5718 398.299 64.8118C398.35 64.0265 398.299 63.4818 398.147 63.1778C397.995 62.8485 397.729 62.6838 397.349 62.6838C397.121 62.6838 396.88 62.7472 396.627 62.8738C396.374 63.0005 396.057 63.2918 395.677 63.7478C395.297 64.1785 394.93 64.7612 394.575 65.4958C394.246 66.2052 393.878 67.2312 393.473 68.5738C393.068 69.8912 392.688 71.4365 392.333 73.2098L391.953 75.0718C391.801 75.7812 391.37 76.2118 390.661 76.3638L386.291 77.3898C385.911 77.4658 385.607 77.3772 385.379 77.1238C385.176 76.8705 385.113 76.5285 385.189 76.0978L387.013 65.0778C387.114 64.5205 387.089 64.0772 386.937 63.7478C386.81 63.3932 386.62 63.1778 386.367 63.1018C386.139 63.0005 385.924 62.8485 385.721 62.6458C385.518 62.4432 385.417 62.1898 385.417 61.8858C385.417 61.5058 385.645 61.1258 386.101 60.7458C386.557 60.3658 387.52 59.8718 388.989 59.2638C390.61 58.6558 391.75 58.3518 392.409 58.3518C393.372 58.3518 393.802 58.8332 393.701 59.7958L393.397 62.1898C394.334 60.8725 395.386 59.9098 396.551 59.3018C397.742 58.6685 398.882 58.3518 399.971 58.3518C401.187 58.3518 402.213 58.6812 403.049 59.3398C403.885 59.9732 404.468 60.8472 404.797 61.9618C405.608 60.7965 406.608 59.9098 407.799 59.3018C408.99 58.6685 410.218 58.3518 411.485 58.3518C413.182 58.3518 414.474 59.1118 415.361 60.6318C416.273 62.1265 416.501 63.9885 416.045 66.2178L415.057 70.8158C414.905 71.5758 414.854 72.0952 414.905 72.3738C414.956 72.6525 415.12 72.7918 415.399 72.7918C415.652 72.7918 415.956 72.6018 416.311 72.2218C416.691 71.8418 416.982 71.6518 417.185 71.6518ZM443.665 72.6778C443.691 73.7165 443.133 74.7678 441.993 75.8318C440.879 76.8705 439.397 77.3898 437.547 77.3898C436.61 77.3898 435.787 77.1492 435.077 76.6678C434.393 76.1612 433.95 75.4012 433.747 74.3878C432.075 76.3892 430.087 77.3898 427.781 77.3898C425.881 77.3898 424.336 76.7438 423.145 75.4518C421.955 74.1598 421.359 72.5005 421.359 70.4738C421.359 67.1298 422.537 64.2798 424.893 61.9238C427.249 59.5678 429.833 58.3898 432.645 58.3898C433.557 58.3898 434.431 58.5292 435.267 58.8078C436.129 59.0612 436.635 59.1878 436.787 59.1878C437.066 59.1878 437.661 59.0358 438.573 58.7318C439.511 58.4278 440.169 58.2758 440.549 58.2758C441.056 58.2758 441.436 58.4405 441.689 58.7698C441.943 59.0992 442.044 59.4665 441.993 59.8718L440.397 70.8158C440.22 72.1078 440.461 72.7538 441.119 72.7538C441.373 72.7538 441.677 72.5765 442.031 72.2218C442.411 71.8672 442.703 71.6898 442.905 71.6898C443.412 71.6898 443.665 72.0192 443.665 72.6778ZM430.175 73.1718C431.214 73.1718 432.075 72.5132 432.759 71.1958C433.443 69.8785 433.937 68.2318 434.241 66.2558C434.748 62.8865 434.127 61.2018 432.379 61.2018C431.113 61.2018 430.112 62.0252 429.377 63.6718C428.668 65.2932 428.288 67.2565 428.237 69.5618C428.212 70.6005 428.364 71.4618 428.693 72.1458C429.023 72.8298 429.517 73.1718 430.175 73.1718ZM229.676 120.69C230.183 120.69 230.436 121.019 230.436 121.678C230.436 122.716 229.854 123.768 228.688 124.832C227.548 125.87 226.028 126.39 224.128 126.39C222.836 126.39 221.823 125.959 221.088 125.098C220.379 124.211 220.164 122.868 220.442 121.07L220.898 117.916H215.502L214.704 124.034C214.603 124.768 214.185 125.212 213.45 125.364L209.042 126.39C208.688 126.466 208.396 126.377 208.168 126.124C207.966 125.87 207.902 125.528 207.978 125.098L209.46 114.116C209.536 113.558 209.498 113.115 209.346 112.786C209.22 112.431 209.042 112.216 208.814 112.14C208.586 112.038 208.371 111.886 208.168 111.684C207.966 111.481 207.864 111.228 207.864 110.924C207.864 110.518 208.067 110.138 208.472 109.784C208.903 109.404 209.739 108.986 210.98 108.53C213.007 107.795 214.54 107.428 215.578 107.428C216.465 107.428 216.845 107.884 216.718 108.796L215.882 115.104H221.316L222.076 109.822C222.178 109.062 222.596 108.606 223.33 108.454L227.662 107.428C228.042 107.352 228.334 107.44 228.536 107.694C228.739 107.947 228.815 108.276 228.764 108.682L227.206 119.816C226.978 121.108 227.206 121.754 227.89 121.754C228.144 121.754 228.448 121.576 228.802 121.222C229.182 120.867 229.474 120.69 229.676 120.69ZM255.87 121.678C255.896 122.716 255.338 123.768 254.198 124.832C253.084 125.87 251.602 126.39 249.752 126.39C248.815 126.39 247.992 126.149 247.282 125.668C246.598 125.161 246.155 124.401 245.952 123.388C244.28 125.389 242.292 126.39 239.986 126.39C238.086 126.39 236.541 125.744 235.35 124.452C234.16 123.16 233.564 121.5 233.564 119.474C233.564 116.13 234.742 113.28 237.098 110.924C239.454 108.568 242.038 107.39 244.85 107.39C245.762 107.39 246.636 107.529 247.472 107.808C248.334 108.061 248.84 108.188 248.992 108.188C249.271 108.188 249.866 108.036 250.778 107.732C251.716 107.428 252.374 107.276 252.754 107.276C253.261 107.276 253.641 107.44 253.894 107.77C254.148 108.099 254.249 108.466 254.198 108.872L252.602 119.816C252.425 121.108 252.666 121.754 253.324 121.754C253.578 121.754 253.882 121.576 254.236 121.222C254.616 120.867 254.908 120.69 255.11 120.69C255.617 120.69 255.87 121.019 255.87 121.678ZM242.38 122.172C243.419 122.172 244.28 121.513 244.964 120.196C245.648 118.878 246.142 117.232 246.446 115.256C246.953 111.886 246.332 110.202 244.584 110.202C243.318 110.202 242.317 111.025 241.582 112.672C240.873 114.293 240.493 116.256 240.442 118.562C240.417 119.6 240.569 120.462 240.898 121.146C241.228 121.83 241.722 122.172 242.38 122.172ZM274.408 126.39C273.091 126.39 272.052 125.934 271.292 125.022C270.532 124.11 270.304 122.742 270.608 120.918L271.216 117.384C269.722 119.233 267.898 120.158 265.744 120.158C263.92 120.158 262.476 119.752 261.412 118.942C260.374 118.106 259.854 117.004 259.854 115.636C259.854 115.104 259.88 114.559 259.93 114.002C260.082 112.963 259.854 112.304 259.246 112.026C258.638 111.671 258.334 111.291 258.334 110.886C258.334 110.632 258.398 110.404 258.524 110.202C258.651 109.974 258.993 109.695 259.55 109.366C260.108 109.011 260.893 108.656 261.906 108.302C263.629 107.668 265.06 107.352 266.2 107.352C267.087 107.352 267.48 107.833 267.378 108.796L266.808 113.432C266.783 113.938 266.758 114.47 266.732 115.028C266.707 115.585 266.821 116.066 267.074 116.472C267.328 116.877 267.72 117.08 268.252 117.08C269.139 117.08 269.912 116.598 270.57 115.636C271.229 114.673 271.634 113.622 271.786 112.482L272.128 109.746C272.204 109.062 272.61 108.631 273.344 108.454L277.98 107.428C278.36 107.352 278.652 107.44 278.854 107.694C279.057 107.947 279.133 108.276 279.082 108.682L277.562 119.816C277.41 121.108 277.613 121.754 278.17 121.754C278.424 121.754 278.728 121.576 279.082 121.222C279.462 120.867 279.754 120.69 279.956 120.69C280.463 120.69 280.716 121.019 280.716 121.678C280.716 122.716 280.134 123.768 278.968 124.832C277.828 125.87 276.308 126.39 274.408 126.39ZM305.544 120.69C306.051 120.69 306.304 121.019 306.304 121.678C306.304 122.716 305.721 123.768 304.556 124.832C303.416 125.87 301.896 126.39 299.996 126.39C298.704 126.39 297.691 125.959 296.956 125.098C296.247 124.211 296.031 122.868 296.31 121.07L296.766 117.916H291.37L290.572 124.034C290.471 124.768 290.053 125.212 289.318 125.364L284.91 126.39C284.555 126.466 284.264 126.377 284.036 126.124C283.833 125.87 283.77 125.528 283.846 125.098L285.328 114.116C285.404 113.558 285.366 113.115 285.214 112.786C285.087 112.431 284.91 112.216 284.682 112.14C284.454 112.038 284.239 111.886 284.036 111.684C283.833 111.481 283.732 111.228 283.732 110.924C283.732 110.518 283.935 110.138 284.34 109.784C284.771 109.404 285.607 108.986 286.848 108.53C288.875 107.795 290.407 107.428 291.446 107.428C292.333 107.428 292.713 107.884 292.586 108.796L291.75 115.104H297.184L297.944 109.822C298.045 109.062 298.463 108.606 299.198 108.454L303.53 107.428C303.91 107.352 304.201 107.44 304.404 107.694C304.607 107.947 304.683 108.276 304.632 108.682L303.074 119.816C302.846 121.108 303.074 121.754 303.758 121.754C304.011 121.754 304.315 121.576 304.67 121.222C305.05 120.867 305.341 120.69 305.544 120.69ZM325.506 120.424C326.038 120.044 326.494 119.98 326.874 120.234C327.28 120.487 327.305 120.905 326.95 121.488C326.089 122.932 324.86 124.11 323.264 125.022C321.694 125.934 319.882 126.39 317.83 126.39C315.17 126.39 313.118 125.693 311.674 124.3C310.256 122.906 309.546 120.994 309.546 118.562C309.546 115.547 310.636 112.938 312.814 110.734C315.018 108.504 317.666 107.39 320.756 107.39C322.783 107.39 324.404 107.884 325.62 108.872C326.836 109.834 327.444 111.038 327.444 112.482C327.444 113.9 326.849 115.154 325.658 116.244C324.493 117.308 323.087 118.08 321.44 118.562C319.819 119.018 318.185 119.208 316.538 119.132C317.172 120.956 318.603 121.868 320.832 121.868C322.631 121.868 324.189 121.386 325.506 120.424ZM320.034 110.316C318.793 110.316 317.83 110.911 317.146 112.102C316.462 113.292 316.12 114.521 316.12 115.788C316.12 116.168 316.336 116.358 316.766 116.358C318.109 116.408 319.363 116.066 320.528 115.332C321.719 114.572 322.289 113.584 322.238 112.368C322.213 111.81 322.01 111.329 321.63 110.924C321.25 110.518 320.718 110.316 320.034 110.316ZM362.924 120.652C363.431 120.652 363.684 120.968 363.684 121.602C363.684 122.691 363.114 123.768 361.974 124.832C360.86 125.87 359.352 126.39 357.452 126.39C356.186 126.39 355.21 125.946 354.526 125.06C353.868 124.173 353.69 122.818 353.994 120.994L354.716 116.966C355.122 114.939 355.312 113.558 355.286 112.824C355.286 112.064 354.982 111.684 354.374 111.684C354.146 111.684 353.893 111.747 353.614 111.874C353.361 112 353.032 112.292 352.626 112.748C352.246 113.178 351.866 113.761 351.486 114.496C351.106 115.205 350.701 116.231 350.27 117.574C349.865 118.916 349.485 120.462 349.13 122.21L348.788 124.072C348.611 124.781 348.18 125.212 347.496 125.364L343.088 126.39C342.708 126.466 342.417 126.377 342.214 126.124C342.012 125.87 341.948 125.528 342.024 125.098L343.62 116.966C343.874 115.623 344.013 114.572 344.038 113.812C344.089 113.026 344.038 112.482 343.886 112.178C343.734 111.848 343.468 111.684 343.088 111.684C342.86 111.684 342.62 111.747 342.366 111.874C342.113 112 341.796 112.292 341.416 112.748C341.036 113.178 340.669 113.761 340.314 114.496C339.985 115.205 339.618 116.231 339.212 117.574C338.807 118.891 338.427 120.436 338.072 122.21L337.692 124.072C337.54 124.781 337.11 125.212 336.4 125.364L332.03 126.39C331.65 126.466 331.346 126.377 331.118 126.124C330.916 125.87 330.852 125.528 330.928 125.098L332.752 114.078C332.854 113.52 332.828 113.077 332.676 112.748C332.55 112.393 332.36 112.178 332.106 112.102C331.878 112 331.663 111.848 331.46 111.646C331.258 111.443 331.156 111.19 331.156 110.886C331.156 110.506 331.384 110.126 331.84 109.746C332.296 109.366 333.259 108.872 334.728 108.264C336.35 107.656 337.49 107.352 338.148 107.352C339.111 107.352 339.542 107.833 339.44 108.796L339.136 111.19C340.074 109.872 341.125 108.91 342.29 108.302C343.481 107.668 344.621 107.352 345.71 107.352C346.926 107.352 347.952 107.681 348.788 108.34C349.624 108.973 350.207 109.847 350.536 110.962C351.347 109.796 352.348 108.91 353.538 108.302C354.729 107.668 355.958 107.352 357.224 107.352C358.922 107.352 360.214 108.112 361.1 109.632C362.012 111.126 362.24 112.988 361.784 115.218L360.796 119.816C360.644 120.576 360.594 121.095 360.644 121.374C360.695 121.652 360.86 121.792 361.138 121.792C361.392 121.792 361.696 121.602 362.05 121.222C362.43 120.842 362.722 120.652 362.924 120.652ZM181.428 169.652C181.935 169.652 182.188 169.968 182.188 170.602C182.188 171.691 181.618 172.768 180.478 173.832C179.364 174.87 177.856 175.39 175.956 175.39C174.69 175.39 173.714 174.946 173.03 174.06C172.372 173.173 172.194 171.818 172.498 169.994L173.22 165.966C173.626 163.939 173.816 162.558 173.79 161.824C173.79 161.064 173.486 160.684 172.878 160.684C172.65 160.684 172.397 160.747 172.118 160.874C171.865 161 171.536 161.292 171.13 161.748C170.75 162.178 170.37 162.761 169.99 163.496C169.61 164.205 169.205 165.231 168.774 166.574C168.369 167.916 167.989 169.462 167.634 171.21L167.292 173.072C167.115 173.781 166.684 174.212 166 174.364L161.592 175.39C161.212 175.466 160.921 175.377 160.718 175.124C160.516 174.87 160.452 174.528 160.528 174.098L162.124 165.966C162.378 164.623 162.517 163.572 162.542 162.812C162.593 162.026 162.542 161.482 162.39 161.178C162.238 160.848 161.972 160.684 161.592 160.684C161.364 160.684 161.124 160.747 160.87 160.874C160.617 161 160.3 161.292 159.92 161.748C159.54 162.178 159.173 162.761 158.818 163.496C158.489 164.205 158.122 165.231 157.716 166.574C157.311 167.891 156.931 169.436 156.576 171.21L156.196 173.072C156.044 173.781 155.614 174.212 154.904 174.364L150.534 175.39C150.154 175.466 149.85 175.377 149.622 175.124C149.42 174.87 149.356 174.528 149.432 174.098L151.256 163.078C151.358 162.52 151.332 162.077 151.18 161.748C151.054 161.393 150.864 161.178 150.61 161.102C150.382 161 150.167 160.848 149.964 160.646C149.762 160.443 149.66 160.19 149.66 159.886C149.66 159.506 149.888 159.126 150.344 158.746C150.8 158.366 151.763 157.872 153.232 157.264C154.854 156.656 155.994 156.352 156.652 156.352C157.615 156.352 158.046 156.833 157.944 157.796L157.64 160.19C158.578 158.872 159.629 157.91 160.794 157.302C161.985 156.668 163.125 156.352 164.214 156.352C165.43 156.352 166.456 156.681 167.292 157.34C168.128 157.973 168.711 158.847 169.04 159.962C169.851 158.796 170.852 157.91 172.042 157.302C173.233 156.668 174.462 156.352 175.728 156.352C177.426 156.352 178.718 157.112 179.604 158.632C180.516 160.126 180.744 161.988 180.288 164.218L179.3 168.816C179.148 169.576 179.098 170.095 179.148 170.374C179.199 170.652 179.364 170.792 179.642 170.792C179.896 170.792 180.2 170.602 180.554 170.222C180.934 169.842 181.226 169.652 181.428 169.652ZM198.637 161.254C200.106 161.254 201.335 161.71 202.323 162.622C203.311 163.508 203.805 164.661 203.805 166.08C203.805 167.954 203.235 169.626 202.095 171.096C200.98 172.565 199.625 173.654 198.029 174.364C196.458 175.048 194.862 175.39 193.241 175.39C190.606 175.39 188.681 174.782 187.465 173.566C186.249 172.324 185.843 170.488 186.249 168.056L187.085 163.002C187.262 161.938 187.034 161.279 186.401 161.026C185.793 160.671 185.489 160.291 185.489 159.886C185.489 159.632 185.552 159.404 185.679 159.202C185.805 158.974 186.147 158.682 186.705 158.328C187.262 157.973 188.047 157.618 189.061 157.264C190.809 156.656 192.24 156.352 193.355 156.352C194.292 156.352 194.672 156.833 194.495 157.796L193.659 163.192C195.153 161.9 196.813 161.254 198.637 161.254ZM214.749 170.678C214.774 171.716 214.204 172.768 213.039 173.832C211.899 174.87 210.379 175.39 208.479 175.39C207.187 175.39 206.173 174.959 205.439 174.098C204.704 173.211 204.476 171.868 204.755 170.07L206.389 158.822C206.49 158.087 206.921 157.631 207.681 157.454L212.013 156.428C212.367 156.352 212.646 156.44 212.849 156.694C213.077 156.947 213.165 157.276 213.115 157.682L211.519 168.816C211.341 170.108 211.582 170.754 212.241 170.754C212.494 170.754 212.798 170.576 213.153 170.222C213.507 169.867 213.786 169.69 213.989 169.69C214.495 169.69 214.749 170.019 214.749 170.678ZM197.155 167.144C197.205 165.75 196.762 165.054 195.825 165.054C195.014 165.054 194.305 165.674 193.697 166.916C193.089 168.157 192.797 169.335 192.823 170.45C192.848 171.032 192.987 171.526 193.241 171.932C193.494 172.312 193.861 172.489 194.343 172.464C195.103 172.464 195.761 171.894 196.319 170.754C196.876 169.614 197.155 168.41 197.155 167.144ZM233.524 175.314C231.75 175.314 230.509 174.934 229.8 174.174C229.116 173.414 228.571 172.046 228.166 170.07C228.14 169.918 228.09 169.639 228.014 169.234C227.963 168.828 227.9 168.537 227.824 168.36C227.773 168.182 227.684 167.967 227.558 167.714C227.431 167.435 227.241 167.245 226.988 167.144C226.76 167.042 226.456 166.992 226.076 166.992C225.848 166.992 225.683 167.068 225.582 167.22C225.506 167.346 225.43 167.65 225.354 168.132L225.202 169.424C225.126 169.93 225.1 170.374 225.126 170.754C225.151 171.362 225.392 171.906 225.848 172.388C226.329 172.844 226.532 173.338 226.456 173.87C226.354 174.63 225.696 175.01 224.48 175.01H217.64C216.956 175.01 216.474 174.921 216.196 174.744C215.892 174.566 215.765 174.25 215.816 173.794C215.866 173.388 216.044 173.072 216.348 172.844C216.626 172.59 216.943 172.312 217.298 172.008C217.652 171.678 217.918 171.26 218.096 170.754C218.248 170.095 218.349 169.652 218.4 169.424L219.35 162.356C219.426 161.849 219.451 161.393 219.426 160.988C219.4 160.38 219.147 159.848 218.666 159.392C218.21 158.936 218.02 158.442 218.096 157.91C218.197 157.15 218.856 156.77 220.072 156.77H226.912C227.596 156.77 228.077 156.858 228.356 157.036C228.66 157.213 228.786 157.517 228.736 157.948C228.66 158.429 228.305 158.91 227.672 159.392C227.064 159.848 226.658 160.38 226.456 160.988C226.278 161.773 226.177 162.229 226.152 162.356L226.038 163.382C225.987 163.736 226 163.952 226.076 164.028C226.152 164.104 226.354 164.142 226.684 164.142H227.064C227.646 164.142 228.178 163.876 228.66 163.344C229.166 162.812 229.622 162.166 230.028 161.406C230.433 160.646 230.876 159.886 231.358 159.126C231.839 158.366 232.472 157.72 233.258 157.188C234.043 156.656 234.942 156.39 235.956 156.39C236.994 156.39 237.818 156.706 238.426 157.34C239.034 157.973 239.249 158.872 239.072 160.038C238.97 160.924 238.641 161.621 238.084 162.128C237.552 162.634 236.944 162.888 236.26 162.888C235.905 162.888 235.601 162.799 235.348 162.622C235.12 162.419 234.955 162.216 234.854 162.014C234.778 161.786 234.651 161.583 234.474 161.406C234.322 161.203 234.132 161.102 233.904 161.102C233.549 161.102 233.182 161.393 232.802 161.976C232.447 162.558 232.004 163.242 231.472 164.028C230.94 164.813 230.357 165.37 229.724 165.7C231.193 165.826 232.282 166.232 232.992 166.916C233.701 167.574 234.246 168.575 234.626 169.918C234.803 170.526 234.98 171.02 235.158 171.4C235.335 171.78 235.538 172.046 235.766 172.198C235.994 172.35 236.171 172.451 236.298 172.502C236.45 172.527 236.678 172.54 236.982 172.54C237.539 172.59 237.792 172.92 237.742 173.528C237.666 174.034 237.248 174.465 236.488 174.82C235.753 175.149 234.765 175.314 233.524 175.314ZM263.683 170.678C263.708 171.716 263.151 172.768 262.011 173.832C260.896 174.87 259.414 175.39 257.565 175.39C256.627 175.39 255.804 175.149 255.095 174.668C254.411 174.161 253.967 173.401 253.765 172.388C252.093 174.389 250.104 175.39 247.799 175.39C245.899 175.39 244.353 174.744 243.163 173.452C241.972 172.16 241.377 170.5 241.377 168.474C241.377 165.13 242.555 162.28 244.911 159.924C247.267 157.568 249.851 156.39 252.663 156.39C253.575 156.39 254.449 156.529 255.285 156.808C256.146 157.061 256.653 157.188 256.805 157.188C257.083 157.188 257.679 157.036 258.591 156.732C259.528 156.428 260.187 156.276 260.567 156.276C261.073 156.276 261.453 156.44 261.707 156.77C261.96 157.099 262.061 157.466 262.011 157.872L260.415 168.816C260.237 170.108 260.478 170.754 261.137 170.754C261.39 170.754 261.694 170.576 262.049 170.222C262.429 169.867 262.72 169.69 262.923 169.69C263.429 169.69 263.683 170.019 263.683 170.678ZM250.193 171.172C251.231 171.172 252.093 170.513 252.777 169.196C253.461 167.878 253.955 166.232 254.259 164.256C254.765 160.886 254.145 159.202 252.397 159.202C251.13 159.202 250.129 160.025 249.395 161.672C248.685 163.293 248.305 165.256 248.255 167.562C248.229 168.6 248.381 169.462 248.711 170.146C249.04 170.83 249.534 171.172 250.193 171.172ZM298.951 169.652C299.458 169.652 299.711 169.968 299.711 170.602C299.711 171.691 299.141 172.768 298.001 173.832C296.886 174.87 295.379 175.39 293.479 175.39C292.212 175.39 291.237 174.946 290.553 174.06C289.894 173.173 289.717 171.818 290.021 169.994L290.743 165.966C291.148 163.939 291.338 162.558 291.313 161.824C291.313 161.064 291.009 160.684 290.401 160.684C290.173 160.684 289.92 160.747 289.641 160.874C289.388 161 289.058 161.292 288.653 161.748C288.273 162.178 287.893 162.761 287.513 163.496C287.133 164.205 286.728 165.231 286.297 166.574C285.892 167.916 285.512 169.462 285.157 171.21L284.815 173.072C284.638 173.781 284.207 174.212 283.523 174.364L279.115 175.39C278.735 175.466 278.444 175.377 278.241 175.124C278.038 174.87 277.975 174.528 278.051 174.098L279.647 165.966C279.9 164.623 280.04 163.572 280.065 162.812C280.116 162.026 280.065 161.482 279.913 161.178C279.761 160.848 279.495 160.684 279.115 160.684C278.887 160.684 278.646 160.747 278.393 160.874C278.14 161 277.823 161.292 277.443 161.748C277.063 162.178 276.696 162.761 276.341 163.496C276.012 164.205 275.644 165.231 275.239 166.574C274.834 167.891 274.454 169.436 274.099 171.21L273.719 173.072C273.567 173.781 273.136 174.212 272.427 174.364L268.057 175.39C267.677 175.466 267.373 175.377 267.145 175.124C266.942 174.87 266.879 174.528 266.955 174.098L268.779 163.078C268.88 162.52 268.855 162.077 268.703 161.748C268.576 161.393 268.386 161.178 268.133 161.102C267.905 161 267.69 160.848 267.487 160.646C267.284 160.443 267.183 160.19 267.183 159.886C267.183 159.506 267.411 159.126 267.867 158.746C268.323 158.366 269.286 157.872 270.755 157.264C272.376 156.656 273.516 156.352 274.175 156.352C275.138 156.352 275.568 156.833 275.467 157.796L275.163 160.19C276.1 158.872 277.152 157.91 278.317 157.302C279.508 156.668 280.648 156.352 281.737 156.352C282.953 156.352 283.979 156.681 284.815 157.34C285.651 157.973 286.234 158.847 286.563 159.962C287.374 158.796 288.374 157.91 289.565 157.302C290.756 156.668 291.984 156.352 293.251 156.352C294.948 156.352 296.24 157.112 297.127 158.632C298.039 160.126 298.267 161.988 297.811 164.218L296.823 168.816C296.671 169.576 296.62 170.095 296.671 170.374C296.722 170.652 296.886 170.792 297.165 170.792C297.418 170.792 297.722 170.602 298.077 170.222C298.457 169.842 298.748 169.652 298.951 169.652ZM316.159 161.254C317.629 161.254 318.857 161.71 319.845 162.622C320.833 163.508 321.327 164.661 321.327 166.08C321.327 167.954 320.757 169.626 319.617 171.096C318.503 172.565 317.147 173.654 315.551 174.364C313.981 175.048 312.385 175.39 310.763 175.39C308.129 175.39 306.203 174.782 304.987 173.566C303.771 172.324 303.366 170.488 303.771 168.056L304.607 163.002C304.785 161.938 304.557 161.279 303.923 161.026C303.315 160.671 303.011 160.291 303.011 159.886C303.011 159.632 303.075 159.404 303.201 159.202C303.328 158.974 303.67 158.682 304.227 158.328C304.785 157.973 305.57 157.618 306.583 157.264C308.331 156.656 309.763 156.352 310.877 156.352C311.815 156.352 312.195 156.833 312.017 157.796L311.181 163.192C312.676 161.9 314.335 161.254 316.159 161.254ZM314.677 167.144C314.728 165.75 314.285 165.054 313.347 165.054C312.537 165.054 311.827 165.674 311.219 166.916C310.611 168.157 310.32 169.335 310.345 170.45C310.371 171.032 310.51 171.526 310.763 171.932C311.017 172.312 311.384 172.489 311.865 172.464C312.625 172.464 313.284 171.894 313.841 170.754C314.399 169.614 314.677 168.41 314.677 167.144ZM332.471 175.39C329.836 175.39 327.797 174.655 326.353 173.186C324.909 171.691 324.187 169.778 324.187 167.448C324.187 164.408 325.289 161.811 327.493 159.658C329.697 157.479 332.268 156.39 335.207 156.39C337.233 156.39 338.943 156.922 340.337 157.986C341.73 159.024 342.439 160.354 342.465 161.976C342.49 163.217 342.148 164.243 341.439 165.054C340.729 165.864 339.843 166.219 338.779 166.118C337.259 165.915 336.499 164.978 336.499 163.306C336.473 160.747 335.777 159.468 334.409 159.468C333.497 159.468 332.711 160.05 332.053 161.216C331.419 162.381 331.103 163.749 331.103 165.32C331.103 166.992 331.533 168.296 332.395 169.234C333.281 170.146 334.573 170.602 336.271 170.602C337.689 170.602 339.095 170.108 340.489 169.12C340.995 168.74 341.388 168.702 341.667 169.006C341.945 169.284 341.933 169.74 341.629 170.374C341.046 171.691 339.944 172.856 338.323 173.87C336.701 174.883 334.751 175.39 332.471 175.39ZM361.008 175.39C359.69 175.39 358.664 174.959 357.93 174.098C357.22 173.211 357.03 171.83 357.36 169.956L357.588 168.588C357.689 168.132 357.512 167.904 357.056 167.904C356.853 167.904 356.701 167.929 356.6 167.98C356.296 168.056 356.004 168.233 355.726 168.512C355.472 168.79 355.27 169.069 355.118 169.348C354.991 169.626 354.776 170.07 354.472 170.678C354.193 171.286 353.965 171.767 353.788 172.122C353.256 173.135 352.572 173.92 351.736 174.478C350.925 175.035 349.671 175.314 347.974 175.314C345.314 175.314 344.06 174.845 344.212 173.908C344.288 173.325 344.642 172.97 345.276 172.844C345.732 172.692 346.036 172.578 346.188 172.502C346.34 172.426 346.58 172.236 346.91 171.932C347.239 171.628 347.581 171.184 347.936 170.602C348.797 169.208 349.76 168.182 350.824 167.524C348.544 166.637 347.568 165.054 347.898 162.774C348.151 160.924 349.139 159.468 350.862 158.404C352.584 157.314 354.763 156.77 357.398 156.77H366.062C367.328 156.77 367.924 157.112 367.848 157.796C367.797 158.176 367.404 158.67 366.67 159.278C365.96 159.886 365.555 160.557 365.454 161.292L364.39 168.816C364.263 169.601 364.225 170.12 364.276 170.374C364.326 170.627 364.491 170.754 364.77 170.754C365.023 170.754 365.327 170.576 365.682 170.222C366.062 169.867 366.353 169.69 366.556 169.69C367.062 169.69 367.316 170.019 367.316 170.678C367.341 171.716 366.771 172.768 365.606 173.832C364.466 174.87 362.933 175.39 361.008 175.39ZM356.676 165.206C357.106 165.206 357.41 165.13 357.588 164.978C357.79 164.826 357.917 164.547 357.968 164.142L358.462 160.988C358.588 160.532 358.601 160.164 358.5 159.886C358.398 159.582 358.056 159.43 357.474 159.43C356.764 159.43 356.169 159.683 355.688 160.19C355.206 160.696 354.89 161.431 354.738 162.394C354.611 163.255 354.75 163.939 355.156 164.446C355.586 164.952 356.093 165.206 356.676 165.206ZM373.575 175.466C372.663 175.466 371.903 175.2 371.295 174.668C370.712 174.11 370.421 173.325 370.421 172.312C370.421 171.121 370.826 170.158 371.637 169.424C372.473 168.689 373.423 168.322 374.487 168.322C375.374 168.322 376.108 168.613 376.691 169.196C377.299 169.753 377.603 170.538 377.603 171.552C377.603 172.742 377.198 173.692 376.387 174.402C375.602 175.111 374.664 175.466 373.575 175.466ZM385.393 175.466C384.481 175.466 383.721 175.2 383.113 174.668C382.531 174.11 382.239 173.325 382.239 172.312C382.239 171.121 382.645 170.158 383.455 169.424C384.291 168.689 385.241 168.322 386.305 168.322C387.192 168.322 387.927 168.613 388.509 169.196C389.117 169.753 389.421 170.538 389.421 171.552C389.421 172.742 389.016 173.692 388.205 174.402C387.42 175.111 386.483 175.466 385.393 175.466ZM397.212 175.466C396.3 175.466 395.54 175.2 394.932 174.668C394.349 174.11 394.058 173.325 394.058 172.312C394.058 171.121 394.463 170.158 395.274 169.424C396.11 168.689 397.06 168.322 398.124 168.322C399.011 168.322 399.745 168.613 400.328 169.196C400.936 169.753 401.24 170.538 401.24 171.552C401.24 172.742 400.835 173.692 400.024 174.402C399.239 175.111 398.301 175.466 397.212 175.466Z" fill="#C5FF71"/>
<path d="M409.031 175.466C408.119 175.466 407.359 175.2 406.751 174.668C406.168 174.11 405.877 173.325 405.877 172.312C405.877 171.121 406.282 170.158 407.093 169.424C407.929 168.689 408.879 168.322 409.943 168.322C410.829 168.322 411.564 168.613 412.147 169.196C412.755 169.753 413.059 170.538 413.059 171.552C413.059 172.742 412.653 173.692 411.843 174.402C411.057 175.111 410.12 175.466 409.031 175.466Z" fill="#FFC6F9"/>
</svg>
