<svg width="156" height="51" viewBox="0 0 156 51" fill="none" xmlns="http://www.w3.org/2000/svg">
<path d="M24.039 9.49095C35.3233 11.3454 32.7531 32.3908 30.656 39.4316C23.8466 24.9612 8.03894 19.0255 0.986251 17.8665C3.56965 16.4686 12.7547 7.63649 24.039 9.49095Z" fill="#FFC6F9"/>
<rect x="15" y="1" width="140" height="49" rx="24.5" fill="#6932FF" stroke="#FFC6F9" stroke-width="2"/>
<path d="M45.56 16.542H43.152C42.956 16.542 42.8206 16.5093 42.746 16.444C42.6806 16.3787 42.6853 16.262 42.76 16.094L42.9 15.786C42.9746 15.6087 43.054 15.4873 43.138 15.422C43.2313 15.3567 43.3713 15.324 43.558 15.324H45.966C46.162 15.324 46.2926 15.3567 46.358 15.422C46.4326 15.4873 46.4326 15.604 46.358 15.772L46.218 16.08C46.1433 16.2573 46.0593 16.3787 45.966 16.444C45.882 16.5093 45.7466 16.542 45.56 16.542ZM52.6513 20H51.1253C50.8453 20 50.6586 19.972 50.5653 19.916C50.4813 19.8507 50.4486 19.734 50.4673 19.566C50.486 19.4353 50.57 19.314 50.7193 19.202C50.878 19.0807 51.0413 18.9407 51.2093 18.782C51.3773 18.614 51.4846 18.418 51.5313 18.194L52.6513 12.258C52.698 12.034 52.684 11.8473 52.6093 11.698C52.544 11.5487 52.4553 11.446 52.3433 11.39C52.2406 11.3247 52.1473 11.236 52.0633 11.124C51.9793 11.0027 51.9466 10.8627 51.9653 10.704C52.0026 10.5173 52.0866 10.3867 52.2173 10.312C52.3573 10.2373 52.5673 10.2 52.8473 10.2H54.9753C55.2926 10.2 55.5026 10.3493 55.6053 10.648L57.1033 15.674L60.2113 10.662C60.4073 10.354 60.6546 10.2 60.9533 10.2H62.9833C63.2726 10.2 63.4733 10.2373 63.5853 10.312C63.6973 10.3867 63.7393 10.5173 63.7113 10.704C63.6833 10.8627 63.6133 11.0027 63.5013 11.124C63.3893 11.236 63.2726 11.3247 63.1513 11.39C63.03 11.446 62.9133 11.5487 62.8013 11.698C62.6893 11.8473 62.6193 12.034 62.5913 12.258L62.0453 17.62C62.0173 17.8813 62.0313 18.096 62.0873 18.264C62.1433 18.4227 62.218 18.5393 62.3113 18.614C62.4046 18.6887 62.498 18.7587 62.5913 18.824C62.6846 18.88 62.7593 18.964 62.8153 19.076C62.8713 19.1787 62.89 19.3187 62.8713 19.496C62.8433 19.6827 62.7593 19.8133 62.6193 19.888C62.4886 19.9627 62.2553 20 61.9193 20H59.1473C58.83 20 58.6106 19.9627 58.4893 19.888C58.3773 19.8133 58.3353 19.6827 58.3633 19.496C58.3913 19.3093 58.4566 19.1507 58.5593 19.02C58.662 18.8893 58.7693 18.7913 58.8813 18.726C59.0026 18.6607 59.1193 18.5347 59.2313 18.348C59.3433 18.1613 59.418 17.9187 59.4553 17.62L59.9873 13.364L56.5713 18.964C56.4126 19.244 56.1793 19.412 55.8713 19.468C55.554 19.5333 55.3533 19.426 55.2693 19.146L53.6453 13.462L52.8473 18.194C52.8006 18.4833 52.88 18.7493 53.0853 18.992C53.3 19.2253 53.3933 19.4213 53.3653 19.58C53.3466 19.748 53.2813 19.86 53.1693 19.916C53.0666 19.972 52.894 20 52.6513 20ZM67.8961 20.154C66.8601 20.154 66.0528 19.888 65.4741 19.356C64.8954 18.8147 64.6061 18.0727 64.6061 17.13C64.6061 16.0193 65.0308 15.0767 65.8801 14.302C66.7294 13.518 67.7374 13.126 68.9041 13.126C69.9028 13.126 70.6914 13.4013 71.2701 13.952C71.8488 14.5027 72.1381 15.2167 72.1381 16.094C72.1381 17.2887 71.7321 18.264 70.9201 19.02C70.1081 19.776 69.1001 20.154 67.8961 20.154ZM67.9801 19.048C68.4094 19.048 68.7594 18.698 69.0301 17.998C69.3008 17.2887 69.4361 16.556 69.4361 15.8C69.4361 14.7453 69.1748 14.218 68.6521 14.218C68.2041 14.218 67.8448 14.554 67.5741 15.226C67.3128 15.8887 67.1728 16.6213 67.1541 17.424C67.1821 18.5067 67.4574 19.048 67.9801 19.048ZM74.0477 20.112C73.581 20.112 73.231 20.0513 72.9977 19.93C72.7644 19.7993 72.6617 19.6407 72.6897 19.454C72.6897 19.3607 72.727 19.2813 72.8017 19.216C72.8764 19.1413 72.965 19.0993 73.0677 19.09C73.217 19.0807 73.329 19.0667 73.4037 19.048C73.4784 19.02 73.5857 18.936 73.7257 18.796C73.875 18.6467 74.0337 18.4227 74.2017 18.124C74.491 17.6293 74.799 17.256 75.1257 17.004C75.4617 16.752 75.905 16.6027 76.4557 16.556C76.2037 16.388 75.9937 16.038 75.8257 15.506C75.695 15.086 75.5457 14.876 75.3777 14.876C75.2657 14.876 75.1164 14.988 74.9297 15.212C74.743 15.4267 74.5424 15.534 74.3277 15.534C74.0757 15.534 73.8797 15.4407 73.7397 15.254C73.5997 15.0673 73.5484 14.8107 73.5857 14.484C73.6417 14.0547 73.8144 13.7233 74.1037 13.49C74.393 13.2567 74.7337 13.14 75.1257 13.14C75.247 13.14 75.359 13.154 75.4617 13.182C75.5737 13.2007 75.667 13.224 75.7417 13.252C75.8257 13.28 75.905 13.3313 75.9797 13.406C76.0637 13.4713 76.129 13.5273 76.1757 13.574C76.2224 13.6113 76.2737 13.6813 76.3297 13.784C76.3857 13.8867 76.4277 13.966 76.4557 14.022C76.4837 14.0687 76.5164 14.1573 76.5537 14.288C76.6004 14.4093 76.6284 14.4933 76.6377 14.54C76.6564 14.5773 76.6844 14.666 76.7217 14.806C76.759 14.946 76.7824 15.03 76.7917 15.058C76.8664 15.3753 76.9457 15.6133 77.0297 15.772C77.123 15.9213 77.263 15.996 77.4497 15.996H77.5897C77.7204 15.996 77.8044 15.982 77.8417 15.954C77.879 15.9167 77.9024 15.8373 77.9117 15.716L77.9677 15.338C77.9957 15.1513 78.005 14.9833 77.9957 14.834C77.9864 14.61 77.893 14.414 77.7157 14.246C77.5477 14.078 77.4777 13.896 77.5057 13.7C77.5244 13.532 77.5897 13.42 77.7017 13.364C77.823 13.308 78.0004 13.28 78.2337 13.28H80.7537C80.9964 13.28 81.1737 13.3127 81.2857 13.378C81.3977 13.4433 81.4444 13.5553 81.4257 13.714C81.3977 13.8913 81.267 14.0687 81.0337 14.246C80.8097 14.414 80.6604 14.61 80.5857 14.834C80.5204 15.1233 80.483 15.2913 80.4737 15.338L80.4177 15.716C80.4084 15.8373 80.413 15.9167 80.4317 15.954C80.4597 15.982 80.5344 15.996 80.6557 15.996H80.7957C80.9824 15.996 81.1457 15.9167 81.2857 15.758C81.4257 15.5993 81.5844 15.3613 81.7617 15.044C82.1257 14.372 82.415 13.9287 82.6297 13.714C82.9937 13.3313 83.4324 13.14 83.9457 13.14C84.3284 13.14 84.6317 13.2567 84.8557 13.49C85.0797 13.7233 85.1637 14.0547 85.1077 14.484C85.0704 14.8013 84.949 15.058 84.7437 15.254C84.5384 15.4407 84.3097 15.534 84.0577 15.534C83.927 15.534 83.815 15.5013 83.7217 15.436C83.6377 15.3613 83.577 15.2867 83.5397 15.212C83.5117 15.128 83.465 15.0533 83.3997 14.988C83.3437 14.9133 83.2737 14.876 83.1897 14.876C83.1617 14.876 83.1337 14.8807 83.1057 14.89C83.087 14.89 83.0637 14.8993 83.0357 14.918C83.017 14.9367 82.9937 14.9553 82.9657 14.974C82.947 14.9833 82.9237 15.0067 82.8957 15.044C82.877 15.072 82.8584 15.0953 82.8397 15.114C82.821 15.1327 82.7977 15.1653 82.7697 15.212C82.7417 15.2493 82.7184 15.282 82.6997 15.31C82.6904 15.3287 82.667 15.366 82.6297 15.422C82.6017 15.478 82.5784 15.5153 82.5597 15.534C82.205 16.0753 81.9017 16.416 81.6497 16.556C82.191 16.6027 82.5877 16.752 82.8397 17.004C83.101 17.256 83.3064 17.6293 83.4557 18.124C83.5397 18.4227 83.633 18.6467 83.7357 18.796C83.8384 18.936 83.9224 19.02 83.9877 19.048C84.0624 19.0667 84.1744 19.0807 84.3237 19.09C84.5384 19.1087 84.6364 19.23 84.6177 19.454C84.5897 19.6407 84.4357 19.7993 84.1557 19.93C83.885 20.0513 83.5164 20.112 83.0497 20.112C82.3964 20.112 81.9437 19.972 81.6917 19.692C81.4397 19.412 81.2344 18.908 81.0757 18.18C81.057 18.1053 81.0337 17.9793 81.0057 17.802C80.9777 17.6247 80.9497 17.494 80.9217 17.41C80.903 17.326 80.8517 17.2467 80.7677 17.172C80.693 17.088 80.5857 17.046 80.4457 17.046C80.371 17.046 80.315 17.074 80.2777 17.13C80.2404 17.1767 80.2077 17.284 80.1797 17.452L80.1237 17.942C80.0957 18.1287 80.0864 18.292 80.0957 18.432C80.105 18.656 80.1937 18.8567 80.3617 19.034C80.539 19.202 80.6137 19.384 80.5857 19.58C80.5484 19.86 80.3057 20 79.8577 20H77.3237C77.081 20 76.9037 19.9673 76.7917 19.902C76.689 19.8367 76.647 19.72 76.6657 19.552C76.6844 19.4027 76.745 19.286 76.8477 19.202C76.9597 19.1087 77.081 19.006 77.2117 18.894C77.3424 18.7727 77.4404 18.6187 77.5057 18.432C77.571 18.1893 77.6084 18.026 77.6177 17.942L77.6737 17.452C77.7017 17.284 77.7017 17.1767 77.6737 17.13C77.6457 17.074 77.5897 17.046 77.5057 17.046C77.3937 17.046 77.2957 17.0693 77.2117 17.116C77.1277 17.1533 77.053 17.2187 76.9877 17.312C76.9317 17.396 76.885 17.48 76.8477 17.564C76.8104 17.6387 76.7637 17.7413 76.7077 17.872C76.6517 18.0027 76.605 18.1053 76.5677 18.18C76.2037 18.908 75.8537 19.412 75.5177 19.692C75.191 19.972 74.701 20.112 74.0477 20.112ZM91.6496 17.942C91.8456 17.802 92.0136 17.7787 92.1536 17.872C92.303 17.9653 92.3123 18.1193 92.1816 18.334C91.8643 18.866 91.4116 19.3 90.8236 19.636C90.245 19.972 89.5776 20.14 88.8216 20.14C87.8416 20.14 87.0856 19.8833 86.5536 19.37C86.031 18.8567 85.7696 18.152 85.7696 17.256C85.7696 16.1453 86.171 15.184 86.9736 14.372C87.7856 13.5507 88.761 13.14 89.8996 13.14C90.6463 13.14 91.2436 13.322 91.6916 13.686C92.1396 14.0407 92.3636 14.484 92.3636 15.016C92.3636 15.5387 92.1443 16.0007 91.7056 16.402C91.2763 16.794 90.7583 17.0787 90.1516 17.256C89.5543 17.424 88.9523 17.494 88.3456 17.466C88.579 18.138 89.1063 18.474 89.9276 18.474C90.5903 18.474 91.1643 18.2967 91.6496 17.942ZM89.6336 14.218C89.1763 14.218 88.8216 14.4373 88.5696 14.876C88.3176 15.3147 88.1916 15.7673 88.1916 16.234C88.1916 16.374 88.271 16.444 88.4296 16.444C88.9243 16.4627 89.3863 16.3367 89.8156 16.066C90.2543 15.786 90.4643 15.422 90.4456 14.974C90.4363 14.7687 90.3616 14.5913 90.2216 14.442C90.0816 14.2927 89.8856 14.218 89.6336 14.218ZM105.435 18.026C105.622 18.026 105.715 18.1427 105.715 18.376C105.715 18.7773 105.505 19.174 105.085 19.566C104.675 19.9487 104.119 20.14 103.419 20.14C102.953 20.14 102.593 19.9767 102.341 19.65C102.099 19.3233 102.033 18.824 102.145 18.152L102.411 16.668C102.561 15.9213 102.631 15.4127 102.621 15.142C102.621 14.862 102.509 14.722 102.285 14.722C102.201 14.722 102.108 14.7453 102.005 14.792C101.912 14.8387 101.791 14.946 101.641 15.114C101.501 15.2727 101.361 15.4873 101.221 15.758C101.081 16.0193 100.932 16.3973 100.773 16.892C100.624 17.3867 100.484 17.956 100.353 18.6L100.227 19.286C100.162 19.5473 100.003 19.706 99.7512 19.762L98.1272 20.14C97.9872 20.168 97.8799 20.1353 97.8052 20.042C97.7306 19.9487 97.7072 19.8227 97.7352 19.664L98.3232 16.668C98.4166 16.1733 98.4679 15.786 98.4772 15.506C98.4959 15.2167 98.4772 15.016 98.4212 14.904C98.3652 14.7827 98.2672 14.722 98.1272 14.722C98.0432 14.722 97.9546 14.7453 97.8612 14.792C97.7679 14.8387 97.6512 14.946 97.5112 15.114C97.3712 15.2727 97.2359 15.4873 97.1052 15.758C96.9839 16.0193 96.8486 16.3973 96.6992 16.892C96.5499 17.3773 96.4099 17.9467 96.2792 18.6L96.1392 19.286C96.0832 19.5473 95.9246 19.706 95.6632 19.762L94.0532 20.14C93.9132 20.168 93.8012 20.1353 93.7172 20.042C93.6426 19.9487 93.6192 19.8227 93.6472 19.664L94.3192 15.604C94.3566 15.3987 94.3472 15.2353 94.2912 15.114C94.2446 14.9833 94.1746 14.904 94.0812 14.876C93.9972 14.8387 93.9179 14.7827 93.8432 14.708C93.7686 14.6333 93.7312 14.54 93.7312 14.428C93.7312 14.288 93.8152 14.148 93.9832 14.008C94.1512 13.868 94.5059 13.686 95.0472 13.462C95.6446 13.238 96.0646 13.126 96.3072 13.126C96.6619 13.126 96.8206 13.3033 96.7832 13.658L96.6712 14.54C97.0166 14.0547 97.4039 13.7 97.8332 13.476C98.2719 13.2427 98.6919 13.126 99.0932 13.126C99.5412 13.126 99.9192 13.2473 100.227 13.49C100.535 13.7233 100.75 14.0453 100.871 14.456C101.17 14.0267 101.539 13.7 101.977 13.476C102.416 13.2427 102.869 13.126 103.335 13.126C103.961 13.126 104.437 13.406 104.763 13.966C105.099 14.5167 105.183 15.2027 105.015 16.024L104.651 17.718C104.595 17.998 104.577 18.1893 104.595 18.292C104.614 18.3947 104.675 18.446 104.777 18.446C104.871 18.446 104.983 18.376 105.113 18.236C105.253 18.096 105.361 18.026 105.435 18.026ZM118.05 18.04C118.237 18.04 118.33 18.1613 118.33 18.404C118.33 18.7867 118.115 19.174 117.686 19.566C117.266 19.9487 116.706 20.14 116.006 20.14C115.53 20.14 115.157 19.9813 114.886 19.664C114.625 19.3373 114.545 18.8427 114.648 18.18L114.816 17.018H112.828L112.534 19.272C112.497 19.5427 112.343 19.706 112.072 19.762L110.448 20.14C110.317 20.168 110.21 20.1353 110.126 20.042C110.051 19.9487 110.028 19.8227 110.056 19.664L110.602 15.618C110.63 15.4127 110.616 15.2493 110.56 15.128C110.513 14.9973 110.448 14.918 110.364 14.89C110.28 14.8527 110.201 14.7967 110.126 14.722C110.051 14.6473 110.014 14.554 110.014 14.442C110.014 14.2927 110.089 14.1527 110.238 14.022C110.397 13.882 110.705 13.728 111.162 13.56C111.909 13.2893 112.473 13.154 112.856 13.154C113.183 13.154 113.323 13.322 113.276 13.658L112.968 15.982H114.97L115.25 14.036C115.287 13.756 115.441 13.588 115.712 13.532L117.308 13.154C117.448 13.126 117.555 13.1587 117.63 13.252C117.705 13.3453 117.733 13.4667 117.714 13.616L117.14 17.718C117.056 18.194 117.14 18.432 117.392 18.432C117.485 18.432 117.597 18.3667 117.728 18.236C117.868 18.1053 117.975 18.04 118.05 18.04ZM125.404 17.942C125.6 17.802 125.768 17.7787 125.908 17.872C126.058 17.9653 126.067 18.1193 125.936 18.334C125.619 18.866 125.166 19.3 124.578 19.636C124 19.972 123.332 20.14 122.576 20.14C121.596 20.14 120.84 19.8833 120.308 19.37C119.786 18.8567 119.524 18.152 119.524 17.256C119.524 16.1453 119.926 15.184 120.728 14.372C121.54 13.5507 122.516 13.14 123.654 13.14C124.401 13.14 124.998 13.322 125.446 13.686C125.894 14.0407 126.118 14.484 126.118 15.016C126.118 15.5387 125.899 16.0007 125.46 16.402C125.031 16.794 124.513 17.0787 123.906 17.256C123.309 17.424 122.707 17.494 122.1 17.466C122.334 18.138 122.861 18.474 123.682 18.474C124.345 18.474 124.919 18.2967 125.404 17.942ZM123.388 14.218C122.931 14.218 122.576 14.4373 122.324 14.876C122.072 15.3147 121.946 15.7673 121.946 16.234C121.946 16.374 122.026 16.444 122.184 16.444C122.679 16.4627 123.141 16.3367 123.57 16.066C124.009 15.786 124.219 15.422 124.2 14.974C124.191 14.7687 124.116 14.5913 123.976 14.442C123.836 14.2927 123.64 14.218 123.388 14.218ZM40.499 36.026C40.6857 36.026 40.779 36.1427 40.779 36.376C40.779 36.7773 40.569 37.174 40.149 37.566C39.7384 37.9487 39.183 38.14 38.483 38.14C38.0164 38.14 37.657 37.9767 37.405 37.65C37.1624 37.3233 37.097 36.824 37.209 36.152L37.475 34.668C37.6244 33.9213 37.6944 33.4127 37.685 33.142C37.685 32.862 37.573 32.722 37.349 32.722C37.265 32.722 37.1717 32.7453 37.069 32.792C36.9757 32.8387 36.8544 32.946 36.705 33.114C36.565 33.2727 36.425 33.4873 36.285 33.758C36.145 34.0193 35.9957 34.3973 35.837 34.892C35.6877 35.3867 35.5477 35.956 35.417 36.6L35.291 37.286C35.2257 37.5473 35.067 37.706 34.815 37.762L33.191 38.14C33.051 38.168 32.9437 38.1353 32.869 38.042C32.7944 37.9487 32.771 37.8227 32.799 37.664L33.387 34.668C33.4804 34.1733 33.5317 33.786 33.541 33.506C33.5597 33.2167 33.541 33.016 33.485 32.904C33.429 32.7827 33.331 32.722 33.191 32.722C33.107 32.722 33.0184 32.7453 32.925 32.792C32.8317 32.8387 32.715 32.946 32.575 33.114C32.435 33.2727 32.2997 33.4873 32.169 33.758C32.0477 34.0193 31.9124 34.3973 31.763 34.892C31.6137 35.3773 31.4737 35.9467 31.343 36.6L31.203 37.286C31.147 37.5473 30.9884 37.706 30.727 37.762L29.117 38.14C28.977 38.168 28.865 38.1353 28.781 38.042C28.7064 37.9487 28.683 37.8227 28.711 37.664L29.383 33.604C29.4204 33.3987 29.411 33.2353 29.355 33.114C29.3084 32.9833 29.2384 32.904 29.145 32.876C29.061 32.8387 28.9817 32.7827 28.907 32.708C28.8324 32.6333 28.795 32.54 28.795 32.428C28.795 32.288 28.879 32.148 29.047 32.008C29.215 31.868 29.5697 31.686 30.111 31.462C30.7084 31.238 31.1284 31.126 31.371 31.126C31.7257 31.126 31.8844 31.3033 31.847 31.658L31.735 32.54C32.0804 32.0547 32.4677 31.7 32.897 31.476C33.3357 31.2427 33.7557 31.126 34.157 31.126C34.605 31.126 34.983 31.2473 35.291 31.49C35.599 31.7233 35.8137 32.0453 35.935 32.456C36.2337 32.0267 36.6024 31.7 37.041 31.476C37.4797 31.2427 37.9324 31.126 38.399 31.126C39.0244 31.126 39.5004 31.406 39.827 31.966C40.163 32.5167 40.247 33.2027 40.079 34.024L39.715 35.718C39.659 35.998 39.6404 36.1893 39.659 36.292C39.6777 36.3947 39.7384 36.446 39.841 36.446C39.9344 36.446 40.0464 36.376 40.177 36.236C40.317 36.096 40.4244 36.026 40.499 36.026ZM47.791 31.098C48.155 31.098 48.4256 31.224 48.603 31.476C48.7803 31.7187 48.869 32.008 48.869 32.344C48.869 33.1373 48.6216 34.122 48.127 35.298C47.6416 36.474 47.189 37.3887 46.769 38.042C45.5556 39.974 44.179 40.94 42.639 40.94C42.0603 40.94 41.617 40.8 41.309 40.52C40.9916 40.24 40.833 39.8807 40.833 39.442C40.833 39.0313 40.9403 38.714 41.155 38.49C41.3603 38.266 41.603 38.154 41.883 38.154C42.0603 38.154 42.2236 38.21 42.373 38.322C42.5223 38.4433 42.6296 38.5973 42.695 38.784C42.7136 38.8307 42.7416 38.91 42.779 39.022C42.8163 39.134 42.8396 39.2133 42.849 39.26C42.8676 39.3067 42.8956 39.3673 42.933 39.442C42.9796 39.5167 43.0263 39.568 43.073 39.596C43.1196 39.624 43.1803 39.652 43.255 39.68C43.3296 39.708 43.4183 39.722 43.521 39.722C43.6796 39.722 43.829 39.6613 43.969 39.54C44.109 39.428 44.1976 39.274 44.235 39.078C44.291 38.7793 44.2676 38.3453 44.165 37.776C43.8943 36.404 43.4323 34.99 42.779 33.534C42.6483 33.2353 42.527 33.044 42.415 32.96C42.303 32.8667 42.135 32.806 41.911 32.778C41.7896 32.7687 41.701 32.7313 41.645 32.666C41.589 32.5913 41.561 32.5213 41.561 32.456C41.561 32.1853 41.841 31.9007 42.401 31.602C42.961 31.294 43.437 31.14 43.829 31.14C44.1836 31.14 44.4543 31.364 44.641 31.812C45.2383 33.268 45.7656 34.9153 46.223 36.754C46.8016 35.774 47.091 34.8873 47.091 34.094C47.091 33.8047 46.993 33.478 46.797 33.114C46.6103 32.7407 46.517 32.4607 46.517 32.274C46.517 31.9473 46.657 31.672 46.937 31.448C47.217 31.2147 47.5016 31.098 47.791 31.098ZM57.3965 32.582C57.4245 34.2527 57.0185 35.5967 56.1785 36.614C55.3478 37.6313 54.2885 38.14 53.0005 38.14C52.0858 38.14 51.3392 37.874 50.7605 37.342C50.1912 36.81 49.9065 36.0493 49.9065 35.06C49.9065 33.9307 50.2705 32.9973 50.9985 32.26C51.7265 31.5227 52.6132 31.168 53.6585 31.196C54.2092 31.224 54.6198 31.3547 54.8905 31.588C54.5918 30.132 53.6912 29.2127 52.1885 28.83C51.9178 28.7647 51.7825 28.6573 51.7825 28.508C51.7825 28.2 52.1792 28.0413 52.9725 28.032C53.4578 28.0133 53.9478 28.088 54.4425 28.256C54.9372 28.4147 55.4085 28.6667 55.8565 29.012C56.3045 29.348 56.6685 29.8287 56.9485 30.454C57.2378 31.07 57.3872 31.7793 57.3965 32.582ZM53.1825 37.034C53.6398 37.034 54.0085 36.67 54.2885 35.942C54.5778 35.2047 54.7225 34.4533 54.7225 33.688C54.7225 32.7733 54.4798 32.316 53.9945 32.316C53.5278 32.316 53.1498 32.652 52.8605 33.324C52.5805 33.9867 52.4405 34.7147 52.4405 35.508C52.4405 36.5253 52.6878 37.034 53.1825 37.034ZM66.6607 36.404C66.67 36.7867 66.4647 37.174 66.0447 37.566C65.634 37.9487 65.088 38.14 64.4067 38.14C64.0613 38.14 63.758 38.0513 63.4967 37.874C63.2447 37.6873 63.0813 37.4073 63.0067 37.034C62.3907 37.7713 61.658 38.14 60.8087 38.14C60.1087 38.14 59.5393 37.902 59.1007 37.426C58.662 36.95 58.4427 36.3387 58.4427 35.592C58.4427 34.36 58.8767 33.31 59.7447 32.442C60.6127 31.574 61.5647 31.14 62.6007 31.14C62.9367 31.14 63.2587 31.1913 63.5667 31.294C63.884 31.3873 64.0707 31.434 64.1267 31.434C64.2293 31.434 64.4487 31.378 64.7847 31.266C65.13 31.154 65.3727 31.098 65.5127 31.098C65.6993 31.098 65.8393 31.1587 65.9327 31.28C66.026 31.4013 66.0633 31.5367 66.0447 31.686L65.4567 35.718C65.3913 36.194 65.48 36.432 65.7227 36.432C65.816 36.432 65.928 36.3667 66.0587 36.236C66.1987 36.1053 66.306 36.04 66.3807 36.04C66.5673 36.04 66.6607 36.1613 66.6607 36.404ZM61.6907 36.586C62.0733 36.586 62.3907 36.3433 62.6427 35.858C62.8947 35.3727 63.0767 34.766 63.1887 34.038C63.3753 32.7967 63.1467 32.176 62.5027 32.176C62.036 32.176 61.6673 32.4793 61.3967 33.086C61.1353 33.6833 60.9953 34.4067 60.9767 35.256C60.9673 35.6387 61.0233 35.956 61.1447 36.208C61.266 36.46 61.448 36.586 61.6907 36.586ZM82.7369 36.026C82.9236 36.026 83.0169 36.1427 83.0169 36.376C83.0169 36.7773 82.8069 37.174 82.3869 37.566C81.9763 37.9487 81.4209 38.14 80.7209 38.14C80.2543 38.14 79.8949 37.9767 79.6429 37.65C79.4003 37.3233 79.3349 36.824 79.4469 36.152L79.7129 34.668C79.8623 33.9213 79.9323 33.4127 79.9229 33.142C79.9229 32.862 79.8109 32.722 79.5869 32.722C79.5029 32.722 79.4096 32.7453 79.3069 32.792C79.2136 32.8387 79.0923 32.946 78.9429 33.114C78.8029 33.2727 78.6629 33.4873 78.5229 33.758C78.3829 34.0193 78.2336 34.3973 78.0749 34.892C77.9256 35.3867 77.7856 35.956 77.6549 36.6L77.5289 37.286C77.4636 37.5473 77.3049 37.706 77.0529 37.762L75.4289 38.14C75.2889 38.168 75.1816 38.1353 75.1069 38.042C75.0323 37.9487 75.0089 37.8227 75.0369 37.664L75.6249 34.668C75.7183 34.1733 75.7696 33.786 75.7789 33.506C75.7976 33.2167 75.7789 33.016 75.7229 32.904C75.6669 32.7827 75.5689 32.722 75.4289 32.722C75.3449 32.722 75.2563 32.7453 75.1629 32.792C75.0696 32.8387 74.9529 32.946 74.8129 33.114C74.6729 33.2727 74.5376 33.4873 74.4069 33.758C74.2856 34.0193 74.1503 34.3973 74.0009 34.892C73.8516 35.3773 73.7116 35.9467 73.5809 36.6L73.4409 37.286C73.3849 37.5473 73.2263 37.706 72.9649 37.762L71.3549 38.14C71.2149 38.168 71.1029 38.1353 71.0189 38.042C70.9443 37.9487 70.9209 37.8227 70.9489 37.664L71.6209 33.604C71.6583 33.3987 71.6489 33.2353 71.5929 33.114C71.5463 32.9833 71.4763 32.904 71.3829 32.876C71.2989 32.8387 71.2196 32.7827 71.1449 32.708C71.0703 32.6333 71.0329 32.54 71.0329 32.428C71.0329 32.288 71.1169 32.148 71.2849 32.008C71.4529 31.868 71.8076 31.686 72.3489 31.462C72.9463 31.238 73.3663 31.126 73.6089 31.126C73.9636 31.126 74.1223 31.3033 74.0849 31.658L73.9729 32.54C74.3183 32.0547 74.7056 31.7 75.1349 31.476C75.5736 31.2427 75.9936 31.126 76.3949 31.126C76.8429 31.126 77.2209 31.2473 77.5289 31.49C77.8369 31.7233 78.0516 32.0453 78.1729 32.456C78.4716 32.0267 78.8403 31.7 79.2789 31.476C79.7176 31.2427 80.1703 31.126 80.6369 31.126C81.2623 31.126 81.7383 31.406 82.0649 31.966C82.4009 32.5167 82.4849 33.2027 82.3169 34.024L81.9529 35.718C81.8969 35.998 81.8783 36.1893 81.8969 36.292C81.9156 36.3947 81.9763 36.446 82.0789 36.446C82.1723 36.446 82.2843 36.376 82.4149 36.236C82.5549 36.096 82.6623 36.026 82.7369 36.026ZM89.0769 32.932C89.6182 32.932 90.0709 33.1 90.4349 33.436C90.7989 33.7627 90.9809 34.1873 90.9809 34.71C90.9809 35.4007 90.7709 36.0167 90.3509 36.558C89.9402 37.0993 89.4409 37.5007 88.8529 37.762C88.2742 38.014 87.6862 38.14 87.0889 38.14C86.1182 38.14 85.4089 37.916 84.9609 37.468C84.5129 37.0107 84.3635 36.334 84.5129 35.438L84.8209 33.576C84.8862 33.184 84.8022 32.9413 84.5689 32.848C84.3449 32.7173 84.2329 32.5773 84.2329 32.428C84.2329 32.3347 84.2562 32.2507 84.3029 32.176C84.3495 32.092 84.4755 31.9847 84.6809 31.854C84.8862 31.7233 85.1755 31.5927 85.5489 31.462C86.1929 31.238 86.7202 31.126 87.1309 31.126C87.4762 31.126 87.6162 31.3033 87.5509 31.658L87.2429 33.646C87.7935 33.17 88.4049 32.932 89.0769 32.932ZM95.0129 36.404C95.0222 36.7867 94.8122 37.174 94.3829 37.566C93.9629 37.9487 93.4029 38.14 92.7029 38.14C92.2269 38.14 91.8535 37.9813 91.5829 37.664C91.3122 37.3373 91.2282 36.8427 91.3309 36.18L91.9329 32.036C91.9702 31.7653 92.1289 31.5973 92.4089 31.532L94.0049 31.154C94.1355 31.126 94.2382 31.1587 94.3129 31.252C94.3969 31.3453 94.4295 31.4667 94.4109 31.616L93.8229 35.718C93.7575 36.194 93.8462 36.432 94.0889 36.432C94.1822 36.432 94.2942 36.3667 94.4249 36.236C94.5555 36.1053 94.6582 36.04 94.7329 36.04C94.9195 36.04 95.0129 36.1613 95.0129 36.404ZM88.5309 35.102C88.5495 34.5887 88.3862 34.332 88.0409 34.332C87.7422 34.332 87.4809 34.5607 87.2569 35.018C87.0329 35.4753 86.9255 35.9093 86.9349 36.32C86.9442 36.5347 86.9955 36.7167 87.0889 36.866C87.1822 37.006 87.3175 37.0713 87.4949 37.062C87.7749 37.062 88.0175 36.852 88.2229 36.432C88.4282 36.012 88.5309 35.5687 88.5309 35.102ZM101.93 38.112C101.277 38.112 100.819 37.972 100.558 37.692C100.306 37.412 100.105 36.908 99.9559 36.18C99.9466 36.124 99.9279 36.0213 99.8999 35.872C99.8813 35.7227 99.8579 35.6153 99.8299 35.55C99.8113 35.4847 99.7786 35.4053 99.7319 35.312C99.6853 35.2093 99.6153 35.1393 99.5219 35.102C99.4379 35.0647 99.3259 35.046 99.1859 35.046C99.1019 35.046 99.0413 35.074 99.0039 35.13C98.9759 35.1767 98.9479 35.2887 98.9199 35.466L98.8639 35.942C98.8359 36.1287 98.8266 36.292 98.8359 36.432C98.8453 36.656 98.9339 36.8567 99.1019 37.034C99.2793 37.202 99.3539 37.384 99.3259 37.58C99.2886 37.86 99.0459 38 98.5979 38H96.0779C95.8259 38 95.6486 37.9673 95.5459 37.902C95.4339 37.8367 95.3873 37.72 95.4059 37.552C95.4246 37.4027 95.4899 37.286 95.6019 37.202C95.7046 37.1087 95.8213 37.006 95.9519 36.894C96.0826 36.7727 96.1806 36.6187 96.2459 36.432C96.3019 36.1893 96.3393 36.026 96.3579 35.942L96.7079 33.338C96.7359 33.1513 96.7453 32.9833 96.7359 32.834C96.7266 32.61 96.6333 32.414 96.4559 32.246C96.2879 32.078 96.2179 31.896 96.2459 31.7C96.2833 31.42 96.5259 31.28 96.9739 31.28H99.4939C99.7459 31.28 99.9233 31.3127 100.026 31.378C100.138 31.4433 100.185 31.5553 100.166 31.714C100.138 31.8913 100.007 32.0687 99.7739 32.246C99.5499 32.414 99.4006 32.61 99.3259 32.834C99.2606 33.1233 99.2233 33.2913 99.2139 33.338L99.1719 33.716C99.1533 33.8467 99.1579 33.926 99.1859 33.954C99.2139 33.982 99.2886 33.996 99.4099 33.996H99.5499C99.7646 33.996 99.9606 33.898 100.138 33.702C100.325 33.506 100.493 33.268 100.642 32.988C100.791 32.708 100.955 32.428 101.132 32.148C101.309 31.868 101.543 31.63 101.832 31.434C102.121 31.238 102.453 31.14 102.826 31.14C103.209 31.14 103.512 31.2567 103.736 31.49C103.96 31.7233 104.039 32.0547 103.974 32.484C103.937 32.8107 103.815 33.0673 103.61 33.254C103.414 33.4407 103.19 33.534 102.938 33.534C102.807 33.534 102.695 33.5013 102.602 33.436C102.518 33.3613 102.457 33.2867 102.42 33.212C102.392 33.128 102.345 33.0533 102.28 32.988C102.224 32.9133 102.154 32.876 102.07 32.876C101.939 32.876 101.804 32.9833 101.664 33.198C101.533 33.4127 101.37 33.6647 101.174 33.954C100.978 34.2433 100.763 34.4487 100.53 34.57C101.071 34.6167 101.473 34.766 101.734 35.018C101.995 35.2607 102.196 35.6293 102.336 36.124C102.401 36.348 102.467 36.53 102.532 36.67C102.597 36.81 102.672 36.908 102.756 36.964C102.84 37.02 102.905 37.0573 102.952 37.076C103.008 37.0853 103.092 37.09 103.204 37.09C103.409 37.1087 103.503 37.23 103.484 37.454C103.456 37.6407 103.302 37.7993 103.022 37.93C102.751 38.0513 102.387 38.112 101.93 38.112ZM113.041 36.404C113.05 36.7867 112.845 37.174 112.425 37.566C112.014 37.9487 111.468 38.14 110.787 38.14C110.442 38.14 110.138 38.0513 109.877 37.874C109.625 37.6873 109.462 37.4073 109.387 37.034C108.771 37.7713 108.038 38.14 107.189 38.14C106.489 38.14 105.92 37.902 105.481 37.426C105.042 36.95 104.823 36.3387 104.823 35.592C104.823 34.36 105.257 33.31 106.125 32.442C106.993 31.574 107.945 31.14 108.981 31.14C109.317 31.14 109.639 31.1913 109.947 31.294C110.264 31.3873 110.451 31.434 110.507 31.434C110.61 31.434 110.829 31.378 111.165 31.266C111.51 31.154 111.753 31.098 111.893 31.098C112.08 31.098 112.22 31.1587 112.313 31.28C112.406 31.4013 112.444 31.5367 112.425 31.686L111.837 35.718C111.772 36.194 111.86 36.432 112.103 36.432C112.196 36.432 112.308 36.3667 112.439 36.236C112.579 36.1053 112.686 36.04 112.761 36.04C112.948 36.04 113.041 36.1613 113.041 36.404ZM108.071 36.586C108.454 36.586 108.771 36.3433 109.023 35.858C109.275 35.3727 109.457 34.766 109.569 34.038C109.756 32.7967 109.527 32.176 108.883 32.176C108.416 32.176 108.048 32.4793 107.777 33.086C107.516 33.6833 107.376 34.4067 107.357 35.256C107.348 35.6387 107.404 35.956 107.525 36.208C107.646 36.46 107.828 36.586 108.071 36.586ZM120.021 35.942C120.217 35.802 120.385 35.7787 120.525 35.872C120.675 35.9653 120.684 36.1193 120.553 36.334C120.236 36.866 119.783 37.3 119.195 37.636C118.617 37.972 117.949 38.14 117.193 38.14C116.213 38.14 115.457 37.8833 114.925 37.37C114.403 36.8567 114.141 36.152 114.141 35.256C114.141 34.1453 114.543 33.184 115.345 32.372C116.157 31.5507 117.133 31.14 118.271 31.14C119.018 31.14 119.615 31.322 120.063 31.686C120.511 32.0407 120.735 32.484 120.735 33.016C120.735 33.5387 120.516 34.0007 120.077 34.402C119.648 34.794 119.13 35.0787 118.523 35.256C117.926 35.424 117.324 35.494 116.717 35.466C116.951 36.138 117.478 36.474 118.299 36.474C118.962 36.474 119.536 36.2967 120.021 35.942ZM118.005 32.218C117.548 32.218 117.193 32.4373 116.941 32.876C116.689 33.3147 116.563 33.7673 116.563 34.234C116.563 34.374 116.643 34.444 116.801 34.444C117.296 34.4627 117.758 34.3367 118.187 34.066C118.626 33.786 118.836 33.422 118.817 32.974C118.808 32.7687 118.733 32.5913 118.593 32.442C118.453 32.2927 118.257 32.218 118.005 32.218ZM122.775 38.14C122.43 38.14 122.112 38.042 121.823 37.846C121.543 37.65 121.431 37.3373 121.487 36.908C121.534 36.628 121.65 36.3947 121.837 36.208C122.033 36.0213 122.238 35.928 122.453 35.928C122.63 35.928 122.77 35.97 122.873 36.054C122.985 36.138 123.055 36.2313 123.083 36.334C123.12 36.4273 123.172 36.516 123.237 36.6C123.302 36.684 123.386 36.726 123.489 36.726C123.704 36.726 123.914 36.3527 124.119 35.606C124.324 34.8593 124.474 34.192 124.567 33.604C124.632 33.184 124.553 32.9273 124.329 32.834C124.114 32.722 124.002 32.582 123.993 32.414C123.993 32.3207 124.012 32.2367 124.049 32.162C124.096 32.0873 124.222 31.9847 124.427 31.854C124.642 31.7233 124.945 31.588 125.337 31.448C125.981 31.2333 126.555 31.126 127.059 31.126C127.33 31.126 127.484 31.308 127.521 31.672C127.624 32.596 127.82 33.6133 128.109 34.724L129.481 32.134C129.5 32.0873 129.528 32.036 129.565 31.98C129.612 31.9147 129.682 31.84 129.775 31.756C129.878 31.672 129.99 31.6067 130.111 31.56C130.718 31.2987 131.348 31.1587 132.001 31.14C132.141 31.1307 132.248 31.168 132.323 31.252C132.398 31.336 132.426 31.4527 132.407 31.602L131.847 35.69C131.81 35.97 131.81 36.166 131.847 36.278C131.884 36.3807 131.959 36.432 132.071 36.432C132.164 36.432 132.276 36.3667 132.407 36.236C132.538 36.1053 132.64 36.04 132.715 36.04C132.902 36.04 132.995 36.1613 132.995 36.404C133.004 36.7867 132.794 37.174 132.365 37.566C131.945 37.9487 131.385 38.14 130.685 38.14C129.546 38.14 129.08 37.4727 129.285 36.138L129.649 33.786L127.997 36.936C127.848 37.1787 127.568 37.3607 127.157 37.482C126.653 37.622 126.34 37.5193 126.219 37.174C125.892 36.1007 125.668 34.99 125.547 33.842C125.435 34.4393 125.202 35.3633 124.847 36.614C124.427 37.6313 123.736 38.14 122.775 38.14ZM137.431 34.234C137.375 34.5047 137.249 34.682 137.053 34.766C136.867 34.8407 136.694 34.8033 136.535 34.654C136.386 34.5047 136.335 34.276 136.381 33.968C136.456 33.436 136.638 32.932 136.927 32.456C137.226 31.9707 137.515 31.518 137.795 31.098C138.085 30.6687 138.257 30.258 138.313 29.866C138.369 29.4273 138.22 29.208 137.865 29.208C137.697 29.208 137.553 29.2687 137.431 29.39C137.319 29.5113 137.198 29.6933 137.067 29.936C136.946 30.1693 136.853 30.3327 136.787 30.426C136.778 30.4353 136.731 30.496 136.647 30.608C136.573 30.7107 136.521 30.776 136.493 30.804C136.475 30.832 136.423 30.888 136.339 30.972C136.265 31.0467 136.195 31.1027 136.129 31.14C136.073 31.168 135.994 31.196 135.891 31.224C135.798 31.252 135.695 31.266 135.583 31.266C135.173 31.266 134.897 31.1587 134.757 30.944C134.617 30.72 134.566 30.468 134.603 30.188C134.687 29.5813 135.023 29.0773 135.611 28.676C136.199 28.2653 137.011 28.06 138.047 28.06C139.027 28.06 139.765 28.2467 140.259 28.62C140.754 28.9933 140.959 29.4833 140.875 30.09C140.829 30.426 140.684 30.7573 140.441 31.084C140.208 31.4107 139.956 31.6767 139.685 31.882C139.424 32.0873 139.125 32.316 138.789 32.568C138.453 32.8107 138.22 33.002 138.089 33.142C138.024 33.2073 137.903 33.38 137.725 33.66C137.557 33.9307 137.459 34.122 137.431 34.234ZM136.619 38.196C136.283 38.196 136.008 38.098 135.793 37.902C135.579 37.6967 135.471 37.4073 135.471 37.034C135.471 36.5953 135.621 36.2407 135.919 35.97C136.227 35.6993 136.577 35.564 136.969 35.564C137.296 35.564 137.567 35.6713 137.781 35.886C138.005 36.0913 138.117 36.3807 138.117 36.754C138.117 37.1927 137.968 37.5427 137.669 37.804C137.38 38.0653 137.03 38.196 136.619 38.196Z" fill="#FFC6F9"/>
</svg>
