<svg width="204" height="99" viewBox="0 0 204 99" fill="none" xmlns="http://www.w3.org/2000/svg">
<path d="M161.79 40.1181C174.61 33.3266 163.021 8.69108 157.656 0.945778C155.312 21.3275 138.701 34.9122 130.689 39.1569C134.359 39.8247 148.97 46.9095 161.79 40.1181Z" fill="#FFC6F9"/>
<rect x="1" y="27.0024" width="202" height="70.9974" rx="35.4987" fill="#6932FF" stroke="#FFC6F9" stroke-width="2"/>
<path d="M33.8612 54.05H31.1092C30.8852 54.05 30.7305 54.0126 30.6452 53.938C30.5705 53.8633 30.5759 53.73 30.6612 53.538L30.8212 53.186C30.9065 52.9833 30.9972 52.8446 31.0932 52.77C31.1999 52.6953 31.3599 52.658 31.5732 52.658H34.3252C34.5492 52.658 34.6985 52.6953 34.7732 52.77C34.8585 52.8446 34.8585 52.978 34.7732 53.17L34.6132 53.522C34.5279 53.7246 34.4319 53.8633 34.3252 53.938C34.2292 54.0126 34.0745 54.05 33.8612 54.05ZM41.9656 58.002H40.2216C39.9016 58.002 39.6882 57.97 39.5816 57.906C39.4856 57.8313 39.4482 57.698 39.4696 57.506C39.4909 57.3566 39.5869 57.218 39.7576 57.09C39.9389 56.9513 40.1256 56.7913 40.3176 56.61C40.5096 56.418 40.6322 56.194 40.6856 55.938L41.9656 49.154C42.0189 48.898 42.0029 48.6846 41.9176 48.514C41.8429 48.3433 41.7416 48.226 41.6136 48.162C41.4962 48.0873 41.3896 47.986 41.2936 47.858C41.1976 47.7193 41.1602 47.5593 41.1816 47.378C41.2242 47.1646 41.3202 47.0153 41.4696 46.93C41.6296 46.8446 41.8696 46.802 42.1896 46.802H44.6216C44.9842 46.802 45.2242 46.9726 45.3416 47.314L47.0536 53.058L50.6056 47.33C50.8296 46.978 51.1122 46.802 51.4536 46.802H53.7736C54.1042 46.802 54.3336 46.8446 54.4616 46.93C54.5896 47.0153 54.6376 47.1646 54.6056 47.378C54.5736 47.5593 54.4936 47.7193 54.3656 47.858C54.2376 47.986 54.1042 48.0873 53.9656 48.162C53.8269 48.226 53.6936 48.3433 53.5656 48.514C53.4376 48.6846 53.3576 48.898 53.3256 49.154L52.7016 55.282C52.6696 55.5806 52.6856 55.826 52.7496 56.018C52.8136 56.1993 52.8989 56.3326 53.0056 56.418C53.1122 56.5033 53.2189 56.5833 53.3256 56.658C53.4322 56.722 53.5176 56.818 53.5816 56.946C53.6456 57.0633 53.6669 57.2233 53.6456 57.426C53.6136 57.6393 53.5176 57.7886 53.3576 57.874C53.2082 57.9593 52.9416 58.002 52.5576 58.002H49.3896C49.0269 58.002 48.7762 57.9593 48.6376 57.874C48.5096 57.7886 48.4616 57.6393 48.4936 57.426C48.5256 57.2126 48.6002 57.0313 48.7176 56.882C48.8349 56.7326 48.9576 56.6206 49.0856 56.546C49.2242 56.4713 49.3576 56.3273 49.4856 56.114C49.6136 55.9006 49.6989 55.6233 49.7416 55.282L50.3496 50.418L46.4456 56.818C46.2642 57.138 45.9976 57.33 45.6456 57.394C45.2829 57.4686 45.0536 57.346 44.9576 57.026L43.1016 50.53L42.1896 55.938C42.1362 56.2686 42.2269 56.5726 42.4616 56.85C42.7069 57.1166 42.8136 57.3406 42.7816 57.522C42.7602 57.714 42.6856 57.842 42.5576 57.906C42.4402 57.97 42.2429 58.002 41.9656 58.002ZM59.3882 58.178C58.2042 58.178 57.2815 57.874 56.6202 57.266C55.9589 56.6473 55.6282 55.7993 55.6282 54.722C55.6282 53.4526 56.1135 52.3753 57.0842 51.49C58.0549 50.594 59.2069 50.146 60.5402 50.146C61.6815 50.146 62.5829 50.4606 63.2442 51.09C63.9055 51.7193 64.2362 52.5353 64.2362 53.538C64.2362 54.9033 63.7722 56.018 62.8442 56.882C61.9162 57.746 60.7642 58.178 59.3882 58.178ZM59.4842 56.914C59.9749 56.914 60.3749 56.514 60.6842 55.714C60.9935 54.9033 61.1482 54.066 61.1482 53.202C61.1482 51.9966 60.8495 51.394 60.2522 51.394C59.7402 51.394 59.3295 51.778 59.0202 52.546C58.7215 53.3033 58.5615 54.1406 58.5402 55.058C58.5722 56.2953 58.8869 56.914 59.4842 56.914ZM66.4186 58.13C65.8852 58.13 65.4852 58.0606 65.2186 57.922C64.9519 57.7726 64.8346 57.5913 64.8666 57.378C64.8666 57.2713 64.9092 57.1806 64.9946 57.106C65.0799 57.0206 65.1812 56.9726 65.2986 56.962C65.4692 56.9513 65.5972 56.9353 65.6826 56.914C65.7679 56.882 65.8906 56.786 66.0506 56.626C66.2212 56.4553 66.4026 56.1993 66.5946 55.858C66.9252 55.2926 67.2772 54.866 67.6506 54.578C68.0346 54.29 68.5412 54.1193 69.1706 54.066C68.8826 53.874 68.6426 53.474 68.4506 52.866C68.3012 52.386 68.1306 52.146 67.9386 52.146C67.8106 52.146 67.6399 52.274 67.4266 52.53C67.2132 52.7753 66.9839 52.898 66.7386 52.898C66.4506 52.898 66.2266 52.7913 66.0666 52.578C65.9066 52.3646 65.8479 52.0713 65.8906 51.698C65.9546 51.2073 66.1519 50.8286 66.4826 50.562C66.8132 50.2953 67.2026 50.162 67.6506 50.162C67.7892 50.162 67.9172 50.178 68.0346 50.21C68.1626 50.2313 68.2692 50.258 68.3546 50.29C68.4506 50.322 68.5412 50.3806 68.6266 50.466C68.7226 50.5406 68.7972 50.6046 68.8506 50.658C68.9039 50.7006 68.9626 50.7806 69.0266 50.898C69.0906 51.0153 69.1386 51.106 69.1706 51.17C69.2026 51.2233 69.2399 51.3246 69.2826 51.474C69.3359 51.6126 69.3679 51.7086 69.3786 51.762C69.3999 51.8046 69.4319 51.906 69.4746 52.066C69.5172 52.226 69.5439 52.322 69.5546 52.354C69.6399 52.7166 69.7306 52.9886 69.8266 53.17C69.9332 53.3406 70.0932 53.426 70.3066 53.426H70.4666C70.6159 53.426 70.7119 53.41 70.7546 53.378C70.7972 53.3353 70.8239 53.2446 70.8346 53.106L70.8986 52.674C70.9306 52.4606 70.9412 52.2686 70.9306 52.098C70.9199 51.842 70.8132 51.618 70.6106 51.426C70.4186 51.234 70.3386 51.026 70.3706 50.802C70.3919 50.61 70.4666 50.482 70.5946 50.418C70.7332 50.354 70.9359 50.322 71.2026 50.322H74.0826C74.3599 50.322 74.5626 50.3593 74.6906 50.434C74.8186 50.5086 74.8719 50.6366 74.8506 50.818C74.8186 51.0206 74.6692 51.2233 74.4026 51.426C74.1466 51.618 73.9759 51.842 73.8906 52.098C73.8159 52.4286 73.7732 52.6206 73.7626 52.674L73.6986 53.106C73.6879 53.2446 73.6932 53.3353 73.7146 53.378C73.7466 53.41 73.8319 53.426 73.9706 53.426H74.1306C74.3439 53.426 74.5306 53.3353 74.6906 53.154C74.8506 52.9726 75.0319 52.7006 75.2346 52.338C75.6506 51.57 75.9812 51.0633 76.2266 50.818C76.6426 50.3806 77.1439 50.162 77.7306 50.162C78.1679 50.162 78.5146 50.2953 78.7706 50.562C79.0266 50.8286 79.1226 51.2073 79.0586 51.698C79.0159 52.0606 78.8772 52.354 78.6426 52.578C78.4079 52.7913 78.1466 52.898 77.8586 52.898C77.7092 52.898 77.5812 52.8606 77.4746 52.786C77.3786 52.7006 77.3092 52.6153 77.2666 52.53C77.2346 52.434 77.1812 52.3486 77.1066 52.274C77.0426 52.1886 76.9626 52.146 76.8666 52.146C76.8346 52.146 76.8026 52.1513 76.7706 52.162C76.7492 52.162 76.7226 52.1726 76.6906 52.194C76.6692 52.2153 76.6426 52.2366 76.6106 52.258C76.5892 52.2686 76.5626 52.2953 76.5306 52.338C76.5092 52.37 76.4879 52.3966 76.4666 52.418C76.4452 52.4393 76.4186 52.4766 76.3866 52.53C76.3546 52.5726 76.3279 52.61 76.3066 52.642C76.2959 52.6633 76.2692 52.706 76.2266 52.77C76.1946 52.834 76.1679 52.8766 76.1466 52.898C75.7412 53.5166 75.3946 53.906 75.1066 54.066C75.7252 54.1193 76.1786 54.29 76.4666 54.578C76.7652 54.866 76.9999 55.2926 77.1706 55.858C77.2666 56.1993 77.3732 56.4553 77.4906 56.626C77.6079 56.786 77.7039 56.882 77.7786 56.914C77.8639 56.9353 77.9919 56.9513 78.1626 56.962C78.4079 56.9833 78.5199 57.122 78.4986 57.378C78.4666 57.5913 78.2906 57.7726 77.9706 57.922C77.6612 58.0606 77.2399 58.13 76.7066 58.13C75.9599 58.13 75.4426 57.97 75.1546 57.65C74.8666 57.33 74.6319 56.754 74.4506 55.922C74.4292 55.8366 74.4026 55.6926 74.3706 55.49C74.3386 55.2873 74.3066 55.138 74.2746 55.042C74.2532 54.946 74.1946 54.8553 74.0986 54.77C74.0132 54.674 73.8906 54.626 73.7306 54.626C73.6452 54.626 73.5812 54.658 73.5386 54.722C73.4959 54.7753 73.4586 54.898 73.4266 55.09L73.3626 55.65C73.3306 55.8633 73.3199 56.05 73.3306 56.21C73.3412 56.466 73.4426 56.6953 73.6346 56.898C73.8372 57.09 73.9226 57.298 73.8906 57.522C73.8479 57.842 73.5706 58.002 73.0586 58.002H70.1626C69.8852 58.002 69.6826 57.9646 69.5546 57.89C69.4372 57.8153 69.3892 57.682 69.4106 57.49C69.4319 57.3193 69.5012 57.186 69.6186 57.09C69.7466 56.9833 69.8852 56.866 70.0346 56.738C70.1839 56.5993 70.2959 56.4233 70.3706 56.21C70.4452 55.9326 70.4879 55.746 70.4986 55.65L70.5626 55.09C70.5946 54.898 70.5946 54.7753 70.5626 54.722C70.5306 54.658 70.4666 54.626 70.3706 54.626C70.2426 54.626 70.1306 54.6526 70.0346 54.706C69.9386 54.7486 69.8532 54.8233 69.7786 54.93C69.7146 55.026 69.6612 55.122 69.6186 55.218C69.5759 55.3033 69.5226 55.4206 69.4586 55.57C69.3946 55.7193 69.3412 55.8366 69.2986 55.922C68.8826 56.754 68.4826 57.33 68.0986 57.65C67.7252 57.97 67.1652 58.13 66.4186 58.13ZM86.5351 55.65C86.7591 55.49 86.9511 55.4633 87.1111 55.57C87.2817 55.6766 87.2924 55.8526 87.1431 56.098C86.7804 56.706 86.2631 57.202 85.5911 57.586C84.9297 57.97 84.1671 58.162 83.3031 58.162C82.1831 58.162 81.3191 57.8686 80.7111 57.282C80.1137 56.6953 79.8151 55.89 79.8151 54.866C79.8151 53.5966 80.2737 52.498 81.1911 51.57C82.1191 50.6313 83.2337 50.162 84.5351 50.162C85.3884 50.162 86.0711 50.37 86.5831 50.786C87.0951 51.1913 87.3511 51.698 87.3511 52.306C87.3511 52.9033 87.1004 53.4313 86.5991 53.89C86.1084 54.338 85.5164 54.6633 84.8231 54.866C84.1404 55.058 83.4524 55.138 82.7591 55.106C83.0257 55.874 83.6284 56.258 84.5671 56.258C85.3244 56.258 85.9804 56.0553 86.5351 55.65ZM84.2311 51.394C83.7084 51.394 83.3031 51.6446 83.0151 52.146C82.7271 52.6473 82.5831 53.1646 82.5831 53.698C82.5831 53.858 82.6737 53.938 82.8551 53.938C83.4204 53.9593 83.9484 53.8153 84.4391 53.506C84.9404 53.186 85.1804 52.77 85.1591 52.258C85.1484 52.0233 85.0631 51.8206 84.9031 51.65C84.7431 51.4793 84.5191 51.394 84.2311 51.394ZM102.29 55.746C102.503 55.746 102.61 55.8793 102.61 56.146C102.61 56.6046 102.37 57.058 101.89 57.506C101.421 57.9433 100.786 58.162 99.9861 58.162C99.4527 58.162 99.0421 57.9753 98.7541 57.602C98.4767 57.2286 98.4021 56.658 98.5301 55.89L98.8341 54.194C99.0047 53.3406 99.0847 52.7593 99.0741 52.45C99.0741 52.13 98.9461 51.97 98.6901 51.97C98.5941 51.97 98.4874 51.9966 98.3701 52.05C98.2634 52.1033 98.1247 52.226 97.9541 52.418C97.7941 52.5993 97.6341 52.8446 97.4741 53.154C97.3141 53.4526 97.1434 53.8846 96.9621 54.45C96.7914 55.0153 96.6314 55.666 96.4821 56.402L96.3381 57.186C96.2634 57.4846 96.0821 57.666 95.7941 57.73L93.9381 58.162C93.7781 58.194 93.6554 58.1566 93.5701 58.05C93.4847 57.9433 93.4581 57.7993 93.4901 57.618L94.1621 54.194C94.2687 53.6286 94.3274 53.186 94.3381 52.866C94.3594 52.5353 94.3381 52.306 94.2741 52.178C94.2101 52.0393 94.0981 51.97 93.9381 51.97C93.8421 51.97 93.7407 51.9966 93.6341 52.05C93.5274 52.1033 93.3941 52.226 93.2341 52.418C93.0741 52.5993 92.9194 52.8446 92.7701 53.154C92.6314 53.4526 92.4767 53.8846 92.3061 54.45C92.1354 55.0046 91.9754 55.6553 91.8261 56.402L91.6661 57.186C91.6021 57.4846 91.4207 57.666 91.1221 57.73L89.2821 58.162C89.1221 58.194 88.9941 58.1566 88.8981 58.05C88.8127 57.9433 88.7861 57.7993 88.8181 57.618L89.5861 52.978C89.6287 52.7433 89.6181 52.5566 89.5541 52.418C89.5007 52.2686 89.4207 52.178 89.3141 52.146C89.2181 52.1033 89.1274 52.0393 89.0421 51.954C88.9567 51.8686 88.9141 51.762 88.9141 51.634C88.9141 51.474 89.0101 51.314 89.2021 51.154C89.3941 50.994 89.7994 50.786 90.4181 50.53C91.1007 50.274 91.5807 50.146 91.8581 50.146C92.2634 50.146 92.4447 50.3486 92.4021 50.754L92.2741 51.762C92.6687 51.2073 93.1114 50.802 93.6021 50.546C94.1034 50.2793 94.5834 50.146 95.0421 50.146C95.5541 50.146 95.9861 50.2846 96.3381 50.562C96.6901 50.8286 96.9354 51.1966 97.0741 51.666C97.4154 51.1753 97.8367 50.802 98.3381 50.546C98.8394 50.2793 99.3567 50.146 99.8901 50.146C100.605 50.146 101.149 50.466 101.522 51.106C101.906 51.7353 102.002 52.5193 101.81 53.458L101.394 55.394C101.33 55.714 101.309 55.9326 101.33 56.05C101.351 56.1673 101.421 56.226 101.538 56.226C101.645 56.226 101.773 56.146 101.922 55.986C102.082 55.826 102.205 55.746 102.29 55.746ZM116.707 55.762C116.92 55.762 117.027 55.9006 117.027 56.178C117.027 56.6153 116.781 57.058 116.291 57.506C115.811 57.9433 115.171 58.162 114.371 58.162C113.827 58.162 113.4 57.9806 113.091 57.618C112.792 57.2446 112.701 56.6793 112.819 55.922L113.011 54.594H110.739L110.403 57.17C110.36 57.4793 110.184 57.666 109.875 57.73L108.019 58.162C107.869 58.194 107.747 58.1566 107.651 58.05C107.565 57.9433 107.539 57.7993 107.571 57.618L108.195 52.994C108.227 52.7593 108.211 52.5726 108.147 52.434C108.093 52.2846 108.019 52.194 107.923 52.162C107.827 52.1193 107.736 52.0553 107.651 51.97C107.565 51.8846 107.523 51.778 107.523 51.65C107.523 51.4793 107.608 51.3193 107.779 51.17C107.96 51.01 108.312 50.834 108.835 50.642C109.688 50.3326 110.333 50.178 110.771 50.178C111.144 50.178 111.304 50.37 111.251 50.754L110.899 53.41H113.187L113.507 51.186C113.549 50.866 113.725 50.674 114.035 50.61L115.859 50.178C116.019 50.146 116.141 50.1833 116.227 50.29C116.312 50.3966 116.344 50.5353 116.323 50.706L115.667 55.394C115.571 55.938 115.667 56.21 115.955 56.21C116.061 56.21 116.189 56.1353 116.339 55.986C116.499 55.8366 116.621 55.762 116.707 55.762ZM125.112 55.65C125.336 55.49 125.528 55.4633 125.688 55.57C125.859 55.6766 125.869 55.8526 125.72 56.098C125.357 56.706 124.84 57.202 124.168 57.586C123.507 57.97 122.744 58.162 121.88 58.162C120.76 58.162 119.896 57.8686 119.288 57.282C118.691 56.6953 118.392 55.89 118.392 54.866C118.392 53.5966 118.851 52.498 119.768 51.57C120.696 50.6313 121.811 50.162 123.112 50.162C123.965 50.162 124.648 50.37 125.16 50.786C125.672 51.1913 125.928 51.698 125.928 52.306C125.928 52.9033 125.677 53.4313 125.176 53.89C124.685 54.338 124.093 54.6633 123.4 54.866C122.717 55.058 122.029 55.138 121.336 55.106C121.603 55.874 122.205 56.258 123.144 56.258C123.901 56.258 124.557 56.0553 125.112 55.65ZM122.808 51.394C122.285 51.394 121.88 51.6446 121.592 52.146C121.304 52.6473 121.16 53.1646 121.16 53.698C121.16 53.858 121.251 53.938 121.432 53.938C121.997 53.9593 122.525 53.8153 123.016 53.506C123.517 53.186 123.757 52.77 123.736 52.258C123.725 52.0233 123.64 51.8206 123.48 51.65C123.32 51.4793 123.096 51.394 122.808 51.394ZM144.39 55.746C144.603 55.746 144.71 55.8793 144.71 56.146C144.71 56.6046 144.47 57.058 143.99 57.506C143.521 57.9433 142.886 58.162 142.086 58.162C141.553 58.162 141.142 57.9753 140.854 57.602C140.577 57.2286 140.502 56.658 140.63 55.89L140.934 54.194C141.105 53.3406 141.185 52.7593 141.174 52.45C141.174 52.13 141.046 51.97 140.79 51.97C140.694 51.97 140.587 51.9966 140.47 52.05C140.363 52.1033 140.225 52.226 140.054 52.418C139.894 52.5993 139.734 52.8446 139.574 53.154C139.414 53.4526 139.243 53.8846 139.062 54.45C138.891 55.0153 138.731 55.666 138.582 56.402L138.438 57.186C138.363 57.4846 138.182 57.666 137.894 57.73L136.038 58.162C135.878 58.194 135.755 58.1566 135.67 58.05C135.585 57.9433 135.558 57.7993 135.59 57.618L136.262 54.194C136.369 53.6286 136.427 53.186 136.438 52.866C136.459 52.5353 136.438 52.306 136.374 52.178C136.31 52.0393 136.198 51.97 136.038 51.97C135.942 51.97 135.841 51.9966 135.734 52.05C135.627 52.1033 135.494 52.226 135.334 52.418C135.174 52.5993 135.019 52.8446 134.87 53.154C134.731 53.4526 134.577 53.8846 134.406 54.45C134.235 55.0046 134.075 55.6553 133.926 56.402L133.766 57.186C133.702 57.4846 133.521 57.666 133.222 57.73L131.382 58.162C131.222 58.194 131.094 58.1566 130.998 58.05C130.913 57.9433 130.886 57.7993 130.918 57.618L131.686 52.978C131.729 52.7433 131.718 52.5566 131.654 52.418C131.601 52.2686 131.521 52.178 131.414 52.146C131.318 52.1033 131.227 52.0393 131.142 51.954C131.057 51.8686 131.014 51.762 131.014 51.634C131.014 51.474 131.11 51.314 131.302 51.154C131.494 50.994 131.899 50.786 132.518 50.53C133.201 50.274 133.681 50.146 133.958 50.146C134.363 50.146 134.545 50.3486 134.502 50.754L134.374 51.762C134.769 51.2073 135.211 50.802 135.702 50.546C136.203 50.2793 136.683 50.146 137.142 50.146C137.654 50.146 138.086 50.2846 138.438 50.562C138.79 50.8286 139.035 51.1966 139.174 51.666C139.515 51.1753 139.937 50.802 140.438 50.546C140.939 50.2793 141.457 50.146 141.99 50.146C142.705 50.146 143.249 50.466 143.622 51.106C144.006 51.7353 144.102 52.5193 143.91 53.458L143.494 55.394C143.43 55.714 143.409 55.9326 143.43 56.05C143.451 56.1673 143.521 56.226 143.638 56.226C143.745 56.226 143.873 56.146 144.022 55.986C144.182 55.826 144.305 55.746 144.39 55.746ZM152.724 50.114C153.14 50.114 153.449 50.258 153.652 50.546C153.854 50.8233 153.956 51.154 153.956 51.538C153.956 52.4446 153.673 53.57 153.108 54.914C152.553 56.258 152.036 57.3033 151.556 58.05C150.169 60.258 148.596 61.362 146.836 61.362C146.174 61.362 145.668 61.202 145.316 60.882C144.953 60.562 144.772 60.1513 144.772 59.65C144.772 59.1806 144.894 58.818 145.14 58.562C145.374 58.306 145.652 58.178 145.972 58.178C146.174 58.178 146.361 58.242 146.532 58.37C146.702 58.5086 146.825 58.6846 146.9 58.898C146.921 58.9513 146.953 59.042 146.996 59.17C147.038 59.298 147.065 59.3886 147.076 59.442C147.097 59.4953 147.129 59.5646 147.172 59.65C147.225 59.7353 147.278 59.794 147.332 59.826C147.385 59.858 147.454 59.89 147.54 59.922C147.625 59.954 147.726 59.97 147.844 59.97C148.025 59.97 148.196 59.9006 148.356 59.762C148.516 59.634 148.617 59.458 148.66 59.234C148.724 58.8926 148.697 58.3966 148.58 57.746C148.27 56.178 147.742 54.562 146.996 52.898C146.846 52.5566 146.708 52.338 146.58 52.242C146.452 52.1353 146.26 52.066 146.004 52.034C145.865 52.0233 145.764 51.9806 145.7 51.906C145.636 51.8206 145.604 51.7406 145.604 51.666C145.604 51.3566 145.924 51.0313 146.564 50.69C147.204 50.338 147.748 50.162 148.196 50.162C148.601 50.162 148.91 50.418 149.124 50.93C149.806 52.594 150.409 54.4766 150.932 56.578C151.593 55.458 151.924 54.4446 151.924 53.538C151.924 53.2073 151.812 52.834 151.588 52.418C151.374 51.9913 151.268 51.6713 151.268 51.458C151.268 51.0846 151.428 50.77 151.748 50.514C152.068 50.2473 152.393 50.114 152.724 50.114ZM163.701 51.81C163.733 53.7193 163.269 55.2553 162.309 56.418C161.36 57.5806 160.149 58.162 158.677 58.162C157.632 58.162 156.779 57.858 156.117 57.25C155.467 56.642 155.141 55.7726 155.141 54.642C155.141 53.3513 155.557 52.2846 156.389 51.442C157.221 50.5993 158.235 50.194 159.429 50.226C160.059 50.258 160.528 50.4073 160.837 50.674C160.496 49.01 159.467 47.9593 157.749 47.522C157.44 47.4473 157.285 47.3246 157.285 47.154C157.285 46.802 157.739 46.6206 158.645 46.61C159.2 46.5886 159.76 46.674 160.325 46.866C160.891 47.0473 161.429 47.3353 161.941 47.73C162.453 48.114 162.869 48.6633 163.189 49.378C163.52 50.082 163.691 50.8926 163.701 51.81ZM158.885 56.898C159.408 56.898 159.829 56.482 160.149 55.65C160.48 54.8073 160.645 53.9486 160.645 53.074C160.645 52.0286 160.368 51.506 159.813 51.506C159.28 51.506 158.848 51.89 158.517 52.658C158.197 53.4153 158.037 54.2473 158.037 55.154C158.037 56.3166 158.32 56.898 158.885 56.898ZM174.289 56.178C174.3 56.6153 174.065 57.058 173.585 57.506C173.116 57.9433 172.492 58.162 171.713 58.162C171.318 58.162 170.972 58.0606 170.673 57.858C170.385 57.6446 170.198 57.3246 170.113 56.898C169.409 57.7406 168.572 58.162 167.601 58.162C166.801 58.162 166.15 57.89 165.649 57.346C165.148 56.802 164.897 56.1033 164.897 55.25C164.897 53.842 165.393 52.642 166.385 51.65C167.377 50.658 168.465 50.162 169.649 50.162C170.033 50.162 170.401 50.2206 170.753 50.338C171.116 50.4446 171.329 50.498 171.393 50.498C171.51 50.498 171.761 50.434 172.145 50.306C172.54 50.178 172.817 50.114 172.977 50.114C173.19 50.114 173.35 50.1833 173.457 50.322C173.564 50.4606 173.606 50.6153 173.585 50.786L172.913 55.394C172.838 55.938 172.94 56.21 173.217 56.21C173.324 56.21 173.452 56.1353 173.601 55.986C173.761 55.8366 173.884 55.762 173.969 55.762C174.182 55.762 174.289 55.9006 174.289 56.178ZM168.609 56.386C169.046 56.386 169.409 56.1086 169.697 55.554C169.985 54.9993 170.193 54.306 170.321 53.474C170.534 52.0553 170.273 51.346 169.537 51.346C169.004 51.346 168.582 51.6926 168.273 52.386C167.974 53.0686 167.814 53.8953 167.793 54.866C167.782 55.3033 167.846 55.666 167.985 55.954C168.124 56.242 168.332 56.386 168.609 56.386ZM76.3491 76.746C76.5625 76.746 76.6691 76.8793 76.6691 77.146C76.6691 77.6046 76.4291 78.058 75.9491 78.506C75.4798 78.9433 74.8451 79.162 74.0451 79.162C73.5118 79.162 73.1011 78.9753 72.8131 78.602C72.5358 78.2286 72.4611 77.658 72.5891 76.89L72.8931 75.194C73.0638 74.3406 73.1438 73.7593 73.1331 73.45C73.1331 73.13 73.0051 72.97 72.7491 72.97C72.6531 72.97 72.5465 72.9966 72.4291 73.05C72.3225 73.1033 72.1838 73.226 72.0131 73.418C71.8531 73.5993 71.6931 73.8446 71.5331 74.154C71.3731 74.4526 71.2025 74.8846 71.0211 75.45C70.8505 76.0153 70.6905 76.666 70.5411 77.402L70.3971 78.186C70.3225 78.4846 70.1411 78.666 69.8531 78.73L67.9971 79.162C67.8371 79.194 67.7145 79.1566 67.6291 79.05C67.5438 78.9433 67.5171 78.7993 67.5491 78.618L68.2211 75.194C68.3278 74.6286 68.3865 74.186 68.3971 73.866C68.4185 73.5353 68.3971 73.306 68.3331 73.178C68.2691 73.0393 68.1571 72.97 67.9971 72.97C67.9011 72.97 67.7998 72.9966 67.6931 73.05C67.5865 73.1033 67.4531 73.226 67.2931 73.418C67.1331 73.5993 66.9785 73.8446 66.8291 74.154C66.6905 74.4526 66.5358 74.8846 66.3651 75.45C66.1945 76.0046 66.0345 76.6553 65.8851 77.402L65.7251 78.186C65.6611 78.4846 65.4798 78.666 65.1811 78.73L63.3411 79.162C63.1811 79.194 63.0531 79.1566 62.9571 79.05C62.8718 78.9433 62.8451 78.7993 62.8771 78.618L63.6451 73.978C63.6878 73.7433 63.6771 73.5566 63.6131 73.418C63.5598 73.2686 63.4798 73.178 63.3731 73.146C63.2771 73.1033 63.1865 73.0393 63.1011 72.954C63.0158 72.8686 62.9731 72.762 62.9731 72.634C62.9731 72.474 63.0691 72.314 63.2611 72.154C63.4531 71.994 63.8585 71.786 64.4771 71.53C65.1598 71.274 65.6398 71.146 65.9171 71.146C66.3225 71.146 66.5038 71.3486 66.4611 71.754L66.3331 72.762C66.7278 72.2073 67.1705 71.802 67.6611 71.546C68.1625 71.2793 68.6425 71.146 69.1011 71.146C69.6131 71.146 70.0451 71.2846 70.3971 71.562C70.7491 71.8286 70.9945 72.1966 71.1331 72.666C71.4745 72.1753 71.8958 71.802 72.3971 71.546C72.8985 71.2793 73.4158 71.146 73.9491 71.146C74.6638 71.146 75.2078 71.466 75.5811 72.106C75.9651 72.7353 76.0611 73.5193 75.8691 74.458L75.4531 76.394C75.3891 76.714 75.3678 76.9326 75.3891 77.05C75.4105 77.1673 75.4798 77.226 75.5971 77.226C75.7038 77.226 75.8318 77.146 75.9811 76.986C76.1411 76.826 76.2638 76.746 76.3491 76.746ZM83.5948 73.21C84.2134 73.21 84.7308 73.402 85.1468 73.786C85.5628 74.1593 85.7708 74.6446 85.7708 75.242C85.7708 76.0313 85.5308 76.7353 85.0508 77.354C84.5814 77.9726 84.0108 78.4313 83.3388 78.73C82.6774 79.018 82.0054 79.162 81.3228 79.162C80.2134 79.162 79.4028 78.906 78.8908 78.394C78.3788 77.8713 78.2081 77.098 78.3788 76.074L78.7308 73.946C78.8054 73.498 78.7094 73.2206 78.4428 73.114C78.1868 72.9646 78.0588 72.8046 78.0588 72.634C78.0588 72.5273 78.0854 72.4313 78.1388 72.346C78.1921 72.25 78.3361 72.1273 78.5708 71.978C78.8054 71.8286 79.1361 71.6793 79.5628 71.53C80.2988 71.274 80.9014 71.146 81.3708 71.146C81.7654 71.146 81.9254 71.3486 81.8508 71.754L81.4988 74.026C82.1281 73.482 82.8268 73.21 83.5948 73.21ZM90.3788 77.178C90.3894 77.6153 90.1494 78.058 89.6588 78.506C89.1788 78.9433 88.5388 79.162 87.7388 79.162C87.1948 79.162 86.7681 78.9806 86.4588 78.618C86.1494 78.2446 86.0534 77.6793 86.1708 76.922L86.8588 72.186C86.9014 71.8766 87.0828 71.6846 87.4028 71.61L89.2268 71.178C89.3761 71.146 89.4934 71.1833 89.5788 71.29C89.6748 71.3966 89.7121 71.5353 89.6908 71.706L89.0188 76.394C88.9441 76.938 89.0454 77.21 89.3228 77.21C89.4294 77.21 89.5574 77.1353 89.7068 76.986C89.8561 76.8366 89.9734 76.762 90.0588 76.762C90.2721 76.762 90.3788 76.9006 90.3788 77.178ZM82.9708 75.69C82.9921 75.1033 82.8054 74.81 82.4108 74.81C82.0694 74.81 81.7708 75.0713 81.5148 75.594C81.2588 76.1166 81.1361 76.6126 81.1468 77.082C81.1574 77.3273 81.2161 77.5353 81.3228 77.706C81.4294 77.866 81.5841 77.9406 81.7868 77.93C82.1068 77.93 82.3841 77.69 82.6188 77.21C82.8534 76.73 82.9708 76.2233 82.9708 75.69ZM98.284 79.13C97.5373 79.13 97.0147 78.97 96.716 78.65C96.428 78.33 96.1987 77.754 96.028 76.922C96.0173 76.858 95.996 76.7406 95.964 76.57C95.9427 76.3993 95.916 76.2766 95.884 76.202C95.8627 76.1273 95.8253 76.0366 95.772 75.93C95.7187 75.8126 95.6387 75.7326 95.532 75.69C95.436 75.6473 95.308 75.626 95.148 75.626C95.052 75.626 94.9827 75.658 94.94 75.722C94.908 75.7753 94.876 75.9033 94.844 76.106L94.78 76.65C94.748 76.8633 94.7373 77.05 94.748 77.21C94.7587 77.466 94.86 77.6953 95.052 77.898C95.2547 78.09 95.34 78.298 95.308 78.522C95.2653 78.842 94.988 79.002 94.476 79.002H91.596C91.308 79.002 91.1053 78.9646 90.988 78.89C90.86 78.8153 90.8067 78.682 90.828 78.49C90.8493 78.3193 90.924 78.186 91.052 78.09C91.1693 77.9833 91.3027 77.866 91.452 77.738C91.6013 77.5993 91.7133 77.4233 91.788 77.21C91.852 76.9326 91.8947 76.746 91.916 76.65L92.316 73.674C92.348 73.4606 92.3587 73.2686 92.348 73.098C92.3373 72.842 92.2307 72.618 92.028 72.426C91.836 72.234 91.756 72.026 91.788 71.802C91.8307 71.482 92.108 71.322 92.62 71.322H95.5C95.788 71.322 95.9907 71.3593 96.108 71.434C96.236 71.5086 96.2893 71.6366 96.268 71.818C96.236 72.0206 96.0867 72.2233 95.82 72.426C95.564 72.618 95.3933 72.842 95.308 73.098C95.2333 73.4286 95.1907 73.6206 95.18 73.674L95.132 74.106C95.1107 74.2553 95.116 74.346 95.148 74.378C95.18 74.41 95.2653 74.426 95.404 74.426H95.564C95.8093 74.426 96.0333 74.314 96.236 74.09C96.4493 73.866 96.6413 73.594 96.812 73.274C96.9827 72.954 97.1693 72.634 97.372 72.314C97.5747 71.994 97.8413 71.722 98.172 71.498C98.5027 71.274 98.8813 71.162 99.308 71.162C99.7453 71.162 100.092 71.2953 100.348 71.562C100.604 71.8286 100.695 72.2073 100.62 72.698C100.577 73.0713 100.439 73.3646 100.204 73.578C99.98 73.7913 99.724 73.898 99.436 73.898C99.2867 73.898 99.1587 73.8606 99.052 73.786C98.956 73.7006 98.8867 73.6153 98.844 73.53C98.812 73.434 98.7587 73.3486 98.684 73.274C98.62 73.1886 98.54 73.146 98.444 73.146C98.2947 73.146 98.14 73.2686 97.98 73.514C97.8307 73.7593 97.644 74.0473 97.42 74.378C97.196 74.7086 96.9507 74.9433 96.684 75.082C97.3027 75.1353 97.7613 75.306 98.06 75.594C98.3587 75.8713 98.588 76.2926 98.748 76.858C98.8227 77.114 98.8973 77.322 98.972 77.482C99.0467 77.642 99.132 77.754 99.228 77.818C99.324 77.882 99.3987 77.9246 99.452 77.946C99.516 77.9566 99.612 77.962 99.74 77.962C99.9747 77.9833 100.081 78.122 100.06 78.378C100.028 78.5913 99.852 78.7726 99.532 78.922C99.2227 79.0606 98.8067 79.13 98.284 79.13ZM110.983 77.178C110.993 77.6153 110.759 78.058 110.279 78.506C109.809 78.9433 109.185 79.162 108.407 79.162C108.012 79.162 107.665 79.0606 107.367 78.858C107.079 78.6446 106.892 78.3246 106.807 77.898C106.103 78.7406 105.265 79.162 104.295 79.162C103.495 79.162 102.844 78.89 102.343 78.346C101.841 77.802 101.591 77.1033 101.591 76.25C101.591 74.842 102.087 73.642 103.079 72.65C104.071 71.658 105.159 71.162 106.343 71.162C106.727 71.162 107.095 71.2206 107.447 71.338C107.809 71.4446 108.023 71.498 108.087 71.498C108.204 71.498 108.455 71.434 108.839 71.306C109.233 71.178 109.511 71.114 109.671 71.114C109.884 71.114 110.044 71.1833 110.151 71.322C110.257 71.4606 110.3 71.6153 110.279 71.786L109.607 76.394C109.532 76.938 109.633 77.21 109.911 77.21C110.017 77.21 110.145 77.1353 110.295 76.986C110.455 76.8366 110.577 76.762 110.663 76.762C110.876 76.762 110.983 76.9006 110.983 77.178ZM105.303 77.386C105.74 77.386 106.103 77.1086 106.391 76.554C106.679 75.9993 106.887 75.306 107.015 74.474C107.228 73.0553 106.967 72.346 106.231 72.346C105.697 72.346 105.276 72.6926 104.967 73.386C104.668 74.0686 104.508 74.8953 104.487 75.866C104.476 76.3033 104.54 76.666 104.679 76.954C104.817 77.242 105.025 77.386 105.303 77.386ZM118.96 76.65C119.184 76.49 119.376 76.4633 119.536 76.57C119.706 76.6766 119.717 76.8526 119.568 77.098C119.205 77.706 118.688 78.202 118.016 78.586C117.354 78.97 116.592 79.162 115.728 79.162C114.608 79.162 113.744 78.8686 113.136 78.282C112.538 77.6953 112.24 76.89 112.24 75.866C112.24 74.5966 112.698 73.498 113.616 72.57C114.544 71.6313 115.658 71.162 116.96 71.162C117.813 71.162 118.496 71.37 119.008 71.786C119.52 72.1913 119.776 72.698 119.776 73.306C119.776 73.9033 119.525 74.4313 119.024 74.89C118.533 75.338 117.941 75.6633 117.248 75.866C116.565 76.058 115.877 76.138 115.184 76.106C115.45 76.874 116.053 77.258 116.992 77.258C117.749 77.258 118.405 77.0553 118.96 76.65ZM116.656 72.394C116.133 72.394 115.728 72.6446 115.44 73.146C115.152 73.6473 115.008 74.1646 115.008 74.698C115.008 74.858 115.098 74.938 115.28 74.938C115.845 74.9593 116.373 74.8153 116.864 74.506C117.365 74.186 117.605 73.77 117.584 73.258C117.573 73.0233 117.488 72.8206 117.328 72.65C117.168 72.4793 116.944 72.394 116.656 72.394ZM122.107 79.162C121.712 79.162 121.349 79.05 121.019 78.826C120.699 78.602 120.571 78.2446 120.635 77.754C120.688 77.434 120.821 77.1673 121.035 76.954C121.259 76.7406 121.493 76.634 121.739 76.634C121.941 76.634 122.101 76.682 122.219 76.778C122.347 76.874 122.427 76.9806 122.459 77.098C122.501 77.2046 122.56 77.306 122.635 77.402C122.709 77.498 122.805 77.546 122.923 77.546C123.168 77.546 123.408 77.1193 123.643 76.266C123.877 75.4126 124.048 74.65 124.155 73.978C124.229 73.498 124.139 73.2046 123.883 73.098C123.637 72.97 123.509 72.81 123.499 72.618C123.499 72.5113 123.52 72.4153 123.563 72.33C123.616 72.2446 123.76 72.1273 123.995 71.978C124.24 71.8286 124.587 71.674 125.035 71.514C125.771 71.2686 126.427 71.146 127.003 71.146C127.312 71.146 127.488 71.354 127.531 71.77C127.648 72.826 127.872 73.9886 128.203 75.258L129.771 72.298C129.792 72.2446 129.824 72.186 129.867 72.122C129.92 72.0473 130 71.962 130.107 71.866C130.224 71.77 130.352 71.6953 130.491 71.642C131.184 71.3433 131.904 71.1833 132.651 71.162C132.811 71.1513 132.933 71.194 133.019 71.29C133.104 71.386 133.136 71.5193 133.115 71.69L132.475 76.362C132.432 76.682 132.432 76.906 132.475 77.034C132.517 77.1513 132.603 77.21 132.731 77.21C132.837 77.21 132.965 77.1353 133.115 76.986C133.264 76.8366 133.381 76.762 133.467 76.762C133.68 76.762 133.787 76.9006 133.787 77.178C133.797 77.6153 133.557 78.058 133.067 78.506C132.587 78.9433 131.947 79.162 131.147 79.162C129.845 79.162 129.312 78.3993 129.547 76.874L129.963 74.186L128.075 77.786C127.904 78.0633 127.584 78.2713 127.115 78.41C126.539 78.57 126.181 78.4526 126.043 78.058C125.669 76.8313 125.413 75.562 125.275 74.25C125.147 74.9326 124.88 75.9886 124.475 77.418C123.995 78.5806 123.205 79.162 122.107 79.162ZM138.857 74.698C138.793 75.0073 138.649 75.21 138.425 75.306C138.212 75.3913 138.014 75.3486 137.833 75.178C137.662 75.0073 137.604 74.746 137.657 74.394C137.742 73.786 137.95 73.21 138.281 72.666C138.622 72.1113 138.953 71.594 139.273 71.114C139.604 70.6233 139.801 70.154 139.865 69.706C139.929 69.2046 139.758 68.954 139.353 68.954C139.161 68.954 138.996 69.0233 138.857 69.162C138.729 69.3006 138.59 69.5086 138.441 69.786C138.302 70.0526 138.196 70.2393 138.121 70.346C138.11 70.3566 138.057 70.426 137.961 70.554C137.876 70.6713 137.817 70.746 137.785 70.778C137.764 70.81 137.705 70.874 137.609 70.97C137.524 71.0553 137.444 71.1193 137.369 71.162C137.305 71.194 137.214 71.226 137.097 71.258C136.99 71.29 136.873 71.306 136.745 71.306C136.276 71.306 135.961 71.1833 135.801 70.938C135.641 70.682 135.582 70.394 135.625 70.074C135.721 69.3806 136.105 68.8046 136.777 68.346C137.449 67.8766 138.377 67.642 139.561 67.642C140.681 67.642 141.524 67.8553 142.089 68.282C142.654 68.7086 142.889 69.2686 142.793 69.962C142.74 70.346 142.574 70.7246 142.297 71.098C142.03 71.4713 141.742 71.7753 141.433 72.01C141.134 72.2446 140.793 72.506 140.409 72.794C140.025 73.0713 139.758 73.29 139.609 73.45C139.534 73.5246 139.396 73.722 139.193 74.042C139.001 74.3513 138.889 74.57 138.857 74.698ZM137.929 79.226C137.545 79.226 137.23 79.114 136.985 78.89C136.74 78.6553 136.617 78.3246 136.617 77.898C136.617 77.3966 136.788 76.9913 137.129 76.682C137.481 76.3726 137.881 76.218 138.329 76.218C138.702 76.218 139.012 76.3406 139.257 76.586C139.513 76.8206 139.641 77.1513 139.641 77.578C139.641 78.0793 139.47 78.4793 139.129 78.778C138.798 79.0766 138.398 79.226 137.929 79.226Z" fill="#FFC6F9"/>
</svg>
