<svg width="140" height="90" viewBox="0 0 140 90" fill="none" xmlns="http://www.w3.org/2000/svg">
<path d="M122.213 38.9935C137.581 38.6482 137.933 9.86502 136.402 0C124.733 18.1583 102.605 23.1296 93 23.3455C96.1913 25.7165 106.845 39.3389 122.213 38.9935Z" fill="#FFC6F9"/>
<rect x="1.5" y="22.5" width="137" height="66" rx="33" fill="#6932FF" stroke="#FFC6F9" stroke-width="3"/>
<path d="M51.2591 49H47.5151C47.1071 49 46.8251 48.952 46.6691 48.856C46.5131 48.76 46.4531 48.592 46.4891 48.352C46.5251 48.112 46.6211 47.914 46.7771 47.758C46.9331 47.59 47.0951 47.458 47.2631 47.362C47.4431 47.254 47.6231 47.05 47.8031 46.75C47.9831 46.438 48.1091 46.03 48.1811 45.526L48.9371 40.036C49.0091 39.52 49.0211 39.124 48.9731 38.848C48.9251 38.572 48.8471 38.35 48.7391 38.182C48.6311 38.014 48.5171 37.894 48.3971 37.822C48.2891 37.738 48.1991 37.636 48.1271 37.516C48.0551 37.396 48.0371 37.24 48.0731 37.048C48.1091 36.808 48.2171 36.64 48.3971 36.544C48.5771 36.448 48.8711 36.4 49.2791 36.4H53.4371C55.3451 36.4 56.7851 36.838 57.7571 37.714C58.7291 38.59 59.1011 39.796 58.8731 41.332C58.4891 43.996 56.4371 45.328 52.7171 45.328H51.9971C51.7451 45.328 51.6011 45.448 51.5651 45.688C51.5411 46.012 51.5351 46.24 51.5471 46.372C51.5471 46.624 51.5831 46.834 51.6551 47.002C51.7271 47.17 51.8111 47.296 51.9071 47.38C52.0031 47.452 52.0991 47.524 52.1951 47.596C52.2911 47.668 52.3631 47.764 52.4111 47.884C52.4711 48.004 52.4891 48.16 52.4651 48.352C52.4171 48.592 52.3091 48.76 52.1411 48.856C51.9731 48.952 51.6791 49 51.2591 49ZM52.7171 43.942C53.4851 43.942 54.1031 43.72 54.5711 43.276C55.0511 42.832 55.3391 42.268 55.4351 41.584C55.6151 40.372 55.4651 39.43 54.9851 38.758C54.5171 38.086 53.9291 37.75 53.2211 37.75C53.0051 37.75 52.8551 37.786 52.7711 37.858C52.6871 37.918 52.6331 38.044 52.6091 38.236L51.9071 43.294C51.8471 43.726 52.1171 43.942 52.7171 43.942ZM70.52 46.948C70.532 47.44 70.268 47.938 69.728 48.442C69.2 48.934 68.498 49.18 67.622 49.18C67.178 49.18 66.788 49.066 66.452 48.838C66.128 48.598 65.918 48.238 65.822 47.758C65.03 48.706 64.088 49.18 62.996 49.18C62.096 49.18 61.364 48.874 60.8 48.262C60.236 47.65 59.954 46.864 59.954 45.904C59.954 44.32 60.512 42.97 61.628 41.854C62.744 40.738 63.968 40.18 65.3 40.18C65.732 40.18 66.146 40.246 66.542 40.378C66.95 40.498 67.19 40.558 67.262 40.558C67.394 40.558 67.676 40.486 68.108 40.342C68.552 40.198 68.864 40.126 69.044 40.126C69.284 40.126 69.464 40.204 69.584 40.36C69.704 40.516 69.752 40.69 69.728 40.882L68.972 46.066C68.888 46.678 69.002 46.984 69.314 46.984C69.434 46.984 69.578 46.9 69.746 46.732C69.926 46.564 70.064 46.48 70.16 46.48C70.4 46.48 70.52 46.636 70.52 46.948ZM64.13 47.182C64.622 47.182 65.03 46.87 65.354 46.246C65.678 45.622 65.912 44.842 66.056 43.906C66.296 42.31 66.002 41.512 65.174 41.512C64.574 41.512 64.1 41.902 63.752 42.682C63.416 43.45 63.236 44.38 63.212 45.472C63.2 45.964 63.272 46.372 63.428 46.696C63.584 47.02 63.818 47.182 64.13 47.182ZM82.51 46.48C82.75 46.48 82.87 46.636 82.87 46.948C82.87 47.44 82.594 47.938 82.042 48.442C81.502 48.934 80.782 49.18 79.882 49.18C79.27 49.18 78.79 48.976 78.442 48.568C78.106 48.148 78.004 47.512 78.136 46.66L78.352 45.166H75.796L75.418 48.064C75.37 48.412 75.172 48.622 74.824 48.694L72.736 49.18C72.568 49.216 72.43 49.174 72.322 49.054C72.226 48.934 72.196 48.772 72.232 48.568L72.934 43.366C72.97 43.102 72.952 42.892 72.88 42.736C72.82 42.568 72.736 42.466 72.628 42.43C72.52 42.382 72.418 42.31 72.322 42.214C72.226 42.118 72.178 41.998 72.178 41.854C72.178 41.662 72.274 41.482 72.466 41.314C72.67 41.134 73.066 40.936 73.654 40.72C74.614 40.372 75.34 40.198 75.832 40.198C76.252 40.198 76.432 40.414 76.372 40.846L75.976 43.834H78.55L78.91 41.332C78.958 40.972 79.156 40.756 79.504 40.684L81.556 40.198C81.736 40.162 81.874 40.204 81.97 40.324C82.066 40.444 82.102 40.6 82.078 40.792L81.34 46.066C81.232 46.678 81.34 46.984 81.664 46.984C81.784 46.984 81.928 46.9 82.096 46.732C82.276 46.564 82.414 46.48 82.51 46.48ZM88.6358 49.198C87.3038 49.198 86.2658 48.856 85.5218 48.172C84.7778 47.476 84.4058 46.522 84.4058 45.31C84.4058 43.882 84.9518 42.67 86.0438 41.674C87.1358 40.666 88.4318 40.162 89.9318 40.162C91.2158 40.162 92.2298 40.516 92.9738 41.224C93.7178 41.932 94.0898 42.85 94.0898 43.978C94.0898 45.514 93.5678 46.768 92.5238 47.74C91.4798 48.712 90.1838 49.198 88.6358 49.198ZM88.7438 47.776C89.2958 47.776 89.7458 47.326 90.0938 46.426C90.4418 45.514 90.6158 44.572 90.6158 43.6C90.6158 42.244 90.2798 41.566 89.6078 41.566C89.0318 41.566 88.5698 41.998 88.2218 42.862C87.8858 43.714 87.7058 44.656 87.6818 45.688C87.7178 47.08 88.0718 47.776 88.7438 47.776ZM42.9172 69.462C43.1572 69.462 43.2772 69.612 43.2772 69.912C43.2772 70.428 43.0072 70.938 42.4672 71.442C41.9392 71.934 41.2252 72.18 40.3252 72.18C39.7252 72.18 39.2632 71.97 38.9392 71.55C38.6272 71.13 38.5432 70.488 38.6872 69.624L39.0292 67.716C39.2212 66.756 39.3112 66.102 39.2992 65.754C39.2992 65.394 39.1552 65.214 38.8672 65.214C38.7592 65.214 38.6392 65.244 38.5072 65.304C38.3872 65.364 38.2312 65.502 38.0392 65.718C37.8592 65.922 37.6792 66.198 37.4992 66.546C37.3192 66.882 37.1272 67.368 36.9232 68.004C36.7312 68.64 36.5512 69.372 36.3832 70.2L36.2212 71.082C36.1372 71.418 35.9332 71.622 35.6092 71.694L33.5212 72.18C33.3412 72.216 33.2032 72.174 33.1072 72.054C33.0112 71.934 32.9812 71.772 33.0172 71.568L33.7732 67.716C33.8932 67.08 33.9592 66.582 33.9712 66.222C33.9952 65.85 33.9712 65.592 33.8992 65.448C33.8272 65.292 33.7012 65.214 33.5212 65.214C33.4132 65.214 33.2992 65.244 33.1792 65.304C33.0592 65.364 32.9092 65.502 32.7292 65.718C32.5492 65.922 32.3752 66.198 32.2072 66.546C32.0512 66.882 31.8772 67.368 31.6852 68.004C31.4932 68.628 31.3132 69.36 31.1452 70.2L30.9652 71.082C30.8932 71.418 30.6892 71.622 30.3532 71.694L28.2832 72.18C28.1032 72.216 27.9592 72.174 27.8512 72.054C27.7552 71.934 27.7252 71.772 27.7612 71.568L28.6252 66.348C28.6732 66.084 28.6612 65.874 28.5892 65.718C28.5292 65.55 28.4392 65.448 28.3192 65.412C28.2112 65.364 28.1092 65.292 28.0132 65.196C27.9172 65.1 27.8692 64.98 27.8692 64.836C27.8692 64.656 27.9772 64.476 28.1932 64.296C28.4092 64.116 28.8652 63.882 29.5612 63.594C30.3292 63.306 30.8692 63.162 31.1812 63.162C31.6372 63.162 31.8412 63.39 31.7932 63.846L31.6492 64.98C32.0932 64.356 32.5912 63.9 33.1432 63.612C33.7072 63.312 34.2472 63.162 34.7632 63.162C35.3392 63.162 35.8252 63.318 36.2212 63.63C36.6172 63.93 36.8932 64.344 37.0492 64.872C37.4332 64.32 37.9072 63.9 38.4712 63.612C39.0352 63.312 39.6172 63.162 40.2172 63.162C41.0212 63.162 41.6332 63.522 42.0532 64.242C42.4852 64.95 42.5932 65.832 42.3772 66.888L41.9092 69.066C41.8372 69.426 41.8132 69.672 41.8372 69.804C41.8612 69.936 41.9392 70.002 42.0712 70.002C42.1912 70.002 42.3352 69.912 42.5032 69.732C42.6832 69.552 42.8212 69.462 42.9172 69.462ZM51.0685 65.484C51.7645 65.484 52.3465 65.7 52.8145 66.132C53.2825 66.552 53.5165 67.098 53.5165 67.77C53.5165 68.658 53.2465 69.45 52.7065 70.146C52.1785 70.842 51.5365 71.358 50.7805 71.694C50.0365 72.018 49.2805 72.18 48.5125 72.18C47.2645 72.18 46.3525 71.892 45.7765 71.316C45.2005 70.728 45.0085 69.858 45.2005 68.706L45.5965 66.312C45.6805 65.808 45.5725 65.496 45.2725 65.376C44.9845 65.208 44.8405 65.028 44.8405 64.836C44.8405 64.716 44.8705 64.608 44.9305 64.512C44.9905 64.404 45.1525 64.266 45.4165 64.098C45.6805 63.93 46.0525 63.762 46.5325 63.594C47.3605 63.306 48.0385 63.162 48.5665 63.162C49.0105 63.162 49.1905 63.39 49.1065 63.846L48.7105 66.402C49.4185 65.79 50.2045 65.484 51.0685 65.484ZM58.7005 69.948C58.7125 70.44 58.4425 70.938 57.8905 71.442C57.3505 71.934 56.6305 72.18 55.7305 72.18C55.1185 72.18 54.6385 71.976 54.2905 71.568C53.9425 71.148 53.8345 70.512 53.9665 69.66L54.7405 64.332C54.7885 63.984 54.9925 63.768 55.3525 63.684L57.4045 63.198C57.5725 63.162 57.7045 63.204 57.8005 63.324C57.9085 63.444 57.9505 63.6 57.9265 63.792L57.1705 69.066C57.0865 69.678 57.2005 69.984 57.5125 69.984C57.6325 69.984 57.7765 69.9 57.9445 69.732C58.1125 69.564 58.2445 69.48 58.3405 69.48C58.5805 69.48 58.7005 69.636 58.7005 69.948ZM50.3665 68.274C50.3905 67.614 50.1805 67.284 49.7365 67.284C49.3525 67.284 49.0165 67.578 48.7285 68.166C48.4405 68.754 48.3025 69.312 48.3145 69.84C48.3265 70.116 48.3925 70.35 48.5125 70.542C48.6325 70.722 48.8065 70.806 49.0345 70.794C49.3945 70.794 49.7065 70.524 49.9705 69.984C50.2345 69.444 50.3665 68.874 50.3665 68.274ZM67.5939 72.144C66.7539 72.144 66.1659 71.964 65.8299 71.604C65.5059 71.244 65.2479 70.596 65.0559 69.66C65.0439 69.588 65.0199 69.456 64.9839 69.264C64.9599 69.072 64.9299 68.934 64.8939 68.85C64.8699 68.766 64.8279 68.664 64.7679 68.544C64.7079 68.412 64.6179 68.322 64.4979 68.274C64.3899 68.226 64.2459 68.202 64.0659 68.202C63.9579 68.202 63.8799 68.238 63.8319 68.31C63.7959 68.37 63.7599 68.514 63.7239 68.742L63.6519 69.354C63.6159 69.594 63.6039 69.804 63.6159 69.984C63.6279 70.272 63.7419 70.53 63.9579 70.758C64.1859 70.974 64.2819 71.208 64.2459 71.46C64.1979 71.82 63.8859 72 63.3099 72H60.0699C59.7459 72 59.5179 71.958 59.3859 71.874C59.2419 71.79 59.1819 71.64 59.2059 71.424C59.2299 71.232 59.3139 71.082 59.4579 70.974C59.5899 70.854 59.7399 70.722 59.9079 70.578C60.0759 70.422 60.2019 70.224 60.2859 69.984C60.3579 69.672 60.4059 69.462 60.4299 69.354L60.8799 66.006C60.9159 65.766 60.9279 65.55 60.9159 65.358C60.9039 65.07 60.7839 64.818 60.5559 64.602C60.3399 64.386 60.2499 64.152 60.2859 63.9C60.3339 63.54 60.6459 63.36 61.2219 63.36H64.4619C64.7859 63.36 65.0139 63.402 65.1459 63.486C65.2899 63.57 65.3499 63.714 65.3259 63.918C65.2899 64.146 65.1219 64.374 64.8219 64.602C64.5339 64.818 64.3419 65.07 64.2459 65.358C64.1619 65.73 64.1139 65.946 64.1019 66.006L64.0479 66.492C64.0239 66.66 64.0299 66.762 64.0659 66.798C64.1019 66.834 64.1979 66.852 64.3539 66.852H64.5339C64.8099 66.852 65.0619 66.726 65.2899 66.474C65.5299 66.222 65.7459 65.916 65.9379 65.556C66.1299 65.196 66.3399 64.836 66.5679 64.476C66.7959 64.116 67.0959 63.81 67.4679 63.558C67.8399 63.306 68.2659 63.18 68.7459 63.18C69.2379 63.18 69.6279 63.33 69.9159 63.63C70.2039 63.93 70.3059 64.356 70.2219 64.908C70.1739 65.328 70.0179 65.658 69.7539 65.898C69.5019 66.138 69.2139 66.258 68.8899 66.258C68.7219 66.258 68.5779 66.216 68.4579 66.132C68.3499 66.036 68.2719 65.94 68.2239 65.844C68.1879 65.736 68.1279 65.64 68.0439 65.556C67.9719 65.46 67.8819 65.412 67.7739 65.412C67.6059 65.412 67.4319 65.55 67.2519 65.826C67.0839 66.102 66.8739 66.426 66.6219 66.798C66.3699 67.17 66.0939 67.434 65.7939 67.59C66.4899 67.65 67.0059 67.842 67.3419 68.166C67.6779 68.478 67.9359 68.952 68.1159 69.588C68.1999 69.876 68.2839 70.11 68.3679 70.29C68.4519 70.47 68.5479 70.596 68.6559 70.668C68.7639 70.74 68.8479 70.788 68.9079 70.812C68.9799 70.824 69.0879 70.83 69.2319 70.83C69.4959 70.854 69.6159 71.01 69.5919 71.298C69.5559 71.538 69.3579 71.742 68.9979 71.91C68.6499 72.066 68.1819 72.144 67.5939 72.144ZM81.8797 69.948C81.8917 70.44 81.6277 70.938 81.0877 71.442C80.5597 71.934 79.8577 72.18 78.9817 72.18C78.5377 72.18 78.1477 72.066 77.8117 71.838C77.4877 71.598 77.2777 71.238 77.1817 70.758C76.3897 71.706 75.4477 72.18 74.3557 72.18C73.4557 72.18 72.7237 71.874 72.1597 71.262C71.5957 70.65 71.3137 69.864 71.3137 68.904C71.3137 67.32 71.8717 65.97 72.9877 64.854C74.1037 63.738 75.3277 63.18 76.6597 63.18C77.0917 63.18 77.5057 63.246 77.9017 63.378C78.3097 63.498 78.5497 63.558 78.6217 63.558C78.7537 63.558 79.0357 63.486 79.4677 63.342C79.9117 63.198 80.2237 63.126 80.4037 63.126C80.6437 63.126 80.8237 63.204 80.9437 63.36C81.0637 63.516 81.1117 63.69 81.0877 63.882L80.3317 69.066C80.2477 69.678 80.3617 69.984 80.6737 69.984C80.7937 69.984 80.9377 69.9 81.1057 69.732C81.2857 69.564 81.4237 69.48 81.5197 69.48C81.7597 69.48 81.8797 69.636 81.8797 69.948ZM75.4897 70.182C75.9817 70.182 76.3897 69.87 76.7137 69.246C77.0377 68.622 77.2717 67.842 77.4157 66.906C77.6557 65.31 77.3617 64.512 76.5337 64.512C75.9337 64.512 75.4597 64.902 75.1117 65.682C74.7757 66.45 74.5957 67.38 74.5717 68.472C74.5597 68.964 74.6317 69.372 74.7877 69.696C74.9437 70.02 75.1777 70.182 75.4897 70.182ZM90.8541 69.354C91.1061 69.174 91.3221 69.144 91.5021 69.264C91.6941 69.384 91.7061 69.582 91.5381 69.858C91.1301 70.542 90.5481 71.1 89.7921 71.532C89.0481 71.964 88.1901 72.18 87.2181 72.18C85.9581 72.18 84.9861 71.85 84.3021 71.19C83.6301 70.53 83.2941 69.624 83.2941 68.472C83.2941 67.044 83.8101 65.808 84.8421 64.764C85.8861 63.708 87.1401 63.18 88.6041 63.18C89.5641 63.18 90.3321 63.414 90.9081 63.882C91.4841 64.338 91.7721 64.908 91.7721 65.592C91.7721 66.264 91.4901 66.858 90.9261 67.374C90.3741 67.878 89.7081 68.244 88.9281 68.472C88.1601 68.688 87.3861 68.778 86.6061 68.742C86.9061 69.606 87.5841 70.038 88.6401 70.038C89.4921 70.038 90.2301 69.81 90.8541 69.354ZM88.2621 64.566C87.6741 64.566 87.2181 64.848 86.8941 65.412C86.5701 65.976 86.4081 66.558 86.4081 67.158C86.4081 67.338 86.5101 67.428 86.7141 67.428C87.3501 67.452 87.9441 67.29 88.4961 66.942C89.0601 66.582 89.3301 66.114 89.3061 65.538C89.2941 65.274 89.1981 65.046 89.0181 64.854C88.8381 64.662 88.5861 64.566 88.2621 64.566ZM94.3945 72.18C93.9505 72.18 93.5425 72.054 93.1705 71.802C92.8105 71.55 92.6665 71.148 92.7385 70.596C92.7985 70.236 92.9485 69.936 93.1885 69.696C93.4405 69.456 93.7045 69.336 93.9805 69.336C94.2085 69.336 94.3885 69.39 94.5205 69.498C94.6645 69.606 94.7545 69.726 94.7905 69.858C94.8385 69.978 94.9045 70.092 94.9885 70.2C95.0725 70.308 95.1805 70.362 95.3125 70.362C95.5885 70.362 95.8585 69.882 96.1225 68.922C96.3865 67.962 96.5785 67.104 96.6985 66.348C96.7825 65.808 96.6805 65.478 96.3925 65.358C96.1165 65.214 95.9725 65.034 95.9605 64.818C95.9605 64.698 95.9845 64.59 96.0325 64.494C96.0925 64.398 96.2545 64.266 96.5185 64.098C96.7945 63.93 97.1845 63.756 97.6885 63.576C98.5165 63.3 99.2545 63.162 99.9025 63.162C100.251 63.162 100.449 63.396 100.497 63.864C100.629 65.052 100.881 66.36 101.253 67.788L103.017 64.458C103.041 64.398 103.077 64.332 103.125 64.26C103.185 64.176 103.275 64.08 103.395 63.972C103.527 63.864 103.671 63.78 103.827 63.72C104.607 63.384 105.417 63.204 106.257 63.18C106.437 63.168 106.575 63.216 106.671 63.324C106.767 63.432 106.803 63.582 106.779 63.774L106.059 69.03C106.011 69.39 106.011 69.642 106.059 69.786C106.107 69.918 106.203 69.984 106.347 69.984C106.467 69.984 106.611 69.9 106.779 69.732C106.947 69.564 107.079 69.48 107.175 69.48C107.415 69.48 107.535 69.636 107.535 69.948C107.547 70.44 107.277 70.938 106.725 71.442C106.185 71.934 105.465 72.18 104.565 72.18C103.101 72.18 102.501 71.322 102.765 69.606L103.233 66.582L101.109 70.632C100.917 70.944 100.557 71.178 100.029 71.334C99.3805 71.514 98.9785 71.382 98.8225 70.938C98.4025 69.558 98.1145 68.13 97.9585 66.654C97.8145 67.422 97.5145 68.61 97.0585 70.218C96.5185 71.526 95.6305 72.18 94.3945 72.18ZM111.025 67.716C110.845 67.716 110.731 67.674 110.683 67.59C110.635 67.494 110.623 67.308 110.647 67.032C110.695 66.288 110.617 65.232 110.413 63.864C110.221 62.484 110.155 61.578 110.215 61.146C110.299 60.558 110.527 60.09 110.899 59.742C111.283 59.394 111.721 59.22 112.213 59.22C112.717 59.22 113.113 59.4 113.401 59.76C113.689 60.108 113.791 60.57 113.707 61.146C113.647 61.59 113.323 62.502 112.735 63.882C112.147 65.25 111.769 66.3 111.601 67.032C111.553 67.308 111.493 67.494 111.421 67.59C111.349 67.674 111.217 67.716 111.025 67.716ZM110.521 72.252C110.089 72.252 109.729 72.126 109.441 71.874C109.165 71.61 109.027 71.238 109.027 70.758C109.027 70.194 109.219 69.738 109.603 69.39C109.999 69.042 110.449 68.868 110.953 68.868C111.373 68.868 111.721 69.006 111.997 69.282C112.285 69.546 112.429 69.918 112.429 70.398C112.429 70.962 112.237 71.412 111.853 71.748C111.481 72.084 111.037 72.252 110.521 72.252Z" fill="#FFC6F9"/>
</svg>
