<svg width="161" height="69" viewBox="0 0 161 69" fill="none" xmlns="http://www.w3.org/2000/svg">
<path d="M120.296 54.6766C129.486 66.9993 153.144 50.6019 160.296 43.6364C138.735 44.6528 121.857 29.5036 116.114 21.8019C116.032 25.7767 111.107 42.354 120.296 54.6766Z" fill="#FFC6F9"/>
<rect x="1.5" y="1.5" width="137" height="66" rx="33" fill="#6932FF" stroke="#FFC6F9" stroke-width="3"/>
<path d="M51.2591 28H47.5151C47.1071 28 46.8251 27.952 46.6691 27.856C46.5131 27.76 46.4531 27.592 46.4891 27.352C46.5251 27.112 46.6211 26.914 46.7771 26.758C46.9331 26.59 47.0951 26.458 47.2631 26.362C47.4431 26.254 47.6231 26.05 47.8031 25.75C47.9831 25.438 48.1091 25.03 48.1811 24.526L48.9371 19.036C49.0091 18.52 49.0211 18.124 48.9731 17.848C48.9251 17.572 48.8471 17.35 48.7391 17.182C48.6311 17.014 48.5171 16.894 48.3971 16.822C48.2891 16.738 48.1991 16.636 48.1271 16.516C48.0551 16.396 48.0371 16.24 48.0731 16.048C48.1091 15.808 48.2171 15.64 48.3971 15.544C48.5771 15.448 48.8711 15.4 49.2791 15.4H53.4371C55.3451 15.4 56.7851 15.838 57.7571 16.714C58.7291 17.59 59.1011 18.796 58.8731 20.332C58.4891 22.996 56.4371 24.328 52.7171 24.328H51.9971C51.7451 24.328 51.6011 24.448 51.5651 24.688C51.5411 25.012 51.5351 25.24 51.5471 25.372C51.5471 25.624 51.5831 25.834 51.6551 26.002C51.7271 26.17 51.8111 26.296 51.9071 26.38C52.0031 26.452 52.0991 26.524 52.1951 26.596C52.2911 26.668 52.3631 26.764 52.4111 26.884C52.4711 27.004 52.4891 27.16 52.4651 27.352C52.4171 27.592 52.3091 27.76 52.1411 27.856C51.9731 27.952 51.6791 28 51.2591 28ZM52.7171 22.942C53.4851 22.942 54.1031 22.72 54.5711 22.276C55.0511 21.832 55.3391 21.268 55.4351 20.584C55.6151 19.372 55.4651 18.43 54.9851 17.758C54.5171 17.086 53.9291 16.75 53.2211 16.75C53.0051 16.75 52.8551 16.786 52.7711 16.858C52.6871 16.918 52.6331 17.044 52.6091 17.236L51.9071 22.294C51.8471 22.726 52.1171 22.942 52.7171 22.942ZM70.52 25.948C70.532 26.44 70.268 26.938 69.728 27.442C69.2 27.934 68.498 28.18 67.622 28.18C67.178 28.18 66.788 28.066 66.452 27.838C66.128 27.598 65.918 27.238 65.822 26.758C65.03 27.706 64.088 28.18 62.996 28.18C62.096 28.18 61.364 27.874 60.8 27.262C60.236 26.65 59.954 25.864 59.954 24.904C59.954 23.32 60.512 21.97 61.628 20.854C62.744 19.738 63.968 19.18 65.3 19.18C65.732 19.18 66.146 19.246 66.542 19.378C66.95 19.498 67.19 19.558 67.262 19.558C67.394 19.558 67.676 19.486 68.108 19.342C68.552 19.198 68.864 19.126 69.044 19.126C69.284 19.126 69.464 19.204 69.584 19.36C69.704 19.516 69.752 19.69 69.728 19.882L68.972 25.066C68.888 25.678 69.002 25.984 69.314 25.984C69.434 25.984 69.578 25.9 69.746 25.732C69.926 25.564 70.064 25.48 70.16 25.48C70.4 25.48 70.52 25.636 70.52 25.948ZM64.13 26.182C64.622 26.182 65.03 25.87 65.354 25.246C65.678 24.622 65.912 23.842 66.056 22.906C66.296 21.31 66.002 20.512 65.174 20.512C64.574 20.512 64.1 20.902 63.752 21.682C63.416 22.45 63.236 23.38 63.212 24.472C63.2 24.964 63.272 25.372 63.428 25.696C63.584 26.02 63.818 26.182 64.13 26.182ZM82.51 25.48C82.75 25.48 82.87 25.636 82.87 25.948C82.87 26.44 82.594 26.938 82.042 27.442C81.502 27.934 80.782 28.18 79.882 28.18C79.27 28.18 78.79 27.976 78.442 27.568C78.106 27.148 78.004 26.512 78.136 25.66L78.352 24.166H75.796L75.418 27.064C75.37 27.412 75.172 27.622 74.824 27.694L72.736 28.18C72.568 28.216 72.43 28.174 72.322 28.054C72.226 27.934 72.196 27.772 72.232 27.568L72.934 22.366C72.97 22.102 72.952 21.892 72.88 21.736C72.82 21.568 72.736 21.466 72.628 21.43C72.52 21.382 72.418 21.31 72.322 21.214C72.226 21.118 72.178 20.998 72.178 20.854C72.178 20.662 72.274 20.482 72.466 20.314C72.67 20.134 73.066 19.936 73.654 19.72C74.614 19.372 75.34 19.198 75.832 19.198C76.252 19.198 76.432 19.414 76.372 19.846L75.976 22.834H78.55L78.91 20.332C78.958 19.972 79.156 19.756 79.504 19.684L81.556 19.198C81.736 19.162 81.874 19.204 81.97 19.324C82.066 19.444 82.102 19.6 82.078 19.792L81.34 25.066C81.232 25.678 81.34 25.984 81.664 25.984C81.784 25.984 81.928 25.9 82.096 25.732C82.276 25.564 82.414 25.48 82.51 25.48ZM88.6358 28.198C87.3038 28.198 86.2658 27.856 85.5218 27.172C84.7778 26.476 84.4058 25.522 84.4058 24.31C84.4058 22.882 84.9518 21.67 86.0438 20.674C87.1358 19.666 88.4318 19.162 89.9318 19.162C91.2158 19.162 92.2298 19.516 92.9738 20.224C93.7178 20.932 94.0898 21.85 94.0898 22.978C94.0898 24.514 93.5678 25.768 92.5238 26.74C91.4798 27.712 90.1838 28.198 88.6358 28.198ZM88.7438 26.776C89.2958 26.776 89.7458 26.326 90.0938 25.426C90.4418 24.514 90.6158 23.572 90.6158 22.6C90.6158 21.244 90.2798 20.566 89.6078 20.566C89.0318 20.566 88.5698 20.998 88.2218 21.862C87.8858 22.714 87.7058 23.656 87.6818 24.688C87.7178 26.08 88.0718 26.776 88.7438 26.776ZM42.9172 48.462C43.1572 48.462 43.2772 48.612 43.2772 48.912C43.2772 49.428 43.0072 49.938 42.4672 50.442C41.9392 50.934 41.2252 51.18 40.3252 51.18C39.7252 51.18 39.2632 50.97 38.9392 50.55C38.6272 50.13 38.5432 49.488 38.6872 48.624L39.0292 46.716C39.2212 45.756 39.3112 45.102 39.2992 44.754C39.2992 44.394 39.1552 44.214 38.8672 44.214C38.7592 44.214 38.6392 44.244 38.5072 44.304C38.3872 44.364 38.2312 44.502 38.0392 44.718C37.8592 44.922 37.6792 45.198 37.4992 45.546C37.3192 45.882 37.1272 46.368 36.9232 47.004C36.7312 47.64 36.5512 48.372 36.3832 49.2L36.2212 50.082C36.1372 50.418 35.9332 50.622 35.6092 50.694L33.5212 51.18C33.3412 51.216 33.2032 51.174 33.1072 51.054C33.0112 50.934 32.9812 50.772 33.0172 50.568L33.7732 46.716C33.8932 46.08 33.9592 45.582 33.9712 45.222C33.9952 44.85 33.9712 44.592 33.8992 44.448C33.8272 44.292 33.7012 44.214 33.5212 44.214C33.4132 44.214 33.2992 44.244 33.1792 44.304C33.0592 44.364 32.9092 44.502 32.7292 44.718C32.5492 44.922 32.3752 45.198 32.2072 45.546C32.0512 45.882 31.8772 46.368 31.6852 47.004C31.4932 47.628 31.3132 48.36 31.1452 49.2L30.9652 50.082C30.8932 50.418 30.6892 50.622 30.3532 50.694L28.2832 51.18C28.1032 51.216 27.9592 51.174 27.8512 51.054C27.7552 50.934 27.7252 50.772 27.7612 50.568L28.6252 45.348C28.6732 45.084 28.6612 44.874 28.5892 44.718C28.5292 44.55 28.4392 44.448 28.3192 44.412C28.2112 44.364 28.1092 44.292 28.0132 44.196C27.9172 44.1 27.8692 43.98 27.8692 43.836C27.8692 43.656 27.9772 43.476 28.1932 43.296C28.4092 43.116 28.8652 42.882 29.5612 42.594C30.3292 42.306 30.8692 42.162 31.1812 42.162C31.6372 42.162 31.8412 42.39 31.7932 42.846L31.6492 43.98C32.0932 43.356 32.5912 42.9 33.1432 42.612C33.7072 42.312 34.2472 42.162 34.7632 42.162C35.3392 42.162 35.8252 42.318 36.2212 42.63C36.6172 42.93 36.8932 43.344 37.0492 43.872C37.4332 43.32 37.9072 42.9 38.4712 42.612C39.0352 42.312 39.6172 42.162 40.2172 42.162C41.0212 42.162 41.6332 42.522 42.0532 43.242C42.4852 43.95 42.5932 44.832 42.3772 45.888L41.9092 48.066C41.8372 48.426 41.8132 48.672 41.8372 48.804C41.8612 48.936 41.9392 49.002 42.0712 49.002C42.1912 49.002 42.3352 48.912 42.5032 48.732C42.6832 48.552 42.8212 48.462 42.9172 48.462ZM51.0685 44.484C51.7645 44.484 52.3465 44.7 52.8145 45.132C53.2825 45.552 53.5165 46.098 53.5165 46.77C53.5165 47.658 53.2465 48.45 52.7065 49.146C52.1785 49.842 51.5365 50.358 50.7805 50.694C50.0365 51.018 49.2805 51.18 48.5125 51.18C47.2645 51.18 46.3525 50.892 45.7765 50.316C45.2005 49.728 45.0085 48.858 45.2005 47.706L45.5965 45.312C45.6805 44.808 45.5725 44.496 45.2725 44.376C44.9845 44.208 44.8405 44.028 44.8405 43.836C44.8405 43.716 44.8705 43.608 44.9305 43.512C44.9905 43.404 45.1525 43.266 45.4165 43.098C45.6805 42.93 46.0525 42.762 46.5325 42.594C47.3605 42.306 48.0385 42.162 48.5665 42.162C49.0105 42.162 49.1905 42.39 49.1065 42.846L48.7105 45.402C49.4185 44.79 50.2045 44.484 51.0685 44.484ZM58.7005 48.948C58.7125 49.44 58.4425 49.938 57.8905 50.442C57.3505 50.934 56.6305 51.18 55.7305 51.18C55.1185 51.18 54.6385 50.976 54.2905 50.568C53.9425 50.148 53.8345 49.512 53.9665 48.66L54.7405 43.332C54.7885 42.984 54.9925 42.768 55.3525 42.684L57.4045 42.198C57.5725 42.162 57.7045 42.204 57.8005 42.324C57.9085 42.444 57.9505 42.6 57.9265 42.792L57.1705 48.066C57.0865 48.678 57.2005 48.984 57.5125 48.984C57.6325 48.984 57.7765 48.9 57.9445 48.732C58.1125 48.564 58.2445 48.48 58.3405 48.48C58.5805 48.48 58.7005 48.636 58.7005 48.948ZM50.3665 47.274C50.3905 46.614 50.1805 46.284 49.7365 46.284C49.3525 46.284 49.0165 46.578 48.7285 47.166C48.4405 47.754 48.3025 48.312 48.3145 48.84C48.3265 49.116 48.3925 49.35 48.5125 49.542C48.6325 49.722 48.8065 49.806 49.0345 49.794C49.3945 49.794 49.7065 49.524 49.9705 48.984C50.2345 48.444 50.3665 47.874 50.3665 47.274ZM67.5939 51.144C66.7539 51.144 66.1659 50.964 65.8299 50.604C65.5059 50.244 65.2479 49.596 65.0559 48.66C65.0439 48.588 65.0199 48.456 64.9839 48.264C64.9599 48.072 64.9299 47.934 64.8939 47.85C64.8699 47.766 64.8279 47.664 64.7679 47.544C64.7079 47.412 64.6179 47.322 64.4979 47.274C64.3899 47.226 64.2459 47.202 64.0659 47.202C63.9579 47.202 63.8799 47.238 63.8319 47.31C63.7959 47.37 63.7599 47.514 63.7239 47.742L63.6519 48.354C63.6159 48.594 63.6039 48.804 63.6159 48.984C63.6279 49.272 63.7419 49.53 63.9579 49.758C64.1859 49.974 64.2819 50.208 64.2459 50.46C64.1979 50.82 63.8859 51 63.3099 51H60.0699C59.7459 51 59.5179 50.958 59.3859 50.874C59.2419 50.79 59.1819 50.64 59.2059 50.424C59.2299 50.232 59.3139 50.082 59.4579 49.974C59.5899 49.854 59.7399 49.722 59.9079 49.578C60.0759 49.422 60.2019 49.224 60.2859 48.984C60.3579 48.672 60.4059 48.462 60.4299 48.354L60.8799 45.006C60.9159 44.766 60.9279 44.55 60.9159 44.358C60.9039 44.07 60.7839 43.818 60.5559 43.602C60.3399 43.386 60.2499 43.152 60.2859 42.9C60.3339 42.54 60.6459 42.36 61.2219 42.36H64.4619C64.7859 42.36 65.0139 42.402 65.1459 42.486C65.2899 42.57 65.3499 42.714 65.3259 42.918C65.2899 43.146 65.1219 43.374 64.8219 43.602C64.5339 43.818 64.3419 44.07 64.2459 44.358C64.1619 44.73 64.1139 44.946 64.1019 45.006L64.0479 45.492C64.0239 45.66 64.0299 45.762 64.0659 45.798C64.1019 45.834 64.1979 45.852 64.3539 45.852H64.5339C64.8099 45.852 65.0619 45.726 65.2899 45.474C65.5299 45.222 65.7459 44.916 65.9379 44.556C66.1299 44.196 66.3399 43.836 66.5679 43.476C66.7959 43.116 67.0959 42.81 67.4679 42.558C67.8399 42.306 68.2659 42.18 68.7459 42.18C69.2379 42.18 69.6279 42.33 69.9159 42.63C70.2039 42.93 70.3059 43.356 70.2219 43.908C70.1739 44.328 70.0179 44.658 69.7539 44.898C69.5019 45.138 69.2139 45.258 68.8899 45.258C68.7219 45.258 68.5779 45.216 68.4579 45.132C68.3499 45.036 68.2719 44.94 68.2239 44.844C68.1879 44.736 68.1279 44.64 68.0439 44.556C67.9719 44.46 67.8819 44.412 67.7739 44.412C67.6059 44.412 67.4319 44.55 67.2519 44.826C67.0839 45.102 66.8739 45.426 66.6219 45.798C66.3699 46.17 66.0939 46.434 65.7939 46.59C66.4899 46.65 67.0059 46.842 67.3419 47.166C67.6779 47.478 67.9359 47.952 68.1159 48.588C68.1999 48.876 68.2839 49.11 68.3679 49.29C68.4519 49.47 68.5479 49.596 68.6559 49.668C68.7639 49.74 68.8479 49.788 68.9079 49.812C68.9799 49.824 69.0879 49.83 69.2319 49.83C69.4959 49.854 69.6159 50.01 69.5919 50.298C69.5559 50.538 69.3579 50.742 68.9979 50.91C68.6499 51.066 68.1819 51.144 67.5939 51.144ZM81.8797 48.948C81.8917 49.44 81.6277 49.938 81.0877 50.442C80.5597 50.934 79.8577 51.18 78.9817 51.18C78.5377 51.18 78.1477 51.066 77.8117 50.838C77.4877 50.598 77.2777 50.238 77.1817 49.758C76.3897 50.706 75.4477 51.18 74.3557 51.18C73.4557 51.18 72.7237 50.874 72.1597 50.262C71.5957 49.65 71.3137 48.864 71.3137 47.904C71.3137 46.32 71.8717 44.97 72.9877 43.854C74.1037 42.738 75.3277 42.18 76.6597 42.18C77.0917 42.18 77.5057 42.246 77.9017 42.378C78.3097 42.498 78.5497 42.558 78.6217 42.558C78.7537 42.558 79.0357 42.486 79.4677 42.342C79.9117 42.198 80.2237 42.126 80.4037 42.126C80.6437 42.126 80.8237 42.204 80.9437 42.36C81.0637 42.516 81.1117 42.69 81.0877 42.882L80.3317 48.066C80.2477 48.678 80.3617 48.984 80.6737 48.984C80.7937 48.984 80.9377 48.9 81.1057 48.732C81.2857 48.564 81.4237 48.48 81.5197 48.48C81.7597 48.48 81.8797 48.636 81.8797 48.948ZM75.4897 49.182C75.9817 49.182 76.3897 48.87 76.7137 48.246C77.0377 47.622 77.2717 46.842 77.4157 45.906C77.6557 44.31 77.3617 43.512 76.5337 43.512C75.9337 43.512 75.4597 43.902 75.1117 44.682C74.7757 45.45 74.5957 46.38 74.5717 47.472C74.5597 47.964 74.6317 48.372 74.7877 48.696C74.9437 49.02 75.1777 49.182 75.4897 49.182ZM90.8541 48.354C91.1061 48.174 91.3221 48.144 91.5021 48.264C91.6941 48.384 91.7061 48.582 91.5381 48.858C91.1301 49.542 90.5481 50.1 89.7921 50.532C89.0481 50.964 88.1901 51.18 87.2181 51.18C85.9581 51.18 84.9861 50.85 84.3021 50.19C83.6301 49.53 83.2941 48.624 83.2941 47.472C83.2941 46.044 83.8101 44.808 84.8421 43.764C85.8861 42.708 87.1401 42.18 88.6041 42.18C89.5641 42.18 90.3321 42.414 90.9081 42.882C91.4841 43.338 91.7721 43.908 91.7721 44.592C91.7721 45.264 91.4901 45.858 90.9261 46.374C90.3741 46.878 89.7081 47.244 88.9281 47.472C88.1601 47.688 87.3861 47.778 86.6061 47.742C86.9061 48.606 87.5841 49.038 88.6401 49.038C89.4921 49.038 90.2301 48.81 90.8541 48.354ZM88.2621 43.566C87.6741 43.566 87.2181 43.848 86.8941 44.412C86.5701 44.976 86.4081 45.558 86.4081 46.158C86.4081 46.338 86.5101 46.428 86.7141 46.428C87.3501 46.452 87.9441 46.29 88.4961 45.942C89.0601 45.582 89.3301 45.114 89.3061 44.538C89.2941 44.274 89.1981 44.046 89.0181 43.854C88.8381 43.662 88.5861 43.566 88.2621 43.566ZM94.3945 51.18C93.9505 51.18 93.5425 51.054 93.1705 50.802C92.8105 50.55 92.6665 50.148 92.7385 49.596C92.7985 49.236 92.9485 48.936 93.1885 48.696C93.4405 48.456 93.7045 48.336 93.9805 48.336C94.2085 48.336 94.3885 48.39 94.5205 48.498C94.6645 48.606 94.7545 48.726 94.7905 48.858C94.8385 48.978 94.9045 49.092 94.9885 49.2C95.0725 49.308 95.1805 49.362 95.3125 49.362C95.5885 49.362 95.8585 48.882 96.1225 47.922C96.3865 46.962 96.5785 46.104 96.6985 45.348C96.7825 44.808 96.6805 44.478 96.3925 44.358C96.1165 44.214 95.9725 44.034 95.9605 43.818C95.9605 43.698 95.9845 43.59 96.0325 43.494C96.0925 43.398 96.2545 43.266 96.5185 43.098C96.7945 42.93 97.1845 42.756 97.6885 42.576C98.5165 42.3 99.2545 42.162 99.9025 42.162C100.251 42.162 100.449 42.396 100.497 42.864C100.629 44.052 100.881 45.36 101.253 46.788L103.017 43.458C103.041 43.398 103.077 43.332 103.125 43.26C103.185 43.176 103.275 43.08 103.395 42.972C103.527 42.864 103.671 42.78 103.827 42.72C104.607 42.384 105.417 42.204 106.257 42.18C106.437 42.168 106.575 42.216 106.671 42.324C106.767 42.432 106.803 42.582 106.779 42.774L106.059 48.03C106.011 48.39 106.011 48.642 106.059 48.786C106.107 48.918 106.203 48.984 106.347 48.984C106.467 48.984 106.611 48.9 106.779 48.732C106.947 48.564 107.079 48.48 107.175 48.48C107.415 48.48 107.535 48.636 107.535 48.948C107.547 49.44 107.277 49.938 106.725 50.442C106.185 50.934 105.465 51.18 104.565 51.18C103.101 51.18 102.501 50.322 102.765 48.606L103.233 45.582L101.109 49.632C100.917 49.944 100.557 50.178 100.029 50.334C99.3805 50.514 98.9785 50.382 98.8225 49.938C98.4025 48.558 98.1145 47.13 97.9585 45.654C97.8145 46.422 97.5145 47.61 97.0585 49.218C96.5185 50.526 95.6305 51.18 94.3945 51.18ZM111.025 46.716C110.845 46.716 110.731 46.674 110.683 46.59C110.635 46.494 110.623 46.308 110.647 46.032C110.695 45.288 110.617 44.232 110.413 42.864C110.221 41.484 110.155 40.578 110.215 40.146C110.299 39.558 110.527 39.09 110.899 38.742C111.283 38.394 111.721 38.22 112.213 38.22C112.717 38.22 113.113 38.4 113.401 38.76C113.689 39.108 113.791 39.57 113.707 40.146C113.647 40.59 113.323 41.502 112.735 42.882C112.147 44.25 111.769 45.3 111.601 46.032C111.553 46.308 111.493 46.494 111.421 46.59C111.349 46.674 111.217 46.716 111.025 46.716ZM110.521 51.252C110.089 51.252 109.729 51.126 109.441 50.874C109.165 50.61 109.027 50.238 109.027 49.758C109.027 49.194 109.219 48.738 109.603 48.39C109.999 48.042 110.449 47.868 110.953 47.868C111.373 47.868 111.721 48.006 111.997 48.282C112.285 48.546 112.429 48.918 112.429 49.398C112.429 49.962 112.237 50.412 111.853 50.748C111.481 51.084 111.037 51.252 110.521 51.252Z" fill="#FFC6F9"/>
</svg>
