<svg width="221" height="143" viewBox="0 0 221 143" fill="none" xmlns="http://www.w3.org/2000/svg">
<path d="M38.3541 42.155C23.8833 36.4624 33.3802 9.64215 38.2028 1.02717C43.0784 21.9489 62.3857 34.2951 71.4299 37.853C67.5906 38.9366 52.8248 47.8477 38.3541 42.155Z" fill="#FFC6F9"/>
<rect x="6.87744" y="35.1412" width="208.198" height="74" rx="37" fill="#6932FF" stroke="#FFC6F9" stroke-width="3"/>
<path d="M34.9933 62.1952H31.8973C31.6453 62.1952 31.4713 62.1532 31.3753 62.0692C31.2913 61.9852 31.2973 61.8352 31.3933 61.6192L31.5733 61.2232C31.6693 60.9952 31.7713 60.8392 31.8793 60.7552C31.9993 60.6712 32.1793 60.6292 32.4193 60.6292H35.5153C35.7673 60.6292 35.9353 60.6712 36.0193 60.7552C36.1153 60.8392 36.1153 60.9892 36.0193 61.2052L35.8393 61.6012C35.7433 61.8292 35.6353 61.9852 35.5153 62.0692C35.4073 62.1532 35.2333 62.1952 34.9933 62.1952ZM40.1472 66.6412H38.1852C37.8252 66.6412 37.5852 66.6052 37.4652 66.5332C37.3572 66.4492 37.3152 66.2992 37.3392 66.0832C37.3632 65.9152 37.4712 65.7592 37.6632 65.6152C37.8672 65.4592 38.0772 65.2792 38.2932 65.0752C38.5092 64.8592 38.6472 64.6072 38.7072 64.3192L40.1472 56.6872C40.2072 56.3992 40.1892 56.1592 40.0932 55.9672C40.0092 55.7752 39.8952 55.6432 39.7512 55.5712C39.6192 55.4872 39.4992 55.3732 39.3912 55.2292C39.2832 55.0732 39.2412 54.8932 39.2652 54.6892C39.3132 54.4492 39.4212 54.2812 39.5892 54.1852C39.7692 54.0892 40.0392 54.0412 40.3992 54.0412H43.1352C43.5432 54.0412 43.8132 54.2332 43.9452 54.6172L45.8712 61.0792L49.8672 54.6352C50.1192 54.2392 50.4372 54.0412 50.8212 54.0412H53.4312C53.8032 54.0412 54.0612 54.0892 54.2052 54.1852C54.3492 54.2812 54.4032 54.4492 54.3672 54.6892C54.3312 54.8932 54.2412 55.0732 54.0972 55.2292C53.9532 55.3732 53.8032 55.4872 53.6472 55.5712C53.4912 55.6432 53.3412 55.7752 53.1972 55.9672C53.0532 56.1592 52.9632 56.3992 52.9272 56.6872L52.2252 63.5812C52.1892 63.9172 52.2072 64.1932 52.2792 64.4092C52.3512 64.6132 52.4472 64.7632 52.5672 64.8592C52.6872 64.9552 52.8072 65.0452 52.9272 65.1292C53.0472 65.2012 53.1432 65.3092 53.2152 65.4532C53.2872 65.5852 53.3112 65.7652 53.2872 65.9932C53.2512 66.2332 53.1432 66.4012 52.9632 66.4972C52.7952 66.5932 52.4952 66.6412 52.0632 66.6412H48.4992C48.0912 66.6412 47.8092 66.5932 47.6532 66.4972C47.5092 66.4012 47.4552 66.2332 47.4912 65.9932C47.5272 65.7532 47.6112 65.5492 47.7432 65.3812C47.8752 65.2132 48.0132 65.0872 48.1572 65.0032C48.3132 64.9192 48.4632 64.7572 48.6072 64.5172C48.7512 64.2772 48.8472 63.9652 48.8952 63.5812L49.5792 58.1092L45.1872 65.3092C44.9832 65.6692 44.6832 65.8852 44.2872 65.9572C43.8792 66.0412 43.6212 65.9032 43.5132 65.5432L41.4252 58.2352L40.3992 64.3192C40.3392 64.6912 40.4412 65.0332 40.7052 65.3452C40.9812 65.6452 41.1012 65.8972 41.0652 66.1012C41.0412 66.3172 40.9572 66.4612 40.8132 66.5332C40.6812 66.6052 40.4592 66.6412 40.1472 66.6412ZM59.7477 66.8392C58.4157 66.8392 57.3777 66.4972 56.6337 65.8132C55.8897 65.1172 55.5177 64.1632 55.5177 62.9512C55.5177 61.5232 56.0637 60.3112 57.1557 59.3152C58.2477 58.3072 59.5437 57.8032 61.0437 57.8032C62.3277 57.8032 63.3417 58.1572 64.0857 58.8652C64.8297 59.5732 65.2017 60.4912 65.2017 61.6192C65.2017 63.1552 64.6797 64.4092 63.6357 65.3812C62.5917 66.3532 61.2957 66.8392 59.7477 66.8392ZM59.8557 65.4172C60.4077 65.4172 60.8577 64.9672 61.2057 64.0672C61.5537 63.1552 61.7277 62.2132 61.7277 61.2412C61.7277 59.8852 61.3917 59.2072 60.7197 59.2072C60.1437 59.2072 59.6817 59.6392 59.3337 60.5032C58.9977 61.3552 58.8177 62.2972 58.7937 63.3292C58.8297 64.7212 59.1837 65.4172 59.8557 65.4172ZM67.6569 66.7852C67.0569 66.7852 66.6069 66.7072 66.3069 66.5512C66.0069 66.3832 65.8749 66.1792 65.9109 65.9392C65.9109 65.8192 65.9589 65.7172 66.0549 65.6332C66.1509 65.5372 66.2649 65.4832 66.3969 65.4712C66.5889 65.4592 66.7329 65.4412 66.8289 65.4172C66.9249 65.3812 67.0629 65.2732 67.2429 65.0932C67.4349 64.9012 67.6389 64.6132 67.8549 64.2292C68.2269 63.5932 68.6229 63.1132 69.0429 62.7892C69.4749 62.4652 70.0449 62.2732 70.7529 62.2132C70.4289 61.9972 70.1589 61.5472 69.9429 60.8632C69.7749 60.3232 69.5829 60.0532 69.3669 60.0532C69.2229 60.0532 69.0309 60.1972 68.7909 60.4852C68.5509 60.7612 68.2929 60.8992 68.0169 60.8992C67.6929 60.8992 67.4409 60.7792 67.2609 60.5392C67.0809 60.2992 67.0149 59.9692 67.0629 59.5492C67.1349 58.9972 67.3569 58.5712 67.7289 58.2712C68.1009 57.9712 68.5389 57.8212 69.0429 57.8212C69.1989 57.8212 69.3429 57.8392 69.4749 57.8752C69.6189 57.8992 69.7389 57.9292 69.8349 57.9652C69.9429 58.0012 70.0449 58.0672 70.1409 58.1632C70.2489 58.2472 70.3329 58.3192 70.3929 58.3792C70.4529 58.4272 70.5189 58.5172 70.5909 58.6492C70.6629 58.7812 70.7169 58.8832 70.7529 58.9552C70.7889 59.0152 70.8309 59.1292 70.8789 59.2972C70.9389 59.4532 70.9749 59.5612 70.9869 59.6212C71.0109 59.6692 71.0469 59.7832 71.0949 59.9632C71.1429 60.1432 71.1729 60.2512 71.1849 60.2872C71.2809 60.6952 71.3829 61.0012 71.4909 61.2052C71.6109 61.3972 71.7909 61.4932 72.0309 61.4932H72.2109C72.3789 61.4932 72.4869 61.4752 72.5349 61.4392C72.5829 61.3912 72.6129 61.2892 72.6249 61.1332L72.6969 60.6472C72.7329 60.4072 72.7449 60.1912 72.7329 59.9992C72.7209 59.7112 72.6009 59.4592 72.3729 59.2432C72.1569 59.0272 72.0669 58.7932 72.1029 58.5412C72.1269 58.3252 72.2109 58.1812 72.3549 58.1092C72.5109 58.0372 72.7389 58.0012 73.0389 58.0012H76.2789C76.5909 58.0012 76.8189 58.0432 76.9629 58.1272C77.1069 58.2112 77.1669 58.3552 77.1429 58.5592C77.1069 58.7872 76.9389 59.0152 76.6389 59.2432C76.3509 59.4592 76.1589 59.7112 76.0629 59.9992C75.9789 60.3712 75.9309 60.5872 75.9189 60.6472L75.8469 61.1332C75.8349 61.2892 75.8409 61.3912 75.8649 61.4392C75.9009 61.4752 75.9969 61.4932 76.1529 61.4932H76.3329C76.5729 61.4932 76.7829 61.3912 76.9629 61.1872C77.1429 60.9832 77.3469 60.6772 77.5749 60.2692C78.0429 59.4052 78.4149 58.8352 78.6909 58.5592C79.1589 58.0672 79.7229 57.8212 80.3829 57.8212C80.8749 57.8212 81.2649 57.9712 81.5529 58.2712C81.8409 58.5712 81.9489 58.9972 81.8769 59.5492C81.8289 59.9572 81.6729 60.2872 81.4089 60.5392C81.1449 60.7792 80.8509 60.8992 80.5269 60.8992C80.3589 60.8992 80.2149 60.8572 80.0949 60.7732C79.9869 60.6772 79.9089 60.5812 79.8609 60.4852C79.8249 60.3772 79.7649 60.2812 79.6809 60.1972C79.6089 60.1012 79.5189 60.0532 79.4109 60.0532C79.3749 60.0532 79.3389 60.0592 79.3029 60.0712C79.2789 60.0712 79.2489 60.0832 79.2129 60.1072C79.1889 60.1312 79.1589 60.1552 79.1229 60.1792C79.0989 60.1912 79.0689 60.2212 79.0329 60.2692C79.0089 60.3052 78.9849 60.3352 78.9609 60.3592C78.9369 60.3832 78.9069 60.4252 78.8709 60.4852C78.8349 60.5332 78.8049 60.5752 78.7809 60.6112C78.7689 60.6352 78.7389 60.6832 78.6909 60.7552C78.6549 60.8272 78.6249 60.8752 78.6009 60.8992C78.1449 61.5952 77.7549 62.0332 77.4309 62.2132C78.1269 62.2732 78.6369 62.4652 78.9609 62.7892C79.2969 63.1132 79.5609 63.5932 79.7529 64.2292C79.8609 64.6132 79.9809 64.9012 80.1129 65.0932C80.2449 65.2732 80.3529 65.3812 80.4369 65.4172C80.5329 65.4412 80.6769 65.4592 80.8689 65.4712C81.1449 65.4952 81.2709 65.6512 81.2469 65.9392C81.2109 66.1792 81.0129 66.3832 80.6529 66.5512C80.3049 66.7072 79.8309 66.7852 79.2309 66.7852C78.3909 66.7852 77.8089 66.6052 77.4849 66.2452C77.1609 65.8852 76.8969 65.2372 76.6929 64.3012C76.6689 64.2052 76.6389 64.0432 76.6029 63.8152C76.5669 63.5872 76.5309 63.4192 76.4949 63.3112C76.4709 63.2032 76.4049 63.1012 76.2969 63.0052C76.2009 62.8972 76.0629 62.8432 75.8829 62.8432C75.7869 62.8432 75.7149 62.8792 75.6669 62.9512C75.6189 63.0112 75.5769 63.1492 75.5409 63.3652L75.4689 63.9952C75.4329 64.2352 75.4209 64.4452 75.4329 64.6252C75.4449 64.9132 75.5589 65.1712 75.7749 65.3992C76.0029 65.6152 76.0989 65.8492 76.0629 66.1012C76.0149 66.4612 75.7029 66.6412 75.1269 66.6412H71.8689C71.5569 66.6412 71.3289 66.5992 71.1849 66.5152C71.0529 66.4312 70.9989 66.2812 71.0229 66.0652C71.0469 65.8732 71.1249 65.7232 71.2569 65.6152C71.4009 65.4952 71.5569 65.3632 71.7249 65.2192C71.8929 65.0632 72.0189 64.8652 72.1029 64.6252C72.1869 64.3132 72.2349 64.1032 72.2469 63.9952L72.3189 63.3652C72.3549 63.1492 72.3549 63.0112 72.3189 62.9512C72.2829 62.8792 72.2109 62.8432 72.1029 62.8432C71.9589 62.8432 71.8329 62.8732 71.7249 62.9332C71.6169 62.9812 71.5209 63.0652 71.4369 63.1852C71.3649 63.2932 71.3049 63.4012 71.2569 63.5092C71.2089 63.6052 71.1489 63.7372 71.0769 63.9052C71.0049 64.0732 70.9449 64.2052 70.8969 64.3012C70.4289 65.2372 69.9789 65.8852 69.5469 66.2452C69.1269 66.6052 68.4969 66.7852 67.6569 66.7852ZM90.2879 63.9952C90.5399 63.8152 90.7559 63.7852 90.9359 63.9052C91.1279 64.0252 91.1399 64.2232 90.9719 64.4992C90.5639 65.1832 89.9819 65.7412 89.2259 66.1732C88.4819 66.6052 87.6239 66.8212 86.6519 66.8212C85.3919 66.8212 84.4199 66.4912 83.7359 65.8312C83.0639 65.1712 82.7279 64.2652 82.7279 63.1132C82.7279 61.6852 83.2439 60.4492 84.2759 59.4052C85.3199 58.3492 86.5739 57.8212 88.0379 57.8212C88.9979 57.8212 89.7659 58.0552 90.3419 58.5232C90.9179 58.9792 91.2059 59.5492 91.2059 60.2332C91.2059 60.9052 90.9239 61.4992 90.3599 62.0152C89.8079 62.5192 89.1419 62.8852 88.3619 63.1132C87.5939 63.3292 86.8199 63.4192 86.0399 63.3832C86.3399 64.2472 87.0179 64.6792 88.0739 64.6792C88.9259 64.6792 89.6639 64.4512 90.2879 63.9952ZM87.6959 59.2072C87.1079 59.2072 86.6519 59.4892 86.3279 60.0532C86.0039 60.6172 85.8419 61.1992 85.8419 61.7992C85.8419 61.9792 85.9439 62.0692 86.1479 62.0692C86.7839 62.0932 87.3779 61.9312 87.9299 61.5832C88.4939 61.2232 88.7639 60.7552 88.7399 60.1792C88.7279 59.9152 88.6319 59.6872 88.4519 59.4952C88.2719 59.3032 88.0199 59.2072 87.6959 59.2072ZM108.012 64.1032C108.252 64.1032 108.372 64.2532 108.372 64.5532C108.372 65.0692 108.102 65.5792 107.562 66.0832C107.034 66.5752 106.32 66.8212 105.42 66.8212C104.82 66.8212 104.358 66.6112 104.034 66.1912C103.722 65.7712 103.638 65.1292 103.782 64.2652L104.124 62.3572C104.316 61.3972 104.406 60.7432 104.394 60.3952C104.394 60.0352 104.25 59.8552 103.962 59.8552C103.854 59.8552 103.734 59.8852 103.602 59.9452C103.482 60.0052 103.326 60.1432 103.134 60.3592C102.954 60.5632 102.774 60.8392 102.594 61.1872C102.414 61.5232 102.222 62.0092 102.018 62.6452C101.826 63.2812 101.646 64.0132 101.478 64.8412L101.316 65.7232C101.232 66.0592 101.028 66.2632 100.704 66.3352L98.6163 66.8212C98.4363 66.8572 98.2983 66.8152 98.2023 66.6952C98.1063 66.5752 98.0763 66.4132 98.1123 66.2092L98.8683 62.3572C98.9883 61.7212 99.0543 61.2232 99.0663 60.8632C99.0903 60.4912 99.0663 60.2332 98.9943 60.0892C98.9223 59.9332 98.7963 59.8552 98.6163 59.8552C98.5083 59.8552 98.3943 59.8852 98.2743 59.9452C98.1543 60.0052 98.0043 60.1432 97.8243 60.3592C97.6443 60.5632 97.4703 60.8392 97.3023 61.1872C97.1463 61.5232 96.9723 62.0092 96.7803 62.6452C96.5883 63.2692 96.4083 64.0012 96.2403 64.8412L96.0603 65.7232C95.9883 66.0592 95.7843 66.2632 95.4483 66.3352L93.3783 66.8212C93.1983 66.8572 93.0543 66.8152 92.9463 66.6952C92.8503 66.5752 92.8203 66.4132 92.8563 66.2092L93.7203 60.9892C93.7683 60.7252 93.7563 60.5152 93.6843 60.3592C93.6243 60.1912 93.5343 60.0892 93.4143 60.0532C93.3063 60.0052 93.2043 59.9332 93.1083 59.8372C93.0123 59.7412 92.9643 59.6212 92.9643 59.4772C92.9643 59.2972 93.0723 59.1172 93.2883 58.9372C93.5043 58.7572 93.9603 58.5232 94.6563 58.2352C95.4243 57.9472 95.9643 57.8032 96.2763 57.8032C96.7323 57.8032 96.9363 58.0312 96.8883 58.4872L96.7443 59.6212C97.1883 58.9972 97.6863 58.5412 98.2383 58.2532C98.8023 57.9532 99.3423 57.8032 99.8583 57.8032C100.434 57.8032 100.92 57.9592 101.316 58.2712C101.712 58.5712 101.988 58.9852 102.144 59.5132C102.528 58.9612 103.002 58.5412 103.566 58.2532C104.13 57.9532 104.712 57.8032 105.312 57.8032C106.116 57.8032 106.728 58.1632 107.148 58.8832C107.58 59.5912 107.688 60.4732 107.472 61.5292L107.004 63.7072C106.932 64.0672 106.908 64.3132 106.932 64.4452C106.956 64.5772 107.034 64.6432 107.166 64.6432C107.286 64.6432 107.43 64.5532 107.598 64.3732C107.778 64.1932 107.916 64.1032 108.012 64.1032ZM124.231 64.1212C124.471 64.1212 124.591 64.2772 124.591 64.5892C124.591 65.0812 124.315 65.5792 123.763 66.0832C123.223 66.5752 122.503 66.8212 121.603 66.8212C120.991 66.8212 120.511 66.6172 120.163 66.2092C119.827 65.7892 119.725 65.1532 119.857 64.3012L120.073 62.8072H117.517L117.139 65.7052C117.091 66.0532 116.893 66.2632 116.545 66.3352L114.457 66.8212C114.289 66.8572 114.151 66.8152 114.043 66.6952C113.947 66.5752 113.917 66.4132 113.953 66.2092L114.655 61.0072C114.691 60.7432 114.673 60.5332 114.601 60.3772C114.541 60.2092 114.457 60.1072 114.349 60.0712C114.241 60.0232 114.139 59.9512 114.043 59.8552C113.947 59.7592 113.899 59.6392 113.899 59.4952C113.899 59.3032 113.995 59.1232 114.187 58.9552C114.391 58.7752 114.787 58.5772 115.375 58.3612C116.335 58.0132 117.061 57.8392 117.553 57.8392C117.973 57.8392 118.153 58.0552 118.093 58.4872L117.697 61.4752H120.271L120.631 58.9732C120.679 58.6132 120.877 58.3972 121.225 58.3252L123.277 57.8392C123.457 57.8032 123.595 57.8452 123.691 57.9652C123.787 58.0852 123.823 58.2412 123.799 58.4332L123.061 63.7072C122.953 64.3192 123.061 64.6252 123.385 64.6252C123.505 64.6252 123.649 64.5412 123.817 64.3732C123.997 64.2052 124.135 64.1212 124.231 64.1212ZM133.687 63.9952C133.939 63.8152 134.155 63.7852 134.335 63.9052C134.527 64.0252 134.539 64.2232 134.371 64.4992C133.963 65.1832 133.381 65.7412 132.625 66.1732C131.881 66.6052 131.023 66.8212 130.051 66.8212C128.791 66.8212 127.819 66.4912 127.135 65.8312C126.463 65.1712 126.127 64.2652 126.127 63.1132C126.127 61.6852 126.643 60.4492 127.675 59.4052C128.719 58.3492 129.973 57.8212 131.437 57.8212C132.397 57.8212 133.165 58.0552 133.741 58.5232C134.317 58.9792 134.605 59.5492 134.605 60.2332C134.605 60.9052 134.323 61.4992 133.759 62.0152C133.207 62.5192 132.541 62.8852 131.761 63.1132C130.993 63.3292 130.219 63.4192 129.439 63.3832C129.739 64.2472 130.417 64.6792 131.473 64.6792C132.325 64.6792 133.063 64.4512 133.687 63.9952ZM131.095 59.2072C130.507 59.2072 130.051 59.4892 129.727 60.0532C129.403 60.6172 129.241 61.1992 129.241 61.7992C129.241 61.9792 129.343 62.0692 129.547 62.0692C130.183 62.0932 130.777 61.9312 131.329 61.5832C131.893 61.2232 132.163 60.7552 132.139 60.1792C132.127 59.9152 132.031 59.6872 131.851 59.4952C131.671 59.3032 131.419 59.2072 131.095 59.2072ZM155.375 64.1032C155.615 64.1032 155.735 64.2532 155.735 64.5532C155.735 65.0692 155.465 65.5792 154.925 66.0832C154.397 66.5752 153.683 66.8212 152.783 66.8212C152.183 66.8212 151.721 66.6112 151.397 66.1912C151.085 65.7712 151.001 65.1292 151.145 64.2652L151.487 62.3572C151.679 61.3972 151.769 60.7432 151.757 60.3952C151.757 60.0352 151.613 59.8552 151.325 59.8552C151.217 59.8552 151.097 59.8852 150.965 59.9452C150.845 60.0052 150.689 60.1432 150.497 60.3592C150.317 60.5632 150.137 60.8392 149.957 61.1872C149.777 61.5232 149.585 62.0092 149.381 62.6452C149.189 63.2812 149.009 64.0132 148.841 64.8412L148.679 65.7232C148.595 66.0592 148.391 66.2632 148.067 66.3352L145.979 66.8212C145.799 66.8572 145.661 66.8152 145.565 66.6952C145.469 66.5752 145.439 66.4132 145.475 66.2092L146.231 62.3572C146.351 61.7212 146.417 61.2232 146.429 60.8632C146.453 60.4912 146.429 60.2332 146.357 60.0892C146.285 59.9332 146.159 59.8552 145.979 59.8552C145.871 59.8552 145.757 59.8852 145.637 59.9452C145.517 60.0052 145.367 60.1432 145.187 60.3592C145.007 60.5632 144.833 60.8392 144.665 61.1872C144.509 61.5232 144.335 62.0092 144.143 62.6452C143.951 63.2692 143.771 64.0012 143.603 64.8412L143.423 65.7232C143.351 66.0592 143.147 66.2632 142.811 66.3352L140.741 66.8212C140.561 66.8572 140.417 66.8152 140.309 66.6952C140.213 66.5752 140.183 66.4132 140.219 66.2092L141.083 60.9892C141.131 60.7252 141.119 60.5152 141.047 60.3592C140.987 60.1912 140.897 60.0892 140.777 60.0532C140.669 60.0052 140.567 59.9332 140.471 59.8372C140.375 59.7412 140.327 59.6212 140.327 59.4772C140.327 59.2972 140.435 59.1172 140.651 58.9372C140.867 58.7572 141.323 58.5232 142.019 58.2352C142.787 57.9472 143.327 57.8032 143.639 57.8032C144.095 57.8032 144.299 58.0312 144.251 58.4872L144.107 59.6212C144.551 58.9972 145.049 58.5412 145.601 58.2532C146.165 57.9532 146.705 57.8032 147.221 57.8032C147.797 57.8032 148.283 57.9592 148.679 58.2712C149.075 58.5712 149.351 58.9852 149.507 59.5132C149.891 58.9612 150.365 58.5412 150.929 58.2532C151.493 57.9532 152.075 57.8032 152.675 57.8032C153.479 57.8032 154.091 58.1632 154.511 58.8832C154.943 59.5912 155.051 60.4732 154.835 61.5292L154.367 63.7072C154.295 64.0672 154.271 64.3132 154.295 64.4452C154.319 64.5772 154.397 64.6432 154.529 64.6432C154.649 64.6432 154.793 64.5532 154.961 64.3732C155.141 64.1932 155.279 64.1032 155.375 64.1032ZM164.75 57.7672C165.218 57.7672 165.566 57.9292 165.794 58.2532C166.022 58.5652 166.136 58.9372 166.136 59.3692C166.136 60.3892 165.818 61.6552 165.182 63.1672C164.558 64.6792 163.976 65.8552 163.436 66.6952C161.876 69.1792 160.106 70.4212 158.126 70.4212C157.382 70.4212 156.812 70.2412 156.416 69.8812C156.008 69.5212 155.804 69.0592 155.804 68.4952C155.804 67.9672 155.942 67.5592 156.218 67.2712C156.482 66.9832 156.794 66.8392 157.154 66.8392C157.382 66.8392 157.592 66.9112 157.784 67.0552C157.976 67.2112 158.114 67.4092 158.198 67.6492C158.222 67.7092 158.258 67.8112 158.306 67.9552C158.354 68.0992 158.384 68.2012 158.396 68.2612C158.42 68.3212 158.456 68.3992 158.504 68.4952C158.564 68.5912 158.624 68.6572 158.684 68.6932C158.744 68.7292 158.822 68.7652 158.918 68.8012C159.014 68.8372 159.128 68.8552 159.26 68.8552C159.464 68.8552 159.656 68.7772 159.836 68.6212C160.016 68.4772 160.13 68.2792 160.178 68.0272C160.25 67.6432 160.22 67.0852 160.088 66.3532C159.74 64.5892 159.146 62.7712 158.306 60.8992C158.138 60.5152 157.982 60.2692 157.838 60.1612C157.694 60.0412 157.478 59.9632 157.19 59.9272C157.034 59.9152 156.92 59.8672 156.848 59.7832C156.776 59.6872 156.74 59.5972 156.74 59.5132C156.74 59.1652 157.1 58.7992 157.82 58.4152C158.54 58.0192 159.152 57.8212 159.656 57.8212C160.112 57.8212 160.46 58.1092 160.7 58.6852C161.468 60.5572 162.146 62.6752 162.734 65.0392C163.478 63.7792 163.85 62.6392 163.85 61.6192C163.85 61.2472 163.724 60.8272 163.472 60.3592C163.232 59.8792 163.112 59.5192 163.112 59.2792C163.112 58.8592 163.292 58.5052 163.652 58.2172C164.012 57.9172 164.378 57.7672 164.75 57.7672ZM177.1 59.6752C177.136 61.8232 176.614 63.5512 175.534 64.8592C174.466 66.1672 173.104 66.8212 171.448 66.8212C170.272 66.8212 169.312 66.4792 168.568 65.7952C167.836 65.1112 167.47 64.1332 167.47 62.8612C167.47 61.4092 167.938 60.2092 168.874 59.2612C169.81 58.3132 170.95 57.8572 172.294 57.8932C173.002 57.9292 173.53 58.0972 173.878 58.3972C173.494 56.5252 172.336 55.3432 170.404 54.8512C170.056 54.7672 169.882 54.6292 169.882 54.4372C169.882 54.0412 170.392 53.8372 171.412 53.8252C172.036 53.8012 172.666 53.8972 173.302 54.1132C173.938 54.3172 174.544 54.6412 175.12 55.0852C175.696 55.5172 176.164 56.1352 176.524 56.9392C176.896 57.7312 177.088 58.6432 177.1 59.6752ZM171.682 65.3992C172.27 65.3992 172.744 64.9312 173.104 63.9952C173.476 63.0472 173.662 62.0812 173.662 61.0972C173.662 59.9212 173.35 59.3332 172.726 59.3332C172.126 59.3332 171.64 59.7652 171.268 60.6292C170.908 61.4812 170.728 62.4172 170.728 63.4372C170.728 64.7452 171.046 65.3992 171.682 65.3992ZM189.011 64.5892C189.023 65.0812 188.759 65.5792 188.219 66.0832C187.691 66.5752 186.989 66.8212 186.113 66.8212C185.669 66.8212 185.279 66.7072 184.943 66.4792C184.619 66.2392 184.409 65.8792 184.313 65.3992C183.521 66.3472 182.579 66.8212 181.487 66.8212C180.587 66.8212 179.855 66.5152 179.291 65.9032C178.727 65.2912 178.445 64.5052 178.445 63.5452C178.445 61.9612 179.003 60.6112 180.119 59.4952C181.235 58.3792 182.459 57.8212 183.791 57.8212C184.223 57.8212 184.637 57.8872 185.033 58.0192C185.441 58.1392 185.681 58.1992 185.753 58.1992C185.885 58.1992 186.167 58.1272 186.599 57.9832C187.043 57.8392 187.355 57.7672 187.535 57.7672C187.775 57.7672 187.955 57.8452 188.075 58.0012C188.195 58.1572 188.243 58.3312 188.219 58.5232L187.463 63.7072C187.379 64.3192 187.493 64.6252 187.805 64.6252C187.925 64.6252 188.069 64.5412 188.237 64.3732C188.417 64.2052 188.555 64.1212 188.651 64.1212C188.891 64.1212 189.011 64.2772 189.011 64.5892ZM182.621 64.8232C183.113 64.8232 183.521 64.5112 183.845 63.8872C184.169 63.2632 184.403 62.4832 184.547 61.5472C184.787 59.9512 184.493 59.1532 183.665 59.1532C183.065 59.1532 182.591 59.5432 182.243 60.3232C181.907 61.0912 181.727 62.0212 181.703 63.1132C181.691 63.6052 181.763 64.0132 181.919 64.3372C182.075 64.6612 182.309 64.8232 182.621 64.8232ZM80.8105 87.1032C81.0505 87.1032 81.1705 87.2532 81.1705 87.5532C81.1705 88.0692 80.9005 88.5792 80.3605 89.0832C79.8325 89.5752 79.1185 89.8212 78.2185 89.8212C77.6185 89.8212 77.1565 89.6112 76.8325 89.1912C76.5205 88.7712 76.4365 88.1292 76.5805 87.2652L76.9225 85.3572C77.1145 84.3972 77.2045 83.7432 77.1925 83.3952C77.1925 83.0352 77.0485 82.8552 76.7605 82.8552C76.6525 82.8552 76.5325 82.8852 76.4005 82.9452C76.2805 83.0052 76.1245 83.1432 75.9325 83.3592C75.7525 83.5632 75.5725 83.8392 75.3925 84.1872C75.2125 84.5232 75.0205 85.0092 74.8165 85.6452C74.6245 86.2812 74.4445 87.0132 74.2765 87.8412L74.1145 88.7232C74.0305 89.0592 73.8265 89.2632 73.5025 89.3352L71.4145 89.8212C71.2345 89.8572 71.0965 89.8152 71.0005 89.6952C70.9045 89.5752 70.8745 89.4132 70.9105 89.2092L71.6665 85.3572C71.7865 84.7212 71.8525 84.2232 71.8645 83.8632C71.8885 83.4912 71.8645 83.2332 71.7925 83.0892C71.7205 82.9332 71.5945 82.8552 71.4145 82.8552C71.3065 82.8552 71.1925 82.8852 71.0725 82.9452C70.9525 83.0052 70.8025 83.1432 70.6225 83.3592C70.4425 83.5632 70.2685 83.8392 70.1005 84.1872C69.9445 84.5232 69.7705 85.0092 69.5785 85.6452C69.3865 86.2692 69.2065 87.0012 69.0385 87.8412L68.8585 88.7232C68.7865 89.0592 68.5825 89.2632 68.2465 89.3352L66.1765 89.8212C65.9965 89.8572 65.8525 89.8152 65.7445 89.6952C65.6485 89.5752 65.6185 89.4132 65.6545 89.2092L66.5185 83.9892C66.5665 83.7252 66.5545 83.5152 66.4825 83.3592C66.4225 83.1912 66.3325 83.0892 66.2125 83.0532C66.1045 83.0052 66.0025 82.9332 65.9065 82.8372C65.8105 82.7412 65.7625 82.6212 65.7625 82.4772C65.7625 82.2972 65.8705 82.1172 66.0865 81.9372C66.3025 81.7572 66.7585 81.5232 67.4545 81.2352C68.2225 80.9472 68.7625 80.8032 69.0745 80.8032C69.5305 80.8032 69.7345 81.0312 69.6865 81.4872L69.5425 82.6212C69.9865 81.9972 70.4845 81.5412 71.0365 81.2532C71.6005 80.9532 72.1405 80.8032 72.6565 80.8032C73.2325 80.8032 73.7185 80.9592 74.1145 81.2712C74.5105 81.5712 74.7865 81.9852 74.9425 82.5132C75.3265 81.9612 75.8005 81.5412 76.3645 81.2532C76.9285 80.9532 77.5105 80.8032 78.1105 80.8032C78.9145 80.8032 79.5265 81.1632 79.9465 81.8832C80.3785 82.5912 80.4865 83.4732 80.2705 84.5292L79.8025 86.7072C79.7305 87.0672 79.7065 87.3132 79.7305 87.4452C79.7545 87.5772 79.8325 87.6432 79.9645 87.6432C80.0845 87.6432 80.2285 87.5532 80.3965 87.3732C80.5765 87.1932 80.7145 87.1032 80.8105 87.1032ZM88.9618 83.1252C89.6578 83.1252 90.2398 83.3412 90.7078 83.7732C91.1758 84.1932 91.4098 84.7392 91.4098 85.4112C91.4098 86.2992 91.1398 87.0912 90.5998 87.7872C90.0718 88.4832 89.4298 88.9992 88.6738 89.3352C87.9298 89.6592 87.1738 89.8212 86.4058 89.8212C85.1578 89.8212 84.2458 89.5332 83.6698 88.9572C83.0938 88.3692 82.9018 87.4992 83.0938 86.3472L83.4898 83.9532C83.5738 83.4492 83.4658 83.1372 83.1658 83.0172C82.8778 82.8492 82.7338 82.6692 82.7338 82.4772C82.7338 82.3572 82.7638 82.2492 82.8238 82.1532C82.8838 82.0452 83.0458 81.9072 83.3098 81.7392C83.5738 81.5712 83.9458 81.4032 84.4258 81.2352C85.2538 80.9472 85.9318 80.8032 86.4598 80.8032C86.9038 80.8032 87.0838 81.0312 86.9998 81.4872L86.6038 84.0432C87.3118 83.4312 88.0978 83.1252 88.9618 83.1252ZM96.5938 87.5892C96.6058 88.0812 96.3358 88.5792 95.7838 89.0832C95.2438 89.5752 94.5238 89.8212 93.6238 89.8212C93.0118 89.8212 92.5318 89.6172 92.1838 89.2092C91.8358 88.7892 91.7278 88.1532 91.8598 87.3012L92.6338 81.9732C92.6818 81.6252 92.8858 81.4092 93.2458 81.3252L95.2978 80.8392C95.4658 80.8032 95.5978 80.8452 95.6938 80.9652C95.8018 81.0852 95.8438 81.2412 95.8198 81.4332L95.0638 86.7072C94.9798 87.3192 95.0938 87.6252 95.4058 87.6252C95.5258 87.6252 95.6698 87.5412 95.8378 87.3732C96.0058 87.2052 96.1378 87.1212 96.2338 87.1212C96.4738 87.1212 96.5938 87.2772 96.5938 87.5892ZM88.2598 85.9152C88.2838 85.2552 88.0738 84.9252 87.6298 84.9252C87.2458 84.9252 86.9098 85.2192 86.6218 85.8072C86.3338 86.3952 86.1958 86.9532 86.2078 87.4812C86.2198 87.7572 86.2858 87.9912 86.4058 88.1832C86.5258 88.3632 86.6998 88.4472 86.9278 88.4352C87.2878 88.4352 87.5998 88.1652 87.8638 87.6252C88.1278 87.0852 88.2598 86.5152 88.2598 85.9152ZM105.487 89.7852C104.647 89.7852 104.059 89.6052 103.723 89.2452C103.399 88.8852 103.141 88.2372 102.949 87.3012C102.937 87.2292 102.913 87.0972 102.877 86.9052C102.853 86.7132 102.823 86.5752 102.787 86.4912C102.763 86.4072 102.721 86.3052 102.661 86.1852C102.601 86.0532 102.511 85.9632 102.391 85.9152C102.283 85.8672 102.139 85.8432 101.959 85.8432C101.851 85.8432 101.773 85.8792 101.725 85.9512C101.689 86.0112 101.653 86.1552 101.617 86.3832L101.545 86.9952C101.509 87.2352 101.497 87.4452 101.509 87.6252C101.521 87.9132 101.635 88.1712 101.851 88.3992C102.079 88.6152 102.175 88.8492 102.139 89.1012C102.091 89.4612 101.779 89.6412 101.203 89.6412H97.9632C97.6392 89.6412 97.4112 89.5992 97.2792 89.5152C97.1352 89.4312 97.0752 89.2812 97.0992 89.0652C97.1232 88.8732 97.2072 88.7232 97.3512 88.6152C97.4832 88.4952 97.6332 88.3632 97.8012 88.2192C97.9692 88.0632 98.0952 87.8652 98.1792 87.6252C98.2512 87.3132 98.2992 87.1032 98.3232 86.9952L98.7732 83.6472C98.8092 83.4072 98.8212 83.1912 98.8092 82.9992C98.7972 82.7112 98.6772 82.4592 98.4492 82.2432C98.2332 82.0272 98.1432 81.7932 98.1792 81.5412C98.2272 81.1812 98.5392 81.0012 99.1152 81.0012H102.355C102.679 81.0012 102.907 81.0432 103.039 81.1272C103.183 81.2112 103.243 81.3552 103.219 81.5592C103.183 81.7872 103.015 82.0152 102.715 82.2432C102.427 82.4592 102.235 82.7112 102.139 82.9992C102.055 83.3712 102.007 83.5872 101.995 83.6472L101.941 84.1332C101.917 84.3012 101.923 84.4032 101.959 84.4392C101.995 84.4752 102.091 84.4932 102.247 84.4932H102.427C102.703 84.4932 102.955 84.3672 103.183 84.1152C103.423 83.8632 103.639 83.5572 103.831 83.1972C104.023 82.8372 104.233 82.4772 104.461 82.1172C104.689 81.7572 104.989 81.4512 105.361 81.1992C105.733 80.9472 106.159 80.8212 106.639 80.8212C107.131 80.8212 107.521 80.9712 107.809 81.2712C108.097 81.5712 108.199 81.9972 108.115 82.5492C108.067 82.9692 107.911 83.2992 107.647 83.5392C107.395 83.7792 107.107 83.8992 106.783 83.8992C106.615 83.8992 106.471 83.8572 106.351 83.7732C106.243 83.6772 106.165 83.5812 106.117 83.4852C106.081 83.3772 106.021 83.2812 105.937 83.1972C105.865 83.1012 105.775 83.0532 105.667 83.0532C105.499 83.0532 105.325 83.1912 105.145 83.4672C104.977 83.7432 104.767 84.0672 104.515 84.4392C104.263 84.8112 103.987 85.0752 103.687 85.2312C104.383 85.2912 104.899 85.4832 105.235 85.8072C105.571 86.1192 105.829 86.5932 106.009 87.2292C106.093 87.5172 106.177 87.7512 106.261 87.9312C106.345 88.1112 106.441 88.2372 106.549 88.3092C106.657 88.3812 106.741 88.4292 106.801 88.4532C106.873 88.4652 106.981 88.4712 107.125 88.4712C107.389 88.4952 107.509 88.6512 107.485 88.9392C107.449 89.1792 107.251 89.3832 106.891 89.5512C106.543 89.7072 106.075 89.7852 105.487 89.7852ZM119.773 87.5892C119.785 88.0812 119.521 88.5792 118.981 89.0832C118.453 89.5752 117.751 89.8212 116.875 89.8212C116.431 89.8212 116.041 89.7072 115.705 89.4792C115.381 89.2392 115.171 88.8792 115.075 88.3992C114.283 89.3472 113.341 89.8212 112.249 89.8212C111.349 89.8212 110.617 89.5152 110.053 88.9032C109.489 88.2912 109.207 87.5052 109.207 86.5452C109.207 84.9612 109.765 83.6112 110.881 82.4952C111.997 81.3792 113.221 80.8212 114.553 80.8212C114.985 80.8212 115.399 80.8872 115.795 81.0192C116.203 81.1392 116.443 81.1992 116.515 81.1992C116.647 81.1992 116.929 81.1272 117.361 80.9832C117.805 80.8392 118.117 80.7672 118.297 80.7672C118.537 80.7672 118.717 80.8452 118.837 81.0012C118.957 81.1572 119.005 81.3312 118.981 81.5232L118.225 86.7072C118.141 87.3192 118.255 87.6252 118.567 87.6252C118.687 87.6252 118.831 87.5412 118.999 87.3732C119.179 87.2052 119.317 87.1212 119.413 87.1212C119.653 87.1212 119.773 87.2772 119.773 87.5892ZM113.383 87.8232C113.875 87.8232 114.283 87.5112 114.607 86.8872C114.931 86.2632 115.165 85.4832 115.309 84.5472C115.549 82.9512 115.255 82.1532 114.427 82.1532C113.827 82.1532 113.353 82.5432 113.005 83.3232C112.669 84.0912 112.489 85.0212 112.465 86.1132C112.453 86.6052 112.525 87.0132 112.681 87.3372C112.837 87.6612 113.071 87.8232 113.383 87.8232ZM128.747 86.9952C128.999 86.8152 129.215 86.7852 129.395 86.9052C129.587 87.0252 129.599 87.2232 129.431 87.4992C129.023 88.1832 128.441 88.7412 127.685 89.1732C126.941 89.6052 126.083 89.8212 125.111 89.8212C123.851 89.8212 122.879 89.4912 122.195 88.8312C121.523 88.1712 121.187 87.2652 121.187 86.1132C121.187 84.6852 121.703 83.4492 122.735 82.4052C123.779 81.3492 125.033 80.8212 126.497 80.8212C127.457 80.8212 128.225 81.0552 128.801 81.5232C129.377 81.9792 129.665 82.5492 129.665 83.2332C129.665 83.9052 129.383 84.4992 128.819 85.0152C128.267 85.5192 127.601 85.8852 126.821 86.1132C126.053 86.3292 125.279 86.4192 124.499 86.3832C124.799 87.2472 125.477 87.6792 126.533 87.6792C127.385 87.6792 128.123 87.4512 128.747 86.9952ZM126.155 82.2072C125.567 82.2072 125.111 82.4892 124.787 83.0532C124.463 83.6172 124.301 84.1992 124.301 84.7992C124.301 84.9792 124.403 85.0692 124.607 85.0692C125.243 85.0932 125.837 84.9312 126.389 84.5832C126.953 84.2232 127.223 83.7552 127.199 83.1792C127.187 82.9152 127.091 82.6872 126.911 82.4952C126.731 82.3032 126.479 82.2072 126.155 82.2072ZM132.288 89.8212C131.844 89.8212 131.436 89.6952 131.064 89.4432C130.704 89.1912 130.56 88.7892 130.632 88.2372C130.692 87.8772 130.842 87.5772 131.082 87.3372C131.334 87.0972 131.598 86.9772 131.874 86.9772C132.102 86.9772 132.282 87.0312 132.414 87.1392C132.558 87.2472 132.648 87.3672 132.684 87.4992C132.732 87.6192 132.798 87.7332 132.882 87.8412C132.966 87.9492 133.074 88.0032 133.206 88.0032C133.482 88.0032 133.752 87.5232 134.016 86.5632C134.28 85.6032 134.472 84.7452 134.592 83.9892C134.676 83.4492 134.574 83.1192 134.286 82.9992C134.01 82.8552 133.866 82.6752 133.854 82.4592C133.854 82.3392 133.878 82.2312 133.926 82.1352C133.986 82.0392 134.148 81.9072 134.412 81.7392C134.688 81.5712 135.078 81.3972 135.582 81.2172C136.41 80.9412 137.148 80.8032 137.796 80.8032C138.144 80.8032 138.342 81.0372 138.39 81.5052C138.522 82.6932 138.774 84.0012 139.146 85.4292L140.91 82.0992C140.934 82.0392 140.97 81.9732 141.018 81.9012C141.078 81.8172 141.168 81.7212 141.288 81.6132C141.42 81.5052 141.564 81.4212 141.72 81.3612C142.5 81.0252 143.31 80.8452 144.15 80.8212C144.33 80.8092 144.468 80.8572 144.564 80.9652C144.66 81.0732 144.696 81.2232 144.672 81.4152L143.952 86.6712C143.904 87.0312 143.904 87.2832 143.952 87.4272C144 87.5592 144.096 87.6252 144.24 87.6252C144.36 87.6252 144.504 87.5412 144.672 87.3732C144.84 87.2052 144.972 87.1212 145.068 87.1212C145.308 87.1212 145.428 87.2772 145.428 87.5892C145.44 88.0812 145.17 88.5792 144.618 89.0832C144.078 89.5752 143.358 89.8212 142.458 89.8212C140.994 89.8212 140.394 88.9632 140.658 87.2472L141.126 84.2232L139.002 88.2732C138.81 88.5852 138.45 88.8192 137.922 88.9752C137.274 89.1552 136.872 89.0232 136.716 88.5792C136.296 87.1992 136.008 85.7712 135.852 84.2952C135.708 85.0632 135.408 86.2512 134.952 87.8592C134.412 89.1672 133.524 89.8212 132.288 89.8212ZM151.132 84.7992C151.06 85.1472 150.898 85.3752 150.646 85.4832C150.406 85.5792 150.184 85.5312 149.98 85.3392C149.788 85.1472 149.722 84.8532 149.782 84.4572C149.878 83.7732 150.112 83.1252 150.484 82.5132C150.868 81.8892 151.24 81.3072 151.6 80.7672C151.972 80.2152 152.194 79.6872 152.266 79.1832C152.338 78.6192 152.146 78.3372 151.69 78.3372C151.474 78.3372 151.288 78.4152 151.132 78.5712C150.988 78.7272 150.832 78.9612 150.664 79.2732C150.508 79.5732 150.388 79.7832 150.304 79.9032C150.292 79.9152 150.232 79.9932 150.124 80.1372C150.028 80.2692 149.962 80.3532 149.926 80.3892C149.902 80.4252 149.836 80.4972 149.728 80.6052C149.632 80.7012 149.542 80.7732 149.458 80.8212C149.386 80.8572 149.284 80.8932 149.152 80.9292C149.032 80.9652 148.9 80.9832 148.756 80.9832C148.228 80.9832 147.874 80.8452 147.694 80.5692C147.514 80.2812 147.448 79.9572 147.496 79.5972C147.604 78.8172 148.036 78.1692 148.792 77.6532C149.548 77.1252 150.592 76.8612 151.924 76.8612C153.184 76.8612 154.132 77.1012 154.768 77.5812C155.404 78.0612 155.668 78.6912 155.56 79.4712C155.5 79.9032 155.314 80.3292 155.002 80.7492C154.702 81.1692 154.378 81.5112 154.03 81.7752C153.694 82.0392 153.31 82.3332 152.878 82.6572C152.446 82.9692 152.146 83.2152 151.978 83.3952C151.894 83.4792 151.738 83.7012 151.51 84.0612C151.294 84.4092 151.168 84.6552 151.132 84.7992ZM150.088 89.8932C149.656 89.8932 149.302 89.7672 149.026 89.5152C148.75 89.2512 148.612 88.8792 148.612 88.3992C148.612 87.8352 148.804 87.3792 149.188 87.0312C149.584 86.6832 150.034 86.5092 150.538 86.5092C150.958 86.5092 151.306 86.6472 151.582 86.9232C151.87 87.1872 152.014 87.5592 152.014 88.0392C152.014 88.6032 151.822 89.0532 151.438 89.3892C151.066 89.7252 150.616 89.8932 150.088 89.8932Z" fill="#FFC6F9"/>
</svg>
