<svg width="287" height="100" viewBox="0 0 287 100" fill="none" xmlns="http://www.w3.org/2000/svg">
<path d="M235.161 88.2469C240.276 106.909 275.449 98.9117 287 94.1548C261.313 85.2236 248.497 59.6636 245.299 48C243.386 52.5904 230.045 69.5851 235.161 88.2469Z" fill="#FFC6F9"/>
<rect x="1.5" y="1.5" width="269" height="94" rx="47" fill="#6932FF" stroke="#FFC6F9" stroke-width="3"/>
<path d="M64.6828 32.578H60.2108C59.8468 32.578 59.5955 32.5173 59.4568 32.396C59.3355 32.2747 59.3442 32.058 59.4828 31.746L59.7428 31.174C59.8815 30.8447 60.0288 30.6193 60.1848 30.498C60.3582 30.3767 60.6182 30.316 60.9648 30.316H65.4368C65.8008 30.316 66.0435 30.3767 66.1648 30.498C66.3035 30.6193 66.3035 30.836 66.1648 31.148L65.9048 31.72C65.7662 32.0493 65.6102 32.2747 65.4368 32.396C65.2808 32.5173 65.0295 32.578 64.6828 32.578ZM77.8524 39H75.0184C74.4984 39 74.1518 38.948 73.9784 38.844C73.8224 38.7227 73.7618 38.506 73.7964 38.194C73.8311 37.9513 73.9871 37.726 74.2644 37.518C74.5591 37.2927 74.8624 37.0327 75.1744 36.738C75.4864 36.426 75.6858 36.062 75.7724 35.646L77.8524 24.622C77.9391 24.206 77.9131 23.8593 77.7744 23.582C77.6531 23.3047 77.4884 23.114 77.2804 23.01C77.0898 22.8887 76.9164 22.724 76.7604 22.516C76.6044 22.2907 76.5438 22.0307 76.5784 21.736C76.6478 21.3893 76.8038 21.1467 77.0464 21.008C77.3064 20.8693 77.6964 20.8 78.2164 20.8H82.1684C82.7578 20.8 83.1478 21.0773 83.3384 21.632L86.1204 30.966L91.8924 21.658C92.2564 21.086 92.7158 20.8 93.2704 20.8H97.0404C97.5778 20.8 97.9504 20.8693 98.1584 21.008C98.3664 21.1467 98.4444 21.3893 98.3924 21.736C98.3404 22.0307 98.2104 22.2907 98.0024 22.516C97.7944 22.724 97.5778 22.8887 97.3524 23.01C97.1271 23.114 96.9104 23.3047 96.7024 23.582C96.4944 23.8593 96.3644 24.206 96.3124 24.622L95.2984 34.58C95.2464 35.0653 95.2724 35.464 95.3764 35.776C95.4804 36.0707 95.6191 36.2873 95.7924 36.426C95.9658 36.5647 96.1391 36.6947 96.3124 36.816C96.4858 36.92 96.6244 37.076 96.7284 37.284C96.8324 37.4747 96.8671 37.7347 96.8324 38.064C96.7804 38.4107 96.6244 38.6533 96.3644 38.792C96.1218 38.9307 95.6884 39 95.0644 39H89.9164C89.3271 39 88.9198 38.9307 88.6944 38.792C88.4864 38.6533 88.4084 38.4107 88.4604 38.064C88.5124 37.7173 88.6338 37.4227 88.8244 37.18C89.0151 36.9373 89.2144 36.7553 89.4224 36.634C89.6478 36.5127 89.8644 36.2787 90.0724 35.932C90.2804 35.5853 90.4191 35.1347 90.4884 34.58L91.4764 26.676L85.1324 37.076C84.8378 37.596 84.4044 37.908 83.8324 38.012C83.2431 38.1333 82.8704 37.934 82.7144 37.414L79.6984 26.858L78.2164 35.646C78.1298 36.1833 78.2771 36.6773 78.6584 37.128C79.0571 37.5613 79.2304 37.9253 79.1784 38.22C79.1438 38.532 79.0224 38.74 78.8144 38.844C78.6238 38.948 78.3031 39 77.8524 39ZM106.164 39.286C104.24 39.286 102.741 38.792 101.666 37.804C100.592 36.7987 100.054 35.4207 100.054 33.67C100.054 31.6073 100.843 29.8567 102.42 28.418C103.998 26.962 105.87 26.234 108.036 26.234C109.891 26.234 111.356 26.7453 112.43 27.768C113.505 28.7907 114.042 30.1167 114.042 31.746C114.042 33.9647 113.288 35.776 111.78 37.18C110.272 38.584 108.4 39.286 106.164 39.286ZM106.32 37.232C107.118 37.232 107.768 36.582 108.27 35.282C108.773 33.9647 109.024 32.604 109.024 31.2C109.024 29.2413 108.539 28.262 107.568 28.262C106.736 28.262 106.069 28.886 105.566 30.134C105.081 31.3647 104.821 32.7253 104.786 34.216C104.838 36.2267 105.35 37.232 106.32 37.232ZM117.589 39.208C116.722 39.208 116.072 39.0953 115.639 38.87C115.205 38.6273 115.015 38.3327 115.067 37.986C115.067 37.8127 115.136 37.6653 115.275 37.544C115.413 37.4053 115.578 37.3273 115.769 37.31C116.046 37.2927 116.254 37.2667 116.393 37.232C116.531 37.18 116.731 37.024 116.991 36.764C117.268 36.4867 117.563 36.0707 117.875 35.516C118.412 34.5973 118.984 33.904 119.591 33.436C120.215 32.968 121.038 32.6907 122.061 32.604C121.593 32.292 121.203 31.642 120.891 30.654C120.648 29.874 120.371 29.484 120.059 29.484C119.851 29.484 119.573 29.692 119.227 30.108C118.88 30.5067 118.507 30.706 118.109 30.706C117.641 30.706 117.277 30.5327 117.017 30.186C116.757 29.8393 116.661 29.3627 116.731 28.756C116.835 27.9587 117.155 27.3433 117.693 26.91C118.23 26.4767 118.863 26.26 119.591 26.26C119.816 26.26 120.024 26.286 120.215 26.338C120.423 26.3727 120.596 26.416 120.735 26.468C120.891 26.52 121.038 26.6153 121.177 26.754C121.333 26.8753 121.454 26.9793 121.541 27.066C121.627 27.1353 121.723 27.2653 121.827 27.456C121.931 27.6467 122.009 27.794 122.061 27.898C122.113 27.9847 122.173 28.1493 122.243 28.392C122.329 28.6173 122.381 28.7733 122.399 28.86C122.433 28.9293 122.485 29.094 122.555 29.354C122.624 29.614 122.667 29.77 122.685 29.822C122.823 30.4113 122.971 30.8533 123.127 31.148C123.3 31.4253 123.56 31.564 123.907 31.564H124.167C124.409 31.564 124.565 31.538 124.635 31.486C124.704 31.4167 124.747 31.2693 124.765 31.044L124.869 30.342C124.921 29.9953 124.938 29.6833 124.921 29.406C124.903 28.99 124.73 28.626 124.401 28.314C124.089 28.002 123.959 27.664 124.011 27.3C124.045 26.988 124.167 26.78 124.375 26.676C124.6 26.572 124.929 26.52 125.363 26.52H130.043C130.493 26.52 130.823 26.5807 131.031 26.702C131.239 26.8233 131.325 27.0313 131.291 27.326C131.239 27.6553 130.996 27.9847 130.563 28.314C130.147 28.626 129.869 28.99 129.731 29.406C129.609 29.9433 129.54 30.2553 129.523 30.342L129.419 31.044C129.401 31.2693 129.41 31.4167 129.445 31.486C129.497 31.538 129.635 31.564 129.861 31.564H130.121C130.467 31.564 130.771 31.4167 131.031 31.122C131.291 30.8273 131.585 30.3853 131.915 29.796C132.591 28.548 133.128 27.7247 133.527 27.326C134.203 26.6153 135.017 26.26 135.971 26.26C136.681 26.26 137.245 26.4767 137.661 26.91C138.077 27.3433 138.233 27.9587 138.129 28.756C138.059 29.3453 137.834 29.822 137.453 30.186C137.071 30.5327 136.647 30.706 136.179 30.706C135.936 30.706 135.728 30.6453 135.555 30.524C135.399 30.3853 135.286 30.2467 135.217 30.108C135.165 29.952 135.078 29.8133 134.957 29.692C134.853 29.5533 134.723 29.484 134.567 29.484C134.515 29.484 134.463 29.4927 134.411 29.51C134.376 29.51 134.333 29.5273 134.281 29.562C134.246 29.5967 134.203 29.6313 134.151 29.666C134.116 29.6833 134.073 29.7267 134.021 29.796C133.986 29.848 133.951 29.8913 133.917 29.926C133.882 29.9607 133.839 30.0213 133.787 30.108C133.735 30.1773 133.691 30.238 133.657 30.29C133.639 30.3247 133.596 30.394 133.527 30.498C133.475 30.602 133.431 30.6713 133.397 30.706C132.738 31.7113 132.175 32.344 131.707 32.604C132.712 32.6907 133.449 32.968 133.917 33.436C134.402 33.904 134.783 34.5973 135.061 35.516C135.217 36.0707 135.39 36.4867 135.581 36.764C135.771 37.024 135.927 37.18 136.049 37.232C136.187 37.2667 136.395 37.2927 136.673 37.31C137.071 37.3447 137.253 37.57 137.219 37.986C137.167 38.3327 136.881 38.6273 136.361 38.87C135.858 39.0953 135.173 39.208 134.307 39.208C133.093 39.208 132.253 38.948 131.785 38.428C131.317 37.908 130.935 36.972 130.641 35.62C130.606 35.4813 130.563 35.2473 130.511 34.918C130.459 34.5887 130.407 34.346 130.355 34.19C130.32 34.034 130.225 33.8867 130.069 33.748C129.93 33.592 129.731 33.514 129.471 33.514C129.332 33.514 129.228 33.566 129.159 33.67C129.089 33.7567 129.029 33.956 128.977 34.268L128.873 35.178C128.821 35.5247 128.803 35.828 128.821 36.088C128.838 36.504 129.003 36.8767 129.315 37.206C129.644 37.518 129.783 37.856 129.731 38.22C129.661 38.74 129.211 39 128.379 39H123.673C123.222 39 122.893 38.9393 122.685 38.818C122.494 38.6967 122.416 38.48 122.451 38.168C122.485 37.8907 122.598 37.674 122.789 37.518C122.997 37.3447 123.222 37.154 123.465 36.946C123.707 36.7207 123.889 36.4347 124.011 36.088C124.132 35.6373 124.201 35.334 124.219 35.178L124.323 34.268C124.375 33.956 124.375 33.7567 124.323 33.67C124.271 33.566 124.167 33.514 124.011 33.514C123.803 33.514 123.621 33.5573 123.465 33.644C123.309 33.7133 123.17 33.8347 123.049 34.008C122.945 34.164 122.858 34.32 122.789 34.476C122.719 34.6147 122.633 34.8053 122.529 35.048C122.425 35.2907 122.338 35.4813 122.269 35.62C121.593 36.972 120.943 37.908 120.319 38.428C119.712 38.948 118.802 39.208 117.589 39.208ZM150.278 35.178C150.642 34.918 150.954 34.8747 151.214 35.048C151.491 35.2213 151.509 35.5073 151.266 35.906C150.677 36.894 149.836 37.7 148.744 38.324C147.669 38.948 146.43 39.26 145.026 39.26C143.206 39.26 141.802 38.7833 140.814 37.83C139.843 36.8767 139.358 35.568 139.358 33.904C139.358 31.8413 140.103 30.056 141.594 28.548C143.102 27.0227 144.913 26.26 147.028 26.26C148.415 26.26 149.524 26.598 150.356 27.274C151.188 27.9327 151.604 28.756 151.604 29.744C151.604 30.7147 151.197 31.5727 150.382 32.318C149.585 33.046 148.623 33.5747 147.496 33.904C146.387 34.216 145.269 34.346 144.142 34.294C144.575 35.542 145.555 36.166 147.08 36.166C148.311 36.166 149.377 35.8367 150.278 35.178ZM146.534 28.262C145.685 28.262 145.026 28.6693 144.558 29.484C144.09 30.2987 143.856 31.1393 143.856 32.006C143.856 32.266 144.003 32.396 144.298 32.396C145.217 32.4307 146.075 32.1967 146.872 31.694C147.687 31.174 148.077 30.498 148.042 29.666C148.025 29.2847 147.886 28.9553 147.626 28.678C147.366 28.4007 147.002 28.262 146.534 28.262ZM175.88 35.334C176.226 35.334 176.4 35.5507 176.4 35.984C176.4 36.7293 176.01 37.466 175.23 38.194C174.467 38.9047 173.436 39.26 172.136 39.26C171.269 39.26 170.602 38.9567 170.134 38.35C169.683 37.7433 169.562 36.816 169.77 35.568L170.264 32.812C170.541 31.4253 170.671 30.4807 170.654 29.978C170.654 29.458 170.446 29.198 170.03 29.198C169.874 29.198 169.7 29.2413 169.51 29.328C169.336 29.4147 169.111 29.614 168.834 29.926C168.574 30.2207 168.314 30.6193 168.054 31.122C167.794 31.6073 167.516 32.3093 167.222 33.228C166.944 34.1467 166.684 35.204 166.442 36.4L166.208 37.674C166.086 38.1593 165.792 38.454 165.324 38.558L162.308 39.26C162.048 39.312 161.848 39.2513 161.71 39.078C161.571 38.9047 161.528 38.6707 161.58 38.376L162.672 32.812C162.845 31.8933 162.94 31.174 162.958 30.654C162.992 30.1167 162.958 29.744 162.854 29.536C162.75 29.3107 162.568 29.198 162.308 29.198C162.152 29.198 161.987 29.2413 161.814 29.328C161.64 29.4147 161.424 29.614 161.164 29.926C160.904 30.2207 160.652 30.6193 160.41 31.122C160.184 31.6073 159.933 32.3093 159.656 33.228C159.378 34.1293 159.118 35.1867 158.876 36.4L158.616 37.674C158.512 38.1593 158.217 38.454 157.732 38.558L154.742 39.26C154.482 39.312 154.274 39.2513 154.118 39.078C153.979 38.9047 153.936 38.6707 153.988 38.376L155.236 30.836C155.305 30.4547 155.288 30.1513 155.184 29.926C155.097 29.6833 154.967 29.536 154.794 29.484C154.638 29.4147 154.49 29.3107 154.352 29.172C154.213 29.0333 154.144 28.86 154.144 28.652C154.144 28.392 154.3 28.132 154.612 27.872C154.924 27.612 155.582 27.274 156.588 26.858C157.697 26.442 158.477 26.234 158.928 26.234C159.586 26.234 159.881 26.5633 159.812 27.222L159.604 28.86C160.245 27.9587 160.964 27.3 161.762 26.884C162.576 26.4507 163.356 26.234 164.102 26.234C164.934 26.234 165.636 26.4593 166.208 26.91C166.78 27.3433 167.178 27.9413 167.404 28.704C167.958 27.9067 168.643 27.3 169.458 26.884C170.272 26.4507 171.113 26.234 171.98 26.234C173.141 26.234 174.025 26.754 174.632 27.794C175.256 28.8167 175.412 30.0907 175.1 31.616L174.424 34.762C174.32 35.282 174.285 35.6373 174.32 35.828C174.354 36.0187 174.467 36.114 174.658 36.114C174.831 36.114 175.039 35.984 175.282 35.724C175.542 35.464 175.741 35.334 175.88 35.334ZM199.307 35.36C199.654 35.36 199.827 35.5853 199.827 36.036C199.827 36.7467 199.428 37.466 198.631 38.194C197.851 38.9047 196.811 39.26 195.511 39.26C194.627 39.26 193.934 38.9653 193.431 38.376C192.946 37.7693 192.798 36.8507 192.989 35.62L193.301 33.462H189.609L189.063 37.648C188.994 38.1507 188.708 38.454 188.205 38.558L185.189 39.26C184.946 39.312 184.747 39.2513 184.591 39.078C184.452 38.9047 184.409 38.6707 184.461 38.376L185.475 30.862C185.527 30.4807 185.501 30.1773 185.397 29.952C185.31 29.7093 185.189 29.562 185.033 29.51C184.877 29.4407 184.73 29.3367 184.591 29.198C184.452 29.0593 184.383 28.886 184.383 28.678C184.383 28.4007 184.522 28.1407 184.799 27.898C185.094 27.638 185.666 27.352 186.515 27.04C187.902 26.5373 188.95 26.286 189.661 26.286C190.268 26.286 190.528 26.598 190.441 27.222L189.869 31.538H193.587L194.107 27.924C194.176 27.404 194.462 27.092 194.965 26.988L197.929 26.286C198.189 26.234 198.388 26.2947 198.527 26.468C198.666 26.6413 198.718 26.8667 198.683 27.144L197.617 34.762C197.461 35.646 197.617 36.088 198.085 36.088C198.258 36.088 198.466 35.9667 198.709 35.724C198.969 35.4813 199.168 35.36 199.307 35.36ZM212.965 35.178C213.329 34.918 213.641 34.8747 213.901 35.048C214.179 35.2213 214.196 35.5073 213.953 35.906C213.364 36.894 212.523 37.7 211.431 38.324C210.357 38.948 209.117 39.26 207.713 39.26C205.893 39.26 204.489 38.7833 203.501 37.83C202.531 36.8767 202.045 35.568 202.045 33.904C202.045 31.8413 202.791 30.056 204.281 28.548C205.789 27.0227 207.601 26.26 209.715 26.26C211.102 26.26 212.211 26.598 213.043 27.274C213.875 27.9327 214.291 28.756 214.291 29.744C214.291 30.7147 213.884 31.5727 213.069 32.318C212.272 33.046 211.31 33.5747 210.183 33.904C209.074 34.216 207.956 34.346 206.829 34.294C207.263 35.542 208.242 36.166 209.767 36.166C210.998 36.166 212.064 35.8367 212.965 35.178ZM209.221 28.262C208.372 28.262 207.713 28.6693 207.245 29.484C206.777 30.2987 206.543 31.1393 206.543 32.006C206.543 32.266 206.691 32.396 206.985 32.396C207.904 32.4307 208.762 32.1967 209.559 31.694C210.374 31.174 210.764 30.498 210.729 29.666C210.712 29.2847 210.573 28.9553 210.313 28.678C210.053 28.4007 209.689 28.262 209.221 28.262ZM55.2839 69.334C55.6306 69.334 55.8039 69.5507 55.8039 69.984C55.8039 70.7293 55.4139 71.466 54.6339 72.194C53.8713 72.9047 52.8399 73.26 51.5399 73.26C50.6733 73.26 50.0059 72.9567 49.5379 72.35C49.0873 71.7433 48.9659 70.816 49.1739 69.568L49.6679 66.812C49.9453 65.4253 50.0753 64.4807 50.0579 63.978C50.0579 63.458 49.8499 63.198 49.4339 63.198C49.2779 63.198 49.1046 63.2413 48.9139 63.328C48.7406 63.4147 48.5153 63.614 48.2379 63.926C47.9779 64.2207 47.7179 64.6193 47.4579 65.122C47.1979 65.6073 46.9206 66.3093 46.6259 67.228C46.3486 68.1467 46.0886 69.204 45.8459 70.4L45.6119 71.674C45.4906 72.1593 45.1959 72.454 44.7279 72.558L41.7119 73.26C41.4519 73.312 41.2526 73.2513 41.1139 73.078C40.9753 72.9047 40.9319 72.6707 40.9839 72.376L42.0759 66.812C42.2493 65.8933 42.3446 65.174 42.3619 64.654C42.3966 64.1167 42.3619 63.744 42.2579 63.536C42.1539 63.3107 41.9719 63.198 41.7119 63.198C41.5559 63.198 41.3913 63.2413 41.2179 63.328C41.0446 63.4147 40.8279 63.614 40.5679 63.926C40.3079 64.2207 40.0566 64.6193 39.8139 65.122C39.5886 65.6073 39.3373 66.3093 39.0599 67.228C38.7826 68.1293 38.5226 69.1867 38.2799 70.4L38.0199 71.674C37.9159 72.1593 37.6213 72.454 37.1359 72.558L34.1459 73.26C33.8859 73.312 33.6779 73.2513 33.5219 73.078C33.3833 72.9047 33.3399 72.6707 33.3919 72.376L34.6399 64.836C34.7093 64.4547 34.6919 64.1513 34.5879 63.926C34.5013 63.6833 34.3713 63.536 34.1979 63.484C34.0419 63.4147 33.8946 63.3107 33.7559 63.172C33.6173 63.0333 33.5479 62.86 33.5479 62.652C33.5479 62.392 33.7039 62.132 34.0159 61.872C34.3279 61.612 34.9866 61.274 35.9919 60.858C37.1013 60.442 37.8813 60.234 38.3319 60.234C38.9906 60.234 39.2853 60.5633 39.2159 61.222L39.0079 62.86C39.6493 61.9587 40.3686 61.3 41.1659 60.884C41.9806 60.4507 42.7606 60.234 43.5059 60.234C44.3379 60.234 45.0399 60.4593 45.6119 60.91C46.1839 61.3433 46.5826 61.9413 46.8079 62.704C47.3626 61.9067 48.0473 61.3 48.8619 60.884C49.6766 60.4507 50.5173 60.234 51.3839 60.234C52.5453 60.234 53.4293 60.754 54.0359 61.794C54.6599 62.8167 54.8159 64.0907 54.5039 65.616L53.8279 68.762C53.7239 69.282 53.6893 69.6373 53.7239 69.828C53.7586 70.0187 53.8713 70.114 54.0619 70.114C54.2353 70.114 54.4433 69.984 54.6859 69.724C54.9459 69.464 55.1453 69.334 55.2839 69.334ZM68.8261 60.182C69.5021 60.182 70.0047 60.416 70.3341 60.884C70.6634 61.3347 70.8281 61.872 70.8281 62.496C70.8281 63.9693 70.3687 65.798 69.4501 67.982C68.5487 70.166 67.7081 71.8647 66.9281 73.078C64.6747 76.666 62.1181 78.46 59.2581 78.46C58.1834 78.46 57.3601 78.2 56.7881 77.68C56.1987 77.16 55.9041 76.4927 55.9041 75.678C55.9041 74.9153 56.1034 74.326 56.5021 73.91C56.8834 73.494 57.3341 73.286 57.8541 73.286C58.1834 73.286 58.4867 73.39 58.7641 73.598C59.0414 73.8233 59.2407 74.1093 59.3621 74.456C59.3967 74.5427 59.4487 74.69 59.5181 74.898C59.5874 75.106 59.6307 75.2533 59.6481 75.34C59.6827 75.4267 59.7347 75.5393 59.8041 75.678C59.8907 75.8167 59.9774 75.912 60.0641 75.964C60.1507 76.016 60.2634 76.068 60.4021 76.12C60.5407 76.172 60.7054 76.198 60.8961 76.198C61.1907 76.198 61.4681 76.0853 61.7281 75.86C61.9881 75.652 62.1527 75.366 62.2221 75.002C62.3261 74.4473 62.2827 73.6413 62.0921 72.584C61.5894 70.036 60.7314 67.41 59.5181 64.706C59.2754 64.1513 59.0501 63.796 58.8421 63.64C58.6341 63.4667 58.3221 63.354 57.9061 63.302C57.6807 63.2847 57.5161 63.2153 57.4121 63.094C57.3081 62.9553 57.2561 62.8253 57.2561 62.704C57.2561 62.2013 57.7761 61.6727 58.8161 61.118C59.8561 60.546 60.7401 60.26 61.4681 60.26C62.1267 60.26 62.6294 60.676 62.9761 61.508C64.0854 64.212 65.0647 67.2713 65.9141 70.686C66.9887 68.866 67.5261 67.2193 67.5261 65.746C67.5261 65.2087 67.3441 64.602 66.9801 63.926C66.6334 63.2327 66.4601 62.7127 66.4601 62.366C66.4601 61.7593 66.7201 61.248 67.2401 60.832C67.7601 60.3987 68.2887 60.182 68.8261 60.182ZM86.6649 62.938C86.7169 66.0407 85.9629 68.5367 84.4029 70.426C82.8602 72.3153 80.8929 73.26 78.5009 73.26C76.8022 73.26 75.4156 72.766 74.3409 71.778C73.2836 70.79 72.7549 69.3773 72.7549 67.54C72.7549 65.4427 73.4309 63.7093 74.7829 62.34C76.1349 60.9707 77.7816 60.312 79.7229 60.364C80.7456 60.416 81.5082 60.6587 82.0109 61.092C81.4562 58.388 79.7836 56.6807 76.9929 55.97C76.4902 55.8487 76.2389 55.6493 76.2389 55.372C76.2389 54.8 76.9756 54.5053 78.4489 54.488C79.3502 54.4533 80.2602 54.592 81.1789 54.904C82.0976 55.1987 82.9729 55.6667 83.8049 56.308C84.6369 56.932 85.3129 57.8247 85.8329 58.986C86.3702 60.13 86.6476 61.4473 86.6649 62.938ZM78.8389 71.206C79.6882 71.206 80.3729 70.53 80.8929 69.178C81.4302 67.8087 81.6989 66.4133 81.6989 64.992C81.6989 63.2933 81.2482 62.444 80.3469 62.444C79.4802 62.444 78.7782 63.068 78.2409 64.316C77.7209 65.5467 77.4609 66.8987 77.4609 68.372C77.4609 70.2613 77.9202 71.206 78.8389 71.206ZM103.87 70.036C103.887 70.7467 103.506 71.466 102.726 72.194C101.963 72.9047 100.949 73.26 99.6838 73.26C99.0425 73.26 98.4791 73.0953 97.9938 72.766C97.5258 72.4193 97.2225 71.8993 97.0838 71.206C95.9398 72.5753 94.5791 73.26 93.0018 73.26C91.7018 73.26 90.6445 72.818 89.8298 71.934C89.0151 71.05 88.6078 69.9147 88.6078 68.528C88.6078 66.24 89.4138 64.29 91.0258 62.678C92.6378 61.066 94.4058 60.26 96.3298 60.26C96.9538 60.26 97.5518 60.3553 98.1238 60.546C98.7131 60.7193 99.0598 60.806 99.1638 60.806C99.3545 60.806 99.7618 60.702 100.386 60.494C101.027 60.286 101.478 60.182 101.738 60.182C102.084 60.182 102.344 60.2947 102.518 60.52C102.691 60.7453 102.76 60.9967 102.726 61.274L101.634 68.762C101.512 69.646 101.677 70.088 102.128 70.088C102.301 70.088 102.509 69.9667 102.752 69.724C103.012 69.4813 103.211 69.36 103.35 69.36C103.696 69.36 103.87 69.5853 103.87 70.036ZM94.6398 70.374C95.3505 70.374 95.9398 69.9233 96.4078 69.022C96.8758 68.1207 97.2138 66.994 97.4218 65.642C97.7685 63.3367 97.3438 62.184 96.1478 62.184C95.2811 62.184 94.5965 62.7473 94.0938 63.874C93.6085 64.9833 93.3485 66.3267 93.3138 67.904C93.2965 68.6147 93.4005 69.204 93.6258 69.672C93.8511 70.14 94.1891 70.374 94.6398 70.374ZM133.726 69.334C134.072 69.334 134.246 69.5507 134.246 69.984C134.246 70.7293 133.856 71.466 133.076 72.194C132.313 72.9047 131.282 73.26 129.982 73.26C129.115 73.26 128.448 72.9567 127.98 72.35C127.529 71.7433 127.408 70.816 127.616 69.568L128.11 66.812C128.387 65.4253 128.517 64.4807 128.5 63.978C128.5 63.458 128.292 63.198 127.876 63.198C127.72 63.198 127.546 63.2413 127.356 63.328C127.182 63.4147 126.957 63.614 126.68 63.926C126.42 64.2207 126.16 64.6193 125.9 65.122C125.64 65.6073 125.362 66.3093 125.068 67.228C124.79 68.1467 124.53 69.204 124.288 70.4L124.054 71.674C123.932 72.1593 123.638 72.454 123.17 72.558L120.154 73.26C119.894 73.312 119.694 73.2513 119.556 73.078C119.417 72.9047 119.374 72.6707 119.426 72.376L120.518 66.812C120.691 65.8933 120.786 65.174 120.804 64.654C120.838 64.1167 120.804 63.744 120.7 63.536C120.596 63.3107 120.414 63.198 120.154 63.198C119.998 63.198 119.833 63.2413 119.66 63.328C119.486 63.4147 119.27 63.614 119.01 63.926C118.75 64.2207 118.498 64.6193 118.256 65.122C118.03 65.6073 117.779 66.3093 117.502 67.228C117.224 68.1293 116.964 69.1867 116.722 70.4L116.462 71.674C116.358 72.1593 116.063 72.454 115.578 72.558L112.588 73.26C112.328 73.312 112.12 73.2513 111.964 73.078C111.825 72.9047 111.782 72.6707 111.834 72.376L113.082 64.836C113.151 64.4547 113.134 64.1513 113.03 63.926C112.943 63.6833 112.813 63.536 112.64 63.484C112.484 63.4147 112.336 63.3107 112.198 63.172C112.059 63.0333 111.99 62.86 111.99 62.652C111.99 62.392 112.146 62.132 112.458 61.872C112.77 61.612 113.428 61.274 114.434 60.858C115.543 60.442 116.323 60.234 116.774 60.234C117.432 60.234 117.727 60.5633 117.658 61.222L117.45 62.86C118.091 61.9587 118.81 61.3 119.608 60.884C120.422 60.4507 121.202 60.234 121.948 60.234C122.78 60.234 123.482 60.4593 124.054 60.91C124.626 61.3433 125.024 61.9413 125.25 62.704C125.804 61.9067 126.489 61.3 127.304 60.884C128.118 60.4507 128.959 60.234 129.826 60.234C130.987 60.234 131.871 60.754 132.478 61.794C133.102 62.8167 133.258 64.0907 132.946 65.616L132.27 68.762C132.166 69.282 132.131 69.6373 132.166 69.828C132.2 70.0187 132.313 70.114 132.504 70.114C132.677 70.114 132.885 69.984 133.128 69.724C133.388 69.464 133.587 69.334 133.726 69.334ZM145.5 63.588C146.505 63.588 147.346 63.9 148.022 64.524C148.698 65.1307 149.036 65.9193 149.036 66.89C149.036 68.1727 148.646 69.3167 147.866 70.322C147.103 71.3273 146.176 72.0727 145.084 72.558C144.009 73.026 142.917 73.26 141.808 73.26C140.005 73.26 138.688 72.844 137.856 72.012C137.024 71.1627 136.747 69.906 137.024 68.242L137.596 64.784C137.717 64.056 137.561 63.6053 137.128 63.432C136.712 63.1893 136.504 62.9293 136.504 62.652C136.504 62.4787 136.547 62.3227 136.634 62.184C136.721 62.028 136.955 61.8287 137.336 61.586C137.717 61.3433 138.255 61.1007 138.948 60.858C140.144 60.442 141.123 60.234 141.886 60.234C142.527 60.234 142.787 60.5633 142.666 61.222L142.094 64.914C143.117 64.03 144.252 63.588 145.5 63.588ZM156.524 70.036C156.541 70.7467 156.151 71.466 155.354 72.194C154.574 72.9047 153.534 73.26 152.234 73.26C151.35 73.26 150.657 72.9653 150.154 72.376C149.651 71.7693 149.495 70.8507 149.686 69.62L150.804 61.924C150.873 61.4213 151.168 61.1093 151.688 60.988L154.652 60.286C154.895 60.234 155.085 60.2947 155.224 60.468C155.38 60.6413 155.441 60.8667 155.406 61.144L154.314 68.762C154.193 69.646 154.357 70.088 154.808 70.088C154.981 70.088 155.189 69.9667 155.432 69.724C155.675 69.4813 155.865 69.36 156.004 69.36C156.351 69.36 156.524 69.5853 156.524 70.036ZM144.486 67.618C144.521 66.6647 144.217 66.188 143.576 66.188C143.021 66.188 142.536 66.6127 142.12 67.462C141.704 68.3113 141.505 69.1173 141.522 69.88C141.539 70.2787 141.635 70.6167 141.808 70.894C141.981 71.154 142.233 71.2753 142.562 71.258C143.082 71.258 143.533 70.868 143.914 70.088C144.295 69.308 144.486 68.4847 144.486 67.618ZM169.37 73.208C168.157 73.208 167.307 72.948 166.822 72.428C166.354 71.908 165.981 70.972 165.704 69.62C165.687 69.516 165.652 69.3253 165.6 69.048C165.565 68.7707 165.522 68.5713 165.47 68.45C165.435 68.3287 165.375 68.1813 165.288 68.008C165.201 67.8173 165.071 67.6873 164.898 67.618C164.742 67.5487 164.534 67.514 164.274 67.514C164.118 67.514 164.005 67.566 163.936 67.67C163.884 67.7567 163.832 67.9647 163.78 68.294L163.676 69.178C163.624 69.5247 163.607 69.828 163.624 70.088C163.641 70.504 163.806 70.8767 164.118 71.206C164.447 71.518 164.586 71.856 164.534 72.22C164.465 72.74 164.014 73 163.182 73H158.502C158.034 73 157.705 72.9393 157.514 72.818C157.306 72.6967 157.219 72.48 157.254 72.168C157.289 71.8907 157.41 71.674 157.618 71.518C157.809 71.3447 158.025 71.154 158.268 70.946C158.511 70.7207 158.693 70.4347 158.814 70.088C158.918 69.6373 158.987 69.334 159.022 69.178L159.672 64.342C159.724 63.9953 159.741 63.6833 159.724 63.406C159.707 62.99 159.533 62.626 159.204 62.314C158.892 62.002 158.762 61.664 158.814 61.3C158.883 60.78 159.334 60.52 160.166 60.52H164.846C165.314 60.52 165.643 60.5807 165.834 60.702C166.042 60.8233 166.129 61.0313 166.094 61.326C166.042 61.6553 165.799 61.9847 165.366 62.314C164.95 62.626 164.673 62.99 164.534 63.406C164.413 63.9433 164.343 64.2553 164.326 64.342L164.248 65.044C164.213 65.2867 164.222 65.434 164.274 65.486C164.326 65.538 164.465 65.564 164.69 65.564H164.95C165.349 65.564 165.713 65.382 166.042 65.018C166.389 64.654 166.701 64.212 166.978 63.692C167.255 63.172 167.559 62.652 167.888 62.132C168.217 61.612 168.651 61.17 169.188 60.806C169.725 60.442 170.341 60.26 171.034 60.26C171.745 60.26 172.308 60.4767 172.724 60.91C173.14 61.3433 173.287 61.9587 173.166 62.756C173.097 63.3627 172.871 63.8393 172.49 64.186C172.126 64.5327 171.71 64.706 171.242 64.706C170.999 64.706 170.791 64.6453 170.618 64.524C170.462 64.3853 170.349 64.2467 170.28 64.108C170.228 63.952 170.141 63.8133 170.02 63.692C169.916 63.5533 169.786 63.484 169.63 63.484C169.387 63.484 169.136 63.6833 168.876 64.082C168.633 64.4807 168.33 64.9487 167.966 65.486C167.602 66.0233 167.203 66.4047 166.77 66.63C167.775 66.7167 168.521 66.994 169.006 67.462C169.491 67.9127 169.864 68.5973 170.124 69.516C170.245 69.932 170.367 70.27 170.488 70.53C170.609 70.79 170.748 70.972 170.904 71.076C171.06 71.18 171.181 71.2493 171.268 71.284C171.372 71.3013 171.528 71.31 171.736 71.31C172.117 71.3447 172.291 71.57 172.256 71.986C172.204 72.3327 171.918 72.6273 171.398 72.87C170.895 73.0953 170.219 73.208 169.37 73.208ZM190.005 70.036C190.022 70.7467 189.641 71.466 188.861 72.194C188.098 72.9047 187.084 73.26 185.819 73.26C185.178 73.26 184.614 73.0953 184.129 72.766C183.661 72.4193 183.358 71.8993 183.219 71.206C182.075 72.5753 180.714 73.26 179.137 73.26C177.837 73.26 176.78 72.818 175.965 71.934C175.15 71.05 174.743 69.9147 174.743 68.528C174.743 66.24 175.549 64.29 177.161 62.678C178.773 61.066 180.541 60.26 182.465 60.26C183.089 60.26 183.687 60.3553 184.259 60.546C184.848 60.7193 185.195 60.806 185.299 60.806C185.49 60.806 185.897 60.702 186.521 60.494C187.162 60.286 187.613 60.182 187.873 60.182C188.22 60.182 188.48 60.2947 188.653 60.52C188.826 60.7453 188.896 60.9967 188.861 61.274L187.769 68.762C187.648 69.646 187.812 70.088 188.263 70.088C188.436 70.088 188.644 69.9667 188.887 69.724C189.147 69.4813 189.346 69.36 189.485 69.36C189.832 69.36 190.005 69.5853 190.005 70.036ZM180.775 70.374C181.486 70.374 182.075 69.9233 182.543 69.022C183.011 68.1207 183.349 66.994 183.557 65.642C183.904 63.3367 183.479 62.184 182.283 62.184C181.416 62.184 180.732 62.7473 180.229 63.874C179.744 64.9833 179.484 66.3267 179.449 67.904C179.432 68.6147 179.536 69.204 179.761 69.672C179.986 70.14 180.324 70.374 180.775 70.374ZM202.968 69.178C203.332 68.918 203.644 68.8747 203.904 69.048C204.181 69.2213 204.199 69.5073 203.956 69.906C203.367 70.894 202.526 71.7 201.434 72.324C200.359 72.948 199.12 73.26 197.716 73.26C195.896 73.26 194.492 72.7833 193.504 71.83C192.533 70.8767 192.048 69.568 192.048 67.904C192.048 65.8413 192.793 64.056 194.284 62.548C195.792 61.0227 197.603 60.26 199.718 60.26C201.105 60.26 202.214 60.598 203.046 61.274C203.878 61.9327 204.294 62.756 204.294 63.744C204.294 64.7147 203.887 65.5727 203.072 66.318C202.275 67.046 201.313 67.5747 200.186 67.904C199.077 68.216 197.959 68.346 196.832 68.294C197.265 69.542 198.245 70.166 199.77 70.166C201.001 70.166 202.067 69.8367 202.968 69.178ZM199.224 62.262C198.375 62.262 197.716 62.6693 197.248 63.484C196.78 64.2987 196.546 65.1393 196.546 66.006C196.546 66.266 196.693 66.396 196.988 66.396C197.907 66.4307 198.765 66.1967 199.562 65.694C200.377 65.174 200.767 64.498 200.732 63.666C200.715 63.2847 200.576 62.9553 200.316 62.678C200.056 62.4007 199.692 62.262 199.224 62.262ZM208.082 73.26C207.441 73.26 206.851 73.078 206.314 72.714C205.794 72.35 205.586 71.7693 205.69 70.972C205.777 70.452 205.993 70.0187 206.34 69.672C206.704 69.3253 207.085 69.152 207.484 69.152C207.813 69.152 208.073 69.23 208.264 69.386C208.472 69.542 208.602 69.7153 208.654 69.906C208.723 70.0793 208.819 70.244 208.94 70.4C209.061 70.556 209.217 70.634 209.408 70.634C209.807 70.634 210.197 69.9407 210.578 68.554C210.959 67.1673 211.237 65.928 211.41 64.836C211.531 64.056 211.384 63.5793 210.968 63.406C210.569 63.198 210.361 62.938 210.344 62.626C210.344 62.4527 210.379 62.2967 210.448 62.158C210.535 62.0193 210.769 61.8287 211.15 61.586C211.549 61.3433 212.112 61.092 212.84 60.832C214.036 60.4333 215.102 60.234 216.038 60.234C216.541 60.234 216.827 60.572 216.896 61.248C217.087 62.964 217.451 64.8533 217.988 66.916L220.536 62.106C220.571 62.0193 220.623 61.924 220.692 61.82C220.779 61.6987 220.909 61.56 221.082 61.404C221.273 61.248 221.481 61.1267 221.706 61.04C222.833 60.5547 224.003 60.2947 225.216 60.26C225.476 60.2427 225.675 60.312 225.814 60.468C225.953 60.624 226.005 60.8407 225.97 61.118L224.93 68.71C224.861 69.23 224.861 69.594 224.93 69.802C224.999 69.9927 225.138 70.088 225.346 70.088C225.519 70.088 225.727 69.9667 225.97 69.724C226.213 69.4813 226.403 69.36 226.542 69.36C226.889 69.36 227.062 69.5853 227.062 70.036C227.079 70.7467 226.689 71.466 225.892 72.194C225.112 72.9047 224.072 73.26 222.772 73.26C220.657 73.26 219.791 72.0207 220.172 69.542L220.848 65.174L217.78 71.024C217.503 71.4747 216.983 71.8127 216.22 72.038C215.284 72.298 214.703 72.1073 214.478 71.466C213.871 69.4727 213.455 67.41 213.23 65.278C213.022 66.3873 212.589 68.1033 211.93 70.426C211.15 72.3153 209.867 73.26 208.082 73.26ZM235.301 66.006C235.197 66.5087 234.963 66.838 234.599 66.994C234.252 67.1327 233.932 67.0633 233.637 66.786C233.36 66.5087 233.264 66.084 233.351 65.512C233.49 64.524 233.828 63.588 234.365 62.704C234.92 61.8027 235.457 60.962 235.977 60.182C236.514 59.3847 236.835 58.622 236.939 57.894C237.043 57.0793 236.766 56.672 236.107 56.672C235.795 56.672 235.526 56.7847 235.301 57.01C235.093 57.2353 234.868 57.5733 234.625 58.024C234.4 58.4573 234.226 58.7607 234.105 58.934C234.088 58.9513 234.001 59.064 233.845 59.272C233.706 59.4627 233.611 59.584 233.559 59.636C233.524 59.688 233.429 59.792 233.273 59.948C233.134 60.0867 233.004 60.1907 232.883 60.26C232.779 60.312 232.632 60.364 232.441 60.416C232.268 60.468 232.077 60.494 231.869 60.494C231.106 60.494 230.595 60.2947 230.335 59.896C230.075 59.48 229.98 59.012 230.049 58.492C230.205 57.3653 230.829 56.4293 231.921 55.684C233.013 54.9213 234.521 54.54 236.445 54.54C238.265 54.54 239.634 54.8867 240.553 55.58C241.472 56.2733 241.853 57.1833 241.697 58.31C241.61 58.934 241.342 59.5493 240.891 60.156C240.458 60.7627 239.99 61.2567 239.487 61.638C239.002 62.0193 238.447 62.444 237.823 62.912C237.199 63.3627 236.766 63.718 236.523 63.978C236.402 64.0993 236.176 64.42 235.847 64.94C235.535 65.4427 235.353 65.798 235.301 66.006ZM233.793 73.364C233.169 73.364 232.658 73.182 232.259 72.818C231.86 72.4367 231.661 71.8993 231.661 71.206C231.661 70.3913 231.938 69.7327 232.493 69.23C233.065 68.7273 233.715 68.476 234.443 68.476C235.05 68.476 235.552 68.6753 235.951 69.074C236.367 69.4553 236.575 69.9927 236.575 70.686C236.575 71.5007 236.298 72.1507 235.743 72.636C235.206 73.1213 234.556 73.364 233.793 73.364Z" fill="#FFC6F9"/>
</svg>
