<svg width="270" height="79" viewBox="0 0 270 79" fill="none" xmlns="http://www.w3.org/2000/svg">
<path d="M226.791 65.1064C235.625 78.7256 260.818 63.5211 268.535 56.8266C246.285 56.1351 229.681 38.9381 224.16 30.4261C223.873 34.5714 217.958 51.4871 226.791 65.1064Z" fill="#FFC6F9"/>
<rect x="1.54273" y="1.54273" width="245.915" height="75.9146" rx="37.9573" fill="#6932FF" stroke="#FFC6F9" stroke-width="3.08545"/>
<path d="M65.4329 29.0444H62.5089C62.2709 29.0444 62.1066 29.0047 62.0159 28.9254C61.9366 28.8461 61.9422 28.7044 62.0329 28.5004L62.2029 28.1264C62.2936 27.9111 62.3899 27.7637 62.4919 27.6844C62.6052 27.6051 62.7752 27.5654 63.0019 27.5654H65.9259C66.1639 27.5654 66.3226 27.6051 66.4019 27.6844C66.4926 27.7637 66.4926 27.9054 66.4019 28.1094L66.2319 28.4834C66.1412 28.6987 66.0392 28.8461 65.9259 28.9254C65.8239 29.0047 65.6596 29.0444 65.4329 29.0444ZM74.0438 33.2434H72.1908C71.8508 33.2434 71.6241 33.2094 71.5108 33.1414C71.4088 33.0621 71.3691 32.9204 71.3918 32.7164C71.4145 32.5577 71.5165 32.4104 71.6978 32.2744C71.8905 32.1271 72.0888 31.9571 72.2928 31.7644C72.4968 31.5604 72.6271 31.3224 72.6838 31.0504L74.0438 23.8424C74.1005 23.5704 74.0835 23.3437 73.9928 23.1624C73.9135 22.9811 73.8058 22.8564 73.6698 22.7884C73.5451 22.7091 73.4318 22.6014 73.3298 22.4654C73.2278 22.3181 73.1881 22.1481 73.2108 21.9554C73.2561 21.7287 73.3581 21.5701 73.5168 21.4794C73.6868 21.3887 73.9418 21.3434 74.2818 21.3434H76.8658C77.2511 21.3434 77.5061 21.5247 77.6308 21.8874L79.4498 27.9904L83.2238 21.9044C83.4618 21.5304 83.7621 21.3434 84.1248 21.3434H86.5898C86.9411 21.3434 87.1848 21.3887 87.3208 21.4794C87.4568 21.5701 87.5078 21.7287 87.4738 21.9554C87.4398 22.1481 87.3548 22.3181 87.2188 22.4654C87.0828 22.6014 86.9411 22.7091 86.7938 22.7884C86.6465 22.8564 86.5048 22.9811 86.3688 23.1624C86.2328 23.3437 86.1478 23.5704 86.1138 23.8424L85.4508 30.3534C85.4168 30.6707 85.4338 30.9314 85.5018 31.1354C85.5698 31.3281 85.6605 31.4697 85.7738 31.5604C85.8871 31.6511 86.0005 31.7361 86.1138 31.8154C86.2271 31.8834 86.3178 31.9854 86.3858 32.1214C86.4538 32.2461 86.4765 32.4161 86.4538 32.6314C86.4198 32.8581 86.3178 33.0167 86.1478 33.1074C85.9891 33.1981 85.7058 33.2434 85.2978 33.2434H81.9318C81.5465 33.2434 81.2801 33.1981 81.1328 33.1074C80.9968 33.0167 80.9458 32.8581 80.9798 32.6314C81.0138 32.4047 81.0931 32.2121 81.2178 32.0534C81.3425 31.8947 81.4728 31.7757 81.6088 31.6964C81.7561 31.6171 81.8978 31.4641 82.0338 31.2374C82.1698 31.0107 82.2605 30.7161 82.3058 30.3534L82.9518 25.1854L78.8038 31.9854C78.6111 32.3254 78.3278 32.5294 77.9538 32.5974C77.5685 32.6767 77.3248 32.5464 77.2228 32.2064L75.2508 25.3044L74.2818 31.0504C74.2251 31.4017 74.3215 31.7247 74.5708 32.0194C74.8315 32.3027 74.9448 32.5407 74.9108 32.7334C74.8881 32.9374 74.8088 33.0734 74.6728 33.1414C74.5481 33.2094 74.3385 33.2434 74.0438 33.2434ZM94.3403 27.0894C94.9977 27.0894 95.5473 27.2934 95.9893 27.7014C96.4313 28.0981 96.6523 28.6137 96.6523 29.2484C96.6523 30.0871 96.3973 30.8351 95.8873 31.4924C95.3887 32.1497 94.7823 32.6371 94.0683 32.9544C93.3657 33.2604 92.6517 33.4134 91.9263 33.4134C90.7477 33.4134 89.8863 33.1414 89.3423 32.5974C88.7983 32.0421 88.617 31.2204 88.7983 30.1324L89.1723 27.8714C89.2517 27.3954 89.1497 27.1007 88.8663 26.9874C88.5943 26.8287 88.4583 26.6587 88.4583 26.4774C88.4583 26.3641 88.4867 26.2621 88.5433 26.1714C88.6 26.0694 88.753 25.9391 89.0023 25.7804C89.2517 25.6217 89.603 25.4631 90.0563 25.3044C90.8383 25.0324 91.4787 24.8964 91.9773 24.8964C92.3967 24.8964 92.5667 25.1117 92.4873 25.5424L92.1133 27.9564C92.782 27.3784 93.5243 27.0894 94.3403 27.0894ZM101.548 31.3054C101.56 31.7701 101.305 32.2404 100.783 32.7164C100.273 33.1811 99.5933 33.4134 98.7433 33.4134C98.1653 33.4134 97.712 33.2207 97.3833 32.8354C97.0547 32.4387 96.9527 31.8381 97.0773 31.0334L97.8083 26.0014C97.8537 25.6727 98.0463 25.4687 98.3863 25.3894L100.324 24.9304C100.483 24.8964 100.608 24.9361 100.698 25.0494C100.8 25.1627 100.84 25.3101 100.817 25.4914L100.103 30.4724C100.024 31.0504 100.132 31.3394 100.426 31.3394C100.54 31.3394 100.676 31.2601 100.834 31.1014C100.993 30.9427 101.118 30.8634 101.208 30.8634C101.435 30.8634 101.548 31.0107 101.548 31.3054ZM93.6773 29.7244C93.7 29.1011 93.5017 28.7894 93.0823 28.7894C92.7197 28.7894 92.4023 29.0671 92.1303 29.6224C91.8583 30.1777 91.728 30.7047 91.7393 31.2034C91.7507 31.4641 91.813 31.6851 91.9263 31.8664C92.0397 32.0364 92.204 32.1157 92.4193 32.1044C92.7593 32.1044 93.054 31.8494 93.3033 31.3394C93.5527 30.8294 93.6773 30.2911 93.6773 29.7244ZM120.865 30.8464C121.092 30.8464 121.205 30.9881 121.205 31.2714C121.205 31.7587 120.95 32.2404 120.44 32.7164C119.941 33.1811 119.267 33.4134 118.417 33.4134C117.85 33.4134 117.414 33.2151 117.108 32.8184C116.813 32.4217 116.734 31.8154 116.87 30.9994L117.193 29.1974C117.374 28.2907 117.459 27.6731 117.448 27.3444C117.448 27.0044 117.312 26.8344 117.04 26.8344C116.938 26.8344 116.825 26.8627 116.7 26.9194C116.587 26.9761 116.439 27.1064 116.258 27.3104C116.088 27.5031 115.918 27.7637 115.748 28.0924C115.578 28.4097 115.397 28.8687 115.204 29.4694C115.023 30.0701 114.853 30.7614 114.694 31.5434L114.541 32.3764C114.462 32.6937 114.269 32.8864 113.963 32.9544L111.991 33.4134C111.821 33.4474 111.691 33.4077 111.6 33.2944C111.509 33.1811 111.481 33.0281 111.515 32.8354L112.229 29.1974C112.342 28.5967 112.405 28.1264 112.416 27.7864C112.439 27.4351 112.416 27.1914 112.348 27.0554C112.28 26.9081 112.161 26.8344 111.991 26.8344C111.889 26.8344 111.781 26.8627 111.668 26.9194C111.555 26.9761 111.413 27.1064 111.243 27.3104C111.073 27.5031 110.909 27.7637 110.75 28.0924C110.603 28.4097 110.438 28.8687 110.257 29.4694C110.076 30.0587 109.906 30.7501 109.747 31.5434L109.577 32.3764C109.509 32.6937 109.316 32.8864 108.999 32.9544L107.044 33.4134C106.874 33.4474 106.738 33.4077 106.636 33.2944C106.545 33.1811 106.517 33.0281 106.551 32.8354L107.367 27.9054C107.412 27.6561 107.401 27.4577 107.333 27.3104C107.276 27.1517 107.191 27.0554 107.078 27.0214C106.976 26.9761 106.88 26.9081 106.789 26.8174C106.698 26.7267 106.653 26.6134 106.653 26.4774C106.653 26.3074 106.755 26.1374 106.959 25.9674C107.163 25.7974 107.594 25.5764 108.251 25.3044C108.976 25.0324 109.486 24.8964 109.781 24.8964C110.212 24.8964 110.404 25.1117 110.359 25.5424L110.223 26.6134C110.642 26.0241 111.113 25.5934 111.634 25.3214C112.167 25.0381 112.677 24.8964 113.164 24.8964C113.708 24.8964 114.167 25.0437 114.541 25.3384C114.915 25.6217 115.176 26.0127 115.323 26.5114C115.686 25.9901 116.133 25.5934 116.666 25.3214C117.199 25.0381 117.748 24.8964 118.315 24.8964C119.074 24.8964 119.652 25.2364 120.049 25.9164C120.457 26.5851 120.559 27.4181 120.355 28.4154L119.913 30.4724C119.845 30.8124 119.822 31.0447 119.845 31.1694C119.868 31.2941 119.941 31.3564 120.066 31.3564C120.179 31.3564 120.315 31.2714 120.474 31.1014C120.644 30.9314 120.774 30.8464 120.865 30.8464ZM128.563 27.0894C129.221 27.0894 129.77 27.2934 130.212 27.7014C130.654 28.0981 130.875 28.6137 130.875 29.2484C130.875 30.0871 130.62 30.8351 130.11 31.4924C129.612 32.1497 129.005 32.6371 128.291 32.9544C127.589 33.2604 126.875 33.4134 126.149 33.4134C124.971 33.4134 124.109 33.1414 123.565 32.5974C123.021 32.0421 122.84 31.2204 123.021 30.1324L123.395 27.8714C123.475 27.3954 123.373 27.1007 123.089 26.9874C122.817 26.8287 122.681 26.6587 122.681 26.4774C122.681 26.3641 122.71 26.2621 122.766 26.1714C122.823 26.0694 122.976 25.9391 123.225 25.7804C123.475 25.6217 123.826 25.4631 124.279 25.3044C125.061 25.0324 125.702 24.8964 126.2 24.8964C126.62 24.8964 126.79 25.1117 126.71 25.5424L126.336 27.9564C127.005 27.3784 127.747 27.0894 128.563 27.0894ZM135.771 31.3054C135.783 31.7701 135.528 32.2404 135.006 32.7164C134.496 33.1811 133.816 33.4134 132.966 33.4134C132.388 33.4134 131.935 33.2207 131.606 32.8354C131.278 32.4387 131.176 31.8381 131.3 31.0334L132.031 26.0014C132.077 25.6727 132.269 25.4687 132.609 25.3894L134.547 24.9304C134.706 24.8964 134.831 24.9361 134.921 25.0494C135.023 25.1627 135.063 25.3101 135.04 25.4914L134.326 30.4724C134.247 31.0504 134.355 31.3394 134.649 31.3394C134.763 31.3394 134.899 31.2601 135.057 31.1014C135.216 30.9427 135.341 30.8634 135.431 30.8634C135.658 30.8634 135.771 31.0107 135.771 31.3054ZM127.9 29.7244C127.923 29.1011 127.725 28.7894 127.305 28.7894C126.943 28.7894 126.625 29.0671 126.353 29.6224C126.081 30.1777 125.951 30.7047 125.962 31.2034C125.974 31.4641 126.036 31.6851 126.149 31.8664C126.263 32.0364 126.427 32.1157 126.642 32.1044C126.982 32.1044 127.277 31.8494 127.526 31.3394C127.776 30.8294 127.9 30.2911 127.9 29.7244ZM144.171 33.3794C143.377 33.3794 142.822 33.2094 142.505 32.8694C142.199 32.5294 141.955 31.9174 141.774 31.0334C141.762 30.9654 141.74 30.8407 141.706 30.6594C141.683 30.4781 141.655 30.3477 141.621 30.2684C141.598 30.1891 141.558 30.0927 141.502 29.9794C141.445 29.8547 141.36 29.7697 141.247 29.7244C141.145 29.6791 141.009 29.6564 140.839 29.6564C140.737 29.6564 140.663 29.6904 140.618 29.7584C140.584 29.8151 140.55 29.9511 140.516 30.1664L140.448 30.7444C140.414 30.9711 140.402 31.1694 140.414 31.3394C140.425 31.6114 140.533 31.8551 140.737 32.0704C140.952 32.2744 141.043 32.4954 141.009 32.7334C140.963 33.0734 140.669 33.2434 140.125 33.2434H137.065C136.759 33.2434 136.543 33.2037 136.419 33.1244C136.283 33.0451 136.226 32.9034 136.249 32.6994C136.271 32.5181 136.351 32.3764 136.487 32.2744C136.611 32.1611 136.753 32.0364 136.912 31.9004C137.07 31.7531 137.189 31.5661 137.269 31.3394C137.337 31.0447 137.382 30.8464 137.405 30.7444L137.83 27.5824C137.864 27.3557 137.875 27.1517 137.864 26.9704C137.852 26.6984 137.739 26.4604 137.524 26.2564C137.32 26.0524 137.235 25.8314 137.269 25.5934C137.314 25.2534 137.609 25.0834 138.153 25.0834H141.213C141.519 25.0834 141.734 25.1231 141.859 25.2024C141.995 25.2817 142.051 25.4177 142.029 25.6104C141.995 25.8257 141.836 26.0411 141.553 26.2564C141.281 26.4604 141.099 26.6984 141.009 26.9704C140.929 27.3217 140.884 27.5257 140.873 27.5824L140.822 28.0414C140.799 28.2001 140.805 28.2964 140.839 28.3304C140.873 28.3644 140.963 28.3814 141.111 28.3814H141.281C141.541 28.3814 141.779 28.2624 141.995 28.0244C142.221 27.7864 142.425 27.4974 142.607 27.1574C142.788 26.8174 142.986 26.4774 143.202 26.1374C143.417 25.7974 143.7 25.5084 144.052 25.2704C144.403 25.0324 144.805 24.9134 145.259 24.9134C145.723 24.9134 146.092 25.0551 146.364 25.3384C146.636 25.6217 146.732 26.0241 146.653 26.5454C146.607 26.9421 146.46 27.2537 146.211 27.4804C145.973 27.7071 145.701 27.8204 145.395 27.8204C145.236 27.8204 145.1 27.7807 144.987 27.7014C144.885 27.6107 144.811 27.5201 144.766 27.4294C144.732 27.3274 144.675 27.2367 144.596 27.1574C144.528 27.0667 144.443 27.0214 144.341 27.0214C144.182 27.0214 144.018 27.1517 143.848 27.4124C143.689 27.6731 143.491 27.9791 143.253 28.3304C143.015 28.6817 142.754 28.9311 142.471 29.0784C143.128 29.1351 143.615 29.3164 143.933 29.6224C144.25 29.9171 144.494 30.3647 144.664 30.9654C144.743 31.2374 144.822 31.4584 144.902 31.6284C144.981 31.7984 145.072 31.9174 145.174 31.9854C145.276 32.0534 145.355 32.0987 145.412 32.1214C145.48 32.1327 145.582 32.1384 145.718 32.1384C145.967 32.1611 146.08 32.3084 146.058 32.5804C146.024 32.8071 145.837 32.9997 145.497 33.1584C145.168 33.3057 144.726 33.3794 144.171 33.3794ZM157.663 31.3054C157.674 31.7701 157.425 32.2404 156.915 32.7164C156.416 33.1811 155.753 33.4134 154.926 33.4134C154.507 33.4134 154.138 33.3057 153.821 33.0904C153.515 32.8637 153.317 32.5237 153.226 32.0704C152.478 32.9657 151.588 33.4134 150.557 33.4134C149.707 33.4134 149.016 33.1244 148.483 32.5464C147.95 31.9684 147.684 31.2261 147.684 30.3194C147.684 28.8234 148.211 27.5484 149.265 26.4944C150.319 25.4404 151.475 24.9134 152.733 24.9134C153.141 24.9134 153.532 24.9757 153.906 25.1004C154.291 25.2137 154.518 25.2704 154.586 25.2704C154.711 25.2704 154.977 25.2024 155.385 25.0664C155.804 24.9304 156.099 24.8624 156.269 24.8624C156.496 24.8624 156.666 24.9361 156.779 25.0834C156.892 25.2307 156.938 25.3951 156.915 25.5764L156.201 30.4724C156.122 31.0504 156.229 31.3394 156.524 31.3394C156.637 31.3394 156.773 31.2601 156.932 31.1014C157.102 30.9427 157.232 30.8634 157.323 30.8634C157.55 30.8634 157.663 31.0107 157.663 31.3054ZM151.628 31.5264C152.093 31.5264 152.478 31.2317 152.784 30.6424C153.09 30.0531 153.311 29.3164 153.447 28.4324C153.674 26.9251 153.396 26.1714 152.614 26.1714C152.047 26.1714 151.6 26.5397 151.271 27.2764C150.954 28.0017 150.784 28.8801 150.761 29.9114C150.75 30.3761 150.818 30.7614 150.965 31.0674C151.112 31.3734 151.333 31.5264 151.628 31.5264ZM166.139 30.7444C166.377 30.5744 166.581 30.5461 166.751 30.6594C166.932 30.7727 166.943 30.9597 166.785 31.2204C166.399 31.8664 165.85 32.3934 165.136 32.8014C164.433 33.2094 163.623 33.4134 162.705 33.4134C161.515 33.4134 160.597 33.1017 159.951 32.4784C159.316 31.8551 158.999 30.9994 158.999 29.9114C158.999 28.5627 159.486 27.3954 160.461 26.4094C161.447 25.4121 162.631 24.9134 164.014 24.9134C164.92 24.9134 165.646 25.1344 166.19 25.5764C166.734 26.0071 167.006 26.5454 167.006 27.1914C167.006 27.8261 166.739 28.3871 166.207 28.8744C165.685 29.3504 165.056 29.6961 164.32 29.9114C163.594 30.1154 162.863 30.2004 162.127 30.1664C162.41 30.9824 163.05 31.3904 164.048 31.3904C164.852 31.3904 165.549 31.1751 166.139 30.7444ZM163.691 26.2224C163.135 26.2224 162.705 26.4887 162.399 27.0214C162.093 27.5541 161.94 28.1037 161.94 28.6704C161.94 28.8404 162.036 28.9254 162.229 28.9254C162.829 28.9481 163.39 28.7951 163.912 28.4664C164.444 28.1264 164.699 27.6844 164.677 27.1404C164.665 26.8911 164.575 26.6757 164.405 26.4944C164.235 26.3131 163.997 26.2224 163.691 26.2224ZM169.482 33.4134C169.063 33.4134 168.678 33.2944 168.326 33.0564C167.986 32.8184 167.85 32.4387 167.918 31.9174C167.975 31.5774 168.117 31.2941 168.343 31.0674C168.581 30.8407 168.831 30.7274 169.091 30.7274C169.307 30.7274 169.477 30.7784 169.601 30.8804C169.737 30.9824 169.822 31.0957 169.856 31.2204C169.902 31.3337 169.964 31.4414 170.043 31.5434C170.123 31.6454 170.225 31.6964 170.349 31.6964C170.61 31.6964 170.865 31.2431 171.114 30.3364C171.364 29.4297 171.545 28.6194 171.658 27.9054C171.738 27.3954 171.641 27.0837 171.369 26.9704C171.109 26.8344 170.973 26.6644 170.961 26.4604C170.961 26.3471 170.984 26.2451 171.029 26.1544C171.086 26.0637 171.239 25.9391 171.488 25.7804C171.749 25.6217 172.117 25.4574 172.593 25.2874C173.375 25.0267 174.072 24.8964 174.684 24.8964C175.013 24.8964 175.2 25.1174 175.245 25.5594C175.37 26.6814 175.608 27.9167 175.959 29.2654L177.625 26.1204C177.648 26.0637 177.682 26.0014 177.727 25.9334C177.784 25.8541 177.869 25.7634 177.982 25.6614C178.107 25.5594 178.243 25.4801 178.39 25.4234C179.127 25.1061 179.892 24.9361 180.685 24.9134C180.855 24.9021 180.986 24.9474 181.076 25.0494C181.167 25.1514 181.201 25.2931 181.178 25.4744L180.498 30.4384C180.453 30.7784 180.453 31.0164 180.498 31.1524C180.544 31.2771 180.634 31.3394 180.77 31.3394C180.884 31.3394 181.02 31.2601 181.178 31.1014C181.337 30.9427 181.462 30.8634 181.552 30.8634C181.779 30.8634 181.892 31.0107 181.892 31.3054C181.904 31.7701 181.649 32.2404 181.127 32.7164C180.617 33.1811 179.937 33.4134 179.087 33.4134C177.705 33.4134 177.138 32.6031 177.387 30.9824L177.829 28.1264L175.823 31.9514C175.642 32.2461 175.302 32.4671 174.803 32.6144C174.191 32.7844 173.812 32.6597 173.664 32.2404C173.268 30.9371 172.996 29.5884 172.848 28.1944C172.712 28.9197 172.429 30.0417 171.998 31.5604C171.488 32.7957 170.65 33.4134 169.482 33.4134ZM183.693 35.9464C183.579 35.9464 183.483 35.9124 183.404 35.8444C183.336 35.7877 183.302 35.7141 183.302 35.6234C183.302 35.5101 183.37 35.3797 183.506 35.2324C183.653 35.0964 183.8 34.9321 183.948 34.7394C184.095 34.5581 184.169 34.3541 184.169 34.1274C184.169 33.9007 184.021 33.5947 183.727 33.2094C183.443 32.8241 183.302 32.4217 183.302 32.0024C183.302 31.4584 183.489 31.0277 183.863 30.7104C184.237 30.3817 184.662 30.2174 185.138 30.2174C185.614 30.2174 185.999 30.3817 186.294 30.7104C186.6 31.0277 186.753 31.4811 186.753 32.0704C186.753 33.0224 186.396 33.9064 185.682 34.7224C184.979 35.5384 184.316 35.9464 183.693 35.9464ZM52.7361 53.3054C52.7474 53.7701 52.4981 54.2404 51.9881 54.7164C51.4894 55.1811 50.8264 55.4134 49.9991 55.4134C49.5798 55.4134 49.2114 55.3057 48.8941 55.0904C48.5881 54.8637 48.3898 54.5237 48.2991 54.0704C47.5511 54.9657 46.6614 55.4134 45.6301 55.4134C44.7801 55.4134 44.0888 55.1244 43.5561 54.5464C43.0234 53.9684 42.7571 53.2261 42.7571 52.3194C42.7571 50.8234 43.2841 49.5484 44.3381 48.4944C45.3921 47.4404 46.5481 46.9134 47.8061 46.9134C48.2141 46.9134 48.6051 46.9757 48.9791 47.1004C49.3644 47.2137 49.5911 47.2704 49.6591 47.2704C49.7838 47.2704 50.0501 47.2024 50.4581 47.0664C50.8774 46.9304 51.1721 46.8624 51.3421 46.8624C51.5688 46.8624 51.7388 46.9361 51.8521 47.0834C51.9654 47.2307 52.0108 47.3951 51.9881 47.5764L51.2741 52.4724C51.1948 53.0504 51.3024 53.3394 51.5971 53.3394C51.7104 53.3394 51.8464 53.2601 52.0051 53.1014C52.1751 52.9427 52.3054 52.8634 52.3961 52.8634C52.6228 52.8634 52.7361 53.0107 52.7361 53.3054ZM46.7011 53.5264C47.1658 53.5264 47.5511 53.2317 47.8571 52.6424C48.1631 52.0531 48.3841 51.3164 48.5201 50.4324C48.7468 48.9251 48.4691 48.1714 47.6871 48.1714C47.1204 48.1714 46.6728 48.5397 46.3441 49.2764C46.0268 50.0017 45.8568 50.8801 45.8341 51.9114C45.8228 52.3761 45.8908 52.7614 46.0381 53.0674C46.1854 53.3734 46.4064 53.5264 46.7011 53.5264ZM62.1423 55.4304C60.8843 55.4304 59.9039 55.1074 59.2013 54.4614C58.4986 53.8041 58.1473 52.9031 58.1473 51.7584C58.1473 50.4097 58.6629 49.2651 59.6943 48.3244C60.7256 47.3724 61.9496 46.8964 63.3663 46.8964C64.5789 46.8964 65.5366 47.2307 66.2393 47.8994C66.9419 48.5681 67.2933 49.4351 67.2933 50.5004C67.2933 51.9511 66.8003 53.1354 65.8143 54.0534C64.8283 54.9714 63.6043 55.4304 62.1423 55.4304ZM62.2443 54.0874C62.7656 54.0874 63.1906 53.6624 63.5193 52.8124C63.8479 51.9511 64.0123 51.0614 64.0123 50.1434C64.0123 48.8627 63.6949 48.2224 63.0603 48.2224C62.5163 48.2224 62.0799 48.6304 61.7513 49.4464C61.4339 50.2511 61.2639 51.1407 61.2413 52.1154C61.2753 53.4301 61.6096 54.0874 62.2443 54.0874ZM78.486 52.8634C78.7127 52.8634 78.826 53.0107 78.826 53.3054C78.826 53.7701 78.5654 54.2404 78.044 54.7164C77.534 55.1811 76.854 55.4134 76.004 55.4134C75.426 55.4134 74.9727 55.2207 74.644 54.8354C74.3267 54.4387 74.2304 53.8381 74.355 53.0334L74.559 51.6224H72.145L71.788 54.3594C71.7427 54.6881 71.5557 54.8864 71.227 54.9544L69.255 55.4134C69.0964 55.4474 68.966 55.4077 68.864 55.2944C68.7734 55.1811 68.745 55.0281 68.779 54.8354L69.442 49.9224C69.476 49.6731 69.459 49.4747 69.391 49.3274C69.3344 49.1687 69.255 49.0724 69.153 49.0384C69.051 48.9931 68.9547 48.9251 68.864 48.8344C68.7734 48.7437 68.728 48.6304 68.728 48.4944C68.728 48.3131 68.8187 48.1431 69 47.9844C69.1927 47.8144 69.5667 47.6274 70.122 47.4234C71.0287 47.0947 71.7144 46.9304 72.179 46.9304C72.5757 46.9304 72.7457 47.1344 72.689 47.5424L72.315 50.3644H74.746L75.086 48.0014C75.1314 47.6614 75.3184 47.4574 75.647 47.3894L77.585 46.9304C77.755 46.8964 77.8854 46.9361 77.976 47.0494C78.0667 47.1627 78.1007 47.3101 78.078 47.4914L77.381 52.4724C77.279 53.0504 77.381 53.3394 77.687 53.3394C77.8004 53.3394 77.9364 53.2601 78.095 53.1014C78.265 52.9427 78.3954 52.8634 78.486 52.8634ZM93.6758 52.8634C93.9025 52.8634 94.0158 53.0107 94.0158 53.3054C94.0158 53.7701 93.7551 54.2404 93.2338 54.7164C92.7238 55.1811 92.0438 55.4134 91.1938 55.4134C90.6158 55.4134 90.1625 55.2207 89.8338 54.8354C89.5165 54.4387 89.4201 53.8381 89.5448 53.0334L89.7488 51.6224H87.3348L86.9778 54.3594C86.9325 54.6881 86.7455 54.8864 86.4168 54.9544L84.4448 55.4134C84.2861 55.4474 84.1558 55.4077 84.0538 55.2944C83.9631 55.1811 83.9348 55.0281 83.9688 54.8354L84.6318 49.9224C84.6658 49.6731 84.6488 49.4747 84.5808 49.3274C84.5241 49.1687 84.4448 49.0724 84.3428 49.0384C84.2408 48.9931 84.1445 48.9251 84.0538 48.8344C83.9631 48.7437 83.9178 48.6304 83.9178 48.4944C83.9178 48.3131 84.0085 48.1431 84.1898 47.9844C84.3825 47.8144 84.7565 47.6274 85.3118 47.4234C86.2185 47.0947 86.9041 46.9304 87.3688 46.9304C87.7655 46.9304 87.9355 47.1344 87.8788 47.5424L87.5048 50.3644H89.9358L90.2758 48.0014C90.3211 47.6614 90.5081 47.4574 90.8368 47.3894L92.7748 46.9304C92.9448 46.8964 93.0751 46.9361 93.1658 47.0494C93.2565 47.1627 93.2905 47.3101 93.2678 47.4914L92.5708 52.4724C92.4688 53.0504 92.5708 53.3394 92.8768 53.3394C92.9901 53.3394 93.1261 53.2601 93.2848 53.1014C93.4548 52.9427 93.5851 52.8634 93.6758 52.8634ZM102.606 52.7444C102.844 52.5744 103.048 52.5461 103.218 52.6594C103.4 52.7727 103.411 52.9597 103.252 53.2204C102.867 53.8664 102.317 54.3934 101.603 54.8014C100.901 55.2094 100.09 55.4134 99.1723 55.4134C97.9823 55.4134 97.0643 55.1017 96.4183 54.4784C95.7836 53.8551 95.4663 52.9994 95.4663 51.9114C95.4663 50.5627 95.9536 49.3954 96.9283 48.4094C97.9143 47.4121 99.0986 46.9134 100.481 46.9134C101.388 46.9134 102.113 47.1344 102.657 47.5764C103.201 48.0071 103.473 48.5454 103.473 49.1914C103.473 49.8261 103.207 50.3871 102.674 50.8744C102.153 51.3504 101.524 51.6961 100.787 51.9114C100.062 52.1154 99.3309 52.2004 98.5943 52.1664C98.8776 52.9824 99.5179 53.3904 100.515 53.3904C101.32 53.3904 102.017 53.1751 102.606 52.7444ZM100.158 48.2224C99.6029 48.2224 99.1723 48.4887 98.8663 49.0214C98.5603 49.5541 98.4073 50.1037 98.4073 50.6704C98.4073 50.8404 98.5036 50.9254 98.6963 50.9254C99.2969 50.9481 99.8579 50.7951 100.379 50.4664C100.912 50.1264 101.167 49.6844 101.144 49.1404C101.133 48.8911 101.042 48.6757 100.872 48.4944C100.702 48.3131 100.464 48.2224 100.158 48.2224ZM123.089 52.8464C123.316 52.8464 123.429 52.9881 123.429 53.2714C123.429 53.7587 123.174 54.2404 122.664 54.7164C122.166 55.1811 121.491 55.4134 120.641 55.4134C120.075 55.4134 119.638 55.2151 119.332 54.8184C119.038 54.4217 118.958 53.8154 119.094 52.9994L119.417 51.1974C119.599 50.2907 119.684 49.6731 119.672 49.3444C119.672 49.0044 119.536 48.8344 119.264 48.8344C119.162 48.8344 119.049 48.8627 118.924 48.9194C118.811 48.9761 118.664 49.1064 118.482 49.3104C118.312 49.5031 118.142 49.7637 117.972 50.0924C117.802 50.4097 117.621 50.8687 117.428 51.4694C117.247 52.0701 117.077 52.7614 116.918 53.5434L116.765 54.3764C116.686 54.6937 116.493 54.8864 116.187 54.9544L114.215 55.4134C114.045 55.4474 113.915 55.4077 113.824 55.2944C113.734 55.1811 113.705 55.0281 113.739 54.8354L114.453 51.1974C114.567 50.5967 114.629 50.1264 114.64 49.7864C114.663 49.4351 114.64 49.1914 114.572 49.0554C114.504 48.9081 114.385 48.8344 114.215 48.8344C114.113 48.8344 114.006 48.8627 113.892 48.9194C113.779 48.9761 113.637 49.1064 113.467 49.3104C113.297 49.5031 113.133 49.7637 112.974 50.0924C112.827 50.4097 112.663 50.8687 112.481 51.4694C112.3 52.0587 112.13 52.7501 111.971 53.5434L111.801 54.3764C111.733 54.6937 111.541 54.8864 111.223 54.9544L109.268 55.4134C109.098 55.4474 108.962 55.4077 108.86 55.2944C108.77 55.1811 108.741 55.0281 108.775 54.8354L109.591 49.9054C109.637 49.6561 109.625 49.4577 109.557 49.3104C109.501 49.1517 109.416 49.0554 109.302 49.0214C109.2 48.9761 109.104 48.9081 109.013 48.8174C108.923 48.7267 108.877 48.6134 108.877 48.4774C108.877 48.3074 108.979 48.1374 109.183 47.9674C109.387 47.7974 109.818 47.5764 110.475 47.3044C111.201 47.0324 111.711 46.8964 112.005 46.8964C112.436 46.8964 112.629 47.1117 112.583 47.5424L112.447 48.6134C112.867 48.0241 113.337 47.5934 113.858 47.3214C114.391 47.0381 114.901 46.8964 115.388 46.8964C115.932 46.8964 116.391 47.0437 116.765 47.3384C117.139 47.6217 117.4 48.0127 117.547 48.5114C117.91 47.9901 118.358 47.5934 118.89 47.3214C119.423 47.0381 119.973 46.8964 120.539 46.8964C121.299 46.8964 121.877 47.2364 122.273 47.9164C122.681 48.5851 122.783 49.4181 122.579 50.4154L122.137 52.4724C122.069 52.8124 122.047 53.0447 122.069 53.1694C122.092 53.2941 122.166 53.3564 122.29 53.3564C122.404 53.3564 122.54 53.2714 122.698 53.1014C122.868 52.9314 122.999 52.8464 123.089 52.8464ZM130.788 49.0894C131.445 49.0894 131.995 49.2934 132.437 49.7014C132.879 50.0981 133.1 50.6137 133.1 51.2484C133.1 52.0871 132.845 52.8351 132.335 53.4924C131.836 54.1497 131.23 54.6371 130.516 54.9544C129.813 55.2604 129.099 55.4134 128.374 55.4134C127.195 55.4134 126.334 55.1414 125.79 54.5974C125.246 54.0421 125.064 53.2204 125.246 52.1324L125.62 49.8714C125.699 49.3954 125.597 49.1007 125.314 48.9874C125.042 48.8287 124.906 48.6587 124.906 48.4774C124.906 48.3641 124.934 48.2621 124.991 48.1714C125.047 48.0694 125.2 47.9391 125.45 47.7804C125.699 47.6217 126.05 47.4631 126.504 47.3044C127.286 47.0324 127.926 46.8964 128.425 46.8964C128.844 46.8964 129.014 47.1117 128.935 47.5424L128.561 49.9564C129.229 49.3784 129.972 49.0894 130.788 49.0894ZM137.996 53.3054C138.007 53.7701 137.752 54.2404 137.231 54.7164C136.721 55.1811 136.041 55.4134 135.191 55.4134C134.613 55.4134 134.159 55.2207 133.831 54.8354C133.502 54.4387 133.4 53.8381 133.525 53.0334L134.256 48.0014C134.301 47.6727 134.494 47.4687 134.834 47.3894L136.772 46.9304C136.93 46.8964 137.055 46.9361 137.146 47.0494C137.248 47.1627 137.287 47.3101 137.265 47.4914L136.551 52.4724C136.471 53.0504 136.579 53.3394 136.874 53.3394C136.987 53.3394 137.123 53.2601 137.282 53.1014C137.44 52.9427 137.565 52.8634 137.656 52.8634C137.882 52.8634 137.996 53.0107 137.996 53.3054ZM130.125 51.7244C130.147 51.1011 129.949 50.7894 129.53 50.7894C129.167 50.7894 128.85 51.0671 128.578 51.6224C128.306 52.1777 128.175 52.7047 128.187 53.2034C128.198 53.4641 128.26 53.6851 128.374 53.8664C128.487 54.0364 128.651 54.1157 128.867 54.1044C129.207 54.1044 129.501 53.8494 129.751 53.3394C130 52.8294 130.125 52.2911 130.125 51.7244ZM146.395 55.3794C145.602 55.3794 145.046 55.2094 144.729 54.8694C144.423 54.5294 144.179 53.9174 143.998 53.0334C143.987 52.9654 143.964 52.8407 143.93 52.6594C143.907 52.4781 143.879 52.3477 143.845 52.2684C143.822 52.1891 143.783 52.0927 143.726 51.9794C143.669 51.8547 143.584 51.7697 143.471 51.7244C143.369 51.6791 143.233 51.6564 143.063 51.6564C142.961 51.6564 142.887 51.6904 142.842 51.7584C142.808 51.8151 142.774 51.9511 142.74 52.1664L142.672 52.7444C142.638 52.9711 142.627 53.1694 142.638 53.3394C142.649 53.6114 142.757 53.8551 142.961 54.0704C143.176 54.2744 143.267 54.4954 143.233 54.7334C143.188 55.0734 142.893 55.2434 142.349 55.2434H139.289C138.983 55.2434 138.768 55.2037 138.643 55.1244C138.507 55.0451 138.45 54.9034 138.473 54.6994C138.496 54.5181 138.575 54.3764 138.711 54.2744C138.836 54.1611 138.977 54.0364 139.136 53.9004C139.295 53.7531 139.414 53.5661 139.493 53.3394C139.561 53.0447 139.606 52.8464 139.629 52.7444L140.054 49.5824C140.088 49.3557 140.099 49.1517 140.088 48.9704C140.077 48.6984 139.963 48.4604 139.748 48.2564C139.544 48.0524 139.459 47.8314 139.493 47.5934C139.538 47.2534 139.833 47.0834 140.377 47.0834H143.437C143.743 47.0834 143.958 47.1231 144.083 47.2024C144.219 47.2817 144.276 47.4177 144.253 47.6104C144.219 47.8257 144.06 48.0411 143.777 48.2564C143.505 48.4604 143.324 48.6984 143.233 48.9704C143.154 49.3217 143.108 49.5257 143.097 49.5824L143.046 50.0414C143.023 50.2001 143.029 50.2964 143.063 50.3304C143.097 50.3644 143.188 50.3814 143.335 50.3814H143.505C143.766 50.3814 144.004 50.2624 144.219 50.0244C144.446 49.7864 144.65 49.4974 144.831 49.1574C145.012 48.8174 145.211 48.4774 145.426 48.1374C145.641 47.7974 145.925 47.5084 146.276 47.2704C146.627 47.0324 147.03 46.9134 147.483 46.9134C147.948 46.9134 148.316 47.0551 148.588 47.3384C148.86 47.6217 148.956 48.0241 148.877 48.5454C148.832 48.9421 148.684 49.2537 148.435 49.4804C148.197 49.7071 147.925 49.8204 147.619 49.8204C147.46 49.8204 147.324 49.7807 147.211 49.7014C147.109 49.6107 147.035 49.5201 146.99 49.4294C146.956 49.3274 146.899 49.2367 146.82 49.1574C146.752 49.0667 146.667 49.0214 146.565 49.0214C146.406 49.0214 146.242 49.1517 146.072 49.4124C145.913 49.6731 145.715 49.9791 145.477 50.3304C145.239 50.6817 144.978 50.9311 144.695 51.0784C145.352 51.1351 145.84 51.3164 146.157 51.6224C146.474 51.9171 146.718 52.3647 146.888 52.9654C146.967 53.2374 147.047 53.4584 147.126 53.6284C147.205 53.7984 147.296 53.9174 147.398 53.9854C147.5 54.0534 147.579 54.0987 147.636 54.1214C147.704 54.1327 147.806 54.1384 147.942 54.1384C148.191 54.1611 148.305 54.3084 148.282 54.5804C148.248 54.8071 148.061 54.9997 147.721 55.1584C147.392 55.3057 146.95 55.3794 146.395 55.3794ZM159.887 53.3054C159.899 53.7701 159.649 54.2404 159.139 54.7164C158.641 55.1811 157.978 55.4134 157.15 55.4134C156.731 55.4134 156.363 55.3057 156.045 55.0904C155.739 54.8637 155.541 54.5237 155.45 54.0704C154.702 54.9657 153.813 55.4134 152.781 55.4134C151.931 55.4134 151.24 55.1244 150.707 54.5464C150.175 53.9684 149.908 53.2261 149.908 52.3194C149.908 50.8234 150.435 49.5484 151.489 48.4944C152.543 47.4404 153.699 46.9134 154.957 46.9134C155.365 46.9134 155.756 46.9757 156.13 47.1004C156.516 47.2137 156.742 47.2704 156.81 47.2704C156.935 47.2704 157.201 47.2024 157.609 47.0664C158.029 46.9304 158.323 46.8624 158.493 46.8624C158.72 46.8624 158.89 46.9361 159.003 47.0834C159.117 47.2307 159.162 47.3951 159.139 47.5764L158.425 52.4724C158.346 53.0504 158.454 53.3394 158.748 53.3394C158.862 53.3394 158.998 53.2601 159.156 53.1014C159.326 52.9427 159.457 52.8634 159.547 52.8634C159.774 52.8634 159.887 53.0107 159.887 53.3054ZM153.852 53.5264C154.317 53.5264 154.702 53.2317 155.008 52.6424C155.314 52.0531 155.535 51.3164 155.671 50.4324C155.898 48.9251 155.62 48.1714 154.838 48.1714C154.272 48.1714 153.824 48.5397 153.495 49.2764C153.178 50.0017 153.008 50.8801 152.985 51.9114C152.974 52.3761 153.042 52.7614 153.189 53.0674C153.337 53.3734 153.558 53.5264 153.852 53.5264ZM168.363 52.7444C168.601 52.5744 168.805 52.5461 168.975 52.6594C169.156 52.7727 169.168 52.9597 169.009 53.2204C168.624 53.8664 168.074 54.3934 167.36 54.8014C166.657 55.2094 165.847 55.4134 164.929 55.4134C163.739 55.4134 162.821 55.1017 162.175 54.4784C161.54 53.8551 161.223 52.9994 161.223 51.9114C161.223 50.5627 161.71 49.3954 162.685 48.4094C163.671 47.4121 164.855 46.9134 166.238 46.9134C167.145 46.9134 167.87 47.1344 168.414 47.5764C168.958 48.0071 169.23 48.5454 169.23 49.1914C169.23 49.8261 168.964 50.3871 168.431 50.8744C167.91 51.3504 167.281 51.6961 166.544 51.9114C165.819 52.1154 165.088 52.2004 164.351 52.1664C164.634 52.9824 165.275 53.3904 166.272 53.3904C167.077 53.3904 167.774 53.1751 168.363 52.7444ZM165.915 48.2224C165.36 48.2224 164.929 48.4887 164.623 49.0214C164.317 49.5541 164.164 50.1037 164.164 50.6704C164.164 50.8404 164.26 50.9254 164.453 50.9254C165.054 50.9481 165.615 50.7951 166.136 50.4664C166.669 50.1264 166.924 49.6844 166.901 49.1404C166.89 48.8911 166.799 48.6757 166.629 48.4944C166.459 48.3131 166.221 48.2224 165.915 48.2224ZM185.103 52.8464C185.329 52.8464 185.443 52.9881 185.443 53.2714C185.443 53.7587 185.188 54.2404 184.678 54.7164C184.179 55.1811 183.505 55.4134 182.655 55.4134C182.088 55.4134 181.652 55.2151 181.346 54.8184C181.051 54.4217 180.972 53.8154 181.108 52.9994L181.431 51.1974C181.612 50.2907 181.697 49.6731 181.686 49.3444C181.686 49.0044 181.55 48.8344 181.278 48.8344C181.176 48.8344 181.062 48.8627 180.938 48.9194C180.824 48.9761 180.677 49.1064 180.496 49.3104C180.326 49.5031 180.156 49.7637 179.986 50.0924C179.816 50.4097 179.634 50.8687 179.442 51.4694C179.26 52.0701 179.09 52.7614 178.932 53.5434L178.779 54.3764C178.699 54.6937 178.507 54.8864 178.201 54.9544L176.229 55.4134C176.059 55.4474 175.928 55.4077 175.838 55.2944C175.747 55.1811 175.719 55.0281 175.753 54.8354L176.467 51.1974C176.58 50.5967 176.642 50.1264 176.654 49.7864C176.676 49.4351 176.654 49.1914 176.586 49.0554C176.518 48.9081 176.399 48.8344 176.229 48.8344C176.127 48.8344 176.019 48.8627 175.906 48.9194C175.792 48.9761 175.651 49.1064 175.481 49.3104C175.311 49.5031 175.146 49.7637 174.988 50.0924C174.84 50.4097 174.676 50.8687 174.495 51.4694C174.313 52.0587 174.143 52.7501 173.985 53.5434L173.815 54.3764C173.747 54.6937 173.554 54.8864 173.237 54.9544L171.282 55.4134C171.112 55.4474 170.976 55.4077 170.874 55.2944C170.783 55.1811 170.755 55.0281 170.789 54.8354L171.605 49.9054C171.65 49.6561 171.639 49.4577 171.571 49.3104C171.514 49.1517 171.429 49.0554 171.316 49.0214C171.214 48.9761 171.117 48.9081 171.027 48.8174C170.936 48.7267 170.891 48.6134 170.891 48.4774C170.891 48.3074 170.993 48.1374 171.197 47.9674C171.401 47.7974 171.831 47.5764 172.489 47.3044C173.214 47.0324 173.724 46.8964 174.019 46.8964C174.449 46.8964 174.642 47.1117 174.597 47.5424L174.461 48.6134C174.88 48.0241 175.35 47.5934 175.872 47.3214C176.404 47.0381 176.914 46.8964 177.402 46.8964C177.946 46.8964 178.405 47.0437 178.779 47.3384C179.153 47.6217 179.413 48.0127 179.561 48.5114C179.923 47.9901 180.371 47.5934 180.904 47.3214C181.436 47.0381 181.986 46.8964 182.553 46.8964C183.312 46.8964 183.89 47.2364 184.287 47.9164C184.695 48.5851 184.797 49.4181 184.593 50.4154L184.151 52.4724C184.083 52.8124 184.06 53.0447 184.083 53.1694C184.105 53.2941 184.179 53.3564 184.304 53.3564C184.417 53.3564 184.553 53.2714 184.712 53.1014C184.882 52.9314 185.012 52.8464 185.103 52.8464ZM190.727 55.4134C189.549 55.4134 188.636 55.0847 187.99 54.4274C187.344 53.7587 187.021 52.9031 187.021 51.8604C187.021 50.5004 187.514 49.3387 188.5 48.3754C189.486 47.4007 190.637 46.9134 191.951 46.9134C192.858 46.9134 193.623 47.1514 194.246 47.6274C194.87 48.0921 195.187 48.6871 195.198 49.4124C195.21 49.9677 195.057 50.4267 194.739 50.7894C194.422 51.1521 194.025 51.3107 193.549 51.2654C192.869 51.1747 192.529 50.7554 192.529 50.0074C192.518 48.8627 192.206 48.2904 191.594 48.2904C191.186 48.2904 190.835 48.5511 190.54 49.0724C190.257 49.5937 190.115 50.2057 190.115 50.9084C190.115 51.6564 190.308 52.2401 190.693 52.6594C191.09 53.0674 191.668 53.2714 192.427 53.2714C193.062 53.2714 193.691 53.0504 194.314 52.6084C194.541 52.4384 194.717 52.4214 194.841 52.5574C194.966 52.6821 194.96 52.8861 194.824 53.1694C194.564 53.7587 194.071 54.2801 193.345 54.7334C192.62 55.1867 191.747 55.4134 190.727 55.4134ZM203.494 55.4134C202.904 55.4134 202.445 55.2207 202.117 54.8354C201.799 54.4387 201.714 53.8211 201.862 52.9824L201.964 52.3704C202.009 52.1664 201.93 52.0644 201.726 52.0644C201.635 52.0644 201.567 52.0757 201.522 52.0984C201.386 52.1324 201.255 52.2117 201.131 52.3364C201.017 52.4611 200.927 52.5857 200.859 52.7104C200.802 52.8351 200.706 53.0334 200.57 53.3054C200.445 53.5774 200.343 53.7927 200.264 53.9514C200.026 54.4047 199.72 54.7561 199.346 55.0054C198.983 55.2547 198.422 55.3794 197.663 55.3794C196.473 55.3794 195.912 55.1697 195.98 54.7504C196.014 54.4897 196.172 54.3311 196.456 54.2744C196.66 54.2064 196.796 54.1554 196.864 54.1214C196.932 54.0874 197.039 54.0024 197.187 53.8664C197.334 53.7304 197.487 53.5321 197.646 53.2714C198.031 52.6481 198.462 52.1891 198.938 51.8944C197.918 51.4977 197.481 50.7894 197.629 49.7694C197.742 48.9421 198.184 48.2904 198.955 47.8144C199.725 47.3271 200.7 47.0834 201.879 47.0834H205.755C206.321 47.0834 206.588 47.2364 206.554 47.5424C206.531 47.7124 206.355 47.9334 206.027 48.2054C205.709 48.4774 205.528 48.7777 205.483 49.1064L205.007 52.4724C204.95 52.8237 204.933 53.0561 204.956 53.1694C204.978 53.2827 205.052 53.3394 205.177 53.3394C205.29 53.3394 205.426 53.2601 205.585 53.1014C205.755 52.9427 205.885 52.8634 205.976 52.8634C206.202 52.8634 206.316 53.0107 206.316 53.3054C206.327 53.7701 206.072 54.2404 205.551 54.7164C205.041 55.1811 204.355 55.4134 203.494 55.4134ZM201.556 50.8574C201.748 50.8574 201.884 50.8234 201.964 50.7554C202.054 50.6874 202.111 50.5627 202.134 50.3814L202.355 48.9704C202.411 48.7664 202.417 48.6021 202.372 48.4774C202.326 48.3414 202.173 48.2734 201.913 48.2734C201.595 48.2734 201.329 48.3867 201.114 48.6134C200.898 48.8401 200.757 49.1687 200.689 49.5994C200.632 49.9847 200.694 50.2907 200.876 50.5174C201.068 50.7441 201.295 50.8574 201.556 50.8574Z" fill="#FFC6F9"/>
</svg>
