<svg width="210" height="84" viewBox="0 0 210 84" fill="none" xmlns="http://www.w3.org/2000/svg">
<path d="M13.531 32.7568C23.2502 39.1473 32.1983 21.4525 34.2321 14.6782C21.4253 20.9215 6.07463 14.4941 0.00012207 10.5C1.27769 13.3416 3.8118 26.3662 13.531 32.7568Z" fill="#C5FF71"/>
<rect x="17.5593" y="1.1014" width="191.339" height="81.7972" rx="40.8986" fill="#6932FF" stroke="#C5FF71" stroke-width="2.2028"/>
<path d="M55.1126 25.111C53.6193 25.1217 52.3873 24.6684 51.4166 23.751C50.4566 22.823 49.9766 21.6337 49.9766 20.183C49.9766 18.423 50.6113 16.8977 51.8806 15.607C53.1606 14.3164 54.7126 13.671 56.5366 13.671C58.0619 13.671 59.2726 14.135 60.1686 15.063C61.0753 15.991 61.5286 17.191 61.5286 18.663C61.5286 20.455 60.9099 21.975 59.6726 23.223C58.4353 24.471 56.9153 25.1004 55.1126 25.111ZM55.5926 23.479C56.0406 23.479 56.4406 23.335 56.7926 23.047C57.1446 22.759 57.4219 22.3857 57.6246 21.927C57.8273 21.4577 57.9819 20.951 58.0886 20.407C58.1953 19.863 58.2486 19.303 58.2486 18.727C58.2486 17.6604 58.0619 16.7964 57.6886 16.135C57.3259 15.4737 56.7713 15.143 56.0246 15.143C55.1713 15.143 54.4833 15.655 53.9606 16.679C53.4486 17.703 53.1926 18.823 53.1926 20.039C53.1926 21.0524 53.4059 21.879 53.8326 22.519C54.2699 23.159 54.8566 23.479 55.5926 23.479ZM71.6308 22.759C71.8442 22.759 71.9508 22.8977 71.9508 23.175C71.9508 23.6124 71.7055 24.055 71.2148 24.503C70.7348 24.9404 70.0948 25.159 69.2948 25.159C68.7508 25.159 68.3242 24.9777 68.0148 24.615C67.7162 24.2417 67.6255 23.6764 67.7428 22.919L67.9348 21.591H65.6628L65.3268 24.167C65.2842 24.4764 65.1082 24.663 64.7988 24.727L62.9428 25.159C62.7935 25.191 62.6708 25.1537 62.5748 25.047C62.4895 24.9404 62.4628 24.7964 62.4948 24.615L63.1188 19.991C63.1508 19.7564 63.1348 19.5697 63.0708 19.431C63.0175 19.2817 62.9428 19.191 62.8468 19.159C62.7508 19.1164 62.6602 19.0524 62.5748 18.967C62.4895 18.8817 62.4468 18.775 62.4468 18.647C62.4468 18.4764 62.5322 18.3164 62.7028 18.167C62.8842 18.007 63.2362 17.831 63.7588 17.639C64.6122 17.3297 65.2575 17.175 65.6948 17.175C66.0682 17.175 66.2282 17.367 66.1748 17.751L65.8228 20.407H68.1108L68.4308 18.183C68.4735 17.863 68.6495 17.671 68.9588 17.607L70.7828 17.175C70.9428 17.143 71.0655 17.1804 71.1508 17.287C71.2362 17.3937 71.2682 17.5324 71.2468 17.703L70.5908 22.391C70.4948 22.935 70.5908 23.207 70.8788 23.207C70.9855 23.207 71.1135 23.1324 71.2628 22.983C71.4228 22.8337 71.5455 22.759 71.6308 22.759ZM80.3271 25.159C79.2178 25.159 78.3591 24.8497 77.7511 24.231C77.1431 23.6017 76.8391 22.7964 76.8391 21.815C76.8391 20.535 77.3031 19.4417 78.2311 18.535C79.1591 17.6177 80.2418 17.159 81.4791 17.159C82.3324 17.159 83.0524 17.383 83.6391 17.831C84.2258 18.2684 84.5244 18.8284 84.5351 19.511C84.5458 20.0337 84.4018 20.4657 84.1031 20.807C83.8044 21.1484 83.4311 21.2977 82.9831 21.255C82.3431 21.1697 82.0231 20.775 82.0231 20.071C82.0124 18.9937 81.7191 18.455 81.1431 18.455C80.7591 18.455 80.4284 18.7004 80.1511 19.191C79.8844 19.6817 79.7511 20.2577 79.7511 20.919C79.7511 21.623 79.9324 22.1724 80.2951 22.567C80.6684 22.951 81.2124 23.143 81.9271 23.143C82.5244 23.143 83.1164 22.935 83.7031 22.519C83.9164 22.359 84.0818 22.343 84.1991 22.471C84.3164 22.5884 84.3111 22.7804 84.1831 23.047C83.9378 23.6017 83.4738 24.0924 82.7911 24.519C82.1084 24.9457 81.2871 25.159 80.3271 25.159ZM97.8017 16.439C97.7057 17.1644 97.263 18.0124 96.4737 18.983C95.695 19.943 94.6177 20.855 93.2417 21.719C93.487 21.7724 93.8764 21.8897 94.4097 22.071C94.943 22.2417 95.343 22.327 95.6097 22.327C95.8977 22.327 96.1484 22.2737 96.3617 22.167C96.5857 22.0497 96.7457 21.927 96.8417 21.799C96.9377 21.671 97.0337 21.5537 97.1297 21.447C97.2364 21.3297 97.3324 21.271 97.4177 21.271C97.631 21.271 97.727 21.4684 97.7057 21.863C97.663 22.823 97.3804 23.6017 96.8577 24.199C96.3457 24.7964 95.695 25.095 94.9057 25.095C94.3617 25.095 93.7324 24.9404 93.0177 24.631C92.3137 24.3217 91.7484 24.167 91.3217 24.167C90.9377 24.167 90.559 24.327 90.1857 24.647C89.8124 24.9564 89.535 25.111 89.3537 25.111C88.991 25.111 88.8097 24.9404 88.8097 24.599C88.8097 24.2684 88.9697 23.9644 89.2897 23.687C91.2524 21.9164 92.5964 20.5564 93.3217 19.607C94.0577 18.647 94.479 17.767 94.5857 16.967C94.639 16.583 94.5537 16.2737 94.3297 16.039C94.1057 15.7937 93.7857 15.671 93.3697 15.671C92.5804 15.671 91.7697 16.0284 90.9377 16.743C90.735 16.935 90.575 16.967 90.4577 16.839C90.3404 16.711 90.3404 16.5084 90.4577 16.231C90.7137 15.6444 91.2364 15.0684 92.0257 14.503C92.8257 13.927 93.727 13.639 94.7297 13.639C95.6897 13.639 96.4737 13.8897 97.0817 14.391C97.6897 14.8924 97.9297 15.575 97.8017 16.439ZM107.86 14.791C106.943 15.8257 105.759 17.0044 104.308 18.327C105.322 18.4764 106.122 18.8337 106.708 19.399C107.295 19.9537 107.514 20.7484 107.364 21.783C107.226 22.7857 106.74 23.6284 105.908 24.311C105.087 24.9937 104.036 25.335 102.756 25.335C101.647 25.335 100.751 25.079 100.068 24.567C99.3962 24.0444 99.0122 23.5004 98.9162 22.935C98.8735 22.6684 98.9429 22.4764 99.1242 22.359C99.3055 22.2417 99.4922 22.263 99.6842 22.423C100.399 23.0204 101.183 23.319 102.036 23.319C102.57 23.319 103.034 23.1697 103.428 22.871C103.823 22.5724 104.058 22.1564 104.132 21.623C104.207 21.1324 104.09 20.7217 103.78 20.391C103.471 20.0604 102.879 19.815 102.004 19.655C101.791 19.6017 101.69 19.463 101.7 19.239C101.722 19.015 101.807 18.8444 101.956 18.727C103.012 17.9057 103.732 17.3084 104.116 16.935C104.052 16.9244 103.924 16.8924 103.732 16.839C103.54 16.775 103.38 16.727 103.252 16.695C103.135 16.663 102.975 16.6364 102.772 16.615C102.57 16.583 102.372 16.567 102.18 16.567C101.711 16.567 101.316 16.7004 100.996 16.967C100.943 17.0097 100.879 17.0684 100.804 17.143C100.73 17.207 100.671 17.255 100.628 17.287C100.596 17.319 100.554 17.3564 100.5 17.399C100.447 17.431 100.399 17.4577 100.356 17.479C100.314 17.4897 100.271 17.495 100.228 17.495C99.9082 17.495 99.8175 17.175 99.9562 16.535C100.159 15.6177 100.436 14.9297 100.788 14.471C101.14 14.0017 101.642 13.767 102.292 13.767C102.73 13.767 103.391 13.895 104.276 14.151C105.162 14.407 105.823 14.535 106.26 14.535C106.41 14.535 106.634 14.4444 106.932 14.263C107.231 14.071 107.455 13.975 107.604 13.975C107.85 13.975 107.983 14.0817 108.004 14.295C108.036 14.5084 107.988 14.6737 107.86 14.791ZM121.705 23.175C121.716 23.6124 121.481 24.055 121.001 24.503C120.532 24.9404 119.908 25.159 119.129 25.159C118.734 25.159 118.388 25.0577 118.089 24.855C117.801 24.6417 117.614 24.3217 117.529 23.895C116.825 24.7377 115.988 25.159 115.017 25.159C114.217 25.159 113.566 24.887 113.065 24.343C112.564 23.799 112.313 23.1004 112.313 22.247C112.313 20.839 112.809 19.639 113.801 18.647C114.793 17.655 115.881 17.159 117.065 17.159C117.449 17.159 117.817 17.2177 118.169 17.335C118.532 17.4417 118.745 17.495 118.809 17.495C118.926 17.495 119.177 17.431 119.561 17.303C119.956 17.175 120.233 17.111 120.393 17.111C120.606 17.111 120.766 17.1804 120.873 17.319C120.98 17.4577 121.022 17.6124 121.001 17.783L120.329 22.391C120.254 22.935 120.356 23.207 120.633 23.207C120.74 23.207 120.868 23.1324 121.017 22.983C121.177 22.8337 121.3 22.759 121.385 22.759C121.598 22.759 121.705 22.8977 121.705 23.175ZM116.025 23.383C116.462 23.383 116.825 23.1057 117.113 22.551C117.401 21.9964 117.609 21.303 117.737 20.471C117.95 19.0524 117.689 18.343 116.953 18.343C116.42 18.343 115.998 18.6897 115.689 19.383C115.39 20.0657 115.23 20.8924 115.209 21.863C115.198 22.3004 115.262 22.663 115.401 22.951C115.54 23.239 115.748 23.383 116.025 23.383ZM126.834 25.159C125.714 25.1697 124.786 24.8764 124.05 24.279C123.325 23.6817 122.962 22.839 122.962 21.751C122.962 20.5457 123.469 19.479 124.482 18.551C125.496 17.623 126.674 17.159 128.018 17.159C130.077 17.159 131.106 17.7137 131.106 18.823C131.106 19.3137 130.946 19.7404 130.626 20.103C130.317 20.455 129.912 20.7057 129.41 20.855C130.402 21.047 130.898 21.575 130.898 22.439C130.898 23.1857 130.514 23.8257 129.746 24.359C128.989 24.8817 128.018 25.1484 126.834 25.159ZM126.834 23.991C127.154 23.991 127.41 23.8577 127.602 23.591C127.805 23.3244 127.906 22.983 127.906 22.567C127.906 22.3004 127.816 22.071 127.634 21.879C127.464 21.687 127.218 21.5697 126.898 21.527C126.61 21.495 126.466 21.3617 126.466 21.127C126.456 20.9884 126.504 20.8604 126.61 20.743C126.717 20.615 126.861 20.5404 127.042 20.519C127.938 20.359 128.386 19.863 128.386 19.031C128.386 18.551 128.152 18.311 127.682 18.311C127.298 18.311 126.952 18.5244 126.642 18.951C126.344 19.367 126.125 19.863 125.986 20.439C125.848 21.015 125.778 21.591 125.778 22.167C125.778 23.383 126.13 23.991 126.834 23.991ZM134.851 25.159C133.912 25.159 133.262 24.983 132.899 24.631C132.536 24.279 132.355 23.8684 132.355 23.399C132.355 23.207 132.382 23.0204 132.435 22.839C132.488 22.6577 132.579 22.487 132.707 22.327C132.835 22.1564 132.952 22.0124 133.059 21.895C133.166 21.7777 133.326 21.6444 133.539 21.495C133.752 21.3457 133.912 21.2337 134.019 21.159C134.136 21.0844 134.318 20.9724 134.563 20.823C134.819 20.6737 134.984 20.5777 135.059 20.535C135.774 20.0977 136.131 19.7137 136.131 19.383C136.131 19.223 136.083 19.1004 135.987 19.015C135.902 18.9297 135.816 18.8817 135.731 18.871C135.656 18.8604 135.55 18.855 135.411 18.855C134.92 18.855 134.28 19.063 133.491 19.479C133.203 19.639 132.984 19.6657 132.835 19.559C132.686 19.4524 132.67 19.2657 132.787 18.999C132.99 18.4977 133.422 18.071 134.083 17.719C134.744 17.3564 135.491 17.175 136.323 17.175C137.144 17.175 137.774 17.3244 138.211 17.623C138.648 17.911 138.867 18.3004 138.867 18.791C138.867 19.0897 138.808 19.367 138.691 19.623C138.574 19.8684 138.366 20.119 138.067 20.375C137.768 20.6204 137.55 20.791 137.411 20.887C137.283 20.9724 137.011 21.143 136.595 21.399C136.147 21.655 135.816 21.879 135.603 22.071C135.39 22.2524 135.283 22.455 135.283 22.679C135.283 23.063 135.523 23.255 136.003 23.255C136.846 23.255 137.603 22.999 138.275 22.487C138.499 22.327 138.67 22.3057 138.787 22.423C138.904 22.5297 138.904 22.7164 138.787 22.983C138.542 23.559 138.067 24.0657 137.363 24.503C136.67 24.9404 135.832 25.159 134.851 25.159ZM146.943 17.111C147.359 17.111 147.668 17.255 147.871 17.543C148.073 17.8204 148.175 18.151 148.175 18.535C148.175 19.4417 147.892 20.567 147.327 21.911C146.772 23.255 146.255 24.3004 145.775 25.047C144.388 27.255 142.815 28.359 141.055 28.359C140.393 28.359 139.887 28.199 139.535 27.879C139.172 27.559 138.991 27.1484 138.991 26.647C138.991 26.1777 139.113 25.815 139.359 25.559C139.593 25.303 139.871 25.175 140.191 25.175C140.393 25.175 140.58 25.239 140.751 25.367C140.921 25.5057 141.044 25.6817 141.119 25.895C141.14 25.9484 141.172 26.039 141.215 26.167C141.257 26.295 141.284 26.3857 141.295 26.439C141.316 26.4924 141.348 26.5617 141.391 26.647C141.444 26.7324 141.497 26.791 141.551 26.823C141.604 26.855 141.673 26.887 141.759 26.919C141.844 26.951 141.945 26.967 142.063 26.967C142.244 26.967 142.415 26.8977 142.575 26.759C142.735 26.631 142.836 26.455 142.879 26.231C142.943 25.8897 142.916 25.3937 142.799 24.743C142.489 23.175 141.961 21.559 141.215 19.895C141.065 19.5537 140.927 19.335 140.799 19.239C140.671 19.1324 140.479 19.063 140.223 19.031C140.084 19.0204 139.983 18.9777 139.919 18.903C139.855 18.8177 139.823 18.7377 139.823 18.663C139.823 18.3537 140.143 18.0284 140.783 17.687C141.423 17.335 141.967 17.159 142.415 17.159C142.82 17.159 143.129 17.415 143.343 17.927C144.025 19.591 144.628 21.4737 145.151 23.575C145.812 22.455 146.143 21.4417 146.143 20.535C146.143 20.2044 146.031 19.831 145.807 19.415C145.593 18.9884 145.487 18.6684 145.487 18.455C145.487 18.0817 145.647 17.767 145.967 17.511C146.287 17.2444 146.612 17.111 146.943 17.111ZM152.816 25.159C151.707 25.159 150.848 24.8497 150.24 24.231C149.632 23.6017 149.328 22.7964 149.328 21.815C149.328 20.535 149.792 19.4417 150.72 18.535C151.648 17.6177 152.731 17.159 153.968 17.159C154.822 17.159 155.542 17.383 156.128 17.831C156.715 18.2684 157.014 18.8284 157.024 19.511C157.035 20.0337 156.891 20.4657 156.592 20.807C156.294 21.1484 155.92 21.2977 155.472 21.255C154.832 21.1697 154.512 20.775 154.512 20.071C154.502 18.9937 154.208 18.455 153.632 18.455C153.248 18.455 152.918 18.7004 152.64 19.191C152.374 19.6817 152.24 20.2577 152.24 20.919C152.24 21.623 152.422 22.1724 152.784 22.567C153.158 22.951 153.702 23.143 154.416 23.143C155.014 23.143 155.606 22.935 156.192 22.519C156.406 22.359 156.571 22.343 156.688 22.471C156.806 22.5884 156.8 22.7804 156.672 23.047C156.427 23.6017 155.963 24.0924 155.28 24.519C154.598 24.9457 153.776 25.159 152.816 25.159ZM171.616 22.743C171.829 22.743 171.936 22.8764 171.936 23.143C171.936 23.6017 171.696 24.055 171.216 24.503C170.747 24.9404 170.112 25.159 169.312 25.159C168.779 25.159 168.368 24.9724 168.08 24.599C167.803 24.2257 167.728 23.655 167.856 22.887L168.16 21.191C168.331 20.3377 168.411 19.7564 168.4 19.447C168.4 19.127 168.272 18.967 168.016 18.967C167.92 18.967 167.813 18.9937 167.696 19.047C167.589 19.1004 167.451 19.223 167.28 19.415C167.12 19.5964 166.96 19.8417 166.8 20.151C166.64 20.4497 166.469 20.8817 166.288 21.447C166.117 22.0124 165.957 22.663 165.808 23.399L165.664 24.183C165.589 24.4817 165.408 24.663 165.12 24.727L163.264 25.159C163.104 25.191 162.981 25.1537 162.896 25.047C162.811 24.9404 162.784 24.7964 162.816 24.615L163.488 21.191C163.595 20.6257 163.653 20.183 163.664 19.863C163.685 19.5324 163.664 19.303 163.6 19.175C163.536 19.0364 163.424 18.967 163.264 18.967C163.168 18.967 163.067 18.9937 162.96 19.047C162.853 19.1004 162.72 19.223 162.56 19.415C162.4 19.5964 162.245 19.8417 162.096 20.151C161.957 20.4497 161.803 20.8817 161.632 21.447C161.461 22.0017 161.301 22.6524 161.152 23.399L160.992 24.183C160.928 24.4817 160.747 24.663 160.448 24.727L158.608 25.159C158.448 25.191 158.32 25.1537 158.224 25.047C158.139 24.9404 158.112 24.7964 158.144 24.615L158.912 19.975C158.955 19.7404 158.944 19.5537 158.88 19.415C158.827 19.2657 158.747 19.175 158.64 19.143C158.544 19.1004 158.453 19.0364 158.368 18.951C158.283 18.8657 158.24 18.759 158.24 18.631C158.24 18.471 158.336 18.311 158.528 18.151C158.72 17.991 159.125 17.783 159.744 17.527C160.427 17.271 160.907 17.143 161.184 17.143C161.589 17.143 161.771 17.3457 161.728 17.751L161.6 18.759C161.995 18.2044 162.437 17.799 162.928 17.543C163.429 17.2764 163.909 17.143 164.368 17.143C164.88 17.143 165.312 17.2817 165.664 17.559C166.016 17.8257 166.261 18.1937 166.4 18.663C166.741 18.1724 167.163 17.799 167.664 17.543C168.165 17.2764 168.683 17.143 169.216 17.143C169.931 17.143 170.475 17.463 170.848 18.103C171.232 18.7324 171.328 19.5164 171.136 20.455L170.72 22.391C170.656 22.711 170.635 22.9297 170.656 23.047C170.677 23.1644 170.747 23.223 170.864 23.223C170.971 23.223 171.099 23.143 171.248 22.983C171.408 22.823 171.531 22.743 171.616 22.743ZM182.766 23.175C182.776 23.6124 182.542 24.055 182.062 24.503C181.592 24.9404 180.968 25.159 180.19 25.159C179.795 25.159 179.448 25.0577 179.15 24.855C178.862 24.6417 178.675 24.3217 178.59 23.895C177.886 24.7377 177.048 25.159 176.078 25.159C175.278 25.159 174.627 24.887 174.126 24.343C173.624 23.799 173.374 23.1004 173.374 22.247C173.374 20.839 173.87 19.639 174.862 18.647C175.854 17.655 176.942 17.159 178.126 17.159C178.51 17.159 178.878 17.2177 179.23 17.335C179.592 17.4417 179.806 17.495 179.87 17.495C179.987 17.495 180.238 17.431 180.622 17.303C181.016 17.175 181.294 17.111 181.454 17.111C181.667 17.111 181.827 17.1804 181.934 17.319C182.04 17.4577 182.083 17.6124 182.062 17.783L181.39 22.391C181.315 22.935 181.416 23.207 181.694 23.207C181.8 23.207 181.928 23.1324 182.078 22.983C182.238 22.8337 182.36 22.759 182.446 22.759C182.659 22.759 182.766 22.8977 182.766 23.175ZM177.086 23.383C177.523 23.383 177.886 23.1057 178.174 22.551C178.462 21.9964 178.67 21.303 178.798 20.471C179.011 19.0524 178.75 18.343 178.014 18.343C177.48 18.343 177.059 18.6897 176.75 19.383C176.451 20.0657 176.291 20.8924 176.27 21.863C176.259 22.3004 176.323 22.663 176.462 22.951C176.6 23.239 176.808 23.383 177.086 23.383ZM92.6649 43.759C92.8782 43.759 92.9849 43.8977 92.9849 44.175C92.9849 44.6124 92.7396 45.055 92.2489 45.503C91.7689 45.9404 91.1289 46.159 90.3289 46.159C89.7849 46.159 89.3582 45.9777 89.0489 45.615C88.7502 45.2417 88.6596 44.6764 88.7769 43.919L88.9689 42.591H86.6969L86.3609 45.167C86.3182 45.4764 86.1422 45.663 85.8329 45.727L83.9769 46.159C83.8276 46.191 83.7049 46.1537 83.6089 46.047C83.5236 45.9404 83.4969 45.7964 83.5289 45.615L84.1529 40.991C84.1849 40.7564 84.1689 40.5697 84.1049 40.431C84.0516 40.2817 83.9769 40.191 83.8809 40.159C83.7849 40.1164 83.6942 40.0524 83.6089 39.967C83.5236 39.8817 83.4809 39.775 83.4809 39.647C83.4809 39.4764 83.5662 39.3164 83.7369 39.167C83.9182 39.007 84.2702 38.831 84.7929 38.639C85.6462 38.3297 86.2916 38.175 86.7289 38.175C87.1022 38.175 87.2622 38.367 87.2089 38.751L86.8569 41.407H89.1449L89.4649 39.183C89.5076 38.863 89.6836 38.671 89.9929 38.607L91.8169 38.175C91.9769 38.143 92.0996 38.1804 92.1849 38.287C92.2702 38.3937 92.3022 38.5324 92.2809 38.703L91.6249 43.391C91.5289 43.935 91.6249 44.207 91.9129 44.207C92.0196 44.207 92.1476 44.1324 92.2969 43.983C92.4569 43.8337 92.5796 43.759 92.6649 43.759ZM103.694 44.175C103.705 44.6124 103.47 45.055 102.99 45.503C102.521 45.9404 101.897 46.159 101.118 46.159C100.723 46.159 100.377 46.0577 100.078 45.855C99.79 45.6417 99.6034 45.3217 99.518 44.895C98.814 45.7377 97.9767 46.159 97.006 46.159C96.206 46.159 95.5554 45.887 95.054 45.343C94.5527 44.799 94.302 44.1004 94.302 43.247C94.302 41.839 94.798 40.639 95.79 39.647C96.782 38.655 97.87 38.159 99.054 38.159C99.438 38.159 99.806 38.2177 100.158 38.335C100.521 38.4417 100.734 38.495 100.798 38.495C100.915 38.495 101.166 38.431 101.55 38.303C101.945 38.175 102.222 38.111 102.382 38.111C102.595 38.111 102.755 38.1804 102.862 38.319C102.969 38.4577 103.011 38.6124 102.99 38.783L102.318 43.391C102.243 43.935 102.345 44.207 102.622 44.207C102.729 44.207 102.857 44.1324 103.006 43.983C103.166 43.8337 103.289 43.759 103.374 43.759C103.587 43.759 103.694 43.8977 103.694 44.175ZM98.014 44.383C98.4514 44.383 98.814 44.1057 99.102 43.551C99.39 42.9964 99.598 42.303 99.726 41.471C99.9394 40.0524 99.678 39.343 98.942 39.343C98.4087 39.343 97.9874 39.6897 97.678 40.383C97.3794 41.0657 97.2194 41.8924 97.198 42.863C97.1874 43.3004 97.2514 43.663 97.39 43.951C97.5287 44.239 97.7367 44.383 98.014 44.383ZM111.499 46.159C110.945 46.159 110.507 45.967 110.187 45.583C109.867 45.199 109.771 44.623 109.899 43.855L110.155 42.367C109.526 43.1457 108.758 43.535 107.851 43.535C107.083 43.535 106.475 43.3644 106.027 43.023C105.59 42.671 105.371 42.207 105.371 41.631C105.371 41.407 105.382 41.1777 105.403 40.943C105.467 40.5057 105.371 40.2284 105.115 40.111C104.859 39.9617 104.731 39.8017 104.731 39.631C104.731 39.5244 104.758 39.4284 104.811 39.343C104.865 39.247 105.009 39.1297 105.243 38.991C105.478 38.8417 105.809 38.6924 106.235 38.543C106.961 38.2764 107.563 38.143 108.043 38.143C108.417 38.143 108.582 38.3457 108.539 38.751L108.299 40.703C108.289 40.9164 108.278 41.1404 108.267 41.375C108.257 41.6097 108.305 41.8124 108.411 41.983C108.518 42.1537 108.683 42.239 108.907 42.239C109.281 42.239 109.606 42.0364 109.883 41.631C110.161 41.2257 110.331 40.783 110.395 40.303L110.539 39.151C110.571 38.863 110.742 38.6817 111.051 38.607L113.003 38.175C113.163 38.143 113.286 38.1804 113.371 38.287C113.457 38.3937 113.489 38.5324 113.467 38.703L112.827 43.391C112.763 43.935 112.849 44.207 113.083 44.207C113.19 44.207 113.318 44.1324 113.467 43.983C113.627 43.8337 113.75 43.759 113.835 43.759C114.049 43.759 114.155 43.8977 114.155 44.175C114.155 44.6124 113.91 45.055 113.419 45.503C112.939 45.9404 112.299 46.159 111.499 46.159ZM124.609 43.759C124.823 43.759 124.929 43.8977 124.929 44.175C124.929 44.6124 124.684 45.055 124.193 45.503C123.713 45.9404 123.073 46.159 122.273 46.159C121.729 46.159 121.303 45.9777 120.993 45.615C120.695 45.2417 120.604 44.6764 120.721 43.919L120.913 42.591H118.641L118.305 45.167C118.263 45.4764 118.087 45.663 117.777 45.727L115.921 46.159C115.772 46.191 115.649 46.1537 115.553 46.047C115.468 45.9404 115.441 45.7964 115.473 45.615L116.097 40.991C116.129 40.7564 116.113 40.5697 116.049 40.431C115.996 40.2817 115.921 40.191 115.825 40.159C115.729 40.1164 115.639 40.0524 115.553 39.967C115.468 39.8817 115.425 39.775 115.425 39.647C115.425 39.4764 115.511 39.3164 115.681 39.167C115.863 39.007 116.215 38.831 116.737 38.639C117.591 38.3297 118.236 38.175 118.673 38.175C119.047 38.175 119.207 38.367 119.153 38.751L118.801 41.407H121.089L121.409 39.183C121.452 38.863 121.628 38.671 121.937 38.607L123.761 38.175C123.921 38.143 124.044 38.1804 124.129 38.287C124.215 38.3937 124.247 38.5324 124.225 38.703L123.569 43.391C123.473 43.935 123.569 44.207 123.857 44.207C123.964 44.207 124.092 44.1324 124.241 43.983C124.401 43.8337 124.524 43.759 124.609 43.759ZM133.014 43.647C133.238 43.487 133.43 43.4604 133.59 43.567C133.761 43.6737 133.772 43.8497 133.622 44.095C133.26 44.703 132.742 45.199 132.07 45.583C131.409 45.967 130.646 46.159 129.782 46.159C128.662 46.159 127.798 45.8657 127.19 45.279C126.593 44.6924 126.294 43.887 126.294 42.863C126.294 41.5937 126.753 40.495 127.67 39.567C128.598 38.6284 129.713 38.159 131.014 38.159C131.868 38.159 132.55 38.367 133.062 38.783C133.574 39.1884 133.83 39.695 133.83 40.303C133.83 40.9004 133.58 41.4284 133.078 41.887C132.588 42.335 131.996 42.6604 131.302 42.863C130.62 43.055 129.932 43.135 129.238 43.103C129.505 43.871 130.108 44.255 131.046 44.255C131.804 44.255 132.46 44.0524 133.014 43.647ZM130.71 39.391C130.188 39.391 129.782 39.6417 129.494 40.143C129.206 40.6444 129.062 41.1617 129.062 41.695C129.062 41.855 129.153 41.935 129.334 41.935C129.9 41.9564 130.428 41.8124 130.918 41.503C131.42 41.183 131.66 40.767 131.638 40.255C131.628 40.0204 131.542 39.8177 131.382 39.647C131.222 39.4764 130.998 39.391 130.71 39.391ZM148.769 43.743C148.983 43.743 149.089 43.8764 149.089 44.143C149.089 44.6017 148.849 45.055 148.369 45.503C147.9 45.9404 147.265 46.159 146.465 46.159C145.932 46.159 145.521 45.9724 145.233 45.599C144.956 45.2257 144.881 44.655 145.009 43.887L145.313 42.191C145.484 41.3377 145.564 40.7564 145.553 40.447C145.553 40.127 145.425 39.967 145.169 39.967C145.073 39.967 144.967 39.9937 144.849 40.047C144.743 40.1004 144.604 40.223 144.433 40.415C144.273 40.5964 144.113 40.8417 143.953 41.151C143.793 41.4497 143.623 41.8817 143.441 42.447C143.271 43.0124 143.111 43.663 142.961 44.399L142.817 45.183C142.743 45.4817 142.561 45.663 142.273 45.727L140.417 46.159C140.257 46.191 140.135 46.1537 140.049 46.047C139.964 45.9404 139.937 45.7964 139.969 45.615L140.641 42.191C140.748 41.6257 140.807 41.183 140.817 40.863C140.839 40.5324 140.817 40.303 140.753 40.175C140.689 40.0364 140.577 39.967 140.417 39.967C140.321 39.967 140.22 39.9937 140.113 40.047C140.007 40.1004 139.873 40.223 139.713 40.415C139.553 40.5964 139.399 40.8417 139.249 41.151C139.111 41.4497 138.956 41.8817 138.785 42.447C138.615 43.0017 138.455 43.6524 138.305 44.399L138.145 45.183C138.081 45.4817 137.9 45.663 137.601 45.727L135.761 46.159C135.601 46.191 135.473 46.1537 135.377 46.047C135.292 45.9404 135.265 45.7964 135.297 45.615L136.065 40.975C136.108 40.7404 136.097 40.5537 136.033 40.415C135.98 40.2657 135.9 40.175 135.793 40.143C135.697 40.1004 135.607 40.0364 135.521 39.951C135.436 39.8657 135.393 39.759 135.393 39.631C135.393 39.471 135.489 39.311 135.681 39.151C135.873 38.991 136.279 38.783 136.897 38.527C137.58 38.271 138.06 38.143 138.337 38.143C138.743 38.143 138.924 38.3457 138.881 38.751L138.753 39.759C139.148 39.2044 139.591 38.799 140.081 38.543C140.583 38.2764 141.063 38.143 141.521 38.143C142.033 38.143 142.465 38.2817 142.817 38.559C143.169 38.8257 143.415 39.1937 143.553 39.663C143.895 39.1724 144.316 38.799 144.817 38.543C145.319 38.2764 145.836 38.143 146.369 38.143C147.084 38.143 147.628 38.463 148.001 39.103C148.385 39.7324 148.481 40.5164 148.289 41.455L147.873 43.391C147.809 43.711 147.788 43.9297 147.809 44.047C147.831 44.1644 147.9 44.223 148.017 44.223C148.124 44.223 148.252 44.143 148.401 43.983C148.561 43.823 148.684 43.743 148.769 43.743ZM73.9516 64.743C74.1649 64.743 74.2716 64.8764 74.2716 65.143C74.2716 65.6017 74.0316 66.055 73.5516 66.503C73.0823 66.9404 72.4476 67.159 71.6476 67.159C71.1143 67.159 70.7036 66.9724 70.4156 66.599C70.1383 66.2257 70.0636 65.655 70.1916 64.887L70.4956 63.191C70.6663 62.3377 70.7463 61.7564 70.7356 61.447C70.7356 61.127 70.6076 60.967 70.3516 60.967C70.2556 60.967 70.1489 60.9937 70.0316 61.047C69.9249 61.1004 69.7863 61.223 69.6156 61.415C69.4556 61.5964 69.2956 61.8417 69.1356 62.151C68.9756 62.4497 68.8049 62.8817 68.6236 63.447C68.4529 64.0124 68.2929 64.663 68.1436 65.399L67.9996 66.183C67.9249 66.4817 67.7436 66.663 67.4556 66.727L65.5996 67.159C65.4396 67.191 65.3169 67.1537 65.2316 67.047C65.1463 66.9404 65.1196 66.7964 65.1516 66.615L65.8236 63.191C65.9303 62.6257 65.9889 62.183 65.9996 61.863C66.0209 61.5324 65.9996 61.303 65.9356 61.175C65.8716 61.0364 65.7596 60.967 65.5996 60.967C65.5036 60.967 65.4023 60.9937 65.2956 61.047C65.1889 61.1004 65.0556 61.223 64.8956 61.415C64.7356 61.5964 64.5809 61.8417 64.4316 62.151C64.2929 62.4497 64.1383 62.8817 63.9676 63.447C63.7969 64.0017 63.6369 64.6524 63.4876 65.399L63.3276 66.183C63.2636 66.4817 63.0823 66.663 62.7836 66.727L60.9436 67.159C60.7836 67.191 60.6556 67.1537 60.5596 67.047C60.4743 66.9404 60.4476 66.7964 60.4796 66.615L61.2476 61.975C61.2903 61.7404 61.2796 61.5537 61.2156 61.415C61.1623 61.2657 61.0823 61.175 60.9756 61.143C60.8796 61.1004 60.7889 61.0364 60.7036 60.951C60.6183 60.8657 60.5756 60.759 60.5756 60.631C60.5756 60.471 60.6716 60.311 60.8636 60.151C61.0556 59.991 61.4609 59.783 62.0796 59.527C62.7623 59.271 63.2423 59.143 63.5196 59.143C63.9249 59.143 64.1063 59.3457 64.0636 59.751L63.9356 60.759C64.3303 60.2044 64.7729 59.799 65.2636 59.543C65.7649 59.2764 66.2449 59.143 66.7036 59.143C67.2156 59.143 67.6476 59.2817 67.9996 59.559C68.3516 59.8257 68.5969 60.1937 68.7356 60.663C69.0769 60.1724 69.4983 59.799 69.9996 59.543C70.5009 59.2764 71.0183 59.143 71.5516 59.143C72.2663 59.143 72.8103 59.463 73.1836 60.103C73.5676 60.7324 73.6636 61.5164 73.4716 62.455L73.0556 64.391C72.9916 64.711 72.9703 64.9297 72.9916 65.047C73.0129 65.1644 73.0823 65.223 73.1996 65.223C73.3063 65.223 73.4343 65.143 73.5836 64.983C73.7436 64.823 73.8663 64.743 73.9516 64.743ZM81.1972 61.207C81.8159 61.207 82.3332 61.399 82.7492 61.783C83.1652 62.1564 83.3732 62.6417 83.3732 63.239C83.3732 64.0284 83.1332 64.7324 82.6532 65.351C82.1839 65.9697 81.6132 66.4284 80.9412 66.727C80.2799 67.015 79.6079 67.159 78.9252 67.159C77.8159 67.159 77.0052 66.903 76.4932 66.391C75.9812 65.8684 75.8105 65.095 75.9812 64.071L76.3332 61.943C76.4079 61.495 76.3119 61.2177 76.0452 61.111C75.7892 60.9617 75.6612 60.8017 75.6612 60.631C75.6612 60.5244 75.6879 60.4284 75.7412 60.343C75.7945 60.247 75.9385 60.1244 76.1732 59.975C76.4079 59.8257 76.7385 59.6764 77.1652 59.527C77.9012 59.271 78.5039 59.143 78.9732 59.143C79.3679 59.143 79.5279 59.3457 79.4532 59.751L79.1012 62.023C79.7305 61.479 80.4292 61.207 81.1972 61.207ZM87.9812 65.175C87.9919 65.6124 87.7519 66.055 87.2612 66.503C86.7812 66.9404 86.1412 67.159 85.3412 67.159C84.7972 67.159 84.3705 66.9777 84.0612 66.615C83.7519 66.2417 83.6559 65.6764 83.7732 64.919L84.4612 60.183C84.5039 59.8737 84.6852 59.6817 85.0052 59.607L86.8292 59.175C86.9785 59.143 87.0959 59.1804 87.1812 59.287C87.2772 59.3937 87.3145 59.5324 87.2932 59.703L86.6212 64.391C86.5465 64.935 86.6479 65.207 86.9252 65.207C87.0319 65.207 87.1599 65.1324 87.3092 64.983C87.4585 64.8337 87.5759 64.759 87.6612 64.759C87.8745 64.759 87.9812 64.8977 87.9812 65.175ZM80.5732 63.687C80.5945 63.1004 80.4079 62.807 80.0132 62.807C79.6719 62.807 79.3732 63.0684 79.1172 63.591C78.8612 64.1137 78.7385 64.6097 78.7492 65.079C78.7599 65.3244 78.8185 65.5324 78.9252 65.703C79.0319 65.863 79.1865 65.9377 79.3892 65.927C79.7092 65.927 79.9865 65.687 80.2212 65.207C80.4559 64.727 80.5732 64.2204 80.5732 63.687ZM95.8865 67.127C95.1398 67.127 94.6171 66.967 94.3185 66.647C94.0305 66.327 93.8011 65.751 93.6305 64.919C93.6198 64.855 93.5985 64.7377 93.5665 64.567C93.5451 64.3964 93.5185 64.2737 93.4865 64.199C93.4651 64.1244 93.4278 64.0337 93.3745 63.927C93.3211 63.8097 93.2411 63.7297 93.1345 63.687C93.0385 63.6444 92.9105 63.623 92.7505 63.623C92.6545 63.623 92.5851 63.655 92.5425 63.719C92.5105 63.7724 92.4785 63.9004 92.4465 64.103L92.3825 64.647C92.3505 64.8604 92.3398 65.047 92.3505 65.207C92.3611 65.463 92.4625 65.6924 92.6545 65.895C92.8571 66.087 92.9425 66.295 92.9105 66.519C92.8678 66.839 92.5905 66.999 92.0785 66.999H89.1985C88.9105 66.999 88.7078 66.9617 88.5905 66.887C88.4625 66.8124 88.4091 66.679 88.4305 66.487C88.4518 66.3164 88.5265 66.183 88.6545 66.087C88.7718 65.9804 88.9051 65.863 89.0545 65.735C89.2038 65.5964 89.3158 65.4204 89.3905 65.207C89.4545 64.9297 89.4971 64.743 89.5185 64.647L89.9185 61.671C89.9505 61.4577 89.9611 61.2657 89.9505 61.095C89.9398 60.839 89.8331 60.615 89.6305 60.423C89.4385 60.231 89.3585 60.023 89.3905 59.799C89.4331 59.479 89.7105 59.319 90.2225 59.319H93.1025C93.3905 59.319 93.5931 59.3564 93.7105 59.431C93.8385 59.5057 93.8918 59.6337 93.8705 59.815C93.8385 60.0177 93.6891 60.2204 93.4225 60.423C93.1665 60.615 92.9958 60.839 92.9105 61.095C92.8358 61.4257 92.7931 61.6177 92.7825 61.671L92.7345 62.103C92.7131 62.2524 92.7185 62.343 92.7505 62.375C92.7825 62.407 92.8678 62.423 93.0065 62.423H93.1665C93.4118 62.423 93.6358 62.311 93.8385 62.087C94.0518 61.863 94.2438 61.591 94.4145 61.271C94.5851 60.951 94.7718 60.631 94.9745 60.311C95.1771 59.991 95.4438 59.719 95.7745 59.495C96.1051 59.271 96.4838 59.159 96.9105 59.159C97.3478 59.159 97.6945 59.2924 97.9505 59.559C98.2065 59.8257 98.2971 60.2044 98.2225 60.695C98.1798 61.0684 98.0411 61.3617 97.8065 61.575C97.5825 61.7884 97.3265 61.895 97.0385 61.895C96.8891 61.895 96.7611 61.8577 96.6545 61.783C96.5585 61.6977 96.4891 61.6124 96.4465 61.527C96.4145 61.431 96.3611 61.3457 96.2865 61.271C96.2225 61.1857 96.1425 61.143 96.0465 61.143C95.8971 61.143 95.7425 61.2657 95.5825 61.511C95.4331 61.7564 95.2465 62.0444 95.0225 62.375C94.7985 62.7057 94.5531 62.9404 94.2865 63.079C94.9051 63.1324 95.3638 63.303 95.6625 63.591C95.9611 63.8684 96.1905 64.2897 96.3505 64.855C96.4251 65.111 96.4998 65.319 96.5745 65.479C96.6491 65.639 96.7345 65.751 96.8305 65.815C96.9265 65.879 97.0011 65.9217 97.0545 65.943C97.1185 65.9537 97.2145 65.959 97.3425 65.959C97.5771 65.9804 97.6838 66.119 97.6625 66.375C97.6305 66.5884 97.4545 66.7697 97.1345 66.919C96.8251 67.0577 96.4091 67.127 95.8865 67.127ZM108.585 65.175C108.596 65.6124 108.361 66.055 107.881 66.503C107.412 66.9404 106.788 67.159 106.009 67.159C105.614 67.159 105.268 67.0577 104.969 66.855C104.681 66.6417 104.494 66.3217 104.409 65.895C103.705 66.7377 102.868 67.159 101.897 67.159C101.097 67.159 100.446 66.887 99.945 66.343C99.4436 65.799 99.193 65.1004 99.193 64.247C99.193 62.839 99.689 61.639 100.681 60.647C101.673 59.655 102.761 59.159 103.945 59.159C104.329 59.159 104.697 59.2177 105.049 59.335C105.412 59.4417 105.625 59.495 105.689 59.495C105.806 59.495 106.057 59.431 106.441 59.303C106.836 59.175 107.113 59.111 107.273 59.111C107.486 59.111 107.646 59.1804 107.753 59.319C107.86 59.4577 107.902 59.6124 107.881 59.783L107.209 64.391C107.134 64.935 107.236 65.207 107.513 65.207C107.62 65.207 107.748 65.1324 107.897 64.983C108.057 64.8337 108.18 64.759 108.265 64.759C108.478 64.759 108.585 64.8977 108.585 65.175ZM102.905 65.383C103.342 65.383 103.705 65.1057 103.993 64.551C104.281 63.9964 104.489 63.303 104.617 62.471C104.83 61.0524 104.569 60.343 103.833 60.343C103.3 60.343 102.878 60.6897 102.569 61.383C102.27 62.0657 102.11 62.8924 102.089 63.863C102.078 64.3004 102.142 64.663 102.281 64.951C102.42 65.239 102.628 65.383 102.905 65.383ZM123.435 64.743C123.648 64.743 123.755 64.8764 123.755 65.143C123.755 65.6017 123.515 66.055 123.035 66.503C122.565 66.9404 121.931 67.159 121.131 67.159C120.597 67.159 120.187 66.9724 119.899 66.599C119.621 66.2257 119.547 65.655 119.675 64.887L119.979 63.191C120.149 62.3377 120.229 61.7564 120.219 61.447C120.219 61.127 120.091 60.967 119.835 60.967C119.739 60.967 119.632 60.9937 119.515 61.047C119.408 61.1004 119.269 61.223 119.099 61.415C118.939 61.5964 118.779 61.8417 118.619 62.151C118.459 62.4497 118.288 62.8817 118.107 63.447C117.936 64.0124 117.776 64.663 117.627 65.399L117.483 66.183C117.408 66.4817 117.227 66.663 116.939 66.727L115.083 67.159C114.923 67.191 114.8 67.1537 114.715 67.047C114.629 66.9404 114.603 66.7964 114.635 66.615L115.307 63.191C115.413 62.6257 115.472 62.183 115.483 61.863C115.504 61.5324 115.483 61.303 115.419 61.175C115.355 61.0364 115.243 60.967 115.083 60.967C114.987 60.967 114.885 60.9937 114.779 61.047C114.672 61.1004 114.539 61.223 114.379 61.415C114.219 61.5964 114.064 61.8417 113.915 62.151C113.776 62.4497 113.621 62.8817 113.451 63.447C113.28 64.0017 113.12 64.6524 112.971 65.399L112.811 66.183C112.747 66.4817 112.565 66.663 112.267 66.727L110.427 67.159C110.267 67.191 110.139 67.1537 110.043 67.047C109.957 66.9404 109.931 66.7964 109.963 66.615L110.731 61.975C110.773 61.7404 110.763 61.5537 110.699 61.415C110.645 61.2657 110.565 61.175 110.459 61.143C110.363 61.1004 110.272 61.0364 110.187 60.951C110.101 60.8657 110.059 60.759 110.059 60.631C110.059 60.471 110.155 60.311 110.347 60.151C110.539 59.991 110.944 59.783 111.563 59.527C112.245 59.271 112.725 59.143 113.003 59.143C113.408 59.143 113.589 59.3457 113.547 59.751L113.419 60.759C113.813 60.2044 114.256 59.799 114.747 59.543C115.248 59.2764 115.728 59.143 116.187 59.143C116.699 59.143 117.131 59.2817 117.483 59.559C117.835 59.8257 118.08 60.1937 118.219 60.663C118.56 60.1724 118.981 59.799 119.483 59.543C119.984 59.2764 120.501 59.143 121.035 59.143C121.749 59.143 122.293 59.463 122.667 60.103C123.051 60.7324 123.147 61.5164 122.955 62.455L122.539 64.391C122.475 64.711 122.453 64.9297 122.475 65.047C122.496 65.1644 122.565 65.223 122.683 65.223C122.789 65.223 122.917 65.143 123.067 64.983C123.227 64.823 123.349 64.743 123.435 64.743ZM130.68 61.207C131.299 61.207 131.816 61.399 132.232 61.783C132.648 62.1564 132.856 62.6417 132.856 63.239C132.856 64.0284 132.616 64.7324 132.136 65.351C131.667 65.9697 131.096 66.4284 130.424 66.727C129.763 67.015 129.091 67.159 128.408 67.159C127.299 67.159 126.488 66.903 125.976 66.391C125.464 65.8684 125.294 65.095 125.464 64.071L125.816 61.943C125.891 61.495 125.795 61.2177 125.528 61.111C125.272 60.9617 125.144 60.8017 125.144 60.631C125.144 60.5244 125.171 60.4284 125.224 60.343C125.278 60.247 125.422 60.1244 125.656 59.975C125.891 59.8257 126.222 59.6764 126.648 59.527C127.384 59.271 127.987 59.143 128.456 59.143C128.851 59.143 129.011 59.3457 128.936 59.751L128.584 62.023C129.214 61.479 129.912 61.207 130.68 61.207ZM130.056 63.687C130.078 63.1004 129.891 62.807 129.496 62.807C129.155 62.807 128.856 63.0684 128.6 63.591C128.344 64.1137 128.222 64.6097 128.232 65.079C128.243 65.3244 128.302 65.5324 128.408 65.703C128.515 65.863 128.67 65.9377 128.872 65.927C129.192 65.927 129.47 65.687 129.704 65.207C129.939 64.727 130.056 64.2204 130.056 63.687ZM137.548 67.159C136.439 67.159 135.58 66.8497 134.972 66.231C134.364 65.6017 134.06 64.7964 134.06 63.815C134.06 62.535 134.524 61.4417 135.452 60.535C136.38 59.6177 137.463 59.159 138.7 59.159C139.554 59.159 140.274 59.383 140.86 59.831C141.447 60.2684 141.746 60.8284 141.756 61.511C141.767 62.0337 141.623 62.4657 141.324 62.807C141.026 63.1484 140.652 63.2977 140.204 63.255C139.564 63.1697 139.244 62.775 139.244 62.071C139.234 60.9937 138.94 60.455 138.364 60.455C137.98 60.455 137.65 60.7004 137.372 61.191C137.106 61.6817 136.972 62.2577 136.972 62.919C136.972 63.623 137.154 64.1724 137.516 64.567C137.89 64.951 138.434 65.143 139.148 65.143C139.746 65.143 140.338 64.935 140.924 64.519C141.138 64.359 141.303 64.343 141.42 64.471C141.538 64.5884 141.532 64.7804 141.404 65.047C141.159 65.6017 140.695 66.0924 140.012 66.519C139.33 66.9457 138.508 67.159 137.548 67.159ZM149.564 67.159C149.009 67.159 148.577 66.9777 148.268 66.615C147.969 66.2417 147.889 65.6604 148.028 64.871L148.124 64.295C148.167 64.103 148.092 64.007 147.9 64.007C147.815 64.007 147.751 64.0177 147.708 64.039C147.58 64.071 147.457 64.1457 147.34 64.263C147.233 64.3804 147.148 64.4977 147.084 64.615C147.031 64.7324 146.94 64.919 146.812 65.175C146.695 65.431 146.599 65.6337 146.524 65.783C146.3 66.2097 146.012 66.5404 145.66 66.775C145.319 67.0097 144.791 67.127 144.076 67.127C142.956 67.127 142.428 66.9297 142.492 66.535C142.524 66.2897 142.673 66.1404 142.94 66.087C143.132 66.023 143.26 65.975 143.324 65.943C143.388 65.911 143.489 65.831 143.628 65.703C143.767 65.575 143.911 65.3884 144.06 65.143C144.423 64.5564 144.828 64.1244 145.276 63.847C144.316 63.4737 143.905 62.807 144.044 61.847C144.151 61.0684 144.567 60.455 145.292 60.007C146.017 59.5484 146.935 59.319 148.044 59.319H151.692C152.225 59.319 152.476 59.463 152.444 59.751C152.423 59.911 152.257 60.119 151.948 60.375C151.649 60.631 151.479 60.9137 151.436 61.223L150.988 64.391C150.935 64.7217 150.919 64.9404 150.94 65.047C150.961 65.1537 151.031 65.207 151.148 65.207C151.255 65.207 151.383 65.1324 151.532 64.983C151.692 64.8337 151.815 64.759 151.9 64.759C152.113 64.759 152.22 64.8977 152.22 65.175C152.231 65.6124 151.991 66.055 151.5 66.503C151.02 66.9404 150.375 67.159 149.564 67.159ZM147.74 62.871C147.921 62.871 148.049 62.839 148.124 62.775C148.209 62.711 148.263 62.5937 148.284 62.423L148.492 61.095C148.545 60.903 148.551 60.7484 148.508 60.631C148.465 60.503 148.321 60.439 148.076 60.439C147.777 60.439 147.527 60.5457 147.324 60.759C147.121 60.9724 146.988 61.2817 146.924 61.687C146.871 62.0497 146.929 62.3377 147.1 62.551C147.281 62.7644 147.495 62.871 147.74 62.871ZM154.855 67.191C154.471 67.191 154.151 67.079 153.895 66.855C153.65 66.6204 153.527 66.2897 153.527 65.863C153.527 65.3617 153.698 64.9564 154.039 64.647C154.391 64.3377 154.791 64.183 155.239 64.183C155.613 64.183 155.922 64.3057 156.167 64.551C156.423 64.7857 156.551 65.1164 156.551 65.543C156.551 66.0444 156.381 66.4444 156.039 66.743C155.709 67.0417 155.314 67.191 154.855 67.191ZM159.832 67.191C159.448 67.191 159.128 67.079 158.872 66.855C158.626 66.6204 158.504 66.2897 158.504 65.863C158.504 65.3617 158.674 64.9564 159.016 64.647C159.368 64.3377 159.768 64.183 160.216 64.183C160.589 64.183 160.898 64.3057 161.144 64.551C161.4 64.7857 161.528 65.1164 161.528 65.543C161.528 66.0444 161.357 66.4444 161.016 66.743C160.685 67.0417 160.29 67.191 159.832 67.191ZM164.808 67.191C164.424 67.191 164.104 67.079 163.848 66.855C163.603 66.6204 163.48 66.2897 163.48 65.863C163.48 65.3617 163.651 64.9564 163.992 64.647C164.344 64.3377 164.744 64.183 165.192 64.183C165.565 64.183 165.875 64.3057 166.12 64.551C166.376 64.7857 166.504 65.1164 166.504 65.543C166.504 66.0444 166.333 66.4444 165.992 66.743C165.661 67.0417 165.267 67.191 164.808 67.191ZM169.784 67.191C169.4 67.191 169.08 67.079 168.824 66.855C168.579 66.6204 168.456 66.2897 168.456 65.863C168.456 65.3617 168.627 64.9564 168.968 64.647C169.32 64.3377 169.72 64.183 170.168 64.183C170.541 64.183 170.851 64.3057 171.096 64.551C171.352 64.7857 171.48 65.1164 171.48 65.543C171.48 66.0444 171.309 66.4444 170.968 66.743C170.637 67.0417 170.243 67.191 169.784 67.191Z" fill="#C5FF71"/>
</svg>
