<svg width="17" height="16" viewBox="0 0 17 16" fill="none" xmlns="http://www.w3.org/2000/svg">
<path d="M8.24343 15.8569C8.02885 16.0477 7.82619 16.0477 7.63545 15.8569L0.160935 8.34665C-0.0536451 8.1559 -0.0536451 7.96517 0.160935 7.77442L7.63545 0.264147C7.82619 0.0734095 8.02885 0.0734095 8.24343 0.264147L8.9587 0.979412C9.03022 1.05094 9.06599 1.14631 9.06599 1.26551C9.06599 1.38473 9.03022 1.49202 8.9587 1.58739L3.41539 7.13069H15.6106C15.8968 7.13069 16.0398 7.27375 16.0398 7.55985V8.56123C16.0398 8.84733 15.8968 8.99038 15.6106 8.99038H3.41539L8.9587 14.5336C9.14943 14.7482 9.14943 14.9509 8.9587 15.1417L8.24343 15.8569Z" fill="#171C1D"/>
</svg>
