<svg width="14" height="32" viewBox="0 0 14 32" fill="none" xmlns="http://www.w3.org/2000/svg">
<path d="M13.3828 6.74886C13.5391 6.57319 13.5391 6.40727 13.3828 6.25111L7.23423 0.131757C7.07806 -0.0439188 6.92192 -0.0439188 6.76575 0.131757L0.617117 6.25111C0.460961 6.40727 0.460961 6.57319 0.617117 6.74886L1.2027 7.33445C1.26126 7.393 1.33934 7.42229 1.43693 7.42229C1.53453 7.42229 1.62237 7.393 1.70045 7.33445L6.23873 2.79616L6.23873 31.4053C6.23873 31.6396 6.39907 32 6.6333 32L7.45313 32C7.68735 32 7.76125 31.6396 7.76125 31.4054L7.76125 2.79616L12.2995 7.33445C12.4752 7.49061 12.6411 7.49061 12.7973 7.33445L13.3828 6.74886Z" fill="#CACCD9"/>
</svg>
