<svg width="17" height="17" viewBox="0 0 17 17" fill="none" xmlns="http://www.w3.org/2000/svg">
<path d="M8.29541 15.9769C8.50945 16.1692 8.71161 16.1692 8.90188 15.9769L16.3578 8.40938C16.5719 8.21717 16.5719 8.02499 16.3578 7.83279L8.90188 0.265238C8.71161 0.0730458 8.50945 0.0730458 8.29541 0.265238L7.58192 0.985958C7.51057 1.05803 7.47489 1.15413 7.47489 1.27424C7.47489 1.39437 7.51057 1.50247 7.58192 1.59857L13.1115 7.18414H0.946511C0.661085 7.18414 0.518372 7.32829 0.518372 7.61657V8.62559C0.518372 8.91387 0.661085 9.05802 0.946511 9.05802H13.1115L7.58192 14.6436C7.39165 14.8598 7.39165 15.064 7.58192 15.2562L8.29541 15.9769Z" fill="#171C1D"/>
</svg>
