<svg width="18" height="20" viewBox="0 0 18 20" fill="none" xmlns="http://www.w3.org/2000/svg">
<path d="M17.233 14.8793C17.1535 14.4552 16.7453 14.1758 16.3212 14.2553C15.8971 14.3348 15.6177 14.743 15.6972 15.1671C15.7562 15.4817 15.6178 15.7059 15.5302 15.8116C15.4427 15.917 15.2484 16.0938 14.9294 16.0938H3.07035C2.7514 16.0938 2.55703 15.917 2.46957 15.8116C2.38191 15.7059 2.24359 15.4817 2.30257 15.1671C2.52418 13.9846 2.96882 13.2068 3.39882 12.4546C3.92105 11.5412 4.46105 10.5966 4.46105 9.14059V7.96871C4.46105 5.50516 6.46351 3.47371 8.92597 3.43797H9.07367C11.5278 3.47363 13.5236 5.50508 13.5236 7.96875V9.14062C13.5236 10.3798 13.9289 11.2325 14.3089 11.9345C14.4503 12.1957 14.7191 12.344 14.9966 12.344C15.1222 12.344 15.2496 12.3137 15.3678 12.2497C15.7473 12.0443 15.8884 11.5702 15.683 11.1908C15.305 10.4923 15.0861 9.93285 15.0861 9.14062V7.96875C15.0861 6.3609 14.4633 4.8423 13.3324 3.69273C12.3633 2.70754 11.1189 2.09273 9.77359 1.92305V0.78125C9.77359 0.349766 9.42382 0 8.99234 0C8.56085 0 8.21109 0.349766 8.21109 0.78125V1.92535C5.22445 2.31285 2.89859 4.88988 2.89859 7.96875V9.14062C2.89859 10.1815 2.52074 10.8424 2.04238 11.6791C1.57113 12.5035 1.03695 13.4379 0.766793 14.8793C0.637848 15.5674 0.82027 16.2709 1.2673 16.8095C1.7139 17.3477 2.37113 17.6562 3.07035 17.6562H6.66367C6.66367 18.9486 7.71507 20 9.00742 20C10.2998 20 11.3512 18.9486 11.3512 17.6562H14.9294C15.6286 17.6562 16.2859 17.3477 16.7325 16.8095C17.1795 16.271 17.3619 15.5674 17.233 14.8793ZM9.00742 18.4375C8.57664 18.4375 8.22617 18.087 8.22617 17.6562H9.78867C9.78867 18.087 9.43824 18.4375 9.00742 18.4375Z" fill="#CACCD9"/>
</svg>
