<svg width="70" height="48" viewBox="0 0 70 48" fill="none" xmlns="http://www.w3.org/2000/svg">
<path d="M64.0236 30.8236V30.9624L64.1619 30.9732C65.9226 31.1106 67.5181 31.9736 68.5964 33.3934L68.7158 33.3026L68.5964 33.3934C69.7752 34.9453 70.1447 36.9074 69.611 38.7786L68.7475 41.8059C67.7327 45.3638 64.4269 47.85 60.7088 47.85H32.6471C28.929 47.85 25.6232 45.3638 24.6084 41.8059L23.7451 38.7786C23.2114 36.9074 23.5809 34.9454 24.7596 33.3934C25.9381 31.8414 27.7347 30.9515 29.6903 30.9515H31.3054H31.4554V30.8015V9.59477V9.51799L31.3931 9.4731L26.9754 6.28838L26.9445 6.2661L26.9067 6.26127L9.61254 4.05309L9.49228 4.03773L9.45204 4.15211L4.59278 17.9662L4.53941 18.1179L4.69447 18.1606L15.9378 21.2554C16.4866 21.4065 16.9358 21.7985 17.1579 22.3196L17.1579 22.3196C17.3801 22.8406 17.3509 23.4341 17.0789 23.9311L13.4366 30.5857C12.1875 32.8678 9.75242 34.2553 7.20133 34.2553C6.7212 34.2553 6.23717 34.2061 5.75601 34.1046C2.46313 33.4096 0.105952 30.4741 0.150625 27.1263L0.254312 19.3565L0.254316 19.3561C0.256552 19.1566 0.291285 18.9567 0.358866 18.7645C0.358869 18.7645 0.358872 18.7645 0.358875 18.7645L6.46947 1.393C6.76045 0.565944 7.59434 0.0536043 8.46801 0.165205L8.46801 0.165206L27.8917 2.64536L27.8917 2.64536C28.2015 2.68488 28.4964 2.80121 28.749 2.98343L28.7491 2.98344L36.5322 8.59423L36.5715 8.62255H36.6199H49.1243C50.0377 8.62255 50.8159 9.2799 50.9649 10.1752L52.1037 17.0202L52.119 17.1119L52.2079 17.1391L62.7048 20.3402L62.7486 20.1967L62.7048 20.3402C63.489 20.5792 64.0236 21.2993 64.0236 22.1143V30.8236ZM12.5874 24.3754L12.6784 24.2091L6.56163 30.3273L6.53063 30.4741C6.53064 30.4741 6.53064 30.4741 6.53065 30.4741C7.96574 30.7771 9.45745 30.0939 10.1595 28.8112L12.5874 24.3754ZM60.1422 30.9515H60.2922V30.8015V23.5975V23.4864L60.186 23.454L52.5263 21.1181L52.3326 21.0591V21.2616V30.8015V30.9515H52.4826H60.1422ZM40.5141 12.4838V12.3338H40.3641H35.3368H35.1868V12.4838V22.2871V22.4924L35.3824 22.43L40.4097 20.8271L40.5141 20.7938V20.6841V12.4838ZM35.2912 26.3566L35.3135 26.4995H35.187V30.8015V30.9515H35.337H48.4514H48.6014V30.8015V18.7139V18.7015L48.5993 18.6893L47.5628 12.4591L47.5419 12.3338H47.4148H44.3955H44.2455V12.4838V22.1477C44.2455 22.9539 43.7219 23.6685 42.9493 23.9148L35.2912 26.3566ZM27.7367 35.6304L27.8562 35.7212L27.7367 35.6305C27.2699 36.2452 27.1231 37.0242 27.3346 37.7658L28.1979 40.7931C28.76 42.7636 30.5893 44.1386 32.6469 44.1386H60.7087C62.7663 44.1386 64.5956 42.7636 65.1576 40.7931L66.0212 37.7658C66.2326 37.0242 66.0858 36.2451 65.6189 35.6305C65.152 35.0157 64.4393 34.6628 63.6655 34.6628H29.6901C28.9163 34.6628 28.2036 35.0158 27.7367 35.6304Z" fill="white" stroke="#EF3024" stroke-width="0.3"/>
</svg>
