<svg width="56" height="60" viewBox="0 0 56 60" fill="none" xmlns="http://www.w3.org/2000/svg">
<path d="M41.8398 0.15H54.3452C55.1757 0.15 55.8501 0.826039 55.85 1.66127V14.2147C55.85 15.05 55.1756 15.726 54.345 15.726H53.352H53.202V15.876V58.3387C53.202 59.174 52.5276 59.85 51.6971 59.85H44.4876C43.6571 59.85 42.9827 59.174 42.9827 58.3387V15.876V15.726H42.8326H9.38673H9.23673V15.876V29.005V29.1075L9.33215 29.1447C10.9846 29.7903 12.1589 31.4048 12.1589 33.2889C12.1589 35.74 10.1723 37.7335 7.73176 37.7335C5.94886 37.7335 4.34805 36.6685 3.65313 35.0195C3.32907 34.2504 3.68782 33.3636 4.45316 33.0386L4.39455 32.9006L4.45317 33.0386C5.21845 32.7137 6.10131 33.0729 6.42526 33.8417L6.56349 33.7834L6.42526 33.8417C6.64758 34.3692 7.1605 34.7108 7.73176 34.7108C8.5138 34.7108 9.14894 34.0725 9.14894 33.2888C9.14894 32.505 8.5138 31.8667 7.73176 31.8667C6.90119 31.8667 6.22679 31.1907 6.22679 30.3555V15.8757V15.7257H6.07679H1.65497C0.824404 15.7257 0.15 15.0497 0.15 14.2144V6.97744C0.15 6.14218 0.824404 5.46615 1.65497 5.46615H40.1848H40.3348V5.31614V1.6613C40.3348 0.826039 41.0092 0.15 41.8398 0.15ZM52.6902 12.7031H52.8402V12.5531V3.32259V3.17259H52.6902H51.1039H50.9539V3.32259V12.5531V12.7031H51.1039H52.6902ZM43.4948 3.17259H43.3448V3.32259V12.5531V12.7031H43.4948H47.794H47.944V12.5531V3.32259V3.17259H47.794H43.4948ZM40.1848 12.7031H40.3348V12.5531V8.63874V8.48874H40.1848H34.2582H33.8635L34.1585 8.75086L38.5638 12.6653L38.6064 12.7031H38.6634H40.1848ZM17.381 12.7031H17.7757L17.4807 12.441L13.7026 9.084L13.6029 8.99547L13.5033 9.084L9.72534 12.441L9.43034 12.7031H9.82497H17.381ZM17.9694 8.48874H17.5748L17.8698 8.75086L21.6478 12.1079L21.7474 12.1964L21.847 12.1079L25.625 8.75086L25.92 8.48874H25.5254H17.9694ZM29.9915 9.084L29.8918 8.99547L29.7922 9.084L26.0142 12.441L25.7192 12.7031H26.1139H33.6698H34.0644L33.7694 12.441L29.9915 9.084ZM3.30994 8.48874H3.15994V8.63874V12.5531V12.7031H3.30994H4.83133H4.88834L4.93096 12.6653L9.33623 8.75086L9.63123 8.48874H9.2366H3.30994ZM46.2552 40.5604L45.9927 40.2627V40.6596V48.2444V48.6413L46.2552 48.3436L49.5995 44.5512L49.6869 44.452L49.5995 44.3528L46.2552 40.5604ZM46.5854 36.1772L46.4979 36.2764L46.5854 36.3757L49.9297 40.1682L50.1922 40.4659V40.069V32.484V32.0872L49.9297 32.3848L46.5854 36.1772ZM45.9927 31.8933V32.2902L46.2552 31.9925L49.5995 28.2001L49.6869 28.1009L49.5995 28.0017L46.2552 24.2093L45.9927 23.9116V24.3085V31.8933ZM45.9927 56.6771V56.8271H46.1427H50.0422H50.1922V56.6771V48.835V48.4381L49.9297 48.7358L46.0302 53.1579L45.9927 53.2004V53.2571V56.6771ZM49.9297 23.8171L50.1922 24.1147V23.7178V15.8757V15.7257H50.0422H46.1427H45.9927V15.8757V19.2957V19.3524L46.0302 19.395L49.9297 23.8171Z" fill="white" stroke="#D12419" stroke-width="0.3"/>
</svg>
