<svg width="16" height="14" viewBox="0 0 16 14" fill="none" xmlns="http://www.w3.org/2000/svg">
<path d="M8.00474 13.0297C6.06041 13.0297 4.27489 12.3303 2.69786 10.9512C1.41417 9.82861 0.591535 8.51709 0.215437 7.83521C-0.0741141 7.3103 -0.0716727 6.68481 0.222029 6.16187C0.604475 5.48096 1.43797 4.17102 2.72325 3.04907C4.30479 1.6687 6.08177 0.968872 8.00474 0.968872C9.92845 0.968872 11.7048 1.66931 13.2842 3.05066C14.5676 4.17297 15.3984 5.48315 15.7794 6.16418C16.0711 6.68567 16.0737 7.30945 15.786 7.83289C15.6123 8.14905 15.3213 8.63977 14.9212 9.18225C14.7165 9.46008 14.3253 9.51917 14.0475 9.31445C13.7696 9.10962 13.7106 8.71838 13.9153 8.44055C14.2745 7.95337 14.5351 7.51392 14.6907 7.23096C14.7693 7.08777 14.7685 6.91711 14.6887 6.77441C13.9223 5.40466 11.737 2.21863 8.00474 2.21863C4.27281 2.21863 2.08092 5.40417 1.31175 6.7738C1.23143 6.91687 1.2307 7.08801 1.3098 7.23145C2.06407 8.599 4.22655 11.7797 8.00474 11.7797C9.39586 11.7797 10.7023 11.3448 11.8877 10.4872C12.1673 10.2849 12.558 10.3477 12.7602 10.6272C12.9626 10.9069 12.8999 11.2975 12.6203 11.4999C11.2173 12.5149 9.66429 13.0297 8.00474 13.0297ZM11.687 6.99927C11.687 4.96631 10.0331 3.31238 8.0001 3.31238C5.96715 3.31238 4.31334 4.96631 4.31334 6.99927C4.31334 9.03223 5.96727 10.686 8.0001 10.686C10.0331 10.686 11.687 9.03223 11.687 6.99927ZM10.4372 6.99927C10.4372 8.34302 9.34398 9.43628 8.0001 9.43628C6.65635 9.43628 5.56309 8.34302 5.56309 6.99927C5.56309 5.65552 6.65635 4.56226 8.0001 4.56226C9.34398 4.56226 10.4372 5.65552 10.4372 6.99927ZM8.70103 7.16895C8.22178 7.13684 7.8397 6.73621 7.8286 6.25598C7.82847 6.25208 7.82835 6.24805 7.82835 6.24414C7.82542 5.97131 7.52342 5.81213 7.29783 5.96558C6.94224 6.20752 6.718 6.62793 6.75413 7.09802C6.80101 7.70654 7.29283 8.19849 7.90135 8.24524C8.37144 8.28137 8.79185 8.05713 9.0338 7.70166C9.18712 7.4762 9.0283 7.17395 8.7556 7.17102C8.73753 7.1709 8.71934 7.17017 8.70103 7.16895Z" fill="#D6D9E2"/>
</svg>
