<svg width="20" height="20" viewBox="0 0 20 20" fill="none" xmlns="http://www.w3.org/2000/svg">
<path d="M19.2188 0.0039978H0.78125C0.349766 0.0039978 0 0.353763 0 0.785248C0 3.8122 0.895625 6.46228 2.81855 9.12517C4.01824 10.7865 5.93605 11.9835 7.03125 12.5312L6.98438 17.2603C6.98438 17.5585 7.15414 17.8307 7.42188 17.9619L11.6094 19.9163C11.7181 19.9695 11.8357 19.996 11.9531 19.996C12.097 19.996 12.5302 19.9949 12.6562 19.9163C12.885 19.7736 13 19.4894 13 19.2197V16C13 15.2812 12.3846 15 11.9531 15C11.5216 15 11 15.3281 11 15.995V17.5312L9.03125 16.5V11.9286C9.03125 11.6234 8.94922 11.3462 8.67188 11.2188C7.21336 10.5486 5.46812 9.50787 4.53125 8.21044C2.9791 6.06103 2.26801 4.36473 2.125 2H17.9062C17.7632 4.36469 17.0053 6.06103 15.4531 8.21044C14.463 9.58165 13.001 10.495 11.5938 11.0781C11.1952 11.2433 10.8936 11.879 11.125 12.4375C11.2902 12.8361 11.8536 12.9756 12.2522 12.8104C13.7452 12.1918 15.9321 10.8554 17.1814 9.12517C19.1044 6.46228 20 3.8122 20 0.785248C20 0.353763 19.6502 0.0039978 19.2188 0.0039978Z" fill="#CACCD9"/>
</svg>
