<svg width="20" height="20" viewBox="0 0 20 20" fill="none" xmlns="http://www.w3.org/2000/svg">
<path d="M19.0025 17.2622H5.62857C5.07737 17.2622 4.63062 16.8155 4.63062 16.2643C4.63062 15.713 5.07737 15.2663 5.62857 15.2663H19.0022C19.5534 15.2663 20.0001 15.713 20.0001 16.2643C20.0001 16.8155 19.5537 17.2622 19.0025 17.2622Z" fill="#CACCD9"/>
<path d="M19.0025 10.9981H5.62857C5.07737 10.9981 4.63062 10.5513 4.63062 10.0001C4.63062 9.44892 5.07737 9.00217 5.62857 9.00217H19.0022C19.5534 9.00217 20.0001 9.44892 20.0001 10.0001C20.0004 10.5513 19.5537 10.9981 19.0025 10.9981Z" fill="#CACCD9"/>
<path d="M19.0025 4.73382H5.62857C5.07737 4.73382 4.63062 4.28707 4.63062 3.73587C4.63062 3.18467 5.07737 2.73792 5.62857 2.73792H19.0022C19.5534 2.73792 20.0001 3.18467 20.0001 3.73587C20.0001 4.28707 19.5537 4.73382 19.0025 4.73382Z" fill="#CACCD9"/>
<path d="M1.34025 5.15338C2.08045 5.15338 2.6805 4.55332 2.6805 3.81312C2.6805 3.07292 2.08045 2.47287 1.34025 2.47287C0.600051 2.47287 0 3.07292 0 3.81312C0 4.55332 0.600051 5.15338 1.34025 5.15338Z" fill="#CACCD9"/>
<path d="M1.34025 11.3403C2.08045 11.3403 2.6805 10.7402 2.6805 10C2.6805 9.25984 2.08045 8.65979 1.34025 8.65979C0.600051 8.65979 0 9.25984 0 10C0 10.7402 0.600051 11.3403 1.34025 11.3403Z" fill="#CACCD9"/>
<path d="M1.34025 17.5273C2.08045 17.5273 2.6805 16.9273 2.6805 16.1871C2.6805 15.4469 2.08045 14.8468 1.34025 14.8468C0.600051 14.8468 0 15.4469 0 16.1871C0 16.9273 0.600051 17.5273 1.34025 17.5273Z" fill="#CACCD9"/>
</svg>
