<svg width="171" height="39" viewBox="0 0 171 39" fill="none" xmlns="http://www.w3.org/2000/svg">
<path fill-rule="evenodd" clip-rule="evenodd" d="M33.5946 30.4748C36.8849 30.4756 39.6252 29.394 41.8156 27.23C44.0059 25.0675 45.1007 22.4383 45.0999 19.3422V19.2808C45.0999 16.1848 44.015 13.5654 41.8452 11.4226C39.6754 9.27987 36.9453 8.2085 33.655 8.2085C30.3647 8.2085 27.6244 9.29011 25.434 11.4533C23.2437 13.6165 22.1485 16.2462 22.1485 19.3422V19.4036C22.1485 22.4997 23.2338 25.1199 25.4044 27.2642C27.5743 29.4038 30.3043 30.474 33.5946 30.4748ZM33.6562 26.1082C31.7643 26.1082 30.2013 25.4521 28.9671 24.1398C27.733 22.8275 27.1159 21.2284 27.1159 19.3422V19.2808C27.1191 17.3931 27.7259 15.8038 28.9363 14.5128C30.1468 13.2218 31.6996 12.5763 33.5946 12.5763C35.4865 12.5794 37.0495 13.2355 38.2837 14.5447C39.5178 15.8538 40.1349 17.453 40.1349 19.3422V19.4036C40.1341 21.2898 39.5273 22.8787 38.3145 24.1705C37.1008 25.4623 35.5481 26.1082 33.6562 26.1082ZM3.16237 27.276C5.26982 29.4085 7.9071 30.4748 11.0742 30.4748C13.0514 30.4756 14.7234 30.158 16.0902 29.5219C17.457 28.8858 18.7373 27.9223 19.9312 26.6313L16.9074 23.586C15.982 24.4472 15.0925 25.0829 14.2389 25.493C13.3854 25.9031 12.383 26.1082 11.2317 26.1082C9.42354 26.1051 7.92724 25.4489 6.74283 24.1398C5.55842 22.8307 4.96622 21.2315 4.96622 19.3422V19.2808C4.96622 17.4136 5.56277 15.8294 6.75586 14.5281C7.94895 13.2269 9.44012 12.5763 11.2294 12.5763C13.0794 12.5763 14.92 13.3859 16.7511 15.0052L19.7737 11.5301C17.5533 9.31571 14.7155 8.20851 11.2602 8.20851C7.99041 8.21245 5.29627 9.29012 3.17776 11.4415C1.05925 13.5929 0 16.2265 0 19.3422V19.4036C0.000789605 22.5194 1.05491 25.1435 3.16237 27.276ZM88.5937 30.1064V12.9447H82.019V8.57571H99.9119V12.9447H93.3408V30.1064H88.5937ZM108.179 8.42336L98.924 30.1063H103.767L105.741 25.2781H114.873L116.848 30.1063H121.816L112.561 8.42336H108.179ZM113.176 21.0945H107.439L110.307 14.1136L113.176 21.0945ZM125.146 30.1063V8.57805H129.528L139.642 21.8325V8.57805H144.331V30.1063H140.289L129.835 16.4197V30.1063H125.146ZM156.92 8.42336L147.665 30.1063H152.508L154.482 25.2781H163.614L165.588 30.1063H170.555L161.302 8.42336H156.92ZM159.048 14.1136L161.917 21.0945H156.18L159.048 14.1136Z" fill="white"/>
<path fill-rule="evenodd" clip-rule="evenodd" d="M63.8892 33.0406L65.6054 31.3296L65.6019 35.244L63.7246 37.1144C63.3345 37.5036 62.8714 37.8123 62.3616 38.023C61.8518 38.2336 61.3054 38.342 60.7535 38.342C60.2017 38.342 59.6552 38.2336 59.1454 38.023C58.6356 37.8123 58.1725 37.5036 57.7824 37.1144L55.7689 35.107C55.3786 34.718 55.0691 34.2561 54.8578 33.7478C54.6466 33.2394 54.5379 32.6946 54.5379 32.1444C54.5379 31.5942 54.6466 31.0493 54.8578 30.541C55.0691 30.0327 55.3786 29.5708 55.7689 29.1818L55.9099 29.0413L56.5554 29.6848L58.5381 27.7081L60.5658 29.7297L61.3072 28.9917L59.2795 26.9701L60.6108 25.6417L61.3522 24.9026L60.6155 24.1646L56.5601 20.1215L55.8187 20.8595L59.8741 24.9026L58.5428 26.2321L56.5151 24.2106L55.8696 24.8542L52.3045 21.3C51.5167 20.5143 51.0741 19.4489 51.0741 18.3379C51.0741 17.227 51.5167 16.1615 52.3045 15.3759L61.0135 6.6935V10.5783L56.5554 15.0217L65.9619 24.4007L66.7022 23.6615L58.0359 15.0217L66.7034 6.38177L65.9631 5.64377L64.2481 7.35356V3.46874L66.1526 1.56884C66.9409 0.783315 68.0098 0.342041 69.1243 0.342041C70.2388 0.342041 71.3077 0.783315 72.096 1.56884L74.0929 3.5514C74.8807 4.33704 75.3233 5.40249 75.3233 6.51342C75.3233 7.62436 74.8807 8.68981 74.0929 9.47545L73.9306 9.63722L73.2839 8.99251L71.3012 10.9692L69.2676 8.95L68.5274 9.688L70.5551 11.7095L69.2226 13.0344L68.4812 13.7736L69.2226 14.5116L73.2839 18.557L74.0254 17.8178L69.97 13.7771L71.3012 12.4487L73.3218 14.4702L73.9697 13.8243L77.5585 17.4021C78.3464 18.188 78.789 19.2536 78.789 20.3648C78.789 21.4759 78.3464 22.5415 77.5585 23.3274L68.84 32.0192V28.1061L72.5555 24.4007L73.297 23.6615L63.8892 14.2837L63.149 15.0217L71.8153 23.6615L63.149 32.3014L63.8892 33.0406ZM63.2002 4.51375L62.0618 5.6485V9.53332L63.2002 8.39857V4.51375ZM66.6538 34.199L67.7922 33.0642V29.1499L66.6538 30.2858V34.199Z" fill="#EF3024"/>
</svg>
