<svg width="17" height="20" viewBox="0 0 17 20" fill="none" xmlns="http://www.w3.org/2000/svg">
<path d="M8.59326 0.00520245C4.59856 0.144027 1.29981 3.29616 0.917642 7.33023C0.845231 8.10601 0.877413 8.88996 1.02224 9.64942C1.02626 9.68208 1.04235 9.77191 1.07453 9.91481C1.19522 10.466 1.37625 11.0009 1.60957 11.5154C2.42219 13.463 4.19627 16.46 8.03408 19.6897C8.27143 19.8898 8.57315 20 8.87888 20C9.18864 20 9.48634 19.8898 9.72369 19.6897C13.5575 16.46 15.3316 13.463 16.1482 11.5154C16.3815 11.0009 16.5626 10.4619 16.6832 9.92298C16.7034 9.83315 16.7235 9.74741 16.7355 9.66166C16.8321 9.15536 16.8804 8.63681 16.8804 8.12235C16.8804 3.54522 13.127 -0.15812 8.59326 0.00520245ZM15.3798 9.39626C15.3798 9.40443 15.3758 9.4126 15.3758 9.41668C15.3718 9.42893 15.3637 9.49018 15.3356 9.6045C15.235 10.0618 15.0821 10.5109 14.889 10.9356C14.885 10.9437 14.881 10.9478 14.881 10.956C14.1327 12.7566 12.4834 15.5372 8.87888 18.5791C5.2744 15.5331 3.62503 12.7525 2.87678 10.956C2.87275 10.9478 2.87275 10.9437 2.86873 10.9356C2.67563 10.5069 2.52276 10.0618 2.42219 9.59633C2.40208 9.50242 2.39001 9.44526 2.38599 9.42485C2.38599 9.41668 2.38196 9.40443 2.38196 9.39626C2.26128 8.76339 2.23312 8.1101 2.29346 7.46497C2.61127 4.1291 5.33877 1.5241 8.64556 1.4057C8.72602 1.40161 8.80245 1.40161 8.88291 1.40161C12.5316 1.40161 15.5045 4.41492 15.5045 8.12235C15.5005 8.54699 15.4603 8.97571 15.3798 9.39626Z" fill="#CACCD9"/>
<path d="M8.87888 3.90045C6.5416 3.90045 4.63477 5.83174 4.63477 8.20809C4.63477 10.5844 6.5416 12.5116 8.87888 12.5116C11.2162 12.5116 13.123 10.5804 13.123 8.20401C13.123 5.82766 11.2162 3.90045 8.87888 3.90045ZM8.87888 11.1112C7.30192 11.1112 6.0146 9.80865 6.0146 8.20401C6.0146 6.60344 7.2979 5.29686 8.87888 5.29686C10.4558 5.29686 11.7431 6.59936 11.7431 8.20401C11.7431 9.80865 10.4558 11.1112 8.87888 11.1112Z" fill="#CACCD9"/>
</svg>
