<svg width="25" height="30" viewBox="0 0 25 30" fill="none" xmlns="http://www.w3.org/2000/svg">
<path d="M22.7112 5.21607C20.4465 1.90143 16.8574 0 12.8647 0C8.87209 0 5.28294 1.90143 3.01827 5.21607C0.764734 8.51396 0.244383 12.6892 1.62356 16.3779C1.99246 17.3853 2.57886 18.364 3.36232 19.2811L12.0751 29.6307C12.2721 29.865 12.5608 30 12.8647 30C13.1686 30 13.4573 29.8651 13.6544 29.6307L22.3647 19.2839C23.1516 18.3615 23.7373 17.3839 24.1031 16.3846C25.4851 12.6892 24.9647 8.51396 22.7112 5.21607ZM22.1608 15.65C21.8787 16.421 21.4181 17.1832 20.7926 17.9164C20.7909 17.9181 20.7892 17.9199 20.7878 17.922L12.8647 27.3332L4.93681 17.9161C4.31171 17.1836 3.85115 16.4214 3.56626 15.643C2.42567 12.5923 2.85854 9.14021 4.72452 6.4091C6.59636 3.66926 9.56354 2.09789 12.8647 2.09789C16.1659 2.09789 19.1327 3.6692 21.0046 6.4091C22.8709 9.14021 23.3041 12.5923 22.1608 15.65Z" fill="white"/>
<path d="M12.8648 6.22363C9.66214 6.22363 7.05627 8.85859 7.05627 12.0978C7.05627 15.337 9.6618 17.9719 12.8648 17.9719C16.0678 17.9719 18.6733 15.337 18.6733 12.0978C18.6733 8.85894 16.0674 6.22363 12.8648 6.22363ZM12.8648 15.874C10.8059 15.874 9.13073 14.1799 9.13073 12.0977C9.13073 10.0155 10.8059 8.32147 12.8648 8.32147C14.9237 8.32147 16.5988 10.0155 16.5988 12.0977C16.5988 14.1799 14.9237 15.874 12.8648 15.874Z" fill="white"/>
</svg>
