<svg width="30" height="31" viewBox="0 0 30 31" fill="none" xmlns="http://www.w3.org/2000/svg">
<g clip-path="url(#clip0)">
<path d="M29.0099 6.87744H8.44886C7.902 6.87744 7.45874 7.3207 7.45874 7.86756V22.719C7.45874 23.2659 7.902 23.7091 8.44886 23.7091H29.01C29.5572 23.7091 30.0001 23.2659 30.0001 22.719V7.8675C30 7.32064 29.5568 6.87744 29.0099 6.87744ZM26.3089 8.85762L18.467 15.4989L11.0412 8.85762H26.3089ZM28.0198 21.7289H9.43892V10.0814L17.7891 17.5494C18.157 17.8788 18.7122 17.886 19.0887 17.5669L28.0198 10.0036V21.7289H28.0198Z" fill="white"/>
<path d="M5.6105 14.3032H3.89429C3.34744 14.3032 2.90417 14.7465 2.90417 15.2933C2.90417 15.8402 3.34744 16.2834 3.89429 16.2834H5.61044C6.1573 16.2834 6.60056 15.8402 6.60056 15.2933C6.60056 14.7465 6.15736 14.3032 5.6105 14.3032Z" fill="white"/>
<path d="M5.61059 18.3301H0.990117C0.443262 18.3301 0 18.7733 0 19.3201C0 19.867 0.443262 20.3103 0.990117 20.3103H5.61059C6.15744 20.3103 6.6007 19.867 6.6007 19.3201C6.60064 18.7733 6.15744 18.3301 5.61059 18.3301Z" fill="white"/>
<path d="M5.61059 10.2773H0.990117C0.443262 10.2773 0 10.7206 0 11.2675C0 11.8143 0.443262 12.2576 0.990117 12.2576H5.61059C6.15744 12.2576 6.6007 11.8143 6.6007 11.2675C6.6007 10.7206 6.15744 10.2773 5.61059 10.2773Z" fill="white"/>
</g>
<defs>
<clipPath id="clip0">
<rect width="30" height="30" fill="white" transform="translate(0 0.293457)"/>
</clipPath>
</defs>
</svg>
