<svg width="74" height="42" viewBox="0 0 74 42" fill="none" xmlns="http://www.w3.org/2000/svg">
<path d="M64.9141 15.5277V15.6777H65.0641H68.8131C69.7052 15.6777 70.478 16.3044 70.6677 17.1848L73.8067 31.7491C73.9287 32.3151 73.7898 32.906 73.429 33.3567L73.4289 33.3567C73.0686 33.8073 72.5255 34.0688 71.9518 34.0688H66.9448H66.8233L66.798 34.1876C65.8686 38.5615 62.0041 41.85 57.3923 41.85C52.7807 41.85 48.9162 38.5615 47.9868 34.1878L47.9615 34.069H47.84H42.3934H42.2719L42.2467 34.1878C41.3172 38.5615 37.4529 41.85 32.8411 41.85C27.5379 41.85 23.2213 37.5024 23.2213 32.1562C23.2213 32.0032 23.2256 31.8508 23.2328 31.6986L23.2401 31.5416H23.0829H22.4248H22.316L22.2822 31.645C20.7584 36.3158 16.3267 39.7159 11.1565 39.7159H2.04791C1.00087 39.7159 0.15 38.8604 0.15 37.8025C0.15 36.7447 1.00087 35.8891 2.04791 35.8891H4.71937H4.80727L4.85024 35.8125C7.83111 30.4916 9.40263 24.4808 9.40263 18.3593C9.40263 17.3016 10.2534 16.4459 11.3005 16.4459C14.413 16.4459 17.3306 17.6749 19.5177 19.9072C21.5496 21.9812 22.7123 24.6812 22.8346 27.5711L22.8407 27.7148H22.9845H24.0448H24.165L24.1912 27.5975L26.521 17.1705C26.7162 16.2969 27.4858 15.6777 28.3726 15.6777H34.3636H34.4742L34.5069 15.5721L38.8714 1.49262C39.1193 0.693262 39.8535 0.15 40.683 0.15H52.2917C53.3387 0.15 54.1896 1.00553 54.1896 2.0634V15.5277V15.6777H54.3396H60.9683H61.1183V15.5277V8.66629C61.1183 7.60857 61.969 6.75289 63.0162 6.75289C64.0634 6.75289 64.9141 7.60857 64.9141 8.66629V15.5277ZM9.21293 35.6735L9.10803 35.8891H9.34782H11.1565C15.4534 35.8891 18.9956 32.4352 19.0504 28.1851C19.0776 26.0793 18.2843 24.0939 16.8171 22.5963L16.71 22.7012L16.8171 22.5963C15.8356 21.5945 14.6337 20.8931 13.3195 20.5386L13.1415 20.4905L13.1307 20.6746C12.8255 25.8903 11.492 30.9891 9.21293 35.6735ZM42.1886 3.97681H42.0781L42.0454 4.08239L38.5111 15.4833L38.4509 15.6777H38.6544H50.2436H50.3936V15.5277V4.12681V3.97681H50.2436H42.1886ZM66.7979 30.1232L66.8231 30.242H66.9446H69.4118H69.5975L69.5584 30.0604L67.3088 19.6229L67.2833 19.5045H67.1622H52.2917H30.0106H29.8904L29.8642 19.6218L29.1168 22.9665L29.0549 23.2436L29.3187 23.1386C30.4104 22.704 31.5979 22.4625 32.8411 22.4625C37.4524 22.4625 41.3166 25.7504 42.2465 30.1235L42.2718 30.2423H42.3932H47.8404H47.9618L47.9871 30.1235C48.917 25.7504 52.7812 22.4625 57.3925 22.4625C62.0038 22.4625 65.8679 25.7502 66.7979 30.1232ZM27.0171 32.1562C27.0171 35.3902 29.6285 38.0232 32.8411 38.0232C36.0538 38.0232 38.6652 35.3902 38.6652 32.1562C38.6652 28.9223 36.0536 26.2893 32.8411 26.2893C29.6287 26.2893 27.0171 28.9223 27.0171 32.1562ZM51.5685 32.1562C51.5685 35.3902 54.1799 38.0232 57.3925 38.0232C60.6051 38.0232 63.2165 35.3902 63.2165 32.1562C63.2165 28.9223 60.6049 26.2893 57.3925 26.2893C54.18 26.2893 51.5685 28.9223 51.5685 32.1562Z" fill="white" stroke="#FE5959" stroke-width="0.3"/>
</svg>
