<svg width="31" height="30" viewBox="0 0 31 30" fill="none" xmlns="http://www.w3.org/2000/svg">
<path d="M25.0266 27.0652V2.93479C25.0266 1.31672 23.7102 0 22.0919 0H9.40708C7.78901 0 6.47229 1.31672 6.47229 2.93479V27.0652C6.47229 28.6836 7.78901 30 9.40708 30H22.1245C22.9087 30 23.6714 29.6775 24.217 29.1154C24.7622 28.5531 25.0494 27.8146 25.0266 27.0652ZM22.8125 27.7526C22.6309 27.9405 22.3866 28.0435 22.1244 28.0435H9.40708C8.86772 28.0435 8.42879 27.6046 8.42879 27.0652V2.93479C8.42879 2.39543 8.86772 1.9565 9.40708 1.9565H22.0919C22.6312 1.9565 23.0701 2.39543 23.0701 2.93479L23.0705 27.0946C23.0779 27.3398 22.9863 27.5736 22.8125 27.7526Z" fill="white"/>
<path d="M24.0809 3.81494H7.45044V5.77145H24.0809V3.81494Z" fill="white"/>
<path d="M24.0809 22.6958H7.45044V24.6523H24.0809V22.6958Z" fill="white"/>
<path d="M16.581 25.3369H14.9506C14.4102 25.3369 13.9723 25.7748 13.9723 26.3152C13.9723 26.8556 14.4102 27.2935 14.9506 27.2935H16.581C17.1214 27.2935 17.5593 26.8556 17.5593 26.3152C17.5593 25.7748 17.1213 25.3369 16.581 25.3369Z" fill="white"/>
</svg>
