<svg width="24" height="24" viewBox="0 0 24 24" fill="none" xmlns="http://www.w3.org/2000/svg">
<path fill-rule="evenodd" clip-rule="evenodd" d="M19.7615 9.88078C19.7615 4.43234 15.3292 0 9.88074 0C4.43232 0 -1.90735e-06 4.43234 -1.90735e-06 9.88078C-1.90735e-06 11.5965 0.446894 13.2871 1.2927 14.77C1.60118 15.3108 2.28961 15.4991 2.83041 15.1907C3.37115 14.8822 3.55955 14.1938 3.25107 13.653C2.59932 12.5103 2.25455 11.2058 2.25455 9.88078C2.25455 5.67587 5.67584 2.25457 9.88074 2.25457C14.0856 2.25457 17.5069 5.67587 17.5069 9.88078C17.5069 14.0857 14.0856 17.507 9.88074 17.507C8.57182 17.507 7.2812 17.1701 6.14876 16.5332C5.60606 16.228 4.91876 16.4206 4.61361 16.9632C4.30841 17.5058 4.50088 18.1932 5.04357 18.4983C6.51326 19.3249 8.18586 19.7616 9.88074 19.7616C12.189 19.7616 14.3153 18.9658 15.9989 17.6345L22.0784 23.6726C22.52 24.1112 23.2338 24.1089 23.6726 23.6672C24.1112 23.2255 24.1088 22.5117 23.6671 22.073L17.5978 16.045C18.9511 14.3541 19.7615 12.2102 19.7615 9.88078Z" fill="#D6D9E2"/>
</svg>
