<svg width="30" height="31" viewBox="0 0 30 31" fill="none" xmlns="http://www.w3.org/2000/svg">
<path d="M15 30.0442C23.2712 30.0442 30 23.3154 30 15.0442C30 6.77294 23.2712 0.0441895 15 0.0441895C6.72875 0.0441895 0 6.77294 0 15.0442C0 23.3154 6.72875 30.0442 15 30.0442ZM15 1.91919C22.2375 1.91919 28.125 7.80669 28.125 15.0442C28.125 22.2817 22.2375 28.1692 15 28.1692C7.7625 28.1692 1.875 22.2817 1.875 15.0442C1.875 7.80669 7.7625 1.91919 15 1.91919Z" fill="#DFE1EB" fill-opacity="0.6"/>
<path d="M9.86996 17.7379L11.83 16.8867L11.28 17.4379C11.1037 17.6142 11.005 17.8529 11.005 18.1004V21.7692C11.005 22.6092 12.02 23.0167 12.605 22.4317L14.5725 20.4642L18.86 22.6079C19.415 22.8854 20.0862 22.5567 20.2012 21.9367L22.6475 8.48545C22.7762 7.7617 22.0637 7.1767 21.3825 7.4442L5.48746 13.6654C4.77496 13.9429 4.67996 14.9179 5.32496 15.3292L8.99246 17.6692C9.25496 17.8367 9.58621 17.8629 9.86996 17.7379ZM20.5025 9.8042L18.5812 20.3729L14.8062 18.4867C14.4412 18.3042 14.0062 18.3804 13.725 18.6629L12.88 19.5079V18.4917L16.6387 14.7329C17.3675 14.0042 16.5475 12.8017 15.6025 13.2104L9.58121 15.8229L7.88871 14.7429L20.5025 9.8042Z" fill="#DFE1EB" fill-opacity="0.6"/>
</svg>
