<svg width="20" height="20" viewBox="0 0 20 20" fill="none" xmlns="http://www.w3.org/2000/svg">
<path d="M19.9493 17.1375C19.8614 16.7151 19.4476 16.444 19.0253 16.5319C18.6028 16.6199 18.3317 17.0336 18.4196 17.456C18.4703 17.6993 18.41 17.9487 18.2542 18.1403C18.1639 18.2513 17.9627 18.4375 17.6292 18.4375H14.1015C13.67 18.4375 13.3203 18.7872 13.3203 19.2187C13.3203 19.6502 13.67 20 14.1015 20H17.6292C18.3452 20 19.0148 19.6815 19.4664 19.1262C19.9202 18.5681 20.0963 17.8433 19.9493 17.1375Z" fill="#F3F4FA" fill-opacity="0.6"/>
<path d="M10.7934 10.6552C13.3601 10.8916 15.6949 12.2673 17.149 14.436C17.3893 14.7944 17.8747 14.8902 18.233 14.6499C18.5914 14.4096 18.6871 13.9242 18.4468 13.5659C17.1649 11.6539 15.3032 10.2639 13.1807 9.56534C14.4742 8.59545 15.3127 7.05011 15.3127 5.31258C15.3127 2.3832 12.9295 0 10.0001 0C7.0708 0 4.68756 2.3832 4.68756 5.31258C4.68756 7.05124 5.5271 8.59748 6.82208 9.56722C5.6357 9.95777 4.5224 10.5652 3.54809 11.3665C1.76165 12.836 0.519563 14.8856 0.0506889 17.1378C-0.0962665 17.8436 0.0797909 18.5684 0.533626 19.1265C0.985196 19.6818 1.65485 20.0003 2.37084 20.0003H5.78132C6.21282 20.0003 6.56259 19.6505 6.56259 19.219C6.56259 18.7876 6.21282 18.4378 5.78132 18.4378H2.37076C2.03724 18.4378 1.83607 18.2517 1.74579 18.1407C1.58997 17.949 1.52966 17.6996 1.58032 17.4563C2.34533 13.7817 5.44679 11.0421 9.12681 10.6638L7.63534 17.4495C7.57819 17.7097 7.65756 17.9812 7.84597 18.1696L9.40857 19.7324C9.55505 19.8789 9.75381 19.9612 9.96108 19.9612C10.1683 19.9612 10.367 19.8789 10.5135 19.7324L12.076 18.1696C12.2644 17.9811 12.3438 17.7097 12.2866 17.4495L10.7934 10.6552ZM6.25008 5.31258C6.25008 3.24478 7.93233 1.56252 10.0001 1.56252C12.0679 1.56252 13.7502 3.24478 13.7502 5.31258C13.7502 7.31797 12.1679 8.96065 10.1863 9.05803C10.1243 9.0569 10.0623 9.05616 10.0001 9.05616C9.93916 9.05616 9.87826 9.05705 9.81736 9.05815C7.83413 8.96248 6.25008 7.3191 6.25008 5.31258ZM9.96104 18.075L9.25333 17.3672L9.96104 14.1474L10.6687 17.3672L9.96104 18.075Z" fill="#F3F4FA" fill-opacity="0.6"/>
</svg>
