<svg width="27" height="31" viewBox="0 0 27 31" fill="none" xmlns="http://www.w3.org/2000/svg">
<path d="M26.7242 18.1299C27.6029 10.6028 26.302 5.85072 23.9555 3.70137L23.9567 3.70012C20.1693 0.0296078 7.37863 -0.513663 2.84752 3.86497C0.812699 6.00684 0.0959689 9.15031 0.0174231 13.0419C-0.0611226 16.9347 -0.154396 24.227 6.52322 26.2053H6.52935L6.52322 29.2264C6.52322 29.2264 6.47781 30.4503 7.24608 30.6963C8.12481 30.9861 8.52245 30.4178 11.2556 27.0957C15.826 27.4991 19.336 26.5749 19.7349 26.4401C20.6578 26.1253 25.8798 25.4222 26.7242 18.1299ZM11.706 24.9701C11.706 24.9701 8.81332 28.6406 7.91372 29.5935C7.61918 29.9033 7.2964 29.8745 7.30131 29.2601C7.30131 28.8567 7.3234 24.2445 7.3234 24.2445C1.66197 22.5935 1.99579 16.3839 2.05716 13.1355C2.11852 9.88591 2.70271 7.22451 4.4258 5.43234C8.40095 1.63944 19.6146 2.48744 22.4717 5.22003C25.9645 8.371 24.7213 17.2731 24.7286 17.5766C24.0107 23.6638 19.779 24.0497 19.0009 24.3132C18.6684 24.4256 15.5817 25.2336 11.706 24.9701Z" fill="#DFE1EB" fill-opacity="0.6"/>
<path d="M13.3065 6.14551C12.834 6.14551 12.834 6.89485 13.3065 6.90109C16.9724 6.92982 19.9915 9.53002 20.0246 14.2996C20.0246 14.8029 20.7487 14.7966 20.7426 14.2933H20.7414C20.7021 9.1541 17.4056 6.17423 13.3065 6.14551Z" fill="#DFE1EB" fill-opacity="0.6"/>
<path d="M18.1284 13.509C18.1174 14.0061 18.8403 14.0298 18.8464 13.5265C18.9065 10.6927 17.1896 8.35854 13.9631 8.11251C13.4906 8.07754 13.4415 8.83312 13.9127 8.86809C16.7109 9.08415 18.1849 11.0274 18.1284 13.509Z" fill="#DFE1EB" fill-opacity="0.6"/>
<path d="M17.3552 16.7325C16.7489 16.3753 16.1316 16.5976 15.8763 16.9486L15.3424 17.6517C15.0712 18.0089 14.5643 17.9614 14.5643 17.9614C10.8653 16.966 9.87615 13.027 9.87615 13.027C9.87615 13.027 9.83074 12.4937 10.1695 12.2077L10.8371 11.6457C11.1709 11.376 11.382 10.7265 11.0421 10.0884C10.1339 8.41858 9.52392 7.84283 9.21342 7.40072C8.88696 6.98484 8.39605 6.89117 7.88551 7.17218H7.87446C6.81287 7.80412 5.65064 8.98682 6.0225 10.2045C6.657 11.4884 7.82291 15.581 11.5391 18.6733C13.2855 20.1357 16.0494 21.6344 17.2226 21.9804L17.2337 21.9979C18.3898 22.39 19.514 21.1611 20.1141 20.0483V20.0396C20.3804 19.5013 20.292 18.9918 19.903 18.6583C19.2133 17.9739 18.1725 17.2183 17.3552 16.7325Z" fill="#DFE1EB" fill-opacity="0.6"/>
<path d="M14.4686 10.8999C15.648 10.9699 16.2199 11.5968 16.2813 12.8844C16.3034 13.3877 17.0214 13.3528 16.9993 12.8495C16.9207 11.1684 16.0592 10.2318 14.5079 10.1444C14.0354 10.1156 13.9912 10.8712 14.4686 10.8999Z" fill="#DFE1EB" fill-opacity="0.6"/>
</svg>
