<svg width="200" height="209" viewBox="0 0 200 209" fill="none" xmlns="http://www.w3.org/2000/svg">
<path d="M187.495 111.489C182.745 107.07 176.868 104.121 170.503 102.887C170.445 102.169 170.377 101.398 170.295 100.555C170.146 99.0128 169.866 97.5141 169.456 96.0683C175.956 94.2853 181.829 90.377 186.236 84.7627C191.401 78.1846 194.13 69.8524 194.13 60.6624C194.13 50.8748 190.629 41.8486 184.269 35.2512C183.194 34.1332 182.051 33.1116 180.855 32.167C179.79 25.9986 177.109 20.4229 173.227 15.864C170.3 9.31964 164.514 4.16319 157.113 2.26447C153.511 1.3392 149.967 0.968126 146.548 1.02114C143.129 0.144059 139.474 -0.000513822 135.81 0.727171C133.442 1.19462 131.162 1.87894 128.977 2.72228C125.795 2.88613 122.593 3.68128 119.565 5.16075C116.344 6.7366 113.456 8.61605 110.881 10.6497C107.67 11.7918 104.656 13.6231 102.076 16.1339C100.114 18.0422 98.3394 20.1385 96.7338 22.3119C96.2564 22.6396 95.7935 22.9866 95.3354 23.3481C90.721 15.5122 82.2587 10.6015 72.5331 10.6015C72.5138 10.6015 72.4896 10.6015 72.4704 10.6015C57.3973 10.6304 49.1279 10.6304 36.6153 10.6304H25.2213C12.646 10.6304 2.15374 20.2301 1.04472 32.7501L0.938647 33.9549C0.866319 34.7645 0.798807 35.5356 0.736124 36.2825C0.114109 43.6317 2.57324 50.5567 7.22148 55.6457C7.22148 59.8672 7.21666 64.0454 7.21183 68.2284C7.20701 74.0306 7.20219 79.8328 7.19737 85.7506C3.40742 89.8421 0.982037 95.172 0.548073 100.984C0.437171 102.463 0.364849 103.88 0.297344 105.249L0.292517 105.36C0.176793 107.61 0.384132 109.841 0.88078 112C0.832562 112.555 0.784347 113.099 0.74095 113.624C0.118935 120.964 2.57324 127.889 7.2263 132.983C7.2263 137.209 7.22147 141.387 7.21665 145.57C7.21183 151.372 7.20701 157.175 7.20219 163.092C3.41224 167.184 0.986863 172.514 0.5529 178.326C0.441998 179.805 0.369668 181.217 0.302163 182.586L0.297344 182.697C-0.0401839 189.337 2.36108 195.824 6.94181 200.643C11.5225 205.462 17.8825 208.19 24.5366 208.19H58.9789C61.5634 208.19 64.0997 207.775 66.5058 206.99C68.9167 207.775 71.453 208.19 74.0375 208.19H106.238C108.094 208.19 109.931 207.968 111.71 207.558C113.49 207.968 115.322 208.19 117.183 208.19H149.383C156.124 208.19 162.556 205.39 167.152 200.46C171.747 195.53 174.076 188.913 173.594 182.195C173.502 180.952 173.401 179.569 173.237 177.897C173.097 176.441 172.837 175.02 172.46 173.651C179.23 172.008 185.441 168.071 190.142 162.307C195.571 155.647 198.561 146.91 198.561 137.71C198.542 127.426 194.622 118.121 187.495 111.489Z" fill="#7644FF"/>
<path d="M149.531 208.709H117.322C115.503 208.709 113.661 208.502 111.847 208.087C110.034 208.502 108.191 208.709 106.373 208.709H74.1635C71.6072 208.709 69.075 208.309 66.6296 207.528C64.1842 208.314 61.652 208.709 59.1005 208.709H24.6481C17.9245 208.709 11.4132 205.913 6.78288 201.045C2.15257 196.176 -0.307283 189.534 0.0351666 182.819L0.0399945 182.708C0.10752 181.344 0.179863 179.927 0.290797 178.437C0.720065 172.749 3.07863 167.302 6.94204 163.085C6.94204 157.218 6.94687 151.458 6.95651 145.702C6.96134 141.567 6.96616 137.431 6.96616 133.256C2.23457 128.017 -0.128824 120.902 0.478903 113.719C0.522312 113.208 0.570544 112.688 0.613953 112.153C0.112337 109.945 -0.0805884 107.694 0.030346 105.467L0.0351666 105.356C0.107515 103.973 0.179863 102.56 0.290797 101.085C0.720065 95.3972 3.07863 89.9551 6.94204 85.7325C6.94204 79.8661 6.94687 74.1106 6.95651 68.3551C6.96134 64.2192 6.96616 60.0882 6.96616 55.9138C2.23457 50.674 -0.128824 43.5592 0.478903 36.3721C0.541605 35.6249 0.609135 34.8537 0.686306 34.039L0.792418 32.8339C1.92588 20.0311 12.4791 10.3711 25.3427 10.3711H36.74C49.7772 10.3759 57.8706 10.3711 72.6056 10.3422H72.6683C82.2424 10.3422 90.7747 15.0324 95.5835 22.9088C95.9356 22.6389 96.278 22.3882 96.6156 22.1569C98.3134 19.8576 100.112 17.78 101.96 15.982C104.511 13.4947 107.502 11.6292 110.844 10.4338C113.589 8.26943 116.521 6.41842 119.55 4.93857C122.545 3.47318 125.738 2.63926 129.052 2.46573C131.333 1.58843 133.634 0.923218 135.891 0.474926C139.523 -0.243306 143.174 -0.146899 146.748 0.764147C150.356 0.715943 153.925 1.14013 157.364 2.02226C164.667 3.89737 170.623 8.91536 173.715 15.7892C177.66 20.436 180.304 26.071 181.37 32.0916C182.571 33.0508 183.694 34.0728 184.712 35.1236C191.141 41.7901 194.677 50.9102 194.677 60.7968C194.677 70.0711 191.918 78.4826 186.699 85.1299C182.339 90.6829 176.599 94.5971 170.078 96.4674C170.44 97.8315 170.696 99.2439 170.831 100.661C170.903 101.399 170.961 102.083 171.014 102.724C177.381 104.011 183.222 107 187.915 111.367C195.116 118.072 199.08 127.472 199.08 137.85C199.08 147.139 196.061 155.96 190.577 162.689C185.918 168.406 179.87 172.335 173.059 174.07C173.387 175.357 173.619 176.683 173.749 178.013C173.913 179.686 174.014 181.074 174.106 182.323C174.598 189.119 172.21 195.882 167.565 200.871C162.925 205.846 156.351 208.709 149.531 208.709ZM111.847 207.326L111.929 207.345C113.714 207.76 115.528 207.967 117.317 207.967H149.527C156.144 207.967 162.52 205.19 167.025 200.351C171.53 195.511 173.845 188.955 173.368 182.361C173.276 181.118 173.175 179.739 173.011 178.071C172.876 176.654 172.615 175.246 172.249 173.882L172.148 173.516L172.519 173.424C179.32 171.776 185.363 167.895 190.003 162.202C195.381 155.603 198.342 146.951 198.342 137.836C198.342 127.669 194.46 118.458 187.413 111.897C182.754 107.559 176.937 104.619 170.599 103.385L170.324 103.332L170.3 103.052C170.242 102.334 170.175 101.567 170.093 100.724C169.948 99.2246 169.668 97.7351 169.268 96.2987L169.167 95.9371L169.528 95.8359C176.045 94.0475 181.78 90.1816 186.12 84.6575C191.233 78.1452 193.939 69.888 193.939 60.7823C193.939 51.0886 190.471 42.1517 184.181 35.6249C183.159 34.5644 182.021 33.5377 180.8 32.5736L180.689 32.4869L180.665 32.3471C179.633 26.3843 177.024 20.8072 173.117 16.2182L173.059 16.1314C170.064 9.44078 164.276 4.55776 157.181 2.73567C153.79 1.86319 150.274 1.44864 146.71 1.50166H146.662L146.613 1.4872C143.136 0.595434 139.576 0.494207 136.036 1.19798C133.803 1.64145 131.521 2.30666 129.264 3.17432L129.148 3.19842C125.917 3.36231 122.801 4.17213 119.878 5.60378C116.873 7.07398 113.974 8.90572 111.254 11.0556L111.148 11.1134C107.883 12.2703 104.965 14.0876 102.476 16.517C100.643 18.3054 98.8584 20.3685 97.1703 22.6534L97.0787 22.7401C96.6301 23.0486 96.1815 23.3812 95.6992 23.7572L95.3664 24.0223L95.1494 23.656C90.5191 15.7892 82.1122 11.0942 72.6586 11.0942H72.5959C57.8609 11.1231 49.7676 11.1231 36.7303 11.1231H25.333C12.8601 11.1231 2.62042 20.489 1.52072 32.9062L1.41461 34.1113C1.34226 34.9211 1.27474 35.6924 1.21204 36.4396C0.618779 43.4724 2.9484 50.4282 7.60764 55.5281L7.70412 55.6342V55.7788C7.70412 60.0014 7.69929 64.1807 7.69447 68.3599C7.68964 74.1684 7.68482 79.9721 7.68 85.8867V86.0313L7.58836 86.1277C3.778 90.2395 1.4532 95.5708 1.03358 101.138C0.922645 102.608 0.850295 104.011 0.78277 105.371L0.777949 105.501C0.667015 107.679 0.859943 109.882 1.35674 112.042L1.3712 112.1L1.36638 112.158C1.31815 112.712 1.26992 113.252 1.22651 113.782C0.623602 120.916 2.89535 127.689 7.62212 132.866L7.71858 132.972V133.116C7.71858 137.344 7.71376 141.523 7.70894 145.702C7.70411 151.511 7.69929 157.31 7.69447 163.229V163.374L7.59318 163.48C3.78282 167.592 1.45802 172.923 1.0384 178.49C0.927466 179.97 0.855115 181.378 0.78759 182.742L0.78277 182.853C0.449966 189.36 2.83747 195.8 7.3279 200.524C11.8183 205.248 18.1368 207.957 24.6578 207.957H59.1102C61.6231 207.957 64.1167 207.557 66.5235 206.776L66.6392 206.738L66.755 206.776C69.1618 207.562 71.6554 207.957 74.1731 207.957H106.383C108.172 207.957 109.986 207.75 111.77 207.335L111.847 207.326Z" fill="white"/>
<path d="M163.649 112.872C162.463 112.872 161.287 112.954 160.12 113.108C160.091 112.689 160.043 112.265 159.98 111.841C159.889 111.234 159.763 110.646 159.628 110.068C160.009 108.633 160.159 107.129 160.048 105.612C159.951 104.253 159.855 103.049 159.715 101.575C159.291 97.1814 156.963 93.3707 153.449 91.0005C153.333 89.5023 153.424 87.7487 153.559 86.024C153.583 85.7109 153.608 85.4074 153.636 85.1135C155.82 85.9421 158.394 86.5251 161.369 86.5251C172.099 86.5251 183.5 77.4682 183.5 60.6792C183.5 50.6107 178.448 42.2909 170.745 38.2297C170.745 38.2249 170.745 38.2153 170.745 38.2105C170.745 31.5672 168.223 25.7139 163.996 21.4312C162.564 17.1966 159.079 13.781 154.48 12.6007C151.178 11.7528 148.04 11.5312 145.119 11.7239C142.872 10.9194 140.39 10.6978 137.897 11.194C135.545 11.6565 133.275 12.4273 131.12 13.386C128.825 13.2414 126.468 13.6702 124.27 14.7445C121.16 16.2668 118.422 18.1745 116.041 20.2509C113.66 20.7856 111.394 21.9707 109.533 23.7821C107.533 25.7284 105.749 27.9589 104.178 30.2857C103.05 30.8686 101.989 31.6201 101.035 32.5307C99.6994 33.8073 98.5087 35.2718 97.4241 36.9146C96.7299 36.823 96.0454 36.7797 95.385 36.7797C93.4134 36.7797 91.2586 36.9531 89.0074 37.3337C88.6314 35.8499 88.2506 34.3613 87.8698 32.8631C86.0621 25.8199 80.0557 21.277 72.5597 21.277C72.5452 21.277 72.5308 21.277 72.5211 21.277C57.4425 21.3059 49.1704 21.3059 36.6514 21.3059H25.2605C18.2032 21.3059 12.3173 26.6919 11.6955 33.7158L11.5846 34.9346C11.5123 35.7246 11.4448 36.4762 11.3821 37.2084C10.9097 42.7823 13.4598 47.9322 17.9091 50.8467C17.9091 56.7241 17.9043 62.4906 17.8947 68.2571C17.8899 74.7078 17.8802 81.1536 17.8802 87.7632C17.8802 88.9964 17.8417 89.9503 17.7838 90.6777C14.0527 93.1009 11.546 97.1813 11.1989 101.782C11.0977 103.136 11.0302 104.427 10.9627 105.795L10.9579 105.906C10.8663 107.664 11.1266 109.403 11.6858 111.032L11.5749 112.25C11.5026 113.041 11.4352 113.792 11.3725 114.524C10.9001 120.093 13.4501 125.243 17.8995 128.163C17.8995 134.04 17.8947 139.806 17.885 145.573C17.8802 152.024 17.8706 158.469 17.8706 165.079C17.8706 166.312 17.832 167.266 17.7742 167.994C14.0431 170.417 11.5364 174.497 11.1893 179.098C11.0881 180.452 11.0206 181.743 10.9531 183.106L10.9483 183.217C10.7603 186.941 12.1052 190.583 14.6746 193.285C17.2439 195.988 20.8159 197.52 24.547 197.52H58.9802C61.6797 197.52 64.2925 196.715 66.5099 195.246C68.7225 196.715 71.3353 197.52 74.0396 197.52H106.231C108.135 197.52 109.996 197.12 111.703 196.373C113.409 197.12 115.27 197.52 117.174 197.52H149.365C153.145 197.52 156.76 195.95 159.334 193.184C161.909 190.419 163.22 186.705 162.95 182.937C162.853 181.579 162.757 180.37 162.617 178.896C162.193 174.507 159.865 170.696 156.35 168.326C156.235 166.828 156.326 165.074 156.461 163.35C156.495 162.911 156.534 162.492 156.577 162.087C158.963 163.094 161.856 163.846 165.264 163.846C171.526 163.846 177.575 160.825 181.866 155.564C185.809 150.728 187.891 144.547 187.891 137.696C187.901 123.543 177.474 112.872 163.649 112.872Z" fill="#FF15C8"/>
<path d="M149.509 198.04H117.31C115.42 198.04 113.578 197.664 111.837 196.926C110.097 197.664 108.259 198.04 106.365 198.04H74.1651C71.4891 198.04 68.8902 197.278 66.6336 195.837C64.3771 197.278 61.7782 198.04 59.1021 198.04H24.6606C20.8418 198.04 17.1484 196.454 14.5206 193.688C11.8927 190.922 10.4944 187.153 10.6873 183.341L10.6921 183.23C10.7596 181.862 10.8271 180.57 10.9284 179.216C11.2707 174.667 13.7346 170.46 17.5293 167.925C17.5823 167.134 17.6113 166.228 17.6113 165.221C17.6113 158.609 17.6161 152.161 17.6257 145.708V144.904C17.6306 139.468 17.6354 134.027 17.6354 128.49C13.1367 125.449 10.6391 120.153 11.1116 114.615C11.1743 113.883 11.2418 113.131 11.3141 112.341L11.4154 111.199C10.8464 109.517 10.6005 107.767 10.6921 106.008L10.6969 105.898C10.7644 104.529 10.8319 103.237 10.9332 101.878C11.2755 97.3291 13.7394 93.122 17.5341 90.5871C17.5872 89.7968 17.6161 88.8859 17.6161 87.8836C17.6161 81.2717 17.6209 74.8189 17.6306 68.3708V67.5612C17.6354 62.1301 17.6402 56.6892 17.6402 51.1521C13.1415 48.116 10.6439 42.8149 11.1164 37.2777C11.1791 36.5452 11.2466 35.7934 11.3189 35.0031L11.4298 33.7887C12.0759 26.5214 18.0645 21.0372 25.3694 21.0372H36.7631C49.1838 21.0421 57.564 21.0421 72.6367 21.0083C80.3466 21.0083 86.4991 25.6684 88.3506 32.8779C88.7074 34.2658 89.0594 35.6441 89.4066 37.0223C91.4944 36.6898 93.5436 36.5211 95.506 36.5211C96.1184 36.5211 96.7404 36.5597 97.3624 36.632C98.4618 34.9887 99.6238 33.5959 100.902 32.3719C101.842 31.4707 102.903 30.7093 104.045 30.1069C105.743 27.6105 107.541 25.4275 109.397 23.6251C111.23 21.842 113.505 20.5939 115.989 20.0204C118.573 17.7843 121.346 15.9338 124.234 14.5218C126.389 13.4664 128.79 12.9893 131.177 13.1194C133.463 12.1074 135.743 11.3749 137.952 10.9363C140.406 10.4496 142.942 10.6327 145.295 11.4568C148.444 11.2544 151.607 11.5532 154.697 12.3483C159.268 13.5242 162.909 16.8831 164.447 21.3408C168.786 25.7696 171.192 31.7165 171.241 38.1211C179.235 42.4294 183.999 50.887 183.999 60.8C183.999 77.8356 172.403 87.0257 161.491 87.0257C158.95 87.0257 156.462 86.6017 154.085 85.7583C154.075 85.8981 154.061 86.0378 154.051 86.1824C153.936 87.6956 153.829 89.4305 153.931 90.9293C157.508 93.4063 159.794 97.3146 160.213 101.676C160.353 103.146 160.45 104.355 160.551 105.724C160.657 107.228 160.522 108.736 160.141 110.211C160.286 110.837 160.397 111.401 160.479 111.926C160.522 112.22 160.561 112.524 160.59 112.832C161.66 112.707 162.73 112.639 163.782 112.639C177.822 112.639 188.411 123.473 188.411 137.834C188.411 144.778 186.299 151.038 182.302 155.944C177.938 161.298 171.781 164.368 165.406 164.368C162.528 164.368 159.717 163.828 157.041 162.768C157.017 163.014 156.997 163.265 156.978 163.525C156.862 165.038 156.756 166.773 156.858 168.267C160.43 170.744 162.716 174.647 163.14 179.009C163.285 180.493 163.376 181.703 163.478 183.062C163.757 186.922 162.402 190.758 159.765 193.591C157.113 196.411 153.381 198.04 149.509 198.04ZM111.837 196.112L111.987 196.179C113.674 196.921 115.468 197.297 117.31 197.297H149.509C153.174 197.297 156.708 195.76 159.211 193.076C161.708 190.392 162.991 186.758 162.726 183.105C162.629 181.751 162.533 180.546 162.393 179.071C161.988 174.869 159.76 171.115 156.284 168.768L156.134 168.667L156.12 168.489C155.999 166.903 156.105 165.052 156.231 163.453C156.264 163.009 156.303 162.585 156.346 162.18L156.399 161.684L156.862 161.877C159.587 163.024 162.46 163.607 165.406 163.607C171.559 163.607 177.504 160.638 181.723 155.458C185.609 150.687 187.668 144.586 187.668 137.815C187.668 123.873 177.398 113.362 163.782 113.362C162.639 113.362 161.467 113.439 160.3 113.598L159.91 113.652L159.881 113.256C159.852 112.842 159.804 112.423 159.741 112.023C159.659 111.493 159.548 110.919 159.394 110.278L159.374 110.187L159.399 110.095C159.775 108.669 159.914 107.213 159.808 105.763C159.712 104.404 159.616 103.199 159.476 101.734C159.071 97.5315 156.848 93.7725 153.367 91.4256L153.217 91.3244L153.203 91.1461C153.082 89.5606 153.188 87.7101 153.314 86.1101C153.338 85.7969 153.362 85.4884 153.391 85.1945L153.439 84.7126L153.892 84.886C156.322 85.8065 158.878 86.274 161.491 86.274C172.041 86.274 183.256 77.3441 183.256 60.7903C183.256 51.0798 178.56 42.8053 170.696 38.6608L170.498 38.5548V38.3331C170.498 32.0008 168.14 26.1311 163.854 21.789L163.796 21.7264L163.767 21.6445C162.325 17.3843 158.863 14.17 154.509 13.0519C151.472 12.2712 148.362 11.9821 145.266 12.1845L145.189 12.1893L145.117 12.1652C142.87 11.3604 140.44 11.1821 138.091 11.6496C135.907 12.0833 133.655 12.811 131.389 13.8182L131.307 13.8567L131.216 13.8519C128.925 13.7073 126.621 14.1651 124.552 15.1723C121.698 16.5699 118.954 18.406 116.399 20.6276L116.326 20.6903L116.235 20.7095C113.848 21.2445 111.659 22.4348 109.904 24.1456C108.067 25.9335 106.283 28.1021 104.595 30.5936L104.542 30.6707L104.46 30.7141C103.346 31.2924 102.314 32.0297 101.403 32.902C100.116 34.1308 98.9536 35.5429 97.8446 37.2247L97.7144 37.4175L97.4829 37.3886C96.8224 37.3018 96.1521 37.2585 95.4964 37.2585C93.4713 37.2585 91.3449 37.4416 89.18 37.8079L88.8424 37.8657L88.7605 37.5332C88.3844 36.0489 88.0035 34.5597 87.6225 33.061C85.8578 26.1889 79.9898 21.7457 72.6704 21.7457C57.5543 21.7746 49.179 21.7746 36.7535 21.7746H25.3598C18.4454 21.7746 12.7703 26.9648 12.1627 33.8513L12.0518 35.0706C11.9795 35.8609 11.912 36.6127 11.8541 37.3452C11.4009 42.68 13.8407 47.7787 18.214 50.6509L18.3827 50.7617V50.9641C18.3827 56.5688 18.3779 62.0722 18.3731 67.5709V68.3805C18.3683 74.8333 18.3586 81.2813 18.3586 87.8932C18.3586 88.9968 18.3249 89.9847 18.2622 90.8329L18.2477 91.016L18.0934 91.1172C14.4048 93.5123 12.0036 97.5604 11.6757 101.941C11.5745 103.295 11.507 104.582 11.4395 105.946L11.4347 106.057C11.3479 107.748 11.5889 109.43 12.1434 111.044L12.1627 111.165L12.0518 112.418C11.9795 113.208 11.912 113.96 11.8541 114.692C11.4009 120.027 13.8407 125.121 18.214 127.993L18.3827 128.104V128.307C18.3827 133.916 18.3779 139.419 18.3731 144.918V145.723C18.3683 152.176 18.3586 158.624 18.3586 165.236C18.3586 166.339 18.3249 167.327 18.2622 168.175L18.2477 168.358L18.0934 168.46C14.4048 170.855 12.0036 174.903 11.6757 179.283C11.5745 180.633 11.507 181.919 11.4395 183.278L11.4347 183.394C11.2514 187.004 12.5726 190.57 15.0606 193.191C17.5486 195.808 21.0491 197.312 24.6654 197.312H59.1069C61.7155 197.312 64.2517 196.546 66.4311 195.1L66.6385 194.965L66.8458 195.1C69.0252 196.546 71.5614 197.312 74.17 197.312H106.369C108.211 197.312 110 196.936 111.693 196.194L111.837 196.112Z" fill="white"/>
<path d="M173.868 126.189C171.172 123.682 167.554 122.299 163.672 122.299C159.645 122.299 152.762 123.865 145.774 132.604C145.653 131.298 145.499 130.016 145.306 128.772C145.224 128.252 145.103 127.789 144.959 127.365C145.812 127.36 146.917 127.273 147.978 126.695C149.184 126.039 150.061 124.926 150.462 123.538C150.679 122.766 150.809 121.86 150.872 120.771C150.949 119.397 150.548 118.154 149.796 117.219C150.582 116.173 150.934 114.78 150.703 113.3C150.558 112.355 150.327 111.483 150.013 110.711C149.864 110.316 149.671 109.955 149.439 109.613C149.483 109.569 149.531 109.531 149.574 109.482C150.37 108.624 150.775 107.477 150.693 106.311C150.601 105.019 150.51 103.877 150.38 102.498C150.172 100.315 148.749 98.6662 146.584 98.0733C146.145 97.9528 145.412 97.7552 144.785 95.644C143.878 92.5929 143.898 89.3104 144.206 85.3146C144.476 81.8153 145.074 77.3181 147.356 73.5344C148.402 71.7992 148.87 71.5871 148.884 71.5823C148.894 71.5774 148.928 71.5726 148.991 71.5726C149.743 71.5726 150.438 72.0595 151.957 73.25C154.04 74.884 156.9 77.1253 161.4 77.1253C164.834 77.1253 168.152 75.4046 170.511 72.3969C172.879 69.3843 174.128 65.3258 174.128 60.6697C174.128 56.0279 172.657 52.0514 169.879 49.1642C167.25 46.4408 163.662 44.937 159.77 44.937C159.76 44.937 159.751 44.937 159.741 44.937C160.778 42.9463 161.362 40.6519 161.362 38.1841C161.362 33.1471 159.056 28.9247 155.285 26.3026C155.564 24.1914 154.224 22.2008 152.159 21.6706C149.01 20.8608 146.039 20.8945 143.377 21.3814C142.417 20.5186 141.081 20.1137 139.74 20.3788C137.362 20.8511 134.879 21.8152 132.322 23.2612C131.155 22.6105 129.699 22.5285 128.421 23.1551C125.112 24.7747 122.319 27.0208 120.024 29.4019C118.659 29.0742 117.173 29.4453 116.107 30.4816C113.894 32.6362 111.969 35.3547 110.349 38.1311C109.331 38.1552 108.323 38.5504 107.542 39.2975C105.024 41.7027 103.018 45.7612 101.171 50.8319C100.196 46.9759 97.5052 46.1516 95.3879 46.1516C91.6935 46.1516 86.8995 47.0192 82.2694 49.1401C81.1022 44.4261 79.9496 39.8422 78.7486 35.1619C78.3966 33.7978 77.0944 30.6503 72.527 30.6359C57.431 30.6648 49.15 30.6648 36.6198 30.6648H25.2231C23.0431 30.6648 21.22 32.3325 21.0271 34.5016L20.9162 35.7307C20.8487 36.5067 20.7812 37.2393 20.7185 37.9575C20.5062 40.4495 21.8229 42.6185 24.0656 43.4765C26.3517 44.3538 26.8099 44.7683 26.8967 44.9032C27.0414 45.125 27.2777 45.9155 27.2777 48.7448C27.2777 55.3483 27.2729 61.7975 27.2632 68.242C27.2584 74.6912 27.2488 81.1404 27.2488 87.7487C27.2488 97.1045 25.3051 97.6395 24.2634 97.9239C22.1654 98.4975 20.704 100.286 20.54 102.474C20.4484 103.722 20.3857 104.956 20.3181 106.267L20.3133 106.378C20.2554 107.53 20.6702 108.653 21.466 109.492C21.5673 109.598 21.6734 109.699 21.7843 109.791C21.3647 110.384 21.085 111.087 21.0175 111.859L20.9065 113.088C20.839 113.864 20.7715 114.596 20.7088 115.315C20.4966 117.807 21.8133 119.971 24.056 120.834C26.3421 121.711 26.8002 122.125 26.8871 122.26C27.0269 122.482 27.2681 123.273 27.2681 126.097C27.2681 132.701 27.2632 139.15 27.2536 145.594C27.2488 152.043 27.2391 158.493 27.2391 165.101C27.2391 174.457 25.2955 174.992 24.2537 175.276C22.1557 175.85 20.6943 177.638 20.5304 179.826C20.4387 181.07 20.376 182.309 20.3085 183.615L20.3037 183.726C20.2458 184.878 20.6606 186.001 21.4564 186.839C22.2522 187.673 23.3566 188.151 24.5093 188.151H58.9599C60.1126 188.151 61.2122 187.678 62.008 186.849C62.8038 186.015 63.2234 184.897 63.1656 183.745C63.1077 182.487 63.0305 181.345 62.9582 180.222L62.9534 180.116C62.8038 177.831 61.492 176.052 59.447 175.363C57.6625 174.76 56.5918 172.596 56.5002 169.429C56.3507 164.204 56.2639 160.406 56.2397 155.495C58.3956 155.702 60.4502 155.914 62.2395 156.097C64.5642 156.333 66.4355 156.526 67.5159 156.608C71.9627 157.307 74.3549 155.311 75.3967 154.044C75.6957 153.677 75.9609 153.282 76.1876 152.863C76.2503 153.726 76.2937 154.613 76.313 155.538C76.3757 158.266 76.4095 159.953 76.4529 165.728C76.4674 167.463 76.4432 169.482 76.1539 171.329C75.633 174.65 74.7793 175.151 73.7134 175.459C71.7457 176.033 70.3807 177.667 70.1541 179.72C70.0431 180.723 69.9804 181.605 69.9129 182.535C69.8888 182.882 69.8599 183.239 69.8309 183.615C69.7393 184.786 70.1396 185.938 70.9354 186.801C71.7312 187.664 72.8549 188.151 74.0269 188.151H106.235C107.407 188.151 108.521 187.664 109.317 186.811C110.113 185.953 110.518 184.805 110.436 183.639C110.344 182.338 110.252 181.195 110.122 179.826C109.91 177.648 108.492 175.994 106.326 175.406C105.888 175.286 105.15 175.088 104.527 172.977C103.621 169.926 103.64 166.643 103.949 162.648C104.219 159.148 104.817 154.651 107.098 150.867C108.145 149.132 108.617 148.92 108.632 148.91C108.642 148.906 108.675 148.901 108.738 148.901C109.49 148.901 110.185 149.388 111.704 150.578C113.546 152.024 115.997 153.938 119.648 154.367C119.57 154.699 119.522 155.042 119.527 155.398C119.57 157.591 119.58 160.083 119.595 162.489C119.599 163.602 119.604 164.696 119.614 165.723C119.628 167.458 119.604 169.478 119.315 171.324C118.794 174.65 117.945 175.151 116.884 175.455C115.341 175.898 113.575 177.373 113.334 179.552C113.214 180.602 113.137 181.643 113.064 182.651L112.992 183.61C112.9 184.781 113.3 185.933 114.096 186.796C114.892 187.659 116.016 188.146 117.188 188.146H149.396C150.563 188.146 151.682 187.659 152.478 186.806C153.273 185.948 153.679 184.801 153.597 183.634C153.505 182.342 153.413 181.2 153.283 179.821C153.071 177.643 151.653 175.99 149.487 175.402C149.048 175.281 148.311 175.083 147.688 172.972C146.782 169.921 146.801 166.639 147.11 162.643C147.38 159.143 147.978 154.646 150.259 150.863C150.616 150.275 151.532 148.901 152.391 148.901C153.249 148.901 154.204 149.571 155.695 150.66C157.879 152.26 160.87 154.454 165.297 154.454C168.717 154.454 172.112 152.699 174.61 149.633C176.395 147.44 178.522 143.594 178.522 137.694C178.527 131.77 175.995 128.165 173.868 126.189ZM57.0163 46.4023L57.6432 46.4746C62.3312 47.0241 66.2378 50.2149 70.3084 56.8329C70.6653 57.4161 71.1572 57.8885 71.7312 58.2307C71.6395 58.7464 71.6395 59.2718 71.7456 59.7876C71.5141 59.7731 71.2826 59.7779 71.0511 59.802C67.8535 60.1298 64.5787 60.4527 61.3328 60.7709C59.6303 60.9396 57.9326 61.1035 56.259 61.2722C56.259 56.1629 56.2542 51.0151 56.2397 46.3155C56.4616 46.3348 56.7172 46.3637 57.0163 46.4023ZM71.0511 137.15C67.839 137.477 64.5449 137.8 61.2846 138.123C59.5965 138.287 57.9182 138.456 56.259 138.62C56.259 133.51 56.2542 128.363 56.2397 123.663C56.4568 123.687 56.7124 123.716 57.0114 123.755L57.6481 123.827C62.336 124.376 66.2426 127.567 70.3132 134.185C70.6701 134.768 71.1621 135.241 71.736 135.583C71.6444 136.094 71.6444 136.624 71.7505 137.14C71.519 137.125 71.2826 137.125 71.0511 137.15ZM76.1732 93.9955C75.6571 97.3166 74.7986 97.8178 73.7327 98.1263C71.7649 98.6999 70.4 100.334 70.1734 102.387C70.0624 103.39 69.9997 104.272 69.9322 105.202C69.9081 105.549 69.8792 105.906 69.8502 106.277C69.802 106.87 69.884 107.463 70.0817 108.012C67.5255 108.017 65.1719 108.022 62.9485 108.022C63.1318 107.511 63.2186 106.961 63.1945 106.407C63.1366 105.149 63.0594 104.012 62.9871 102.889L62.9775 102.778C62.8279 100.493 61.5161 98.7144 59.4712 98.0251C57.6866 97.4226 56.6159 95.2584 56.5243 92.0916C56.3748 86.8667 56.288 83.0685 56.2639 78.1568C58.4197 78.3641 60.4695 78.5762 62.2588 78.7593C64.5883 78.9955 66.4548 79.1883 67.5352 79.2703C71.982 79.9692 74.3742 77.9737 75.4159 76.706C75.715 76.3397 75.9802 75.9444 76.2069 75.5251C76.2696 76.3879 76.313 77.2747 76.3323 78.2002C76.395 80.9284 76.4288 82.6154 76.4722 88.3898C76.4867 90.1298 76.4577 92.1495 76.1732 93.9955ZM103.963 87.8741C104.253 84.1289 107.301 76.0987 109.635 71.9486C111.212 69.1433 112.833 66.6513 114.468 64.4438C116.807 69.5048 117.849 74.2863 117.993 80.5331C118.013 81.314 118.027 81.8297 118.042 82.2973C118.075 83.4492 118.099 84.2783 118.133 88.3898C118.148 90.125 118.123 92.1446 117.834 93.9907C117.313 97.3117 116.46 97.813 115.394 98.1215C113.426 98.6951 112.061 100.329 111.834 102.382C111.723 103.385 111.661 104.267 111.593 105.197C111.569 105.544 111.54 105.901 111.511 106.272C111.458 106.961 111.579 107.646 111.849 108.273C111.366 108.022 110.86 107.81 110.334 107.646C110.445 107.212 110.489 106.754 110.46 106.296C110.368 105 110.276 103.853 110.146 102.484C109.934 100.305 108.516 98.6517 106.351 98.0637C105.912 97.9432 105.179 97.7455 104.552 95.6344C103.606 92.4917 103.669 91.6964 103.963 87.8741ZM78.0252 110.818H83.6054C83.48 111.242 83.4173 111.695 83.4173 112.158C83.4173 113.247 83.7597 114.269 84.3915 115.107V119.595C83.7452 120.443 83.3835 121.489 83.3835 122.574C83.3835 123.653 83.7597 124.733 84.4832 125.596C83.7404 125.871 83.0025 126.174 82.2646 126.512C81.0974 121.798 79.9447 117.214 78.7438 112.533C78.6329 112.095 78.4158 111.468 78.0252 110.818ZM102.034 132.961C101.803 131.361 101.537 129.862 101.243 128.526C101.113 127.919 100.934 127.389 100.727 126.917C100.785 126.892 100.843 126.868 100.901 126.844C101.214 126.695 101.499 126.502 101.764 126.295C103.196 127.1 104.836 127.524 106.621 127.524C106.732 127.524 106.833 127.514 106.944 127.509C105.251 129.004 103.611 130.821 102.034 132.961ZM142.253 53.6227C142.07 52.3117 141.655 51.3284 141.124 50.5813C141.414 50.6777 141.698 50.7789 141.988 50.8801C142.991 51.2368 144.076 51.6224 145.393 51.8634C144.399 52.8997 143.425 54.0517 142.475 55.3194C142.407 54.7458 142.33 54.1819 142.253 53.6227Z" fill="#6754A3"/>
<path d="M138.062 125.363C139.329 125.363 139.628 125.884 139.812 127.051C140.561 131.837 140.658 137.53 140.673 142.33C140.673 142.914 141.46 143.097 141.717 142.571C145.927 134.052 153.246 124.132 162.393 124.132C167.749 124.132 173.057 127.76 173.057 135.359C173.057 143.382 168.136 147.922 164.022 147.922C158.197 147.922 155.886 142.364 151.085 142.364C148.891 142.364 146.938 143.705 145.333 146.368C142.809 150.551 141.949 155.24 141.581 160.007C141.277 163.978 141.17 167.977 142.321 171.865C143.07 174.389 144.405 176.444 147.068 177.168C147.46 177.274 147.73 177.443 147.779 177.93C147.905 179.208 147.987 180.284 148.088 181.645H115.805C115.912 180.313 115.989 179.015 116.134 177.722C116.158 177.525 116.453 177.264 116.671 177.201C120.465 176.111 121.577 173.033 122.104 169.67C122.428 167.606 122.472 165.478 122.457 163.379C122.433 160.128 122.433 156.254 122.37 153.002C130.38 150.049 133.436 143.324 133.436 135.644C133.436 132.184 132.536 128.465 130.956 125.643L138.062 125.363Z" fill="#C5FF71"/>
<path d="M104.852 181.645C104.755 180.284 104.668 179.203 104.543 177.929C104.495 177.442 104.224 177.268 103.833 177.167C101.173 176.448 99.8405 174.388 99.0921 171.865C97.9382 167.976 98.0445 163.976 98.3535 160.005C98.7204 155.238 99.5749 150.549 102.1 146.365C103.703 143.702 105.161 142.361 107.348 142.361C112.142 142.361 113.953 147.919 119.77 147.919C123.879 147.919 128.296 143.688 128.296 135.664C128.296 128.127 123.488 124.132 118.138 124.132C109.009 124.132 102.539 134.043 98.4693 142.559C98.2134 143.089 97.4217 142.92 97.4023 142.332C97.2575 137.454 96.6926 131.539 95.7126 127.047C95.4615 125.894 95.2298 125.358 93.9648 125.358C88.0892 125.358 79.6693 127.901 74.4309 133.946C77.6222 140.262 78.9354 145.791 79.1092 153.106C79.172 155.88 79.2058 157.607 79.2492 163.373C79.2637 165.472 79.2203 167.6 78.8968 169.665C78.3705 173.027 77.2553 176.091 73.4702 177.196C73.1081 177.302 72.9536 177.524 72.9149 177.886C72.7701 179.179 72.7122 180.313 72.606 181.645H104.852Z" fill="#C5FF71"/>
<path d="M97.2196 111.21C97.2914 110.961 97.3679 110.849 97.4157 110.8C97.5018 110.713 97.5878 110.64 97.6739 110.581C97.7839 110.508 97.8795 110.42 97.9608 110.328C98.0612 110.211 98.1091 110.065 98.1091 109.899C98.1091 109.509 97.7648 109.31 97.0905 109.31H94.9531C94.6136 109.31 94.3745 109.344 94.2262 109.417C94.035 109.509 93.9298 109.68 93.9298 109.894C93.9298 110.104 94.0015 110.274 94.1402 110.411C94.2549 110.518 94.3745 110.61 94.5036 110.683C94.5371 110.703 94.6279 110.776 94.7379 111.063C94.8287 111.297 94.8766 111.619 94.8766 112.023V113.635C94.8766 113.821 94.8287 113.957 94.7331 114.059C94.604 114.098 94.121 114.162 92.3326 114.162H91.668C90.0422 114.162 89.7553 114.054 89.6931 114.015C89.6931 114.015 89.6309 113.952 89.6309 113.635V112.023C89.6309 111.619 89.6787 111.297 89.7744 111.068C89.8939 110.781 89.9896 110.703 90.023 110.683C90.1569 110.61 90.286 110.523 90.4056 110.411C90.5538 110.279 90.6303 110.099 90.6303 109.889C90.6303 109.5 90.2813 109.3 89.5927 109.3H87.4696C87.1301 109.3 86.891 109.334 86.738 109.407C86.5419 109.5 86.4319 109.67 86.4319 109.889C86.4319 110.099 86.5036 110.269 86.6423 110.406C86.7571 110.513 86.8814 110.606 87.0201 110.679C87.0536 110.698 87.1492 110.771 87.2592 111.059C87.35 111.292 87.3978 111.614 87.3978 112.018V118.283C87.3978 118.682 87.35 119.004 87.2544 119.237C87.1348 119.525 87.0392 119.603 87.0057 119.622C86.8671 119.695 86.7427 119.788 86.6232 119.895C86.4749 120.027 86.3984 120.207 86.3984 120.416C86.3984 120.806 86.7475 121.006 87.4361 121.006H89.5592C89.8987 121.006 90.1378 120.972 90.2908 120.899C90.4869 120.806 90.5968 120.636 90.5968 120.416C90.5968 120.212 90.5251 120.036 90.3865 119.9C90.2765 119.793 90.1474 119.7 90.0087 119.627C89.9752 119.608 89.8796 119.535 89.7696 119.247C89.6788 119.013 89.6309 118.692 89.6309 118.288V115.988C89.6405 115.818 89.6931 115.677 89.7983 115.555C89.9609 115.511 90.5108 115.452 92.3183 115.452H92.8586C94.4797 115.452 94.7666 115.555 94.8048 115.579C94.8048 115.579 94.8813 115.638 94.8813 115.979V118.288C94.8813 118.619 94.8479 118.896 94.7857 119.111C94.714 119.359 94.6375 119.471 94.5896 119.52C94.5036 119.608 94.4175 119.681 94.3362 119.739C94.2262 119.812 94.1306 119.9 94.0493 119.993C93.9489 120.109 93.9011 120.256 93.9011 120.421C93.9011 120.811 94.2454 121.011 94.9196 121.011H97.0571C97.4013 121.011 97.6309 120.977 97.7839 120.903C97.9752 120.811 98.0756 120.64 98.0756 120.421C98.0756 120.217 98.0038 120.041 97.8652 119.905C97.7504 119.798 97.6309 119.705 97.497 119.632C97.4635 119.613 97.3726 119.54 97.2627 119.252C97.1718 119.018 97.124 118.697 97.124 118.292V112.028C97.124 111.697 97.1575 111.424 97.2196 111.21Z" fill="white"/>
<path d="M106.005 109.039C104.265 109.039 102.803 109.669 101.656 110.91C100.514 112.147 99.9307 113.679 99.9307 115.458C99.9307 117.068 100.442 118.411 101.446 119.448C102.449 120.486 103.759 121.01 105.34 121.01C107.099 121.01 108.561 120.404 109.689 119.206C110.812 118.013 111.381 116.486 111.381 114.673C111.381 113.063 110.884 111.71 109.904 110.649C108.92 109.577 107.606 109.039 106.005 109.039ZM106.086 119.512C104.906 119.512 103.983 119.007 103.262 117.965C102.535 116.918 102.167 115.628 102.167 114.135C102.167 113.126 102.454 112.244 103.018 111.512C103.582 110.784 104.337 110.43 105.326 110.43C106.459 110.43 107.362 110.939 108.079 111.982C108.8 113.034 109.168 114.295 109.168 115.725C109.168 116.801 108.896 117.713 108.361 118.44C107.83 119.162 107.085 119.512 106.086 119.512Z" fill="white"/>
<path d="M123.84 109.4C123.701 109.333 123.49 109.299 123.193 109.299H121.97C121.672 109.299 121.461 109.333 121.322 109.4C121.14 109.487 121.044 109.655 121.044 109.881C121.044 110.049 121.111 110.203 121.236 110.333C121.337 110.434 121.447 110.521 121.567 110.593C121.615 110.622 121.692 110.694 121.778 110.872C121.85 111.026 121.888 111.223 121.888 111.458L121.922 116.191C121.922 117.225 121.677 118.057 121.193 118.668C120.713 119.274 120.051 119.567 119.164 119.567C118.282 119.567 117.62 119.298 117.136 118.749C116.651 118.201 116.407 117.393 116.407 116.354V112.002C116.407 111.617 116.455 111.305 116.55 111.074C116.666 110.795 116.761 110.708 116.809 110.684C116.944 110.607 117.068 110.516 117.188 110.41C117.337 110.28 117.414 110.102 117.414 109.895C117.414 109.511 117.064 109.313 116.373 109.313H114.244C113.903 109.313 113.663 109.347 113.51 109.419C113.313 109.511 113.203 109.679 113.203 109.895C113.203 110.102 113.275 110.271 113.414 110.405C113.524 110.511 113.654 110.607 113.788 110.679C113.836 110.703 113.927 110.79 114.037 111.069C114.128 111.3 114.176 111.612 114.176 112.002V116.018C114.176 117.614 114.575 118.855 115.356 119.711C116.143 120.572 117.284 121.01 118.742 121.01C121.74 121.01 123.26 119.288 123.26 115.888L123.274 111.458C123.274 111.223 123.313 111.03 123.389 110.877C123.481 110.694 123.562 110.612 123.615 110.578C123.73 110.501 123.84 110.42 123.936 110.323C124.066 110.203 124.133 110.049 124.133 109.876C124.123 109.66 124.022 109.487 123.84 109.4Z" fill="white"/>
<path d="M134.514 116.275C134.421 116.109 134.329 115.963 134.246 115.842C134.153 115.705 134.016 115.564 133.826 115.413C133.656 115.272 133.514 115.16 133.412 115.083C133.3 114.995 133.119 114.888 132.87 114.757C132.636 114.635 132.465 114.542 132.358 114.484C132.251 114.426 132.051 114.323 131.768 114.187C131.49 114.056 131.295 113.958 131.188 113.905L130.929 113.778C130.48 113.555 130.144 113.379 129.929 113.258C129.719 113.141 129.485 112.985 129.232 112.795C128.998 112.62 128.842 112.45 128.759 112.28C128.676 112.109 128.632 111.91 128.632 111.681C128.632 111.272 128.768 110.951 129.042 110.698C129.32 110.445 129.729 110.314 130.256 110.314C131.192 110.314 132.066 110.917 132.851 112.109C133.158 112.576 133.431 112.795 133.714 112.795C133.919 112.795 134.041 112.708 134.104 112.63C134.231 112.484 134.275 112.255 134.236 111.939C134.173 111.452 134.055 110.81 133.895 110.036C133.812 109.666 133.724 109.428 133.617 109.292C133.421 109.039 133.153 108.941 132.68 109.16C132.568 109.214 132.456 109.238 132.344 109.238C132.29 109.238 132.119 109.224 131.597 109.146C131.178 109.082 130.827 109.048 130.549 109.048C129.32 109.048 128.32 109.365 127.573 109.983C126.817 110.61 126.432 111.389 126.432 112.299C126.432 113.287 126.861 114.104 127.71 114.737C128.037 114.971 128.729 115.355 129.856 115.92C129.91 115.939 130.051 116.007 130.285 116.124C130.519 116.241 130.671 116.314 130.734 116.353C130.802 116.392 130.939 116.465 131.149 116.567C131.388 116.684 131.48 116.752 131.519 116.781C131.592 116.844 131.705 116.927 131.866 117.039C132.036 117.16 132.1 117.233 132.124 117.268C132.178 117.345 132.241 117.448 132.314 117.56C132.378 117.657 132.417 117.749 132.431 117.842C132.451 117.949 132.461 118.066 132.461 118.182C132.441 118.615 132.285 118.971 131.978 119.263C131.68 119.55 131.227 119.696 130.641 119.696C129.256 119.686 128.256 118.971 127.564 117.491C127.295 117.01 127.022 116.776 126.725 116.776C126.583 116.776 126.466 116.825 126.378 116.922C126.247 117.063 126.193 117.297 126.222 117.637C126.276 118.255 126.388 119.039 126.549 119.959C126.666 120.65 126.93 120.995 127.344 120.995C127.466 120.995 127.612 120.946 127.788 120.849C127.905 120.786 128.022 120.752 128.154 120.752C128.188 120.752 128.339 120.766 128.993 120.878C129.5 120.966 129.993 121.01 130.466 121.01C131.646 121 132.675 120.669 133.524 120.032C134.392 119.379 134.821 118.508 134.802 117.438C134.802 117.219 134.777 117.01 134.733 116.82C134.69 116.64 134.616 116.45 134.514 116.275Z" fill="white"/>
<path d="M145.033 117.51H145.029C144.676 117.432 144.371 117.685 144.115 118.255C143.941 118.649 143.787 118.946 143.661 119.126C143.545 119.292 143.376 119.438 143.154 119.554C142.931 119.671 142.632 119.734 142.26 119.734L141.109 119.749C140.288 119.749 139.969 119.671 139.839 119.603C139.747 119.554 139.626 119.457 139.626 119.175V116.045C139.626 115.787 139.684 115.627 139.795 115.573C139.906 115.519 140.148 115.456 140.679 115.456H141.254C141.443 115.456 141.583 115.505 141.689 115.597C141.805 115.7 141.883 115.816 141.921 115.943C141.974 116.123 142.057 116.288 142.158 116.434C142.318 116.663 142.516 116.712 142.646 116.712C142.912 116.712 143.231 116.542 143.231 115.738V114.03C143.231 113.665 143.197 113.412 143.125 113.251C143.033 113.052 142.864 112.94 142.646 112.94C142.511 112.94 142.318 112.988 142.158 113.217C142.057 113.363 141.974 113.524 141.921 113.699C141.883 113.821 141.805 113.933 141.689 114.035C141.583 114.132 141.438 114.176 141.254 114.176H140.679C140.153 114.176 139.911 114.108 139.8 114.054C139.684 113.996 139.626 113.84 139.626 113.587V111.134C139.626 110.866 139.742 110.779 139.829 110.73C139.955 110.667 140.269 110.589 141.061 110.589H141.878C142.366 110.589 142.782 110.701 143.11 110.925C143.448 111.153 143.767 111.523 144.057 112.02C144.328 112.507 144.642 112.706 144.995 112.614C145.207 112.546 145.439 112.331 145.338 111.699C145.241 111.042 145.087 110.457 144.884 109.971C144.801 109.723 144.652 109.547 144.439 109.44C144.246 109.348 143.922 109.299 143.448 109.299L137.413 109.314C137.074 109.314 136.833 109.348 136.678 109.411C136.475 109.494 136.364 109.669 136.364 109.903C136.364 110.083 136.417 110.234 136.523 110.346C136.61 110.438 136.712 110.516 136.833 110.579C136.92 110.623 137.002 110.686 137.084 110.764C137.132 110.808 137.205 110.915 137.277 111.158C137.34 111.368 137.374 111.645 137.374 111.981V118.338C137.374 118.669 137.34 118.946 137.277 119.16C137.205 119.403 137.132 119.511 137.084 119.559C137.002 119.637 136.92 119.7 136.833 119.744C136.712 119.807 136.606 119.885 136.523 119.978C136.417 120.09 136.364 120.241 136.364 120.421C136.364 120.654 136.475 120.825 136.678 120.912C136.833 120.976 137.065 121.01 137.413 121.01H143.705C144.231 121.01 144.57 120.956 144.768 120.849C144.98 120.732 145.13 120.533 145.207 120.25C145.338 119.778 145.425 119.136 145.468 118.352C145.507 117.758 145.251 117.569 145.033 117.51Z" fill="white"/>
<path d="M23.1611 104.355C23.2287 103.018 23.2914 101.778 23.383 100.547C23.4168 100.108 23.6724 99.8378 24.0245 99.7412C28.3078 98.5638 30.107 94.795 30.107 85.4911C30.107 72.264 30.1311 59.669 30.1311 46.4419C30.1311 40.4195 29.2822 39.1745 24.2127 37.2345C23.7978 37.0753 23.494 36.7182 23.5518 35.9992C23.6435 34.9182 23.7448 33.7987 23.8557 32.5537H25.4427C44.153 32.5537 52.4591 32.5633 71.1694 32.5295C72.2885 32.5247 73.0168 32.7708 73.3014 33.8904C74.6423 39.131 75.8627 43.9953 77.03 48.7244C75.5636 49.7137 74.1744 50.7609 72.5345 52.3099C68.8155 46.2633 64.0692 40.8152 56.7664 39.961C54.21 39.6618 54.2148 39.6377 51.9188 39.6377C51.1567 39.6377 50.6454 39.7294 50.6503 40.7042C50.6792 47.6531 50.684 56.0932 50.684 63.0421C50.684 63.462 50.7419 63.6019 50.8721 63.5971C57.0317 62.9649 63.7268 62.3328 70.1179 61.6813C73.1085 69.4168 71.8351 73.6972 66.6691 72.7948C64.5178 72.6452 57.6877 71.8586 50.8625 71.2651C50.6551 71.2506 50.6744 71.6608 50.6744 72.2978C50.6744 79.0054 50.7564 83.2375 50.9445 89.9403C51.0988 95.2968 53.4527 98.6362 56.752 99.7509C57.162 99.8908 57.3694 100.185 57.408 100.793C57.4803 101.932 57.5575 103.076 57.6154 104.35H23.1611V104.355Z" fill="#C5FF71"/>
<path d="M23.1611 181.645C23.2287 180.308 23.2914 179.068 23.383 177.837C23.4168 177.398 23.6724 177.128 24.0245 177.031C28.3078 175.854 30.107 172.085 30.107 162.781C30.107 149.554 30.1311 136.959 30.1311 123.732C30.1311 117.71 29.2822 116.465 24.2127 114.525C23.7978 114.365 23.494 114.008 23.5518 113.289C23.6435 112.208 23.7448 111.089 23.8557 109.844H25.4427C44.153 109.844 52.4591 109.853 71.1694 109.82C72.2885 109.815 73.0168 110.061 73.3014 111.18C74.6423 116.421 75.8627 121.285 77.03 126.014C75.5636 127.004 74.1744 128.051 72.5345 129.6C68.8155 123.553 64.0692 118.105 56.7664 117.251C54.21 116.952 54.2148 116.928 51.9188 116.928C51.1567 116.928 50.6454 117.019 50.6503 117.994C50.6792 124.943 50.684 133.383 50.684 140.332C50.684 140.752 50.7419 140.892 50.8721 140.887C57.0317 140.255 63.7268 139.623 70.1179 138.971C73.1085 146.707 71.8351 150.987 66.6691 150.085C64.5178 149.935 57.6877 149.149 50.8625 148.555C50.6551 148.541 50.6744 148.951 50.6744 149.588C50.6744 156.295 50.7564 160.528 50.9445 167.23C51.0988 172.587 53.4527 175.926 56.752 177.041C57.162 177.181 57.3694 177.475 57.408 178.083C57.4803 179.222 57.5575 180.366 57.6154 181.64H23.1611V181.645Z" fill="#C5FF71"/>
<path d="M144.287 25.2537C143.634 25.2537 142.982 25.2875 142.324 25.3503C143.827 24.3943 146.355 23.2547 149.845 23.361C140.401 20.937 132.687 28.1026 132.687 28.1026C132.687 28.1026 133.195 25.1041 139.27 22.12C130.517 23.8486 121.866 33.8147 121.866 33.8147C121.866 33.8147 122.968 28.9379 128.956 24.5536C118.961 29.4401 114.224 41.2748 114.224 41.2748C114.224 41.2748 114.094 37.1367 117.704 31.1252C110.914 37.7355 106.902 50.9511 106.902 50.9511C106.902 50.9511 106.496 45.9681 109.087 39.9856C104.979 43.9111 102.006 54.9491 98.6132 66.7018C98.4151 67.3826 97.4146 67.2619 97.3856 66.5521C97.1874 61.091 96.6413 53.8434 95.7375 49.715C95.4862 48.561 95.2542 48.025 93.9879 48.025C88.1059 48.025 79.6769 50.5697 74.4329 56.6198C77.6276 62.9403 78.9422 68.4738 79.1162 75.7939C79.1791 78.5703 79.2129 80.2989 79.2564 86.069C79.2709 88.1694 79.2274 90.2988 78.9036 92.3654C78.3768 95.7308 77.2603 98.797 73.4711 99.9027C73.1086 100.009 72.954 100.231 72.9153 100.593C72.7703 101.887 72.7123 103.022 72.606 104.355H104.882C104.785 102.993 104.698 101.911 104.573 100.637C104.524 100.149 104.254 99.9751 103.862 99.8737C101.199 99.1543 99.865 97.0925 99.1159 94.5672C97.9607 90.6754 98.0671 89.2365 98.3764 85.2674C98.7437 80.4969 102.19 71.8345 104.587 67.5757C113.727 51.3278 125.505 43.2014 134.548 43.2014C141.232 43.2014 142.484 45.548 146.756 45.548C152.271 45.548 155.881 40.9078 155.881 35.8282C155.896 30.0533 151.517 25.2537 144.287 25.2537Z" fill="#C5FF71"/>
<path d="M145.246 104.355C145.149 102.994 145.063 101.913 144.937 100.639C144.889 100.152 144.619 99.9784 144.229 99.8771C141.576 99.1582 140.246 97.098 139.5 94.5746C138.349 90.6858 138.455 86.686 138.763 82.7151C139.129 77.9482 139.982 73.2585 142.5 69.0753C144.099 66.412 145.554 65.0707 147.736 65.0707C152.518 65.0707 154.324 70.6289 160.128 70.6289C164.226 70.6289 168.633 66.3975 168.633 58.3738C168.633 50.8374 163.836 46.8424 158.5 46.8424C149.301 46.8424 142.809 56.9553 138.753 65.5291C138.537 65.9922 137.843 65.8427 137.833 65.3264C137.756 60.7814 137.443 56.1206 136.851 51.8989C136.687 50.7313 136.369 50.2102 135.108 50.2102C129.246 50.2102 121.55 52.7529 116.324 58.7984C119.508 65.1141 120.818 70.8364 120.991 78.1508C121.054 80.9251 121.088 80.3172 121.131 86.0829C121.145 88.1817 121.102 90.3095 120.779 92.3745C120.254 95.7374 119.142 98.8012 115.366 99.9061C115.005 100.012 114.851 100.234 114.812 100.596C114.668 101.889 114.61 103.023 114.504 104.355H145.246Z" fill="#C5FF71"/>
</svg>
