<svg width="502" height="261" viewBox="0 0 502 261" fill="none" xmlns="http://www.w3.org/2000/svg">
<path d="M40.7488 104.912C64.5158 121.683 96.6816 79.2804 105.193 62.8903C67.4797 76.7659 28.3427 59.2715 13.4883 48.7898C15.7394 55.9045 16.9819 88.1416 40.7488 104.912Z" fill="#C5FF71"/>
<rect x="49.3135" y="47.2629" width="449.266" height="171.447" rx="85.7235" fill="#6932FF" stroke="#C5FF71" stroke-width="5"/>
<path d="M113.175 103.281H105.607C104.991 103.281 104.566 103.178 104.331 102.973C104.126 102.767 104.141 102.401 104.375 101.873L104.815 100.905C105.05 100.347 105.299 99.9659 105.563 99.7605C105.857 99.5552 106.297 99.4525 106.883 99.4525H114.451C115.067 99.4525 115.478 99.5552 115.683 99.7605C115.918 99.9659 115.918 100.333 115.683 100.861L115.243 101.829C115.009 102.386 114.745 102.767 114.451 102.973C114.187 103.178 113.762 103.281 113.175 103.281ZM140.346 114.149H131.15C130.153 114.149 129.464 114.031 129.082 113.797C128.73 113.562 128.598 113.151 128.686 112.565C128.774 111.919 129.068 111.406 129.566 111.025C130.065 110.643 130.593 110.203 131.15 109.705C131.737 109.177 132.148 108.458 132.382 107.549C132.617 106.727 132.764 106.111 132.822 105.701L134.714 91.7965C134.802 91.1512 134.846 90.5352 134.846 89.9485C134.876 89.1565 134.758 88.5112 134.494 88.0125C134.23 87.5139 133.937 87.1912 133.614 87.0445C133.321 86.8979 133.057 86.6485 132.822 86.2965C132.617 85.9445 132.558 85.4899 132.646 84.9325C132.734 84.3459 132.984 83.9352 133.394 83.7005C133.805 83.4659 134.524 83.3485 135.55 83.3485H144.746C145.744 83.3485 146.418 83.4659 146.77 83.7005C147.152 83.9352 147.298 84.3459 147.21 84.9325C147.122 85.5779 146.829 86.0912 146.33 86.4725C145.832 86.8539 145.289 87.3085 144.702 87.8365C144.145 88.3352 143.749 89.0392 143.514 89.9485C143.338 90.5939 143.206 91.2099 143.118 91.7965L142.81 93.8645C142.664 94.8325 142.722 95.4045 142.986 95.5805C143.338 95.8739 144.834 96.0205 147.474 96.0205H148.354C151.464 96.0205 153.268 95.9032 153.766 95.6685C154.148 95.4632 154.397 94.9499 154.514 94.1285C154.514 94.0699 154.529 93.9819 154.558 93.8645L154.866 91.7965C154.954 91.1219 154.998 90.5059 154.998 89.9485C154.998 89.1565 154.866 88.5112 154.602 88.0125C154.368 87.5139 154.089 87.1912 153.766 87.0445C153.473 86.8979 153.209 86.6485 152.974 86.2965C152.769 85.9445 152.696 85.4899 152.754 84.9325C152.842 84.3459 153.092 83.9352 153.502 83.7005C153.913 83.4659 154.646 83.3485 155.702 83.3485H164.854C165.881 83.3485 166.57 83.4659 166.922 83.7005C167.304 83.9352 167.436 84.3459 167.318 84.9325C167.23 85.5779 166.937 86.0912 166.438 86.4725C165.969 86.8539 165.441 87.3085 164.854 87.8365C164.297 88.3352 163.886 89.0392 163.622 89.9485C163.446 90.5939 163.314 91.2099 163.226 91.7965L161.29 105.701C161.202 106.317 161.158 106.933 161.158 107.549C161.158 108.341 161.276 108.986 161.51 109.485C161.774 109.954 162.053 110.277 162.346 110.453C162.669 110.599 162.933 110.849 163.138 111.201C163.373 111.553 163.461 112.007 163.402 112.565C163.314 113.151 163.05 113.562 162.61 113.797C162.2 114.031 161.481 114.149 160.454 114.149H151.302C150.305 114.149 149.616 114.031 149.234 113.797C148.853 113.562 148.721 113.151 148.838 112.565C148.926 111.919 149.205 111.406 149.674 111.025C150.173 110.643 150.701 110.203 151.258 109.705C151.845 109.177 152.27 108.458 152.534 107.549C152.71 106.933 152.842 106.317 152.93 105.701L153.502 101.785C153.62 100.846 153.546 100.274 153.282 100.069C152.93 99.7752 151.42 99.6285 148.75 99.6285C148.545 99.6285 148.222 99.6285 147.782 99.6285C144.732 99.6285 142.972 99.7459 142.502 99.9805C142.092 100.157 141.842 100.67 141.754 101.521L141.71 101.785L141.182 105.701C141.094 106.317 141.05 106.933 141.05 107.549C141.021 108.341 141.138 108.986 141.402 109.485C141.666 109.954 141.945 110.277 142.238 110.453C142.561 110.599 142.825 110.849 143.03 111.201C143.265 111.553 143.353 112.007 143.294 112.565C143.177 113.151 142.913 113.562 142.502 113.797C142.092 114.031 141.373 114.149 140.346 114.149ZM194.648 109.133C194.678 110.335 194.032 111.553 192.712 112.785C191.422 113.987 189.706 114.589 187.564 114.589C186.479 114.589 185.526 114.31 184.704 113.753C183.912 113.166 183.399 112.286 183.164 111.113C181.228 113.43 178.926 114.589 176.256 114.589C174.056 114.589 172.267 113.841 170.888 112.345C169.51 110.849 168.82 108.927 168.82 106.581C168.82 102.709 170.184 99.4085 172.912 96.6805C175.64 93.9525 178.632 92.5885 181.888 92.5885C182.944 92.5885 183.956 92.7499 184.924 93.0725C185.922 93.3659 186.508 93.5125 186.684 93.5125C187.007 93.5125 187.696 93.3365 188.752 92.9845C189.838 92.6325 190.6 92.4565 191.04 92.4565C191.627 92.4565 192.067 92.6472 192.36 93.0285C192.654 93.4099 192.771 93.8352 192.712 94.3045L190.864 106.977C190.659 108.473 190.938 109.221 191.7 109.221C191.994 109.221 192.346 109.015 192.756 108.605C193.196 108.194 193.534 107.989 193.768 107.989C194.355 107.989 194.648 108.37 194.648 109.133ZM179.028 109.705C180.231 109.705 181.228 108.942 182.02 107.417C182.812 105.891 183.384 103.985 183.736 101.697C184.323 97.7952 183.604 95.8445 181.58 95.8445C180.114 95.8445 178.955 96.7979 178.104 98.7045C177.283 100.582 176.843 102.855 176.784 105.525C176.755 106.727 176.931 107.725 177.312 108.517C177.694 109.309 178.266 109.705 179.028 109.705ZM235.485 107.945C236.072 107.945 236.365 108.311 236.365 109.045C236.365 110.306 235.705 111.553 234.385 112.785C233.095 113.987 231.349 114.589 229.149 114.589C227.683 114.589 226.553 114.075 225.761 113.049C224.999 112.022 224.793 110.453 225.145 108.341L225.981 103.677C226.451 101.33 226.671 99.7312 226.641 98.8805C226.641 98.0005 226.289 97.5605 225.585 97.5605C225.321 97.5605 225.028 97.6339 224.705 97.7805C224.412 97.9272 224.031 98.2645 223.561 98.7925C223.121 99.2912 222.681 99.9659 222.241 100.817C221.801 101.638 221.332 102.826 220.833 104.381C220.364 105.935 219.924 107.725 219.513 109.749L219.117 111.905C218.912 112.726 218.413 113.225 217.621 113.401L212.517 114.589C212.077 114.677 211.74 114.574 211.505 114.281C211.271 113.987 211.197 113.591 211.285 113.093L213.133 103.677C213.427 102.122 213.588 100.905 213.617 100.025C213.676 99.1152 213.617 98.4845 213.441 98.1325C213.265 97.7512 212.957 97.5605 212.517 97.5605C212.253 97.5605 211.975 97.6339 211.681 97.7805C211.388 97.9272 211.021 98.2645 210.581 98.7925C210.141 99.2912 209.716 99.9659 209.305 100.817C208.924 101.638 208.499 102.826 208.029 104.381C207.56 105.906 207.12 107.695 206.709 109.749L206.269 111.905C206.093 112.726 205.595 113.225 204.773 113.401L199.713 114.589C199.273 114.677 198.921 114.574 198.657 114.281C198.423 113.987 198.349 113.591 198.437 113.093L200.549 100.333C200.667 99.6872 200.637 99.1739 200.461 98.7925C200.315 98.3819 200.095 98.1325 199.801 98.0445C199.537 97.9272 199.288 97.7512 199.053 97.5165C198.819 97.2819 198.701 96.9885 198.701 96.6365C198.701 96.1965 198.965 95.7565 199.493 95.3165C200.021 94.8765 201.136 94.3045 202.837 93.6005C204.715 92.8965 206.035 92.5445 206.797 92.5445C207.912 92.5445 208.411 93.1019 208.293 94.2165L207.941 96.9885C209.027 95.4632 210.244 94.3485 211.593 93.6445C212.972 92.9112 214.292 92.5445 215.553 92.5445C216.961 92.5445 218.149 92.9259 219.117 93.6885C220.085 94.4219 220.76 95.4339 221.141 96.7245C222.08 95.3752 223.239 94.3485 224.617 93.6445C225.996 92.9112 227.419 92.5445 228.885 92.5445C230.851 92.5445 232.347 93.4245 233.373 95.1845C234.429 96.9152 234.693 99.0712 234.165 101.653L233.021 106.977C232.845 107.857 232.787 108.458 232.845 108.781C232.904 109.103 233.095 109.265 233.417 109.265C233.711 109.265 234.063 109.045 234.473 108.605C234.913 108.165 235.251 107.945 235.485 107.945ZM266.147 109.133C266.176 110.335 265.531 111.553 264.211 112.785C262.92 113.987 261.204 114.589 259.063 114.589C257.977 114.589 257.024 114.31 256.203 113.753C255.411 113.166 254.897 112.286 254.663 111.113C252.727 113.43 250.424 114.589 247.755 114.589C245.555 114.589 243.765 113.841 242.387 112.345C241.008 110.849 240.319 108.927 240.319 106.581C240.319 102.709 241.683 99.4085 244.411 96.6805C247.139 93.9525 250.131 92.5885 253.387 92.5885C254.443 92.5885 255.455 92.7499 256.423 93.0725C257.42 93.3659 258.007 93.5125 258.183 93.5125C258.505 93.5125 259.195 93.3365 260.251 92.9845C261.336 92.6325 262.099 92.4565 262.539 92.4565C263.125 92.4565 263.565 92.6472 263.859 93.0285C264.152 93.4099 264.269 93.8352 264.211 94.3045L262.363 106.977C262.157 108.473 262.436 109.221 263.199 109.221C263.492 109.221 263.844 109.015 264.255 108.605C264.695 108.194 265.032 107.989 265.267 107.989C265.853 107.989 266.147 108.37 266.147 109.133ZM250.527 109.705C251.729 109.705 252.727 108.942 253.519 107.417C254.311 105.891 254.883 103.985 255.235 101.697C255.821 97.7952 255.103 95.8445 253.079 95.8445C251.612 95.8445 250.453 96.7979 249.603 98.7045C248.781 100.582 248.341 102.855 248.283 105.525C248.253 106.727 248.429 107.725 248.811 108.517C249.192 109.309 249.764 109.705 250.527 109.705ZM307.555 107.989C308.171 107.989 308.479 108.37 308.479 109.133C308.479 110.335 307.805 111.553 306.455 112.785C305.135 113.987 303.375 114.589 301.175 114.589C300.09 114.589 299.137 114.325 298.315 113.797C297.494 113.239 296.981 112.433 296.775 111.377C295.015 113.518 292.889 114.589 290.395 114.589C288.958 114.589 287.726 114.237 286.699 113.533C285.673 112.829 284.939 111.846 284.499 110.585C282.886 113.254 280.598 114.589 277.635 114.589C274.995 114.589 273.133 113.797 272.047 112.213C270.962 110.599 270.654 108.443 271.123 105.745L272.047 100.245C272.282 99.0712 272.018 98.3085 271.255 97.9565C270.551 97.5459 270.199 97.1059 270.199 96.6365C270.199 96.3432 270.273 96.0792 270.419 95.8445C270.566 95.5805 270.962 95.2432 271.607 94.8325C272.253 94.4219 273.162 94.0112 274.335 93.6005C276.359 92.8965 278.017 92.5445 279.307 92.5445C280.393 92.5445 280.833 93.1019 280.627 94.2165L278.691 105.481C278.163 108.355 278.515 109.793 279.747 109.793C280.833 109.793 281.859 108.795 282.827 106.801C283.825 104.806 284.646 101.873 285.291 98.0005L285.731 95.3165C285.849 94.4659 286.318 93.9525 287.139 93.7765L292.287 92.5885C292.698 92.5005 293.021 92.6032 293.255 92.8965C293.519 93.1899 293.607 93.5859 293.519 94.0845L291.935 105.393C291.671 107.123 291.613 108.355 291.759 109.089C291.935 109.793 292.39 110.145 293.123 110.145C293.329 110.145 293.549 110.086 293.783 109.969C294.047 109.822 294.385 109.499 294.795 109.001C295.206 108.502 295.602 107.842 295.983 107.021C296.394 106.199 296.819 105.011 297.259 103.457C297.699 101.873 298.081 100.054 298.403 98.0005L298.887 95.3165C299.005 94.4659 299.474 93.9525 300.295 93.7765L305.399 92.5885C305.839 92.5005 306.177 92.6032 306.411 92.8965C306.646 93.1899 306.734 93.5859 306.675 94.0845L304.827 106.889C304.593 108.443 304.827 109.221 305.531 109.221C305.825 109.221 306.177 109.015 306.587 108.605C306.998 108.194 307.321 107.989 307.555 107.989ZM313.087 121.145C312.793 121.145 312.544 121.057 312.339 120.881C312.163 120.734 312.075 120.543 312.075 120.309C312.075 120.015 312.251 119.678 312.603 119.297C312.984 118.945 313.365 118.519 313.747 118.021C314.128 117.551 314.319 117.023 314.319 116.437C314.319 115.85 313.937 115.058 313.175 114.061C312.441 113.063 312.075 112.022 312.075 110.937C312.075 109.529 312.559 108.414 313.527 107.593C314.495 106.742 315.595 106.317 316.827 106.317C318.059 106.317 319.056 106.742 319.819 107.593C320.611 108.414 321.007 109.587 321.007 111.113C321.007 113.577 320.083 115.865 318.235 117.977C316.416 120.089 314.7 121.145 313.087 121.145ZM354.791 114.589C353.265 114.589 352.063 114.061 351.183 113.005C350.303 111.949 350.039 110.365 350.391 108.253L351.095 104.161C349.364 106.302 347.252 107.373 344.759 107.373C342.647 107.373 340.975 106.903 339.743 105.965C338.54 104.997 337.939 103.721 337.939 102.137C337.939 101.521 337.968 100.89 338.027 100.245C338.203 99.0419 337.939 98.2792 337.235 97.9565C336.531 97.5459 336.179 97.1059 336.179 96.6365C336.179 96.3432 336.252 96.0792 336.399 95.8445C336.545 95.5805 336.941 95.2579 337.587 94.8765C338.232 94.4659 339.141 94.0552 340.315 93.6445C342.309 92.9112 343.967 92.5445 345.287 92.5445C346.313 92.5445 346.768 93.1019 346.651 94.2165L345.991 99.5845C345.961 100.171 345.932 100.787 345.903 101.433C345.873 102.078 346.005 102.635 346.299 103.105C346.592 103.574 347.047 103.809 347.663 103.809C348.689 103.809 349.584 103.251 350.347 102.137C351.109 101.022 351.579 99.8045 351.755 98.4845L352.151 95.3165C352.239 94.5245 352.708 94.0259 353.559 93.8205L358.927 92.6325C359.367 92.5445 359.704 92.6472 359.939 92.9405C360.173 93.2339 360.261 93.6152 360.203 94.0845L358.443 106.977C358.267 108.473 358.501 109.221 359.147 109.221C359.44 109.221 359.792 109.015 360.203 108.605C360.643 108.194 360.98 107.989 361.215 107.989C361.801 107.989 362.095 108.37 362.095 109.133C362.095 110.335 361.42 111.553 360.071 112.785C358.751 113.987 356.991 114.589 354.791 114.589ZM402.371 107.945C402.957 107.945 403.251 108.311 403.251 109.045C403.251 110.306 402.591 111.553 401.271 112.785C399.98 113.987 398.235 114.589 396.035 114.589C394.568 114.589 393.439 114.075 392.647 113.049C391.884 112.022 391.679 110.453 392.031 108.341L392.867 103.677C393.336 101.33 393.556 99.7312 393.527 98.8805C393.527 98.0005 393.175 97.5605 392.471 97.5605C392.207 97.5605 391.913 97.6339 391.591 97.7805C391.297 97.9272 390.916 98.2645 390.447 98.7925C390.007 99.2912 389.567 99.9659 389.127 100.817C388.687 101.638 388.217 102.826 387.719 104.381C387.249 105.935 386.809 107.725 386.399 109.749L386.003 111.905C385.797 112.726 385.299 113.225 384.507 113.401L379.403 114.589C378.963 114.677 378.625 114.574 378.391 114.281C378.156 113.987 378.083 113.591 378.171 113.093L380.019 103.677C380.312 102.122 380.473 100.905 380.503 100.025C380.561 99.1152 380.503 98.4845 380.327 98.1325C380.151 97.7512 379.843 97.5605 379.403 97.5605C379.139 97.5605 378.86 97.6339 378.567 97.7805C378.273 97.9272 377.907 98.2645 377.467 98.7925C377.027 99.2912 376.601 99.9659 376.191 100.817C375.809 101.638 375.384 102.826 374.915 104.381C374.445 105.906 374.005 107.695 373.595 109.749L373.155 111.905C372.979 112.726 372.48 113.225 371.659 113.401L366.599 114.589C366.159 114.677 365.807 114.574 365.543 114.281C365.308 113.987 365.235 113.591 365.323 113.093L367.435 100.333C367.552 99.6872 367.523 99.1739 367.347 98.7925C367.2 98.3819 366.98 98.1325 366.687 98.0445C366.423 97.9272 366.173 97.7512 365.939 97.5165C365.704 97.2819 365.587 96.9885 365.587 96.6365C365.587 96.1965 365.851 95.7565 366.379 95.3165C366.907 94.8765 368.021 94.3045 369.723 93.6005C371.6 92.8965 372.92 92.5445 373.683 92.5445C374.797 92.5445 375.296 93.1019 375.179 94.2165L374.827 96.9885C375.912 95.4632 377.129 94.3485 378.479 93.6445C379.857 92.9112 381.177 92.5445 382.439 92.5445C383.847 92.5445 385.035 92.9259 386.003 93.6885C386.971 94.4219 387.645 95.4339 388.027 96.7245C388.965 95.3752 390.124 94.3485 391.503 93.6445C392.881 92.9112 394.304 92.5445 395.771 92.5445C397.736 92.5445 399.232 93.4245 400.259 95.1845C401.315 96.9152 401.579 99.0712 401.051 101.653L399.907 106.977C399.731 107.857 399.672 108.458 399.731 108.781C399.789 109.103 399.98 109.265 400.303 109.265C400.596 109.265 400.948 109.045 401.359 108.605C401.799 108.165 402.136 107.945 402.371 107.945ZM417.676 114.633C414.42 114.633 411.883 113.797 410.064 112.125C408.245 110.423 407.336 108.091 407.336 105.129C407.336 101.638 408.671 98.6752 411.34 96.2405C414.009 93.7765 417.177 92.5445 420.844 92.5445C423.983 92.5445 426.461 93.4099 428.28 95.1405C430.099 96.8712 431.008 99.1152 431.008 101.873C431.008 105.627 429.732 108.693 427.18 111.069C424.628 113.445 421.46 114.633 417.676 114.633ZM417.94 111.157C419.289 111.157 420.389 110.057 421.24 107.857C422.091 105.627 422.516 103.325 422.516 100.949C422.516 97.6339 421.695 95.9765 420.052 95.9765C418.644 95.9765 417.515 97.0325 416.664 99.1445C415.843 101.227 415.403 103.53 415.344 106.053C415.432 109.455 416.297 111.157 417.94 111.157ZM154.387 171.589C151.336 171.589 148.975 170.738 147.303 169.037C145.631 167.306 144.795 165.091 144.795 162.393C144.795 158.873 146.071 155.866 148.623 153.373C151.175 150.85 154.152 149.589 157.555 149.589C159.901 149.589 161.881 150.205 163.495 151.437C165.108 152.639 165.929 154.179 165.959 156.057C165.988 157.494 165.592 158.682 164.771 159.621C163.949 160.559 162.923 160.97 161.691 160.853C159.931 160.618 159.051 159.533 159.051 157.597C159.021 154.634 158.215 153.153 156.631 153.153C155.575 153.153 154.665 153.827 153.903 155.177C153.169 156.526 152.803 158.11 152.803 159.929C152.803 161.865 153.301 163.375 154.299 164.461C155.325 165.517 156.821 166.045 158.787 166.045C160.429 166.045 162.057 165.473 163.671 164.329C164.257 163.889 164.712 163.845 165.035 164.197C165.357 164.519 165.343 165.047 164.991 165.781C164.316 167.306 163.04 168.655 161.163 169.829C159.285 171.002 157.027 171.589 154.387 171.589ZM188.846 171.589C185.795 171.589 183.434 170.738 181.762 169.037C180.09 167.306 179.254 165.091 179.254 162.393C179.254 158.873 180.53 155.866 183.082 153.373C185.634 150.85 188.611 149.589 192.014 149.589C194.36 149.589 196.34 150.205 197.954 151.437C199.567 152.639 200.388 154.179 200.418 156.057C200.447 157.494 200.051 158.682 199.23 159.621C198.408 160.559 197.382 160.97 196.15 160.853C194.39 160.618 193.51 159.533 193.51 157.597C193.48 154.634 192.674 153.153 191.09 153.153C190.034 153.153 189.124 153.827 188.362 155.177C187.628 156.526 187.262 158.11 187.262 159.929C187.262 161.865 187.76 163.375 188.758 164.461C189.784 165.517 191.28 166.045 193.246 166.045C194.888 166.045 196.516 165.473 198.13 164.329C198.716 163.889 199.171 163.845 199.494 164.197C199.816 164.519 199.802 165.047 199.45 165.781C198.775 167.306 197.499 168.655 195.622 169.829C193.744 171.002 191.486 171.589 188.846 171.589ZM229.72 166.133C229.75 167.335 229.104 168.553 227.784 169.785C226.494 170.987 224.778 171.589 222.636 171.589C221.551 171.589 220.598 171.31 219.776 170.753C218.984 170.166 218.471 169.286 218.236 168.113C216.3 170.43 213.998 171.589 211.328 171.589C209.128 171.589 207.339 170.841 205.96 169.345C204.582 167.849 203.892 165.927 203.892 163.581C203.892 159.709 205.256 156.409 207.984 153.681C210.712 150.953 213.704 149.589 216.96 149.589C218.016 149.589 219.028 149.75 219.996 150.073C220.994 150.366 221.58 150.513 221.756 150.513C222.079 150.513 222.768 150.337 223.824 149.985C224.91 149.633 225.672 149.457 226.112 149.457C226.699 149.457 227.139 149.647 227.432 150.029C227.726 150.41 227.843 150.835 227.784 151.305L225.936 163.977C225.731 165.473 226.01 166.221 226.772 166.221C227.066 166.221 227.418 166.015 227.828 165.605C228.268 165.194 228.606 164.989 228.84 164.989C229.427 164.989 229.72 165.37 229.72 166.133ZM214.1 166.705C215.303 166.705 216.3 165.942 217.092 164.417C217.884 162.891 218.456 160.985 218.808 158.697C219.395 154.795 218.676 152.845 216.652 152.845C215.186 152.845 214.027 153.798 213.176 155.705C212.355 157.582 211.915 159.855 211.856 162.525C211.827 163.727 212.003 164.725 212.384 165.517C212.766 166.309 213.338 166.705 214.1 166.705ZM248.293 147.917C245.858 147.917 243.908 147.477 242.441 146.597C240.974 145.717 240.358 144.47 240.593 142.857C240.681 142.211 240.974 141.698 241.473 141.317C242.001 140.935 242.558 140.745 243.145 140.745C243.732 140.745 244.26 140.979 244.729 141.449C245.198 141.918 245.565 142.446 245.829 143.033C246.093 143.59 246.46 144.103 246.929 144.573C247.428 145.042 247.985 145.277 248.601 145.277C249.217 145.277 249.833 145.042 250.449 144.573C251.065 144.103 251.578 143.59 251.989 143.033C252.429 142.446 252.942 141.918 253.529 141.449C254.145 140.979 254.761 140.745 255.377 140.745C255.964 140.745 256.462 140.95 256.873 141.361C257.284 141.742 257.445 142.241 257.357 142.857C257.122 144.47 256.096 145.717 254.277 146.597C252.458 147.477 250.464 147.917 248.293 147.917ZM259.909 166.133C259.938 167.335 259.278 168.553 257.929 169.785C256.609 170.987 254.849 171.589 252.649 171.589C251.534 171.589 250.566 171.31 249.745 170.753C248.924 170.195 248.425 169.389 248.249 168.333C246.284 170.503 244.01 171.589 241.429 171.589C236.032 171.589 233.802 168.641 234.741 162.745L235.665 157.377C235.753 156.731 235.709 156.218 235.533 155.837C235.357 155.455 235.137 155.206 234.873 155.089C234.638 154.971 234.404 154.795 234.169 154.561C233.934 154.326 233.817 154.033 233.817 153.681C233.817 152.683 235.005 151.759 237.381 150.909C239.816 150.058 241.678 149.633 242.969 149.633C243.996 149.633 244.436 150.161 244.289 151.217L242.661 160.677C242.192 163.317 242.045 165.062 242.221 165.913C242.397 166.763 242.969 167.189 243.937 167.189C246.665 167.189 248.674 163.17 249.965 155.133L250.405 152.317C250.522 151.466 250.992 150.953 251.813 150.777L256.961 149.589C257.372 149.501 257.694 149.603 257.929 149.897C258.193 150.19 258.281 150.586 258.193 151.085L256.301 163.889C256.066 165.443 256.301 166.221 257.005 166.221C257.298 166.221 257.65 166.015 258.061 165.605C258.472 165.194 258.794 164.989 259.029 164.989C259.616 164.989 259.909 165.37 259.909 166.133ZM300.527 164.945C301.114 164.945 301.407 165.311 301.407 166.045C301.407 167.306 300.747 168.553 299.427 169.785C298.136 170.987 296.391 171.589 294.191 171.589C292.724 171.589 291.595 171.075 290.803 170.049C290.04 169.022 289.835 167.453 290.187 165.341L291.023 160.677C291.492 158.33 291.712 156.731 291.683 155.881C291.683 155.001 291.331 154.561 290.627 154.561C290.363 154.561 290.07 154.634 289.747 154.781C289.454 154.927 289.072 155.265 288.603 155.793C288.163 156.291 287.723 156.966 287.283 157.817C286.843 158.638 286.374 159.826 285.875 161.381C285.406 162.935 284.966 164.725 284.555 166.749L284.159 168.905C283.954 169.726 283.455 170.225 282.663 170.401L277.559 171.589C277.119 171.677 276.782 171.574 276.547 171.281C276.312 170.987 276.239 170.591 276.327 170.093L278.175 160.677C278.468 159.122 278.63 157.905 278.659 157.025C278.718 156.115 278.659 155.485 278.483 155.133C278.307 154.751 277.999 154.561 277.559 154.561C277.295 154.561 277.016 154.634 276.723 154.781C276.43 154.927 276.063 155.265 275.623 155.793C275.183 156.291 274.758 156.966 274.347 157.817C273.966 158.638 273.54 159.826 273.071 161.381C272.602 162.906 272.162 164.695 271.751 166.749L271.311 168.905C271.135 169.726 270.636 170.225 269.815 170.401L264.755 171.589C264.315 171.677 263.963 171.574 263.699 171.281C263.464 170.987 263.391 170.591 263.479 170.093L265.591 157.333C265.708 156.687 265.679 156.174 265.503 155.793C265.356 155.382 265.136 155.133 264.843 155.045C264.579 154.927 264.33 154.751 264.095 154.517C263.86 154.282 263.743 153.989 263.743 153.637C263.743 153.197 264.007 152.757 264.535 152.317C265.063 151.877 266.178 151.305 267.879 150.601C269.756 149.897 271.076 149.545 271.839 149.545C272.954 149.545 273.452 150.102 273.335 151.217L272.983 153.989C274.068 152.463 275.286 151.349 276.635 150.645C278.014 149.911 279.334 149.545 280.595 149.545C282.003 149.545 283.191 149.926 284.159 150.689C285.127 151.422 285.802 152.434 286.183 153.725C287.122 152.375 288.28 151.349 289.659 150.645C291.038 149.911 292.46 149.545 293.927 149.545C295.892 149.545 297.388 150.425 298.415 152.185C299.471 153.915 299.735 156.071 299.207 158.653L298.063 163.977C297.887 164.857 297.828 165.458 297.887 165.781C297.946 166.103 298.136 166.265 298.459 166.265C298.752 166.265 299.104 166.045 299.515 165.605C299.955 165.165 300.292 164.945 300.527 164.945ZM315.832 171.633C312.576 171.633 310.039 170.797 308.22 169.125C306.402 167.423 305.492 165.091 305.492 162.129C305.492 158.638 306.827 155.675 309.496 153.241C312.166 150.777 315.334 149.545 319 149.545C322.139 149.545 324.618 150.41 326.436 152.141C328.255 153.871 329.164 156.115 329.164 158.873C329.164 162.627 327.888 165.693 325.336 168.069C322.784 170.445 319.616 171.633 315.832 171.633ZM316.096 168.157C317.446 168.157 318.546 167.057 319.396 164.857C320.247 162.627 320.672 160.325 320.672 157.949C320.672 154.634 319.851 152.977 318.208 152.977C316.8 152.977 315.671 154.033 314.82 156.145C313.999 158.227 313.559 160.53 313.5 163.053C313.588 166.455 314.454 168.157 316.096 168.157ZM334.99 171.589C333.905 171.589 332.907 171.281 331.998 170.665C331.118 170.049 330.766 169.066 330.942 167.717C331.089 166.837 331.455 166.103 332.042 165.517C332.658 164.93 333.303 164.637 333.978 164.637C334.535 164.637 334.975 164.769 335.298 165.033C335.65 165.297 335.87 165.59 335.958 165.913C336.075 166.206 336.237 166.485 336.442 166.749C336.647 167.013 336.911 167.145 337.234 167.145C337.909 167.145 338.569 165.971 339.214 163.625C339.859 161.278 340.329 159.181 340.622 157.333C340.827 156.013 340.578 155.206 339.874 154.913C339.199 154.561 338.847 154.121 338.818 153.593C338.818 153.299 338.877 153.035 338.994 152.801C339.141 152.566 339.537 152.243 340.182 151.833C340.857 151.422 341.81 150.997 343.042 150.557C345.066 149.882 346.87 149.545 348.454 149.545C349.305 149.545 349.789 150.117 349.906 151.261C350.229 154.165 350.845 157.362 351.754 160.853L356.066 152.713C356.125 152.566 356.213 152.405 356.33 152.229C356.477 152.023 356.697 151.789 356.99 151.525C357.313 151.261 357.665 151.055 358.046 150.909C359.953 150.087 361.933 149.647 363.986 149.589C364.426 149.559 364.763 149.677 364.998 149.941C365.233 150.205 365.321 150.571 365.262 151.041L363.502 163.889C363.385 164.769 363.385 165.385 363.502 165.737C363.619 166.059 363.854 166.221 364.206 166.221C364.499 166.221 364.851 166.015 365.262 165.605C365.673 165.194 365.995 164.989 366.23 164.989C366.817 164.989 367.11 165.37 367.11 166.133C367.139 167.335 366.479 168.553 365.13 169.785C363.81 170.987 362.05 171.589 359.85 171.589C356.271 171.589 354.805 169.491 355.45 165.297L356.594 157.905L351.402 167.805C350.933 168.567 350.053 169.139 348.762 169.521C347.178 169.961 346.195 169.638 345.814 168.553C344.787 165.179 344.083 161.689 343.702 158.081C343.35 159.958 342.617 162.862 341.502 166.793C340.182 169.99 338.011 171.589 334.99 171.589ZM381.053 159.313C380.877 160.163 380.481 160.721 379.865 160.985C379.279 161.219 378.736 161.102 378.237 160.633C377.768 160.163 377.607 159.445 377.753 158.477C377.988 156.805 378.56 155.221 379.469 153.725C380.408 152.199 381.317 150.777 382.197 149.457C383.107 148.107 383.649 146.817 383.825 145.585C384.001 144.206 383.532 143.517 382.417 143.517C381.889 143.517 381.435 143.707 381.053 144.089C380.701 144.47 380.32 145.042 379.909 145.805C379.528 146.538 379.235 147.051 379.029 147.345C379 147.374 378.853 147.565 378.589 147.917C378.355 148.239 378.193 148.445 378.105 148.533C378.047 148.621 377.885 148.797 377.621 149.061C377.387 149.295 377.167 149.471 376.961 149.589C376.785 149.677 376.536 149.765 376.213 149.853C375.92 149.941 375.597 149.985 375.245 149.985C373.955 149.985 373.089 149.647 372.649 148.973C372.209 148.269 372.048 147.477 372.165 146.597C372.429 144.69 373.485 143.106 375.333 141.845C377.181 140.554 379.733 139.909 382.989 139.909C386.069 139.909 388.387 140.495 389.941 141.669C391.496 142.842 392.141 144.382 391.877 146.289C391.731 147.345 391.276 148.386 390.513 149.413C389.78 150.439 388.988 151.275 388.137 151.921C387.316 152.566 386.377 153.285 385.321 154.077C384.265 154.839 383.532 155.441 383.121 155.881C382.916 156.086 382.535 156.629 381.977 157.509C381.449 158.359 381.141 158.961 381.053 159.313ZM378.501 171.765C377.445 171.765 376.58 171.457 375.905 170.841C375.231 170.195 374.893 169.286 374.893 168.113C374.893 166.734 375.363 165.619 376.301 164.769C377.269 163.918 378.369 163.493 379.601 163.493C380.628 163.493 381.479 163.83 382.153 164.505C382.857 165.15 383.209 166.059 383.209 167.233C383.209 168.611 382.74 169.711 381.801 170.533C380.892 171.354 379.792 171.765 378.501 171.765Z" fill="#C5FF71"/>
</svg>
