<svg width="142" height="74" viewBox="0 0 142 74" fill="none" xmlns="http://www.w3.org/2000/svg">
<path d="M24.7136 30.6618C14.0567 26.514 20.9231 6.45501 24.4308 0C28.1007 15.5657 42.3394 24.6418 49 27.2341C46.1834 28.0676 35.3706 34.8095 24.7136 30.6618Z" fill="#FFC6F9"/>
<rect x="1" y="24" width="140" height="49" rx="24.5" fill="#6932FF" stroke="#FFC6F9" stroke-width="2"/>
<path d="M31.56 39.542H29.152C28.956 39.542 28.8206 39.5093 28.746 39.444C28.6806 39.3787 28.6853 39.262 28.76 39.094L28.9 38.786C28.9746 38.6087 29.054 38.4873 29.138 38.422C29.2313 38.3567 29.3713 38.324 29.558 38.324H31.966C32.162 38.324 32.2926 38.3567 32.358 38.422C32.4326 38.4873 32.4326 38.604 32.358 38.772L32.218 39.08C32.1433 39.2573 32.0593 39.3787 31.966 39.444C31.882 39.5093 31.7466 39.542 31.56 39.542ZM38.6513 43H37.1253C36.8453 43 36.6586 42.972 36.5653 42.916C36.4813 42.8507 36.4486 42.734 36.4673 42.566C36.486 42.4353 36.57 42.314 36.7193 42.202C36.878 42.0807 37.0413 41.9407 37.2093 41.782C37.3773 41.614 37.4846 41.418 37.5313 41.194L38.6513 35.258C38.698 35.034 38.684 34.8473 38.6093 34.698C38.544 34.5487 38.4553 34.446 38.3433 34.39C38.2406 34.3247 38.1473 34.236 38.0633 34.124C37.9793 34.0027 37.9466 33.8627 37.9653 33.704C38.0026 33.5173 38.0866 33.3867 38.2173 33.312C38.3573 33.2373 38.5673 33.2 38.8473 33.2H40.9753C41.2926 33.2 41.5026 33.3493 41.6053 33.648L43.1033 38.674L46.2113 33.662C46.4073 33.354 46.6546 33.2 46.9533 33.2H48.9833C49.2726 33.2 49.4733 33.2373 49.5853 33.312C49.6973 33.3867 49.7393 33.5173 49.7113 33.704C49.6833 33.8627 49.6133 34.0027 49.5013 34.124C49.3893 34.236 49.2726 34.3247 49.1513 34.39C49.03 34.446 48.9133 34.5487 48.8013 34.698C48.6893 34.8473 48.6193 35.034 48.5913 35.258L48.0453 40.62C48.0173 40.8813 48.0313 41.096 48.0873 41.264C48.1433 41.4227 48.218 41.5393 48.3113 41.614C48.4046 41.6887 48.498 41.7587 48.5913 41.824C48.6846 41.88 48.7593 41.964 48.8153 42.076C48.8713 42.1787 48.89 42.3187 48.8713 42.496C48.8433 42.6827 48.7593 42.8133 48.6193 42.888C48.4886 42.9627 48.2553 43 47.9193 43H45.1473C44.83 43 44.6106 42.9627 44.4893 42.888C44.3773 42.8133 44.3353 42.6827 44.3633 42.496C44.3913 42.3093 44.4566 42.1507 44.5593 42.02C44.662 41.8893 44.7693 41.7913 44.8813 41.726C45.0026 41.6607 45.1193 41.5347 45.2313 41.348C45.3433 41.1613 45.418 40.9187 45.4553 40.62L45.9873 36.364L42.5713 41.964C42.4126 42.244 42.1793 42.412 41.8713 42.468C41.554 42.5333 41.3533 42.426 41.2693 42.146L39.6453 36.462L38.8473 41.194C38.8006 41.4833 38.88 41.7493 39.0853 41.992C39.3 42.2253 39.3933 42.4213 39.3653 42.58C39.3466 42.748 39.2813 42.86 39.1693 42.916C39.0666 42.972 38.894 43 38.6513 43ZM53.8961 43.154C52.8601 43.154 52.0528 42.888 51.4741 42.356C50.8954 41.8147 50.6061 41.0727 50.6061 40.13C50.6061 39.0193 51.0308 38.0767 51.8801 37.302C52.7294 36.518 53.7374 36.126 54.9041 36.126C55.9028 36.126 56.6914 36.4013 57.2701 36.952C57.8488 37.5027 58.1381 38.2167 58.1381 39.094C58.1381 40.2887 57.7321 41.264 56.9201 42.02C56.1081 42.776 55.1001 43.154 53.8961 43.154ZM53.9801 42.048C54.4094 42.048 54.7594 41.698 55.0301 40.998C55.3008 40.2887 55.4361 39.556 55.4361 38.8C55.4361 37.7453 55.1748 37.218 54.6521 37.218C54.2041 37.218 53.8448 37.554 53.5741 38.226C53.3128 38.8887 53.1728 39.6213 53.1541 40.424C53.1821 41.5067 53.4574 42.048 53.9801 42.048ZM60.0477 43.112C59.581 43.112 59.231 43.0513 58.9977 42.93C58.7644 42.7993 58.6617 42.6407 58.6897 42.454C58.6897 42.3607 58.727 42.2813 58.8017 42.216C58.8764 42.1413 58.965 42.0993 59.0677 42.09C59.217 42.0807 59.329 42.0667 59.4037 42.048C59.4784 42.02 59.5857 41.936 59.7257 41.796C59.875 41.6467 60.0337 41.4227 60.2017 41.124C60.491 40.6293 60.799 40.256 61.1257 40.004C61.4617 39.752 61.905 39.6027 62.4557 39.556C62.2037 39.388 61.9937 39.038 61.8257 38.506C61.695 38.086 61.5457 37.876 61.3777 37.876C61.2657 37.876 61.1164 37.988 60.9297 38.212C60.743 38.4267 60.5424 38.534 60.3277 38.534C60.0757 38.534 59.8797 38.4407 59.7397 38.254C59.5997 38.0673 59.5484 37.8107 59.5857 37.484C59.6417 37.0547 59.8144 36.7233 60.1037 36.49C60.393 36.2567 60.7337 36.14 61.1257 36.14C61.247 36.14 61.359 36.154 61.4617 36.182C61.5737 36.2007 61.667 36.224 61.7417 36.252C61.8257 36.28 61.905 36.3313 61.9797 36.406C62.0637 36.4713 62.129 36.5273 62.1757 36.574C62.2224 36.6113 62.2737 36.6813 62.3297 36.784C62.3857 36.8867 62.4277 36.966 62.4557 37.022C62.4837 37.0687 62.5164 37.1573 62.5537 37.288C62.6004 37.4093 62.6284 37.4933 62.6377 37.54C62.6564 37.5773 62.6844 37.666 62.7217 37.806C62.759 37.946 62.7824 38.03 62.7917 38.058C62.8664 38.3753 62.9457 38.6133 63.0297 38.772C63.123 38.9213 63.263 38.996 63.4497 38.996H63.5897C63.7204 38.996 63.8044 38.982 63.8417 38.954C63.879 38.9167 63.9024 38.8373 63.9117 38.716L63.9677 38.338C63.9957 38.1513 64.005 37.9833 63.9957 37.834C63.9864 37.61 63.893 37.414 63.7157 37.246C63.5477 37.078 63.4777 36.896 63.5057 36.7C63.5244 36.532 63.5897 36.42 63.7017 36.364C63.823 36.308 64.0004 36.28 64.2337 36.28H66.7537C66.9964 36.28 67.1737 36.3127 67.2857 36.378C67.3977 36.4433 67.4444 36.5553 67.4257 36.714C67.3977 36.8913 67.267 37.0687 67.0337 37.246C66.8097 37.414 66.6604 37.61 66.5857 37.834C66.5204 38.1233 66.483 38.2913 66.4737 38.338L66.4177 38.716C66.4084 38.8373 66.413 38.9167 66.4317 38.954C66.4597 38.982 66.5344 38.996 66.6557 38.996H66.7957C66.9824 38.996 67.1457 38.9167 67.2857 38.758C67.4257 38.5993 67.5844 38.3613 67.7617 38.044C68.1257 37.372 68.415 36.9287 68.6297 36.714C68.9937 36.3313 69.4324 36.14 69.9457 36.14C70.3284 36.14 70.6317 36.2567 70.8557 36.49C71.0797 36.7233 71.1637 37.0547 71.1077 37.484C71.0704 37.8013 70.949 38.058 70.7437 38.254C70.5384 38.4407 70.3097 38.534 70.0577 38.534C69.927 38.534 69.815 38.5013 69.7217 38.436C69.6377 38.3613 69.577 38.2867 69.5397 38.212C69.5117 38.128 69.465 38.0533 69.3997 37.988C69.3437 37.9133 69.2737 37.876 69.1897 37.876C69.1617 37.876 69.1337 37.8807 69.1057 37.89C69.087 37.89 69.0637 37.8993 69.0357 37.918C69.017 37.9367 68.9937 37.9553 68.9657 37.974C68.947 37.9833 68.9237 38.0067 68.8957 38.044C68.877 38.072 68.8584 38.0953 68.8397 38.114C68.821 38.1327 68.7977 38.1653 68.7697 38.212C68.7417 38.2493 68.7184 38.282 68.6997 38.31C68.6904 38.3287 68.667 38.366 68.6297 38.422C68.6017 38.478 68.5784 38.5153 68.5597 38.534C68.205 39.0753 67.9017 39.416 67.6497 39.556C68.191 39.6027 68.5877 39.752 68.8397 40.004C69.101 40.256 69.3064 40.6293 69.4557 41.124C69.5397 41.4227 69.633 41.6467 69.7357 41.796C69.8384 41.936 69.9224 42.02 69.9877 42.048C70.0624 42.0667 70.1744 42.0807 70.3237 42.09C70.5384 42.1087 70.6364 42.23 70.6177 42.454C70.5897 42.6407 70.4357 42.7993 70.1557 42.93C69.885 43.0513 69.5164 43.112 69.0497 43.112C68.3964 43.112 67.9437 42.972 67.6917 42.692C67.4397 42.412 67.2344 41.908 67.0757 41.18C67.057 41.1053 67.0337 40.9793 67.0057 40.802C66.9777 40.6247 66.9497 40.494 66.9217 40.41C66.903 40.326 66.8517 40.2467 66.7677 40.172C66.693 40.088 66.5857 40.046 66.4457 40.046C66.371 40.046 66.315 40.074 66.2777 40.13C66.2404 40.1767 66.2077 40.284 66.1797 40.452L66.1237 40.942C66.0957 41.1287 66.0864 41.292 66.0957 41.432C66.105 41.656 66.1937 41.8567 66.3617 42.034C66.539 42.202 66.6137 42.384 66.5857 42.58C66.5484 42.86 66.3057 43 65.8577 43H63.3237C63.081 43 62.9037 42.9673 62.7917 42.902C62.689 42.8367 62.647 42.72 62.6657 42.552C62.6844 42.4027 62.745 42.286 62.8477 42.202C62.9597 42.1087 63.081 42.006 63.2117 41.894C63.3424 41.7727 63.4404 41.6187 63.5057 41.432C63.571 41.1893 63.6084 41.026 63.6177 40.942L63.6737 40.452C63.7017 40.284 63.7017 40.1767 63.6737 40.13C63.6457 40.074 63.5897 40.046 63.5057 40.046C63.3937 40.046 63.2957 40.0693 63.2117 40.116C63.1277 40.1533 63.053 40.2187 62.9877 40.312C62.9317 40.396 62.885 40.48 62.8477 40.564C62.8104 40.6387 62.7637 40.7413 62.7077 40.872C62.6517 41.0027 62.605 41.1053 62.5677 41.18C62.2037 41.908 61.8537 42.412 61.5177 42.692C61.191 42.972 60.701 43.112 60.0477 43.112ZM77.6496 40.942C77.8456 40.802 78.0136 40.7787 78.1536 40.872C78.303 40.9653 78.3123 41.1193 78.1816 41.334C77.8643 41.866 77.4116 42.3 76.8236 42.636C76.245 42.972 75.5776 43.14 74.8216 43.14C73.8416 43.14 73.0856 42.8833 72.5536 42.37C72.031 41.8567 71.7696 41.152 71.7696 40.256C71.7696 39.1453 72.171 38.184 72.9736 37.372C73.7856 36.5507 74.761 36.14 75.8996 36.14C76.6463 36.14 77.2436 36.322 77.6916 36.686C78.1396 37.0407 78.3636 37.484 78.3636 38.016C78.3636 38.5387 78.1443 39.0007 77.7056 39.402C77.2763 39.794 76.7583 40.0787 76.1516 40.256C75.5543 40.424 74.9523 40.494 74.3456 40.466C74.579 41.138 75.1063 41.474 75.9276 41.474C76.5903 41.474 77.1643 41.2967 77.6496 40.942ZM75.6336 37.218C75.1763 37.218 74.8216 37.4373 74.5696 37.876C74.3176 38.3147 74.1916 38.7673 74.1916 39.234C74.1916 39.374 74.271 39.444 74.4296 39.444C74.9243 39.4627 75.3863 39.3367 75.8156 39.066C76.2543 38.786 76.4643 38.422 76.4456 37.974C76.4363 37.7687 76.3616 37.5913 76.2216 37.442C76.0816 37.2927 75.8856 37.218 75.6336 37.218ZM91.4352 41.026C91.6219 41.026 91.7152 41.1427 91.7152 41.376C91.7152 41.7773 91.5052 42.174 91.0852 42.566C90.6746 42.9487 90.1192 43.14 89.4192 43.14C88.9526 43.14 88.5932 42.9767 88.3412 42.65C88.0986 42.3233 88.0332 41.824 88.1452 41.152L88.4112 39.668C88.5606 38.9213 88.6306 38.4127 88.6212 38.142C88.6212 37.862 88.5092 37.722 88.2852 37.722C88.2012 37.722 88.1079 37.7453 88.0052 37.792C87.9119 37.8387 87.7906 37.946 87.6412 38.114C87.5012 38.2727 87.3612 38.4873 87.2212 38.758C87.0812 39.0193 86.9319 39.3973 86.7732 39.892C86.6239 40.3867 86.4839 40.956 86.3532 41.6L86.2272 42.286C86.1619 42.5473 86.0032 42.706 85.7512 42.762L84.1272 43.14C83.9872 43.168 83.8799 43.1353 83.8052 43.042C83.7306 42.9487 83.7072 42.8227 83.7352 42.664L84.3232 39.668C84.4166 39.1733 84.4679 38.786 84.4772 38.506C84.4959 38.2167 84.4772 38.016 84.4212 37.904C84.3652 37.7827 84.2672 37.722 84.1272 37.722C84.0432 37.722 83.9546 37.7453 83.8612 37.792C83.7679 37.8387 83.6512 37.946 83.5112 38.114C83.3712 38.2727 83.2359 38.4873 83.1052 38.758C82.9839 39.0193 82.8486 39.3973 82.6992 39.892C82.5499 40.3773 82.4099 40.9467 82.2792 41.6L82.1392 42.286C82.0832 42.5473 81.9246 42.706 81.6632 42.762L80.0532 43.14C79.9132 43.168 79.8012 43.1353 79.7172 43.042C79.6426 42.9487 79.6192 42.8227 79.6472 42.664L80.3192 38.604C80.3566 38.3987 80.3472 38.2353 80.2912 38.114C80.2446 37.9833 80.1746 37.904 80.0812 37.876C79.9972 37.8387 79.9179 37.7827 79.8432 37.708C79.7686 37.6333 79.7312 37.54 79.7312 37.428C79.7312 37.288 79.8152 37.148 79.9832 37.008C80.1512 36.868 80.5059 36.686 81.0472 36.462C81.6446 36.238 82.0646 36.126 82.3072 36.126C82.6619 36.126 82.8206 36.3033 82.7832 36.658L82.6712 37.54C83.0166 37.0547 83.4039 36.7 83.8332 36.476C84.2719 36.2427 84.6919 36.126 85.0932 36.126C85.5412 36.126 85.9192 36.2473 86.2272 36.49C86.5352 36.7233 86.7499 37.0453 86.8712 37.456C87.1699 37.0267 87.5386 36.7 87.9772 36.476C88.4159 36.2427 88.8686 36.126 89.3352 36.126C89.9606 36.126 90.4366 36.406 90.7632 36.966C91.0992 37.5167 91.1832 38.2027 91.0152 39.024L90.6512 40.718C90.5952 40.998 90.5766 41.1893 90.5952 41.292C90.6139 41.3947 90.6746 41.446 90.7772 41.446C90.8706 41.446 90.9826 41.376 91.1132 41.236C91.2532 41.096 91.3606 41.026 91.4352 41.026ZM104.05 41.04C104.237 41.04 104.33 41.1613 104.33 41.404C104.33 41.7867 104.115 42.174 103.686 42.566C103.266 42.9487 102.706 43.14 102.006 43.14C101.53 43.14 101.157 42.9813 100.886 42.664C100.625 42.3373 100.545 41.8427 100.648 41.18L100.816 40.018H98.8279L98.5339 42.272C98.4966 42.5427 98.3426 42.706 98.0719 42.762L96.4479 43.14C96.3172 43.168 96.2099 43.1353 96.1259 43.042C96.0512 42.9487 96.0279 42.8227 96.0559 42.664L96.6019 38.618C96.6299 38.4127 96.6159 38.2493 96.5599 38.128C96.5132 37.9973 96.4479 37.918 96.3639 37.89C96.2799 37.8527 96.2006 37.7967 96.1259 37.722C96.0512 37.6473 96.0139 37.554 96.0139 37.442C96.0139 37.2927 96.0886 37.1527 96.2379 37.022C96.3966 36.882 96.7046 36.728 97.1619 36.56C97.9086 36.2893 98.4732 36.154 98.8559 36.154C99.1826 36.154 99.3226 36.322 99.2759 36.658L98.9679 38.982H100.97L101.25 37.036C101.287 36.756 101.441 36.588 101.712 36.532L103.308 36.154C103.448 36.126 103.555 36.1587 103.63 36.252C103.705 36.3453 103.733 36.4667 103.714 36.616L103.14 40.718C103.056 41.194 103.14 41.432 103.392 41.432C103.485 41.432 103.597 41.3667 103.728 41.236C103.868 41.1053 103.975 41.04 104.05 41.04ZM111.404 40.942C111.6 40.802 111.768 40.7787 111.908 40.872C112.058 40.9653 112.067 41.1193 111.936 41.334C111.619 41.866 111.166 42.3 110.578 42.636C110 42.972 109.332 43.14 108.576 43.14C107.596 43.14 106.84 42.8833 106.308 42.37C105.786 41.8567 105.524 41.152 105.524 40.256C105.524 39.1453 105.926 38.184 106.728 37.372C107.54 36.5507 108.516 36.14 109.654 36.14C110.401 36.14 110.998 36.322 111.446 36.686C111.894 37.0407 112.118 37.484 112.118 38.016C112.118 38.5387 111.899 39.0007 111.46 39.402C111.031 39.794 110.513 40.0787 109.906 40.256C109.309 40.424 108.707 40.494 108.1 40.466C108.334 41.138 108.861 41.474 109.682 41.474C110.345 41.474 110.919 41.2967 111.404 40.942ZM109.388 37.218C108.931 37.218 108.576 37.4373 108.324 37.876C108.072 38.3147 107.946 38.7673 107.946 39.234C107.946 39.374 108.026 39.444 108.184 39.444C108.679 39.4627 109.141 39.3367 109.57 39.066C110.009 38.786 110.219 38.422 110.2 37.974C110.191 37.7687 110.116 37.5913 109.976 37.442C109.836 37.2927 109.64 37.218 109.388 37.218ZM26.499 59.026C26.6857 59.026 26.779 59.1427 26.779 59.376C26.779 59.7773 26.569 60.174 26.149 60.566C25.7384 60.9487 25.183 61.14 24.483 61.14C24.0164 61.14 23.657 60.9767 23.405 60.65C23.1624 60.3233 23.097 59.824 23.209 59.152L23.475 57.668C23.6244 56.9213 23.6944 56.4127 23.685 56.142C23.685 55.862 23.573 55.722 23.349 55.722C23.265 55.722 23.1717 55.7453 23.069 55.792C22.9757 55.8387 22.8544 55.946 22.705 56.114C22.565 56.2727 22.425 56.4873 22.285 56.758C22.145 57.0193 21.9957 57.3973 21.837 57.892C21.6877 58.3867 21.5477 58.956 21.417 59.6L21.291 60.286C21.2257 60.5473 21.067 60.706 20.815 60.762L19.191 61.14C19.051 61.168 18.9437 61.1353 18.869 61.042C18.7944 60.9487 18.771 60.8227 18.799 60.664L19.387 57.668C19.4804 57.1733 19.5317 56.786 19.541 56.506C19.5597 56.2167 19.541 56.016 19.485 55.904C19.429 55.7827 19.331 55.722 19.191 55.722C19.107 55.722 19.0184 55.7453 18.925 55.792C18.8317 55.8387 18.715 55.946 18.575 56.114C18.435 56.2727 18.2997 56.4873 18.169 56.758C18.0477 57.0193 17.9124 57.3973 17.763 57.892C17.6137 58.3773 17.4737 58.9467 17.343 59.6L17.203 60.286C17.147 60.5473 16.9884 60.706 16.727 60.762L15.117 61.14C14.977 61.168 14.865 61.1353 14.781 61.042C14.7064 60.9487 14.683 60.8227 14.711 60.664L15.383 56.604C15.4204 56.3987 15.411 56.2353 15.355 56.114C15.3084 55.9833 15.2384 55.904 15.145 55.876C15.061 55.8387 14.9817 55.7827 14.907 55.708C14.8324 55.6333 14.795 55.54 14.795 55.428C14.795 55.288 14.879 55.148 15.047 55.008C15.215 54.868 15.5697 54.686 16.111 54.462C16.7084 54.238 17.1284 54.126 17.371 54.126C17.7257 54.126 17.8844 54.3033 17.847 54.658L17.735 55.54C18.0804 55.0547 18.4677 54.7 18.897 54.476C19.3357 54.2427 19.7557 54.126 20.157 54.126C20.605 54.126 20.983 54.2473 21.291 54.49C21.599 54.7233 21.8137 55.0453 21.935 55.456C22.2337 55.0267 22.6024 54.7 23.041 54.476C23.4797 54.2427 23.9324 54.126 24.399 54.126C25.0244 54.126 25.5004 54.406 25.827 54.966C26.163 55.5167 26.247 56.2027 26.079 57.024L25.715 58.718C25.659 58.998 25.6404 59.1893 25.659 59.292C25.6777 59.3947 25.7384 59.446 25.841 59.446C25.9344 59.446 26.0464 59.376 26.177 59.236C26.317 59.096 26.4244 59.026 26.499 59.026ZM33.791 54.098C34.155 54.098 34.4256 54.224 34.603 54.476C34.7803 54.7187 34.869 55.008 34.869 55.344C34.869 56.1373 34.6216 57.122 34.127 58.298C33.6416 59.474 33.189 60.3887 32.769 61.042C31.5556 62.974 30.179 63.94 28.639 63.94C28.0603 63.94 27.617 63.8 27.309 63.52C26.9916 63.24 26.833 62.8807 26.833 62.442C26.833 62.0313 26.9403 61.714 27.155 61.49C27.3603 61.266 27.603 61.154 27.883 61.154C28.0603 61.154 28.2236 61.21 28.373 61.322C28.5223 61.4433 28.6296 61.5973 28.695 61.784C28.7136 61.8307 28.7416 61.91 28.779 62.022C28.8163 62.134 28.8396 62.2133 28.849 62.26C28.8676 62.3067 28.8956 62.3673 28.933 62.442C28.9796 62.5167 29.0263 62.568 29.073 62.596C29.1196 62.624 29.1803 62.652 29.255 62.68C29.3296 62.708 29.4183 62.722 29.521 62.722C29.6796 62.722 29.829 62.6613 29.969 62.54C30.109 62.428 30.1976 62.274 30.235 62.078C30.291 61.7793 30.2676 61.3453 30.165 60.776C29.8943 59.404 29.4323 57.99 28.779 56.534C28.6483 56.2353 28.527 56.044 28.415 55.96C28.303 55.8667 28.135 55.806 27.911 55.778C27.7896 55.7687 27.701 55.7313 27.645 55.666C27.589 55.5913 27.561 55.5213 27.561 55.456C27.561 55.1853 27.841 54.9007 28.401 54.602C28.961 54.294 29.437 54.14 29.829 54.14C30.1836 54.14 30.4543 54.364 30.641 54.812C31.2383 56.268 31.7656 57.9153 32.223 59.754C32.8016 58.774 33.091 57.8873 33.091 57.094C33.091 56.8047 32.993 56.478 32.797 56.114C32.6103 55.7407 32.517 55.4607 32.517 55.274C32.517 54.9473 32.657 54.672 32.937 54.448C33.217 54.2147 33.5016 54.098 33.791 54.098ZM43.3965 55.582C43.4245 57.2527 43.0185 58.5967 42.1785 59.614C41.3478 60.6313 40.2885 61.14 39.0005 61.14C38.0858 61.14 37.3392 60.874 36.7605 60.342C36.1912 59.81 35.9065 59.0493 35.9065 58.06C35.9065 56.9307 36.2705 55.9973 36.9985 55.26C37.7265 54.5227 38.6132 54.168 39.6585 54.196C40.2092 54.224 40.6198 54.3547 40.8905 54.588C40.5918 53.132 39.6912 52.2127 38.1885 51.83C37.9178 51.7647 37.7825 51.6573 37.7825 51.508C37.7825 51.2 38.1792 51.0413 38.9725 51.032C39.4578 51.0133 39.9478 51.088 40.4425 51.256C40.9372 51.4147 41.4085 51.6667 41.8565 52.012C42.3045 52.348 42.6685 52.8287 42.9485 53.454C43.2378 54.07 43.3872 54.7793 43.3965 55.582ZM39.1825 60.034C39.6398 60.034 40.0085 59.67 40.2885 58.942C40.5778 58.2047 40.7225 57.4533 40.7225 56.688C40.7225 55.7733 40.4798 55.316 39.9945 55.316C39.5278 55.316 39.1498 55.652 38.8605 56.324C38.5805 56.9867 38.4405 57.7147 38.4405 58.508C38.4405 59.5253 38.6878 60.034 39.1825 60.034ZM52.6607 59.404C52.67 59.7867 52.4647 60.174 52.0447 60.566C51.634 60.9487 51.088 61.14 50.4067 61.14C50.0613 61.14 49.758 61.0513 49.4967 60.874C49.2447 60.6873 49.0813 60.4073 49.0067 60.034C48.3907 60.7713 47.658 61.14 46.8087 61.14C46.1087 61.14 45.5393 60.902 45.1007 60.426C44.662 59.95 44.4427 59.3387 44.4427 58.592C44.4427 57.36 44.8767 56.31 45.7447 55.442C46.6127 54.574 47.5647 54.14 48.6007 54.14C48.9367 54.14 49.2587 54.1913 49.5667 54.294C49.884 54.3873 50.0707 54.434 50.1267 54.434C50.2293 54.434 50.4487 54.378 50.7847 54.266C51.13 54.154 51.3727 54.098 51.5127 54.098C51.6993 54.098 51.8393 54.1587 51.9327 54.28C52.026 54.4013 52.0633 54.5367 52.0447 54.686L51.4567 58.718C51.3913 59.194 51.48 59.432 51.7227 59.432C51.816 59.432 51.928 59.3667 52.0587 59.236C52.1987 59.1053 52.306 59.04 52.3807 59.04C52.5673 59.04 52.6607 59.1613 52.6607 59.404ZM47.6907 59.586C48.0733 59.586 48.3907 59.3433 48.6427 58.858C48.8947 58.3727 49.0767 57.766 49.1887 57.038C49.3753 55.7967 49.1467 55.176 48.5027 55.176C48.036 55.176 47.6673 55.4793 47.3967 56.086C47.1353 56.6833 46.9953 57.4067 46.9767 58.256C46.9673 58.6387 47.0233 58.956 47.1447 59.208C47.266 59.46 47.448 59.586 47.6907 59.586ZM68.7369 59.026C68.9236 59.026 69.0169 59.1427 69.0169 59.376C69.0169 59.7773 68.8069 60.174 68.3869 60.566C67.9763 60.9487 67.4209 61.14 66.7209 61.14C66.2543 61.14 65.8949 60.9767 65.6429 60.65C65.4003 60.3233 65.3349 59.824 65.4469 59.152L65.7129 57.668C65.8623 56.9213 65.9323 56.4127 65.9229 56.142C65.9229 55.862 65.8109 55.722 65.5869 55.722C65.5029 55.722 65.4096 55.7453 65.3069 55.792C65.2136 55.8387 65.0923 55.946 64.9429 56.114C64.8029 56.2727 64.6629 56.4873 64.5229 56.758C64.3829 57.0193 64.2336 57.3973 64.0749 57.892C63.9256 58.3867 63.7856 58.956 63.6549 59.6L63.5289 60.286C63.4636 60.5473 63.3049 60.706 63.0529 60.762L61.4289 61.14C61.2889 61.168 61.1816 61.1353 61.1069 61.042C61.0323 60.9487 61.0089 60.8227 61.0369 60.664L61.6249 57.668C61.7183 57.1733 61.7696 56.786 61.7789 56.506C61.7976 56.2167 61.7789 56.016 61.7229 55.904C61.6669 55.7827 61.5689 55.722 61.4289 55.722C61.3449 55.722 61.2563 55.7453 61.1629 55.792C61.0696 55.8387 60.9529 55.946 60.8129 56.114C60.6729 56.2727 60.5376 56.4873 60.4069 56.758C60.2856 57.0193 60.1503 57.3973 60.0009 57.892C59.8516 58.3773 59.7116 58.9467 59.5809 59.6L59.4409 60.286C59.3849 60.5473 59.2263 60.706 58.9649 60.762L57.3549 61.14C57.2149 61.168 57.1029 61.1353 57.0189 61.042C56.9443 60.9487 56.9209 60.8227 56.9489 60.664L57.6209 56.604C57.6583 56.3987 57.6489 56.2353 57.5929 56.114C57.5463 55.9833 57.4763 55.904 57.3829 55.876C57.2989 55.8387 57.2196 55.7827 57.1449 55.708C57.0703 55.6333 57.0329 55.54 57.0329 55.428C57.0329 55.288 57.1169 55.148 57.2849 55.008C57.4529 54.868 57.8076 54.686 58.3489 54.462C58.9463 54.238 59.3663 54.126 59.6089 54.126C59.9636 54.126 60.1223 54.3033 60.0849 54.658L59.9729 55.54C60.3183 55.0547 60.7056 54.7 61.1349 54.476C61.5736 54.2427 61.9936 54.126 62.3949 54.126C62.8429 54.126 63.2209 54.2473 63.5289 54.49C63.8369 54.7233 64.0516 55.0453 64.1729 55.456C64.4716 55.0267 64.8403 54.7 65.2789 54.476C65.7176 54.2427 66.1703 54.126 66.6369 54.126C67.2623 54.126 67.7383 54.406 68.0649 54.966C68.4009 55.5167 68.4849 56.2027 68.3169 57.024L67.9529 58.718C67.8969 58.998 67.8783 59.1893 67.8969 59.292C67.9156 59.3947 67.9763 59.446 68.0789 59.446C68.1723 59.446 68.2843 59.376 68.4149 59.236C68.5549 59.096 68.6623 59.026 68.7369 59.026ZM75.0769 55.932C75.6182 55.932 76.0709 56.1 76.4349 56.436C76.7989 56.7627 76.9809 57.1873 76.9809 57.71C76.9809 58.4007 76.7709 59.0167 76.3509 59.558C75.9402 60.0993 75.4409 60.5007 74.8529 60.762C74.2742 61.014 73.6862 61.14 73.0889 61.14C72.1182 61.14 71.4089 60.916 70.9609 60.468C70.5129 60.0107 70.3635 59.334 70.5129 58.438L70.8209 56.576C70.8862 56.184 70.8022 55.9413 70.5689 55.848C70.3449 55.7173 70.2329 55.5773 70.2329 55.428C70.2329 55.3347 70.2562 55.2507 70.3029 55.176C70.3495 55.092 70.4755 54.9847 70.6809 54.854C70.8862 54.7233 71.1755 54.5927 71.5489 54.462C72.1929 54.238 72.7202 54.126 73.1309 54.126C73.4762 54.126 73.6162 54.3033 73.5509 54.658L73.2429 56.646C73.7935 56.17 74.4049 55.932 75.0769 55.932ZM81.0129 59.404C81.0222 59.7867 80.8122 60.174 80.3829 60.566C79.9629 60.9487 79.4029 61.14 78.7029 61.14C78.2269 61.14 77.8535 60.9813 77.5829 60.664C77.3122 60.3373 77.2282 59.8427 77.3309 59.18L77.9329 55.036C77.9702 54.7653 78.1289 54.5973 78.4089 54.532L80.0049 54.154C80.1355 54.126 80.2382 54.1587 80.3129 54.252C80.3969 54.3453 80.4295 54.4667 80.4109 54.616L79.8229 58.718C79.7575 59.194 79.8462 59.432 80.0889 59.432C80.1822 59.432 80.2942 59.3667 80.4249 59.236C80.5555 59.1053 80.6582 59.04 80.7329 59.04C80.9195 59.04 81.0129 59.1613 81.0129 59.404ZM74.5309 58.102C74.5495 57.5887 74.3862 57.332 74.0409 57.332C73.7422 57.332 73.4809 57.5607 73.2569 58.018C73.0329 58.4753 72.9255 58.9093 72.9349 59.32C72.9442 59.5347 72.9955 59.7167 73.0889 59.866C73.1822 60.006 73.3175 60.0713 73.4949 60.062C73.7749 60.062 74.0175 59.852 74.2229 59.432C74.4282 59.012 74.5309 58.5687 74.5309 58.102ZM87.9299 61.112C87.2766 61.112 86.8193 60.972 86.5579 60.692C86.3059 60.412 86.1053 59.908 85.9559 59.18C85.9466 59.124 85.9279 59.0213 85.8999 58.872C85.8813 58.7227 85.8579 58.6153 85.8299 58.55C85.8113 58.4847 85.7786 58.4053 85.7319 58.312C85.6853 58.2093 85.6153 58.1393 85.5219 58.102C85.4379 58.0647 85.3259 58.046 85.1859 58.046C85.1019 58.046 85.0413 58.074 85.0039 58.13C84.9759 58.1767 84.9479 58.2887 84.9199 58.466L84.8639 58.942C84.8359 59.1287 84.8266 59.292 84.8359 59.432C84.8453 59.656 84.9339 59.8567 85.1019 60.034C85.2793 60.202 85.3539 60.384 85.3259 60.58C85.2886 60.86 85.0459 61 84.5979 61H82.0779C81.8259 61 81.6486 60.9673 81.5459 60.902C81.4339 60.8367 81.3873 60.72 81.4059 60.552C81.4246 60.4027 81.4899 60.286 81.6019 60.202C81.7046 60.1087 81.8213 60.006 81.9519 59.894C82.0826 59.7727 82.1806 59.6187 82.2459 59.432C82.3019 59.1893 82.3393 59.026 82.3579 58.942L82.7079 56.338C82.7359 56.1513 82.7453 55.9833 82.7359 55.834C82.7266 55.61 82.6333 55.414 82.4559 55.246C82.2879 55.078 82.2179 54.896 82.2459 54.7C82.2833 54.42 82.5259 54.28 82.9739 54.28H85.4939C85.7459 54.28 85.9233 54.3127 86.0259 54.378C86.1379 54.4433 86.1846 54.5553 86.1659 54.714C86.1379 54.8913 86.0073 55.0687 85.7739 55.246C85.5499 55.414 85.4006 55.61 85.3259 55.834C85.2606 56.1233 85.2233 56.2913 85.2139 56.338L85.1719 56.716C85.1533 56.8467 85.1579 56.926 85.1859 56.954C85.2139 56.982 85.2886 56.996 85.4099 56.996H85.5499C85.7646 56.996 85.9606 56.898 86.1379 56.702C86.3246 56.506 86.4926 56.268 86.6419 55.988C86.7913 55.708 86.9546 55.428 87.1319 55.148C87.3093 54.868 87.5426 54.63 87.8319 54.434C88.1213 54.238 88.4526 54.14 88.8259 54.14C89.2086 54.14 89.5119 54.2567 89.7359 54.49C89.9599 54.7233 90.0393 55.0547 89.9739 55.484C89.9366 55.8107 89.8153 56.0673 89.6099 56.254C89.4139 56.4407 89.1899 56.534 88.9379 56.534C88.8073 56.534 88.6953 56.5013 88.6019 56.436C88.5179 56.3613 88.4573 56.2867 88.4199 56.212C88.3919 56.128 88.3453 56.0533 88.2799 55.988C88.2239 55.9133 88.1539 55.876 88.0699 55.876C87.9393 55.876 87.8039 55.9833 87.6639 56.198C87.5333 56.4127 87.3699 56.6647 87.1739 56.954C86.9779 57.2433 86.7633 57.4487 86.5299 57.57C87.0713 57.6167 87.4726 57.766 87.7339 58.018C87.9953 58.2607 88.1959 58.6293 88.3359 59.124C88.4013 59.348 88.4666 59.53 88.5319 59.67C88.5973 59.81 88.6719 59.908 88.7559 59.964C88.8399 60.02 88.9053 60.0573 88.9519 60.076C89.0079 60.0853 89.0919 60.09 89.2039 60.09C89.4093 60.1087 89.5026 60.23 89.4839 60.454C89.4559 60.6407 89.3019 60.7993 89.0219 60.93C88.7513 61.0513 88.3873 61.112 87.9299 61.112ZM99.0411 59.404C99.0505 59.7867 98.8451 60.174 98.4251 60.566C98.0145 60.9487 97.4685 61.14 96.7871 61.14C96.4418 61.14 96.1385 61.0513 95.8771 60.874C95.6251 60.6873 95.4618 60.4073 95.3871 60.034C94.7711 60.7713 94.0385 61.14 93.1891 61.14C92.4891 61.14 91.9198 60.902 91.4811 60.426C91.0425 59.95 90.8231 59.3387 90.8231 58.592C90.8231 57.36 91.2571 56.31 92.1251 55.442C92.9931 54.574 93.9451 54.14 94.9811 54.14C95.3171 54.14 95.6391 54.1913 95.9471 54.294C96.2645 54.3873 96.4511 54.434 96.5071 54.434C96.6098 54.434 96.8291 54.378 97.1651 54.266C97.5105 54.154 97.7531 54.098 97.8931 54.098C98.0798 54.098 98.2198 54.1587 98.3131 54.28C98.4065 54.4013 98.4438 54.5367 98.4251 54.686L97.8371 58.718C97.7718 59.194 97.8605 59.432 98.1031 59.432C98.1965 59.432 98.3085 59.3667 98.4391 59.236C98.5791 59.1053 98.6865 59.04 98.7611 59.04C98.9478 59.04 99.0411 59.1613 99.0411 59.404ZM94.0711 59.586C94.4538 59.586 94.7711 59.3433 95.0231 58.858C95.2751 58.3727 95.4571 57.766 95.5691 57.038C95.7558 55.7967 95.5271 55.176 94.8831 55.176C94.4165 55.176 94.0478 55.4793 93.7771 56.086C93.5158 56.6833 93.3758 57.4067 93.3571 58.256C93.3478 58.6387 93.4038 58.956 93.5251 59.208C93.6465 59.46 93.8285 59.586 94.0711 59.586ZM106.021 58.942C106.217 58.802 106.385 58.7787 106.525 58.872C106.675 58.9653 106.684 59.1193 106.553 59.334C106.236 59.866 105.783 60.3 105.195 60.636C104.617 60.972 103.949 61.14 103.193 61.14C102.213 61.14 101.457 60.8833 100.925 60.37C100.403 59.8567 100.141 59.152 100.141 58.256C100.141 57.1453 100.543 56.184 101.345 55.372C102.157 54.5507 103.133 54.14 104.271 54.14C105.018 54.14 105.615 54.322 106.063 54.686C106.511 55.0407 106.735 55.484 106.735 56.016C106.735 56.5387 106.516 57.0007 106.077 57.402C105.648 57.794 105.13 58.0787 104.523 58.256C103.926 58.424 103.324 58.494 102.717 58.466C102.951 59.138 103.478 59.474 104.299 59.474C104.962 59.474 105.536 59.2967 106.021 58.942ZM104.005 55.218C103.548 55.218 103.193 55.4373 102.941 55.876C102.689 56.3147 102.563 56.7673 102.563 57.234C102.563 57.374 102.643 57.444 102.801 57.444C103.296 57.4627 103.758 57.3367 104.187 57.066C104.626 56.786 104.836 56.422 104.817 55.974C104.808 55.7687 104.733 55.5913 104.593 55.442C104.453 55.2927 104.257 55.218 104.005 55.218ZM108.775 61.14C108.43 61.14 108.112 61.042 107.823 60.846C107.543 60.65 107.431 60.3373 107.487 59.908C107.534 59.628 107.65 59.3947 107.837 59.208C108.033 59.0213 108.238 58.928 108.453 58.928C108.63 58.928 108.77 58.97 108.873 59.054C108.985 59.138 109.055 59.2313 109.083 59.334C109.12 59.4273 109.172 59.516 109.237 59.6C109.302 59.684 109.386 59.726 109.489 59.726C109.704 59.726 109.914 59.3527 110.119 58.606C110.324 57.8593 110.474 57.192 110.567 56.604C110.632 56.184 110.553 55.9273 110.329 55.834C110.114 55.722 110.002 55.582 109.993 55.414C109.993 55.3207 110.012 55.2367 110.049 55.162C110.096 55.0873 110.222 54.9847 110.427 54.854C110.642 54.7233 110.945 54.588 111.337 54.448C111.981 54.2333 112.555 54.126 113.059 54.126C113.33 54.126 113.484 54.308 113.521 54.672C113.624 55.596 113.82 56.6133 114.109 57.724L115.481 55.134C115.5 55.0873 115.528 55.036 115.565 54.98C115.612 54.9147 115.682 54.84 115.775 54.756C115.878 54.672 115.99 54.6067 116.111 54.56C116.718 54.2987 117.348 54.1587 118.001 54.14C118.141 54.1307 118.248 54.168 118.323 54.252C118.398 54.336 118.426 54.4527 118.407 54.602L117.847 58.69C117.81 58.97 117.81 59.166 117.847 59.278C117.884 59.3807 117.959 59.432 118.071 59.432C118.164 59.432 118.276 59.3667 118.407 59.236C118.538 59.1053 118.64 59.04 118.715 59.04C118.902 59.04 118.995 59.1613 118.995 59.404C119.004 59.7867 118.794 60.174 118.365 60.566C117.945 60.9487 117.385 61.14 116.685 61.14C115.546 61.14 115.08 60.4727 115.285 59.138L115.649 56.786L113.997 59.936C113.848 60.1787 113.568 60.3607 113.157 60.482C112.653 60.622 112.34 60.5193 112.219 60.174C111.892 59.1007 111.668 57.99 111.547 56.842C111.435 57.4393 111.202 58.3633 110.847 59.614C110.427 60.6313 109.736 61.14 108.775 61.14ZM123.431 57.234C123.375 57.5047 123.249 57.682 123.053 57.766C122.867 57.8407 122.694 57.8033 122.535 57.654C122.386 57.5047 122.335 57.276 122.381 56.968C122.456 56.436 122.638 55.932 122.927 55.456C123.226 54.9707 123.515 54.518 123.795 54.098C124.085 53.6687 124.257 53.258 124.313 52.866C124.369 52.4273 124.22 52.208 123.865 52.208C123.697 52.208 123.553 52.2687 123.431 52.39C123.319 52.5113 123.198 52.6933 123.067 52.936C122.946 53.1693 122.853 53.3327 122.787 53.426C122.778 53.4353 122.731 53.496 122.647 53.608C122.573 53.7107 122.521 53.776 122.493 53.804C122.475 53.832 122.423 53.888 122.339 53.972C122.265 54.0467 122.195 54.1027 122.129 54.14C122.073 54.168 121.994 54.196 121.891 54.224C121.798 54.252 121.695 54.266 121.583 54.266C121.173 54.266 120.897 54.1587 120.757 53.944C120.617 53.72 120.566 53.468 120.603 53.188C120.687 52.5813 121.023 52.0773 121.611 51.676C122.199 51.2653 123.011 51.06 124.047 51.06C125.027 51.06 125.765 51.2467 126.259 51.62C126.754 51.9933 126.959 52.4833 126.875 53.09C126.829 53.426 126.684 53.7573 126.441 54.084C126.208 54.4107 125.956 54.6767 125.685 54.882C125.424 55.0873 125.125 55.316 124.789 55.568C124.453 55.8107 124.22 56.002 124.089 56.142C124.024 56.2073 123.903 56.38 123.725 56.66C123.557 56.9307 123.459 57.122 123.431 57.234ZM122.619 61.196C122.283 61.196 122.008 61.098 121.793 60.902C121.579 60.6967 121.471 60.4073 121.471 60.034C121.471 59.5953 121.621 59.2407 121.919 58.97C122.227 58.6993 122.577 58.564 122.969 58.564C123.296 58.564 123.567 58.6713 123.781 58.886C124.005 59.0913 124.117 59.3807 124.117 59.754C124.117 60.1927 123.968 60.5427 123.669 60.804C123.38 61.0653 123.03 61.196 122.619 61.196Z" fill="#FFC6F9"/>
</svg>
