<svg width="246" height="131" viewBox="0 0 246 131" fill="none" xmlns="http://www.w3.org/2000/svg">
<path d="M177.926 47.1664C193.473 46.825 193.829 18.3752 192.281 8.62448C180.476 26.5725 158.091 31.4862 148.375 31.6995C151.603 34.0431 162.38 47.5077 177.926 47.1664Z" fill="#FFC6F9"/>
<rect x="56.7651" y="30.7314" width="137.297" height="66.0093" rx="33.0046" fill="#6932FF" stroke="#FFC6F9" stroke-width="3"/>
<path d="M106.446 54.6585H102.702C102.294 54.6585 102.012 54.6105 101.856 54.5145C101.7 54.4185 101.64 54.2505 101.676 54.0105C101.712 53.7705 101.808 53.5725 101.964 53.4165C102.12 53.2485 102.282 53.1165 102.45 53.0205C102.63 52.9125 102.81 52.7085 102.99 52.4085C103.17 52.0965 103.296 51.6885 103.368 51.1845L104.124 45.6945C104.196 45.1785 104.208 44.7825 104.16 44.5065C104.112 44.2305 104.034 44.0085 103.926 43.8405C103.818 43.6725 103.704 43.5525 103.584 43.4805C103.476 43.3965 103.386 43.2945 103.314 43.1745C103.242 43.0545 103.224 42.8985 103.26 42.7065C103.296 42.4665 103.404 42.2985 103.584 42.2025C103.764 42.1065 104.058 42.0585 104.466 42.0585H108.624C110.532 42.0585 111.972 42.4965 112.944 43.3725C113.916 44.2485 114.288 45.4545 114.06 46.9905C113.676 49.6545 111.624 50.9865 107.904 50.9865H107.184C106.932 50.9865 106.788 51.1065 106.752 51.3465C106.728 51.6705 106.722 51.8985 106.734 52.0305C106.734 52.2825 106.77 52.4925 106.842 52.6605C106.914 52.8285 106.998 52.9545 107.094 53.0385C107.19 53.1105 107.286 53.1825 107.382 53.2545C107.478 53.3265 107.55 53.4225 107.598 53.5425C107.658 53.6625 107.676 53.8185 107.652 54.0105C107.604 54.2505 107.496 54.4185 107.328 54.5145C107.16 54.6105 106.866 54.6585 106.446 54.6585ZM107.904 49.6005C108.672 49.6005 109.29 49.3785 109.758 48.9345C110.238 48.4905 110.526 47.9265 110.622 47.2425C110.802 46.0305 110.652 45.0885 110.172 44.4165C109.704 43.7445 109.116 43.4085 108.408 43.4085C108.192 43.4085 108.042 43.4445 107.958 43.5165C107.874 43.5765 107.82 43.7025 107.796 43.8945L107.094 48.9525C107.034 49.3845 107.304 49.6005 107.904 49.6005ZM125.707 52.6065C125.719 53.0985 125.455 53.5965 124.915 54.1005C124.387 54.5925 123.685 54.8385 122.809 54.8385C122.365 54.8385 121.975 54.7245 121.639 54.4965C121.315 54.2565 121.105 53.8965 121.009 53.4165C120.217 54.3645 119.275 54.8385 118.183 54.8385C117.283 54.8385 116.551 54.5325 115.987 53.9205C115.423 53.3085 115.141 52.5225 115.141 51.5625C115.141 49.9785 115.699 48.6285 116.815 47.5125C117.931 46.3965 119.155 45.8385 120.487 45.8385C120.919 45.8385 121.333 45.9045 121.729 46.0365C122.137 46.1565 122.377 46.2165 122.449 46.2165C122.581 46.2165 122.863 46.1445 123.295 46.0005C123.739 45.8565 124.051 45.7845 124.231 45.7845C124.471 45.7845 124.651 45.8625 124.771 46.0185C124.891 46.1745 124.939 46.3485 124.915 46.5405L124.159 51.7245C124.075 52.3365 124.189 52.6425 124.501 52.6425C124.621 52.6425 124.765 52.5585 124.933 52.3905C125.113 52.2225 125.251 52.1385 125.347 52.1385C125.587 52.1385 125.707 52.2945 125.707 52.6065ZM119.317 52.8405C119.809 52.8405 120.217 52.5285 120.541 51.9045C120.865 51.2805 121.099 50.5005 121.243 49.5645C121.483 47.9685 121.189 47.1705 120.361 47.1705C119.761 47.1705 119.287 47.5605 118.939 48.3405C118.603 49.1085 118.423 50.0385 118.399 51.1305C118.387 51.6225 118.459 52.0305 118.615 52.3545C118.771 52.6785 119.005 52.8405 119.317 52.8405ZM137.697 52.1385C137.937 52.1385 138.057 52.2945 138.057 52.6065C138.057 53.0985 137.781 53.5965 137.229 54.1005C136.689 54.5925 135.969 54.8385 135.069 54.8385C134.457 54.8385 133.977 54.6345 133.629 54.2265C133.293 53.8065 133.191 53.1705 133.323 52.3185L133.539 50.8245H130.983L130.605 53.7225C130.557 54.0705 130.359 54.2805 130.011 54.3525L127.923 54.8385C127.755 54.8745 127.617 54.8325 127.509 54.7125C127.413 54.5925 127.383 54.4305 127.419 54.2265L128.121 49.0245C128.157 48.7605 128.139 48.5505 128.067 48.3945C128.007 48.2265 127.923 48.1245 127.815 48.0885C127.707 48.0405 127.605 47.9685 127.509 47.8725C127.413 47.7765 127.365 47.6565 127.365 47.5125C127.365 47.3205 127.461 47.1405 127.653 46.9725C127.857 46.7925 128.253 46.5945 128.841 46.3785C129.801 46.0305 130.527 45.8565 131.019 45.8565C131.439 45.8565 131.619 46.0725 131.559 46.5045L131.163 49.4925H133.737L134.097 46.9905C134.145 46.6305 134.343 46.4145 134.691 46.3425L136.743 45.8565C136.923 45.8205 137.061 45.8625 137.157 45.9825C137.253 46.1025 137.289 46.2585 137.265 46.4505L136.527 51.7245C136.419 52.3365 136.527 52.6425 136.851 52.6425C136.971 52.6425 137.115 52.5585 137.283 52.3905C137.463 52.2225 137.601 52.1385 137.697 52.1385ZM143.823 54.8565C142.491 54.8565 141.453 54.5145 140.709 53.8305C139.965 53.1345 139.593 52.1805 139.593 50.9685C139.593 49.5405 140.139 48.3285 141.231 47.3325C142.323 46.3245 143.619 45.8205 145.119 45.8205C146.403 45.8205 147.417 46.1745 148.161 46.8825C148.905 47.5905 149.277 48.5085 149.277 49.6365C149.277 51.1725 148.755 52.4265 147.711 53.3985C146.667 54.3705 145.371 54.8565 143.823 54.8565ZM143.931 53.4345C144.483 53.4345 144.933 52.9845 145.281 52.0845C145.629 51.1725 145.803 50.2305 145.803 49.2585C145.803 47.9025 145.467 47.2245 144.795 47.2245C144.219 47.2245 143.757 47.6565 143.409 48.5205C143.073 49.3725 142.893 50.3145 142.869 51.3465C142.905 52.7385 143.259 53.4345 143.931 53.4345ZM98.104 75.1205C98.344 75.1205 98.464 75.2705 98.464 75.5705C98.464 76.0865 98.194 76.5965 97.654 77.1005C97.126 77.5925 96.412 77.8385 95.512 77.8385C94.912 77.8385 94.45 77.6285 94.126 77.2085C93.814 76.7885 93.73 76.1465 93.874 75.2825L94.216 73.3745C94.408 72.4145 94.498 71.7605 94.486 71.4125C94.486 71.0525 94.342 70.8725 94.054 70.8725C93.946 70.8725 93.826 70.9025 93.694 70.9625C93.574 71.0225 93.418 71.1605 93.226 71.3765C93.046 71.5805 92.866 71.8565 92.686 72.2045C92.506 72.5405 92.314 73.0265 92.11 73.6625C91.918 74.2985 91.738 75.0305 91.57 75.8585L91.408 76.7405C91.324 77.0765 91.12 77.2805 90.796 77.3525L88.708 77.8385C88.528 77.8745 88.39 77.8325 88.294 77.7125C88.198 77.5925 88.168 77.4305 88.204 77.2265L88.96 73.3745C89.08 72.7385 89.146 72.2405 89.158 71.8805C89.182 71.5085 89.158 71.2505 89.086 71.1065C89.014 70.9505 88.888 70.8725 88.708 70.8725C88.6 70.8725 88.486 70.9025 88.366 70.9625C88.246 71.0225 88.096 71.1605 87.916 71.3765C87.736 71.5805 87.562 71.8565 87.394 72.2045C87.238 72.5405 87.064 73.0265 86.872 73.6625C86.68 74.2865 86.5 75.0185 86.332 75.8585L86.152 76.7405C86.08 77.0765 85.876 77.2805 85.54 77.3525L83.47 77.8385C83.29 77.8745 83.146 77.8325 83.038 77.7125C82.942 77.5925 82.912 77.4305 82.948 77.2265L83.812 72.0065C83.86 71.7425 83.848 71.5325 83.776 71.3765C83.716 71.2085 83.626 71.1065 83.506 71.0705C83.398 71.0225 83.296 70.9505 83.2 70.8545C83.104 70.7585 83.056 70.6385 83.056 70.4945C83.056 70.3145 83.164 70.1345 83.38 69.9545C83.596 69.7745 84.052 69.5405 84.748 69.2525C85.516 68.9645 86.056 68.8205 86.368 68.8205C86.824 68.8205 87.028 69.0485 86.98 69.5045L86.836 70.6385C87.28 70.0145 87.778 69.5585 88.33 69.2705C88.894 68.9705 89.434 68.8205 89.95 68.8205C90.526 68.8205 91.012 68.9765 91.408 69.2885C91.804 69.5885 92.08 70.0025 92.236 70.5305C92.62 69.9785 93.094 69.5585 93.658 69.2705C94.222 68.9705 94.804 68.8205 95.404 68.8205C96.208 68.8205 96.82 69.1805 97.24 69.9005C97.672 70.6085 97.78 71.4905 97.564 72.5465L97.096 74.7245C97.024 75.0845 97 75.3305 97.024 75.4625C97.048 75.5945 97.126 75.6605 97.258 75.6605C97.378 75.6605 97.522 75.5705 97.69 75.3905C97.87 75.2105 98.008 75.1205 98.104 75.1205ZM106.255 71.1425C106.951 71.1425 107.533 71.3585 108.001 71.7905C108.469 72.2105 108.703 72.7565 108.703 73.4285C108.703 74.3165 108.433 75.1085 107.893 75.8045C107.365 76.5005 106.723 77.0165 105.967 77.3525C105.223 77.6765 104.467 77.8385 103.699 77.8385C102.451 77.8385 101.539 77.5505 100.963 76.9745C100.387 76.3865 100.195 75.5165 100.387 74.3645L100.783 71.9705C100.867 71.4665 100.759 71.1545 100.459 71.0345C100.171 70.8665 100.027 70.6865 100.027 70.4945C100.027 70.3745 100.057 70.2665 100.117 70.1705C100.177 70.0625 100.339 69.9245 100.603 69.7565C100.867 69.5885 101.239 69.4205 101.719 69.2525C102.547 68.9645 103.225 68.8205 103.753 68.8205C104.197 68.8205 104.377 69.0485 104.293 69.5045L103.897 72.0605C104.605 71.4485 105.391 71.1425 106.255 71.1425ZM113.887 75.6065C113.899 76.0985 113.629 76.5965 113.077 77.1005C112.537 77.5925 111.817 77.8385 110.917 77.8385C110.305 77.8385 109.825 77.6345 109.477 77.2265C109.129 76.8065 109.021 76.1705 109.153 75.3185L109.927 69.9905C109.975 69.6425 110.179 69.4265 110.539 69.3425L112.591 68.8565C112.759 68.8205 112.891 68.8625 112.987 68.9825C113.095 69.1025 113.137 69.2585 113.113 69.4505L112.357 74.7245C112.273 75.3365 112.387 75.6425 112.699 75.6425C112.819 75.6425 112.963 75.5585 113.131 75.3905C113.299 75.2225 113.431 75.1385 113.527 75.1385C113.767 75.1385 113.887 75.2945 113.887 75.6065ZM105.553 73.9325C105.577 73.2725 105.367 72.9425 104.923 72.9425C104.539 72.9425 104.203 73.2365 103.915 73.8245C103.627 74.4125 103.489 74.9705 103.501 75.4985C103.513 75.7745 103.579 76.0085 103.699 76.2005C103.819 76.3805 103.993 76.4645 104.221 76.4525C104.581 76.4525 104.893 76.1825 105.157 75.6425C105.421 75.1025 105.553 74.5325 105.553 73.9325ZM122.781 77.8025C121.941 77.8025 121.353 77.6225 121.017 77.2625C120.693 76.9025 120.435 76.2545 120.243 75.3185C120.231 75.2465 120.207 75.1145 120.171 74.9225C120.147 74.7305 120.117 74.5925 120.081 74.5085C120.057 74.4245 120.015 74.3225 119.955 74.2025C119.895 74.0705 119.805 73.9805 119.685 73.9325C119.577 73.8845 119.433 73.8605 119.253 73.8605C119.145 73.8605 119.067 73.8965 119.019 73.9685C118.983 74.0285 118.947 74.1725 118.911 74.4005L118.839 75.0125C118.803 75.2525 118.791 75.4625 118.803 75.6425C118.815 75.9305 118.929 76.1885 119.145 76.4165C119.373 76.6325 119.469 76.8665 119.433 77.1185C119.385 77.4785 119.073 77.6585 118.497 77.6585H115.257C114.933 77.6585 114.705 77.6165 114.573 77.5325C114.429 77.4485 114.369 77.2985 114.393 77.0825C114.417 76.8905 114.501 76.7405 114.645 76.6325C114.777 76.5125 114.927 76.3805 115.095 76.2365C115.263 76.0805 115.389 75.8825 115.473 75.6425C115.545 75.3305 115.593 75.1205 115.617 75.0125L116.067 71.6645C116.103 71.4245 116.115 71.2085 116.103 71.0165C116.091 70.7285 115.971 70.4765 115.743 70.2605C115.527 70.0445 115.437 69.8105 115.473 69.5585C115.521 69.1985 115.833 69.0185 116.409 69.0185H119.649C119.973 69.0185 120.201 69.0605 120.333 69.1445C120.477 69.2285 120.537 69.3725 120.513 69.5765C120.477 69.8045 120.309 70.0325 120.009 70.2605C119.721 70.4765 119.529 70.7285 119.433 71.0165C119.349 71.3885 119.301 71.6045 119.289 71.6645L119.235 72.1505C119.211 72.3185 119.217 72.4205 119.253 72.4565C119.289 72.4925 119.385 72.5105 119.541 72.5105H119.721C119.997 72.5105 120.249 72.3845 120.477 72.1325C120.717 71.8805 120.933 71.5745 121.125 71.2145C121.317 70.8545 121.527 70.4945 121.755 70.1345C121.983 69.7745 122.283 69.4685 122.655 69.2165C123.027 68.9645 123.453 68.8385 123.933 68.8385C124.425 68.8385 124.815 68.9885 125.103 69.2885C125.391 69.5885 125.493 70.0145 125.409 70.5665C125.361 70.9865 125.205 71.3165 124.941 71.5565C124.689 71.7965 124.401 71.9165 124.077 71.9165C123.909 71.9165 123.765 71.8745 123.645 71.7905C123.537 71.6945 123.459 71.5985 123.411 71.5025C123.375 71.3945 123.315 71.2985 123.231 71.2145C123.159 71.1185 123.069 71.0705 122.961 71.0705C122.793 71.0705 122.619 71.2085 122.439 71.4845C122.271 71.7605 122.061 72.0845 121.809 72.4565C121.557 72.8285 121.281 73.0925 120.981 73.2485C121.677 73.3085 122.193 73.5005 122.529 73.8245C122.865 74.1365 123.123 74.6105 123.303 75.2465C123.387 75.5345 123.471 75.7685 123.555 75.9485C123.639 76.1285 123.735 76.2545 123.843 76.3265C123.951 76.3985 124.035 76.4465 124.095 76.4705C124.167 76.4825 124.275 76.4885 124.419 76.4885C124.683 76.5125 124.803 76.6685 124.779 76.9565C124.743 77.1965 124.545 77.4005 124.185 77.5685C123.837 77.7245 123.369 77.8025 122.781 77.8025ZM137.067 75.6065C137.079 76.0985 136.815 76.5965 136.275 77.1005C135.747 77.5925 135.045 77.8385 134.169 77.8385C133.725 77.8385 133.335 77.7245 132.999 77.4965C132.675 77.2565 132.465 76.8965 132.369 76.4165C131.577 77.3645 130.635 77.8385 129.543 77.8385C128.643 77.8385 127.911 77.5325 127.347 76.9205C126.783 76.3085 126.501 75.5225 126.501 74.5625C126.501 72.9785 127.059 71.6285 128.175 70.5125C129.291 69.3965 130.515 68.8385 131.847 68.8385C132.279 68.8385 132.693 68.9045 133.089 69.0365C133.497 69.1565 133.737 69.2165 133.809 69.2165C133.941 69.2165 134.223 69.1445 134.655 69.0005C135.099 68.8565 135.411 68.7845 135.591 68.7845C135.831 68.7845 136.011 68.8625 136.131 69.0185C136.251 69.1745 136.299 69.3485 136.275 69.5405L135.519 74.7245C135.435 75.3365 135.549 75.6425 135.861 75.6425C135.981 75.6425 136.125 75.5585 136.293 75.3905C136.473 75.2225 136.611 75.1385 136.707 75.1385C136.947 75.1385 137.067 75.2945 137.067 75.6065ZM130.677 75.8405C131.169 75.8405 131.577 75.5285 131.901 74.9045C132.225 74.2805 132.459 73.5005 132.603 72.5645C132.843 70.9685 132.549 70.1705 131.721 70.1705C131.121 70.1705 130.647 70.5605 130.299 71.3405C129.963 72.1085 129.783 73.0385 129.759 74.1305C129.747 74.6225 129.819 75.0305 129.975 75.3545C130.131 75.6785 130.365 75.8405 130.677 75.8405ZM146.041 75.0125C146.293 74.8325 146.509 74.8025 146.689 74.9225C146.881 75.0425 146.893 75.2405 146.725 75.5165C146.317 76.2005 145.735 76.7585 144.979 77.1905C144.235 77.6225 143.377 77.8385 142.405 77.8385C141.145 77.8385 140.173 77.5085 139.489 76.8485C138.817 76.1885 138.481 75.2825 138.481 74.1305C138.481 72.7025 138.997 71.4665 140.029 70.4225C141.073 69.3665 142.327 68.8385 143.791 68.8385C144.751 68.8385 145.519 69.0725 146.095 69.5405C146.671 69.9965 146.959 70.5665 146.959 71.2505C146.959 71.9225 146.677 72.5165 146.113 73.0325C145.561 73.5365 144.895 73.9025 144.115 74.1305C143.347 74.3465 142.573 74.4365 141.793 74.4005C142.093 75.2645 142.771 75.6965 143.827 75.6965C144.679 75.6965 145.417 75.4685 146.041 75.0125ZM143.449 70.2245C142.861 70.2245 142.405 70.5065 142.081 71.0705C141.757 71.6345 141.595 72.2165 141.595 72.8165C141.595 72.9965 141.697 73.0865 141.901 73.0865C142.537 73.1105 143.131 72.9485 143.683 72.6005C144.247 72.2405 144.517 71.7725 144.493 71.1965C144.481 70.9325 144.385 70.7045 144.205 70.5125C144.025 70.3205 143.773 70.2245 143.449 70.2245ZM149.581 77.8385C149.137 77.8385 148.729 77.7125 148.357 77.4605C147.997 77.2085 147.853 76.8065 147.925 76.2545C147.985 75.8945 148.135 75.5945 148.375 75.3545C148.627 75.1145 148.891 74.9945 149.167 74.9945C149.395 74.9945 149.575 75.0485 149.707 75.1565C149.851 75.2645 149.941 75.3845 149.977 75.5165C150.025 75.6365 150.091 75.7505 150.175 75.8585C150.259 75.9665 150.367 76.0205 150.499 76.0205C150.775 76.0205 151.045 75.5405 151.309 74.5805C151.573 73.6205 151.765 72.7625 151.885 72.0065C151.969 71.4665 151.867 71.1365 151.579 71.0165C151.303 70.8725 151.159 70.6925 151.147 70.4765C151.147 70.3565 151.171 70.2485 151.219 70.1525C151.279 70.0565 151.441 69.9245 151.705 69.7565C151.981 69.5885 152.371 69.4145 152.875 69.2345C153.703 68.9585 154.441 68.8205 155.089 68.8205C155.437 68.8205 155.635 69.0545 155.683 69.5225C155.815 70.7105 156.067 72.0185 156.439 73.4465L158.203 70.1165C158.227 70.0565 158.263 69.9905 158.311 69.9185C158.371 69.8345 158.461 69.7385 158.581 69.6305C158.713 69.5225 158.857 69.4385 159.013 69.3785C159.793 69.0425 160.603 68.8625 161.443 68.8385C161.623 68.8265 161.761 68.8745 161.857 68.9825C161.953 69.0905 161.989 69.2405 161.965 69.4325L161.245 74.6885C161.197 75.0485 161.197 75.3005 161.245 75.4445C161.293 75.5765 161.389 75.6425 161.533 75.6425C161.653 75.6425 161.797 75.5585 161.965 75.3905C162.133 75.2225 162.265 75.1385 162.361 75.1385C162.601 75.1385 162.721 75.2945 162.721 75.6065C162.733 76.0985 162.463 76.5965 161.911 77.1005C161.371 77.5925 160.651 77.8385 159.751 77.8385C158.287 77.8385 157.687 76.9805 157.951 75.2645L158.419 72.2405L156.295 76.2905C156.103 76.6025 155.743 76.8365 155.215 76.9925C154.567 77.1725 154.165 77.0405 154.009 76.5965C153.589 75.2165 153.301 73.7885 153.145 72.3125C153.001 73.0805 152.701 74.2685 152.245 75.8765C151.705 77.1845 150.817 77.8385 149.581 77.8385ZM166.211 73.3745C166.031 73.3745 165.917 73.3325 165.869 73.2485C165.821 73.1525 165.809 72.9665 165.833 72.6905C165.881 71.9465 165.803 70.8905 165.599 69.5225C165.407 68.1425 165.341 67.2365 165.401 66.8045C165.485 66.2165 165.713 65.7485 166.085 65.4005C166.469 65.0525 166.907 64.8785 167.399 64.8785C167.903 64.8785 168.299 65.0585 168.587 65.4185C168.875 65.7665 168.977 66.2285 168.893 66.8045C168.833 67.2485 168.509 68.1605 167.921 69.5405C167.333 70.9085 166.955 71.9585 166.787 72.6905C166.739 72.9665 166.679 73.1525 166.607 73.2485C166.535 73.3325 166.403 73.3745 166.211 73.3745ZM165.707 77.9105C165.275 77.9105 164.915 77.7845 164.627 77.5325C164.351 77.2685 164.213 76.8965 164.213 76.4165C164.213 75.8525 164.405 75.3965 164.789 75.0485C165.185 74.7005 165.635 74.5265 166.139 74.5265C166.559 74.5265 166.907 74.6645 167.183 74.9405C167.471 75.2045 167.615 75.5765 167.615 76.0565C167.615 76.6205 167.423 77.0705 167.039 77.4065C166.667 77.7425 166.223 77.9105 165.707 77.9105Z" fill="#FFC6F9"/>
</svg>
