<svg width="211" height="109" viewBox="0 0 211 109" fill="none" xmlns="http://www.w3.org/2000/svg">
<path d="M33.8086 41.2018C19.2441 35.6282 28.6282 8.67392 33.422 0C38.4377 20.9164 57.8972 33.1124 67 36.5959C63.1506 37.7158 48.3731 46.7753 33.8086 41.2018Z" fill="#FFC6F9"/>
<rect x="1.5" y="33.5" width="208" height="74" rx="37" fill="#6932FF" stroke="#FFC6F9" stroke-width="3"/>
<path d="M30.2631 59.554H27.1671C26.9151 59.554 26.7411 59.512 26.6451 59.428C26.5611 59.344 26.5671 59.194 26.6631 58.978L26.8431 58.582C26.9391 58.354 27.0411 58.198 27.1491 58.114C27.2691 58.03 27.4491 57.988 27.6891 57.988H30.7851C31.0371 57.988 31.2051 58.03 31.2891 58.114C31.3851 58.198 31.3851 58.348 31.2891 58.564L31.1091 58.96C31.0131 59.188 30.9051 59.344 30.7851 59.428C30.6771 59.512 30.5031 59.554 30.2631 59.554ZM35.417 64H33.455C33.095 64 32.855 63.964 32.735 63.892C32.627 63.808 32.585 63.658 32.609 63.442C32.633 63.274 32.741 63.118 32.933 62.974C33.137 62.818 33.347 62.638 33.563 62.434C33.779 62.218 33.917 61.966 33.977 61.678L35.417 54.046C35.477 53.758 35.459 53.518 35.363 53.326C35.279 53.134 35.165 53.002 35.021 52.93C34.889 52.846 34.769 52.732 34.661 52.588C34.553 52.432 34.511 52.252 34.535 52.048C34.583 51.808 34.691 51.64 34.859 51.544C35.039 51.448 35.309 51.4 35.669 51.4H38.405C38.813 51.4 39.083 51.592 39.215 51.976L41.141 58.438L45.137 51.994C45.389 51.598 45.707 51.4 46.091 51.4H48.701C49.073 51.4 49.331 51.448 49.475 51.544C49.619 51.64 49.673 51.808 49.637 52.048C49.601 52.252 49.511 52.432 49.367 52.588C49.223 52.732 49.073 52.846 48.917 52.93C48.761 53.002 48.611 53.134 48.467 53.326C48.323 53.518 48.233 53.758 48.197 54.046L47.495 60.94C47.459 61.276 47.477 61.552 47.549 61.768C47.621 61.972 47.717 62.122 47.837 62.218C47.957 62.314 48.077 62.404 48.197 62.488C48.317 62.56 48.413 62.668 48.485 62.812C48.557 62.944 48.581 63.124 48.557 63.352C48.521 63.592 48.413 63.76 48.233 63.856C48.065 63.952 47.765 64 47.333 64H43.769C43.361 64 43.079 63.952 42.923 63.856C42.779 63.76 42.725 63.592 42.761 63.352C42.797 63.112 42.881 62.908 43.013 62.74C43.145 62.572 43.283 62.446 43.427 62.362C43.583 62.278 43.733 62.116 43.877 61.876C44.021 61.636 44.117 61.324 44.165 60.94L44.849 55.468L40.457 62.668C40.253 63.028 39.953 63.244 39.557 63.316C39.149 63.4 38.891 63.262 38.783 62.902L36.695 55.594L35.669 61.678C35.609 62.05 35.711 62.392 35.975 62.704C36.251 63.004 36.371 63.256 36.335 63.46C36.311 63.676 36.227 63.82 36.083 63.892C35.951 63.964 35.729 64 35.417 64ZM55.0175 64.198C53.6855 64.198 52.6475 63.856 51.9035 63.172C51.1595 62.476 50.7875 61.522 50.7875 60.31C50.7875 58.882 51.3335 57.67 52.4255 56.674C53.5175 55.666 54.8135 55.162 56.3135 55.162C57.5975 55.162 58.6115 55.516 59.3555 56.224C60.0995 56.932 60.4715 57.85 60.4715 58.978C60.4715 60.514 59.9495 61.768 58.9055 62.74C57.8615 63.712 56.5655 64.198 55.0175 64.198ZM55.1255 62.776C55.6775 62.776 56.1275 62.326 56.4755 61.426C56.8235 60.514 56.9975 59.572 56.9975 58.6C56.9975 57.244 56.6615 56.566 55.9895 56.566C55.4135 56.566 54.9515 56.998 54.6035 57.862C54.2675 58.714 54.0875 59.656 54.0635 60.688C54.0995 62.08 54.4535 62.776 55.1255 62.776ZM62.9266 64.144C62.3266 64.144 61.8766 64.066 61.5766 63.91C61.2766 63.742 61.1446 63.538 61.1806 63.298C61.1806 63.178 61.2286 63.076 61.3246 62.992C61.4206 62.896 61.5346 62.842 61.6666 62.83C61.8586 62.818 62.0026 62.8 62.0986 62.776C62.1946 62.74 62.3326 62.632 62.5126 62.452C62.7046 62.26 62.9086 61.972 63.1246 61.588C63.4966 60.952 63.8926 60.472 64.3126 60.148C64.7446 59.824 65.3146 59.632 66.0226 59.572C65.6986 59.356 65.4286 58.906 65.2126 58.222C65.0446 57.682 64.8526 57.412 64.6366 57.412C64.4926 57.412 64.3006 57.556 64.0606 57.844C63.8206 58.12 63.5626 58.258 63.2866 58.258C62.9626 58.258 62.7106 58.138 62.5306 57.898C62.3506 57.658 62.2846 57.328 62.3326 56.908C62.4046 56.356 62.6266 55.93 62.9986 55.63C63.3706 55.33 63.8086 55.18 64.3126 55.18C64.4686 55.18 64.6126 55.198 64.7446 55.234C64.8886 55.258 65.0086 55.288 65.1046 55.324C65.2126 55.36 65.3146 55.426 65.4106 55.522C65.5186 55.606 65.6026 55.678 65.6626 55.738C65.7226 55.786 65.7886 55.876 65.8606 56.008C65.9326 56.14 65.9866 56.242 66.0226 56.314C66.0586 56.374 66.1006 56.488 66.1486 56.656C66.2086 56.812 66.2446 56.92 66.2566 56.98C66.2806 57.028 66.3166 57.142 66.3646 57.322C66.4126 57.502 66.4426 57.61 66.4546 57.646C66.5506 58.054 66.6526 58.36 66.7606 58.564C66.8806 58.756 67.0606 58.852 67.3006 58.852H67.4806C67.6486 58.852 67.7566 58.834 67.8046 58.798C67.8526 58.75 67.8826 58.648 67.8946 58.492L67.9666 58.006C68.0026 57.766 68.0146 57.55 68.0026 57.358C67.9906 57.07 67.8706 56.818 67.6426 56.602C67.4266 56.386 67.3366 56.152 67.3726 55.9C67.3966 55.684 67.4806 55.54 67.6246 55.468C67.7806 55.396 68.0086 55.36 68.3086 55.36H71.5486C71.8606 55.36 72.0886 55.402 72.2326 55.486C72.3766 55.57 72.4366 55.714 72.4126 55.918C72.3766 56.146 72.2086 56.374 71.9086 56.602C71.6206 56.818 71.4286 57.07 71.3326 57.358C71.2486 57.73 71.2006 57.946 71.1886 58.006L71.1166 58.492C71.1046 58.648 71.1106 58.75 71.1346 58.798C71.1706 58.834 71.2666 58.852 71.4226 58.852H71.6026C71.8426 58.852 72.0526 58.75 72.2326 58.546C72.4126 58.342 72.6166 58.036 72.8446 57.628C73.3126 56.764 73.6846 56.194 73.9606 55.918C74.4286 55.426 74.9926 55.18 75.6526 55.18C76.1446 55.18 76.5346 55.33 76.8226 55.63C77.1106 55.93 77.2186 56.356 77.1466 56.908C77.0986 57.316 76.9426 57.646 76.6786 57.898C76.4146 58.138 76.1206 58.258 75.7966 58.258C75.6286 58.258 75.4846 58.216 75.3646 58.132C75.2566 58.036 75.1786 57.94 75.1306 57.844C75.0946 57.736 75.0346 57.64 74.9506 57.556C74.8786 57.46 74.7886 57.412 74.6806 57.412C74.6446 57.412 74.6086 57.418 74.5726 57.43C74.5486 57.43 74.5186 57.442 74.4826 57.466C74.4586 57.49 74.4286 57.514 74.3926 57.538C74.3686 57.55 74.3386 57.58 74.3026 57.628C74.2786 57.664 74.2546 57.694 74.2306 57.718C74.2066 57.742 74.1766 57.784 74.1406 57.844C74.1046 57.892 74.0746 57.934 74.0506 57.97C74.0386 57.994 74.0086 58.042 73.9606 58.114C73.9246 58.186 73.8946 58.234 73.8706 58.258C73.4146 58.954 73.0246 59.392 72.7006 59.572C73.3966 59.632 73.9066 59.824 74.2306 60.148C74.5666 60.472 74.8306 60.952 75.0226 61.588C75.1306 61.972 75.2506 62.26 75.3826 62.452C75.5146 62.632 75.6226 62.74 75.7066 62.776C75.8026 62.8 75.9466 62.818 76.1386 62.83C76.4146 62.854 76.5406 63.01 76.5166 63.298C76.4806 63.538 76.2826 63.742 75.9226 63.91C75.5746 64.066 75.1006 64.144 74.5006 64.144C73.6606 64.144 73.0786 63.964 72.7546 63.604C72.4306 63.244 72.1666 62.596 71.9626 61.66C71.9386 61.564 71.9086 61.402 71.8726 61.174C71.8366 60.946 71.8006 60.778 71.7646 60.67C71.7406 60.562 71.6746 60.46 71.5666 60.364C71.4706 60.256 71.3326 60.202 71.1526 60.202C71.0566 60.202 70.9846 60.238 70.9366 60.31C70.8886 60.37 70.8466 60.508 70.8106 60.724L70.7386 61.354C70.7026 61.594 70.6906 61.804 70.7026 61.984C70.7146 62.272 70.8286 62.53 71.0446 62.758C71.2726 62.974 71.3686 63.208 71.3326 63.46C71.2846 63.82 70.9726 64 70.3966 64H67.1386C66.8266 64 66.5986 63.958 66.4546 63.874C66.3226 63.79 66.2686 63.64 66.2926 63.424C66.3166 63.232 66.3946 63.082 66.5266 62.974C66.6706 62.854 66.8266 62.722 66.9946 62.578C67.1626 62.422 67.2886 62.224 67.3726 61.984C67.4566 61.672 67.5046 61.462 67.5166 61.354L67.5886 60.724C67.6246 60.508 67.6246 60.37 67.5886 60.31C67.5526 60.238 67.4806 60.202 67.3726 60.202C67.2286 60.202 67.1026 60.232 66.9946 60.292C66.8866 60.34 66.7906 60.424 66.7066 60.544C66.6346 60.652 66.5746 60.76 66.5266 60.868C66.4786 60.964 66.4186 61.096 66.3466 61.264C66.2746 61.432 66.2146 61.564 66.1666 61.66C65.6986 62.596 65.2486 63.244 64.8166 63.604C64.3966 63.964 63.7666 64.144 62.9266 64.144ZM85.5577 61.354C85.8097 61.174 86.0257 61.144 86.2057 61.264C86.3977 61.384 86.4097 61.582 86.2417 61.858C85.8337 62.542 85.2517 63.1 84.4957 63.532C83.7517 63.964 82.8937 64.18 81.9217 64.18C80.6617 64.18 79.6897 63.85 79.0057 63.19C78.3337 62.53 77.9977 61.624 77.9977 60.472C77.9977 59.044 78.5137 57.808 79.5457 56.764C80.5897 55.708 81.8437 55.18 83.3077 55.18C84.2677 55.18 85.0357 55.414 85.6117 55.882C86.1877 56.338 86.4757 56.908 86.4757 57.592C86.4757 58.264 86.1937 58.858 85.6297 59.374C85.0777 59.878 84.4117 60.244 83.6317 60.472C82.8637 60.688 82.0897 60.778 81.3097 60.742C81.6097 61.606 82.2877 62.038 83.3437 62.038C84.1957 62.038 84.9337 61.81 85.5577 61.354ZM82.9657 56.566C82.3777 56.566 81.9217 56.848 81.5977 57.412C81.2737 57.976 81.1117 58.558 81.1117 59.158C81.1117 59.338 81.2137 59.428 81.4177 59.428C82.0537 59.452 82.6477 59.29 83.1997 58.942C83.7637 58.582 84.0337 58.114 84.0097 57.538C83.9977 57.274 83.9017 57.046 83.7217 56.854C83.5417 56.662 83.2897 56.566 82.9657 56.566ZM103.282 61.462C103.522 61.462 103.642 61.612 103.642 61.912C103.642 62.428 103.372 62.938 102.832 63.442C102.304 63.934 101.59 64.18 100.69 64.18C100.09 64.18 99.6281 63.97 99.3041 63.55C98.9921 63.13 98.9081 62.488 99.0521 61.624L99.3941 59.716C99.5861 58.756 99.6761 58.102 99.6641 57.754C99.6641 57.394 99.5201 57.214 99.2321 57.214C99.1241 57.214 99.0041 57.244 98.8721 57.304C98.7521 57.364 98.5961 57.502 98.4041 57.718C98.2241 57.922 98.0441 58.198 97.8641 58.546C97.6841 58.882 97.4921 59.368 97.2881 60.004C97.0961 60.64 96.9161 61.372 96.7481 62.2L96.5861 63.082C96.5021 63.418 96.2981 63.622 95.9741 63.694L93.8861 64.18C93.7061 64.216 93.5681 64.174 93.4721 64.054C93.3761 63.934 93.3461 63.772 93.3821 63.568L94.1381 59.716C94.2581 59.08 94.3241 58.582 94.3361 58.222C94.3601 57.85 94.3361 57.592 94.2641 57.448C94.1921 57.292 94.0661 57.214 93.8861 57.214C93.7781 57.214 93.6641 57.244 93.5441 57.304C93.4241 57.364 93.2741 57.502 93.0941 57.718C92.9141 57.922 92.7401 58.198 92.5721 58.546C92.4161 58.882 92.2421 59.368 92.0501 60.004C91.8581 60.628 91.6781 61.36 91.5101 62.2L91.3301 63.082C91.2581 63.418 91.0541 63.622 90.7181 63.694L88.6481 64.18C88.4681 64.216 88.3241 64.174 88.2161 64.054C88.1201 63.934 88.0901 63.772 88.1261 63.568L88.9901 58.348C89.0381 58.084 89.0261 57.874 88.9541 57.718C88.8941 57.55 88.8041 57.448 88.6841 57.412C88.5761 57.364 88.4741 57.292 88.3781 57.196C88.2821 57.1 88.2341 56.98 88.2341 56.836C88.2341 56.656 88.3421 56.476 88.5581 56.296C88.7741 56.116 89.2301 55.882 89.9261 55.594C90.6941 55.306 91.2341 55.162 91.5461 55.162C92.0021 55.162 92.2061 55.39 92.1581 55.846L92.0141 56.98C92.4581 56.356 92.9561 55.9 93.5081 55.612C94.0721 55.312 94.6121 55.162 95.1281 55.162C95.7041 55.162 96.1901 55.318 96.5861 55.63C96.9821 55.93 97.2581 56.344 97.4141 56.872C97.7981 56.32 98.2721 55.9 98.8361 55.612C99.4001 55.312 99.9821 55.162 100.582 55.162C101.386 55.162 101.998 55.522 102.418 56.242C102.85 56.95 102.958 57.832 102.742 58.888L102.274 61.066C102.202 61.426 102.178 61.672 102.202 61.804C102.226 61.936 102.304 62.002 102.436 62.002C102.556 62.002 102.7 61.912 102.868 61.732C103.048 61.552 103.186 61.462 103.282 61.462ZM119.501 61.48C119.741 61.48 119.861 61.636 119.861 61.948C119.861 62.44 119.585 62.938 119.033 63.442C118.493 63.934 117.773 64.18 116.873 64.18C116.261 64.18 115.781 63.976 115.433 63.568C115.097 63.148 114.995 62.512 115.127 61.66L115.343 60.166H112.787L112.409 63.064C112.361 63.412 112.163 63.622 111.815 63.694L109.727 64.18C109.559 64.216 109.421 64.174 109.313 64.054C109.217 63.934 109.187 63.772 109.223 63.568L109.925 58.366C109.961 58.102 109.943 57.892 109.871 57.736C109.811 57.568 109.727 57.466 109.619 57.43C109.511 57.382 109.409 57.31 109.313 57.214C109.217 57.118 109.169 56.998 109.169 56.854C109.169 56.662 109.265 56.482 109.457 56.314C109.661 56.134 110.057 55.936 110.645 55.72C111.605 55.372 112.331 55.198 112.823 55.198C113.243 55.198 113.423 55.414 113.363 55.846L112.967 58.834H115.541L115.901 56.332C115.949 55.972 116.147 55.756 116.495 55.684L118.547 55.198C118.727 55.162 118.865 55.204 118.961 55.324C119.057 55.444 119.093 55.6 119.069 55.792L118.331 61.066C118.223 61.678 118.331 61.984 118.655 61.984C118.775 61.984 118.919 61.9 119.087 61.732C119.267 61.564 119.405 61.48 119.501 61.48ZM128.957 61.354C129.209 61.174 129.425 61.144 129.605 61.264C129.797 61.384 129.809 61.582 129.641 61.858C129.233 62.542 128.651 63.1 127.895 63.532C127.151 63.964 126.293 64.18 125.321 64.18C124.061 64.18 123.089 63.85 122.405 63.19C121.733 62.53 121.397 61.624 121.397 60.472C121.397 59.044 121.913 57.808 122.945 56.764C123.989 55.708 125.243 55.18 126.707 55.18C127.667 55.18 128.435 55.414 129.011 55.882C129.587 56.338 129.875 56.908 129.875 57.592C129.875 58.264 129.593 58.858 129.029 59.374C128.477 59.878 127.811 60.244 127.031 60.472C126.263 60.688 125.489 60.778 124.709 60.742C125.009 61.606 125.687 62.038 126.743 62.038C127.595 62.038 128.333 61.81 128.957 61.354ZM126.365 56.566C125.777 56.566 125.321 56.848 124.997 57.412C124.673 57.976 124.511 58.558 124.511 59.158C124.511 59.338 124.613 59.428 124.817 59.428C125.453 59.452 126.047 59.29 126.599 58.942C127.163 58.582 127.433 58.114 127.409 57.538C127.397 57.274 127.301 57.046 127.121 56.854C126.941 56.662 126.689 56.566 126.365 56.566ZM150.645 61.462C150.885 61.462 151.005 61.612 151.005 61.912C151.005 62.428 150.735 62.938 150.195 63.442C149.667 63.934 148.953 64.18 148.053 64.18C147.453 64.18 146.991 63.97 146.667 63.55C146.355 63.13 146.271 62.488 146.415 61.624L146.757 59.716C146.949 58.756 147.039 58.102 147.027 57.754C147.027 57.394 146.883 57.214 146.595 57.214C146.487 57.214 146.367 57.244 146.235 57.304C146.115 57.364 145.959 57.502 145.767 57.718C145.587 57.922 145.407 58.198 145.227 58.546C145.047 58.882 144.855 59.368 144.651 60.004C144.459 60.64 144.279 61.372 144.111 62.2L143.949 63.082C143.865 63.418 143.661 63.622 143.337 63.694L141.249 64.18C141.069 64.216 140.931 64.174 140.835 64.054C140.739 63.934 140.709 63.772 140.745 63.568L141.501 59.716C141.621 59.08 141.687 58.582 141.699 58.222C141.723 57.85 141.699 57.592 141.627 57.448C141.555 57.292 141.429 57.214 141.249 57.214C141.141 57.214 141.027 57.244 140.907 57.304C140.787 57.364 140.637 57.502 140.457 57.718C140.277 57.922 140.103 58.198 139.935 58.546C139.779 58.882 139.605 59.368 139.413 60.004C139.221 60.628 139.041 61.36 138.873 62.2L138.693 63.082C138.621 63.418 138.417 63.622 138.081 63.694L136.011 64.18C135.831 64.216 135.687 64.174 135.579 64.054C135.483 63.934 135.453 63.772 135.489 63.568L136.353 58.348C136.401 58.084 136.389 57.874 136.317 57.718C136.257 57.55 136.167 57.448 136.047 57.412C135.939 57.364 135.837 57.292 135.741 57.196C135.645 57.1 135.597 56.98 135.597 56.836C135.597 56.656 135.705 56.476 135.921 56.296C136.137 56.116 136.593 55.882 137.289 55.594C138.057 55.306 138.597 55.162 138.909 55.162C139.365 55.162 139.569 55.39 139.521 55.846L139.377 56.98C139.821 56.356 140.319 55.9 140.871 55.612C141.435 55.312 141.975 55.162 142.491 55.162C143.067 55.162 143.553 55.318 143.949 55.63C144.345 55.93 144.621 56.344 144.777 56.872C145.161 56.32 145.635 55.9 146.199 55.612C146.763 55.312 147.345 55.162 147.945 55.162C148.749 55.162 149.361 55.522 149.781 56.242C150.213 56.95 150.321 57.832 150.105 58.888L149.637 61.066C149.565 61.426 149.541 61.672 149.565 61.804C149.589 61.936 149.667 62.002 149.799 62.002C149.919 62.002 150.063 61.912 150.231 61.732C150.411 61.552 150.549 61.462 150.645 61.462ZM160.02 55.126C160.488 55.126 160.836 55.288 161.064 55.612C161.292 55.924 161.406 56.296 161.406 56.728C161.406 57.748 161.088 59.014 160.452 60.526C159.828 62.038 159.246 63.214 158.706 64.054C157.146 66.538 155.376 67.78 153.396 67.78C152.652 67.78 152.082 67.6 151.686 67.24C151.278 66.88 151.074 66.418 151.074 65.854C151.074 65.326 151.212 64.918 151.488 64.63C151.752 64.342 152.064 64.198 152.424 64.198C152.652 64.198 152.862 64.27 153.054 64.414C153.246 64.57 153.384 64.768 153.468 65.008C153.492 65.068 153.528 65.17 153.576 65.314C153.624 65.458 153.654 65.56 153.666 65.62C153.69 65.68 153.726 65.758 153.774 65.854C153.834 65.95 153.894 66.016 153.954 66.052C154.014 66.088 154.092 66.124 154.188 66.16C154.284 66.196 154.398 66.214 154.53 66.214C154.734 66.214 154.926 66.136 155.106 65.98C155.286 65.836 155.4 65.638 155.448 65.386C155.52 65.002 155.49 64.444 155.358 63.712C155.01 61.948 154.416 60.13 153.576 58.258C153.408 57.874 153.252 57.628 153.108 57.52C152.964 57.4 152.748 57.322 152.46 57.286C152.304 57.274 152.19 57.226 152.118 57.142C152.046 57.046 152.01 56.956 152.01 56.872C152.01 56.524 152.37 56.158 153.09 55.774C153.81 55.378 154.422 55.18 154.926 55.18C155.382 55.18 155.73 55.468 155.97 56.044C156.738 57.916 157.416 60.034 158.004 62.398C158.748 61.138 159.12 59.998 159.12 58.978C159.12 58.606 158.994 58.186 158.742 57.718C158.502 57.238 158.382 56.878 158.382 56.638C158.382 56.218 158.562 55.864 158.922 55.576C159.282 55.276 159.648 55.126 160.02 55.126ZM172.37 57.034C172.406 59.182 171.884 60.91 170.804 62.218C169.736 63.526 168.374 64.18 166.718 64.18C165.542 64.18 164.582 63.838 163.838 63.154C163.106 62.47 162.74 61.492 162.74 60.22C162.74 58.768 163.208 57.568 164.144 56.62C165.08 55.672 166.22 55.216 167.564 55.252C168.272 55.288 168.8 55.456 169.148 55.756C168.764 53.884 167.606 52.702 165.674 52.21C165.326 52.126 165.152 51.988 165.152 51.796C165.152 51.4 165.662 51.196 166.682 51.184C167.306 51.16 167.936 51.256 168.572 51.472C169.208 51.676 169.814 52 170.39 52.444C170.966 52.876 171.434 53.494 171.794 54.298C172.166 55.09 172.358 56.002 172.37 57.034ZM166.952 62.758C167.54 62.758 168.014 62.29 168.374 61.354C168.746 60.406 168.932 59.44 168.932 58.456C168.932 57.28 168.62 56.692 167.996 56.692C167.396 56.692 166.91 57.124 166.538 57.988C166.178 58.84 165.998 59.776 165.998 60.796C165.998 62.104 166.316 62.758 166.952 62.758ZM184.281 61.948C184.293 62.44 184.029 62.938 183.489 63.442C182.961 63.934 182.259 64.18 181.383 64.18C180.939 64.18 180.549 64.066 180.213 63.838C179.889 63.598 179.679 63.238 179.583 62.758C178.791 63.706 177.849 64.18 176.757 64.18C175.857 64.18 175.125 63.874 174.561 63.262C173.997 62.65 173.715 61.864 173.715 60.904C173.715 59.32 174.273 57.97 175.389 56.854C176.505 55.738 177.729 55.18 179.061 55.18C179.493 55.18 179.907 55.246 180.303 55.378C180.711 55.498 180.951 55.558 181.023 55.558C181.155 55.558 181.437 55.486 181.869 55.342C182.313 55.198 182.625 55.126 182.805 55.126C183.045 55.126 183.225 55.204 183.345 55.36C183.465 55.516 183.513 55.69 183.489 55.882L182.733 61.066C182.649 61.678 182.763 61.984 183.075 61.984C183.195 61.984 183.339 61.9 183.507 61.732C183.687 61.564 183.825 61.48 183.921 61.48C184.161 61.48 184.281 61.636 184.281 61.948ZM177.891 62.182C178.383 62.182 178.791 61.87 179.115 61.246C179.439 60.622 179.673 59.842 179.817 58.906C180.057 57.31 179.763 56.512 178.935 56.512C178.335 56.512 177.861 56.902 177.513 57.682C177.177 58.45 176.997 59.38 176.973 60.472C176.961 60.964 177.033 61.372 177.189 61.696C177.345 62.02 177.579 62.182 177.891 62.182ZM76.0803 84.462C76.3203 84.462 76.4403 84.612 76.4403 84.912C76.4403 85.428 76.1703 85.938 75.6303 86.442C75.1023 86.934 74.3883 87.18 73.4883 87.18C72.8883 87.18 72.4263 86.97 72.1023 86.55C71.7903 86.13 71.7063 85.488 71.8503 84.624L72.1923 82.716C72.3843 81.756 72.4743 81.102 72.4623 80.754C72.4623 80.394 72.3183 80.214 72.0303 80.214C71.9223 80.214 71.8023 80.244 71.6703 80.304C71.5503 80.364 71.3943 80.502 71.2023 80.718C71.0223 80.922 70.8423 81.198 70.6623 81.546C70.4823 81.882 70.2903 82.368 70.0863 83.004C69.8943 83.64 69.7143 84.372 69.5463 85.2L69.3843 86.082C69.3003 86.418 69.0963 86.622 68.7723 86.694L66.6843 87.18C66.5043 87.216 66.3663 87.174 66.2703 87.054C66.1743 86.934 66.1443 86.772 66.1803 86.568L66.9363 82.716C67.0563 82.08 67.1223 81.582 67.1343 81.222C67.1583 80.85 67.1343 80.592 67.0623 80.448C66.9903 80.292 66.8643 80.214 66.6843 80.214C66.5763 80.214 66.4623 80.244 66.3423 80.304C66.2223 80.364 66.0723 80.502 65.8923 80.718C65.7123 80.922 65.5383 81.198 65.3703 81.546C65.2143 81.882 65.0403 82.368 64.8483 83.004C64.6563 83.628 64.4763 84.36 64.3083 85.2L64.1283 86.082C64.0563 86.418 63.8523 86.622 63.5163 86.694L61.4463 87.18C61.2663 87.216 61.1223 87.174 61.0143 87.054C60.9183 86.934 60.8883 86.772 60.9243 86.568L61.7883 81.348C61.8363 81.084 61.8243 80.874 61.7523 80.718C61.6923 80.55 61.6023 80.448 61.4823 80.412C61.3743 80.364 61.2723 80.292 61.1763 80.196C61.0803 80.1 61.0323 79.98 61.0323 79.836C61.0323 79.656 61.1403 79.476 61.3563 79.296C61.5723 79.116 62.0283 78.882 62.7243 78.594C63.4923 78.306 64.0323 78.162 64.3443 78.162C64.8003 78.162 65.0043 78.39 64.9563 78.846L64.8123 79.98C65.2563 79.356 65.7543 78.9 66.3063 78.612C66.8703 78.312 67.4103 78.162 67.9263 78.162C68.5023 78.162 68.9883 78.318 69.3843 78.63C69.7803 78.93 70.0563 79.344 70.2123 79.872C70.5963 79.32 71.0703 78.9 71.6343 78.612C72.1983 78.312 72.7803 78.162 73.3803 78.162C74.1843 78.162 74.7963 78.522 75.2163 79.242C75.6483 79.95 75.7563 80.832 75.5403 81.888L75.0723 84.066C75.0003 84.426 74.9763 84.672 75.0003 84.804C75.0243 84.936 75.1023 85.002 75.2343 85.002C75.3543 85.002 75.4983 84.912 75.6663 84.732C75.8463 84.552 75.9843 84.462 76.0803 84.462ZM84.2316 80.484C84.9276 80.484 85.5096 80.7 85.9776 81.132C86.4456 81.552 86.6796 82.098 86.6796 82.77C86.6796 83.658 86.4096 84.45 85.8696 85.146C85.3416 85.842 84.6996 86.358 83.9436 86.694C83.1996 87.018 82.4436 87.18 81.6756 87.18C80.4276 87.18 79.5156 86.892 78.9396 86.316C78.3636 85.728 78.1716 84.858 78.3636 83.706L78.7596 81.312C78.8436 80.808 78.7356 80.496 78.4356 80.376C78.1476 80.208 78.0036 80.028 78.0036 79.836C78.0036 79.716 78.0336 79.608 78.0936 79.512C78.1536 79.404 78.3156 79.266 78.5796 79.098C78.8436 78.93 79.2156 78.762 79.6956 78.594C80.5236 78.306 81.2016 78.162 81.7296 78.162C82.1736 78.162 82.3536 78.39 82.2696 78.846L81.8736 81.402C82.5816 80.79 83.3676 80.484 84.2316 80.484ZM91.8636 84.948C91.8756 85.44 91.6056 85.938 91.0536 86.442C90.5136 86.934 89.7936 87.18 88.8936 87.18C88.2816 87.18 87.8016 86.976 87.4536 86.568C87.1056 86.148 86.9976 85.512 87.1296 84.66L87.9036 79.332C87.9516 78.984 88.1556 78.768 88.5156 78.684L90.5676 78.198C90.7356 78.162 90.8676 78.204 90.9636 78.324C91.0716 78.444 91.1136 78.6 91.0896 78.792L90.3336 84.066C90.2496 84.678 90.3636 84.984 90.6756 84.984C90.7956 84.984 90.9396 84.9 91.1076 84.732C91.2756 84.564 91.4076 84.48 91.5036 84.48C91.7436 84.48 91.8636 84.636 91.8636 84.948ZM83.5296 83.274C83.5536 82.614 83.3436 82.284 82.8996 82.284C82.5156 82.284 82.1796 82.578 81.8916 83.166C81.6036 83.754 81.4656 84.312 81.4776 84.84C81.4896 85.116 81.5556 85.35 81.6756 85.542C81.7956 85.722 81.9696 85.806 82.1976 85.794C82.5576 85.794 82.8696 85.524 83.1336 84.984C83.3976 84.444 83.5296 83.874 83.5296 83.274ZM100.757 87.144C99.917 87.144 99.329 86.964 98.993 86.604C98.669 86.244 98.411 85.596 98.219 84.66C98.207 84.588 98.183 84.456 98.147 84.264C98.123 84.072 98.093 83.934 98.057 83.85C98.033 83.766 97.991 83.664 97.931 83.544C97.871 83.412 97.781 83.322 97.661 83.274C97.553 83.226 97.409 83.202 97.229 83.202C97.121 83.202 97.043 83.238 96.995 83.31C96.959 83.37 96.923 83.514 96.887 83.742L96.815 84.354C96.779 84.594 96.767 84.804 96.779 84.984C96.791 85.272 96.905 85.53 97.121 85.758C97.349 85.974 97.445 86.208 97.409 86.46C97.361 86.82 97.049 87 96.473 87H93.233C92.909 87 92.681 86.958 92.549 86.874C92.405 86.79 92.345 86.64 92.369 86.424C92.393 86.232 92.477 86.082 92.621 85.974C92.753 85.854 92.903 85.722 93.071 85.578C93.239 85.422 93.365 85.224 93.449 84.984C93.521 84.672 93.569 84.462 93.593 84.354L94.043 81.006C94.079 80.766 94.091 80.55 94.079 80.358C94.067 80.07 93.947 79.818 93.719 79.602C93.503 79.386 93.413 79.152 93.449 78.9C93.497 78.54 93.809 78.36 94.385 78.36H97.625C97.949 78.36 98.177 78.402 98.309 78.486C98.453 78.57 98.513 78.714 98.489 78.918C98.453 79.146 98.285 79.374 97.985 79.602C97.697 79.818 97.505 80.07 97.409 80.358C97.325 80.73 97.277 80.946 97.265 81.006L97.211 81.492C97.187 81.66 97.193 81.762 97.229 81.798C97.265 81.834 97.361 81.852 97.517 81.852H97.697C97.973 81.852 98.225 81.726 98.453 81.474C98.693 81.222 98.909 80.916 99.101 80.556C99.293 80.196 99.503 79.836 99.731 79.476C99.959 79.116 100.259 78.81 100.631 78.558C101.003 78.306 101.429 78.18 101.909 78.18C102.401 78.18 102.791 78.33 103.079 78.63C103.367 78.93 103.469 79.356 103.385 79.908C103.337 80.328 103.181 80.658 102.917 80.898C102.665 81.138 102.377 81.258 102.053 81.258C101.885 81.258 101.741 81.216 101.621 81.132C101.513 81.036 101.435 80.94 101.387 80.844C101.351 80.736 101.291 80.64 101.207 80.556C101.135 80.46 101.045 80.412 100.937 80.412C100.769 80.412 100.595 80.55 100.415 80.826C100.247 81.102 100.037 81.426 99.785 81.798C99.533 82.17 99.257 82.434 98.957 82.59C99.653 82.65 100.169 82.842 100.505 83.166C100.841 83.478 101.099 83.952 101.279 84.588C101.363 84.876 101.447 85.11 101.531 85.29C101.615 85.47 101.711 85.596 101.819 85.668C101.927 85.74 102.011 85.788 102.071 85.812C102.143 85.824 102.251 85.83 102.395 85.83C102.659 85.854 102.779 86.01 102.755 86.298C102.719 86.538 102.521 86.742 102.161 86.91C101.813 87.066 101.345 87.144 100.757 87.144ZM115.043 84.948C115.055 85.44 114.791 85.938 114.251 86.442C113.723 86.934 113.021 87.18 112.145 87.18C111.701 87.18 111.311 87.066 110.975 86.838C110.651 86.598 110.441 86.238 110.345 85.758C109.553 86.706 108.611 87.18 107.519 87.18C106.619 87.18 105.887 86.874 105.323 86.262C104.759 85.65 104.477 84.864 104.477 83.904C104.477 82.32 105.035 80.97 106.151 79.854C107.267 78.738 108.491 78.18 109.823 78.18C110.255 78.18 110.669 78.246 111.065 78.378C111.473 78.498 111.713 78.558 111.785 78.558C111.917 78.558 112.199 78.486 112.631 78.342C113.075 78.198 113.387 78.126 113.567 78.126C113.807 78.126 113.987 78.204 114.107 78.36C114.227 78.516 114.275 78.69 114.251 78.882L113.495 84.066C113.411 84.678 113.525 84.984 113.837 84.984C113.957 84.984 114.101 84.9 114.269 84.732C114.449 84.564 114.587 84.48 114.683 84.48C114.923 84.48 115.043 84.636 115.043 84.948ZM108.653 85.182C109.145 85.182 109.553 84.87 109.877 84.246C110.201 83.622 110.435 82.842 110.579 81.906C110.819 80.31 110.525 79.512 109.697 79.512C109.097 79.512 108.623 79.902 108.275 80.682C107.939 81.45 107.759 82.38 107.735 83.472C107.723 83.964 107.795 84.372 107.951 84.696C108.107 85.02 108.341 85.182 108.653 85.182ZM124.017 84.354C124.269 84.174 124.485 84.144 124.665 84.264C124.857 84.384 124.869 84.582 124.701 84.858C124.293 85.542 123.711 86.1 122.955 86.532C122.211 86.964 121.353 87.18 120.381 87.18C119.121 87.18 118.149 86.85 117.465 86.19C116.793 85.53 116.457 84.624 116.457 83.472C116.457 82.044 116.973 80.808 118.005 79.764C119.049 78.708 120.303 78.18 121.767 78.18C122.727 78.18 123.495 78.414 124.071 78.882C124.647 79.338 124.935 79.908 124.935 80.592C124.935 81.264 124.653 81.858 124.089 82.374C123.537 82.878 122.871 83.244 122.091 83.472C121.323 83.688 120.549 83.778 119.769 83.742C120.069 84.606 120.747 85.038 121.803 85.038C122.655 85.038 123.393 84.81 124.017 84.354ZM121.425 79.566C120.837 79.566 120.381 79.848 120.057 80.412C119.733 80.976 119.571 81.558 119.571 82.158C119.571 82.338 119.673 82.428 119.877 82.428C120.513 82.452 121.107 82.29 121.659 81.942C122.223 81.582 122.493 81.114 122.469 80.538C122.457 80.274 122.361 80.046 122.181 79.854C122.001 79.662 121.749 79.566 121.425 79.566ZM127.558 87.18C127.114 87.18 126.706 87.054 126.334 86.802C125.974 86.55 125.83 86.148 125.902 85.596C125.962 85.236 126.112 84.936 126.352 84.696C126.604 84.456 126.868 84.336 127.144 84.336C127.372 84.336 127.552 84.39 127.684 84.498C127.828 84.606 127.918 84.726 127.954 84.858C128.002 84.978 128.068 85.092 128.152 85.2C128.236 85.308 128.344 85.362 128.476 85.362C128.752 85.362 129.022 84.882 129.286 83.922C129.55 82.962 129.742 82.104 129.862 81.348C129.946 80.808 129.844 80.478 129.556 80.358C129.28 80.214 129.136 80.034 129.124 79.818C129.124 79.698 129.148 79.59 129.196 79.494C129.256 79.398 129.418 79.266 129.682 79.098C129.958 78.93 130.348 78.756 130.852 78.576C131.68 78.3 132.418 78.162 133.066 78.162C133.414 78.162 133.612 78.396 133.66 78.864C133.792 80.052 134.044 81.36 134.416 82.788L136.18 79.458C136.204 79.398 136.24 79.332 136.288 79.26C136.348 79.176 136.438 79.08 136.558 78.972C136.69 78.864 136.834 78.78 136.99 78.72C137.77 78.384 138.58 78.204 139.42 78.18C139.6 78.168 139.738 78.216 139.834 78.324C139.93 78.432 139.966 78.582 139.942 78.774L139.222 84.03C139.174 84.39 139.174 84.642 139.222 84.786C139.27 84.918 139.366 84.984 139.51 84.984C139.63 84.984 139.774 84.9 139.942 84.732C140.11 84.564 140.242 84.48 140.338 84.48C140.578 84.48 140.698 84.636 140.698 84.948C140.71 85.44 140.44 85.938 139.888 86.442C139.348 86.934 138.628 87.18 137.728 87.18C136.264 87.18 135.664 86.322 135.928 84.606L136.396 81.582L134.272 85.632C134.08 85.944 133.72 86.178 133.192 86.334C132.544 86.514 132.142 86.382 131.986 85.938C131.566 84.558 131.278 83.13 131.122 81.654C130.978 82.422 130.678 83.61 130.222 85.218C129.682 86.526 128.794 87.18 127.558 87.18ZM146.402 82.158C146.33 82.506 146.168 82.734 145.916 82.842C145.676 82.938 145.454 82.89 145.25 82.698C145.058 82.506 144.992 82.212 145.052 81.816C145.148 81.132 145.382 80.484 145.754 79.872C146.138 79.248 146.51 78.666 146.87 78.126C147.242 77.574 147.464 77.046 147.536 76.542C147.608 75.978 147.416 75.696 146.96 75.696C146.744 75.696 146.558 75.774 146.402 75.93C146.258 76.086 146.102 76.32 145.934 76.632C145.778 76.932 145.658 77.142 145.574 77.262C145.562 77.274 145.502 77.352 145.394 77.496C145.298 77.628 145.232 77.712 145.196 77.748C145.172 77.784 145.106 77.856 144.998 77.964C144.902 78.06 144.812 78.132 144.728 78.18C144.656 78.216 144.554 78.252 144.422 78.288C144.302 78.324 144.17 78.342 144.026 78.342C143.498 78.342 143.144 78.204 142.964 77.928C142.784 77.64 142.718 77.316 142.766 76.956C142.874 76.176 143.306 75.528 144.062 75.012C144.818 74.484 145.862 74.22 147.194 74.22C148.454 74.22 149.402 74.46 150.038 74.94C150.674 75.42 150.938 76.05 150.83 76.83C150.77 77.262 150.584 77.688 150.272 78.108C149.972 78.528 149.648 78.87 149.3 79.134C148.964 79.398 148.58 79.692 148.148 80.016C147.716 80.328 147.416 80.574 147.248 80.754C147.164 80.838 147.008 81.06 146.78 81.42C146.564 81.768 146.438 82.014 146.402 82.158ZM145.358 87.252C144.926 87.252 144.572 87.126 144.296 86.874C144.02 86.61 143.882 86.238 143.882 85.758C143.882 85.194 144.074 84.738 144.458 84.39C144.854 84.042 145.304 83.868 145.808 83.868C146.228 83.868 146.576 84.006 146.852 84.282C147.14 84.546 147.284 84.918 147.284 85.398C147.284 85.962 147.092 86.412 146.708 86.748C146.336 87.084 145.886 87.252 145.358 87.252Z" fill="#FFC6F9"/>
</svg>
