<svg width="345" height="154" viewBox="0 0 345 154" fill="none" xmlns="http://www.w3.org/2000/svg">
<path d="M78.3165 114.537C62.3879 139.056 16.6524 111.482 2.63026 99.3612C42.9426 98.2415 72.9313 67.3139 82.8867 51.99C83.4305 59.4698 94.245 90.0193 78.3165 114.537Z" fill="#FFC6F9"/>
<rect x="38.5" y="2.5" width="304" height="149" rx="74.5" fill="#6932FF" stroke="#FFC6F9" stroke-width="5"/>
<path d="M146.88 62H138.976C138.115 62 137.52 61.8987 137.19 61.696C136.861 61.4933 136.734 61.1387 136.81 60.632C136.886 60.1253 137.089 59.7073 137.418 59.378C137.748 59.0233 138.09 58.7447 138.444 58.542C138.824 58.314 139.204 57.8833 139.584 57.25C139.964 56.5913 140.23 55.73 140.382 54.666L141.978 43.076C142.13 41.9867 142.156 41.1507 142.054 40.568C141.953 39.9853 141.788 39.5167 141.56 39.162C141.332 38.8073 141.092 38.554 140.838 38.402C140.61 38.2247 140.42 38.0093 140.268 37.756C140.116 37.5027 140.078 37.1733 140.154 36.768C140.23 36.2613 140.458 35.9067 140.838 35.704C141.218 35.5013 141.839 35.4 142.7 35.4H151.478C155.506 35.4 158.546 36.3247 160.598 38.174C162.65 40.0233 163.436 42.5693 162.954 45.812C162.144 51.436 157.812 54.248 149.958 54.248H148.438C147.906 54.248 147.602 54.5013 147.526 55.008C147.476 55.692 147.463 56.1733 147.488 56.452C147.488 56.984 147.564 57.4273 147.716 57.782C147.868 58.1367 148.046 58.4027 148.248 58.58C148.451 58.732 148.654 58.884 148.856 59.036C149.059 59.188 149.211 59.3907 149.312 59.644C149.439 59.8973 149.477 60.2267 149.426 60.632C149.325 61.1387 149.097 61.4933 148.742 61.696C148.388 61.8987 147.767 62 146.88 62ZM149.958 51.322C151.58 51.322 152.884 50.8533 153.872 49.916C154.886 48.9787 155.494 47.788 155.696 46.344C156.076 43.7853 155.76 41.7967 154.746 40.378C153.758 38.9593 152.517 38.25 151.022 38.25C150.566 38.25 150.25 38.326 150.072 38.478C149.895 38.6047 149.781 38.8707 149.73 39.276L148.248 49.954C148.122 50.866 148.692 51.322 149.958 51.322ZM187.542 57.668C187.568 58.7067 187.01 59.758 185.87 60.822C184.756 61.8607 183.274 62.38 181.424 62.38C180.487 62.38 179.664 62.1393 178.954 61.658C178.27 61.1513 177.827 60.3913 177.624 59.378C175.952 61.3793 173.964 62.38 171.658 62.38C169.758 62.38 168.213 61.734 167.022 60.442C165.832 59.15 165.236 57.4907 165.236 55.464C165.236 52.12 166.414 49.27 168.77 46.914C171.126 44.558 173.71 43.38 176.522 43.38C177.434 43.38 178.308 43.5193 179.144 43.798C180.006 44.0513 180.512 44.178 180.664 44.178C180.943 44.178 181.538 44.026 182.45 43.722C183.388 43.418 184.046 43.266 184.426 43.266C184.933 43.266 185.313 43.4307 185.566 43.76C185.82 44.0893 185.921 44.4567 185.87 44.862L184.274 55.806C184.097 57.098 184.338 57.744 184.996 57.744C185.25 57.744 185.554 57.5667 185.908 57.212C186.288 56.8573 186.58 56.68 186.782 56.68C187.289 56.68 187.542 57.0093 187.542 57.668ZM174.052 58.162C175.091 58.162 175.952 57.5033 176.636 56.186C177.32 54.8687 177.814 53.222 178.118 51.246C178.625 47.8767 178.004 46.192 176.256 46.192C174.99 46.192 173.989 47.0153 173.254 48.662C172.545 50.2833 172.165 52.2467 172.114 54.552C172.089 55.5907 172.241 56.452 172.57 57.136C172.9 57.82 173.394 58.162 174.052 58.162ZM212.854 56.68C213.361 56.68 213.614 57.0093 213.614 57.668C213.614 58.7067 213.032 59.758 211.866 60.822C210.726 61.8607 209.206 62.38 207.306 62.38C206.014 62.38 205.001 61.9493 204.266 61.088C203.557 60.2013 203.342 58.8587 203.62 57.06L204.076 53.906H198.68L197.882 60.024C197.781 60.7587 197.363 61.202 196.628 61.354L192.22 62.38C191.866 62.456 191.574 62.3673 191.346 62.114C191.144 61.8607 191.08 61.5187 191.156 61.088L192.638 50.106C192.714 49.5487 192.676 49.1053 192.524 48.776C192.398 48.4213 192.22 48.206 191.992 48.13C191.764 48.0287 191.549 47.8767 191.346 47.674C191.144 47.4713 191.042 47.218 191.042 46.914C191.042 46.5087 191.245 46.1287 191.65 45.774C192.081 45.394 192.917 44.976 194.158 44.52C196.185 43.7853 197.718 43.418 198.756 43.418C199.643 43.418 200.023 43.874 199.896 44.786L199.06 51.094H204.494L205.254 45.812C205.356 45.052 205.774 44.596 206.508 44.444L210.84 43.418C211.22 43.342 211.512 43.4307 211.714 43.684C211.917 43.9373 211.993 44.2667 211.942 44.672L210.384 55.806C210.156 57.098 210.384 57.744 211.068 57.744C211.322 57.744 211.626 57.5667 211.98 57.212C212.36 56.8573 212.652 56.68 212.854 56.68ZM225.787 62.418C222.975 62.418 220.783 61.696 219.213 60.252C217.642 58.7827 216.857 56.7687 216.857 54.21C216.857 51.1953 218.009 48.6367 220.315 46.534C222.62 44.406 225.356 43.342 228.523 43.342C231.233 43.342 233.374 44.0893 234.945 45.584C236.515 47.0787 237.301 49.0167 237.301 51.398C237.301 54.6407 236.199 57.288 233.995 59.34C231.791 61.392 229.055 62.418 225.787 62.418ZM226.015 59.416C227.18 59.416 228.13 58.466 228.865 56.566C229.599 54.6407 229.967 52.652 229.967 50.6C229.967 47.7373 229.257 46.306 227.839 46.306C226.623 46.306 225.647 47.218 224.913 49.042C224.203 50.8407 223.823 52.8293 223.773 55.008C223.849 57.9467 224.596 59.416 226.015 59.416ZM129.27 105.642C129.776 105.642 130.03 105.959 130.03 106.592C130.03 107.681 129.46 108.758 128.32 109.822C127.205 110.861 125.698 111.38 123.798 111.38C122.531 111.38 121.556 110.937 120.872 110.05C120.213 109.163 120.036 107.808 120.34 105.984L121.062 101.956C121.467 99.9293 121.657 98.5487 121.632 97.814C121.632 97.054 121.328 96.674 120.72 96.674C120.492 96.674 120.238 96.7373 119.96 96.864C119.706 96.9907 119.377 97.282 118.972 97.738C118.592 98.1687 118.212 98.7513 117.832 99.486C117.452 100.195 117.046 101.221 116.616 102.564C116.21 103.907 115.83 105.452 115.476 107.2L115.134 109.062C114.956 109.771 114.526 110.202 113.842 110.354L109.434 111.38C109.054 111.456 108.762 111.367 108.56 111.114C108.357 110.861 108.294 110.519 108.37 110.088L109.966 101.956C110.219 100.613 110.358 99.562 110.384 98.802C110.434 98.0167 110.384 97.472 110.232 97.168C110.08 96.8387 109.814 96.674 109.434 96.674C109.206 96.674 108.965 96.7373 108.712 96.864C108.458 96.9907 108.142 97.282 107.762 97.738C107.382 98.1687 107.014 98.7513 106.66 99.486C106.33 100.195 105.963 101.221 105.558 102.564C105.152 103.881 104.772 105.427 104.418 107.2L104.038 109.062C103.886 109.771 103.455 110.202 102.746 110.354L98.3756 111.38C97.9956 111.456 97.6916 111.367 97.4636 111.114C97.2609 110.861 97.1976 110.519 97.2736 110.088L99.0976 99.068C99.1989 98.5107 99.1736 98.0673 99.0216 97.738C98.8949 97.3833 98.7049 97.168 98.4516 97.092C98.2236 96.9907 98.0083 96.8387 97.8056 96.636C97.6029 96.4333 97.5016 96.18 97.5016 95.876C97.5016 95.496 97.7296 95.116 98.1856 94.736C98.6416 94.356 99.6043 93.862 101.074 93.254C102.695 92.646 103.835 92.342 104.494 92.342C105.456 92.342 105.887 92.8233 105.786 93.786L105.482 96.18C106.419 94.8627 107.47 93.9 108.636 93.292C109.826 92.6587 110.966 92.342 112.056 92.342C113.272 92.342 114.298 92.6713 115.134 93.33C115.97 93.9633 116.552 94.8373 116.882 95.952C117.692 94.7867 118.693 93.9 119.884 93.292C121.074 92.6587 122.303 92.342 123.57 92.342C125.267 92.342 126.559 93.102 127.446 94.622C128.358 96.1167 128.586 97.9787 128.13 100.208L127.142 104.806C126.99 105.566 126.939 106.085 126.99 106.364C127.04 106.643 127.205 106.782 127.484 106.782C127.737 106.782 128.041 106.592 128.396 106.212C128.776 105.832 129.067 105.642 129.27 105.642ZM146.478 97.244C147.947 97.244 149.176 97.7 150.164 98.612C151.152 99.4987 151.646 100.651 151.646 102.07C151.646 103.945 151.076 105.617 149.936 107.086C148.821 108.555 147.466 109.645 145.87 110.354C144.299 111.038 142.703 111.38 141.082 111.38C138.447 111.38 136.522 110.772 135.306 109.556C134.09 108.315 133.685 106.478 134.09 104.046L134.926 98.992C135.103 97.928 134.875 97.2693 134.242 97.016C133.634 96.6613 133.33 96.2813 133.33 95.876C133.33 95.6227 133.393 95.3947 133.52 95.192C133.647 94.964 133.989 94.6727 134.546 94.318C135.103 93.9633 135.889 93.6087 136.902 93.254C138.65 92.646 140.081 92.342 141.196 92.342C142.133 92.342 142.513 92.8233 142.336 93.786L141.5 99.182C142.995 97.89 144.654 97.244 146.478 97.244ZM162.59 106.668C162.615 107.707 162.045 108.758 160.88 109.822C159.74 110.861 158.22 111.38 156.32 111.38C155.028 111.38 154.015 110.949 153.28 110.088C152.545 109.201 152.317 107.859 152.596 106.06L154.23 94.812C154.331 94.0773 154.762 93.6213 155.522 93.444L159.854 92.418C160.209 92.342 160.487 92.4307 160.69 92.684C160.918 92.9373 161.007 93.2667 160.956 93.672L159.36 104.806C159.183 106.098 159.423 106.744 160.082 106.744C160.335 106.744 160.639 106.567 160.994 106.212C161.349 105.857 161.627 105.68 161.83 105.68C162.337 105.68 162.59 106.009 162.59 106.668ZM144.996 103.134C145.047 101.741 144.603 101.044 143.666 101.044C142.855 101.044 142.146 101.665 141.538 102.906C140.93 104.147 140.639 105.325 140.664 106.44C140.689 107.023 140.829 107.517 141.082 107.922C141.335 108.302 141.703 108.479 142.184 108.454C142.944 108.454 143.603 107.884 144.16 106.744C144.717 105.604 144.996 104.401 144.996 103.134ZM181.365 111.304C179.592 111.304 178.35 110.924 177.641 110.164C176.957 109.404 176.412 108.036 176.007 106.06C175.982 105.908 175.931 105.629 175.855 105.224C175.804 104.819 175.741 104.527 175.665 104.35C175.614 104.173 175.526 103.957 175.399 103.704C175.272 103.425 175.082 103.235 174.829 103.134C174.601 103.033 174.297 102.982 173.917 102.982C173.689 102.982 173.524 103.058 173.423 103.21C173.347 103.337 173.271 103.641 173.195 104.122L173.043 105.414C172.967 105.921 172.942 106.364 172.967 106.744C172.992 107.352 173.233 107.897 173.689 108.378C174.17 108.834 174.373 109.328 174.297 109.86C174.196 110.62 173.537 111 172.321 111H165.481C164.797 111 164.316 110.911 164.037 110.734C163.733 110.557 163.606 110.24 163.657 109.784C163.708 109.379 163.885 109.062 164.189 108.834C164.468 108.581 164.784 108.302 165.139 107.998C165.494 107.669 165.76 107.251 165.937 106.744C166.089 106.085 166.19 105.642 166.241 105.414L167.191 98.346C167.267 97.8393 167.292 97.3833 167.267 96.978C167.242 96.37 166.988 95.838 166.507 95.382C166.051 94.926 165.861 94.432 165.937 93.9C166.038 93.14 166.697 92.76 167.913 92.76H174.753C175.437 92.76 175.918 92.8487 176.197 93.026C176.501 93.2033 176.628 93.5073 176.577 93.938C176.501 94.4193 176.146 94.9007 175.513 95.382C174.905 95.838 174.5 96.37 174.297 96.978C174.12 97.7633 174.018 98.2193 173.993 98.346L173.879 99.372C173.828 99.7267 173.841 99.942 173.917 100.018C173.993 100.094 174.196 100.132 174.525 100.132H174.905C175.488 100.132 176.02 99.866 176.501 99.334C177.008 98.802 177.464 98.156 177.869 97.396C178.274 96.636 178.718 95.876 179.199 95.116C179.68 94.356 180.314 93.71 181.099 93.178C181.884 92.646 182.784 92.38 183.797 92.38C184.836 92.38 185.659 92.6967 186.267 93.33C186.875 93.9633 187.09 94.8627 186.913 96.028C186.812 96.9147 186.482 97.6113 185.925 98.118C185.393 98.6247 184.785 98.878 184.101 98.878C183.746 98.878 183.442 98.7893 183.189 98.612C182.961 98.4093 182.796 98.2067 182.695 98.004C182.619 97.776 182.492 97.5733 182.315 97.396C182.163 97.1933 181.973 97.092 181.745 97.092C181.39 97.092 181.023 97.3833 180.643 97.966C180.288 98.5487 179.845 99.2327 179.313 100.018C178.781 100.803 178.198 101.361 177.565 101.69C179.034 101.817 180.124 102.222 180.833 102.906C181.542 103.565 182.087 104.565 182.467 105.908C182.644 106.516 182.822 107.01 182.999 107.39C183.176 107.77 183.379 108.036 183.607 108.188C183.835 108.34 184.012 108.441 184.139 108.492C184.291 108.517 184.519 108.53 184.823 108.53C185.38 108.581 185.634 108.91 185.583 109.518C185.507 110.025 185.089 110.455 184.329 110.81C183.594 111.139 182.606 111.304 181.365 111.304ZM211.524 106.668C211.549 107.707 210.992 108.758 209.852 109.822C208.737 110.861 207.255 111.38 205.406 111.38C204.469 111.38 203.645 111.139 202.936 110.658C202.252 110.151 201.809 109.391 201.606 108.378C199.934 110.379 197.945 111.38 195.64 111.38C193.74 111.38 192.195 110.734 191.004 109.442C189.813 108.15 189.218 106.491 189.218 104.464C189.218 101.12 190.396 98.27 192.752 95.914C195.108 93.558 197.692 92.38 200.504 92.38C201.416 92.38 202.29 92.5193 203.126 92.798C203.987 93.0513 204.494 93.178 204.646 93.178C204.925 93.178 205.52 93.026 206.432 92.722C207.369 92.418 208.028 92.266 208.408 92.266C208.915 92.266 209.295 92.4307 209.548 92.76C209.801 93.0893 209.903 93.4567 209.852 93.862L208.256 104.806C208.079 106.098 208.319 106.744 208.978 106.744C209.231 106.744 209.535 106.567 209.89 106.212C210.27 105.857 210.561 105.68 210.764 105.68C211.271 105.68 211.524 106.009 211.524 106.668ZM198.034 107.162C199.073 107.162 199.934 106.503 200.618 105.186C201.302 103.869 201.796 102.222 202.1 100.246C202.607 96.8767 201.986 95.192 200.238 95.192C198.971 95.192 197.971 96.0153 197.236 97.662C196.527 99.2833 196.147 101.247 196.096 103.552C196.071 104.591 196.223 105.452 196.552 106.136C196.881 106.82 197.375 107.162 198.034 107.162ZM230.47 105.414C231.002 105.034 231.458 104.971 231.838 105.224C232.243 105.477 232.269 105.895 231.914 106.478C231.053 107.922 229.824 109.1 228.228 110.012C226.657 110.924 224.846 111.38 222.794 111.38C220.134 111.38 218.082 110.683 216.638 109.29C215.219 107.897 214.51 105.984 214.51 103.552C214.51 100.537 215.599 97.928 217.778 95.724C219.982 93.4947 222.629 92.38 225.72 92.38C227.747 92.38 229.368 92.874 230.584 93.862C231.8 94.8247 232.408 96.028 232.408 97.472C232.408 98.8907 231.813 100.145 230.622 101.234C229.457 102.298 228.051 103.071 226.404 103.552C224.783 104.008 223.149 104.198 221.502 104.122C222.135 105.946 223.567 106.858 225.796 106.858C227.595 106.858 229.153 106.377 230.47 105.414ZM224.998 95.306C223.757 95.306 222.794 95.9013 222.11 97.092C221.426 98.2827 221.084 99.5113 221.084 100.778C221.084 101.158 221.299 101.348 221.73 101.348C223.073 101.399 224.327 101.057 225.492 100.322C226.683 99.562 227.253 98.574 227.202 97.358C227.177 96.8007 226.974 96.3193 226.594 95.914C226.214 95.5087 225.682 95.306 224.998 95.306ZM237.944 111.38C237.007 111.38 236.145 111.114 235.36 110.582C234.6 110.05 234.296 109.201 234.448 108.036C234.575 107.276 234.891 106.643 235.398 106.136C235.93 105.629 236.487 105.376 237.07 105.376C237.551 105.376 237.931 105.49 238.21 105.718C238.514 105.946 238.704 106.199 238.78 106.478C238.881 106.731 239.021 106.972 239.198 107.2C239.375 107.428 239.603 107.542 239.882 107.542C240.465 107.542 241.035 106.529 241.592 104.502C242.149 102.475 242.555 100.664 242.808 99.068C242.985 97.928 242.77 97.2313 242.162 96.978C241.579 96.674 241.275 96.294 241.25 95.838C241.25 95.5847 241.301 95.3567 241.402 95.154C241.529 94.9513 241.871 94.6727 242.428 94.318C243.011 93.9633 243.834 93.596 244.898 93.216C246.646 92.6333 248.204 92.342 249.572 92.342C250.307 92.342 250.725 92.836 250.826 93.824C251.105 96.332 251.637 99.0933 252.422 102.108L256.146 95.078C256.197 94.9513 256.273 94.812 256.374 94.66C256.501 94.4827 256.691 94.28 256.944 94.052C257.223 93.824 257.527 93.6467 257.856 93.52C259.503 92.8107 261.213 92.4307 262.986 92.38C263.366 92.3547 263.657 92.456 263.86 92.684C264.063 92.912 264.139 93.2287 264.088 93.634L262.568 104.73C262.467 105.49 262.467 106.022 262.568 106.326C262.669 106.605 262.872 106.744 263.176 106.744C263.429 106.744 263.733 106.567 264.088 106.212C264.443 105.857 264.721 105.68 264.924 105.68C265.431 105.68 265.684 106.009 265.684 106.668C265.709 107.707 265.139 108.758 263.974 109.822C262.834 110.861 261.314 111.38 259.414 111.38C256.323 111.38 255.057 109.569 255.614 105.946L256.602 99.562L252.118 108.112C251.713 108.771 250.953 109.265 249.838 109.594C248.47 109.974 247.621 109.695 247.292 108.758C246.405 105.845 245.797 102.83 245.468 99.714C245.164 101.335 244.531 103.843 243.568 107.238C242.428 109.999 240.553 111.38 237.944 111.38ZM273.052 101.956C272.672 101.956 272.431 101.867 272.33 101.69C272.228 101.487 272.203 101.095 272.254 100.512C272.355 98.9413 272.19 96.712 271.76 93.824C271.354 90.9107 271.215 88.998 271.342 88.086C271.519 86.8447 272 85.8567 272.786 85.122C273.596 84.3873 274.521 84.02 275.56 84.02C276.624 84.02 277.46 84.4 278.068 85.16C278.676 85.8947 278.891 86.87 278.714 88.086C278.587 89.0233 277.903 90.9487 276.662 93.862C275.42 96.75 274.622 98.9667 274.268 100.512C274.166 101.095 274.04 101.487 273.888 101.69C273.736 101.867 273.457 101.956 273.052 101.956ZM271.988 111.532C271.076 111.532 270.316 111.266 269.708 110.734C269.125 110.177 268.834 109.391 268.834 108.378C268.834 107.187 269.239 106.225 270.05 105.49C270.886 104.755 271.836 104.388 272.9 104.388C273.786 104.388 274.521 104.679 275.104 105.262C275.712 105.819 276.016 106.605 276.016 107.618C276.016 108.809 275.61 109.759 274.8 110.468C274.014 111.177 273.077 111.532 271.988 111.532Z" fill="#FFC6F9"/>
</svg>
