<svg width="469" height="216" viewBox="0 0 469 216" fill="none" xmlns="http://www.w3.org/2000/svg">
<path d="M125.716 121.856C109.941 146.296 64.2564 118.992 50.235 106.972C90.4011 105.743 120.161 74.8867 130.02 59.612C130.592 67.0524 141.49 97.4168 125.716 121.856Z" fill="#FFC6F9"/>
<rect x="86.6324" y="10.5972" width="304.331" height="149.46" rx="74.7298" fill="#6932FF" stroke="#FFC6F9" stroke-width="5"/>
<path d="M194.075 69.5962H186.171C185.31 69.5962 184.714 69.4949 184.385 69.2922C184.056 69.0895 183.929 68.7349 184.005 68.2282C184.081 67.7215 184.284 67.3035 184.613 66.9742C184.942 66.6195 185.284 66.3409 185.639 66.1382C186.019 65.9102 186.399 65.4795 186.779 64.8462C187.159 64.1875 187.425 63.3262 187.577 62.2622L189.173 50.6722C189.325 49.5829 189.35 48.7469 189.249 48.1642C189.148 47.5815 188.983 47.1129 188.755 46.7582C188.527 46.4035 188.286 46.1502 188.033 45.9982C187.805 45.8209 187.615 45.6055 187.463 45.3522C187.311 45.0989 187.273 44.7695 187.349 44.3642C187.425 43.8575 187.653 43.5029 188.033 43.3002C188.413 43.0975 189.034 42.9962 189.895 42.9962H198.673C202.701 42.9962 205.741 43.9209 207.793 45.7702C209.845 47.6195 210.63 50.1655 210.149 53.4082C209.338 59.0322 205.006 61.8442 197.153 61.8442H195.633C195.101 61.8442 194.797 62.0975 194.721 62.6042C194.67 63.2882 194.658 63.7695 194.683 64.0482C194.683 64.5802 194.759 65.0235 194.911 65.3782C195.063 65.7329 195.24 65.9989 195.443 66.1762C195.646 66.3282 195.848 66.4802 196.051 66.6322C196.254 66.7842 196.406 66.9869 196.507 67.2402C196.634 67.4935 196.672 67.8229 196.621 68.2282C196.52 68.7349 196.292 69.0895 195.937 69.2922C195.582 69.4949 194.962 69.5962 194.075 69.5962ZM197.153 58.9182C198.774 58.9182 200.079 58.4495 201.067 57.5122C202.08 56.5749 202.688 55.3842 202.891 53.9402C203.271 51.3815 202.954 49.3929 201.941 47.9742C200.953 46.5555 199.712 45.8462 198.217 45.8462C197.761 45.8462 197.444 45.9222 197.267 46.0742C197.09 46.2009 196.976 46.4669 196.925 46.8722L195.443 57.5502C195.316 58.4622 195.886 58.9182 197.153 58.9182ZM234.737 65.2642C234.762 66.3029 234.205 67.3542 233.065 68.4182C231.95 69.4569 230.468 69.9762 228.619 69.9762C227.682 69.9762 226.858 69.7355 226.149 69.2542C225.465 68.7475 225.022 67.9875 224.819 66.9742C223.147 68.9755 221.158 69.9762 218.853 69.9762C216.953 69.9762 215.408 69.3302 214.217 68.0382C213.026 66.7462 212.431 65.0869 212.431 63.0602C212.431 59.7162 213.609 56.8662 215.965 54.5102C218.321 52.1542 220.905 50.9762 223.717 50.9762C224.629 50.9762 225.503 51.1155 226.339 51.3942C227.2 51.6475 227.707 51.7742 227.859 51.7742C228.138 51.7742 228.733 51.6222 229.645 51.3182C230.582 51.0142 231.241 50.8622 231.621 50.8622C232.128 50.8622 232.508 51.0269 232.761 51.3562C233.014 51.6855 233.116 52.0529 233.065 52.4582L231.469 63.4022C231.292 64.6942 231.532 65.3402 232.191 65.3402C232.444 65.3402 232.748 65.1629 233.103 64.8082C233.483 64.4535 233.774 64.2762 233.977 64.2762C234.484 64.2762 234.737 64.6055 234.737 65.2642ZM221.247 65.7582C222.286 65.7582 223.147 65.0995 223.831 63.7822C224.515 62.4649 225.009 60.8182 225.313 58.8422C225.82 55.4729 225.199 53.7882 223.451 53.7882C222.184 53.7882 221.184 54.6115 220.449 56.2582C219.74 57.8795 219.36 59.8429 219.309 62.1482C219.284 63.1869 219.436 64.0482 219.765 64.7322C220.094 65.4162 220.588 65.7582 221.247 65.7582ZM260.049 64.2762C260.556 64.2762 260.809 64.6055 260.809 65.2642C260.809 66.3029 260.227 67.3542 259.061 68.4182C257.921 69.4569 256.401 69.9762 254.501 69.9762C253.209 69.9762 252.196 69.5455 251.461 68.6842C250.752 67.7975 250.537 66.4549 250.815 64.6562L251.271 61.5022H245.875L245.077 67.6202C244.976 68.3549 244.558 68.7982 243.823 68.9502L239.415 69.9762C239.061 70.0522 238.769 69.9635 238.541 69.7102C238.339 69.4569 238.275 69.1149 238.351 68.6842L239.833 57.7022C239.909 57.1449 239.871 56.7015 239.719 56.3722C239.593 56.0175 239.415 55.8022 239.187 55.7262C238.959 55.6249 238.744 55.4729 238.541 55.2702C238.339 55.0675 238.237 54.8142 238.237 54.5102C238.237 54.1049 238.44 53.7249 238.845 53.3702C239.276 52.9902 240.112 52.5722 241.353 52.1162C243.38 51.3815 244.913 51.0142 245.951 51.0142C246.838 51.0142 247.218 51.4702 247.091 52.3822L246.255 58.6902H251.689L252.449 53.4082C252.551 52.6482 252.969 52.1922 253.703 52.0402L258.035 51.0142C258.415 50.9382 258.707 51.0269 258.909 51.2802C259.112 51.5335 259.188 51.8629 259.137 52.2682L257.579 63.4022C257.351 64.6942 257.579 65.3402 258.263 65.3402C258.517 65.3402 258.821 65.1629 259.175 64.8082C259.555 64.4535 259.847 64.2762 260.049 64.2762ZM272.981 70.0142C270.169 70.0142 267.978 69.2922 266.407 67.8482C264.837 66.3789 264.051 64.3649 264.051 61.8062C264.051 58.7915 265.204 56.2329 267.509 54.1302C269.815 52.0022 272.551 50.9382 275.717 50.9382C278.428 50.9382 280.569 51.6855 282.139 53.1802C283.71 54.6749 284.495 56.6129 284.495 58.9942C284.495 62.2369 283.393 64.8842 281.189 66.9362C278.985 68.9882 276.249 70.0142 272.981 70.0142ZM273.209 67.0122C274.375 67.0122 275.325 66.0622 276.059 64.1622C276.794 62.2369 277.161 60.2482 277.161 58.1962C277.161 55.3335 276.452 53.9022 275.033 53.9022C273.817 53.9022 272.842 54.8142 272.107 56.6382C271.398 58.4369 271.018 60.4255 270.967 62.6042C271.043 65.5429 271.791 67.0122 273.209 67.0122ZM176.464 113.238C176.971 113.238 177.224 113.555 177.224 114.188C177.224 115.278 176.654 116.354 175.514 117.418C174.4 118.457 172.892 118.976 170.992 118.976C169.726 118.976 168.75 118.533 168.066 117.646C167.408 116.76 167.23 115.404 167.534 113.58L168.256 109.552C168.662 107.526 168.852 106.145 168.826 105.41C168.826 104.65 168.522 104.27 167.914 104.27C167.686 104.27 167.433 104.334 167.154 104.46C166.901 104.587 166.572 104.878 166.166 105.334C165.786 105.765 165.406 106.348 165.026 107.082C164.646 107.792 164.241 108.818 163.81 110.16C163.405 111.503 163.025 113.048 162.67 114.796L162.328 116.658C162.151 117.368 161.72 117.798 161.036 117.95L156.628 118.976C156.248 119.052 155.957 118.964 155.754 118.71C155.552 118.457 155.488 118.115 155.564 117.684L157.16 109.552C157.414 108.21 157.553 107.158 157.578 106.398C157.629 105.613 157.578 105.068 157.426 104.764C157.274 104.435 157.008 104.27 156.628 104.27C156.4 104.27 156.16 104.334 155.906 104.46C155.653 104.587 155.336 104.878 154.956 105.334C154.576 105.765 154.209 106.348 153.854 107.082C153.525 107.792 153.158 108.818 152.752 110.16C152.347 111.478 151.967 113.023 151.612 114.796L151.232 116.658C151.08 117.368 150.65 117.798 149.94 117.95L145.57 118.976C145.19 119.052 144.886 118.964 144.658 118.71C144.456 118.457 144.392 118.115 144.468 117.684L146.292 106.664C146.394 106.107 146.368 105.664 146.216 105.334C146.09 104.98 145.9 104.764 145.646 104.688C145.418 104.587 145.203 104.435 145 104.232C144.798 104.03 144.696 103.776 144.696 103.472C144.696 103.092 144.924 102.712 145.38 102.332C145.836 101.952 146.799 101.458 148.268 100.85C149.89 100.242 151.03 99.9382 151.688 99.9382C152.651 99.9382 153.082 100.42 152.98 101.382L152.676 103.776C153.614 102.459 154.665 101.496 155.83 100.888C157.021 100.255 158.161 99.9382 159.25 99.9382C160.466 99.9382 161.492 100.268 162.328 100.926C163.164 101.56 163.747 102.434 164.076 103.548C164.887 102.383 165.888 101.496 167.078 100.888C168.269 100.255 169.498 99.9382 170.764 99.9382C172.462 99.9382 173.754 100.698 174.64 102.218C175.552 103.713 175.78 105.575 175.324 107.804L174.336 112.402C174.184 113.162 174.134 113.682 174.184 113.96C174.235 114.239 174.4 114.378 174.678 114.378C174.932 114.378 175.236 114.188 175.59 113.808C175.97 113.428 176.262 113.238 176.464 113.238ZM193.673 104.84C195.142 104.84 196.371 105.296 197.359 106.208C198.347 107.095 198.841 108.248 198.841 109.666C198.841 111.541 198.271 113.213 197.131 114.682C196.016 116.152 194.661 117.241 193.065 117.95C191.494 118.634 189.898 118.976 188.277 118.976C185.642 118.976 183.717 118.368 182.501 117.152C181.285 115.911 180.879 114.074 181.285 111.642L182.121 106.588C182.298 105.524 182.07 104.866 181.437 104.612C180.829 104.258 180.525 103.878 180.525 103.472C180.525 103.219 180.588 102.991 180.715 102.788C180.841 102.56 181.183 102.269 181.741 101.914C182.298 101.56 183.083 101.205 184.097 100.85C185.845 100.242 187.276 99.9382 188.391 99.9382C189.328 99.9382 189.708 100.42 189.531 101.382L188.695 106.778C190.189 105.486 191.849 104.84 193.673 104.84ZM209.785 114.264C209.81 115.303 209.24 116.354 208.075 117.418C206.935 118.457 205.415 118.976 203.515 118.976C202.223 118.976 201.209 118.546 200.475 117.684C199.74 116.798 199.512 115.455 199.791 113.656L201.425 102.408C201.526 101.674 201.957 101.218 202.717 101.04L207.049 100.014C207.403 99.9382 207.682 100.027 207.885 100.28C208.113 100.534 208.201 100.863 208.151 101.268L206.555 112.402C206.377 113.694 206.618 114.34 207.277 114.34C207.53 114.34 207.834 114.163 208.189 113.808C208.543 113.454 208.822 113.276 209.025 113.276C209.531 113.276 209.785 113.606 209.785 114.264ZM192.191 110.73C192.241 109.337 191.798 108.64 190.861 108.64C190.05 108.64 189.341 109.261 188.733 110.502C188.125 111.744 187.833 112.922 187.859 114.036C187.884 114.619 188.023 115.113 188.277 115.518C188.53 115.898 188.897 116.076 189.379 116.05C190.139 116.05 190.797 115.48 191.355 114.34C191.912 113.2 192.191 111.997 192.191 110.73ZM228.56 118.9C226.786 118.9 225.545 118.52 224.836 117.76C224.152 117 223.607 115.632 223.202 113.656C223.176 113.504 223.126 113.226 223.05 112.82C222.999 112.415 222.936 112.124 222.86 111.946C222.809 111.769 222.72 111.554 222.594 111.3C222.467 111.022 222.277 110.832 222.024 110.73C221.796 110.629 221.492 110.578 221.112 110.578C220.884 110.578 220.719 110.654 220.618 110.806C220.542 110.933 220.466 111.237 220.39 111.718L220.238 113.01C220.162 113.517 220.136 113.96 220.162 114.34C220.187 114.948 220.428 115.493 220.884 115.974C221.365 116.43 221.568 116.924 221.492 117.456C221.39 118.216 220.732 118.596 219.516 118.596H212.676C211.992 118.596 211.51 118.508 211.232 118.33C210.928 118.153 210.801 117.836 210.852 117.38C210.902 116.975 211.08 116.658 211.384 116.43C211.662 116.177 211.979 115.898 212.334 115.594C212.688 115.265 212.954 114.847 213.132 114.34C213.284 113.682 213.385 113.238 213.436 113.01L214.386 105.942C214.462 105.436 214.487 104.98 214.462 104.574C214.436 103.966 214.183 103.434 213.702 102.978C213.246 102.522 213.056 102.028 213.132 101.496C213.233 100.736 213.892 100.356 215.108 100.356H221.948C222.632 100.356 223.113 100.445 223.392 100.622C223.696 100.8 223.822 101.104 223.772 101.534C223.696 102.016 223.341 102.497 222.708 102.978C222.1 103.434 221.694 103.966 221.492 104.574C221.314 105.36 221.213 105.816 221.188 105.942L221.074 106.968C221.023 107.323 221.036 107.538 221.112 107.614C221.188 107.69 221.39 107.728 221.72 107.728H222.1C222.682 107.728 223.214 107.462 223.696 106.93C224.202 106.398 224.658 105.752 225.064 104.992C225.469 104.232 225.912 103.472 226.394 102.712C226.875 101.952 227.508 101.306 228.294 100.774C229.079 100.242 229.978 99.9762 230.992 99.9762C232.03 99.9762 232.854 100.293 233.462 100.926C234.07 101.56 234.285 102.459 234.108 103.624C234.006 104.511 233.677 105.208 233.12 105.714C232.588 106.221 231.98 106.474 231.296 106.474C230.941 106.474 230.637 106.386 230.384 106.208C230.156 106.006 229.991 105.803 229.89 105.6C229.814 105.372 229.687 105.17 229.51 104.992C229.358 104.79 229.168 104.688 228.94 104.688C228.585 104.688 228.218 104.98 227.838 105.562C227.483 106.145 227.04 106.829 226.508 107.614C225.976 108.4 225.393 108.957 224.76 109.286C226.229 109.413 227.318 109.818 228.028 110.502C228.737 111.161 229.282 112.162 229.662 113.504C229.839 114.112 230.016 114.606 230.194 114.986C230.371 115.366 230.574 115.632 230.802 115.784C231.03 115.936 231.207 116.038 231.334 116.088C231.486 116.114 231.714 116.126 232.018 116.126C232.575 116.177 232.828 116.506 232.778 117.114C232.702 117.621 232.284 118.052 231.524 118.406C230.789 118.736 229.801 118.9 228.56 118.9ZM258.719 114.264C258.744 115.303 258.187 116.354 257.047 117.418C255.932 118.457 254.45 118.976 252.601 118.976C251.663 118.976 250.84 118.736 250.131 118.254C249.447 117.748 249.003 116.988 248.801 115.974C247.129 117.976 245.14 118.976 242.835 118.976C240.935 118.976 239.389 118.33 238.199 117.038C237.008 115.746 236.413 114.087 236.413 112.06C236.413 108.716 237.591 105.866 239.947 103.51C242.303 101.154 244.887 99.9762 247.699 99.9762C248.611 99.9762 249.485 100.116 250.321 100.394C251.182 100.648 251.689 100.774 251.841 100.774C252.119 100.774 252.715 100.622 253.627 100.318C254.564 100.014 255.223 99.8622 255.603 99.8622C256.109 99.8622 256.489 100.027 256.743 100.356C256.996 100.686 257.097 101.053 257.047 101.458L255.451 112.402C255.273 113.694 255.514 114.34 256.173 114.34C256.426 114.34 256.73 114.163 257.085 113.808C257.465 113.454 257.756 113.276 257.959 113.276C258.465 113.276 258.719 113.606 258.719 114.264ZM245.229 114.758C246.267 114.758 247.129 114.1 247.813 112.782C248.497 111.465 248.991 109.818 249.295 107.842C249.801 104.473 249.181 102.788 247.433 102.788C246.166 102.788 245.165 103.612 244.431 105.258C243.721 106.88 243.341 108.843 243.291 111.148C243.265 112.187 243.417 113.048 243.747 113.732C244.076 114.416 244.57 114.758 245.229 114.758ZM277.665 113.01C278.197 112.63 278.653 112.567 279.033 112.82C279.438 113.074 279.463 113.492 279.109 114.074C278.247 115.518 277.019 116.696 275.423 117.608C273.852 118.52 272.041 118.976 269.989 118.976C267.329 118.976 265.277 118.28 263.833 116.886C262.414 115.493 261.705 113.58 261.705 111.148C261.705 108.134 262.794 105.524 264.973 103.32C267.177 101.091 269.824 99.9762 272.915 99.9762C274.941 99.9762 276.563 100.47 277.779 101.458C278.995 102.421 279.603 103.624 279.603 105.068C279.603 106.487 279.007 107.741 277.817 108.83C276.651 109.894 275.245 110.667 273.599 111.148C271.977 111.604 270.343 111.794 268.697 111.718C269.33 113.542 270.761 114.454 272.991 114.454C274.789 114.454 276.347 113.973 277.665 113.01ZM272.193 102.902C270.951 102.902 269.989 103.498 269.305 104.688C268.621 105.879 268.279 107.108 268.279 108.374C268.279 108.754 268.494 108.944 268.925 108.944C270.267 108.995 271.521 108.653 272.687 107.918C273.877 107.158 274.447 106.17 274.397 104.954C274.371 104.397 274.169 103.916 273.789 103.51C273.409 103.105 272.877 102.902 272.193 102.902ZM285.139 118.976C284.201 118.976 283.34 118.71 282.555 118.178C281.795 117.646 281.491 116.798 281.643 115.632C281.769 114.872 282.086 114.239 282.593 113.732C283.125 113.226 283.682 112.972 284.265 112.972C284.746 112.972 285.126 113.086 285.405 113.314C285.709 113.542 285.899 113.796 285.975 114.074C286.076 114.328 286.215 114.568 286.393 114.796C286.57 115.024 286.798 115.138 287.077 115.138C287.659 115.138 288.229 114.125 288.787 112.098C289.344 110.072 289.749 108.26 290.003 106.664C290.18 105.524 289.965 104.828 289.357 104.574C288.774 104.27 288.47 103.89 288.445 103.434C288.445 103.181 288.495 102.953 288.597 102.75C288.723 102.548 289.065 102.269 289.623 101.914C290.205 101.56 291.029 101.192 292.093 100.812C293.841 100.23 295.399 99.9382 296.767 99.9382C297.501 99.9382 297.919 100.432 298.021 101.42C298.299 103.928 298.831 106.69 299.617 109.704L303.341 102.674C303.391 102.548 303.467 102.408 303.569 102.256C303.695 102.079 303.885 101.876 304.139 101.648C304.417 101.42 304.721 101.243 305.051 101.116C306.697 100.407 308.407 100.027 310.181 99.9762C310.561 99.9509 310.852 100.052 311.055 100.28C311.257 100.508 311.333 100.825 311.283 101.23L309.763 112.326C309.661 113.086 309.661 113.618 309.763 113.922C309.864 114.201 310.067 114.34 310.371 114.34C310.624 114.34 310.928 114.163 311.283 113.808C311.637 113.454 311.916 113.276 312.119 113.276C312.625 113.276 312.879 113.606 312.879 114.264C312.904 115.303 312.334 116.354 311.169 117.418C310.029 118.457 308.509 118.976 306.609 118.976C303.518 118.976 302.251 117.165 302.809 113.542L303.797 107.158L299.313 115.708C298.907 116.367 298.147 116.861 297.033 117.19C295.665 117.57 294.816 117.292 294.487 116.354C293.6 113.441 292.992 110.426 292.663 107.31C292.359 108.932 291.725 111.44 290.763 114.834C289.623 117.596 287.748 118.976 285.139 118.976ZM320.247 109.552C319.867 109.552 319.626 109.464 319.525 109.286C319.423 109.084 319.398 108.691 319.449 108.108C319.55 106.538 319.385 104.308 318.955 101.42C318.549 98.5069 318.41 96.5942 318.537 95.6822C318.714 94.4409 319.195 93.4529 319.981 92.7182C320.791 91.9835 321.716 91.6162 322.755 91.6162C323.819 91.6162 324.655 91.9962 325.263 92.7562C325.871 93.4909 326.086 94.4662 325.909 95.6822C325.782 96.6195 325.098 98.5449 323.857 101.458C322.615 104.346 321.817 106.563 321.463 108.108C321.361 108.691 321.235 109.084 321.083 109.286C320.931 109.464 320.652 109.552 320.247 109.552ZM319.183 119.128C318.271 119.128 317.511 118.862 316.903 118.33C316.32 117.773 316.029 116.988 316.029 115.974C316.029 114.784 316.434 113.821 317.245 113.086C318.081 112.352 319.031 111.984 320.095 111.984C320.981 111.984 321.716 112.276 322.299 112.858C322.907 113.416 323.211 114.201 323.211 115.214C323.211 116.405 322.805 117.355 321.995 118.064C321.209 118.774 320.272 119.128 319.183 119.128Z" fill="#FFC6F9"/>
</svg>
