<svg width="469" height="215" viewBox="0 0 469 215" fill="none" xmlns="http://www.w3.org/2000/svg">
<path d="M384.044 135.643C391.446 163.695 443.208 151.929 460.22 144.866C422.513 131.283 403.834 92.8222 399.207 75.29C396.365 82.1684 376.642 107.592 384.044 135.643Z" fill="#FFC6F9"/>
<rect x="35.4957" y="7.7179" width="398.614" height="140.118" rx="70.0589" fill="#6932FF" stroke="#FFC6F9" stroke-width="5"/>
<path d="M75.3616 59.8508H68.8256C68.2936 59.8508 67.9263 59.7621 67.7236 59.5848C67.5463 59.4074 67.5589 59.0908 67.7616 58.6348L68.1416 57.7988C68.3443 57.3174 68.5596 56.9881 68.7876 56.8108C69.0409 56.6334 69.4209 56.5448 69.9276 56.5448H76.4636C76.9956 56.5448 77.3503 56.6334 77.5276 56.8108C77.7303 56.9881 77.7303 57.3048 77.5276 57.7608L77.1476 58.5968C76.9449 59.0781 76.7169 59.4074 76.4636 59.5848C76.2356 59.7621 75.8683 59.8508 75.3616 59.8508ZM86.2421 69.2368H82.1001C81.3401 69.2368 80.8334 69.1608 80.5801 69.0088C80.3521 68.8314 80.2634 68.5148 80.3141 68.0588C80.3647 67.7041 80.5927 67.3748 80.9981 67.0708C81.4287 66.7414 81.8721 66.3614 82.3281 65.9308C82.7841 65.4748 83.0754 64.9428 83.2021 64.3348L86.2421 48.2228C86.3687 47.6148 86.3307 47.1081 86.1281 46.7028C85.9507 46.2974 85.7101 46.0188 85.4061 45.8668C85.1274 45.6894 84.8741 45.4488 84.6461 45.1448C84.4181 44.8154 84.3294 44.4354 84.3801 44.0048C84.4814 43.4981 84.7094 43.1434 85.0641 42.9408C85.4441 42.7381 86.0141 42.6368 86.7741 42.6368H92.5501C93.4114 42.6368 93.9814 43.0421 94.2601 43.8528L98.3261 57.4948L106.762 43.8908C107.294 43.0548 107.965 42.6368 108.776 42.6368H114.286C115.071 42.6368 115.616 42.7381 115.92 42.9408C116.224 43.1434 116.338 43.4981 116.262 44.0048C116.186 44.4354 115.996 44.8154 115.692 45.1448C115.388 45.4488 115.071 45.6894 114.742 45.8668C114.413 46.0188 114.096 46.2974 113.792 46.7028C113.488 47.1081 113.298 47.6148 113.222 48.2228L111.74 62.7768C111.664 63.4861 111.702 64.0688 111.854 64.5248C112.006 64.9554 112.209 65.2721 112.462 65.4748C112.715 65.6774 112.969 65.8674 113.222 66.0448C113.475 66.1968 113.678 66.4248 113.83 66.7288C113.982 67.0074 114.033 67.3874 113.982 67.8688C113.906 68.3754 113.678 68.7301 113.298 68.9328C112.943 69.1354 112.31 69.2368 111.398 69.2368H103.874C103.013 69.2368 102.417 69.1354 102.088 68.9328C101.784 68.7301 101.67 68.3754 101.746 67.8688C101.822 67.3621 101.999 66.9314 102.278 66.5768C102.557 66.2221 102.848 65.9561 103.152 65.7788C103.481 65.6014 103.798 65.2594 104.102 64.7528C104.406 64.2461 104.609 63.5874 104.71 62.7768L106.154 51.2248L96.8821 66.4248C96.4514 67.1848 95.8181 67.6408 94.9821 67.7928C94.1207 67.9701 93.5761 67.6788 93.3481 66.9188L88.9401 51.4908L86.7741 64.3348C86.6474 65.1201 86.8627 65.8421 87.4201 66.5008C88.0027 67.1341 88.2561 67.6661 88.1801 68.0968C88.1294 68.5528 87.9521 68.8568 87.6481 69.0088C87.3694 69.1608 86.9007 69.2368 86.2421 69.2368ZM127.621 69.6548C124.809 69.6548 122.617 68.9328 121.047 67.4888C119.476 66.0194 118.691 64.0054 118.691 61.4468C118.691 58.4321 119.843 55.8734 122.149 53.7708C124.454 51.6428 127.19 50.5788 130.357 50.5788C133.067 50.5788 135.208 51.3261 136.779 52.8208C138.349 54.3154 139.135 56.2534 139.135 58.6348C139.135 61.8774 138.033 64.5248 135.829 66.5768C133.625 68.6288 130.889 69.6548 127.621 69.6548ZM127.849 66.6528C129.014 66.6528 129.964 65.7028 130.699 63.8028C131.433 61.8774 131.801 59.8888 131.801 57.8368C131.801 54.9741 131.091 53.5428 129.673 53.5428C128.457 53.5428 127.481 54.4548 126.747 56.2788C126.037 58.0774 125.657 60.0661 125.607 62.2448C125.683 65.1834 126.43 66.6528 127.849 66.6528ZM144.318 69.5408C143.051 69.5408 142.101 69.3761 141.468 69.0468C140.835 68.6921 140.556 68.2614 140.632 67.7548C140.632 67.5014 140.733 67.2861 140.936 67.1088C141.139 66.9061 141.379 66.7921 141.658 66.7668C142.063 66.7414 142.367 66.7034 142.57 66.6528C142.773 66.5768 143.064 66.3488 143.444 65.9688C143.849 65.5634 144.28 64.9554 144.736 64.1448C145.521 62.8021 146.357 61.7888 147.244 61.1048C148.156 60.4208 149.359 60.0154 150.854 59.8888C150.17 59.4328 149.6 58.4828 149.144 57.0388C148.789 55.8988 148.384 55.3288 147.928 55.3288C147.624 55.3288 147.219 55.6328 146.712 56.2408C146.205 56.8234 145.661 57.1148 145.078 57.1148C144.394 57.1148 143.862 56.8614 143.482 56.3548C143.102 55.8481 142.963 55.1514 143.064 54.2648C143.216 53.0994 143.685 52.2001 144.47 51.5668C145.255 50.9334 146.18 50.6168 147.244 50.6168C147.573 50.6168 147.877 50.6548 148.156 50.7308C148.46 50.7814 148.713 50.8448 148.916 50.9208C149.144 50.9968 149.359 51.1361 149.562 51.3388C149.79 51.5161 149.967 51.6681 150.094 51.7948C150.221 51.8961 150.36 52.0861 150.512 52.3648C150.664 52.6434 150.778 52.8588 150.854 53.0108C150.93 53.1374 151.019 53.3781 151.12 53.7328C151.247 54.0621 151.323 54.2901 151.348 54.4168C151.399 54.5181 151.475 54.7588 151.576 55.1388C151.677 55.5188 151.741 55.7468 151.766 55.8228C151.969 56.6841 152.184 57.3301 152.412 57.7608C152.665 58.1661 153.045 58.3688 153.552 58.3688H153.932C154.287 58.3688 154.515 58.3308 154.616 58.2548C154.717 58.1534 154.781 57.9381 154.806 57.6088L154.958 56.5828C155.034 56.0761 155.059 55.6201 155.034 55.2148C155.009 54.6068 154.755 54.0748 154.274 53.6188C153.818 53.1628 153.628 52.6688 153.704 52.1368C153.755 51.6808 153.932 51.3768 154.236 51.2248C154.565 51.0728 155.047 50.9968 155.68 50.9968H162.52C163.179 50.9968 163.66 51.0854 163.964 51.2628C164.268 51.4401 164.395 51.7441 164.344 52.1748C164.268 52.6561 163.913 53.1374 163.28 53.6188C162.672 54.0748 162.267 54.6068 162.064 55.2148C161.887 56.0001 161.785 56.4561 161.76 56.5828L161.608 57.6088C161.583 57.9381 161.595 58.1534 161.646 58.2548C161.722 58.3308 161.925 58.3688 162.254 58.3688H162.634C163.141 58.3688 163.584 58.1534 163.964 57.7228C164.344 57.2921 164.775 56.6461 165.256 55.7848C166.244 53.9608 167.029 52.7574 167.612 52.1748C168.6 51.1361 169.791 50.6168 171.184 50.6168C172.223 50.6168 173.046 50.9334 173.654 51.5668C174.262 52.2001 174.49 53.0994 174.338 54.2648C174.237 55.1261 173.907 55.8228 173.35 56.3548C172.793 56.8614 172.172 57.1148 171.488 57.1148C171.133 57.1148 170.829 57.0261 170.576 56.8488C170.348 56.6461 170.183 56.4434 170.082 56.2408C170.006 56.0128 169.879 55.8101 169.702 55.6328C169.55 55.4301 169.36 55.3288 169.132 55.3288C169.056 55.3288 168.98 55.3414 168.904 55.3668C168.853 55.3668 168.79 55.3921 168.714 55.4428C168.663 55.4934 168.6 55.5441 168.524 55.5948C168.473 55.6201 168.41 55.6834 168.334 55.7848C168.283 55.8608 168.233 55.9241 168.182 55.9748C168.131 56.0254 168.068 56.1141 167.992 56.2408C167.916 56.3421 167.853 56.4308 167.802 56.5068C167.777 56.5574 167.713 56.6588 167.612 56.8108C167.536 56.9628 167.473 57.0641 167.422 57.1148C166.459 58.5841 165.636 59.5088 164.952 59.8888C166.421 60.0154 167.498 60.4208 168.182 61.1048C168.891 61.7888 169.449 62.8021 169.854 64.1448C170.082 64.9554 170.335 65.5634 170.614 65.9688C170.893 66.3488 171.121 66.5768 171.298 66.6528C171.501 66.7034 171.805 66.7414 172.21 66.7668C172.793 66.8174 173.059 67.1468 173.008 67.7548C172.932 68.2614 172.514 68.6921 171.754 69.0468C171.019 69.3761 170.019 69.5408 168.752 69.5408C166.979 69.5408 165.75 69.1608 165.066 68.4008C164.382 67.6408 163.825 66.2728 163.394 64.2968C163.343 64.0941 163.28 63.7521 163.204 63.2708C163.128 62.7894 163.052 62.4348 162.976 62.2068C162.925 61.9788 162.786 61.7634 162.558 61.5608C162.355 61.3328 162.064 61.2188 161.684 61.2188C161.481 61.2188 161.329 61.2948 161.228 61.4468C161.127 61.5734 161.038 61.8648 160.962 62.3208L160.81 63.6508C160.734 64.1574 160.709 64.6008 160.734 64.9808C160.759 65.5888 161 66.1334 161.456 66.6148C161.937 67.0708 162.14 67.5648 162.064 68.0968C161.963 68.8568 161.304 69.2368 160.088 69.2368H153.21C152.551 69.2368 152.07 69.1481 151.766 68.9708C151.487 68.7934 151.373 68.4768 151.424 68.0208C151.475 67.6154 151.639 67.2988 151.918 67.0708C152.222 66.8174 152.551 66.5388 152.906 66.2348C153.261 65.9054 153.527 65.4874 153.704 64.9808C153.881 64.3221 153.983 63.8788 154.008 63.6508L154.16 62.3208C154.236 61.8648 154.236 61.5734 154.16 61.4468C154.084 61.2948 153.932 61.2188 153.704 61.2188C153.4 61.2188 153.134 61.2821 152.906 61.4088C152.678 61.5101 152.475 61.6874 152.298 61.9408C152.146 62.1688 152.019 62.3968 151.918 62.6248C151.817 62.8274 151.69 63.1061 151.538 63.4608C151.386 63.8154 151.259 64.0941 151.158 64.2968C150.17 66.2728 149.22 67.6408 148.308 68.4008C147.421 69.1608 146.091 69.5408 144.318 69.5408ZM192.095 63.6508C192.627 63.2708 193.083 63.2074 193.463 63.4608C193.868 63.7141 193.893 64.1321 193.539 64.7148C192.677 66.1588 191.449 67.3368 189.853 68.2488C188.282 69.1608 186.471 69.6168 184.419 69.6168C181.759 69.6168 179.707 68.9201 178.263 67.5268C176.844 66.1334 176.135 64.2208 176.135 61.7888C176.135 58.7741 177.224 56.1648 179.403 53.9608C181.607 51.7314 184.254 50.6168 187.345 50.6168C189.371 50.6168 190.993 51.1108 192.209 52.0988C193.425 53.0614 194.033 54.2648 194.033 55.7088C194.033 57.1274 193.437 58.3814 192.247 59.4708C191.081 60.5348 189.675 61.3074 188.029 61.7888C186.407 62.2448 184.773 62.4348 183.127 62.3588C183.76 64.1828 185.191 65.0948 187.421 65.0948C189.219 65.0948 190.777 64.6134 192.095 63.6508ZM186.623 53.5428C185.381 53.5428 184.419 54.1381 183.735 55.3288C183.051 56.5194 182.709 57.7481 182.709 59.0148C182.709 59.3948 182.924 59.5848 183.355 59.5848C184.697 59.6354 185.951 59.2934 187.117 58.5588C188.307 57.7988 188.877 56.8108 188.827 55.5948C188.801 55.0374 188.599 54.5561 188.219 54.1508C187.839 53.7454 187.307 53.5428 186.623 53.5428ZM229.513 63.8788C230.019 63.8788 230.273 64.1954 230.273 64.8288C230.273 65.9181 229.703 66.9948 228.563 68.0588C227.448 69.0974 225.941 69.6168 224.041 69.6168C222.774 69.6168 221.799 69.1734 221.115 68.2868C220.456 67.4001 220.279 66.0448 220.583 64.2208L221.305 60.1928C221.71 58.1661 221.9 56.7854 221.875 56.0508C221.875 55.2908 221.571 54.9108 220.963 54.9108C220.735 54.9108 220.481 54.9741 220.203 55.1008C219.949 55.2274 219.62 55.5188 219.215 55.9748C218.835 56.4054 218.455 56.9881 218.075 57.7228C217.695 58.4321 217.289 59.4581 216.859 60.8008C216.453 62.1434 216.073 63.6888 215.719 65.4368L215.377 67.2988C215.199 68.0081 214.769 68.4388 214.085 68.5908L209.677 69.6168C209.297 69.6928 209.005 69.6041 208.803 69.3508C208.6 69.0974 208.537 68.7554 208.613 68.3248L210.209 60.1928C210.462 58.8501 210.601 57.7988 210.627 57.0388C210.677 56.2534 210.627 55.7088 210.475 55.4048C210.323 55.0754 210.057 54.9108 209.677 54.9108C209.449 54.9108 209.208 54.9741 208.955 55.1008C208.701 55.2274 208.385 55.5188 208.005 55.9748C207.625 56.4054 207.257 56.9881 206.903 57.7228C206.573 58.4321 206.206 59.4581 205.801 60.8008C205.395 62.1181 205.015 63.6634 204.661 65.4368L204.281 67.2988C204.129 68.0081 203.698 68.4388 202.989 68.5908L198.619 69.6168C198.239 69.6928 197.935 69.6041 197.707 69.3508C197.504 69.0974 197.441 68.7554 197.517 68.3248L199.341 57.3048C199.442 56.7474 199.417 56.3041 199.265 55.9748C199.138 55.6201 198.948 55.4048 198.695 55.3288C198.467 55.2274 198.251 55.0754 198.049 54.8728C197.846 54.6701 197.745 54.4168 197.745 54.1128C197.745 53.7328 197.973 53.3528 198.429 52.9728C198.885 52.5928 199.847 52.0988 201.317 51.4908C202.938 50.8828 204.078 50.5788 204.737 50.5788C205.699 50.5788 206.13 51.0601 206.029 52.0228L205.725 54.4168C206.662 53.0994 207.713 52.1368 208.879 51.5288C210.069 50.8954 211.209 50.5788 212.299 50.5788C213.515 50.5788 214.541 50.9081 215.377 51.5668C216.213 52.2001 216.795 53.0741 217.125 54.1888C217.935 53.0234 218.936 52.1368 220.127 51.5288C221.317 50.8954 222.546 50.5788 223.813 50.5788C225.51 50.5788 226.802 51.3388 227.689 52.8588C228.601 54.3534 228.829 56.2154 228.373 58.4448L227.385 63.0428C227.233 63.8028 227.182 64.3221 227.233 64.6008C227.283 64.8794 227.448 65.0188 227.727 65.0188C227.98 65.0188 228.284 64.8288 228.639 64.4488C229.019 64.0688 229.31 63.8788 229.513 63.8788ZM263.753 63.9168C264.259 63.9168 264.513 64.2461 264.513 64.9048C264.513 65.9434 263.93 66.9948 262.765 68.0588C261.625 69.0974 260.105 69.6168 258.205 69.6168C256.913 69.6168 255.899 69.1861 255.165 68.3248C254.455 67.4381 254.24 66.0954 254.519 64.2968L254.975 61.1428H249.579L248.781 67.2608C248.679 67.9954 248.261 68.4388 247.527 68.5908L243.119 69.6168C242.764 69.6928 242.473 69.6041 242.245 69.3508C242.042 69.0974 241.979 68.7554 242.055 68.3248L243.537 57.3428C243.613 56.7854 243.575 56.3421 243.423 56.0128C243.296 55.6581 243.119 55.4428 242.891 55.3668C242.663 55.2654 242.447 55.1134 242.245 54.9108C242.042 54.7081 241.941 54.4548 241.941 54.1508C241.941 53.7454 242.143 53.3654 242.549 53.0108C242.979 52.6308 243.815 52.2128 245.057 51.7568C247.083 51.0221 248.616 50.6548 249.655 50.6548C250.541 50.6548 250.921 51.1108 250.795 52.0228L249.959 58.3308H255.393L256.153 53.0488C256.254 52.2888 256.672 51.8328 257.407 51.6808L261.739 50.6548C262.119 50.5788 262.41 50.6674 262.613 50.9208C262.815 51.1741 262.891 51.5034 262.841 51.9088L261.283 63.0428C261.055 64.3348 261.283 64.9808 261.967 64.9808C262.22 64.9808 262.524 64.8034 262.879 64.4488C263.259 64.0941 263.55 63.9168 263.753 63.9168ZM283.715 63.6508C284.247 63.2708 284.703 63.2074 285.083 63.4608C285.488 63.7141 285.513 64.1321 285.159 64.7148C284.297 66.1588 283.069 67.3368 281.473 68.2488C279.902 69.1608 278.091 69.6168 276.039 69.6168C273.379 69.6168 271.327 68.9201 269.883 67.5268C268.464 66.1334 267.755 64.2208 267.755 61.7888C267.755 58.7741 268.844 56.1648 271.023 53.9608C273.227 51.7314 275.874 50.6168 278.965 50.6168C280.991 50.6168 282.613 51.1108 283.829 52.0988C285.045 53.0614 285.653 54.2648 285.653 55.7088C285.653 57.1274 285.057 58.3814 283.867 59.4708C282.701 60.5348 281.295 61.3074 279.649 61.7888C278.027 62.2448 276.393 62.4348 274.747 62.3588C275.38 64.1828 276.811 65.0948 279.041 65.0948C280.839 65.0948 282.397 64.6134 283.715 63.6508ZM278.243 53.5428C277.001 53.5428 276.039 54.1381 275.355 55.3288C274.671 56.5194 274.329 57.7481 274.329 59.0148C274.329 59.3948 274.544 59.5848 274.975 59.5848C276.317 59.6354 277.571 59.2934 278.737 58.5588C279.927 57.7988 280.497 56.8108 280.447 55.5948C280.421 55.0374 280.219 54.5561 279.839 54.1508C279.459 53.7454 278.927 53.5428 278.243 53.5428ZM329.5 63.8788C330.007 63.8788 330.26 64.1954 330.26 64.8288C330.26 65.9181 329.69 66.9948 328.55 68.0588C327.436 69.0974 325.928 69.6168 324.028 69.6168C322.762 69.6168 321.786 69.1734 321.102 68.2868C320.444 67.4001 320.266 66.0448 320.57 64.2208L321.292 60.1928C321.698 58.1661 321.888 56.7854 321.862 56.0508C321.862 55.2908 321.558 54.9108 320.95 54.9108C320.722 54.9108 320.469 54.9741 320.19 55.1008C319.937 55.2274 319.608 55.5188 319.202 55.9748C318.822 56.4054 318.442 56.9881 318.062 57.7228C317.682 58.4321 317.277 59.4581 316.846 60.8008C316.441 62.1434 316.061 63.6888 315.706 65.4368L315.364 67.2988C315.187 68.0081 314.756 68.4388 314.072 68.5908L309.664 69.6168C309.284 69.6928 308.993 69.6041 308.79 69.3508C308.588 69.0974 308.524 68.7554 308.6 68.3248L310.196 60.1928C310.45 58.8501 310.589 57.7988 310.614 57.0388C310.665 56.2534 310.614 55.7088 310.462 55.4048C310.31 55.0754 310.044 54.9108 309.664 54.9108C309.436 54.9108 309.196 54.9741 308.942 55.1008C308.689 55.2274 308.372 55.5188 307.992 55.9748C307.612 56.4054 307.245 56.9881 306.89 57.7228C306.561 58.4321 306.194 59.4581 305.788 60.8008C305.383 62.1181 305.003 63.6634 304.648 65.4368L304.268 67.2988C304.116 68.0081 303.686 68.4388 302.976 68.5908L298.606 69.6168C298.226 69.6928 297.922 69.6041 297.694 69.3508C297.492 69.0974 297.428 68.7554 297.504 68.3248L299.328 57.3048C299.43 56.7474 299.404 56.3041 299.252 55.9748C299.126 55.6201 298.936 55.4048 298.682 55.3288C298.454 55.2274 298.239 55.0754 298.036 54.8728C297.834 54.6701 297.732 54.4168 297.732 54.1128C297.732 53.7328 297.96 53.3528 298.416 52.9728C298.872 52.5928 299.835 52.0988 301.304 51.4908C302.926 50.8828 304.066 50.5788 304.724 50.5788C305.687 50.5788 306.118 51.0601 306.016 52.0228L305.712 54.4168C306.65 53.0994 307.701 52.1368 308.866 51.5288C310.057 50.8954 311.197 50.5788 312.286 50.5788C313.502 50.5788 314.528 50.9081 315.364 51.5668C316.2 52.2001 316.783 53.0741 317.112 54.1888C317.923 53.0234 318.924 52.1368 320.114 51.5288C321.305 50.8954 322.534 50.5788 323.8 50.5788C325.498 50.5788 326.79 51.3388 327.676 52.8588C328.588 54.3534 328.816 56.2154 328.36 58.4448L327.372 63.0428C327.22 63.8028 327.17 64.3221 327.22 64.6008C327.271 64.8794 327.436 65.0188 327.714 65.0188C327.968 65.0188 328.272 64.8288 328.626 64.4488C329.006 64.0688 329.298 63.8788 329.5 63.8788ZM349.293 50.5028C350.281 50.5028 351.015 50.8448 351.497 51.5288C351.978 52.1874 352.219 52.9728 352.219 53.8848C352.219 56.0381 351.547 58.7108 350.205 61.9028C348.887 65.0948 347.659 67.5774 346.519 69.3508C343.225 74.5948 339.489 77.2168 335.309 77.2168C333.738 77.2168 332.535 76.8368 331.699 76.0768C330.837 75.3168 330.407 74.3414 330.407 73.1508C330.407 72.0361 330.698 71.1748 331.281 70.5668C331.838 69.9588 332.497 69.6548 333.257 69.6548C333.738 69.6548 334.181 69.8068 334.587 70.1108C334.992 70.4401 335.283 70.8581 335.461 71.3648C335.511 71.4914 335.587 71.7068 335.689 72.0108C335.79 72.3148 335.853 72.5301 335.879 72.6568C335.929 72.7834 336.005 72.9481 336.107 73.1508C336.233 73.3534 336.36 73.4928 336.487 73.5688C336.613 73.6448 336.778 73.7208 336.981 73.7968C337.183 73.8728 337.424 73.9108 337.703 73.9108C338.133 73.9108 338.539 73.7461 338.919 73.4168C339.299 73.1128 339.539 72.6948 339.641 72.1628C339.793 71.3521 339.729 70.1741 339.451 68.6288C338.716 64.9048 337.462 61.0668 335.689 57.1148C335.334 56.3041 335.005 55.7848 334.701 55.5568C334.397 55.3034 333.941 55.1388 333.333 55.0628C333.003 55.0374 332.763 54.9361 332.611 54.7588C332.459 54.5561 332.383 54.3661 332.383 54.1888C332.383 53.4541 333.143 52.6814 334.663 51.8708C336.183 51.0348 337.475 50.6168 338.539 50.6168C339.501 50.6168 340.236 51.2248 340.743 52.4408C342.364 56.3928 343.795 60.8641 345.037 65.8548C346.607 63.1948 347.393 60.7881 347.393 58.6348C347.393 57.8494 347.127 56.9628 346.595 55.9748C346.088 54.9614 345.835 54.2014 345.835 53.6948C345.835 52.8081 346.215 52.0608 346.975 51.4528C347.735 50.8194 348.507 50.5028 349.293 50.5028ZM375.365 54.5308C375.441 59.0654 374.339 62.7134 372.059 65.4748C369.804 68.2361 366.929 69.6168 363.433 69.6168C360.95 69.6168 358.923 68.8948 357.353 67.4508C355.807 66.0068 355.035 63.9421 355.035 61.2568C355.035 58.1914 356.023 55.6581 357.999 53.6568C359.975 51.6554 362.381 50.6928 365.219 50.7688C366.713 50.8448 367.828 51.1994 368.563 51.8328C367.752 47.8808 365.307 45.3854 361.229 44.3468C360.494 44.1694 360.127 43.8781 360.127 43.4728C360.127 42.6368 361.203 42.2061 363.357 42.1808C364.674 42.1301 366.004 42.3328 367.347 42.7888C368.689 43.2194 369.969 43.9034 371.185 44.8408C372.401 45.7528 373.389 47.0574 374.149 48.7548C374.934 50.4268 375.339 52.3521 375.365 54.5308ZM363.927 66.6148C365.168 66.6148 366.169 65.6268 366.929 63.6508C367.714 61.6494 368.107 59.6101 368.107 57.5328C368.107 55.0501 367.448 53.8088 366.131 53.8088C364.864 53.8088 363.838 54.7208 363.053 56.5448C362.293 58.3434 361.913 60.3194 361.913 62.4728C361.913 65.2341 362.584 66.6148 363.927 66.6148ZM400.51 64.9048C400.536 65.9434 399.978 66.9948 398.838 68.0588C397.724 69.0974 396.242 69.6168 394.392 69.6168C393.455 69.6168 392.632 69.3761 391.922 68.8948C391.238 68.3881 390.795 67.6281 390.592 66.6148C388.92 68.6161 386.932 69.6168 384.626 69.6168C382.726 69.6168 381.181 68.9708 379.99 67.6788C378.8 66.3868 378.204 64.7274 378.204 62.7008C378.204 59.3568 379.382 56.5068 381.738 54.1508C384.094 51.7948 386.678 50.6168 389.49 50.6168C390.402 50.6168 391.276 50.7561 392.112 51.0348C392.974 51.2881 393.48 51.4148 393.632 51.4148C393.911 51.4148 394.506 51.2628 395.418 50.9588C396.356 50.6548 397.014 50.5028 397.394 50.5028C397.901 50.5028 398.281 50.6674 398.534 50.9968C398.788 51.3261 398.889 51.6934 398.838 52.0988L397.242 63.0428C397.065 64.3348 397.306 64.9808 397.964 64.9808C398.218 64.9808 398.522 64.8034 398.876 64.4488C399.256 64.0941 399.548 63.9168 399.75 63.9168C400.257 63.9168 400.51 64.2461 400.51 64.9048ZM387.02 65.3988C388.059 65.3988 388.92 64.7401 389.604 63.4228C390.288 62.1054 390.782 60.4588 391.086 58.4828C391.593 55.1134 390.972 53.4288 389.224 53.4288C387.958 53.4288 386.957 54.2521 386.222 55.8988C385.513 57.5201 385.133 59.4834 385.082 61.7888C385.057 62.8274 385.209 63.6888 385.538 64.3728C385.868 65.0568 386.362 65.3988 387.02 65.3988ZM172.087 112.879C172.593 112.879 172.847 113.195 172.847 113.829C172.847 114.918 172.277 115.995 171.137 117.059C170.022 118.097 168.515 118.617 166.615 118.617C165.348 118.617 164.373 118.173 163.689 117.287C163.03 116.4 162.853 115.045 163.157 113.221L163.879 109.193C164.284 107.166 164.474 105.785 164.449 105.051C164.449 104.291 164.145 103.911 163.537 103.911C163.309 103.911 163.055 103.974 162.777 104.101C162.523 104.227 162.194 104.519 161.789 104.975C161.409 105.405 161.029 105.988 160.649 106.723C160.269 107.432 159.863 108.458 159.433 109.801C159.027 111.143 158.647 112.689 158.293 114.437L157.951 116.299C157.773 117.008 157.343 117.439 156.659 117.591L152.251 118.617C151.871 118.693 151.579 118.604 151.377 118.351C151.174 118.097 151.111 117.755 151.187 117.325L152.783 109.193C153.036 107.85 153.175 106.799 153.201 106.039C153.251 105.253 153.201 104.709 153.049 104.405C152.897 104.075 152.631 103.911 152.251 103.911C152.023 103.911 151.782 103.974 151.529 104.101C151.275 104.227 150.959 104.519 150.579 104.975C150.199 105.405 149.831 105.988 149.477 106.723C149.147 107.432 148.78 108.458 148.375 109.801C147.969 111.118 147.589 112.663 147.235 114.437L146.855 116.299C146.703 117.008 146.272 117.439 145.563 117.591L141.193 118.617C140.813 118.693 140.509 118.604 140.281 118.351C140.078 118.097 140.015 117.755 140.091 117.325L141.915 106.305C142.016 105.747 141.991 105.304 141.839 104.975C141.712 104.62 141.522 104.405 141.269 104.329C141.041 104.227 140.825 104.075 140.623 103.873C140.42 103.67 140.319 103.417 140.319 103.113C140.319 102.733 140.547 102.353 141.003 101.973C141.459 101.593 142.421 101.099 143.891 100.491C145.512 99.8828 146.652 99.5788 147.311 99.5788C148.273 99.5788 148.704 100.06 148.603 101.023L148.299 103.417C149.236 102.099 150.287 101.137 151.453 100.529C152.643 99.8954 153.783 99.5788 154.873 99.5788C156.089 99.5788 157.115 99.9081 157.951 100.567C158.787 101.2 159.369 102.074 159.699 103.189C160.509 102.023 161.51 101.137 162.701 100.529C163.891 99.8954 165.12 99.5788 166.387 99.5788C168.084 99.5788 169.376 100.339 170.263 101.859C171.175 103.353 171.403 105.215 170.947 107.445L169.959 112.043C169.807 112.803 169.756 113.322 169.807 113.601C169.857 113.879 170.022 114.019 170.301 114.019C170.554 114.019 170.858 113.829 171.213 113.449C171.593 113.069 171.884 112.879 172.087 112.879ZM189.295 104.481C190.764 104.481 191.993 104.937 192.981 105.849C193.969 106.735 194.463 107.888 194.463 109.307C194.463 111.181 193.893 112.853 192.753 114.323C191.638 115.792 190.283 116.881 188.687 117.591C187.116 118.275 185.52 118.617 183.899 118.617C181.264 118.617 179.339 118.009 178.123 116.793C176.907 115.551 176.502 113.715 176.907 111.283L177.743 106.229C177.92 105.165 177.692 104.506 177.059 104.253C176.451 103.898 176.147 103.518 176.147 103.113C176.147 102.859 176.21 102.631 176.337 102.429C176.464 102.201 176.806 101.909 177.363 101.555C177.92 101.2 178.706 100.845 179.719 100.491C181.467 99.8828 182.898 99.5788 184.013 99.5788C184.95 99.5788 185.33 100.06 185.153 101.023L184.317 106.419C185.812 105.127 187.471 104.481 189.295 104.481ZM205.407 113.905C205.432 114.943 204.862 115.995 203.697 117.059C202.557 118.097 201.037 118.617 199.137 118.617C197.845 118.617 196.832 118.186 196.097 117.325C195.362 116.438 195.134 115.095 195.413 113.297L197.047 102.049C197.148 101.314 197.579 100.858 198.339 100.681L202.671 99.6548C203.026 99.5788 203.304 99.6674 203.507 99.9208C203.735 100.174 203.824 100.503 203.773 100.909L202.177 112.043C202 113.335 202.24 113.981 202.899 113.981C203.152 113.981 203.456 113.803 203.811 113.449C204.166 113.094 204.444 112.917 204.647 112.917C205.154 112.917 205.407 113.246 205.407 113.905ZM187.813 110.371C187.864 108.977 187.42 108.281 186.483 108.281C185.672 108.281 184.963 108.901 184.355 110.143C183.747 111.384 183.456 112.562 183.481 113.677C183.506 114.259 183.646 114.753 183.899 115.159C184.152 115.539 184.52 115.716 185.001 115.691C185.761 115.691 186.42 115.121 186.977 113.981C187.534 112.841 187.813 111.637 187.813 110.371ZM224.182 118.541C222.409 118.541 221.167 118.161 220.458 117.401C219.774 116.641 219.229 115.273 218.824 113.297C218.799 113.145 218.748 112.866 218.672 112.461C218.621 112.055 218.558 111.764 218.482 111.587C218.431 111.409 218.343 111.194 218.216 110.941C218.089 110.662 217.899 110.472 217.646 110.371C217.418 110.269 217.114 110.219 216.734 110.219C216.506 110.219 216.341 110.295 216.24 110.447C216.164 110.573 216.088 110.877 216.012 111.359L215.86 112.651C215.784 113.157 215.759 113.601 215.784 113.981C215.809 114.589 216.05 115.133 216.506 115.615C216.987 116.071 217.19 116.565 217.114 117.097C217.013 117.857 216.354 118.237 215.138 118.237H208.298C207.614 118.237 207.133 118.148 206.854 117.971C206.55 117.793 206.423 117.477 206.474 117.021C206.525 116.615 206.702 116.299 207.006 116.071C207.285 115.817 207.601 115.539 207.956 115.235C208.311 114.905 208.577 114.487 208.754 113.981C208.906 113.322 209.007 112.879 209.058 112.651L210.008 105.583C210.084 105.076 210.109 104.62 210.084 104.215C210.059 103.607 209.805 103.075 209.324 102.619C208.868 102.163 208.678 101.669 208.754 101.137C208.855 100.377 209.514 99.9968 210.73 99.9968H217.57C218.254 99.9968 218.735 100.085 219.014 100.263C219.318 100.44 219.445 100.744 219.394 101.175C219.318 101.656 218.963 102.137 218.33 102.619C217.722 103.075 217.317 103.607 217.114 104.215C216.937 105 216.835 105.456 216.81 105.583L216.696 106.609C216.645 106.963 216.658 107.179 216.734 107.255C216.81 107.331 217.013 107.369 217.342 107.369H217.722C218.305 107.369 218.837 107.103 219.318 106.571C219.825 106.039 220.281 105.393 220.686 104.633C221.091 103.873 221.535 103.113 222.016 102.353C222.497 101.593 223.131 100.947 223.916 100.415C224.701 99.8828 225.601 99.6168 226.614 99.6168C227.653 99.6168 228.476 99.9334 229.084 100.567C229.692 101.2 229.907 102.099 229.73 103.265C229.629 104.151 229.299 104.848 228.742 105.355C228.21 105.861 227.602 106.115 226.918 106.115C226.563 106.115 226.259 106.026 226.006 105.849C225.778 105.646 225.613 105.443 225.512 105.241C225.436 105.013 225.309 104.81 225.132 104.633C224.98 104.43 224.79 104.329 224.562 104.329C224.207 104.329 223.84 104.62 223.46 105.203C223.105 105.785 222.662 106.469 222.13 107.255C221.598 108.04 221.015 108.597 220.382 108.927C221.851 109.053 222.941 109.459 223.65 110.143C224.359 110.801 224.904 111.802 225.284 113.145C225.461 113.753 225.639 114.247 225.816 114.627C225.993 115.007 226.196 115.273 226.424 115.425C226.652 115.577 226.829 115.678 226.956 115.729C227.108 115.754 227.336 115.767 227.64 115.767C228.197 115.817 228.451 116.147 228.4 116.755C228.324 117.261 227.906 117.692 227.146 118.047C226.411 118.376 225.423 118.541 224.182 118.541ZM254.341 113.905C254.366 114.943 253.809 115.995 252.669 117.059C251.554 118.097 250.072 118.617 248.223 118.617C247.286 118.617 246.462 118.376 245.753 117.895C245.069 117.388 244.626 116.628 244.423 115.615C242.751 117.616 240.762 118.617 238.457 118.617C236.557 118.617 235.012 117.971 233.821 116.679C232.63 115.387 232.035 113.727 232.035 111.701C232.035 108.357 233.213 105.507 235.569 103.151C237.925 100.795 240.509 99.6168 243.321 99.6168C244.233 99.6168 245.107 99.7561 245.943 100.035C246.804 100.288 247.311 100.415 247.463 100.415C247.742 100.415 248.337 100.263 249.249 99.9588C250.186 99.6548 250.845 99.5028 251.225 99.5028C251.732 99.5028 252.112 99.6674 252.365 99.9968C252.618 100.326 252.72 100.693 252.669 101.099L251.073 112.043C250.896 113.335 251.136 113.981 251.795 113.981C252.048 113.981 252.352 113.803 252.707 113.449C253.087 113.094 253.378 112.917 253.581 112.917C254.088 112.917 254.341 113.246 254.341 113.905ZM240.851 114.399C241.89 114.399 242.751 113.74 243.435 112.423C244.119 111.105 244.613 109.459 244.917 107.483C245.424 104.113 244.803 102.429 243.055 102.429C241.788 102.429 240.788 103.252 240.053 104.899C239.344 106.52 238.964 108.483 238.913 110.789C238.888 111.827 239.04 112.689 239.369 113.373C239.698 114.057 240.192 114.399 240.851 114.399ZM273.287 112.651C273.819 112.271 274.275 112.207 274.655 112.461C275.06 112.714 275.086 113.132 274.731 113.715C273.87 115.159 272.641 116.337 271.045 117.249C269.474 118.161 267.663 118.617 265.611 118.617C262.951 118.617 260.899 117.92 259.455 116.527C258.036 115.133 257.327 113.221 257.327 110.789C257.327 107.774 258.416 105.165 260.595 102.961C262.799 100.731 265.446 99.6168 268.537 99.6168C270.564 99.6168 272.185 100.111 273.401 101.099C274.617 102.061 275.225 103.265 275.225 104.709C275.225 106.127 274.63 107.381 273.439 108.471C272.274 109.535 270.868 110.307 269.221 110.789C267.6 111.245 265.966 111.435 264.319 111.359C264.952 113.183 266.384 114.095 268.613 114.095C270.412 114.095 271.97 113.613 273.287 112.651ZM267.815 102.543C266.574 102.543 265.611 103.138 264.927 104.329C264.243 105.519 263.901 106.748 263.901 108.015C263.901 108.395 264.116 108.585 264.547 108.585C265.89 108.635 267.144 108.293 268.309 107.559C269.5 106.799 270.07 105.811 270.019 104.595C269.994 104.037 269.791 103.556 269.411 103.151C269.031 102.745 268.499 102.543 267.815 102.543ZM280.761 118.617C279.824 118.617 278.962 118.351 278.177 117.819C277.417 117.287 277.113 116.438 277.265 115.273C277.392 114.513 277.708 113.879 278.215 113.373C278.747 112.866 279.304 112.613 279.887 112.613C280.368 112.613 280.748 112.727 281.027 112.955C281.331 113.183 281.521 113.436 281.597 113.715C281.698 113.968 281.838 114.209 282.015 114.437C282.192 114.665 282.42 114.779 282.699 114.779C283.282 114.779 283.852 113.765 284.409 111.739C284.966 109.712 285.372 107.901 285.625 106.305C285.802 105.165 285.587 104.468 284.979 104.215C284.396 103.911 284.092 103.531 284.067 103.075C284.067 102.821 284.118 102.593 284.219 102.391C284.346 102.188 284.688 101.909 285.245 101.555C285.828 101.2 286.651 100.833 287.715 100.453C289.463 99.8701 291.021 99.5788 292.389 99.5788C293.124 99.5788 293.542 100.073 293.643 101.061C293.922 103.569 294.454 106.33 295.239 109.345L298.963 102.315C299.014 102.188 299.09 102.049 299.191 101.897C299.318 101.719 299.508 101.517 299.761 101.289C300.04 101.061 300.344 100.883 300.673 100.757C302.32 100.047 304.03 99.6674 305.803 99.6168C306.183 99.5914 306.474 99.6928 306.677 99.9208C306.88 100.149 306.956 100.465 306.905 100.871L305.385 111.967C305.284 112.727 305.284 113.259 305.385 113.563C305.486 113.841 305.689 113.981 305.993 113.981C306.246 113.981 306.55 113.803 306.905 113.449C307.26 113.094 307.538 112.917 307.741 112.917C308.248 112.917 308.501 113.246 308.501 113.905C308.526 114.943 307.956 115.995 306.791 117.059C305.651 118.097 304.131 118.617 302.231 118.617C299.14 118.617 297.874 116.805 298.431 113.183L299.419 106.799L294.935 115.349C294.53 116.007 293.77 116.501 292.655 116.831C291.287 117.211 290.438 116.932 290.109 115.995C289.222 113.081 288.614 110.067 288.285 106.951C287.981 108.572 287.348 111.08 286.385 114.475C285.245 117.236 283.37 118.617 280.761 118.617ZM320.543 108.015C320.391 108.749 320.049 109.231 319.517 109.459C319.01 109.661 318.542 109.56 318.111 109.155C317.706 108.749 317.566 108.129 317.693 107.293C317.896 105.849 318.39 104.481 319.175 103.189C319.986 101.871 320.771 100.643 321.531 99.5028C322.316 98.3374 322.785 97.2228 322.937 96.1588C323.089 94.9681 322.684 94.3728 321.721 94.3728C321.265 94.3728 320.872 94.5374 320.543 94.8668C320.239 95.1961 319.91 95.6901 319.555 96.3488C319.226 96.9821 318.972 97.4254 318.795 97.6788C318.77 97.7041 318.643 97.8688 318.415 98.1728C318.212 98.4514 318.073 98.6288 317.997 98.7048C317.946 98.7808 317.807 98.9328 317.579 99.1608C317.376 99.3634 317.186 99.5154 317.009 99.6168C316.857 99.6928 316.642 99.7688 316.363 99.8448C316.11 99.9208 315.831 99.9588 315.527 99.9588C314.412 99.9588 313.665 99.6674 313.285 99.0848C312.905 98.4768 312.766 97.7928 312.867 97.0328C313.095 95.3861 314.007 94.0181 315.603 92.9288C317.199 91.8141 319.403 91.2568 322.215 91.2568C324.875 91.2568 326.876 91.7634 328.219 92.7768C329.562 93.7901 330.119 95.1201 329.891 96.7668C329.764 97.6788 329.372 98.5781 328.713 99.4648C328.08 100.351 327.396 101.073 326.661 101.631C325.952 102.188 325.141 102.809 324.229 103.493C323.317 104.151 322.684 104.671 322.329 105.051C322.152 105.228 321.822 105.697 321.341 106.457C320.885 107.191 320.619 107.711 320.543 108.015ZM318.339 118.769C317.427 118.769 316.68 118.503 316.097 117.971C315.514 117.413 315.223 116.628 315.223 115.615C315.223 114.424 315.628 113.461 316.439 112.727C317.275 111.992 318.225 111.625 319.289 111.625C320.176 111.625 320.91 111.916 321.493 112.499C322.101 113.056 322.405 113.841 322.405 114.855C322.405 116.045 322 116.995 321.189 117.705C320.404 118.414 319.454 118.769 318.339 118.769Z" fill="#FFC6F9"/>
</svg>
