<svg width="223" height="125" viewBox="0 0 223 125" fill="none" xmlns="http://www.w3.org/2000/svg">
<path d="M199.1 47.069C214.646 46.7276 215.002 18.2778 213.454 8.52708C201.649 26.4751 179.265 31.3888 169.548 31.6021C172.776 33.9457 183.553 47.4103 199.1 47.069Z" fill="#FFC6F9"/>
<rect x="8.09644" y="30.5928" width="212.767" height="74.5782" rx="37.2891" fill="#6932FF" stroke="#FFC6F9" stroke-width="3"/>
<path d="M50.6921 56.0313H47.5961C47.3441 56.0313 47.1701 55.9893 47.0741 55.9053C46.9901 55.8213 46.9961 55.6713 47.0921 55.4553L47.2721 55.0593C47.3681 54.8313 47.4701 54.6753 47.5781 54.5913C47.6981 54.5073 47.8781 54.4653 48.1181 54.4653H51.2141C51.4661 54.4653 51.6341 54.5073 51.7181 54.5913C51.8141 54.6753 51.8141 54.8253 51.7181 55.0413L51.5381 55.4373C51.4421 55.6653 51.3341 55.8213 51.2141 55.9053C51.1061 55.9893 50.9321 56.0313 50.6921 56.0313ZM55.846 60.4773H53.884C53.524 60.4773 53.284 60.4413 53.164 60.3693C53.056 60.2853 53.014 60.1353 53.038 59.9193C53.062 59.7513 53.17 59.5953 53.362 59.4513C53.566 59.2953 53.776 59.1153 53.992 58.9113C54.208 58.6953 54.346 58.4433 54.406 58.1553L55.846 50.5233C55.906 50.2353 55.888 49.9953 55.792 49.8033C55.708 49.6113 55.594 49.4793 55.45 49.4073C55.318 49.3233 55.198 49.2093 55.09 49.0653C54.982 48.9093 54.94 48.7293 54.964 48.5253C55.012 48.2853 55.12 48.1173 55.288 48.0213C55.468 47.9253 55.738 47.8773 56.098 47.8773H58.834C59.242 47.8773 59.512 48.0693 59.644 48.4533L61.57 54.9153L65.566 48.4713C65.818 48.0753 66.136 47.8773 66.52 47.8773H69.13C69.502 47.8773 69.76 47.9253 69.904 48.0213C70.048 48.1173 70.102 48.2853 70.066 48.5253C70.03 48.7293 69.94 48.9093 69.796 49.0653C69.652 49.2093 69.502 49.3233 69.346 49.4073C69.19 49.4793 69.04 49.6113 68.896 49.8033C68.752 49.9953 68.662 50.2353 68.626 50.5233L67.924 57.4173C67.888 57.7533 67.906 58.0293 67.978 58.2453C68.05 58.4493 68.146 58.5993 68.266 58.6953C68.386 58.7913 68.506 58.8813 68.626 58.9653C68.746 59.0373 68.842 59.1453 68.914 59.2893C68.986 59.4213 69.01 59.6013 68.986 59.8293C68.95 60.0693 68.842 60.2373 68.662 60.3333C68.494 60.4293 68.194 60.4773 67.762 60.4773H64.198C63.79 60.4773 63.508 60.4293 63.352 60.3333C63.208 60.2373 63.154 60.0693 63.19 59.8293C63.226 59.5893 63.31 59.3853 63.442 59.2173C63.574 59.0493 63.712 58.9233 63.856 58.8393C64.012 58.7553 64.162 58.5933 64.306 58.3533C64.45 58.1133 64.546 57.8013 64.594 57.4173L65.278 51.9453L60.886 59.1453C60.682 59.5053 60.382 59.7213 59.986 59.7933C59.578 59.8773 59.32 59.7393 59.212 59.3793L57.124 52.0713L56.098 58.1553C56.038 58.5273 56.14 58.8693 56.404 59.1813C56.68 59.4813 56.8 59.7333 56.764 59.9373C56.74 60.1533 56.656 60.2973 56.512 60.3693C56.38 60.4413 56.158 60.4773 55.846 60.4773ZM77.3365 53.9613C78.0325 53.9613 78.6145 54.1773 79.0825 54.6093C79.5505 55.0293 79.7845 55.5753 79.7845 56.2473C79.7845 57.1353 79.5145 57.9273 78.9745 58.6233C78.4465 59.3193 77.8045 59.8353 77.0485 60.1713C76.3045 60.4953 75.5485 60.6573 74.7805 60.6573C73.5325 60.6573 72.6205 60.3693 72.0445 59.7933C71.4685 59.2053 71.2765 58.3353 71.4685 57.1833L71.8645 54.7893C71.9485 54.2853 71.8405 53.9733 71.5405 53.8533C71.2525 53.6853 71.1085 53.5053 71.1085 53.3133C71.1085 53.1933 71.1385 53.0853 71.1985 52.9893C71.2585 52.8813 71.4205 52.7433 71.6845 52.5753C71.9485 52.4073 72.3205 52.2393 72.8005 52.0713C73.6285 51.7833 74.3065 51.6393 74.8345 51.6393C75.2785 51.6393 75.4585 51.8673 75.3745 52.3233L74.9785 54.8793C75.6865 54.2673 76.4725 53.9613 77.3365 53.9613ZM84.9685 58.4253C84.9805 58.9173 84.7105 59.4153 84.1585 59.9193C83.6185 60.4113 82.8985 60.6573 81.9985 60.6573C81.3865 60.6573 80.9065 60.4533 80.5585 60.0453C80.2105 59.6253 80.1025 58.9893 80.2345 58.1373L81.0085 52.8093C81.0565 52.4613 81.2605 52.2453 81.6205 52.1613L83.6725 51.6753C83.8405 51.6393 83.9725 51.6813 84.0685 51.8013C84.1765 51.9213 84.2185 52.0773 84.1945 52.2693L83.4385 57.5433C83.3545 58.1553 83.4685 58.4613 83.7805 58.4613C83.9005 58.4613 84.0445 58.3773 84.2125 58.2093C84.3805 58.0413 84.5125 57.9573 84.6085 57.9573C84.8485 57.9573 84.9685 58.1133 84.9685 58.4253ZM76.6345 56.7513C76.6585 56.0913 76.4485 55.7613 76.0045 55.7613C75.6205 55.7613 75.2845 56.0553 74.9965 56.6433C74.7085 57.2313 74.5705 57.7893 74.5825 58.3173C74.5945 58.5933 74.6605 58.8273 74.7805 59.0193C74.9005 59.1993 75.0745 59.2833 75.3025 59.2713C75.6625 59.2713 75.9745 59.0013 76.2385 58.4613C76.5025 57.9213 76.6345 57.3513 76.6345 56.7513ZM105.421 57.9393C105.661 57.9393 105.781 58.0893 105.781 58.3893C105.781 58.9053 105.511 59.4153 104.971 59.9193C104.443 60.4113 103.729 60.6573 102.829 60.6573C102.229 60.6573 101.767 60.4473 101.443 60.0273C101.131 59.6073 101.047 58.9653 101.191 58.1013L101.533 56.1933C101.725 55.2333 101.815 54.5793 101.803 54.2313C101.803 53.8713 101.659 53.6913 101.371 53.6913C101.263 53.6913 101.143 53.7213 101.011 53.7813C100.891 53.8413 100.735 53.9793 100.543 54.1953C100.363 54.3993 100.183 54.6753 100.003 55.0233C99.8234 55.3593 99.6314 55.8453 99.4274 56.4813C99.2354 57.1173 99.0554 57.8493 98.8874 58.6773L98.7254 59.5593C98.6414 59.8953 98.4374 60.0993 98.1134 60.1713L96.0254 60.6573C95.8454 60.6933 95.7074 60.6513 95.6114 60.5313C95.5154 60.4113 95.4854 60.2493 95.5214 60.0453L96.2774 56.1933C96.3974 55.5573 96.4634 55.0593 96.4754 54.6993C96.4994 54.3273 96.4754 54.0693 96.4034 53.9253C96.3314 53.7693 96.2054 53.6913 96.0254 53.6913C95.9174 53.6913 95.8034 53.7213 95.6834 53.7813C95.5634 53.8413 95.4134 53.9793 95.2334 54.1953C95.0534 54.3993 94.8794 54.6753 94.7114 55.0233C94.5554 55.3593 94.3814 55.8453 94.1894 56.4813C93.9974 57.1053 93.8174 57.8373 93.6494 58.6773L93.4694 59.5593C93.3974 59.8953 93.1934 60.0993 92.8574 60.1713L90.7874 60.6573C90.6074 60.6933 90.4634 60.6513 90.3554 60.5313C90.2594 60.4113 90.2294 60.2493 90.2654 60.0453L91.1294 54.8253C91.1774 54.5613 91.1654 54.3513 91.0934 54.1953C91.0334 54.0273 90.9434 53.9253 90.8234 53.8893C90.7154 53.8413 90.6134 53.7693 90.5174 53.6733C90.4214 53.5773 90.3734 53.4573 90.3734 53.3133C90.3734 53.1333 90.4814 52.9533 90.6974 52.7733C90.9134 52.5933 91.3694 52.3593 92.0654 52.0713C92.8334 51.7833 93.3734 51.6393 93.6854 51.6393C94.1414 51.6393 94.3454 51.8673 94.2974 52.3233L94.1534 53.4573C94.5974 52.8333 95.0954 52.3773 95.6474 52.0893C96.2114 51.7893 96.7514 51.6393 97.2674 51.6393C97.8434 51.6393 98.3294 51.7953 98.7254 52.1073C99.1214 52.4073 99.3974 52.8213 99.5534 53.3493C99.9374 52.7973 100.411 52.3773 100.975 52.0893C101.539 51.7893 102.121 51.6393 102.721 51.6393C103.525 51.6393 104.137 51.9993 104.557 52.7193C104.989 53.4273 105.097 54.3093 104.881 55.3653L104.413 57.5433C104.341 57.9033 104.317 58.1493 104.341 58.2813C104.365 58.4133 104.443 58.4793 104.575 58.4793C104.695 58.4793 104.839 58.3893 105.007 58.2093C105.187 58.0293 105.325 57.9393 105.421 57.9393ZM113.573 53.9613C114.269 53.9613 114.851 54.1773 115.319 54.6093C115.787 55.0293 116.021 55.5753 116.021 56.2473C116.021 57.1353 115.751 57.9273 115.211 58.6233C114.683 59.3193 114.041 59.8353 113.285 60.1713C112.541 60.4953 111.785 60.6573 111.017 60.6573C109.769 60.6573 108.857 60.3693 108.281 59.7933C107.705 59.2053 107.513 58.3353 107.705 57.1833L108.101 54.7893C108.185 54.2853 108.077 53.9733 107.777 53.8533C107.489 53.6853 107.345 53.5053 107.345 53.3133C107.345 53.1933 107.375 53.0853 107.435 52.9893C107.495 52.8813 107.657 52.7433 107.921 52.5753C108.185 52.4073 108.557 52.2393 109.037 52.0713C109.865 51.7833 110.543 51.6393 111.071 51.6393C111.515 51.6393 111.695 51.8673 111.611 52.3233L111.215 54.8793C111.923 54.2673 112.709 53.9613 113.573 53.9613ZM121.205 58.4253C121.217 58.9173 120.947 59.4153 120.395 59.9193C119.855 60.4113 119.135 60.6573 118.235 60.6573C117.623 60.6573 117.143 60.4533 116.795 60.0453C116.447 59.6253 116.339 58.9893 116.471 58.1373L117.245 52.8093C117.293 52.4613 117.497 52.2453 117.857 52.1613L119.909 51.6753C120.077 51.6393 120.209 51.6813 120.305 51.8013C120.413 51.9213 120.455 52.0773 120.431 52.2693L119.675 57.5433C119.591 58.1553 119.705 58.4613 120.017 58.4613C120.137 58.4613 120.281 58.3773 120.449 58.2093C120.617 58.0413 120.749 57.9573 120.845 57.9573C121.085 57.9573 121.205 58.1133 121.205 58.4253ZM112.871 56.7513C112.895 56.0913 112.685 55.7613 112.241 55.7613C111.857 55.7613 111.521 56.0553 111.233 56.6433C110.945 57.2313 110.807 57.7893 110.819 58.3173C110.831 58.5933 110.897 58.8273 111.017 59.0193C111.137 59.1993 111.311 59.2833 111.539 59.2713C111.899 59.2713 112.211 59.0013 112.475 58.4613C112.739 57.9213 112.871 57.3513 112.871 56.7513ZM130.098 60.6213C129.258 60.6213 128.67 60.4413 128.334 60.0813C128.01 59.7213 127.752 59.0733 127.56 58.1373C127.548 58.0653 127.524 57.9333 127.488 57.7413C127.464 57.5493 127.434 57.4113 127.398 57.3273C127.374 57.2433 127.332 57.1413 127.272 57.0213C127.212 56.8893 127.122 56.7993 127.002 56.7513C126.894 56.7033 126.75 56.6793 126.57 56.6793C126.462 56.6793 126.384 56.7153 126.336 56.7873C126.3 56.8473 126.264 56.9913 126.228 57.2193L126.156 57.8313C126.12 58.0713 126.108 58.2813 126.12 58.4613C126.132 58.7493 126.246 59.0073 126.462 59.2353C126.69 59.4513 126.786 59.6853 126.75 59.9373C126.702 60.2973 126.39 60.4773 125.814 60.4773H122.574C122.25 60.4773 122.022 60.4353 121.89 60.3513C121.746 60.2673 121.686 60.1173 121.71 59.9013C121.734 59.7093 121.818 59.5593 121.962 59.4513C122.094 59.3313 122.244 59.1993 122.412 59.0553C122.58 58.8993 122.706 58.7013 122.79 58.4613C122.862 58.1493 122.91 57.9393 122.934 57.8313L123.384 54.4833C123.42 54.2433 123.432 54.0273 123.42 53.8353C123.408 53.5473 123.288 53.2953 123.06 53.0793C122.844 52.8633 122.754 52.6293 122.79 52.3773C122.838 52.0173 123.15 51.8373 123.726 51.8373H126.966C127.29 51.8373 127.518 51.8793 127.65 51.9633C127.794 52.0473 127.854 52.1913 127.83 52.3953C127.794 52.6233 127.626 52.8513 127.326 53.0793C127.038 53.2953 126.846 53.5473 126.75 53.8353C126.666 54.2073 126.618 54.4233 126.606 54.4833L126.552 54.9693C126.528 55.1373 126.534 55.2393 126.57 55.2753C126.606 55.3113 126.702 55.3293 126.858 55.3293H127.038C127.314 55.3293 127.566 55.2033 127.794 54.9513C128.034 54.6993 128.25 54.3933 128.442 54.0333C128.634 53.6733 128.844 53.3133 129.072 52.9533C129.3 52.5933 129.6 52.2873 129.972 52.0353C130.344 51.7833 130.77 51.6573 131.25 51.6573C131.742 51.6573 132.132 51.8073 132.42 52.1073C132.708 52.4073 132.81 52.8333 132.726 53.3853C132.678 53.8053 132.522 54.1353 132.258 54.3753C132.006 54.6153 131.718 54.7353 131.394 54.7353C131.226 54.7353 131.082 54.6933 130.962 54.6093C130.854 54.5133 130.776 54.4173 130.728 54.3213C130.692 54.2133 130.632 54.1173 130.548 54.0333C130.476 53.9373 130.386 53.8893 130.278 53.8893C130.11 53.8893 129.936 54.0273 129.756 54.3033C129.588 54.5793 129.378 54.9033 129.126 55.2753C128.874 55.6473 128.598 55.9113 128.298 56.0673C128.994 56.1273 129.51 56.3193 129.846 56.6433C130.182 56.9553 130.44 57.4293 130.62 58.0653C130.704 58.3533 130.788 58.5873 130.872 58.7673C130.956 58.9473 131.052 59.0733 131.16 59.1453C131.268 59.2173 131.352 59.2653 131.412 59.2893C131.484 59.3013 131.592 59.3073 131.736 59.3073C132 59.3313 132.12 59.4873 132.096 59.7753C132.06 60.0153 131.862 60.2193 131.502 60.3873C131.154 60.5433 130.686 60.6213 130.098 60.6213ZM144.384 58.4253C144.396 58.9173 144.132 59.4153 143.592 59.9193C143.064 60.4113 142.362 60.6573 141.486 60.6573C141.042 60.6573 140.652 60.5433 140.316 60.3153C139.992 60.0753 139.782 59.7153 139.686 59.2353C138.894 60.1833 137.952 60.6573 136.86 60.6573C135.96 60.6573 135.228 60.3513 134.664 59.7393C134.1 59.1273 133.818 58.3413 133.818 57.3813C133.818 55.7973 134.376 54.4473 135.492 53.3313C136.608 52.2153 137.832 51.6573 139.164 51.6573C139.596 51.6573 140.01 51.7233 140.406 51.8553C140.814 51.9753 141.054 52.0353 141.126 52.0353C141.258 52.0353 141.54 51.9633 141.972 51.8193C142.416 51.6753 142.728 51.6033 142.908 51.6033C143.148 51.6033 143.328 51.6813 143.448 51.8373C143.568 51.9933 143.616 52.1673 143.592 52.3593L142.836 57.5433C142.752 58.1553 142.866 58.4613 143.178 58.4613C143.298 58.4613 143.442 58.3773 143.61 58.2093C143.79 58.0413 143.928 57.9573 144.024 57.9573C144.264 57.9573 144.384 58.1133 144.384 58.4253ZM137.994 58.6593C138.486 58.6593 138.894 58.3473 139.218 57.7233C139.542 57.0993 139.776 56.3193 139.92 55.3833C140.16 53.7873 139.866 52.9893 139.038 52.9893C138.438 52.9893 137.964 53.3793 137.616 54.1593C137.28 54.9273 137.1 55.8573 137.076 56.9493C137.064 57.4413 137.136 57.8493 137.292 58.1733C137.448 58.4973 137.682 58.6593 137.994 58.6593ZM153.358 57.8313C153.61 57.6513 153.826 57.6213 154.006 57.7413C154.198 57.8613 154.21 58.0593 154.042 58.3353C153.634 59.0193 153.052 59.5773 152.296 60.0093C151.552 60.4413 150.694 60.6573 149.722 60.6573C148.462 60.6573 147.49 60.3273 146.806 59.6673C146.134 59.0073 145.798 58.1013 145.798 56.9493C145.798 55.5213 146.314 54.2853 147.346 53.2413C148.39 52.1853 149.644 51.6573 151.108 51.6573C152.068 51.6573 152.836 51.8913 153.412 52.3593C153.988 52.8153 154.276 53.3853 154.276 54.0693C154.276 54.7413 153.994 55.3353 153.43 55.8513C152.878 56.3553 152.212 56.7213 151.432 56.9493C150.664 57.1653 149.89 57.2553 149.11 57.2193C149.41 58.0833 150.088 58.5153 151.144 58.5153C151.996 58.5153 152.734 58.2873 153.358 57.8313ZM150.766 53.0433C150.178 53.0433 149.722 53.3253 149.398 53.8893C149.074 54.4533 148.912 55.0353 148.912 55.6353C148.912 55.8153 149.014 55.9053 149.218 55.9053C149.854 55.9293 150.448 55.7673 151 55.4193C151.564 55.0593 151.834 54.5913 151.81 54.0153C151.798 53.7513 151.702 53.5233 151.522 53.3313C151.342 53.1393 151.09 53.0433 150.766 53.0433ZM156.899 60.6573C156.455 60.6573 156.047 60.5313 155.675 60.2793C155.315 60.0273 155.171 59.6253 155.243 59.0733C155.303 58.7133 155.453 58.4133 155.693 58.1733C155.945 57.9333 156.209 57.8133 156.485 57.8133C156.713 57.8133 156.893 57.8673 157.025 57.9753C157.169 58.0833 157.259 58.2033 157.295 58.3353C157.343 58.4553 157.409 58.5693 157.493 58.6773C157.577 58.7853 157.685 58.8393 157.817 58.8393C158.093 58.8393 158.363 58.3593 158.627 57.3993C158.891 56.4393 159.083 55.5813 159.203 54.8253C159.287 54.2853 159.185 53.9553 158.897 53.8353C158.621 53.6913 158.477 53.5113 158.465 53.2953C158.465 53.1753 158.489 53.0673 158.537 52.9713C158.597 52.8753 158.759 52.7433 159.023 52.5753C159.299 52.4073 159.689 52.2333 160.193 52.0533C161.021 51.7773 161.759 51.6393 162.407 51.6393C162.755 51.6393 162.953 51.8733 163.001 52.3413C163.133 53.5293 163.385 54.8373 163.757 56.2653L165.521 52.9353C165.545 52.8753 165.581 52.8093 165.629 52.7373C165.689 52.6533 165.779 52.5573 165.899 52.4493C166.031 52.3413 166.175 52.2573 166.331 52.1973C167.111 51.8613 167.921 51.6813 168.761 51.6573C168.941 51.6453 169.079 51.6933 169.175 51.8013C169.271 51.9093 169.307 52.0593 169.283 52.2513L168.563 57.5073C168.515 57.8673 168.515 58.1193 168.563 58.2633C168.611 58.3953 168.707 58.4613 168.851 58.4613C168.971 58.4613 169.115 58.3773 169.283 58.2093C169.451 58.0413 169.583 57.9573 169.679 57.9573C169.919 57.9573 170.039 58.1133 170.039 58.4253C170.051 58.9173 169.781 59.4153 169.229 59.9193C168.689 60.4113 167.969 60.6573 167.069 60.6573C165.605 60.6573 165.005 59.7993 165.269 58.0833L165.737 55.0593L163.613 59.1093C163.421 59.4213 163.061 59.6553 162.533 59.8113C161.885 59.9913 161.483 59.8593 161.327 59.4153C160.907 58.0353 160.619 56.6073 160.463 55.1313C160.319 55.8993 160.019 57.0873 159.563 58.6953C159.023 60.0033 158.135 60.6573 156.899 60.6573ZM171.945 63.3393C171.825 63.3393 171.723 63.3033 171.639 63.2313C171.567 63.1713 171.531 63.0933 171.531 62.9973C171.531 62.8773 171.603 62.7393 171.747 62.5833C171.903 62.4393 172.059 62.2653 172.215 62.0613C172.371 61.8693 172.449 61.6533 172.449 61.4133C172.449 61.1733 172.293 60.8493 171.981 60.4413C171.681 60.0333 171.531 59.6073 171.531 59.1633C171.531 58.5873 171.729 58.1313 172.125 57.7953C172.521 57.4473 172.971 57.2733 173.475 57.2733C173.979 57.2733 174.387 57.4473 174.699 57.7953C175.023 58.1313 175.185 58.6113 175.185 59.2353C175.185 60.2433 174.807 61.1793 174.051 62.0433C173.307 62.9073 172.605 63.3393 171.945 63.3393ZM35.2667 81.4253C35.2787 81.9173 35.0147 82.4153 34.4747 82.9193C33.9467 83.4113 33.2447 83.6573 32.3687 83.6573C31.9247 83.6573 31.5347 83.5433 31.1987 83.3153C30.8747 83.0753 30.6647 82.7153 30.5687 82.2353C29.7767 83.1833 28.8347 83.6573 27.7427 83.6573C26.8427 83.6573 26.1107 83.3513 25.5467 82.7393C24.9827 82.1273 24.7007 81.3413 24.7007 80.3813C24.7007 78.7973 25.2587 77.4473 26.3747 76.3313C27.4907 75.2153 28.7147 74.6573 30.0467 74.6573C30.4787 74.6573 30.8927 74.7233 31.2887 74.8553C31.6967 74.9753 31.9367 75.0353 32.0087 75.0353C32.1407 75.0353 32.4227 74.9633 32.8547 74.8193C33.2987 74.6753 33.6107 74.6033 33.7907 74.6033C34.0307 74.6033 34.2107 74.6813 34.3307 74.8373C34.4507 74.9933 34.4987 75.1673 34.4747 75.3593L33.7187 80.5433C33.6347 81.1553 33.7487 81.4613 34.0607 81.4613C34.1807 81.4613 34.3247 81.3773 34.4927 81.2093C34.6727 81.0413 34.8107 80.9573 34.9067 80.9573C35.1467 80.9573 35.2667 81.1133 35.2667 81.4253ZM28.8767 81.6593C29.3687 81.6593 29.7767 81.3473 30.1007 80.7233C30.4247 80.0993 30.6587 79.3193 30.8027 78.3833C31.0427 76.7873 30.7487 75.9893 29.9207 75.9893C29.3207 75.9893 28.8467 76.3793 28.4987 77.1593C28.1627 77.9273 27.9827 78.8573 27.9587 79.9493C27.9467 80.4413 28.0187 80.8493 28.1747 81.1733C28.3307 81.4973 28.5647 81.6593 28.8767 81.6593ZM45.2262 83.6753C43.8942 83.6753 42.8562 83.3333 42.1122 82.6493C41.3682 81.9533 40.9962 80.9993 40.9962 79.7873C40.9962 78.3593 41.5422 77.1473 42.6342 76.1513C43.7262 75.1433 45.0222 74.6393 46.5222 74.6393C47.8062 74.6393 48.8202 74.9933 49.5642 75.7013C50.3082 76.4093 50.6802 77.3273 50.6802 78.4553C50.6802 79.9913 50.1582 81.2453 49.1142 82.2173C48.0702 83.1893 46.7742 83.6753 45.2262 83.6753ZM45.3342 82.2533C45.8862 82.2533 46.3362 81.8033 46.6842 80.9033C47.0322 79.9913 47.2062 79.0493 47.2062 78.0773C47.2062 76.7213 46.8702 76.0433 46.1982 76.0433C45.6222 76.0433 45.1602 76.4753 44.8122 77.3393C44.4762 78.1913 44.2962 79.1333 44.2722 80.1653C44.3082 81.5573 44.6622 82.2533 45.3342 82.2533ZM62.5313 80.9573C62.7713 80.9573 62.8913 81.1133 62.8913 81.4253C62.8913 81.9173 62.6153 82.4153 62.0633 82.9193C61.5233 83.4113 60.8033 83.6573 59.9033 83.6573C59.2913 83.6573 58.8113 83.4533 58.4633 83.0453C58.1273 82.6253 58.0253 81.9893 58.1573 81.1373L58.3733 79.6433H55.8173L55.4393 82.5413C55.3913 82.8893 55.1933 83.0993 54.8453 83.1713L52.7573 83.6573C52.5893 83.6933 52.4513 83.6513 52.3433 83.5313C52.2473 83.4113 52.2173 83.2493 52.2533 83.0453L52.9553 77.8433C52.9913 77.5793 52.9733 77.3693 52.9013 77.2133C52.8413 77.0453 52.7573 76.9433 52.6493 76.9073C52.5413 76.8593 52.4393 76.7873 52.3433 76.6913C52.2473 76.5953 52.1993 76.4753 52.1993 76.3313C52.1993 76.1393 52.2953 75.9593 52.4873 75.7913C52.6913 75.6113 53.0873 75.4133 53.6753 75.1973C54.6353 74.8493 55.3613 74.6753 55.8533 74.6753C56.2733 74.6753 56.4533 74.8913 56.3933 75.3233L55.9973 78.3113H58.5713L58.9313 75.8093C58.9793 75.4493 59.1773 75.2333 59.5253 75.1613L61.5773 74.6753C61.7573 74.6393 61.8953 74.6813 61.9913 74.8013C62.0873 74.9213 62.1233 75.0773 62.0993 75.2693L61.3613 80.5433C61.2533 81.1553 61.3613 81.4613 61.6853 81.4613C61.8053 81.4613 61.9493 81.3773 62.1173 81.2093C62.2973 81.0413 62.4353 80.9573 62.5313 80.9573ZM78.6146 80.9573C78.8546 80.9573 78.9746 81.1133 78.9746 81.4253C78.9746 81.9173 78.6986 82.4153 78.1466 82.9193C77.6066 83.4113 76.8866 83.6573 75.9866 83.6573C75.3746 83.6573 74.8946 83.4533 74.5466 83.0453C74.2106 82.6253 74.1086 81.9893 74.2406 81.1373L74.4566 79.6433H71.9006L71.5226 82.5413C71.4746 82.8893 71.2766 83.0993 70.9286 83.1713L68.8406 83.6573C68.6726 83.6933 68.5346 83.6513 68.4266 83.5313C68.3306 83.4113 68.3006 83.2493 68.3366 83.0453L69.0386 77.8433C69.0746 77.5793 69.0566 77.3693 68.9846 77.2133C68.9246 77.0453 68.8406 76.9433 68.7326 76.9073C68.6246 76.8593 68.5226 76.7873 68.4266 76.6913C68.3306 76.5953 68.2826 76.4753 68.2826 76.3313C68.2826 76.1393 68.3786 75.9593 68.5706 75.7913C68.7746 75.6113 69.1706 75.4133 69.7586 75.1973C70.7186 74.8493 71.4446 74.6753 71.9366 74.6753C72.3566 74.6753 72.5366 74.8913 72.4766 75.3233L72.0806 78.3113H74.6546L75.0146 75.8093C75.0626 75.4493 75.2606 75.2333 75.6086 75.1613L77.6606 74.6753C77.8406 74.6393 77.9786 74.6813 78.0746 74.8013C78.1706 74.9213 78.2066 75.0773 78.1826 75.2693L77.4446 80.5433C77.3366 81.1553 77.4446 81.4613 77.7686 81.4613C77.8886 81.4613 78.0326 81.3773 78.2006 81.2093C78.3806 81.0413 78.5186 80.9573 78.6146 80.9573ZM88.0704 80.8313C88.3224 80.6513 88.5384 80.6213 88.7184 80.7413C88.9104 80.8613 88.9224 81.0593 88.7544 81.3353C88.3464 82.0193 87.7644 82.5773 87.0084 83.0093C86.2644 83.4413 85.4064 83.6573 84.4344 83.6573C83.1744 83.6573 82.2024 83.3273 81.5184 82.6673C80.8464 82.0073 80.5104 81.1013 80.5104 79.9493C80.5104 78.5213 81.0264 77.2853 82.0584 76.2413C83.1024 75.1853 84.3564 74.6573 85.8204 74.6573C86.7804 74.6573 87.5484 74.8913 88.1244 75.3593C88.7004 75.8153 88.9884 76.3853 88.9884 77.0693C88.9884 77.7413 88.7064 78.3353 88.1424 78.8513C87.5904 79.3553 86.9244 79.7213 86.1444 79.9493C85.3764 80.1653 84.6024 80.2553 83.8224 80.2193C84.1224 81.0833 84.8004 81.5153 85.8564 81.5153C86.7084 81.5153 87.4464 81.2873 88.0704 80.8313ZM85.4784 76.0433C84.8904 76.0433 84.4344 76.3253 84.1104 76.8893C83.7864 77.4533 83.6244 78.0353 83.6244 78.6353C83.6244 78.8153 83.7264 78.9053 83.9304 78.9053C84.5664 78.9293 85.1604 78.7673 85.7124 78.4193C86.2764 78.0593 86.5464 77.5913 86.5224 77.0153C86.5104 76.7513 86.4144 76.5233 86.2344 76.3313C86.0544 76.1393 85.8024 76.0433 85.4784 76.0433ZM109.758 80.9393C109.998 80.9393 110.118 81.0893 110.118 81.3893C110.118 81.9053 109.848 82.4153 109.308 82.9193C108.78 83.4113 108.066 83.6573 107.166 83.6573C106.566 83.6573 106.104 83.4473 105.78 83.0273C105.468 82.6073 105.384 81.9653 105.528 81.1013L105.87 79.1933C106.062 78.2333 106.152 77.5793 106.14 77.2313C106.14 76.8713 105.996 76.6913 105.708 76.6913C105.6 76.6913 105.48 76.7213 105.348 76.7813C105.228 76.8413 105.072 76.9793 104.88 77.1953C104.7 77.3993 104.52 77.6753 104.34 78.0233C104.16 78.3593 103.968 78.8453 103.764 79.4813C103.572 80.1173 103.392 80.8493 103.224 81.6773L103.062 82.5593C102.978 82.8953 102.774 83.0993 102.45 83.1713L100.362 83.6573C100.182 83.6933 100.044 83.6513 99.9483 83.5313C99.8523 83.4113 99.8223 83.2493 99.8583 83.0453L100.614 79.1933C100.734 78.5573 100.8 78.0593 100.812 77.6993C100.836 77.3273 100.812 77.0693 100.74 76.9253C100.668 76.7693 100.542 76.6913 100.362 76.6913C100.254 76.6913 100.14 76.7213 100.02 76.7813C99.9003 76.8413 99.7503 76.9793 99.5703 77.1953C99.3903 77.3993 99.2163 77.6753 99.0483 78.0233C98.8923 78.3593 98.7183 78.8453 98.5263 79.4813C98.3343 80.1053 98.1543 80.8373 97.9863 81.6773L97.8063 82.5593C97.7343 82.8953 97.5303 83.0993 97.1943 83.1713L95.1243 83.6573C94.9443 83.6933 94.8003 83.6513 94.6923 83.5313C94.5963 83.4113 94.5663 83.2493 94.6023 83.0453L95.4663 77.8253C95.5143 77.5613 95.5023 77.3513 95.4303 77.1953C95.3703 77.0273 95.2803 76.9253 95.1603 76.8893C95.0523 76.8413 94.9503 76.7693 94.8543 76.6733C94.7583 76.5773 94.7103 76.4573 94.7103 76.3133C94.7103 76.1333 94.8183 75.9533 95.0343 75.7733C95.2503 75.5933 95.7063 75.3593 96.4023 75.0713C97.1703 74.7833 97.7103 74.6393 98.0223 74.6393C98.4783 74.6393 98.6823 74.8673 98.6343 75.3233L98.4903 76.4573C98.9343 75.8333 99.4323 75.3773 99.9843 75.0893C100.548 74.7893 101.088 74.6393 101.604 74.6393C102.18 74.6393 102.666 74.7953 103.062 75.1073C103.458 75.4073 103.734 75.8213 103.89 76.3493C104.274 75.7973 104.748 75.3773 105.312 75.0893C105.876 74.7893 106.458 74.6393 107.058 74.6393C107.862 74.6393 108.474 74.9993 108.894 75.7193C109.326 76.4273 109.434 77.3093 109.218 78.3653L108.75 80.5433C108.678 80.9033 108.654 81.1493 108.678 81.2813C108.702 81.4133 108.78 81.4793 108.912 81.4793C109.032 81.4793 109.176 81.3893 109.344 81.2093C109.524 81.0293 109.662 80.9393 109.758 80.9393ZM117.91 76.9613C118.606 76.9613 119.188 77.1773 119.656 77.6093C120.124 78.0293 120.358 78.5753 120.358 79.2473C120.358 80.1353 120.088 80.9273 119.548 81.6233C119.02 82.3193 118.378 82.8353 117.622 83.1713C116.878 83.4953 116.122 83.6573 115.354 83.6573C114.106 83.6573 113.194 83.3693 112.618 82.7933C112.042 82.2053 111.85 81.3353 112.042 80.1833L112.438 77.7893C112.522 77.2853 112.414 76.9733 112.114 76.8533C111.826 76.6853 111.682 76.5053 111.682 76.3133C111.682 76.1933 111.712 76.0853 111.772 75.9893C111.832 75.8813 111.994 75.7433 112.258 75.5753C112.522 75.4073 112.894 75.2393 113.374 75.0713C114.202 74.7833 114.88 74.6393 115.408 74.6393C115.852 74.6393 116.032 74.8673 115.948 75.3233L115.552 77.8793C116.26 77.2673 117.046 76.9613 117.91 76.9613ZM125.542 81.4253C125.554 81.9173 125.284 82.4153 124.732 82.9193C124.192 83.4113 123.472 83.6573 122.572 83.6573C121.96 83.6573 121.48 83.4533 121.132 83.0453C120.784 82.6253 120.676 81.9893 120.808 81.1373L121.582 75.8093C121.63 75.4613 121.834 75.2453 122.194 75.1613L124.246 74.6753C124.414 74.6393 124.546 74.6813 124.642 74.8013C124.75 74.9213 124.792 75.0773 124.768 75.2693L124.012 80.5433C123.928 81.1553 124.042 81.4613 124.354 81.4613C124.474 81.4613 124.618 81.3773 124.786 81.2093C124.954 81.0413 125.086 80.9573 125.182 80.9573C125.422 80.9573 125.542 81.1133 125.542 81.4253ZM117.208 79.7513C117.232 79.0913 117.022 78.7613 116.578 78.7613C116.194 78.7613 115.858 79.0553 115.57 79.6433C115.282 80.2313 115.144 80.7893 115.156 81.3173C115.168 81.5933 115.234 81.8273 115.354 82.0193C115.474 82.1993 115.648 82.2833 115.876 82.2713C116.236 82.2713 116.548 82.0013 116.812 81.4613C117.076 80.9213 117.208 80.3513 117.208 79.7513ZM134.435 83.6213C133.595 83.6213 133.007 83.4413 132.671 83.0813C132.347 82.7213 132.089 82.0733 131.897 81.1373C131.885 81.0653 131.861 80.9333 131.825 80.7413C131.801 80.5493 131.771 80.4113 131.735 80.3273C131.711 80.2433 131.669 80.1413 131.609 80.0213C131.549 79.8893 131.459 79.7993 131.339 79.7513C131.231 79.7033 131.087 79.6793 130.907 79.6793C130.799 79.6793 130.721 79.7153 130.673 79.7873C130.637 79.8473 130.601 79.9913 130.565 80.2193L130.493 80.8313C130.457 81.0713 130.445 81.2813 130.457 81.4613C130.469 81.7493 130.583 82.0073 130.799 82.2353C131.027 82.4513 131.123 82.6853 131.087 82.9373C131.039 83.2973 130.727 83.4773 130.151 83.4773H126.911C126.587 83.4773 126.359 83.4353 126.227 83.3513C126.083 83.2673 126.023 83.1173 126.047 82.9013C126.071 82.7093 126.155 82.5593 126.299 82.4513C126.431 82.3313 126.581 82.1993 126.749 82.0553C126.917 81.8993 127.043 81.7013 127.127 81.4613C127.199 81.1493 127.247 80.9393 127.271 80.8313L127.721 77.4833C127.757 77.2433 127.769 77.0273 127.757 76.8353C127.745 76.5473 127.625 76.2953 127.397 76.0793C127.181 75.8633 127.091 75.6293 127.127 75.3773C127.175 75.0173 127.487 74.8373 128.063 74.8373H131.303C131.627 74.8373 131.855 74.8793 131.987 74.9633C132.131 75.0473 132.191 75.1913 132.167 75.3953C132.131 75.6233 131.963 75.8513 131.663 76.0793C131.375 76.2953 131.183 76.5473 131.087 76.8353C131.003 77.2073 130.955 77.4233 130.943 77.4833L130.889 77.9693C130.865 78.1373 130.871 78.2393 130.907 78.2753C130.943 78.3113 131.039 78.3293 131.195 78.3293H131.375C131.651 78.3293 131.903 78.2033 132.131 77.9513C132.371 77.6993 132.587 77.3933 132.779 77.0333C132.971 76.6733 133.181 76.3133 133.409 75.9533C133.637 75.5933 133.937 75.2873 134.309 75.0353C134.681 74.7833 135.107 74.6573 135.587 74.6573C136.079 74.6573 136.469 74.8073 136.757 75.1073C137.045 75.4073 137.147 75.8333 137.063 76.3853C137.015 76.8053 136.859 77.1353 136.595 77.3753C136.343 77.6153 136.055 77.7353 135.731 77.7353C135.563 77.7353 135.419 77.6933 135.299 77.6093C135.191 77.5133 135.113 77.4173 135.065 77.3213C135.029 77.2133 134.969 77.1173 134.885 77.0333C134.813 76.9373 134.723 76.8893 134.615 76.8893C134.447 76.8893 134.273 77.0273 134.093 77.3033C133.925 77.5793 133.715 77.9033 133.463 78.2753C133.211 78.6473 132.935 78.9113 132.635 79.0673C133.331 79.1273 133.847 79.3193 134.183 79.6433C134.519 79.9553 134.777 80.4293 134.957 81.0653C135.041 81.3533 135.125 81.5873 135.209 81.7673C135.293 81.9473 135.389 82.0733 135.497 82.1453C135.605 82.2173 135.689 82.2653 135.749 82.2893C135.821 82.3013 135.929 82.3073 136.073 82.3073C136.337 82.3313 136.457 82.4873 136.433 82.7753C136.397 83.0153 136.199 83.2193 135.839 83.3873C135.491 83.5433 135.023 83.6213 134.435 83.6213ZM148.721 81.4253C148.733 81.9173 148.469 82.4153 147.929 82.9193C147.401 83.4113 146.699 83.6573 145.823 83.6573C145.379 83.6573 144.989 83.5433 144.653 83.3153C144.329 83.0753 144.119 82.7153 144.023 82.2353C143.231 83.1833 142.289 83.6573 141.197 83.6573C140.297 83.6573 139.565 83.3513 139.001 82.7393C138.437 82.1273 138.155 81.3413 138.155 80.3813C138.155 78.7973 138.713 77.4473 139.829 76.3313C140.945 75.2153 142.169 74.6573 143.501 74.6573C143.933 74.6573 144.347 74.7233 144.743 74.8553C145.151 74.9753 145.391 75.0353 145.463 75.0353C145.595 75.0353 145.877 74.9633 146.309 74.8193C146.753 74.6753 147.065 74.6033 147.245 74.6033C147.485 74.6033 147.665 74.6813 147.785 74.8373C147.905 74.9933 147.953 75.1673 147.929 75.3593L147.173 80.5433C147.089 81.1553 147.203 81.4613 147.515 81.4613C147.635 81.4613 147.779 81.3773 147.947 81.2093C148.127 81.0413 148.265 80.9573 148.361 80.9573C148.601 80.9573 148.721 81.1133 148.721 81.4253ZM142.331 81.6593C142.823 81.6593 143.231 81.3473 143.555 80.7233C143.879 80.0993 144.113 79.3193 144.257 78.3833C144.497 76.7873 144.203 75.9893 143.375 75.9893C142.775 75.9893 142.301 76.3793 141.953 77.1593C141.617 77.9273 141.437 78.8573 141.413 79.9493C141.401 80.4413 141.473 80.8493 141.629 81.1733C141.785 81.4973 142.019 81.6593 142.331 81.6593ZM157.695 80.8313C157.947 80.6513 158.163 80.6213 158.343 80.7413C158.535 80.8613 158.547 81.0593 158.379 81.3353C157.971 82.0193 157.389 82.5773 156.633 83.0093C155.889 83.4413 155.031 83.6573 154.059 83.6573C152.799 83.6573 151.827 83.3273 151.143 82.6673C150.471 82.0073 150.135 81.1013 150.135 79.9493C150.135 78.5213 150.651 77.2853 151.683 76.2413C152.727 75.1853 153.981 74.6573 155.445 74.6573C156.405 74.6573 157.173 74.8913 157.749 75.3593C158.325 75.8153 158.613 76.3853 158.613 77.0693C158.613 77.7413 158.331 78.3353 157.767 78.8513C157.215 79.3553 156.549 79.7213 155.769 79.9493C155.001 80.1653 154.227 80.2553 153.447 80.2193C153.747 81.0833 154.425 81.5153 155.481 81.5153C156.333 81.5153 157.071 81.2873 157.695 80.8313ZM155.103 76.0433C154.515 76.0433 154.059 76.3253 153.735 76.8893C153.411 77.4533 153.249 78.0353 153.249 78.6353C153.249 78.8153 153.351 78.9053 153.555 78.9053C154.191 78.9293 154.785 78.7673 155.337 78.4193C155.901 78.0593 156.171 77.5913 156.147 77.0153C156.135 76.7513 156.039 76.5233 155.859 76.3313C155.679 76.1393 155.427 76.0433 155.103 76.0433ZM175.42 80.9393C175.66 80.9393 175.78 81.0893 175.78 81.3893C175.78 81.9053 175.51 82.4153 174.97 82.9193C174.442 83.4113 173.728 83.6573 172.828 83.6573C172.228 83.6573 171.766 83.4473 171.442 83.0273C171.13 82.6073 171.046 81.9653 171.19 81.1013L171.532 79.1933C171.724 78.2333 171.814 77.5793 171.802 77.2313C171.802 76.8713 171.658 76.6913 171.37 76.6913C171.262 76.6913 171.142 76.7213 171.01 76.7813C170.89 76.8413 170.734 76.9793 170.542 77.1953C170.362 77.3993 170.182 77.6753 170.002 78.0233C169.822 78.3593 169.63 78.8453 169.426 79.4813C169.234 80.1173 169.054 80.8493 168.886 81.6773L168.724 82.5593C168.64 82.8953 168.436 83.0993 168.112 83.1713L166.024 83.6573C165.844 83.6933 165.706 83.6513 165.61 83.5313C165.514 83.4113 165.484 83.2493 165.52 83.0453L166.276 79.1933C166.396 78.5573 166.462 78.0593 166.474 77.6993C166.498 77.3273 166.474 77.0693 166.402 76.9253C166.33 76.7693 166.204 76.6913 166.024 76.6913C165.916 76.6913 165.802 76.7213 165.682 76.7813C165.562 76.8413 165.412 76.9793 165.232 77.1953C165.052 77.3993 164.878 77.6753 164.71 78.0233C164.554 78.3593 164.38 78.8453 164.188 79.4813C163.996 80.1053 163.816 80.8373 163.648 81.6773L163.468 82.5593C163.396 82.8953 163.192 83.0993 162.856 83.1713L160.786 83.6573C160.606 83.6933 160.462 83.6513 160.354 83.5313C160.258 83.4113 160.228 83.2493 160.264 83.0453L161.128 77.8253C161.176 77.5613 161.164 77.3513 161.092 77.1953C161.032 77.0273 160.942 76.9253 160.822 76.8893C160.714 76.8413 160.612 76.7693 160.516 76.6733C160.42 76.5773 160.372 76.4573 160.372 76.3133C160.372 76.1333 160.48 75.9533 160.696 75.7733C160.912 75.5933 161.368 75.3593 162.064 75.0713C162.832 74.7833 163.372 74.6393 163.684 74.6393C164.14 74.6393 164.344 74.8673 164.296 75.3233L164.152 76.4573C164.596 75.8333 165.094 75.3773 165.646 75.0893C166.21 74.7893 166.75 74.6393 167.266 74.6393C167.842 74.6393 168.328 74.7953 168.724 75.1073C169.12 75.4073 169.396 75.8213 169.552 76.3493C169.936 75.7973 170.41 75.3773 170.974 75.0893C171.538 74.7893 172.12 74.6393 172.72 74.6393C173.524 74.6393 174.136 74.9993 174.556 75.7193C174.988 76.4273 175.096 77.3093 174.88 78.3653L174.412 80.5433C174.34 80.9033 174.316 81.1493 174.34 81.2813C174.364 81.4133 174.442 81.4793 174.574 81.4793C174.694 81.4793 174.838 81.3893 175.006 81.2093C175.186 81.0293 175.324 80.9393 175.42 80.9393ZM181.375 83.6573C180.127 83.6573 179.161 83.3093 178.477 82.6133C177.793 81.9053 177.451 80.9993 177.451 79.8953C177.451 78.4553 177.973 77.2253 179.017 76.2053C180.061 75.1733 181.279 74.6573 182.671 74.6573C183.631 74.6573 184.441 74.9093 185.101 75.4133C185.761 75.9053 186.097 76.5353 186.109 77.3033C186.121 77.8913 185.959 78.3773 185.623 78.7613C185.287 79.1453 184.867 79.3133 184.363 79.2653C183.643 79.1693 183.283 78.7253 183.283 77.9333C183.271 76.7213 182.941 76.1153 182.293 76.1153C181.861 76.1153 181.489 76.3913 181.177 76.9433C180.877 77.4953 180.727 78.1433 180.727 78.8873C180.727 79.6793 180.931 80.2973 181.339 80.7413C181.759 81.1733 182.371 81.3893 183.175 81.3893C183.847 81.3893 184.513 81.1553 185.173 80.6873C185.413 80.5073 185.599 80.4893 185.731 80.6333C185.863 80.7653 185.857 80.9813 185.713 81.2813C185.437 81.9053 184.915 82.4573 184.147 82.9373C183.379 83.4173 182.455 83.6573 181.375 83.6573ZM194.892 83.6573C194.268 83.6573 193.782 83.4533 193.434 83.0453C193.098 82.6253 193.008 81.9713 193.164 81.0833L193.272 80.4353C193.32 80.2193 193.236 80.1113 193.02 80.1113C192.924 80.1113 192.852 80.1233 192.804 80.1473C192.66 80.1833 192.522 80.2673 192.39 80.3993C192.27 80.5313 192.174 80.6633 192.102 80.7953C192.042 80.9273 191.94 81.1373 191.796 81.4253C191.664 81.7133 191.556 81.9413 191.472 82.1093C191.22 82.5893 190.896 82.9613 190.5 83.2253C190.116 83.4893 189.522 83.6213 188.718 83.6213C187.458 83.6213 186.864 83.3993 186.936 82.9553C186.972 82.6793 187.14 82.5113 187.44 82.4513C187.656 82.3793 187.8 82.3253 187.872 82.2893C187.944 82.2533 188.058 82.1633 188.214 82.0193C188.37 81.8753 188.532 81.6653 188.7 81.3893C189.108 80.7293 189.564 80.2433 190.068 79.9313C188.988 79.5113 188.526 78.7613 188.682 77.6813C188.802 76.8053 189.27 76.1153 190.086 75.6113C190.902 75.0953 191.934 74.8373 193.182 74.8373H197.286C197.886 74.8373 198.168 74.9993 198.132 75.3233C198.108 75.5033 197.922 75.7373 197.574 76.0253C197.238 76.3133 197.046 76.6313 196.998 76.9793L196.494 80.5433C196.434 80.9153 196.416 81.1613 196.44 81.2813C196.464 81.4013 196.542 81.4613 196.674 81.4613C196.794 81.4613 196.938 81.3773 197.106 81.2093C197.286 81.0413 197.424 80.9573 197.52 80.9573C197.76 80.9573 197.88 81.1133 197.88 81.4253C197.892 81.9173 197.622 82.4153 197.07 82.9193C196.53 83.4113 195.804 83.6573 194.892 83.6573ZM192.84 78.8333C193.044 78.8333 193.188 78.7973 193.272 78.7253C193.368 78.6533 193.428 78.5213 193.452 78.3293L193.686 76.8353C193.746 76.6193 193.752 76.4453 193.704 76.3133C193.656 76.1693 193.494 76.0973 193.218 76.0973C192.882 76.0973 192.6 76.2173 192.372 76.4573C192.144 76.6973 191.994 77.0453 191.922 77.5013C191.862 77.9093 191.928 78.2333 192.12 78.4733C192.324 78.7133 192.564 78.8333 192.84 78.8333Z" fill="#FFC6F9"/>
</svg>
