<svg width="456" height="219" viewBox="0 0 456 219" fill="none" xmlns="http://www.w3.org/2000/svg">
<path d="M424.892 76.6328C453.112 69.5779 441.991 17.5304 435.132 0.382996C421.022 38.0093 382.22 56.2345 364.583 60.6438C371.442 63.5834 396.673 83.6877 424.892 76.6328Z" fill="#FFC6F9"/>
<rect x="3.36523" y="52.8706" width="449.266" height="140.118" rx="70.0589" fill="#6932FF" stroke="#FFC6F9" stroke-width="5"/>
<path d="M113.67 92.5661H106.102C105.486 92.5661 105.061 92.4634 104.826 92.2581C104.621 92.0527 104.636 91.6861 104.87 91.1581L105.31 90.1901C105.545 89.6327 105.794 89.2514 106.058 89.0461C106.352 88.8407 106.792 88.7381 107.378 88.7381H114.946C115.562 88.7381 115.973 88.8407 116.178 89.0461C116.413 89.2514 116.413 89.6181 116.178 90.1461L115.738 91.1141C115.504 91.6714 115.24 92.0527 114.946 92.2581C114.682 92.4634 114.257 92.5661 113.67 92.5661ZM124.629 103.434H120.923C120.243 103.434 119.789 103.366 119.563 103.23C119.359 103.071 119.279 102.788 119.325 102.38C119.37 102.063 119.574 101.768 119.937 101.496C120.322 101.201 120.719 100.861 121.127 100.476C121.535 100.068 121.795 99.5921 121.909 99.0481L124.629 84.6321C124.742 84.0881 124.708 83.6347 124.527 83.272C124.368 82.9094 124.153 82.6601 123.881 82.5241C123.631 82.3654 123.405 82.1501 123.201 81.8781C122.997 81.5834 122.917 81.2434 122.963 80.8581C123.053 80.4047 123.257 80.0874 123.575 79.9061C123.915 79.7247 124.425 79.634 125.105 79.634H130.273C131.043 79.634 131.553 79.9967 131.803 80.7221L135.441 92.9281L142.989 80.756C143.465 80.008 144.065 79.634 144.791 79.634H149.721C150.423 79.634 150.911 79.7247 151.183 79.9061C151.455 80.0874 151.557 80.4047 151.489 80.8581C151.421 81.2434 151.251 81.5834 150.979 81.8781C150.707 82.1501 150.423 82.3654 150.129 82.5241C149.834 82.6601 149.551 82.9094 149.279 83.272C149.007 83.6347 148.837 84.0881 148.769 84.6321L147.443 97.6541C147.375 98.2887 147.409 98.8101 147.545 99.2181C147.681 99.6034 147.862 99.8867 148.089 100.068C148.315 100.249 148.542 100.419 148.769 100.578C148.995 100.714 149.177 100.918 149.313 101.19C149.449 101.439 149.494 101.779 149.449 102.21C149.381 102.663 149.177 102.981 148.837 103.162C148.519 103.343 147.953 103.434 147.137 103.434H140.405C139.634 103.434 139.101 103.343 138.807 103.162C138.535 102.981 138.433 102.663 138.501 102.21C138.569 101.757 138.727 101.371 138.977 101.054C139.226 100.737 139.487 100.499 139.759 100.34C140.053 100.181 140.337 99.8754 140.609 99.4221C140.881 98.9687 141.062 98.3794 141.153 97.6541L142.445 87.3181L134.149 100.918C133.763 101.598 133.197 102.006 132.449 102.142C131.678 102.301 131.191 102.04 130.987 101.36L127.043 87.5561L125.105 99.0481C124.991 99.7507 125.184 100.397 125.683 100.986C126.204 101.553 126.431 102.029 126.363 102.414C126.317 102.822 126.159 103.094 125.887 103.23C125.637 103.366 125.218 103.434 124.629 103.434ZM165.222 91.1261C166.536 91.1261 167.636 91.5341 168.52 92.3501C169.404 93.1434 169.846 94.1747 169.846 95.4441C169.846 97.1214 169.336 98.6174 168.316 99.9321C167.318 101.247 166.106 102.221 164.678 102.856C163.272 103.468 161.844 103.774 160.394 103.774C158.036 103.774 156.314 103.23 155.226 102.142C154.138 101.031 153.775 99.3881 154.138 97.2121L154.886 92.6901C155.044 91.7381 154.84 91.1487 154.274 90.9221C153.73 90.6047 153.458 90.2647 153.458 89.9021C153.458 89.6754 153.514 89.4714 153.628 89.2901C153.741 89.0861 154.047 88.8254 154.546 88.5081C155.044 88.1907 155.747 87.8734 156.654 87.5561C158.218 87.0121 159.498 86.7401 160.496 86.7401C161.334 86.7401 161.674 87.1707 161.516 88.0321L160.768 92.8601C162.105 91.7041 163.59 91.1261 165.222 91.1261ZM179.638 99.5581C179.66 100.487 179.15 101.428 178.108 102.38C177.088 103.309 175.728 103.774 174.028 103.774C172.872 103.774 171.965 103.389 171.308 102.618C170.65 101.825 170.446 100.623 170.696 99.0141L172.158 88.9501C172.248 88.2927 172.634 87.8847 173.314 87.7261L177.19 86.8081C177.507 86.7401 177.756 86.8194 177.938 87.0461C178.142 87.2727 178.221 87.5674 178.176 87.9301L176.748 97.8921C176.589 99.0481 176.804 99.6261 177.394 99.6261C177.62 99.6261 177.892 99.4674 178.21 99.1501C178.527 98.8327 178.776 98.6741 178.958 98.6741C179.411 98.6741 179.638 98.9687 179.638 99.5581ZM163.896 96.3961C163.941 95.1494 163.544 94.5261 162.706 94.5261C161.98 94.5261 161.346 95.0814 160.802 96.1921C160.258 97.3027 159.997 98.3567 160.02 99.3541C160.042 99.8754 160.167 100.317 160.394 100.68C160.62 101.02 160.949 101.179 161.38 101.156C162.06 101.156 162.649 100.646 163.148 99.6261C163.646 98.6061 163.896 97.5294 163.896 96.3961ZM218.271 98.6401C218.724 98.6401 218.951 98.9234 218.951 99.4901C218.951 100.465 218.441 101.428 217.421 102.38C216.424 103.309 215.075 103.774 213.375 103.774C212.242 103.774 211.369 103.377 210.757 102.584C210.168 101.791 210.009 100.578 210.281 98.9461L210.927 95.3421C211.29 93.5287 211.46 92.2934 211.437 91.6361C211.437 90.9561 211.165 90.6161 210.621 90.6161C210.417 90.6161 210.19 90.6727 209.941 90.7861C209.714 90.8994 209.42 91.1601 209.057 91.5681C208.717 91.9534 208.377 92.4747 208.037 93.1321C207.697 93.7667 207.334 94.6847 206.949 95.8861C206.586 97.0874 206.246 98.4701 205.929 100.034L205.623 101.7C205.464 102.335 205.079 102.72 204.467 102.856L200.523 103.774C200.183 103.842 199.922 103.763 199.741 103.536C199.56 103.309 199.503 103.003 199.571 102.618L200.999 95.3421C201.226 94.1407 201.35 93.2001 201.373 92.5201C201.418 91.8174 201.373 91.3301 201.237 91.0581C201.101 90.7634 200.863 90.6161 200.523 90.6161C200.319 90.6161 200.104 90.6727 199.877 90.7861C199.65 90.8994 199.367 91.1601 199.027 91.5681C198.687 91.9534 198.358 92.4747 198.041 93.1321C197.746 93.7667 197.418 94.6847 197.055 95.8861C196.692 97.0647 196.352 98.4474 196.035 100.034L195.695 101.7C195.559 102.335 195.174 102.72 194.539 102.856L190.629 103.774C190.289 103.842 190.017 103.763 189.813 103.536C189.632 103.309 189.575 103.003 189.643 102.618L191.275 92.7581C191.366 92.2594 191.343 91.8627 191.207 91.5681C191.094 91.2507 190.924 91.0581 190.697 90.9901C190.493 90.8994 190.3 90.7634 190.119 90.5821C189.938 90.4007 189.847 90.1741 189.847 89.9021C189.847 89.5621 190.051 89.2221 190.459 88.8821C190.867 88.5421 191.728 88.1001 193.043 87.5561C194.494 87.0121 195.514 86.7401 196.103 86.7401C196.964 86.7401 197.35 87.1707 197.259 88.0321L196.987 90.1741C197.826 88.9954 198.766 88.1341 199.809 87.5901C200.874 87.0234 201.894 86.7401 202.869 86.7401C203.957 86.7401 204.875 87.0347 205.623 87.6241C206.371 88.1907 206.892 88.9727 207.187 89.9701C207.912 88.9274 208.808 88.1341 209.873 87.5901C210.938 87.0234 212.038 86.7401 213.171 86.7401C214.69 86.7401 215.846 87.4201 216.639 88.7801C217.455 90.1174 217.659 91.7834 217.251 93.7781L216.367 97.8921C216.231 98.5721 216.186 99.0367 216.231 99.2861C216.276 99.5354 216.424 99.6601 216.673 99.6601C216.9 99.6601 217.172 99.4901 217.489 99.1501C217.829 98.8101 218.09 98.6401 218.271 98.6401ZM233.668 91.1261C234.983 91.1261 236.082 91.5341 236.966 92.3501C237.85 93.1434 238.292 94.1747 238.292 95.4441C238.292 97.1214 237.782 98.6174 236.762 99.9321C235.765 101.247 234.552 102.221 233.124 102.856C231.719 103.468 230.291 103.774 228.84 103.774C226.483 103.774 224.76 103.23 223.672 102.142C222.584 101.031 222.221 99.3881 222.584 97.2121L223.332 92.6901C223.491 91.7381 223.287 91.1487 222.72 90.9221C222.176 90.6047 221.904 90.2647 221.904 89.9021C221.904 89.6754 221.961 89.4714 222.074 89.2901C222.187 89.0861 222.493 88.8254 222.992 88.5081C223.491 88.1907 224.193 87.8734 225.1 87.5561C226.664 87.0121 227.945 86.7401 228.942 86.7401C229.781 86.7401 230.121 87.1707 229.962 88.0321L229.214 92.8601C230.551 91.7041 232.036 91.1261 233.668 91.1261ZM248.084 99.5581C248.107 100.487 247.597 101.428 246.554 102.38C245.534 103.309 244.174 103.774 242.474 103.774C241.318 103.774 240.411 103.389 239.754 102.618C239.097 101.825 238.893 100.623 239.142 99.0141L240.604 88.9501C240.695 88.2927 241.08 87.8847 241.76 87.7261L245.636 86.8081C245.953 86.7401 246.203 86.8194 246.384 87.0461C246.588 87.2727 246.667 87.5674 246.622 87.9301L245.194 97.8921C245.035 99.0481 245.251 99.6261 245.84 99.6261C246.067 99.6261 246.339 99.4674 246.656 99.1501C246.973 98.8327 247.223 98.6741 247.404 98.6741C247.857 98.6741 248.084 98.9687 248.084 99.5581ZM232.342 96.3961C232.387 95.1494 231.991 94.5261 231.152 94.5261C230.427 94.5261 229.792 95.0814 229.248 96.1921C228.704 97.3027 228.443 98.3567 228.466 99.3541C228.489 99.8754 228.613 100.317 228.84 100.68C229.067 101.02 229.395 101.179 229.826 101.156C230.506 101.156 231.095 100.646 231.594 99.6261C232.093 98.6061 232.342 97.5294 232.342 96.3961ZM264.883 103.706C263.296 103.706 262.185 103.366 261.551 102.686C260.939 102.006 260.451 100.782 260.089 99.0141C260.066 98.8781 260.021 98.6287 259.953 98.2661C259.907 97.9034 259.851 97.6427 259.783 97.4841C259.737 97.3254 259.658 97.1327 259.545 96.9061C259.431 96.6567 259.261 96.4867 259.035 96.3961C258.831 96.3054 258.559 96.2601 258.219 96.2601C258.015 96.2601 257.867 96.3281 257.777 96.4641C257.709 96.5774 257.641 96.8494 257.573 97.2801L257.437 98.4361C257.369 98.8894 257.346 99.2861 257.369 99.6261C257.391 100.17 257.607 100.657 258.015 101.088C258.445 101.496 258.627 101.938 258.559 102.414C258.468 103.094 257.879 103.434 256.791 103.434H250.671C250.059 103.434 249.628 103.355 249.379 103.196C249.107 103.037 248.993 102.754 249.039 102.346C249.084 101.983 249.243 101.7 249.515 101.496C249.764 101.269 250.047 101.02 250.365 100.748C250.682 100.453 250.92 100.079 251.079 99.6261C251.215 99.0367 251.305 98.6401 251.351 98.4361L252.201 92.1121C252.269 91.6587 252.291 91.2507 252.269 90.8881C252.246 90.3441 252.019 89.8681 251.589 89.4601C251.181 89.0521 251.011 88.6101 251.079 88.1341C251.169 87.4541 251.759 87.1141 252.847 87.1141H258.967C259.579 87.1141 260.009 87.1934 260.259 87.3521C260.531 87.5107 260.644 87.7827 260.599 88.1681C260.531 88.5987 260.213 89.0294 259.647 89.4601C259.103 89.8681 258.74 90.3441 258.559 90.8881C258.4 91.5907 258.309 91.9987 258.287 92.1121L258.185 93.0301C258.139 93.3474 258.151 93.5401 258.219 93.6081C258.287 93.6761 258.468 93.7101 258.763 93.7101H259.103C259.624 93.7101 260.1 93.4721 260.531 92.9961C260.984 92.5201 261.392 91.9421 261.755 91.2621C262.117 90.5821 262.514 89.9021 262.945 89.2221C263.375 88.5421 263.942 87.9641 264.645 87.4881C265.347 87.0121 266.152 86.7741 267.059 86.7741C267.988 86.7741 268.725 87.0574 269.269 87.6241C269.813 88.1907 270.005 88.9954 269.847 90.0381C269.756 90.8314 269.461 91.4547 268.963 91.9081C268.487 92.3614 267.943 92.5881 267.331 92.5881C267.013 92.5881 266.741 92.5087 266.515 92.3501C266.311 92.1687 266.163 91.9874 266.073 91.8061C266.005 91.6021 265.891 91.4207 265.733 91.2621C265.597 91.0807 265.427 90.9901 265.223 90.9901C264.905 90.9901 264.577 91.2507 264.237 91.7721C263.919 92.2934 263.523 92.9054 263.047 93.6081C262.571 94.3107 262.049 94.8094 261.483 95.1041C262.797 95.2174 263.772 95.5801 264.407 96.1921C265.041 96.7814 265.529 97.6767 265.869 98.8781C266.027 99.4221 266.186 99.8641 266.345 100.204C266.503 100.544 266.685 100.782 266.889 100.918C267.093 101.054 267.251 101.145 267.365 101.19C267.501 101.213 267.705 101.224 267.977 101.224C268.475 101.269 268.702 101.564 268.657 102.108C268.589 102.561 268.215 102.947 267.535 103.264C266.877 103.559 265.993 103.706 264.883 103.706ZM291.867 99.5581C291.89 100.487 291.391 101.428 290.371 102.38C289.374 103.309 288.048 103.774 286.393 103.774C285.554 103.774 284.818 103.559 284.183 103.128C283.571 102.675 283.174 101.995 282.993 101.088C281.497 102.879 279.718 103.774 277.655 103.774C275.955 103.774 274.572 103.196 273.507 102.04C272.442 100.884 271.909 99.3994 271.909 97.5861C271.909 94.5941 272.963 92.0441 275.071 89.9361C277.179 87.8281 279.491 86.7741 282.007 86.7741C282.823 86.7741 283.605 86.8987 284.353 87.1481C285.124 87.3747 285.577 87.4881 285.713 87.4881C285.962 87.4881 286.495 87.3521 287.311 87.0801C288.15 86.8081 288.739 86.6721 289.079 86.6721C289.532 86.6721 289.872 86.8194 290.099 87.1141C290.326 87.4087 290.416 87.7374 290.371 88.1001L288.943 97.8921C288.784 99.0481 289 99.6261 289.589 99.6261C289.816 99.6261 290.088 99.4674 290.405 99.1501C290.745 98.8327 291.006 98.6741 291.187 98.6741C291.64 98.6741 291.867 98.9687 291.867 99.5581ZM279.797 100C280.726 100 281.497 99.4107 282.109 98.2321C282.721 97.0534 283.163 95.5801 283.435 93.8121C283.888 90.7974 283.333 89.2901 281.769 89.2901C280.636 89.2901 279.74 90.0267 279.083 91.5001C278.448 92.9507 278.108 94.7074 278.063 96.7701C278.04 97.6994 278.176 98.4701 278.471 99.0821C278.766 99.6941 279.208 100 279.797 100ZM308.819 98.4361C309.295 98.0961 309.703 98.0394 310.043 98.2661C310.405 98.4927 310.428 98.8667 310.111 99.3881C309.34 100.68 308.241 101.734 306.813 102.55C305.407 103.366 303.787 103.774 301.951 103.774C299.571 103.774 297.735 103.151 296.443 101.904C295.173 100.657 294.539 98.9461 294.539 96.7701C294.539 94.0727 295.513 91.7381 297.463 89.7661C299.435 87.7714 301.803 86.7741 304.569 86.7741C306.382 86.7741 307.833 87.2161 308.921 88.1001C310.009 88.9614 310.553 90.0381 310.553 91.3301C310.553 92.5994 310.02 93.7214 308.955 94.6961C307.912 95.6481 306.654 96.3394 305.181 96.7701C303.73 97.1781 302.268 97.3481 300.795 97.2801C301.361 98.9121 302.642 99.7281 304.637 99.7281C306.246 99.7281 307.64 99.2974 308.819 98.4361ZM303.923 89.3921C302.812 89.3921 301.951 89.9247 301.339 90.9901C300.727 92.0554 300.421 93.1547 300.421 94.2881C300.421 94.6281 300.613 94.7981 300.999 94.7981C302.2 94.8434 303.322 94.5374 304.365 93.8801C305.43 93.2001 305.94 92.3161 305.895 91.2281C305.872 90.7294 305.691 90.2987 305.351 89.9361C305.011 89.5734 304.535 89.3921 303.923 89.3921ZM315.506 103.774C314.667 103.774 313.897 103.536 313.194 103.06C312.514 102.584 312.242 101.825 312.378 100.782C312.491 100.102 312.775 99.5354 313.228 99.0821C313.704 98.6287 314.203 98.4021 314.724 98.4021C315.155 98.4021 315.495 98.5041 315.744 98.7081C316.016 98.9121 316.186 99.1387 316.254 99.3881C316.345 99.6147 316.469 99.8301 316.628 100.034C316.787 100.238 316.991 100.34 317.24 100.34C317.761 100.34 318.271 99.4334 318.77 97.6201C319.269 95.8067 319.631 94.1861 319.858 92.7581C320.017 91.7381 319.824 91.1147 319.28 90.8881C318.759 90.6161 318.487 90.2761 318.464 89.8681C318.464 89.6414 318.509 89.4374 318.6 89.2561C318.713 89.0747 319.019 88.8254 319.518 88.5081C320.039 88.1907 320.776 87.8621 321.728 87.5221C323.292 87.0007 324.686 86.7401 325.91 86.7401C326.567 86.7401 326.941 87.1821 327.032 88.0661C327.281 90.3101 327.757 92.7807 328.46 95.4781L331.792 89.1881C331.837 89.0747 331.905 88.9501 331.996 88.8141C332.109 88.6554 332.279 88.4741 332.506 88.2701C332.755 88.0661 333.027 87.9074 333.322 87.7941C334.795 87.1594 336.325 86.8194 337.912 86.7741C338.252 86.7514 338.513 86.8421 338.694 87.0461C338.875 87.2501 338.943 87.5334 338.898 87.8961L337.538 97.8241C337.447 98.5041 337.447 98.9801 337.538 99.2521C337.629 99.5014 337.81 99.6261 338.082 99.6261C338.309 99.6261 338.581 99.4674 338.898 99.1501C339.215 98.8327 339.465 98.6741 339.646 98.6741C340.099 98.6741 340.326 98.9687 340.326 99.5581C340.349 100.487 339.839 101.428 338.796 102.38C337.776 103.309 336.416 103.774 334.716 103.774C331.951 103.774 330.817 102.153 331.316 98.9121L332.2 93.2001L328.188 100.85C327.825 101.439 327.145 101.881 326.148 102.176C324.924 102.516 324.165 102.267 323.87 101.428C323.077 98.8214 322.533 96.1241 322.238 93.3361C321.966 94.7867 321.399 97.0307 320.538 100.068C319.518 102.539 317.841 103.774 315.506 103.774ZM343.926 108.84C343.7 108.84 343.507 108.772 343.348 108.636C343.212 108.523 343.144 108.375 343.144 108.194C343.144 107.967 343.28 107.707 343.552 107.412C343.847 107.14 344.142 106.811 344.436 106.426C344.731 106.063 344.878 105.655 344.878 105.202C344.878 104.749 344.584 104.137 343.994 103.366C343.428 102.595 343.144 101.791 343.144 100.952C343.144 99.8641 343.518 99.0027 344.266 98.3681C345.014 97.7107 345.864 97.3821 346.816 97.3821C347.768 97.3821 348.539 97.7107 349.128 98.3681C349.74 99.0027 350.046 99.9094 350.046 101.088C350.046 102.992 349.332 104.76 347.904 106.392C346.499 108.024 345.173 108.84 343.926 108.84ZM83.8499 143.558C83.8726 144.487 83.3739 145.428 82.3539 146.38C81.3566 147.309 80.0306 147.774 78.3759 147.774C77.5372 147.774 76.8006 147.559 76.1659 147.128C75.5539 146.675 75.1572 145.995 74.9759 145.088C73.4799 146.879 71.7006 147.774 69.6379 147.774C67.9379 147.774 66.5552 147.196 65.4899 146.04C64.4246 144.884 63.8919 143.399 63.8919 141.586C63.8919 138.594 64.9459 136.044 67.0539 133.936C69.1619 131.828 71.4739 130.774 73.9899 130.774C74.8059 130.774 75.5879 130.899 76.3359 131.148C77.1066 131.375 77.5599 131.488 77.6959 131.488C77.9452 131.488 78.4779 131.352 79.2939 131.08C80.1326 130.808 80.7219 130.672 81.0619 130.672C81.5152 130.672 81.8552 130.819 82.0819 131.114C82.3086 131.409 82.3992 131.737 82.3539 132.1L80.9259 141.892C80.7672 143.048 80.9826 143.626 81.5719 143.626C81.7986 143.626 82.0706 143.467 82.3879 143.15C82.7279 142.833 82.9886 142.674 83.1699 142.674C83.6232 142.674 83.8499 142.969 83.8499 143.558ZM71.7799 144C72.7092 144 73.4799 143.411 74.0919 142.232C74.7039 141.053 75.1459 139.58 75.4179 137.812C75.8712 134.797 75.3159 133.29 73.7519 133.29C72.6186 133.29 71.7232 134.027 71.0659 135.5C70.4312 136.951 70.0912 138.707 70.0459 140.77C70.0232 141.699 70.1592 142.47 70.4539 143.082C70.7486 143.694 71.1906 144 71.7799 144ZM102.662 147.808C100.146 147.808 98.1856 147.162 96.7803 145.87C95.3749 144.555 94.6723 142.753 94.6723 140.464C94.6723 137.767 95.7036 135.477 97.7663 133.596C99.8289 131.692 102.277 130.74 105.11 130.74C107.536 130.74 109.451 131.409 110.856 132.746C112.262 134.083 112.964 135.817 112.964 137.948C112.964 140.849 111.978 143.218 110.006 145.054C108.034 146.89 105.586 147.808 102.662 147.808ZM102.866 145.122C103.909 145.122 104.759 144.272 105.416 142.572C106.074 140.849 106.402 139.07 106.402 137.234C106.402 134.673 105.768 133.392 104.498 133.392C103.41 133.392 102.538 134.208 101.88 135.84C101.246 137.449 100.906 139.229 100.86 141.178C100.928 143.807 101.597 145.122 102.866 145.122ZM135.35 142.674C135.803 142.674 136.03 142.969 136.03 143.558C136.03 144.487 135.508 145.428 134.466 146.38C133.446 147.309 132.086 147.774 130.386 147.774C129.23 147.774 128.323 147.389 127.666 146.618C127.031 145.825 126.838 144.623 127.088 143.014L127.496 140.192H122.668L121.954 145.666C121.863 146.323 121.489 146.72 120.832 146.856L116.888 147.774C116.57 147.842 116.31 147.763 116.106 147.536C115.924 147.309 115.868 147.003 115.936 146.618L117.262 136.792C117.33 136.293 117.296 135.897 117.16 135.602C117.046 135.285 116.888 135.092 116.684 135.024C116.48 134.933 116.287 134.797 116.106 134.616C115.924 134.435 115.834 134.208 115.834 133.936C115.834 133.573 116.015 133.233 116.378 132.916C116.763 132.576 117.511 132.202 118.622 131.794C120.435 131.137 121.806 130.808 122.736 130.808C123.529 130.808 123.869 131.216 123.756 132.032L123.008 137.676H127.87L128.55 132.95C128.64 132.27 129.014 131.862 129.672 131.726L133.548 130.808C133.888 130.74 134.148 130.819 134.33 131.046C134.511 131.273 134.579 131.567 134.534 131.93L133.14 141.892C132.936 143.048 133.14 143.626 133.752 143.626C133.978 143.626 134.25 143.467 134.568 143.15C134.908 142.833 135.168 142.674 135.35 142.674ZM165.729 142.674C166.183 142.674 166.409 142.969 166.409 143.558C166.409 144.487 165.888 145.428 164.845 146.38C163.825 147.309 162.465 147.774 160.765 147.774C159.609 147.774 158.703 147.389 158.045 146.618C157.411 145.825 157.218 144.623 157.467 143.014L157.875 140.192H153.047L152.333 145.666C152.243 146.323 151.869 146.72 151.211 146.856L147.267 147.774C146.95 147.842 146.689 147.763 146.485 147.536C146.304 147.309 146.247 147.003 146.315 146.618L147.641 136.792C147.709 136.293 147.675 135.897 147.539 135.602C147.426 135.285 147.267 135.092 147.063 135.024C146.859 134.933 146.667 134.797 146.485 134.616C146.304 134.435 146.213 134.208 146.213 133.936C146.213 133.573 146.395 133.233 146.757 132.916C147.143 132.576 147.891 132.202 149.001 131.794C150.815 131.137 152.186 130.808 153.115 130.808C153.909 130.808 154.249 131.216 154.135 132.032L153.387 137.676H158.249L158.929 132.95C159.02 132.27 159.394 131.862 160.051 131.726L163.927 130.808C164.267 130.74 164.528 130.819 164.709 131.046C164.891 131.273 164.959 131.567 164.913 131.93L163.519 141.892C163.315 143.048 163.519 143.626 164.131 143.626C164.358 143.626 164.63 143.467 164.947 143.15C165.287 142.833 165.548 142.674 165.729 142.674ZM183.59 142.436C184.066 142.096 184.474 142.039 184.814 142.266C185.177 142.493 185.2 142.867 184.882 143.388C184.112 144.68 183.012 145.734 181.584 146.55C180.179 147.366 178.558 147.774 176.722 147.774C174.342 147.774 172.506 147.151 171.214 145.904C169.945 144.657 169.31 142.946 169.31 140.77C169.31 138.073 170.285 135.738 172.234 133.766C174.206 131.771 176.575 130.774 179.34 130.774C181.154 130.774 182.604 131.216 183.692 132.1C184.78 132.961 185.324 134.038 185.324 135.33C185.324 136.599 184.792 137.721 183.726 138.696C182.684 139.648 181.426 140.339 179.952 140.77C178.502 141.178 177.04 141.348 175.566 141.28C176.133 142.912 177.414 143.728 179.408 143.728C181.018 143.728 182.412 143.297 183.59 142.436ZM178.694 133.392C177.584 133.392 176.722 133.925 176.11 134.99C175.498 136.055 175.192 137.155 175.192 138.288C175.192 138.628 175.385 138.798 175.77 138.798C176.972 138.843 178.094 138.537 179.136 137.88C180.202 137.2 180.712 136.316 180.666 135.228C180.644 134.729 180.462 134.299 180.122 133.936C179.782 133.573 179.306 133.392 178.694 133.392ZM224.556 142.64C225.01 142.64 225.236 142.923 225.236 143.49C225.236 144.465 224.726 145.428 223.706 146.38C222.709 147.309 221.36 147.774 219.66 147.774C218.527 147.774 217.654 147.377 217.042 146.584C216.453 145.791 216.294 144.578 216.566 142.946L217.212 139.342C217.575 137.529 217.745 136.293 217.722 135.636C217.722 134.956 217.45 134.616 216.906 134.616C216.702 134.616 216.476 134.673 216.226 134.786C216 134.899 215.705 135.16 215.342 135.568C215.002 135.953 214.662 136.475 214.322 137.132C213.982 137.767 213.62 138.685 213.234 139.886C212.872 141.087 212.532 142.47 212.214 144.034L211.908 145.7C211.75 146.335 211.364 146.72 210.752 146.856L206.808 147.774C206.468 147.842 206.208 147.763 206.026 147.536C205.845 147.309 205.788 147.003 205.856 146.618L207.284 139.342C207.511 138.141 207.636 137.2 207.658 136.52C207.704 135.817 207.658 135.33 207.522 135.058C207.386 134.763 207.148 134.616 206.808 134.616C206.604 134.616 206.389 134.673 206.162 134.786C205.936 134.899 205.652 135.16 205.312 135.568C204.972 135.953 204.644 136.475 204.326 137.132C204.032 137.767 203.703 138.685 203.34 139.886C202.978 141.065 202.638 142.447 202.32 144.034L201.98 145.7C201.844 146.335 201.459 146.72 200.824 146.856L196.914 147.774C196.574 147.842 196.302 147.763 196.098 147.536C195.917 147.309 195.86 147.003 195.928 146.618L197.56 136.758C197.651 136.259 197.628 135.863 197.492 135.568C197.379 135.251 197.209 135.058 196.982 134.99C196.778 134.899 196.586 134.763 196.404 134.582C196.223 134.401 196.132 134.174 196.132 133.902C196.132 133.562 196.336 133.222 196.744 132.882C197.152 132.542 198.014 132.1 199.328 131.556C200.779 131.012 201.799 130.74 202.388 130.74C203.25 130.74 203.635 131.171 203.544 132.032L203.272 134.174C204.111 132.995 205.052 132.134 206.094 131.59C207.16 131.023 208.18 130.74 209.154 130.74C210.242 130.74 211.16 131.035 211.908 131.624C212.656 132.191 213.178 132.973 213.472 133.97C214.198 132.927 215.093 132.134 216.158 131.59C217.224 131.023 218.323 130.74 219.456 130.74C220.975 130.74 222.131 131.42 222.924 132.78C223.74 134.117 223.944 135.783 223.536 137.778L222.652 141.892C222.516 142.572 222.471 143.037 222.516 143.286C222.562 143.535 222.709 143.66 222.958 143.66C223.185 143.66 223.457 143.49 223.774 143.15C224.114 142.81 224.375 142.64 224.556 142.64ZM239.953 135.126C241.268 135.126 242.367 135.534 243.251 136.35C244.135 137.143 244.577 138.175 244.577 139.444C244.577 141.121 244.067 142.617 243.047 143.932C242.05 145.247 240.837 146.221 239.409 146.856C238.004 147.468 236.576 147.774 235.125 147.774C232.768 147.774 231.045 147.23 229.957 146.142C228.869 145.031 228.507 143.388 228.869 141.212L229.617 136.69C229.776 135.738 229.572 135.149 229.005 134.922C228.461 134.605 228.189 134.265 228.189 133.902C228.189 133.675 228.246 133.471 228.359 133.29C228.473 133.086 228.779 132.825 229.277 132.508C229.776 132.191 230.479 131.873 231.385 131.556C232.949 131.012 234.23 130.74 235.227 130.74C236.066 130.74 236.406 131.171 236.247 132.032L235.499 136.86C236.837 135.704 238.321 135.126 239.953 135.126ZM254.369 143.558C254.392 144.487 253.882 145.428 252.839 146.38C251.819 147.309 250.459 147.774 248.759 147.774C247.603 147.774 246.697 147.389 246.039 146.618C245.382 145.825 245.178 144.623 245.427 143.014L246.889 132.95C246.98 132.293 247.365 131.885 248.045 131.726L251.921 130.808C252.239 130.74 252.488 130.819 252.669 131.046C252.873 131.273 252.953 131.567 252.907 131.93L251.479 141.892C251.321 143.048 251.536 143.626 252.125 143.626C252.352 143.626 252.624 143.467 252.941 143.15C253.259 142.833 253.508 142.674 253.689 142.674C254.143 142.674 254.369 142.969 254.369 143.558ZM238.627 140.396C238.673 139.149 238.276 138.526 237.437 138.526C236.712 138.526 236.077 139.081 235.533 140.192C234.989 141.303 234.729 142.357 234.751 143.354C234.774 143.875 234.899 144.317 235.125 144.68C235.352 145.02 235.681 145.179 236.111 145.156C236.791 145.156 237.381 144.646 237.879 143.626C238.378 142.606 238.627 141.529 238.627 140.396ZM271.168 147.706C269.581 147.706 268.471 147.366 267.836 146.686C267.224 146.006 266.737 144.782 266.374 143.014C266.351 142.878 266.306 142.629 266.238 142.266C266.193 141.903 266.136 141.643 266.068 141.484C266.023 141.325 265.943 141.133 265.83 140.906C265.717 140.657 265.547 140.487 265.32 140.396C265.116 140.305 264.844 140.26 264.504 140.26C264.3 140.26 264.153 140.328 264.062 140.464C263.994 140.577 263.926 140.849 263.858 141.28L263.722 142.436C263.654 142.889 263.631 143.286 263.654 143.626C263.677 144.17 263.892 144.657 264.3 145.088C264.731 145.496 264.912 145.938 264.844 146.414C264.753 147.094 264.164 147.434 263.076 147.434H256.956C256.344 147.434 255.913 147.355 255.664 147.196C255.392 147.037 255.279 146.754 255.324 146.346C255.369 145.983 255.528 145.7 255.8 145.496C256.049 145.269 256.333 145.02 256.65 144.748C256.967 144.453 257.205 144.079 257.364 143.626C257.5 143.037 257.591 142.64 257.636 142.436L258.486 136.112C258.554 135.659 258.577 135.251 258.554 134.888C258.531 134.344 258.305 133.868 257.874 133.46C257.466 133.052 257.296 132.61 257.364 132.134C257.455 131.454 258.044 131.114 259.132 131.114H265.252C265.864 131.114 266.295 131.193 266.544 131.352C266.816 131.511 266.929 131.783 266.884 132.168C266.816 132.599 266.499 133.029 265.932 133.46C265.388 133.868 265.025 134.344 264.844 134.888C264.685 135.591 264.595 135.999 264.572 136.112L264.47 137.03C264.425 137.347 264.436 137.54 264.504 137.608C264.572 137.676 264.753 137.71 265.048 137.71H265.388C265.909 137.71 266.385 137.472 266.816 136.996C267.269 136.52 267.677 135.942 268.04 135.262C268.403 134.582 268.799 133.902 269.23 133.222C269.661 132.542 270.227 131.964 270.93 131.488C271.633 131.012 272.437 130.774 273.344 130.774C274.273 130.774 275.01 131.057 275.554 131.624C276.098 132.191 276.291 132.995 276.132 134.038C276.041 134.831 275.747 135.455 275.248 135.908C274.772 136.361 274.228 136.588 273.616 136.588C273.299 136.588 273.027 136.509 272.8 136.35C272.596 136.169 272.449 135.987 272.358 135.806C272.29 135.602 272.177 135.421 272.018 135.262C271.882 135.081 271.712 134.99 271.508 134.99C271.191 134.99 270.862 135.251 270.522 135.772C270.205 136.293 269.808 136.905 269.332 137.608C268.856 138.311 268.335 138.809 267.768 139.104C269.083 139.217 270.057 139.58 270.692 140.192C271.327 140.781 271.814 141.677 272.154 142.878C272.313 143.422 272.471 143.864 272.63 144.204C272.789 144.544 272.97 144.782 273.174 144.918C273.378 145.054 273.537 145.145 273.65 145.19C273.786 145.213 273.99 145.224 274.262 145.224C274.761 145.269 274.987 145.564 274.942 146.108C274.874 146.561 274.5 146.947 273.82 147.264C273.163 147.559 272.279 147.706 271.168 147.706ZM298.152 143.558C298.175 144.487 297.676 145.428 296.656 146.38C295.659 147.309 294.333 147.774 292.678 147.774C291.84 147.774 291.103 147.559 290.468 147.128C289.856 146.675 289.46 145.995 289.278 145.088C287.782 146.879 286.003 147.774 283.94 147.774C282.24 147.774 280.858 147.196 279.792 146.04C278.727 144.884 278.194 143.399 278.194 141.586C278.194 138.594 279.248 136.044 281.356 133.936C283.464 131.828 285.776 130.774 288.292 130.774C289.108 130.774 289.89 130.899 290.638 131.148C291.409 131.375 291.862 131.488 291.998 131.488C292.248 131.488 292.78 131.352 293.596 131.08C294.435 130.808 295.024 130.672 295.364 130.672C295.818 130.672 296.158 130.819 296.384 131.114C296.611 131.409 296.702 131.737 296.656 132.1L295.228 141.892C295.07 143.048 295.285 143.626 295.874 143.626C296.101 143.626 296.373 143.467 296.69 143.15C297.03 142.833 297.291 142.674 297.472 142.674C297.926 142.674 298.152 142.969 298.152 143.558ZM286.082 144C287.012 144 287.782 143.411 288.394 142.232C289.006 141.053 289.448 139.58 289.72 137.812C290.174 134.797 289.618 133.29 288.054 133.29C286.921 133.29 286.026 134.027 285.368 135.5C284.734 136.951 284.394 138.707 284.348 140.77C284.326 141.699 284.462 142.47 284.756 143.082C285.051 143.694 285.493 144 286.082 144ZM315.104 142.436C315.58 142.096 315.988 142.039 316.328 142.266C316.691 142.493 316.713 142.867 316.396 143.388C315.625 144.68 314.526 145.734 313.098 146.55C311.693 147.366 310.072 147.774 308.236 147.774C305.856 147.774 304.02 147.151 302.728 145.904C301.459 144.657 300.824 142.946 300.824 140.77C300.824 138.073 301.799 135.738 303.748 133.766C305.72 131.771 308.089 130.774 310.854 130.774C312.667 130.774 314.118 131.216 315.206 132.1C316.294 132.961 316.838 134.038 316.838 135.33C316.838 136.599 316.305 137.721 315.24 138.696C314.197 139.648 312.939 140.339 311.466 140.77C310.015 141.178 308.553 141.348 307.08 141.28C307.647 142.912 308.927 143.728 310.922 143.728C312.531 143.728 313.925 143.297 315.104 142.436ZM310.208 133.392C309.097 133.392 308.236 133.925 307.624 134.99C307.012 136.055 306.706 137.155 306.706 138.288C306.706 138.628 306.899 138.798 307.284 138.798C308.485 138.843 309.607 138.537 310.65 137.88C311.715 137.2 312.225 136.316 312.18 135.228C312.157 134.729 311.976 134.299 311.636 133.936C311.296 133.573 310.82 133.392 310.208 133.392ZM348.583 142.64C349.037 142.64 349.263 142.923 349.263 143.49C349.263 144.465 348.753 145.428 347.733 146.38C346.736 147.309 345.387 147.774 343.687 147.774C342.554 147.774 341.681 147.377 341.069 146.584C340.48 145.791 340.321 144.578 340.593 142.946L341.239 139.342C341.602 137.529 341.772 136.293 341.749 135.636C341.749 134.956 341.477 134.616 340.933 134.616C340.729 134.616 340.503 134.673 340.253 134.786C340.027 134.899 339.732 135.16 339.369 135.568C339.029 135.953 338.689 136.475 338.349 137.132C338.009 137.767 337.647 138.685 337.261 139.886C336.899 141.087 336.559 142.47 336.241 144.034L335.935 145.7C335.777 146.335 335.391 146.72 334.779 146.856L330.835 147.774C330.495 147.842 330.235 147.763 330.053 147.536C329.872 147.309 329.815 147.003 329.883 146.618L331.311 139.342C331.538 138.141 331.663 137.2 331.685 136.52C331.731 135.817 331.685 135.33 331.549 135.058C331.413 134.763 331.175 134.616 330.835 134.616C330.631 134.616 330.416 134.673 330.189 134.786C329.963 134.899 329.679 135.16 329.339 135.568C328.999 135.953 328.671 136.475 328.353 137.132C328.059 137.767 327.73 138.685 327.367 139.886C327.005 141.065 326.665 142.447 326.347 144.034L326.007 145.7C325.871 146.335 325.486 146.72 324.851 146.856L320.941 147.774C320.601 147.842 320.329 147.763 320.125 147.536C319.944 147.309 319.887 147.003 319.955 146.618L321.587 136.758C321.678 136.259 321.655 135.863 321.519 135.568C321.406 135.251 321.236 135.058 321.009 134.99C320.805 134.899 320.613 134.763 320.431 134.582C320.25 134.401 320.159 134.174 320.159 133.902C320.159 133.562 320.363 133.222 320.771 132.882C321.179 132.542 322.041 132.1 323.355 131.556C324.806 131.012 325.826 130.74 326.415 130.74C327.277 130.74 327.662 131.171 327.571 132.032L327.299 134.174C328.138 132.995 329.079 132.134 330.121 131.59C331.187 131.023 332.207 130.74 333.181 130.74C334.269 130.74 335.187 131.035 335.935 131.624C336.683 132.191 337.205 132.973 337.499 133.97C338.225 132.927 339.12 132.134 340.185 131.59C341.251 131.023 342.35 130.74 343.483 130.74C345.002 130.74 346.158 131.42 346.951 132.78C347.767 134.117 347.971 135.783 347.563 137.778L346.679 141.892C346.543 142.572 346.498 143.037 346.543 143.286C346.589 143.535 346.736 143.66 346.985 143.66C347.212 143.66 347.484 143.49 347.801 143.15C348.141 142.81 348.402 142.64 348.583 142.64ZM359.832 147.774C357.475 147.774 355.65 147.117 354.358 145.802C353.066 144.465 352.42 142.753 352.42 140.668C352.42 137.948 353.406 135.625 355.378 133.698C357.35 131.749 359.651 130.774 362.28 130.774C364.094 130.774 365.624 131.25 366.87 132.202C368.117 133.131 368.752 134.321 368.774 135.772C368.797 136.883 368.491 137.801 367.856 138.526C367.222 139.251 366.428 139.569 365.476 139.478C364.116 139.297 363.436 138.458 363.436 136.962C363.414 134.673 362.79 133.528 361.566 133.528C360.75 133.528 360.048 134.049 359.458 135.092C358.892 136.135 358.608 137.359 358.608 138.764C358.608 140.26 358.994 141.427 359.764 142.266C360.558 143.082 361.714 143.49 363.232 143.49C364.502 143.49 365.76 143.048 367.006 142.164C367.46 141.824 367.811 141.79 368.06 142.062C368.31 142.311 368.298 142.719 368.026 143.286C367.505 144.465 366.519 145.507 365.068 146.414C363.618 147.321 361.872 147.774 359.832 147.774ZM385.365 147.774C384.186 147.774 383.268 147.389 382.611 146.618C381.976 145.825 381.806 144.589 382.101 142.912L382.305 141.688C382.396 141.28 382.237 141.076 381.829 141.076C381.648 141.076 381.512 141.099 381.421 141.144C381.149 141.212 380.888 141.371 380.639 141.62C380.412 141.869 380.231 142.119 380.095 142.368C379.982 142.617 379.789 143.014 379.517 143.558C379.268 144.102 379.064 144.533 378.905 144.85C378.429 145.757 377.817 146.459 377.069 146.958C376.344 147.457 375.222 147.706 373.703 147.706C371.323 147.706 370.201 147.287 370.337 146.448C370.405 145.927 370.722 145.609 371.289 145.496C371.697 145.36 371.969 145.258 372.105 145.19C372.241 145.122 372.456 144.952 372.751 144.68C373.046 144.408 373.352 144.011 373.669 143.49C374.44 142.243 375.301 141.325 376.253 140.736C374.213 139.943 373.34 138.526 373.635 136.486C373.862 134.831 374.746 133.528 376.287 132.576C377.828 131.601 379.778 131.114 382.135 131.114H389.887C391.02 131.114 391.553 131.42 391.485 132.032C391.44 132.372 391.088 132.814 390.431 133.358C389.796 133.902 389.434 134.503 389.343 135.16L388.391 141.892C388.278 142.595 388.244 143.059 388.289 143.286C388.334 143.513 388.482 143.626 388.731 143.626C388.958 143.626 389.23 143.467 389.547 143.15C389.887 142.833 390.148 142.674 390.329 142.674C390.782 142.674 391.009 142.969 391.009 143.558C391.032 144.487 390.522 145.428 389.479 146.38C388.459 147.309 387.088 147.774 385.365 147.774ZM381.489 138.662C381.874 138.662 382.146 138.594 382.305 138.458C382.486 138.322 382.6 138.073 382.645 137.71L383.087 134.888C383.2 134.48 383.212 134.151 383.121 133.902C383.03 133.63 382.724 133.494 382.203 133.494C381.568 133.494 381.036 133.721 380.605 134.174C380.174 134.627 379.891 135.285 379.755 136.146C379.642 136.917 379.766 137.529 380.129 137.982C380.514 138.435 380.968 138.662 381.489 138.662Z" fill="#FFC6F9"/>
</svg>
