<svg width="377" height="38" viewBox="0 0 377 38" fill="none" xmlns="http://www.w3.org/2000/svg">
<path d="M217.502 10L217 10.5022L234.498 27.9928L235 27.4906L217.502 10Z" fill="white"/>
<path d="M234.498 10L217.007 27.498L217.509 28L235 10.502L234.498 10Z" fill="white"/>
<path d="M264.136 32.3448C262.223 32.3552 261.553 31.0197 261.505 19.0104C261.456 6.58381 262.738 5.64477 264.039 5.64477C265.573 5.63434 266.291 7.89847 266.32 13.9605L271.863 13.731C271.834 7.05333 270.951 -0.0311979 263.777 0.000103347C258.855 0.0209709 254.952 5.07091 255 19.0417C255.049 31.0614 257.272 38.0312 263.922 37.9999C271.194 37.9686 272.028 30.258 271.999 23.8934L266.738 23.6535C266.66 28.9434 266.194 32.3344 264.136 32.3448Z" fill="white"/>
<path d="M340.165 22.7004C340.194 30.5575 339.323 32.1434 337.857 32.1434C336.391 32.1434 335.509 30.5782 335.479 22.7212L335.449 15.0715C335.42 7.21444 336.291 5.62853 337.758 5.61816C339.224 5.6078 340.105 7.19371 340.135 15.0507L340.165 22.7004ZM305.959 22.7315C303.076 16.4086 295.488 14.1178 295.468 9.11132C295.458 7.12115 296.33 5.79437 297.846 5.78401C300.382 5.77364 300.402 9.19424 300.402 11.2362L305.909 11.2155L305.959 22.7315ZM283.631 22.9388C283.66 30.7959 282.788 32.3818 281.322 32.3818C279.856 32.3921 278.975 30.8166 278.945 22.9596L278.915 15.2995C278.885 7.44248 279.757 5.85657 281.223 5.8462C282.689 5.83583 283.571 7.42175 283.601 15.2788L283.631 22.9388ZM346.96 14.8642C346.277 3.65909 342.79 -0.0206439 337.738 8.70211e-05C332.22 0.020818 328.604 4.4365 328.545 18.2226L328.476 0.756765L320.224 0.787861L317.321 19.425H317.222L314.32 0.818957L305.88 0.850054L305.909 8.89364C305.295 3.63836 302.977 0.155568 297.975 0.176299C292.665 0.19703 289.852 4.56088 289.812 9.93019C288.475 2.73656 285.374 0.228127 281.194 0.248858C275.587 0.269588 271.941 4.83039 272.001 19.1658C272.06 33.5012 275.735 38.0309 281.342 37.9998C286.949 37.9791 290.595 33.4183 290.535 19.0829C290.525 17.1031 290.446 15.3099 290.307 13.6929C292.526 21.3011 301.382 23.1047 301.402 28.785C301.412 30.2672 300.689 32.3092 298.589 32.3196C295.855 32.3299 295.845 28.7642 295.835 26.7222L290.178 26.743C290.198 31.7495 291.595 37.9584 298.371 37.9377C302.096 37.9169 304.671 36.0097 306.008 33.1488L306.028 37.1913L310.714 37.1706L310.605 10.5418H310.704L315.053 37.1602L318.569 37.1499L322.76 10.5003H322.859L322.968 37.1292L328.624 37.1084L328.555 19.6426C328.723 33.4183 332.379 37.8029 337.896 37.7822C342.948 37.7614 346.406 34.0506 347 22.8352L346.96 14.8642Z" fill="white"/>
<path d="M4.94188 9.99122C4.1248 10.8265 3.64242 12.0183 3.64242 13.4647C3.64242 14.9213 4.11495 16.1335 4.94188 16.9688C5.77865 17.8244 6.96982 18.3031 8.38741 18.3031C9.80501 18.3031 10.9962 17.8244 11.8329 16.9688C12.6599 16.1335 13.1324 14.9315 13.1324 13.4647C13.1324 12.0081 12.6599 10.8163 11.8329 9.98103C10.9962 9.13558 9.80501 8.66702 8.38741 8.66702C6.96982 8.66702 5.77865 9.14577 4.94188 9.99122ZM35.5481 18.7004H30.0549V9.4921H35.5481C35.7056 9.4921 35.8631 9.50228 36.0108 9.52265C37.4185 9.70601 38.3242 10.7857 38.6097 12.1914C38.7475 12.8739 38.7475 15.3492 38.6097 16.0316C38.3242 17.4373 37.4283 18.4967 36.0108 18.68C35.8631 18.6902 35.7056 18.7004 35.5481 18.7004ZM36.4931 22.6526C38.7967 22.3776 40.7951 21.1451 41.9075 19.0162C42.4884 17.9161 42.764 16.7141 42.8132 15.4714C42.8231 15.2982 42.8231 13.4545 42.8231 13.2814C42.8231 11.8553 42.5573 10.47 41.8977 9.21707C40.7853 7.07798 38.8066 5.82508 36.4833 5.55005C36.1486 5.50931 35.7942 5.48893 35.4398 5.48893H27.8104H26.0187V30.3941H30.0549V22.7137H35.4398C35.7942 22.7036 36.1486 22.6832 36.4931 22.6526ZM59.273 11.7432L62.689 21.8072H55.8767L59.273 11.7432ZM69.8164 30.3941L60.9367 5.48893H57.6192L48.7297 30.3941H53.0809L54.7052 25.4946L63.8408 25.4844L65.475 30.3839H69.8164V30.3941ZM92.5864 22.6832L82.1514 5.62135H78.5975V30.5062H82.6042V13.7194L93.0097 30.5164H96.5931V5.62135H92.5963V22.6832H92.5864ZM111.901 9.4921H116.823C117.237 9.4921 117.621 9.52266 117.985 9.57359C120.033 9.87917 121.44 11.1117 121.785 13.261C121.844 13.6073 121.864 13.9842 121.864 14.3815V21.4812C121.864 21.8785 121.834 22.2554 121.785 22.6017C121.519 24.2926 120.564 25.5149 118.999 26.0548C118.684 26.1669 118.349 26.2483 117.985 26.2993C117.621 26.3502 117.237 26.3808 116.823 26.3808H111.901V9.4921ZM125.9 13.1591C125.496 9.17633 123.193 6.54829 119.393 5.74359C118.979 5.65191 118.546 5.5908 118.103 5.55005C117.65 5.50931 117.197 5.47875 116.715 5.47875H110.178H107.865V30.3839H116.705C117.178 30.3839 117.64 30.3636 118.093 30.3228C121.873 29.9561 124.817 27.9494 125.703 23.9768C125.792 23.5694 125.86 23.1518 125.91 22.7137C125.959 22.2757 125.979 21.8174 125.979 21.3488V14.5139C125.969 14.0555 125.949 13.5971 125.9 13.1591ZM143.876 11.896L146.986 21.2469H140.775L143.876 11.896ZM154.37 30.4043L145.559 5.70284L145.539 5.63154H142.488H142.222L133.391 30.3941L133.342 30.5367H137.693L139.456 25.2399H148.325L150.087 30.5367H154.439L154.37 30.4043ZM177.868 7.51598C176.214 6.40569 174.354 5.65191 172.395 5.42782C171.972 5.37689 171.558 5.35651 171.135 5.35651C167.955 5.35651 164.519 6.3242 163.151 9.60414C162.393 11.4173 162.363 14.2287 163.19 16.0113C164.667 19.1791 168.447 19.3727 171.361 20.0042C171.597 20.0552 171.824 20.1061 172.04 20.1672C173.045 20.4219 173.99 20.6969 174.698 21.522C174.885 21.7461 175.023 22.0109 175.112 22.2961C175.525 23.6203 175.122 25.0769 173.98 25.8715C173.497 26.2076 172.946 26.4215 172.385 26.5539C170.928 26.9104 169.058 26.8493 167.601 26.4623C167.325 26.391 167.069 26.3095 166.803 26.2076C166.006 25.9122 165.268 25.4946 164.588 24.9853C164.293 24.7612 164.027 24.5269 163.751 24.2824L161.379 27.2975C161.635 27.5216 161.901 27.7457 162.167 27.9596C165.543 30.5673 171.046 31.3516 174.935 29.6811C175.555 29.4162 176.155 29.0699 176.687 28.6319C177.445 28.0106 178.046 27.2364 178.449 26.3197C179.217 24.5574 179.256 21.8785 178.479 20.1163C177.593 18.1096 175.87 17.254 173.911 16.6632C173.616 16.5715 173.301 16.49 172.976 16.4085C171.282 15.9807 167.689 15.6649 166.705 14.0351C166.222 13.2406 166.281 11.9266 166.665 11.1117C167.128 10.1236 168.083 9.59396 169.077 9.32912C169.678 9.17633 170.357 9.09484 171.135 9.09484C172.769 9.09484 174.265 9.69582 175.634 10.6024C175.929 10.7959 176.214 11.0098 176.5 11.2339L178.676 8.09659C178.41 7.89287 178.144 7.69933 177.868 7.51598ZM14.4319 7.37337C15.9085 8.87074 16.7748 10.9793 16.7748 13.4647C16.7748 14.4324 16.6469 15.3492 16.4007 16.1844C16.2039 16.8669 15.9184 17.4984 15.564 18.0892H15.5935L7.61955 30.3839H3.42585L8.98792 21.8989C8.79103 21.909 8.59415 21.9192 8.38741 21.9192C5.93616 21.9192 3.82946 21.0534 2.34296 19.5459C0.866306 18.0689 0 15.9603 0 13.4647C0 10.9691 0.866306 8.86055 2.35281 7.37337C3.83931 5.87601 5.93616 5 8.38741 5C10.8387 5 12.9454 5.87601 14.4319 7.37337Z" fill="white"/>
<path d="M193.127 34C195.814 34 198 31.7387 198 28.9579C198 26.177 195.805 23.9157 193.127 23.9157C190.439 23.9157 188.244 26.177 188.244 28.9579C188.244 31.7387 190.439 34 193.127 34Z" fill="#EE3441"/>
</svg>
