<svg width="314" height="34" viewBox="0 0 314 34" fill="none" xmlns="http://www.w3.org/2000/svg">
<path d="M101.803 8.94763L101.349 9.39697L117.183 25.0464L117.637 24.5971L101.803 8.94763Z" fill="white"/>
<path d="M117.182 8.94743L101.355 24.6035L101.809 25.0527L117.636 9.39658L117.182 8.94743Z" fill="white"/>
<path d="M8.26693 28.9401C6.53632 28.9494 5.93017 27.7545 5.88625 17.0093C5.84233 5.89078 7.00194 5.05059 8.1791 5.05059C9.56711 5.04125 10.2172 7.06705 10.2435 12.491L15.2597 12.2856C15.2333 6.31088 14.4339 -0.027914 7.9419 9.24683e-05C3.48799 0.0187634 -0.0435188 4.53713 0.000405322 17.0373C0.0443294 27.7918 2.05606 34.0279 8.07366 33.9999C14.6535 33.9719 15.409 27.073 15.3826 21.3783L10.6213 21.1636C10.551 25.8967 10.1293 28.9307 8.26693 28.9401Z" fill="white"/>
<path d="M77.0655 20.3109C77.0924 27.3409 76.3036 28.7598 74.9769 28.7598C73.6502 28.7598 72.8524 27.3594 72.8255 20.3295L72.7987 13.485C72.7718 6.45503 73.5606 5.03605 74.8873 5.02678C76.2139 5.0175 77.0117 6.43648 77.0386 13.4664L77.0655 20.3109ZM46.1127 20.3387C43.5041 14.6814 36.6377 12.6317 36.6198 8.15224C36.6108 6.37156 37.3997 5.18444 38.7712 5.17517C41.066 5.16589 41.0839 8.22643 41.0839 10.0535L46.0679 10.0349L46.1127 20.3387ZM25.9078 20.5242C25.9346 27.5542 25.1458 28.9732 23.8191 28.9732C22.4924 28.9824 21.6946 27.5727 21.6678 20.5428L21.6409 13.689C21.614 6.65906 22.4028 5.24009 23.7295 5.23081C25.0561 5.22154 25.854 6.64052 25.8809 13.6705L25.9078 20.5242ZM83.2149 13.2995C82.5964 3.27392 79.441 -0.0184708 74.8693 7.78607e-05C69.8764 0.0186266 66.6045 3.9695 66.5507 16.3044L66.488 0.677106L59.0209 0.704929L56.3944 17.3802H56.3048L53.6783 0.732752L46.041 0.760575L46.0679 7.95747C45.5121 3.25538 43.4145 0.139193 38.8877 0.157742C34.0829 0.176291 31.5372 4.08079 31.5013 8.88491C30.2912 2.44851 27.4854 0.204114 23.7026 0.222662C18.6289 0.241211 15.3302 4.32193 15.3839 17.1484C15.4377 29.9748 18.7634 34.0277 23.8371 33.9999C28.9107 33.9813 32.2095 29.9006 32.1557 17.0742C32.1467 15.3028 32.075 13.6983 31.9495 12.2515C33.9575 19.0589 41.9713 20.6726 41.9892 25.755C41.9982 27.0812 41.3438 28.9082 39.4435 28.9175C36.9694 28.9268 36.9604 25.7364 36.9514 23.9094L31.833 23.9279C31.8509 28.4074 33.1148 33.9628 39.2463 33.9442C42.6167 33.9257 44.9474 32.2192 46.1575 29.6595L46.1754 33.2765L50.4154 33.2579L50.3168 9.4321H50.4065L54.3417 33.2486L57.5239 33.2394L61.3157 9.395H61.4054L61.504 33.2208L66.6224 33.2023L66.5597 17.575C66.7121 29.9006 70.0198 33.8236 75.0128 33.8051C79.5844 33.7865 82.7129 30.4663 83.2507 20.4315L83.2149 13.2995Z" fill="white"/>
<path d="M139.302 8.93946C138.563 9.6868 138.126 10.7531 138.126 12.0473C138.126 13.3506 138.554 14.4352 139.302 15.1825C140.059 15.9481 141.137 16.3764 142.42 16.3764C143.703 16.3764 144.781 15.9481 145.538 15.1825C146.286 14.4352 146.714 13.3597 146.714 12.0473C146.714 10.744 146.286 9.67769 145.538 8.93035C144.781 8.17389 143.703 7.75465 142.42 7.75465C141.137 7.75465 140.059 8.18301 139.302 8.93946ZM166.997 16.7319H162.027V8.49288H166.997C167.14 8.49288 167.283 8.50199 167.416 8.52022C168.69 8.68427 169.51 9.65035 169.768 10.9081C169.893 11.5187 169.893 13.7334 169.768 14.344C169.51 15.6018 168.699 16.5496 167.416 16.7137C167.283 16.7228 167.14 16.7319 166.997 16.7319ZM167.853 20.2681C169.937 20.022 171.746 18.9192 172.752 17.0144C173.278 16.0301 173.527 14.9547 173.572 13.8428C173.581 13.6878 173.581 12.0382 173.581 11.8833C173.581 10.6073 173.34 9.36782 172.743 8.2468C171.737 6.33288 169.946 5.21186 167.844 4.96579C167.541 4.92933 167.22 4.9111 166.9 4.9111H159.996H158.374V27.1947H162.027V20.3228H166.9C167.22 20.3137 167.541 20.2954 167.853 20.2681ZM188.466 10.5071L191.557 19.5116H185.393L188.466 10.5071ZM198.007 27.1947L189.972 4.9111H186.97L178.926 27.1947H182.863L184.333 22.8109L192.6 22.8018L194.078 27.1856H198.007V27.1947ZM218.611 20.2954L209.169 5.02958H205.953V27.2949H209.579V12.2752L218.994 27.304H222.237V5.02958H218.62V20.2954H218.611ZM236.089 8.49288H240.543C240.918 8.49288 241.265 8.52022 241.595 8.56579C243.447 8.83921 244.721 9.942 245.033 11.865C245.087 12.1749 245.104 12.5121 245.104 12.8676V19.22C245.104 19.5754 245.078 19.9126 245.033 20.2225C244.793 21.7354 243.928 22.8291 242.512 23.3121C242.227 23.4124 241.924 23.4853 241.595 23.5309C241.265 23.5764 240.918 23.6038 240.543 23.6038H236.089V8.49288ZM248.757 11.7739C248.391 8.21035 246.307 5.85895 242.868 5.13895C242.494 5.05692 242.102 5.00224 241.701 4.96579C241.292 4.92933 240.882 4.90199 240.445 4.90199H234.53H232.437V27.1856H240.436C240.864 27.1856 241.283 27.1673 241.693 27.1309C245.113 26.8028 247.777 25.0073 248.579 21.4529C248.659 21.0883 248.721 20.7147 248.766 20.3228C248.81 19.9309 248.828 19.5207 248.828 19.1015V12.9861C248.819 12.5759 248.801 12.1658 248.757 11.7739ZM265.023 10.6438L267.838 19.0104H262.217L265.023 10.6438ZM274.519 27.2038L266.546 5.10249L266.529 5.0387H263.767H263.526L255.536 27.1947L255.491 27.3223H259.429L261.023 22.583H269.05L270.644 27.3223H274.581L274.519 27.2038ZM295.783 6.72478C294.286 5.73136 292.603 5.05692 290.83 4.85642C290.447 4.81085 290.073 4.79262 289.69 4.79262C286.812 4.79262 283.703 5.65844 282.465 8.59313C281.779 10.2154 281.753 12.7309 282.501 14.3258C283.837 17.1602 287.258 17.3334 289.895 17.8985C290.108 17.944 290.313 17.9896 290.509 18.0443C291.418 18.2721 292.273 18.5182 292.915 19.2564C293.084 19.4569 293.208 19.6939 293.289 19.9491C293.663 21.1339 293.298 22.4372 292.264 23.1481C291.828 23.4489 291.329 23.6402 290.821 23.7587C289.503 24.0777 287.81 24.023 286.492 23.6767C286.242 23.6129 286.011 23.54 285.77 23.4489C285.049 23.1845 284.38 22.8109 283.766 22.3552C283.499 22.1547 283.258 21.9451 283.009 21.7263L280.862 24.424C281.093 24.6245 281.334 24.8251 281.574 25.0164C284.63 27.3496 289.61 28.0514 293.128 26.5567C293.69 26.3197 294.233 26.0099 294.714 25.618C295.4 25.062 295.943 24.3694 296.309 23.5491C297.003 21.9724 297.039 19.5754 296.335 17.9987C295.534 16.2033 293.975 15.4377 292.202 14.9091C291.935 14.8271 291.65 14.7542 291.356 14.6812C289.823 14.2985 286.572 14.0159 285.681 12.5577C285.245 11.8468 285.298 10.6711 285.645 9.942C286.064 9.05794 286.928 8.58402 287.828 8.34706C288.371 8.21035 288.986 8.13744 289.69 8.13744C291.169 8.13744 292.523 8.67516 293.761 9.4863C294.028 9.65946 294.286 9.85086 294.545 10.0514L296.513 7.24427C296.273 7.06199 296.032 6.88883 295.783 6.72478ZM147.889 6.59718C149.226 7.93693 150.01 9.82351 150.01 12.0473C150.01 12.9131 149.894 13.7334 149.671 14.4807C149.493 15.0914 149.235 15.6564 148.914 16.185H148.941L141.725 27.1856H137.93L142.963 19.5937C142.785 19.6028 142.607 19.6119 142.42 19.6119C140.202 19.6119 138.295 18.8372 136.95 17.4883C135.614 16.1668 134.83 14.2802 134.83 12.0473C134.83 9.8144 135.614 7.92782 136.959 6.59718C138.304 5.25743 140.202 4.47363 142.42 4.47363C144.638 4.47363 146.544 5.25743 147.889 6.59718Z" fill="white"/>
<path d="M309.591 30.4207C312.023 30.4207 314 28.3975 314 25.9093C314 23.4212 312.014 21.3979 309.591 21.3979C307.159 21.3979 305.172 23.4212 305.172 25.9093C305.172 28.3975 307.159 30.4207 309.591 30.4207Z" fill="#EE3441"/>
</svg>
