<svg width="38" height="407" viewBox="0 0 38 407" fill="none" xmlns="http://www.w3.org/2000/svg">
<g clip-path="url(#clip0)">
<path d="M10 159.498L10.5022 160L27.9928 142.502L27.4906 142L10 159.498Z" fill="white"/>
<path d="M10.0001 142.502L27.498 159.993L28 159.491L10.5021 142L10.0001 142.502Z" fill="white"/>
<path d="M32.3448 112.864C32.3552 114.777 31.0197 115.447 19.0104 115.495C6.58381 115.544 5.64477 114.262 5.64477 112.961C5.63434 111.427 7.89847 110.709 13.9605 110.68L13.7309 105.137C7.05333 105.166 -0.0311971 106.049 0.000103341 113.223C0.0209702 118.145 5.07092 122.048 19.0417 122C31.0614 121.951 38.0312 119.728 37.9999 113.078C37.9686 105.806 30.258 104.972 23.8934 105.001L23.6535 110.262C28.9434 110.34 32.3344 110.806 32.3448 112.864Z" fill="white"/>
<path d="M22.7004 36.8353C30.5575 36.8055 32.1434 37.6773 32.1434 39.1434C32.1434 40.6095 30.5782 41.4911 22.7212 41.5208L15.0715 41.5505C7.21444 41.5803 5.62853 40.7085 5.61816 39.2424C5.6078 37.7763 7.19371 36.8947 15.0507 36.865L22.7004 36.8353ZM22.7315 71.0411C16.4086 73.9238 14.1178 81.5119 9.11131 81.5317C7.12115 81.5416 5.79437 80.6698 5.784 79.1542C5.77364 76.6182 9.19424 76.5984 11.2362 76.5984L11.2155 71.0906L22.7315 71.0411ZM22.9388 93.3695C30.7959 93.3398 32.3818 94.2115 32.3818 95.6776C32.3921 97.1437 30.8166 98.0254 22.9596 98.0551L15.2995 98.0848C7.44247 98.1145 5.85656 97.2428 5.84619 95.7767C5.83583 94.3106 7.42174 93.4289 15.2788 93.3992L22.9388 93.3695ZM14.8642 30.0396C3.65909 30.7232 -0.0206432 34.2101 8.70152e-05 39.2622C0.0208172 44.7799 4.4365 48.3957 18.2226 48.4551L0.756764 48.5245L0.787859 56.7763L19.425 59.6788V59.7778L0.818954 62.6803L0.85005 71.1203L8.89364 71.0906C3.63836 71.7048 0.155564 74.0228 0.176294 79.0254C0.197024 84.3351 4.56088 87.1484 9.93018 87.1881C2.73656 88.5254 0.22812 91.626 0.24885 95.8064C0.26958 101.413 4.83038 105.059 19.1658 104.999C33.5012 104.94 38.0309 101.265 37.9998 95.6578C37.9791 90.0509 33.4183 86.4055 19.0829 86.4649C17.1031 86.4748 15.3099 86.5541 13.6929 86.6928C21.3011 84.4738 23.1047 75.6177 28.785 75.5979C30.2672 75.588 32.3092 76.3111 32.3196 78.4112C32.3299 81.1453 28.7642 81.1553 26.7222 81.1652L26.743 86.8215C31.7495 86.8017 37.9584 85.405 37.9377 78.6292C37.9169 74.9045 36.0097 72.3289 33.1488 70.9916L37.1913 70.9717L37.1706 66.2861L10.5418 66.3951V66.2961L37.1602 61.9473L37.1499 58.4306L10.5003 54.2403V54.1412L37.1291 54.0323L37.1084 48.3759L19.6426 48.4452C33.4183 48.2768 37.8029 44.6214 37.7822 39.1037C37.7614 34.0516 34.0506 30.5944 22.8352 30L14.8642 30.0396Z" fill="white"/>
<path d="M9.99122 372.058C10.8265 372.875 12.0183 373.358 13.4647 373.358C14.9213 373.358 16.1335 372.885 16.9687 372.058C17.8244 371.221 18.3031 370.03 18.3031 368.613C18.3031 367.195 17.8244 366.004 16.9687 365.167C16.1335 364.34 14.9315 363.868 13.4647 363.868C12.0081 363.868 10.8163 364.34 9.98104 365.167C9.13558 366.004 8.66702 367.195 8.66702 368.613C8.66702 370.03 9.14577 371.221 9.99122 372.058ZM18.7004 341.452V346.945H9.4921V341.452C9.4921 341.294 9.50229 341.137 9.52266 340.989C9.70601 339.582 10.7857 338.676 12.1914 338.39C12.8739 338.253 15.3491 338.253 16.0316 338.39C17.4373 338.676 18.4967 339.572 18.68 340.989C18.6902 341.137 18.7004 341.294 18.7004 341.452ZM22.6526 340.507C22.3776 338.203 21.1451 336.205 19.0162 335.092C17.9161 334.512 16.7141 334.236 15.4714 334.187C15.2982 334.177 13.4545 334.177 13.2814 334.177C11.8553 334.177 10.47 334.443 9.21708 335.102C7.07798 336.215 5.82508 338.193 5.55006 340.517C5.50931 340.851 5.48894 341.206 5.48894 341.56V349.19V350.981H30.3941V346.945H22.7137V341.56C22.7036 341.206 22.6832 340.851 22.6526 340.507ZM11.7432 317.727L21.8072 314.311V321.123L11.7432 317.727ZM30.3941 307.184L5.48894 316.063V319.381L30.3941 328.27V323.919L25.4946 322.295L25.4844 313.159L30.3839 311.525V307.184H30.3941ZM22.6832 284.414L5.62137 294.849V298.402H30.5062V294.396H13.7194L30.5164 283.99V280.407H5.62137V284.404H22.6832V284.414ZM9.49211 265.099V260.177C9.49211 259.763 9.52267 259.379 9.5736 259.015C9.87919 256.967 11.1117 255.56 13.261 255.215C13.6073 255.156 13.9842 255.136 14.3815 255.136H21.4812C21.8785 255.136 22.2554 255.166 22.6017 255.215C24.2926 255.481 25.515 256.436 26.0548 258.001C26.1669 258.316 26.2484 258.651 26.2993 259.015C26.3502 259.379 26.3808 259.763 26.3808 260.177V265.099H9.49211ZM13.1591 251.1C9.17634 251.504 6.54831 253.807 5.74361 257.607C5.65193 258.021 5.59081 258.454 5.55007 258.897C5.50932 259.35 5.47876 259.803 5.47876 260.285V266.822V269.135H30.3839V260.295C30.3839 259.822 30.3636 259.36 30.3228 258.907C29.9561 255.127 27.9494 252.183 23.9768 251.297C23.5694 251.208 23.1518 251.14 22.7138 251.09C22.2758 251.041 21.8174 251.021 21.3488 251.021H14.5139C14.0555 251.031 13.5971 251.051 13.1591 251.1ZM11.8961 233.124L21.247 230.014V236.225L11.8961 233.124ZM30.4043 222.63L5.70286 231.441L5.63156 231.461V234.512V234.778L30.3941 243.609L30.5367 243.658V239.307L25.2399 237.544V228.675L30.5367 226.913V222.561L30.4043 222.63ZM7.51601 199.132C6.40571 200.786 5.65194 202.646 5.42784 204.605C5.37691 205.028 5.35654 205.442 5.35654 205.865C5.35654 209.045 6.32422 212.481 9.60417 213.849C11.4173 214.607 14.2287 214.637 16.0113 213.81C19.1792 212.333 19.3727 208.553 20.0042 205.639C20.0552 205.403 20.1061 205.176 20.1672 204.96C20.4219 203.955 20.6969 203.01 21.522 202.302C21.7461 202.115 22.0109 201.977 22.2961 201.888C23.6203 201.475 25.077 201.878 25.8715 203.02C26.2076 203.503 26.4215 204.054 26.5539 204.615C26.9105 206.072 26.8493 207.942 26.4623 209.399C26.391 209.675 26.3095 209.931 26.2076 210.197C25.9122 210.994 25.4946 211.733 24.9853 212.412C24.7612 212.707 24.5269 212.973 24.2824 213.249L27.2975 215.621C27.5216 215.365 27.7457 215.099 27.9596 214.833C30.5673 211.457 31.3516 205.954 29.6811 202.065C29.4163 201.445 29.0699 200.845 28.6319 200.313C28.0106 199.555 27.2364 198.955 26.3197 198.551C24.5575 197.783 21.8785 197.744 20.1163 198.521C18.1096 199.407 17.254 201.13 16.6632 203.089C16.5715 203.384 16.49 203.699 16.4085 204.024C15.9807 205.718 15.6649 209.311 14.0352 210.295C13.2406 210.778 11.9266 210.719 11.1117 210.335C10.1237 209.872 9.59398 208.917 9.32914 207.923C9.17635 207.322 9.09486 206.643 9.09486 205.865C9.09486 204.231 9.69585 202.735 10.6024 201.366C10.796 201.071 11.0099 200.786 11.234 200.5L8.09662 198.324C7.89289 198.59 7.69936 198.856 7.51601 199.132ZM7.37338 362.568C8.87074 361.091 10.9793 360.225 13.4647 360.225C14.4324 360.225 15.3491 360.353 16.1844 360.599C16.8669 360.796 17.4984 361.082 18.0892 361.436V361.406L30.3839 369.38V373.574L21.8989 368.012C21.909 368.209 21.9192 368.406 21.9192 368.613C21.9192 371.064 21.0534 373.171 19.5458 374.657C18.0689 376.134 15.9603 377 13.4647 377C10.9691 377 8.86056 376.134 7.37338 374.647C5.87601 373.161 5 371.064 5 368.613C5 366.161 5.87601 364.055 7.37338 362.568Z" fill="white"/>
<path d="M34.0001 183.873C34.0001 181.185 31.7387 179 28.9579 179C26.1771 179 23.9158 181.195 23.9158 183.873C23.9158 186.561 26.1771 188.756 28.9579 188.756C31.7387 188.756 34.0001 186.561 34.0001 183.873Z" fill="#EE3441"/>
</g>
<defs>
<clipPath id="clip0">
<rect width="38" height="407" fill="white"/>
</clipPath>
</defs>
</svg>
